<svg id="Layer_1" data-name="Layer 1" xmlns="http://www.w3.org/2000/svg" xmlns:xlink="http://www.w3.org/1999/xlink" viewBox="0 0 612 792"><defs><style>.cls-1{fill:none;}.cls-2{fill:#352626;}.cls-3{fill:#8e6542;}.cls-4{fill:#9e7144;}.cls-5{clip-path:url(#clip-path);}.cls-6{fill:#8c613e;}.cls-7{fill:#a57146;}.cls-8{fill:#d28e5a;}.cls-9{fill:#c38653;}.cls-10{fill:#7f593e;}.cls-11{fill:#fff;}.cls-12{fill:#332214;}.cls-13{fill:#142026;}.cls-14{fill:#96603c;}.cls-15{fill:#684526;}.cls-16{fill:#231f20;}.cls-17{fill:#dcbd26;}.cls-18{fill:#d8d8d8;}.cls-19{fill:#201009;}.cls-20{opacity:0.53;}.cls-21{fill:#674335;}</style><clipPath id="clip-path"><rect class="cls-1" x="274.2" y="434.8" width="60.7" height="35.98"/></clipPath></defs><title>OOW II - Final avatars</title><path class="cls-2" d="M298.8,421.8a7.5,7.5,0,0,0-.9,3.5v3.3a7.5,7.5,0,1,0,15,0v-3.3a7.5,7.5,0,0,0-.9-3.5,63.1,63.1,0,0,0-13.2,0Z"/><path class="cls-3" d="M304.4,397.9V600H194.8l-2.7-1.1c0-108.4,67.1-116.5,67.1-116.5,6.7,0,11-8.6,13.8-21.7.5-2,.9-4.1,1.2-6.4s1.1-7.6,1.5-11.7c.2-2.4.5-4.9.7-7.5,1-12.4,1.3-25.9,1.3-38.7,0,0,14.8,1.4,26.7,1.4"/><path class="cls-4" d="M417.1,598.8l-2.6,1.2H304.4V397.9h.2c11.9,0,26.7-1.4,26.7-1.4,0,12.7.3,26,1.3,38.4l.7,7.3c.4,4.2.9,8.2,1.5,12h0c.2,1.7.6,3.3.9,4.8,2.8,14,7.3,23.4,14.2,23.4,0,0,67.1,8.1,67.1,116.5"/><g class="cls-5"><path class="cls-6" d="M334.9,454.1h0a35.5,35.5,0,0,1-30.4,16.6h-.2c-17.4-.1-27.6-12.8-30.2-16.5q.9-5.5,1.5-11.7c.2-2.4.5-4.9.7-7.5a119.3,119.3,0,0,0,27.6,3.6h.3a113.2,113.2,0,0,0,28.3-3.9l.7,7.3c.4,4.2.9,8.2,1.5,12"/></g><path class="cls-3" d="M304.7,166.1c-116.1,0-116.8,97.4-111.6,161.1-7.9-15.1-31.5-10.4-29.6,13.4s35.1,34.8,34.7,32.1c9.5,52.5,64.1,82.8,106.5,82.8h.9V166.1h-.9"/><path class="cls-7" d="M171,330.6c5.8-9.2,14.6-5.2,16.8-3.2s4.2,5.1,2.7,10.5c-.8,3.1-4,3.3-3.2,8s3.3,5.6,4.6,6.7,3.1,2.1,3.9,4.3a12,12,0,0,1,.5,6.6c-.9,3.8-6.4.8-10-.9s-10.1-7.6-12-9.8c-4.8-5.5-7.1-16.1-3.3-22.2"/><path class="cls-4" d="M305.3,166.1c116.1,0,116.8,97.4,111.6,161.1,7.9-15.1,31.5-10.4,29.6,13.4s-35.1,34.8-34.7,32.1c-9.5,52.5-64.1,82.8-106.5,82.8h-.9V166.1h.9"/><path class="cls-7" d="M439,330.6c-5.7-9.2-14.6-5.2-16.8-3.2s-4.2,5.1-2.7,10.5c.8,3.1,4,3.3,3.2,8s-3.2,5.6-4.7,6.7-3,2.1-3.9,4.3a11.6,11.6,0,0,0-.5,6.6c.9,3.8,6.3.8,10-.9s10.1-7.6,12-9.8c4.9-5.5,7.2-16.1,3.3-22.2"/><path class="cls-3" d="M303.7,193.6c-38.2,0-66.1,11.1-83.1,33.1-23.7,30.6-22.8,77.5-14,111.1,2.7,10.3,4,38,5.9,48.2,8.2,45.4,58.3,69.7,91.2,69.7h.9V193.6h-.9"/><path id="_Path_" data-name="&lt;Path&gt;" class="cls-8" d="M326.5,404.7c-3-.1-6.2,2-9.8,1.7h-.4a7.4,7.4,0,0,0-2.6.2,31.8,31.8,0,0,0-3.4.9,18.3,18.3,0,0,1-6,.8h-.2a18.3,18.3,0,0,1-6-.8,31.8,31.8,0,0,0-3.4-.9,7.4,7.4,0,0,0-2.6-.2h-.4c-3.7.3-6.8-1.8-9.8-1.7-.8.1-2.1-.1-2.7-.1l.5.2c8.7,3.6,16.2,10.3,24.5,10.1h.2c8.3.2,15.8-6.5,24.5-10.1l.5-.2C328.5,404.6,327.3,404.8,326.5,404.7Z"/><path class="cls-9" d="M329,404.5h0s-8.8-2.9-15.1-1.2a44.4,44.4,0,0,1-4.8,1.2,14.8,14.8,0,0,1-5,.6h0l-3.6-.3-1-.2h-1.4l-3.7-1c-6.3-1.7-15.1,1.2-15.1,1.2h-.2c.7,0,1.9.2,2.7.1,2.5-.1,5.1,1.3,7.9,1.7a74,74,0,0,0,10.6,1.6,15.4,15.4,0,0,0,3.7.2h2.3a42.2,42.2,0,0,0,12.3-1.8h0c2.8-.4,5.3-1.7,7.8-1.6.8.1,2.1-.1,2.7-.1Z"/><path id="_Path_2" data-name="&lt;Path&gt;" class="cls-10" d="M289.5,364.3c-.3-6.2,11.4-2.3,15.3-2.1s12.3-2,13.1-1.4c5.5,3.7-5.8,11.1-13.3,11.1C302.5,371.9,289.7,368,289.5,364.3Z"/><path id="_Path_3" data-name="&lt;Path&gt;" class="cls-11" d="M382.3,311.2s-9.4,17.5-24.5,18.9-31.2-1.2-31.2-1.2,1.7-16.3,9.5-19S358.8,304.7,382.3,311.2Z"/><path id="_Path_4" data-name="&lt;Path&gt;" class="cls-12" d="M336.1,317.3c.8,7.2,7.8,12.7,15.5,12.3s13.4-6.7,12.6-13.9-7.8-12.7-15.5-12.3S335.3,310,336.1,317.3Z"/><path id="_Path_5" data-name="&lt;Path&gt;" class="cls-13" d="M350.7,323.8a6.1,6.1,0,0,0,5.4-6.8,7,7,0,0,0-6.8-6,6.1,6.1,0,0,0-5.4,6.8A7,7,0,0,0,350.7,323.8Z"/><path id="_Path_6" data-name="&lt;Path&gt;" class="cls-14" d="M326.5,328.9l1.1.2c.4-6.3,2-14.9,6.8-16.6,7.2-2.6,23.5-6.2,44.7,3.4a36.5,36.5,0,0,0,3.1-4.8c-23.1-12.2-41-8.2-48.7-5.5S326.5,328.9,326.5,328.9Z"/><path id="_Path_7" data-name="&lt;Path&gt;" class="cls-11" d="M225,309.8s10,18,25.2,19.9,31.2-.3,31.2-.3-1.1-17.3-9-20.2S248.1,302.5,225,309.8Z"/><path id="_Path_8" data-name="&lt;Path&gt;" class="cls-12" d="M268.4,317.3c-.7,7-7.2,12.2-14.7,11.7s-12.9-6.7-12.3-13.7,7.2-12.3,14.7-11.7S269,310.3,268.4,317.3Z"/><path id="_Path_9" data-name="&lt;Path&gt;" class="cls-13" d="M254.5,323.5a6.1,6.1,0,0,1-5.3-6.6,6.5,6.5,0,0,1,6.4-5.8,6.1,6.1,0,0,1,5.3,6.6A6.5,6.5,0,0,1,254.5,323.5Z"/><path id="_Path_10" data-name="&lt;Path&gt;" class="cls-15" d="M281.5,329.3l-1.1.2c-.7-6.4-2.5-15.1-7.4-17-8.9-3.4-25.1-6.4-44.6,2.2a39.9,39.9,0,0,1-3.3-4.9c22.7-11.7,40.7-7.1,48.6-4.1S281.5,329.3,281.5,329.3Z"/><g id="_Group_" data-name="&lt;Group&gt;"><path id="_Path_11" data-name="&lt;Path&gt;" class="cls-16" d="M383.6,293.1l-1.2-.9a23.7,23.7,0,0,0-4.4-2.9,45.5,45.5,0,0,0-9-4,48.6,48.6,0,0,0-11.3-1.8,46.3,46.3,0,0,0-11.4,1.5,40.9,40.9,0,0,0-9.2,3.8,31.4,31.4,0,0,0-7.8,5.9h0a2.8,2.8,0,0,0-.1,3.6c.5.6,1,3.4,1.8,3.5h0a3,3,0,0,0,2.2-.6h0a46.3,46.3,0,0,1,7.1-4,48.8,48.8,0,0,1,7.9-3,38.8,38.8,0,0,1,9.6-1.6,43.1,43.1,0,0,1,9.8.4l1.5.3,3.2.6,2.6.7,1.4.5a47.1,47.1,0,0,1,5.1,1.8l1,.4h6.8Z"/></g><g id="_Group_2" data-name="&lt;Group&gt;"><path id="_Path_12" data-name="&lt;Path&gt;" class="cls-16" d="M226.6,293.8l1.2-.9a23.7,23.7,0,0,1,4.4-2.9,45.5,45.5,0,0,1,9-4,48.6,48.6,0,0,1,11.3-1.8,46.3,46.3,0,0,1,11.4,1.5,40.9,40.9,0,0,1,9.2,3.8,31.4,31.4,0,0,1,7.8,5.9h0a2.8,2.8,0,0,1,.1,3.6c-.5.6-1,3.4-1.8,3.5h0a3,3,0,0,1-2.2-.6h0a46.3,46.3,0,0,0-7.1-4,48.8,48.8,0,0,0-7.9-3,38.8,38.8,0,0,0-9.6-1.6,43.1,43.1,0,0,0-9.8.4l-1.5.3-3.2.6-2.6.7-1.4.5a47.1,47.1,0,0,0-5.1,1.8l-1,.4h-6.8Z"/></g><path class="cls-9" d="M226.5,309.7l-.2.3.4-.2Z"/><path class="cls-17" d="M418.9,599.6l-2.7,1.2H192.7l-2.8-1.2c0-84,39.7-108.7,58.5-115.8,12.3,13.6,36.6,32.2,55.4,33.1h.9c18.9-.9,43.2-19.6,55.5-33.2,18.8,7,58.7,31.6,58.7,115.8"/><path class="cls-18" d="M237.9,488.7c14.6,16.1,43.5,38.2,65.7,39.3h1.1c22.3-1.1,51.2-23.2,65.7-39.3a73,73,0,0,0-10.5-5c-12.3,13.5-36.6,32.3-55.5,33.2h-.9c-18.8-.9-43.1-19.6-55.4-33.1a72.2,72.2,0,0,0-10.3,4.9"/><path class="cls-19" d="M412.8,334.6c17-45.2,23.4-50.7,32.7-78.6,7.8-23.1,1-55.5-25.3-57.8C442,171.7,299,103,191.8,172.7c13.4,5.3,18.5,8.9,18.5,8.9a68.3,68.3,0,0,0-35.7,31.2c-16,30.1.6,74.5,21.3,119.6-1.8-30.4-7-57.9,9.2-83.3,12.5-19.6,49.6-6.7,97.7-6.7S392,224,403.3,249.9C411.1,267.5,413.9,295.8,412.8,334.6Z"/><rect class="cls-18" x="317.5" y="551.9" width="50.8" height="14"/><g class="cls-20"><path class="cls-21" d="M308.7,390.7s5.9-8.2-15.1-6.7c-7.8.6-19.6,2.2-18.8,14.8,0,0,.9-2.4,6.4-4.3a5.2,5.2,0,0,0,2.1-2.5s.3,2.4-.9,2.4,6.6.3,9-2.7a2.5,2.5,0,0,1-1.5,1.8s8.9.7,10.1-2.7c0,0,.5,1-1,1.9C298.8,392.6,305,392.8,308.7,390.7Z"/><path class="cls-21" d="M300.5,390.7s-5.9-8.2,15.1-6.7c7.8.6,19.6,2.2,18.8,14.8,0,0-.9-2.4-6.4-4.3a5.2,5.2,0,0,1-2.1-2.5s-.3,2.4.9,2.4-6.6.3-9-2.7a2.5,2.5,0,0,0,1.5,1.8s-8.9.7-10.1-2.7c0,0-.5,1,1,1.9C310.3,392.6,304.2,392.8,300.5,390.7Z"/></g></svg>