<svg id="Layer_1" data-name="Layer 1" xmlns="http://www.w3.org/2000/svg" viewBox="0 0 612 792"><defs><style>.cls-1,.cls-20{fill:#332214;}.cls-2{fill:#663922;}.cls-3{fill:#704029;}.cls-4{fill:#563b20;}.cls-15,.cls-16,.cls-18,.cls-19,.cls-5{fill:none;}.cls-6{fill:#bf706a;}.cls-7{fill:#994e49;}.cls-8{fill:#381f14;}.cls-9{fill:#fff;}.cls-10{fill:#332015;}.cls-11{fill:#142026;}.cls-12{fill:#020202;}.cls-13{fill:#231f20;}.cls-14{fill:#974d9e;}.cls-15,.cls-16,.cls-18,.cls-19{stroke:#ecc51c;stroke-linecap:round;stroke-miterlimit:10;}.cls-16{stroke-dasharray:0.2 0.99;}.cls-17{fill:#dfb825;}.cls-18,.cls-19{stroke-width:0.5px;}.cls-19{stroke-dasharray:0.2 0.5;}.cls-20{opacity:0.5;}</style></defs><title>OOW II - Final avatars</title><path class="cls-1" d="M427.9,343.2c-4-7.4-10.2-4.2-11.7-2.6s-2.9,4.1-1.9,8.5c.6,2.5,2.8,2.6,2.3,6.4s-2.3,4.5-3.2,5.5-2.1,1.7-2.7,3.4a10.6,10.6,0,0,0-.3,5.3c.6,3,4.4.6,7-.7s7-6.1,8.4-7.9c3.4-4.4,5-13,2.3-17.9"/><path class="cls-2" d="M307.6,402.1V600.8H201.4l-2.6-1.1c0-50.2,14.4-78.5,29.6-94.4,17.2-17.9,35.4-20.1,35.4-20.1h.5l1.4-.3c5.4-1.5,9.1-9.5,11.5-21,.4-2,.8-4,1.1-6.2s1.2-7.5,1.5-11.5c.3-2.4.4-4.9.6-7.4,1-12.2,1.3-25.4,1.3-38,0,0,12.9,1.3,24,1.5Z"/><path class="cls-3" d="M415,599.7l-2.5,1.1H305.8V402.1h1.8c11.2-.1,24.3-1.5,24.3-1.5,0,12.5.3,25.6,1.3,37.7.2,2.4.4,4.8.7,7.2.5,4.2.9,8.1,1.5,11.8h0c.2,1.7.5,3.2.8,4.7,2.2,11.1,5.5,19.3,10.3,22l1.1.4a6,6,0,0,0,2.4.5s16.6,2,33,17.7a86.9,86.9,0,0,1,10.1,11.8c12.1,17,21.9,43.5,21.9,85"/><path class="cls-4" d="M333.9,445.6c-.2-2.4-.4-4.8-.7-7.2a108.2,108.2,0,0,1-25.6,3.8h-9.5l-2.3-.2H295l-2.4-.3H292l-2.4-.3H289l-2.5-.4h-.5l-2.5-.5h-.4l-2.7-.6c-.2,2.3-.3,4.6-.6,6.9-.3,4-.9,7.9-1.5,11.5l-.3,2a42.6,42.6,0,0,0,3.4,3.7h0l.2.2.5.5.7.6.5.5,1.2,1,.5.4.9.7.6.4.9.6.6.4,1.5.9.3.2,1.5.8.6.3,1.3.6.7.3,1.5.5.5.2,2.1.6h.5l1.7.3h.8l1.6.2h5a34.3,34.3,0,0,0,27.8-16.3h0C334.8,453.7,334.3,449.7,333.9,445.6Z"/><rect class="cls-5" x="276.5" y="438.4" width="58.8" height="35.38"/><path class="cls-2" d="M305.7,188.5c-110.8-.2-111.4,90.4-106.5,149.5-7.6-13.9-24.7-8.6-22.9,13.6s28.1,30.8,27.7,28.4c9.1,48.1,61.3,74.9,101.7,78.7h.8V188.5h-.8"/><path class="cls-1" d="M181.8,343.2c4.3-7.4,10.8-4.2,12.5-2.6s3.1,4.1,2,8.5c-.6,2.5-3,2.6-2.4,6.4s2.4,4.5,3.5,5.5,2.3,1.7,2.9,3.4a10.3,10.3,0,0,1,.4,5.3c-.7,3-4.7.6-7.4-.7s-7.5-6.1-8.9-7.9c-3.6-4.4-5.3-13-2.5-17.9"/><path class="cls-3" d="M306.3,188.5c110.8-.2,111.4,90.4,106.5,149.5,7.6-13.9,23.1-9.2,21.2,13s-26.5,31.5-26.1,29.1c-9.1,48.1-61.3,74.9-101.6,78.7h-.9V188.5h.9"/><path class="cls-2" d="M305.2,214.1c-37,0-64.1,10.4-80.5,30.9-22.9,28.6-22,72.4-13.6,103.7,2.6,9.6,3.9,35.5,5.7,44.9,8,42.5,56.4,65.1,88.4,65.1h.8V214.1h-.8"/><path class="cls-3" d="M385.4,245.1c-16.3-20.4-43-30.7-79.5-30.9V458.7c36.5-.4,80-25.1,87.5-65,1.8-9.5,3.1-35.3,5.7-44.9,8.4-31.3,9.2-75-13.7-103.7"/><path class="cls-6" d="M336.2,412.6s-13.6,16.8-30.5,16.8-29.6-16.4-29.6-16.4,12.8-1.3,29.6-1.3,30.5,1,30.5,1"/><path class="cls-7" d="M314.4,404.8c-4.7,0-8.5,3.3-8.6,7.6-.1-4.3-3.9-7.6-8.6-7.6s-21.8,7.7-21.8,7.7,16.7,2,21.4,2,9,2.2,9-1.9c.1,4.1,3.5,2.5,8.3,2.5s22.2-2.6,22.2-2.6-17-7.7-21.8-7.7"/><path id="_Path_" data-name="&lt;Path&gt;" class="cls-8" d="M283.8,381.6c-.4-9.2,16.8-3.4,22.5-3.1s18.2-2.9,19.3-2.1c8,5.4-8.5,16.4-19.6,16.4C303,392.8,284,387.1,283.8,381.6Z"/><path id="_Path_2" data-name="&lt;Path&gt;" class="cls-9" d="M232.8,324.4s9.7,17.3,24.3,19.2,30.1-.3,30.1-.3-.9-16.8-8.5-19.7S254.7,317.1,232.8,324.4Z"/><path id="_Path_3" data-name="&lt;Path&gt;" class="cls-10" d="M274.6,331.7c-.6,6.8-7,11.8-14.2,11.3s-12.5-6.4-11.9-13.2,7-11.8,14.2-11.3S275.2,324.9,274.6,331.7Z"/><path id="_Path_4" data-name="&lt;Path&gt;" class="cls-11" d="M261.2,337.6a5.9,5.9,0,0,1-5.1-6.4,6.2,6.2,0,0,1,6.2-5.6,5.9,5.9,0,0,1,5.1,6.4A6.2,6.2,0,0,1,261.2,337.6Z"/><path id="_Path_5" data-name="&lt;Path&gt;" class="cls-12" d="M287.2,343.2h-1.1c-.6-6.1-2.4-14.6-7.2-16.4-8.6-3.3-24.2-6.2-43,2.1a38.5,38.5,0,0,1-3.2-4.7c21.9-11.3,39.3-6.9,46.8-4S287.2,343.2,287.2,343.2Z"/><path id="_Path_6" data-name="&lt;Path&gt;" class="cls-9" d="M379.4,326.8s-9.1,16.8-23.6,18.3-30.1-1.2-30.1-1.2.4-18.1,7.9-20.7S357.2,316.8,379.4,326.8Z"/><path id="_Path_7" data-name="&lt;Path&gt;" class="cls-10" d="M334.8,332.7c.8,7,7.5,12.3,15,11.8s12.9-6.5,12.2-13.4-7.5-12.3-15-11.9S334,325.7,334.8,332.7Z"/><path id="_Path_8" data-name="&lt;Path&gt;" class="cls-11" d="M348.9,339a5.9,5.9,0,0,0,5.2-6.5,6.7,6.7,0,0,0-6.6-5.8,5.9,5.9,0,0,0-5.2,6.5A6.7,6.7,0,0,0,348.9,339Z"/><path id="_Path_9" data-name="&lt;Path&gt;" class="cls-12" d="M325.6,343.9l1.1.2c.4-6.1,1.9-14.4,6.6-16,7-2.5,22.7-6,43.1,3.3a35.3,35.3,0,0,0,3-4.6c-22.3-11.7-39.6-7.9-47-5.3S325.6,343.9,325.6,343.9Z"/><g id="_Group_" data-name="&lt;Group&gt;"><path id="_Path_10" data-name="&lt;Path&gt;" class="cls-13" d="M378.5,311.8l-1.2-.9a22.9,22.9,0,0,0-4.2-2.8,43.9,43.9,0,0,0-8.7-3.8,46.9,46.9,0,0,0-10.9-1.7,44.7,44.7,0,0,0-11,1.4,39.5,39.5,0,0,0-8.9,3.7,30.2,30.2,0,0,0-7.5,5.7h0a2.7,2.7,0,0,0-.1,3.5c.5.6,1,3.2,1.7,3.3h0a2.9,2.9,0,0,0,2.1-.5h0a44.7,44.7,0,0,1,6.9-3.9,47.1,47.1,0,0,1,7.6-2.9,37.4,37.4,0,0,1,9.3-1.5,41.6,41.6,0,0,1,9.4.4l1.4.3,3,.6,2.5.7,1.4.4a45.4,45.4,0,0,1,4.9,1.7l1,.4h6.5Z"/></g><g id="_Group_2" data-name="&lt;Group&gt;"><path id="_Path_11" data-name="&lt;Path&gt;" class="cls-13" d="M234.9,310.3l1.2-.9a22.9,22.9,0,0,1,4.2-2.8,43.9,43.9,0,0,1,8.7-3.8,46.9,46.9,0,0,1,10.9-1.7,44.7,44.7,0,0,1,11,1.4,39.5,39.5,0,0,1,8.9,3.7,30.2,30.2,0,0,1,7.5,5.7h0a2.7,2.7,0,0,1,.1,3.5c-.5.6-1,3.2-1.7,3.3h0a2.9,2.9,0,0,1-2.1-.5h0a44.7,44.7,0,0,0-6.9-3.9,47.1,47.1,0,0,0-7.6-2.9,37.4,37.4,0,0,0-9.3-1.5,41.6,41.6,0,0,0-9.4.4l-1.4.3-3,.6-2.5.7-1.4.4a45.4,45.4,0,0,0-4.9,1.7l-1,.4h-6.5Z"/></g><path d="M359.8,180.1a24.7,24.7,0,0,0,1.8-9.1c0-11.7-8.5-22.1-21.5-28.6a16,16,0,0,0,1.7-7.1c0-12.4-15-22.5-33.4-22.5S275,122.9,275,135.3a15.9,15.9,0,0,0,1.7,7.1c-13,6.5-21.5,16.9-21.5,28.6a24.7,24.7,0,0,0,1.1,7.1c-68.8,23.1-70.2,97.8-66,151.4a25.6,25.6,0,0,1,8.2,10.9c3.7,9.4,5.1,7.8,5.1,7.8s-5.8-37-5.8-47.3,33.4-86.3,51.9-92.5,35.8,14.1,55.4,14.4h1.6c20,0,36.8-20.5,55.4-14.4s52,82.2,52,92.5-5.9,47.3-5.9,47.3,1.4,1.6,5.1-7.8a25.7,25.7,0,0,1,6.9-9.8C424.5,278.4,423.7,205.4,359.8,180.1Z"/><path class="cls-14" d="M393.1,578.7c-3.3-25.9-20.4-27.6-21-86.2l-.8-2-18.5-5.8a6.4,6.4,0,0,1-.1.9c-.1,4.2-1.4,32.5-2.1,50.2l-43.9,9.6-44-10.1c-.7-17.4-.3-45.2-.4-49.6v-.9l-18.5,5.8a6,6,0,0,0-.9,2.3c1.2,55.3-17.6,60.1-20.7,85.8-.7,5.4-1.4,15.3-1.9,22H394.9C394.4,594,393.7,584.1,393.1,578.7Z"/><line class="cls-15" x1="269" y1="482.9" x2="269.1" y2="482.9"/><path class="cls-16" d="M270,483.4l16.1,8.8,18.5,7.7a4,4,0,0,0,3.4,0l20.8-8.3,15.4-8.4"/><line class="cls-15" x1="344.7" y1="482.9" x2="344.8" y2="482.9"/><path class="cls-17" d="M311,512.4a2.5,2.5,0,0,0-4.6-1.3,2.5,2.5,0,1,0-3.8,3.2l3.5,3.5h.5l3.5-3.5a2.5,2.5,0,0,0,.9-1.9Zm0,0"/><line class="cls-18" x1="306.3" y1="501" x2="306.3" y2="501.1"/><line class="cls-19" x1="306.3" y1="501.6" x2="306.3" y2="510.4"/><line class="cls-18" x1="306.3" y1="510.6" x2="306.3" y2="510.7"/><path class="cls-20" d="M428.4,343.2c-4.3-7.4-10.8-4.2-12.5-2.6s-3.1,4.1-2,8.5c.6,2.5,3,2.6,2.4,6.4s-2.4,4.5-3.5,5.5-2.3,1.7-2.9,3.4a10.3,10.3,0,0,0-.4,5.3c.7,3,4.7.6,7.4-.7s7.5-6.1,8.9-7.9c3.6-4.4,5.3-13,2.5-17.9"/></svg>