<svg id="Layer_1" data-name="Layer 1" xmlns="http://www.w3.org/2000/svg" viewBox="0 0 612 792"><defs><style>.cls-1{fill:#a0643d;}.cls-2{fill:#b5774d;}.cls-3,.cls-5{fill:#8c542a;}.cls-4{fill:none;}.cls-5{opacity:0.6;}.cls-6{fill:#c88f65;}.cls-7{fill:#c3875b;}.cls-8{fill:#fff;}.cls-9{fill:#402e13;}.cls-10{fill:#142026;}.cls-11{fill:#262626;}.cls-12{fill:#231f20;stroke:#231f20;stroke-linecap:round;stroke-linejoin:round;stroke-width:7px;}.cls-13{fill:#6e0e10;}.cls-14{fill:#213e7a;}.cls-15{fill:#eaeaea;}</style></defs><title>OOW II - Final avatars</title><path class="cls-1" d="M307.6,399.4V598.1H201.4l-2.6-1.1c0-50.2,14.4-78.5,29.6-94.4,17.2-17.9,35.4-20.1,35.4-20.1h.5l1.4-.3c5.4-1.5,9.1-9.5,11.5-21,.4-2,.8-4,1.1-6.2s1.2-7.5,1.5-11.5c.3-2.4.4-4.9.6-7.4,1-12.2,1.3-25.4,1.3-38,0,0,12.9,1.3,24,1.5Z"/><path class="cls-2" d="M415,597l-2.5,1.1H305.8V399.4h1.8c11.2-.1,24.3-1.5,24.3-1.5,0,12.5.3,25.6,1.3,37.7.2,2.4.4,4.8.7,7.2.5,4.2.9,8.1,1.5,11.8h0c.2,1.7.5,3.2.8,4.7,2.2,11.1,5.5,19.3,10.3,22l1.1.4a6,6,0,0,0,2.4.5s16.6,2,33,17.7A86.9,86.9,0,0,1,393.1,512c12.1,17,21.9,43.5,21.9,85"/><path class="cls-3" d="M333.9,442.9c-.2-2.4-.4-4.8-.7-7.2a108.2,108.2,0,0,1-25.6,3.8h-9.5l-2.3-.2H295l-2.4-.3H292l-2.4-.3H289l-2.5-.4h-.5l-2.5-.5h-.4l-2.7-.6c-.2,2.3-.3,4.6-.6,6.9-.3,4-.9,7.9-1.5,11.5l-.3,2a42.6,42.6,0,0,0,3.4,3.7h0l.2.2.5.5.7.6.5.5,1.2,1,.5.4.9.7.6.4.9.6.6.4,1.5.9.3.2,1.5.8.6.3,1.3.6.7.3,1.5.5.5.2,2.1.6h.5l1.7.3h.8l1.6.2h5a34.3,34.3,0,0,0,27.8-16.3h0C334.8,451,334.3,447.1,333.9,442.9Z"/><rect class="cls-4" x="276.5" y="435.7" width="58.8" height="35.38"/><path class="cls-1" d="M305.7,185.8c-110.8-.2-111.4,90.4-106.5,149.5-7.6-13.9-30.1-8.7-28.2,13.5s33.5,30.9,33.1,28.6c9.1,48.1,61.3,74.9,101.7,78.7h.8V185.9h-.8"/><path class="cls-3" d="M176.6,339.4c5.6-8.6,14.1-4.9,16.2-3s4,4.8,2.6,9.9c-.8,2.9-3.9,3.1-3.2,7.4s3.2,5.2,4.5,6.3,3,1.9,3.8,4a10.7,10.7,0,0,1,.5,6.1c-.9,3.5-6.1.7-9.7-.9s-9.8-7.1-11.6-9.1c-4.7-5.1-6.9-15-3.2-20.8"/><path class="cls-2" d="M306.3,185.8c110.8-.2,111.4,90.4,106.5,149.5,7.6-13.9,30.1-8.7,28.2,13.5s-33.5,30.9-33.1,28.6c-9.1,48.1-61.3,74.9-101.6,78.7h-.9V185.9h.9"/><path class="cls-1" d="M305.2,211.5c-37,0-64.1,10.4-80.5,30.9-22.9,28.6-22,72.4-13.6,103.7,2.6,9.6,3.9,35.5,5.7,44.9,8,42.5,56.4,65.1,88.4,65.1h.8V211.5h-.8"/><path class="cls-2" d="M385.4,242.4c-16.3-20.4-43-30.7-79.5-30.9V456.1c36.5-.4,80-25.1,87.5-65,1.8-9.5,3.1-35.3,5.7-44.9,8.4-31.3,9.2-75-13.7-103.7"/><path id="_Path_" data-name="&lt;Path&gt;" class="cls-3" d="M290.2,379.4c-.3-4.2,12.6-1.6,16.9-1.4s13.7-1.3,14.6-1c6.1,2.5-6.4,7.6-14.8,7.6C304.7,384.6,290.4,381.9,290.2,379.4Z"/><path class="cls-5" d="M433,339.4c-5.6-8.6-14.1-4.9-16.2-3s-4,4.8-2.6,9.9c.8,2.9,3.9,3.1,3.2,7.4s-3.2,5.2-4.5,6.3-3,1.9-3.8,4a10.7,10.7,0,0,0-.5,6.1c.9,3.5,6.1.7,9.7-.9s9.8-7.1,11.6-9.1c4.7-5.1,6.9-15,3.2-20.8"/><path id="_Path_2" data-name="&lt;Path&gt;" class="cls-6" d="M338.3,408.5c-4.1-.2-8.4,2.7-13.3,2.3h-.5a9.9,9.9,0,0,0-3.5.3,43,43,0,0,0-4.6,1.2,24.7,24.7,0,0,1-8.2,1h-.3a24.7,24.7,0,0,1-8.2-1,43,43,0,0,0-4.6-1.2,9.9,9.9,0,0,0-3.5-.3h-.5c-5,.4-9.2-2.5-13.3-2.3-1.1.1-2.8-.2-3.7-.2l.6.3c11.8,4.9,21.9,14,33.2,13.7h.3c11.3.3,21.4-8.8,33.2-13.7l.6-.3C341.1,408.4,339.5,408.6,338.3,408.5Z"/><path class="cls-7" d="M341.8,408.3h0s-12-3.9-20.5-1.6a60,60,0,0,1-6.5,1.7,20.1,20.1,0,0,1-6.8.8h0a44,44,0,0,1-4.9-.5l-1.4-.2h-.5l-.9-.2h-.5c-2.7-.6-5.1-1.4-5.1-1.4-8.5-2.3-20.5,1.6-20.5,1.6h-.3c.9,0,2.6.3,3.7.2,3.4-.1,6.9,1.8,10.8,2.3a100.1,100.1,0,0,0,14.4,2.2,20.9,20.9,0,0,0,5,.3h3.2a57.1,57.1,0,0,0,16.7-2.5h0c3.8-.5,7.2-2.4,10.5-2.2,1.1.1,2.8-.2,3.7-.2Z"/><path id="_Path_3" data-name="&lt;Path&gt;" class="cls-8" d="M230.1,320.3s8.6,15.4,21.5,17,26.7-.3,26.7-.3-2.2-14.4-8.9-16.9S248.7,312.7,230.1,320.3Z"/><path id="_Path_4" data-name="&lt;Path&gt;" class="cls-9" d="M267.1,326.7c-.6,6-6.2,10.5-12.6,10S243.5,331,244.1,325s6.2-10.5,12.6-10S267.7,320.7,267.1,326.7Z"/><path id="_Path_5" data-name="&lt;Path&gt;" class="cls-10" d="M255.3,332a5.3,5.3,0,0,1-4.5-5.7,5.5,5.5,0,0,1,5.5-4.9,5.3,5.3,0,0,1,4.5,5.7A5.5,5.5,0,0,1,255.3,332Z"/><path id="_Path_6" data-name="&lt;Path&gt;" class="cls-11" d="M278.3,337h-.9c-.6-5.4-2.1-12.9-6.3-14.5-6.3-2.4-20.3-6-38.2,1.8a34.1,34.1,0,0,1-2.8-4.2c19.4-10,34.8-6.1,41.5-3.5S278.3,337,278.3,337Z"/><path id="_Path_7" data-name="&lt;Path&gt;" class="cls-8" d="M379.7,321s-8.1,14.9-21,16.2-26.7-1-26.7-1,1.4-15.7,8.1-18S359.7,313.8,379.7,321Z"/><path id="_Path_8" data-name="&lt;Path&gt;" class="cls-9" d="M340.3,326.1c.7,6.2,6.6,10.9,13.3,10.5s11.5-5.7,10.8-11.9-6.6-10.9-13.3-10.5S339.5,320,340.3,326.1Z"/><path id="_Path_9" data-name="&lt;Path&gt;" class="cls-10" d="M352.7,331.8a5.2,5.2,0,0,0,4.6-5.8,6,6,0,0,0-5.8-5.2,5.2,5.2,0,0,0-4.6,5.8A6,6,0,0,0,352.7,331.8Z"/><path id="_Path_10" data-name="&lt;Path&gt;" class="cls-11" d="M332,336.1l.9.2c.4-5.4,1.7-12.7,5.9-14.2,6.2-2.2,20.1-5.3,38.2,2.9a31.2,31.2,0,0,0,2.7-4.1c-19.8-10.4-35.1-7-41.7-4.7S332,336.1,332,336.1Z"/><g id="_Group_" data-name="&lt;Group&gt;"><path id="_Path_11" data-name="&lt;Path&gt;" class="cls-12" d="M380.4,287l-1.2-.6a25.6,25.6,0,0,0-4.3-2,55.4,55.4,0,0,0-8.8-2.8,66,66,0,0,0-11.1-1.2,63.3,63.3,0,0,0-11.2,1,50.7,50.7,0,0,0-9.1,2.6,31.6,31.6,0,0,0-7.6,4.1h0a1.5,1.5,0,0,0-.1,2.5c.5.4,1,2.3,1.7,2.4h0a3.9,3.9,0,0,0,2.2-.4h0a52.4,52.4,0,0,1,7-2.8,61.4,61.4,0,0,1,7.8-2.1,52.6,52.6,0,0,1,9.4-1.1,59.6,59.6,0,0,1,9.6.3l1.5.2,3.1.4,2.5.5,1.4.3c2,.4,3.6.9,5,1.2l1,.3h6.6Z"/></g><g id="_Group_2" data-name="&lt;Group&gt;"><path id="_Path_12" data-name="&lt;Path&gt;" class="cls-12" d="M231.4,287l1.2-.6a25.6,25.6,0,0,1,4.3-2,55.4,55.4,0,0,1,8.8-2.8,66,66,0,0,1,11.1-1.2,63.3,63.3,0,0,1,11.2,1,50.7,50.7,0,0,1,9.1,2.6,31.6,31.6,0,0,1,7.6,4.1h0a1.5,1.5,0,0,1,.1,2.5c-.5.4-1,2.3-1.7,2.4h0a3.9,3.9,0,0,1-2.2-.4h0a52.4,52.4,0,0,0-7-2.8,61.4,61.4,0,0,0-7.8-2.1,52.6,52.6,0,0,0-9.4-1.1,59.6,59.6,0,0,0-9.6.3l-1.5.2-3.1.4-2.5.5-1.4.3c-2,.4-3.6.9-5,1.2l-1,.3h-6.6Z"/></g><path d="M380.5,180.6c-19.4-17-147.4-75.7-198.9,57.5-15.3,51.6,13.9,70.7,16.5,81.7,6.4-28.4.6-37.4,26.4-54.5C260,242.1,316.2,275.6,357,248,377.2,234.4,402,199.4,380.5,180.6Z"/><path d="M372,234.7s-3.3-70.3,50.8-31.4c36.1,26-13.7,89.4-9.4,133.6-19.2-58.6-20.1-60.9-20.5-73.9S375.9,229,372,234.7Z"/><path class="cls-13" d="M413.7,307.7v-.2a.9.9,0,0,0-.6-.5H413c-9-3.2-46.9-4.7-67.3-2.4s-32.7,7.6-39.5,7.8-19.1-5.1-39.7-7-58.3.4-67.2,3.8h-.2a.7.7,0,0,0-.5.5v.2c-.1,1.1-.4,6.1-.2,8.9a3,3,0,0,0,0,.4A2.4,2.4,0,0,0,200,321h.1c1.8.6,5,3.4,8.3,16.7,1.5,6.7,3.4,20.8,18,24.9,6.6,1.8,38.6,5.4,54.7-7.1,3.4-2.6,7-8.4,10.1-14.3,1.8-4,6.6-15.5,7.3-17.3a7,7,0,0,1,7-5.1H307a7,7,0,0,1,7.1,4.9c.7,1.7,5.7,13.1,7.6,17.1,3.2,5.8,7,11.5,10.4,14.1,16.4,12.2,48.2,8,54.8,6,14.5-4.4,16.1-18.6,17.4-25.3,3.1-13.4,6.2-16.2,8-16.9h.1a2.4,2.4,0,0,0,1.6-1.8v-.4C414.1,313.8,413.8,308.8,413.7,307.7Zm-132,36.9a24.5,24.5,0,0,1-15.2,12.8c-12.6,3.6-21.5,3.7-34,2.1-8.4-1.1-14.6-6.7-16.3-12.4-2.1-7.9-5.1-16-3.2-23.9a16.8,16.8,0,0,1,11.3-11.7c12.4-4,31.9-3.8,44.4-1.8,6.1,1.1,17,2.2,19.5,9.4S285.9,337.8,281.7,344.6Zm115.2.6c-1.6,5.7-7.7,11.5-16.1,12.8-12.5,1.9-21.4,1.9-34-1.4a24.5,24.5,0,0,1-15.4-12.5c-4.3-6.8-9.5-17.6-7-25.4s13.2-8.6,19.3-9.8c12.4-2.2,31.9-2.8,44.4,1a16.7,16.7,0,0,1,11.5,11.5C401.7,329.2,398.9,337.4,396.9,345.3Z"/><path class="cls-14" d="M183.8,600.8c0-83,43-107.5,63.5-114.5,13.3,13.4,39.7,31.8,60.1,32.7h1c20.5-.9,46.9-19.4,60.2-32.8,20.4,6.9,63.7,31.3,63.7,114.6"/><path class="cls-15" d="M241.3,488.7c14.6,16.1,43.5,38.2,65.7,39.3h1.1c22.3-1.1,51.2-23.2,65.7-39.3a73,73,0,0,0-10.5-5c-12.3,13.5-36.6,32.3-55.5,33.2H307c-18.8-.9-43.1-19.6-55.4-33.1a72.2,72.2,0,0,0-10.3,4.9"/></svg>