<svg id="Layer_1" data-name="Layer 1" xmlns="http://www.w3.org/2000/svg" xmlns:xlink="http://www.w3.org/1999/xlink" viewBox="0 0 612 792"><defs><style>.cls-1{fill:none;}.cls-2{fill:#5a4118;}.cls-3{fill:#e5c5a5;}.cls-4{fill:#f2d1ac;}.cls-5{clip-path:url(#clip-path);}.cls-6,.cls-7{fill:#c09a80;}.cls-7{opacity:0.6;}.cls-8{fill:#c28653;}.cls-9{fill:#d6925e;}.cls-10{fill:#fff;}.cls-11{fill:#3c2615;}.cls-12{fill:#142026;}.cls-13{fill:#74624f;}.cls-14{fill:#5a421a;}.cls-15{fill:#d2d2d1;}.cls-16{fill:#733039;}</style><clipPath id="clip-path"><rect class="cls-1" x="268.3" y="444.2" width="57.6" height="34.13"/></clipPath></defs><title>OOW II - Final avatars</title><path class="cls-2" d="M298.2,334.6c-4.2,14.3-9.1,30.5-18.2,46.8s-36.9,37.2-37.8,59.6c-2.1,47.9,65.8,70.7,93.2,78.8s36.5,8.9,39.5,20.8.5,31.5.5,31.5,23.1-12.6,29.6-22.3c14-20.7-1.3-34.9-1.3-34.9s-5.7,4.9,1,15.9,6.7,20.8,4.3,23.6S398,566.3,398,566.3s42.3-12,34.1-46.4c-1.4-5.9-5.3-1.6,0,0,11.8,3.5,9.6,22.9,9.6,22.9s28.7-37.2-29.4-58.2c-5.5-2-35.5-9.4-38.6-34.1-1.7-13.7,8.3-14.9,10.2-31.7,2.4-21.7-28.7-17.1-40.7-37.6-2.3-3.9,9-6.1,0-16.7-10.8-12.8-14.8-11.8-30.3-19.3S298.2,334.6,298.2,334.6Z"/><path class="cls-3" d="M297,409.2V600.8H193l-2.5-1.1c0-102.7,63.7-110.4,63.7-110.4,6.4,0,10.4-8.2,13.1-20.6.4-1.9.8-3.9,1.1-6s1.1-7.2,1.4-11.1c.2-2.3.4-4.7.7-7.1.9-11.8,1.2-24.6,1.2-36.7,0,0,14,1.4,25.3,1.4"/><path class="cls-4" d="M403.9,599.7l-2.5,1.1H297V409.2h.2c11.3,0,25.4-1.4,25.4-1.4,0,12,.3,24.7,1.2,36.3.2,2.3.5,4.7.6,6.9.5,4,.9,7.8,1.5,11.4h0c.2,1.6.5,3.1.8,4.5,2.7,13.2,6.9,22.1,13.5,22.1,0,0,63.7,7.7,63.7,110.4"/><path class="cls-4" d="M297.2,189.6V463.8h.8c40.2,0,92-28.7,101.1-78.4a4.9,4.9,0,0,0,.1,2.3c1.7,4,9.2,8.2,14.5,3.4s1.6-12.2,1.8-12.3c7.8-5.3,15.5-13.3,16.4-23.8,1.8-22.6-20.5-27-28.1-12.6,4.9-60.5,4.3-152.7-105.9-152.7ZM404.6,384.9a3.3,3.3,0,0,1,3.3-3.2,3.2,3.2,0,1,1-3.3,3.2"/><g class="cls-5"><path class="cls-6" d="M325.9,462.5h0a33.6,33.6,0,0,1-28.8,15.7H297c-16.5-.1-26.2-12.1-28.7-15.6.6-3.5,1.1-7.2,1.4-11.1.2-2.3.4-4.7.7-7.1a116.7,116.7,0,0,0,26.3,3.4h.3a106.2,106.2,0,0,0,26.8-3.8l.7,6.9c.4,4,.9,7.8,1.4,11.4"/></g><path class="cls-3" d="M297.3,189.6c-110.2,0-110.8,92.3-105.9,152.8-7.6-14.3-29.9-9.9-28,12.6.8,10.5,8.7,18.5,16.4,23.8.2.1-2.9,8.1,1.8,12.3s12.8.6,14.5-3.4a5.1,5.1,0,0,0,.1-2.3c9.1,49.7,60.9,78.4,101.1,78.4h.8V189.6ZM187.4,388.1a3.2,3.2,0,0,1,0-6.4,3.2,3.2,0,1,1,0,6.4"/><path class="cls-6" d="M170.4,345.4c5.4-8.7,13.8-4.9,15.9-3.1s3.9,4.9,2.6,10c-.8,2.9-3.8,3.1-3.1,7.5s3.1,5.2,4.4,6.4,2.9,2,3.7,4.1a10.8,10.8,0,0,1,.5,6.2c-.8,3.6-6,.7-9.5-.9s-9.5-7.2-11.4-9.2c-4.6-5.2-6.8-15.3-3.2-21.1"/><path class="cls-3" d="M296.3,215.6c-36.2,0-62.8,10.6-78.8,31.3-22.4,29.1-21.6,73.4-13.3,105.3,2.5,9.7,3.8,36,5.6,45.6,7.8,43.1,55.3,66,86.6,66h.9V215.6h-.9"/><path class="cls-4" d="M375,246.9c-16-20.6-42.2-31.2-77.8-31.3V463.8c35.7-.4,78.3-25.5,85.7-66,1.7-9.6,3-35.9,5.6-45.6,8.3-31.8,9.1-76.1-13.4-105.3"/><path class="cls-7" d="M424.7,345.4c-5.4-8.7-13.8-4.9-15.9-3.1s-3.9,4.9-2.6,10c.8,2.9,3.8,3.1,3.1,7.5s-3.1,5.2-4.4,6.4-2.9,2-3.7,4.1a11,11,0,0,0-.5,6.2c.8,3.6,6,.7,9.5-.9s9.6-7.2,11.4-9.2c4.6-5.2,6.8-15.3,3.1-21.1"/><path class="cls-8" d="M316.1,417.1s-8.7,10.7-19.5,10.7-19-10.5-19-10.5a110.4,110.4,0,0,1,19-1.6A138,138,0,0,1,316.1,417.1Z"/><path class="cls-9" d="M302.1,412.1a5.3,5.3,0,0,0-5.5,4.8,5.3,5.3,0,0,0-5.5-4.8c-3.1,0-14,4.9-14,4.9s10.7,1.3,13.7,1.3,5.7,1.4,5.8-1.2c0,2.6,2.2,1.6,5.3,1.6s14.2-1.7,14.2-1.7S305.1,412.1,302.1,412.1Z"/><path id="_Path_" data-name="&lt;Path&gt;" class="cls-10" d="M210.8,325.9s11.1,20,27.8,22.2,34.5-.4,34.5-.4-2.2-19-10.9-22.3S236.2,316.3,210.8,325.9Z"/><path id="_Path_2" data-name="&lt;Path&gt;" class="cls-11" d="M258.7,334.3c-.7,7.8-8,13.6-16.2,13s-14.3-7.4-13.6-15.2,8-13.7,16.2-13S259.4,326.4,258.7,334.3Z"/><path id="_Path_3" data-name="&lt;Path&gt;" class="cls-12" d="M243.4,341.2a6.8,6.8,0,0,1-5.8-7.4,7.2,7.2,0,0,1,7.1-6.4,6.8,6.8,0,0,1,5.8,7.4A7.2,7.2,0,0,1,243.4,341.2Z"/><path id="_Path_4" data-name="&lt;Path&gt;" d="M273.2,347.6l-1.2.2c-.7-7.1-2.7-16.9-8.2-18.9-8.1-3.1-26.2-7.8-49.3,2.4a44.5,44.5,0,0,1-3.6-5.5c25.1-13,45-8,53.6-4.7S273.2,347.6,273.2,347.6Z"/><path id="_Path_5" data-name="&lt;Path&gt;" class="cls-10" d="M385.6,328.4s-10.4,19.5-27.1,21.1-34.5-1.3-34.5-1.3,1.9-19.2,10.5-22.2S360.4,318.2,385.6,328.4Z"/><path id="_Path_6" data-name="&lt;Path&gt;" class="cls-11" d="M334.6,335.2c.9,8.1,8.6,14.2,17.1,13.7s14.8-7.5,13.9-15.5-8.6-14.2-17.2-13.7S333.7,327.1,334.6,335.2Z"/><path id="_Path_7" data-name="&lt;Path&gt;" class="cls-12" d="M350.7,342.5a6.8,6.8,0,0,0,6-7.5,7.7,7.7,0,0,0-7.5-6.7,6.8,6.8,0,0,0-6,7.5A7.7,7.7,0,0,0,350.7,342.5Z"/><path id="_Path_8" data-name="&lt;Path&gt;" d="M324,348.1l1.2.2c.5-7,2.2-16.6,7.6-18.5,8-2.9,26-7,49.4,3.8a40.9,40.9,0,0,0,3.5-5.3c-25.5-13.6-45.3-9.1-53.8-6.1S324,348.1,324,348.1Z"/><path id="_Path_9" data-name="&lt;Path&gt;" class="cls-6" d="M284.9,376.5c-.2-5,9.2-1.8,12.4-1.7s10-1.6,10.6-1.1c4.4,3-4.7,9-10.8,9C295.5,382.6,285.1,379.5,284.9,376.5Z"/><g id="_Group_" data-name="&lt;Group&gt;"><path id="_Path_10" data-name="&lt;Path&gt;" class="cls-13" d="M270.8,313.7a29.7,29.7,0,0,0-6.5-6.6,37.1,37.1,0,0,0-8-4.8,41.6,41.6,0,0,0-10.3-2.9,43.4,43.4,0,0,0-10.6.3,40.7,40.7,0,0,0-8.7,2.6,21.8,21.8,0,0,0-4.4,2.2l-1.3.7-5.5,3.5,6.4-1.5,1-.3a42.2,42.2,0,0,1,4.9-1.1l1.4-.3,2.5-.4,3-.2h1.3a38.3,38.3,0,0,1,9.1.8,34.7,34.7,0,0,1,8.6,2.7,44.6,44.6,0,0,1,7,3.9,43.1,43.1,0,0,1,6.1,4.8h0a2.8,2.8,0,0,0,2,.8,2.7,2.7,0,0,0,1.5-.5,2.8,2.8,0,0,0,.8-3.8Z"/><path id="_Path_11" data-name="&lt;Path&gt;" class="cls-13" d="M373.6,306l-1.2-.7a21.6,21.6,0,0,0-4.4-2.2,41,41,0,0,0-8.8-2.7,43.3,43.3,0,0,0-10.6-.3,41.6,41.6,0,0,0-10.3,2.9,37.6,37.6,0,0,0-8,4.8,29.7,29.7,0,0,0-6.5,6.6h0a2.8,2.8,0,0,0,.4,3.5,2.7,2.7,0,0,0,2,.8h0a2.7,2.7,0,0,0,2-.8h0a43.3,43.3,0,0,1,6.1-4.8,44.7,44.7,0,0,1,6.9-3.9,34.9,34.9,0,0,1,8.6-2.7,38.5,38.5,0,0,1,9.1-.8h1.4l3,.2,2.5.4,1.4.3a42.2,42.2,0,0,1,4.9,1.1l1,.3,6.4,1.5Z"/></g><path class="cls-14" d="M230.2,244.1s83-42.3,113.7,42.4C343.9,286.5,356.3,157,230.2,244.1Z"/><circle class="cls-15" cx="185.8" cy="386.9" r="9.8"/><circle class="cls-15" cx="408.2" cy="386.9" r="9.8"/><path class="cls-14" d="M242.1,196s-12.9,34.8-7,44.7c0,0-40.7,16.6-44.6,99.2,0,0-3.7-1-8.5,4C182,344,151.1,227.1,242.1,196Z"/><path class="cls-14" d="M230.2,244.1s100.5-73.7,111.1,33.4c0,0,15.4,68.4,63.9,62.5,0,0,29.7-68.2-27.6-139.5,0,0-40.6-51.4-99.9-32.9C277.7,167.7,219.3,188.1,230.2,244.1Z"/><path class="cls-16" d="M383.4,571.4h18.5c0-2.1,0-4.1-.1-6.1a101.8,101.8,0,0,0-11.3-40.9c-1.7-3.2-2.8-5-2.8-5a75.6,75.6,0,0,0-16.1-17l-1.4-1.2-2.4-1.7c-84.6,147.4-140.2,0-140.2,0l-2.6,1.9a7.6,7.6,0,0,0-1.5,1.1l-3.9,3.3a80.1,80.1,0,0,0-12,13.6s-11.9,26.6-14.1,45.9c-.2,2.1-1.4,4.5-1.3,6.4l19.6-.3c0,2,0,4-.1,5.9-.1,10.3-.5,18.3-.8,23.5H384.4c-.3-5.2-.7-13.2-.9-23.5C383.5,575.3,383.4,573.4,383.4,571.4Z"/></svg>