<svg id="Layer_1" data-name="Layer 1" xmlns="http://www.w3.org/2000/svg" xmlns:xlink="http://www.w3.org/1999/xlink" viewBox="0 0 612 792"><defs><style>.cls-1{fill:none;}.cls-2{fill:#8a4e26;}.cls-3{fill:#e5c5a5;}.cls-4{fill:#f2d1ac;}.cls-5{clip-path:url(#clip-path);}.cls-6{fill:#c09a80;}.cls-7{fill:#fff;}.cls-8{fill:#755622;}.cls-9{fill:#142026;}.cls-10{fill:#bf9a80;}.cls-11{fill:#d2d2d1;}.cls-12{fill:#ef3f5d;}.cls-13{fill:#8b4e25;stroke:#8b4e25;stroke-linecap:round;stroke-linejoin:round;stroke-width:2.23px;}.cls-14{fill:#bf706a;}.cls-15{fill:#994e49;}.cls-16{fill:#c9c9c9;}</style><clipPath id="clip-path"><rect class="cls-1" x="238.8" y="443.5" width="57.6" height="34.13"/></clipPath></defs><title>OOW II - Final avatars</title><path class="cls-2" d="M161.6,365s10.1,110.5,87.2,143V467.3s-52.7-47.3-72.6-97.7C176.2,369.6,166.7,371,161.6,365Z"/><rect class="cls-2" x="296.4" y="431" width="72.1" height="85.69"/><path class="cls-3" d="M267.5,408.5V600h-104l-2.5-1.1c0-102.7,63.7-110.4,63.7-110.4,6.4,0,10.4-8.2,13.1-20.6.4-1.9.8-3.9,1.1-6s1.1-7.2,1.4-11.1c.2-2.3.4-4.7.7-7.1.9-11.8,1.2-24.6,1.2-36.7,0,0,14,1.4,25.3,1.4"/><path class="cls-4" d="M374.4,598.9l-2.5,1.1H267.5V408.5h.2c11.3,0,25.4-1.4,25.4-1.4,0,12,.3,24.7,1.2,36.3.2,2.3.5,4.7.6,6.9.5,4,.9,7.8,1.5,11.4h0c.2,1.6.5,3.1.8,4.5,2.7,13.2,6.9,22.1,13.5,22.1,0,0,63.7,7.7,63.7,110.4"/><path class="cls-4" d="M267.6,188.9V463.1h.8c40.2,0,92-28.7,101.1-78.4a4.9,4.9,0,0,0,.1,2.3c1.7,4,9.2,8.2,14.5,3.4s1.6-12.2,1.8-12.3c7.8-5.3,15.5-13.3,16.4-23.8,1.8-22.6-20.5-27-28.1-12.6,4.9-60.5,4.3-152.7-105.9-152.7ZM375,384.2a3.3,3.3,0,0,1,3.3-3.2,3.2,3.2,0,1,1-3.3,3.2"/><g class="cls-5"><path class="cls-6" d="M296.4,461.8h0a33.6,33.6,0,0,1-28.8,15.7h-.2c-16.5-.1-26.2-12.1-28.7-15.6.6-3.5,1.1-7.2,1.4-11.1.2-2.3.4-4.7.7-7.1a116.7,116.7,0,0,0,26.3,3.4h.3a106.2,106.2,0,0,0,26.8-3.8l.7,6.9c.4,4,.9,7.8,1.4,11.4"/></g><path class="cls-3" d="M267.8,188.8c-110.2,0-110.8,92.3-105.9,152.8-7.6-14.3-29.9-9.9-28,12.6.8,10.5,8.7,18.5,16.4,23.8.2.1-2.9,8.1,1.8,12.3s12.8.6,14.5-3.4a5.1,5.1,0,0,0,.1-2.3c9.1,49.7,60.9,78.4,101.1,78.4h.8V188.8ZM157.9,387.4a3.2,3.2,0,0,1,0-6.4,3.2,3.2,0,1,1,0,6.4"/><path class="cls-6" d="M140.8,344.7c5.4-8.7,13.8-4.9,15.9-3.1s3.9,4.9,2.6,10c-.8,2.9-3.8,3.1-3.1,7.5s3.1,5.2,4.4,6.4,2.9,2,3.7,4.1a10.8,10.8,0,0,1,.5,6.2c-.8,3.6-6,.7-9.5-.9s-9.5-7.2-11.4-9.2c-4.6-5.2-6.8-15.3-3.2-21.1"/><path class="cls-3" d="M266.8,214.8c-36.2,0-62.8,10.6-78.8,31.3-22.4,29.1-21.6,73.4-13.3,105.3,2.5,9.7,3.8,36,5.6,45.6,7.8,43.1,55.3,66,86.6,66h.9V214.9h-.9"/><path class="cls-4" d="M345.5,246.2c-16-20.6-42.2-31.2-77.8-31.3V463.1c35.7-.4,78.3-25.5,85.7-66,1.7-9.6,3-35.9,5.6-45.6,8.3-31.8,9.1-76.1-13.4-105.3"/><path class="cls-6" d="M395.2,344.7c-5.4-8.7-13.8-4.9-15.9-3.1s-3.9,4.9-2.6,10c.8,2.9,3.8,3.1,3.1,7.5s-3.1,5.2-4.4,6.4-2.9,2-3.7,4.1a11,11,0,0,0-.5,6.2c.8,3.6,6,.7,9.5-.9s9.6-7.2,11.4-9.2c4.6-5.2,6.8-15.3,3.1-21.1"/><path id="_Path_" data-name="&lt;Path&gt;" class="cls-7" d="M181.3,325.2s11.1,20,27.8,22.2,34.5-.4,34.5-.4-2.2-19-10.9-22.3S206.6,315.6,181.3,325.2Z"/><path id="_Path_2" data-name="&lt;Path&gt;" class="cls-8" d="M229.1,333.5c-.7,7.8-8,13.6-16.2,13s-14.3-7.4-13.6-15.2,8-13.7,16.2-13S229.9,325.7,229.1,333.5Z"/><path id="_Path_3" data-name="&lt;Path&gt;" class="cls-9" d="M213.8,340.4A6.8,6.8,0,0,1,208,333a7.2,7.2,0,0,1,7.1-6.4A6.8,6.8,0,0,1,221,334,7.2,7.2,0,0,1,213.8,340.4Z"/><path id="_Path_4" data-name="&lt;Path&gt;" class="cls-10" d="M243.6,346.9l-1.2.2c-.7-7.1-2.7-16.9-8.2-18.9-8.1-3.1-26.2-7.8-49.3,2.4a44.5,44.5,0,0,1-3.6-5.5c25.1-13,45-8,53.6-4.7S243.6,346.9,243.6,346.9Z"/><path id="_Path_5" data-name="&lt;Path&gt;" class="cls-7" d="M356.1,327.6s-10.4,19.5-27.1,21.1-34.5-1.3-34.5-1.3,1.9-19.2,10.5-22.2S330.9,317.5,356.1,327.6Z"/><path id="_Path_6" data-name="&lt;Path&gt;" class="cls-8" d="M305.1,334.4c.9,8.1,8.6,14.2,17.1,13.7s14.8-7.5,13.9-15.5-8.6-14.2-17.2-13.7S304.2,326.4,305.1,334.4Z"/><path id="_Path_7" data-name="&lt;Path&gt;" class="cls-9" d="M321.2,341.8a6.8,6.8,0,0,0,6-7.5,7.7,7.7,0,0,0-7.5-6.7,6.8,6.8,0,0,0-6,7.5A7.7,7.7,0,0,0,321.2,341.8Z"/><path id="_Path_8" data-name="&lt;Path&gt;" class="cls-10" d="M294.4,347.4l1.2.2c.5-7,2.2-16.6,7.6-18.5,8-2.9,26-7,49.4,3.8a40.9,40.9,0,0,0,3.5-5.3c-25.5-13.6-45.3-9.1-53.8-6.1S294.4,347.4,294.4,347.4Z"/><path id="_Path_9" data-name="&lt;Path&gt;" class="cls-6" d="M259.2,380.8c-.2-3.5,6.3-1.3,8.5-1.2s6.8-1.1,7.3-.8c3,2-3.2,6.2-7.4,6.2C266.4,385,259.3,382.9,259.2,380.8Z"/><circle class="cls-11" cx="378.7" cy="386.2" r="9.8"/><path class="cls-12" d="M353.9,570.6h18.5c0-2.1,0-4.1-.1-6.1a101.8,101.8,0,0,0-11.3-40.9c-1.7-3.2-2.8-5-2.8-5a75.6,75.6,0,0,0-16.1-17l-1.4-1.2-2.4-1.7c-84.6,147.4-140.2,0-140.2,0l-2.6,1.9a7.6,7.6,0,0,0-1.5,1.1l-3.9,3.3a80.1,80.1,0,0,0-12,13.6s-11.9,26.6-14.1,45.9c-.2,2.1-1.4,4.5-1.3,6.4l19.6-.3c0,2,0,4-.1,5.9-.1,10.3-.5,18.3-.8,23.5H354.8c-.3-5.2-.7-13.2-.9-23.5C353.9,574.6,353.9,572.7,353.9,570.6Z"/><path class="cls-2" d="M202.7,228.9s87-44.4,119.2,44.4C321.8,273.3,334.8,137.6,202.7,228.9Z"/><path class="cls-2" d="M215.1,188.5s-13.5,36.5-7.3,46.9c0,0-41.9,19.6-45.9,106.2h0S119.7,221.1,215.1,188.5Z"/><g id="_Group_" data-name="&lt;Group&gt;"><path id="_Path_10" data-name="&lt;Path&gt;" class="cls-13" d="M341.5,302.7l-1.2-.6a27.1,27.1,0,0,0-4.4-1.9,60,60,0,0,0-9-2.6,72.6,72.6,0,0,0-11.3-1.2,69.7,69.7,0,0,0-11.5,1,55,55,0,0,0-9.3,2.5,33.1,33.1,0,0,0-7.8,3.9h0a1.4,1.4,0,0,0-.1,2.4c.5.4,1,2.2,1.8,2.3h0a4.3,4.3,0,0,0,2.2-.4h0a56,56,0,0,1,7.2-2.7,66.8,66.8,0,0,1,7.9-2,57.9,57.9,0,0,1,9.6-1,65.8,65.8,0,0,1,9.8.3l1.5.2,3.2.4,2.6.5,1.4.3,5.1,1.2,1,.3H347Z"/></g><g id="_Group_2" data-name="&lt;Group&gt;"><path id="_Path_11" data-name="&lt;Path&gt;" class="cls-13" d="M193.4,303l1.2-.6a27.1,27.1,0,0,1,4.4-1.9,60,60,0,0,1,9-2.6,72.6,72.6,0,0,1,11.3-1.2,69.7,69.7,0,0,1,11.5,1,55,55,0,0,1,9.3,2.5,33.1,33.1,0,0,1,7.8,3.9h0a1.4,1.4,0,0,1,.1,2.4c-.5.4-1,2.2-1.8,2.3h0a4.3,4.3,0,0,1-2.2-.4h0a56,56,0,0,0-7.2-2.7,66.8,66.8,0,0,0-7.9-2,57.9,57.9,0,0,0-9.6-1,65.8,65.8,0,0,0-9.8.3l-1.5.2-3.2.4-2.6.5-1.4.3-5.1,1.2-1,.3h-6.8Z"/></g><path class="cls-2" d="M202.7,238.9s105.3-77.2,116.4,35c0,0,16.2,71.7,67,65.5,0,0,31.2-71.5-29-146.1,0,0-42.5-53.9-104.7-34.4C252.4,158.8,191.2,180.2,202.7,238.9Z"/><path class="cls-2" d="M330.5,335.4c2,6.5,4.7,12.5,11.1,13.9a14.2,14.2,0,0,0-1.3,17.8,14.3,14.3,0,0,0-4.8,24.5,14.3,14.3,0,0,0,1.8,23.1,14.3,14.3,0,0,0-1.8,23,14.3,14.3,0,0,0,2.1,23.2,14.3,14.3,0,0,0-3.9,26.2,14.3,14.3,0,0,0,3.5,26.1,14.3,14.3,0,0,0,4.2,26,14.3,14.3,0,0,0,6,27.3,14.1,14.1,0,0,0,6.1-1.4,14.3,14.3,0,0,0,22.2,17.1,14.3,14.3,0,0,0,25.9,11.1,14.3,14.3,0,0,0,26.8-5.8,14.3,14.3,0,0,0,21.3-12.5,14.4,14.4,0,0,0-.5-3.5h.5a14.3,14.3,0,0,0,8.9-25.5l2.6.2a14.3,14.3,0,0,0,6.6-27,14.3,14.3,0,0,0-1.3-27.9,14.3,14.3,0,0,0-9.8-24.5,14.3,14.3,0,0,0-6.7-24.3,14.3,14.3,0,0,0-11.7-22.6h-.3a14.3,14.3,0,0,0-6.7-24.6,14.3,14.3,0,0,0-8.8-21.1,14.3,14.3,0,0,0-4.5-17.7,14.3,14.3,0,0,0-4.3-25.3,14.3,14.3,0,0,0-2.6-22.6,14.3,14.3,0,0,0-2.6-23.2,14.3,14.3,0,0,0-8.1-23,14.3,14.3,0,0,0-10.2-24.4h-.1a14.2,14.2,0,0,0,.1-1.9A14.3,14.3,0,0,0,376.1,222S320.7,303.6,330.5,335.4Z"/><path class="cls-14" d="M296.4,415.2s-13,9.6-29.1,9.6-28.3-9.4-28.3-9.4,12.2-.8,28.3-.8,29.2.6,29.2.6"/><path class="cls-15" d="M275.6,410.7c-4.5,0-8.1,1.9-8.3,4.4,0-2.4-3.7-4.4-8.2-4.4s-20.9,4.4-20.9,4.4,15.9,1.2,20.5,1.2,8.6,1.3,8.6-1.1c.1,2.4,3.4,1.4,7.9,1.4s21.2-1.5,21.2-1.5-16.3-4.4-20.9-4.4"/><polygon class="cls-16" points="153.4 375.2 140.3 384.4 141.7 400.4 156.2 407.1 169.3 398 167.9 382 153.4 375.2"/></svg>