<svg id="Layer_1" data-name="Layer 1" xmlns="http://www.w3.org/2000/svg" viewBox="0 0 612 792"><defs><style>.cls-1{fill:#60361f;}.cls-2{fill:#6b3c21;}.cls-3,.cls-4{fill:#391f12;}.cls-4{opacity:0.6;}.cls-5{fill:#fff;}.cls-6{fill:#bf706a;}.cls-7{fill:#994e49;}.cls-8{fill:#5b381b;}.cls-9{fill:#142026;}.cls-10{fill:#2c180f;}.cls-11{fill:#231f20;stroke:#231f20;stroke-linecap:round;stroke-linejoin:round;stroke-width:9px;}.cls-12{fill:#070808;}.cls-13{fill:#8e8e8e;}.cls-14{fill:#86c441;}.cls-15{fill:#86c442;}.cls-16{fill:#79aa41;}</style></defs><title>OOW II - Final avatars</title><path class="cls-1" d="M305.4,405.3V600.8H199.3l-2.6-1.1c0-104.8,64.9-112.7,64.9-112.7,6.5,0,10.6-8.3,13.4-21,.4-2,.8-4,1.1-6.1s1.1-7.4,1.5-11.3l.7-7.2c.8-9.8,1.1-20.3,1.2-30.5.1-2.3.1-4.6.1-6.9C279.6,403.9,293.9,405.3,305.4,405.3Z"/><path class="cls-2" d="M414.5,599.6l-2.5,1.1H305.4V405.3h.2c11.5,0,25.9-1.4,25.9-1.4,0,2.7,0,5.4.1,8,.1,9.7.4,19.7,1.2,29,.2,2.4.4,4.8.7,7.1.4,4.1.9,8,1.5,11.6h0c.2,1.6.5,3.1.8,4.6,2.8,13.5,7.1,22.6,13.8,22.6C349.5,487,414.5,494.8,414.5,599.6Z"/><path class="cls-3" d="M334.9,459.7h0a34.3,34.3,0,0,1-29.4,16h-.1c-16.9-.1-26.7-12.4-29.2-15.9.6-3.6,1.1-7.4,1.5-11.3.2-2.4.5-4.8.7-7.2a117,117,0,0,0,26.8,3.5h.3a110.1,110.1,0,0,0,27.4-3.8l.7,7.1C333.9,452.2,334.3,456.1,334.9,459.7Z"/><path class="cls-1" d="M305.7,181.2c-112.4,0-113,94.2-108,155.9C190,322.5,167.2,327,169,350s34,33.6,33.6,31.1c9.2,50.7,62.1,80,103.1,80h.9V181.2Z"/><path class="cls-3" d="M176.2,340.3c5.6-8.9,14.1-5.1,16.2-3.1s4,5,2.6,10.2c-.8,3-3.9,3.2-3.1,7.7s3.2,5.4,4.5,6.5,3,2,3.8,4.2a11.2,11.2,0,0,1,.5,6.3c-.9,3.6-6.1.7-9.7-.9s-9.7-7.3-11.6-9.5C174.7,356.4,172.5,346.2,176.2,340.3Z"/><path class="cls-2" d="M306.3,181.2c112.4,0,113,94.2,108,155.9C422,322.5,444.8,327,443,350s-34,33.6-33.6,31.1c-9.2,50.7-62.1,80-103.1,80h-.9V181.2Z"/><path class="cls-4" d="M435.8,340.3c-5.5-8.9-14.1-5.1-16.2-3.1s-4,5-2.6,10.2c.8,3,3.9,3.2,3.1,7.7s-3.2,5.4-4.5,6.5-3,2-3.8,4.2a11.4,11.4,0,0,0-.5,6.3c.9,3.6,6.2.7,9.7-.9s9.8-7.3,11.6-9.5C437.3,356.4,439.5,346.2,435.8,340.3Z"/><path class="cls-1" d="M304.7,207.8c-37,0-64,10.8-80.4,32-22.9,29.6-22,74.9-13.6,107.4,2.6,9.9,3.9,36.7,5.7,46.5,8,44,56.4,67.4,88.3,67.4h.9V207.8Z"/><path class="cls-2" d="M385,239.8c-16.3-21.1-43-31.8-79.4-32V461.1c36.4-.4,80-26,87.4-67.3,1.8-9.8,3.1-36.6,5.7-46.5C407.1,314.8,408,269.5,385,239.8Z"/><path class="cls-5" d="M208.8,422.1c.5.6.3.4-.1-.3Z"/><path class="cls-6" d="M328.4,412.7s-10.3,10.7-22.9,10.7-22.3-10.5-22.3-10.5,9.7-.3,22.3-.3h22.9"/><path class="cls-7" d="M312,407.8c-3.6,0-6.4,2.1-6.5,4.9,0-2.7-2.9-4.9-6.5-4.9s-16.4,4.9-16.4,4.9,12.5,1.3,16.1,1.3,6.7,1.4,6.8-1.2c.1,2.6,2.7,1.6,6.2,1.6s16.7-1.6,16.7-1.6-12.8-4.9-16.4-4.9"/><path id="_Path_" data-name="&lt;Path&gt;" class="cls-3" d="M284.4,368.6c-.4-6,16.2-2.2,21.7-2s17.5-1.9,18.7-1.4c7.8,3.6-8.2,10.8-18.9,10.8C302.9,375.9,284.6,372.2,284.4,368.6Z"/><path id="_Path_2" data-name="&lt;Path&gt;" class="cls-5" d="M227.1,304.2s10.5,17.9,26.6,19.7,33.2-.6,33.2-.6-1.1-18.1-9.5-21S251.2,295.5,227.1,304.2Z"/><path id="_Path_3" data-name="&lt;Path&gt;" class="cls-8" d="M273,311.4c-.8,7-7.8,12.3-15.7,11.8s-13.7-6.6-12.9-13.6,7.8-12.3,15.7-11.8S273.8,304.4,273,311.4Z"/><path id="_Path_4" data-name="&lt;Path&gt;" class="cls-9" d="M258.3,317.7a6.1,6.1,0,0,1-5.5-6.6,6.9,6.9,0,0,1,6.9-5.8,6.1,6.1,0,0,1,5.5,6.6A6.9,6.9,0,0,1,258.3,317.7Z"/><path id="_Path_5" data-name="&lt;Path&gt;" class="cls-10" d="M286.8,323.3l-1.2.2c-.6-6.4-2.5-15.1-7.7-16.9-7.8-2.8-25.2-6.8-47.4,2.5a38.9,38.9,0,0,1-3.4-4.9c24.2-11.8,43.3-7.4,51.6-4.5S286.8,323.3,286.8,323.3Z"/><path id="_Path_6" data-name="&lt;Path&gt;" class="cls-5" d="M388.2,306.6s-10.2,17.5-26.2,19.1-33.2-1-33.2-1,1.9-18.8,10.2-21.6S363.8,298.5,388.2,306.6Z"/><path id="_Path_7" data-name="&lt;Path&gt;" class="cls-8" d="M339.2,313c.8,7.2,8.1,12.7,16.4,12.2s14.3-6.8,13.5-14-8.1-12.7-16.4-12.2S338.3,305.8,339.2,313Z"/><path id="_Path_8" data-name="&lt;Path&gt;" class="cls-9" d="M354.6,319.5a6.3,6.3,0,0,0,5.8-6.8,7.1,7.1,0,0,0-7.2-6,6.4,6.4,0,0,0-5.8,6.8A7.1,7.1,0,0,0,354.6,319.5Z"/><path class="cls-10" d="M336.5,301.5c-6.7,2.3-7.6,16.1-7.7,21.3h0v2l1.2.2h0c.5-6.3,2.2-14.9,7.4-16.6,7.7-2.6,25-6.4,47.4,3.1a37.2,37.2,0,0,0,3.4-4.8C363.8,294.6,344.7,298.7,336.5,301.5Z"/><g id="_Group_" data-name="&lt;Group&gt;"><path id="_Path_9" data-name="&lt;Path&gt;" class="cls-11" d="M383.6,285.5l-1.2-.9a23.2,23.2,0,0,0-4.3-2.8,44.6,44.6,0,0,0-8.8-3.9,47.6,47.6,0,0,0-11.1-1.8,45.4,45.4,0,0,0-11.2,1.4,40.1,40.1,0,0,0-9.1,3.7,30.7,30.7,0,0,0-7.6,5.8h0a2.8,2.8,0,0,0-.1,3.6c.5.6,1,3.3,1.7,3.4h0a2.9,2.9,0,0,0,2.2-.6h0a45.4,45.4,0,0,1,7-4,47.8,47.8,0,0,1,7.8-2.9,38,38,0,0,1,9.4-1.5,42.3,42.3,0,0,1,9.6.4l1.5.3,3.1.6,2.5.7,1.4.4a46.1,46.1,0,0,1,5,1.8l1,.4h6.6Z"/></g><g id="_Group_2" data-name="&lt;Group&gt;"><path id="_Path_10" data-name="&lt;Path&gt;" class="cls-11" d="M234.6,285.5l1.2-.9a23.2,23.2,0,0,1,4.3-2.8,44.6,44.6,0,0,1,8.8-3.9,47.6,47.6,0,0,1,11.1-1.8,45.4,45.4,0,0,1,11.2,1.4,40.1,40.1,0,0,1,9.1,3.7,30.7,30.7,0,0,1,7.6,5.8h0a2.8,2.8,0,0,1,.1,3.6c-.5.6-1,3.3-1.7,3.4h0a2.9,2.9,0,0,1-2.2-.6h0a45.4,45.4,0,0,0-7-4,47.8,47.8,0,0,0-7.8-2.9,38,38,0,0,0-9.4-1.5,42.3,42.3,0,0,0-9.6.4l-1.5.3-3.1.6-2.5.7-1.4.4a46.1,46.1,0,0,0-5,1.8l-1,.4h-6.6Z"/></g><polygon class="cls-10" points="230.1 303.8 226.7 305.6 230.5 311.2 235.6 307.1 230.1 303.8"/><polygon class="cls-10" points="285.6 327.4 285.6 328 286.8 327.9 286.8 327.1 285.6 327.4"/><path class="cls-12" d="M421.8,328.3a26.7,26.7,0,0,0-6.9,10.3c-3.8,9.9-5.2,8.2-5.2,8.2s5.9-38.7,5.9-49.5-34.7-73.7-53.5-80.1-34.7-1.6-54.9-1.6h-1.6c-19.8-.4-38.4-4.7-57,1.6s-51.4,69.4-51.4,80.1,5.9,49.5,5.9,49.5-1.5,1.7-5.2-8.2a26.6,26.6,0,0,0-8.3-11.4c-5-67.1-2.1-165.9,115.9-165.9h.6c118.7,0,120.9,99.9,115.8,167"/><path class="cls-13" d="M414,293.2V293a.9.9,0,0,0-.6-.5h-.1c-9-3.2-46.9-4.7-67.3-2.4s-32.7,7.6-39.5,7.8-19.1-5.1-39.7-7-58.3.4-67.2,3.8h-.2a.7.7,0,0,0-.5.5v.2c-.1,1.1-.4,6.1-.2,8.9a3,3,0,0,0,0,.4,2.4,2.4,0,0,0,1.6,1.8h.1c1.8.6,5,3.4,8.3,16.7,1.5,6.7,3.4,20.8,18,24.9,6.6,1.8,38.6,5.4,54.7-7.1,3.4-2.6,7-8.4,10.1-14.3,1.8-4,6.6-15.5,7.3-17.3a7,7,0,0,1,7-5.1h1.6a7,7,0,0,1,7.1,4.9c.7,1.7,5.7,13.1,7.6,17.1,3.2,5.8,7,11.5,10.4,14.1,16.4,12.2,48.2,8,54.8,6,14.5-4.4,16.1-18.6,17.4-25.3,3.1-13.4,6.2-16.2,8-16.9h.1a2.4,2.4,0,0,0,1.6-1.8V302C414.5,299.2,414.1,294.3,414,293.2Zm-132,36.9A24.5,24.5,0,0,1,266.9,343c-12.6,3.6-21.5,3.7-34,2.1-8.4-1.1-14.6-6.7-16.3-12.4-2.1-7.9-5.1-16-3.2-23.9a16.8,16.8,0,0,1,11.3-11.7c12.4-4,31.9-3.8,44.4-1.8,6.1,1.1,17,2.2,19.5,9.4S286.3,323.2,282.1,330.1Zm115.2.6c-1.6,5.7-7.7,11.5-16.1,12.8-12.5,1.9-21.4,1.9-34-1.4a24.5,24.5,0,0,1-15.4-12.5c-4.3-6.8-9.5-17.6-7-25.4s13.2-8.6,19.3-9.8c12.4-2.2,31.9-2.8,44.4,1A16.7,16.7,0,0,1,400,306.8C402.1,314.7,399.3,322.8,397.3,330.8Z"/><path class="cls-14" d="M391.9,571.1h20.7a34.9,34.9,0,0,0-1-6.4c-3.1-18.3-8.8-33.7-12.7-41.1-1.7-3.2-2.8-5-2.8-5a76.1,76.1,0,0,0-16.1-17.2l-1.4-1.2-2.4-1.7c-84.6,148.8-140.2,0-140.2,0a24.6,24.6,0,0,0-2.6,1.9,7.6,7.6,0,0,0-1.5,1.2,30.6,30.6,0,0,0-4.9,3.3c-4.1,3.7-7.1,8.2-11,13.8,0,0-16.9,25.3-17.2,45.6,0,0-.5,5.7-.5,7.6l21.9-.7c0,2.1,0,4-.1,5.9-.1,10.4-.5,18.5-.8,23.8H392.9c-.3-5.3-.7-13.4-.9-23.8C392,575.1,391.9,573.1,391.9,571.1Z"/><path class="cls-15" d="M239.5,495.6l6.3-3.5,5.9-2.6,7.9-2.3,17.7,11.2c18.5,4.6,36.3,5.1,54.7,0l19.3-11.2,5.6,1.4,7.8,3.4,11.7,6.5,9.6,66.7H216.7l16-64.3"/><path class="cls-16" d="M259.6,487.2c10.1,8.1,30,19.3,45.4,19.8h.8c15.4-.6,35.4-11.7,45.5-19.8a60.6,60.6,0,0,0-7.3-2.5c-8.5,6.8-25.3,16.3-38.3,16.7H305c-13-.5-29.8-9.9-38.3-16.7a59.9,59.9,0,0,0-7.1,2.5"/></svg>