<svg id="Layer_1" data-name="Layer 1" xmlns="http://www.w3.org/2000/svg" xmlns:xlink="http://www.w3.org/1999/xlink" viewBox="0 0 612 792"><defs><style>.cls-1{fill:none;}.cls-2{fill:#5d1d12;}.cls-3{fill:#5d1e13;}.cls-4{fill:#af7852;}.cls-5{fill:#be845c;}.cls-6{fill:#4b2c16;}.cls-7{clip-path:url(#clip-path);}.cls-8{fill:#7a4d2b;}.cls-9{fill:#a21d21;}.cls-10{fill:#c02026;}.cls-11{fill:#fff;}.cls-12{fill:#1d130d;}.cls-13{fill:#142026;}.cls-14{fill:#0d0d0d;}.cls-15,.cls-17{fill:#231f20;}.cls-15{stroke:#231f20;stroke-linecap:round;stroke-linejoin:round;stroke-width:2.23px;}.cls-16{fill:#641f0e;}</style><clipPath id="clip-path"><polyline class="cls-1" points="281.8 479.6 337.7 479.6 337.7 446.2 281.8 446.2"/></clipPath></defs><title>OOW II - Final avatars</title><rect class="cls-2" x="231.2" y="422.7" width="162.6" height="98.88"/><path class="cls-3" d="M356.9,415.9s76.6,40.7,30,87.7c-25.6,27.7-27.7,42.1-13.3,46.8-17.3,1.3-54.4-46.6-24.8-62.6,27-14.6,28.5-42.2-1.1-59.7C335.3,420.8,356.9,415.9,356.9,415.9Z"/><path class="cls-4" d="M309.7,412.9V600.8H207.9l-2.5-1.1c0-63.7,23.5-92.7,43.2-100.9,12.7-5.3,19.2-7.2,19.2-7.2,6.9-.7,10.2-8.2,12.8-20.4.4-1.9.8-3.8,1.1-5.9s1.1-7.1,1.4-10.9.4-4.6.6-7c.9-11.5,1.2-24.1,1.2-36,0,0,13.7,1.4,24.8,1.4"/><path class="cls-5" d="M413.7,598.9l-2.4,1.1H309V412.1h.2c11.1,0,24.9-1.4,24.9-1.4,0,11.8.3,24.2,1.2,35.7.2,2.3.4,4.6.6,6.8.4,3.9.8,7.6,1.4,11.2h0c.2,1.6.5,3,.8,4.4,2.7,12.9,14.7,24,21.1,24,0,0,.5-1.3,11.1,5,18.3,10.7,43.3,37.2,43.3,101"/><path class="cls-4" d="M309.9,208.2C203.6,208,203,293.7,207.7,349.5c-7.3-13.1-28.9-8.2-27.1,12.8s32.2,29.2,31.7,27c8.7,45.5,58.8,70.8,97.6,74.4h.8V208.2h-.8"/><path class="cls-6" d="M186,353.4c5.3-8.1,13.6-4.6,15.6-2.8s3.8,4.5,2.5,9.3c-.7,2.7-3.7,2.9-3,7s3,4.9,4.3,6,2.8,1.8,3.7,3.8a10,10,0,0,1,.5,5.8c-.8,3.3-5.9.7-9.3-.8s-9.4-6.7-11.2-8.6c-4.5-4.8-6.6-14.2-3.1-19.6"/><g class="cls-7"><path class="cls-8" d="M337.4,464.2v.5a31.8,31.8,0,0,1-27.7,14.9h-.1c-16.1-.1-25.4-11.3-27.8-14.7.6-3.4,1.1-7.7,1.4-11.5.2-2.3.4-4.6.7-7a108.1,108.1,0,0,0,25.5,3.4h.3a104.3,104.3,0,0,0,26-3.6c.2,2.3.4,4.6.6,6.8.4,4,.5,7.8,1.1,11.3"/></g><path class="cls-5" d="M310.5,208.2c106.3-.2,106.9,85.4,102.2,141.3,7.3-13.1,28.9-8.2,27.1,12.8s-32.2,29.2-31.7,27c-8.7,45.5-58.8,70.8-97.6,74.4h-.8V208.2h.8"/><path class="cls-6" d="M435.2,353.4c-5.4-8.1-13.6-4.6-15.6-2.8s-3.8,4.5-2.5,9.3c.8,2.7,3.7,2.9,3,7s-3.1,4.9-4.3,6-2.8,1.8-3.6,3.8a9.7,9.7,0,0,0-.5,5.8c.8,3.3,5.9.7,9.3-.8s9.3-6.7,11.2-8.6c4.5-4.8,6.6-14.2,3.1-19.6"/><path class="cls-4" d="M309.4,232.5c-35.5,0-61.5,9.8-77.2,29.2-21.9,27.1-21.1,68.4-13,98.1,2.5,9.1,3.7,33.5,5.5,42.5,7.7,40.2,54.2,61.5,84.8,61.5h.8V232.5h-.8"/><path class="cls-9" d="M332.9,411.2s-10.2,11-22.8,11-22.3-10.7-22.3-10.7a144.7,144.7,0,0,1,22.3-1.7,182,182,0,0,1,22.8,1.4"/><path class="cls-10" d="M316.5,406.1c-3.6,0-6.4,2.2-6.5,5-.1-2.7-2.9-5-6.5-5s-16.4,5.1-16.4,5.1,12.5,1.3,16.1,1.3,6.7,1.4,6.8-1.3c0,2.7,2.6,1.7,6.1,1.7s16.7-1.7,16.7-1.7-12.8-5.1-16.3-5.1"/><path id="_Path_" data-name="&lt;Path&gt;" class="cls-11" d="M244.8,335.6s7.5,13.3,18.7,14.8a98.8,98.8,0,0,0,23.2-.3s-.4-12.9-6.3-15.1S261.3,329.9,244.8,335.6Z"/><path id="_Path_2" data-name="&lt;Path&gt;" class="cls-12" d="M277,341.2c-.5,5.2-5.4,9.1-10.9,8.7s-9.6-5-9.1-10.1,5.4-9.1,10.9-8.7S277.5,336,277,341.2Z"/><path id="_Path_3" data-name="&lt;Path&gt;" class="cls-13" d="M266.7,345.8a4.6,4.6,0,0,1-3.9-4.9,4.8,4.8,0,0,1,4.8-4.3,4.6,4.6,0,0,1,3.9,4.9A4.8,4.8,0,0,1,266.7,345.8Z"/><path id="_Path_4" data-name="&lt;Path&gt;" class="cls-14" d="M286.8,350.1h-.8c-.5-4.7-1.9-11.2-5.5-12.6-5.5-2.1-17.7-5.2-33.2,1.6a29.6,29.6,0,0,1-2.4-3.6c16.9-8.7,30.3-5.3,36.1-3.1S286.8,350.1,286.8,350.1Z"/><path id="_Path_5" data-name="&lt;Path&gt;" class="cls-11" d="M375.9,335.9s-7,12.9-18.2,14.1a101.1,101.1,0,0,1-23.2-.9s1.2-12.7,7-14.7S358.5,330.1,375.9,335.9Z"/><path id="_Path_6" data-name="&lt;Path&gt;" class="cls-12" d="M341.6,340.4c.6,5.4,5.8,9.4,11.5,9.1s10-5,9.4-10.3-5.8-9.5-11.6-9.1S341,335,341.6,340.4Z"/><path id="_Path_7" data-name="&lt;Path&gt;" class="cls-13" d="M352.4,345.3a4.5,4.5,0,0,0,4-5,5.2,5.2,0,0,0-5.1-4.5,4.5,4.5,0,0,0-4,5A5.2,5.2,0,0,0,352.4,345.3Z"/><path id="_Path_8" data-name="&lt;Path&gt;" class="cls-14" d="M334.5,349l.8.2c.3-4.7,1.5-11,5.1-12.3,5.4-1.9,17.5-4.6,33.2,2.5a27.1,27.1,0,0,0,2.3-3.5c-17.2-9-30.5-6.1-36.2-4.1S334.5,349,334.5,349Z"/><g id="_Group_" data-name="&lt;Group&gt;"><path id="_Path_9" data-name="&lt;Path&gt;" class="cls-15" d="M384.8,316.9l-1.2-.6a27.1,27.1,0,0,0-4.4-1.9,60,60,0,0,0-9-2.6,72.6,72.6,0,0,0-11.3-1.2,69.7,69.7,0,0,0-11.5,1,55,55,0,0,0-9.3,2.5,33.1,33.1,0,0,0-7.8,3.9h0a1.4,1.4,0,0,0-.1,2.4c.5.4,1,2.2,1.8,2.3h0a4.3,4.3,0,0,0,2.2-.4h0a56,56,0,0,1,7.2-2.7,66.8,66.8,0,0,1,7.9-2,57.9,57.9,0,0,1,9.6-1,65.8,65.8,0,0,1,9.8.3l1.5.2,3.2.4,2.6.5,1.4.3,5.1,1.2,1,.3h6.8Z"/></g><g id="_Group_2" data-name="&lt;Group&gt;"><path id="_Path_10" data-name="&lt;Path&gt;" class="cls-15" d="M236.7,317.2l1.2-.6a27.1,27.1,0,0,1,4.4-1.9,60,60,0,0,1,9-2.6,72.6,72.6,0,0,1,11.3-1.2,69.7,69.7,0,0,1,11.5,1,55,55,0,0,1,9.3,2.5,33.1,33.1,0,0,1,7.8,3.9h0a1.4,1.4,0,0,1,.1,2.4c-.5.4-1,2.2-1.8,2.3h0a4.3,4.3,0,0,1-2.2-.4h0a56,56,0,0,0-7.2-2.7,66.8,66.8,0,0,0-7.9-2,57.9,57.9,0,0,0-9.6-1,65.8,65.8,0,0,0-9.8.3l-1.5.2-3.2.4-2.6.5-1.4.3-5.1,1.2-1,.3h-6.8Z"/></g><path id="_Path_11" data-name="&lt;Path&gt;" class="cls-8" d="M297.2,384.6c-.3-3.5,9.5-1.3,12.7-1.2s10.2-1.1,10.9-.8c4.5,2.1-4.8,6.3-11.1,6.3C308,388.9,297.3,386.7,297.2,384.6Z"/><path d="M393.7,600.5H227.3c.4-6.4,1.1-15.7,1.8-20.8,3-24.3,20.9-28.9,19.8-81.1,0-.8-.1-.4.4-.9l9.5-3.7,4.7-1.7,3.8-1.3v.7c.2,7,1.4,52.4,2.6,64.9.8,8.9,20.6,16.5,39.1,17.1s41.2-8.2,42-17.1c1.2-12.5,2.4-58.4,2.5-64.9a5,5,0,0,1,.2-.9l2.3.5,2.9.9,12.2,4.1.7,1.8c.6,55.5,16.8,57.1,20,81.5.6,5.1,1.3,14.4,1.7,20.8"/><path class="cls-16" d="M244.6,269.1s22.7,28.5,50.3,41.2c-7.7-14.5-25-30.1-30.8-41.2,21.2,17.4,68.6,42.3,68.6,42.3-28.6-29.8-18-52.5-18-52.5s90.2,37.9,85.7,98.7c-3.4,46.3-45.7,65-36.7,100,10.5,41,29.4,37.2,18.2,83.3,50.7-55.8,65.1-144.7,61.1-189.1s4.3-176.9-127.9-176.9-129.6,114-139.4,165.3c-9,47.3,24.8,61.5,26.5,90.7.9,16.2-9.4,57.7-19.7,61.2,13.5-1.7,30.8-18.5,35.9-32.5,2.6,11.6-23.3,90.6,5.6,61.8,52.9-19,32.3-55.4,29.7-72.8,14.8,24.9,13.3,18.1,13.3,25.1-.5-45.7-36.1-59.4-47.7-98.2S220.1,300.3,244.6,269.1Z"/><path class="cls-17" d="M280.1,480.2l-3.4,6.4c3.4,2.3,15.7,7.1,36.5,7.2s32.6-5.2,35.2-7c0,0-1.4-1.4-2.7-2.9s-2.1-2.8-2.1-2.8a108.8,108.8,0,0,1-30.3,4.5C297.1,485.7,282.9,481.5,280.1,480.2Z"/><path class="cls-16" d="M247.3,426.3s67.1,55,12.2,91.9c-30.5,22.1-35.5,35.8-22.3,43.3-17.2-2.2-44.2-56.4-12-66.3,29.4-9,36.2-35.7,10.7-58.8C225.1,426.7,247.3,426.3,247.3,426.3Z"/></svg>