<svg xmlns="http://www.w3.org/2000/svg" viewBox="0 0 612 792"><defs><style>.cls-1{isolation:isolate;}.cls-2{fill:#17100d;}.cls-3{mix-blend-mode:multiply;}.cls-4{fill:#ba8058;}.cls-5{fill:#c58d66;}.cls-6{fill:#aa6b40;}.cls-7{fill:#c48d66;}.cls-8{fill:#82431d;}.cls-9{fill:#af6838;}.cls-10{fill:#fff;}.cls-11{fill:#332214;}.cls-12{fill:#142026;}.cls-13{fill:#684526;}.cls-14{fill:#96603c;}.cls-15{fill:#231f20;}.cls-16{fill:#c09a80;}.cls-17{fill:#3569b2;}</style></defs><title>OOW II - Final avatars</title><g class="cls-1"><g id="Layer_1" data-name="Layer 1"><path class="cls-2" d="M414.4,242.2c-21.6-67.5-82-92.1-108.7-76.2-26.6-15.9-85.7,6-107.3,73.5-39.5,123.3-16.8,318-16.8,318l123.7-3.1,123.7,3.1S453.9,365.5,414.4,242.2Z"/><path class="cls-3" d="M380.5,365l-75.1-.2-75.1.2s-4.9,93.1,24.4,122.4c10.1,10.1,30.1,20.6,50.7,22.7,20.6-2.1,40.6-12.6,50.7-22.7C385.4,458.1,380.5,365,380.5,365Z"/><path class="cls-4" d="M305.8,390.9V600.8H192l-2.8-1.2c0-31.2,5.4-54.5,13.1-71.7,12.8-28.4,32-40.6,44.5-45.7a49,49,0,0,1,12.1-3.6h.6l1.5-.3c5.7-1.7,9.6-10.1,12.3-22.2.5-2.2.9-4.2,1.2-6.5.6-3.9,1.2-7.9,1.6-12.2q.4-3.7.7-7.7c1-13,1.4-27,1.4-40.1C278.1,389.4,293.4,390.9,305.8,390.9Z"/><path class="cls-5" d="M422.8,599.6a19.4,19.4,0,0,0-2.7,1.2H305.8V390.9h.2c12.4,0,27.8-1.5,27.8-1.5,0,13.2.3,27,1.3,39.8l.7,7.6c.5,4.4,1,8.6,1.6,12.4v.2c.2,1.7.6,3.3.9,4.9,2.4,11.8,5.9,20.4,11,23.3l1.2.5a6.8,6.8,0,0,0,2.5.5s35.2,4.2,55.5,47C417,543.1,422.8,566.9,422.8,599.6Z"/><path class="cls-6" d="M337.5,449.3h0a36.8,36.8,0,0,1-31.5,17.2h-.1c-18.2-.1-28.7-13.3-31.4-17.1.6-3.8,1.2-7.9,1.6-12.2.2-2.6.5-5.1.7-7.8a123.7,123.7,0,0,0,28.7,3.8h.3a117.4,117.4,0,0,0,29.4-4.1l.7,7.6C336.4,441.2,336.8,445.4,337.5,449.3Z"/><path class="cls-4" d="M305.7,190c-118.8-.2-119.5,87.2-114.2,144.2-8.2-13.4-23.3-5.1-21.3,16.3s26.9,26.5,26.5,24.2c9.7,46.4,65.7,72.2,109,75.9h.9V190Z"/><path class="cls-7" d="M306.3,190c118.8-.2,119.5,87.2,114.2,144.2,8.2-13.4,21.8-9,19.8,12.4s-25.5,30.5-25,28.2c-9.7,46.4-65.7,72.2-109,75.9h-.9V190Z"/><path class="cls-4" d="M305.1,192.5c-39.7,0-68.7,11-86.3,32.6-24.5,30.2-23.6,76.4-14.5,109.5,2.8,10.1,4.2,37.4,6.1,47.5,8.6,44.8,60.5,68.7,94.7,68.7h.9V192.5Z"/><path class="cls-5" d="M391.2,225.1c-17.4-21.5-46.1-32.5-85.2-32.6V450.8c39.1-.4,85.8-26.6,93.8-68.7,1.9-10,3.3-37.3,6.1-47.5C414.9,301.6,415.8,255.5,391.2,225.1Z"/><path class="cls-8" d="M338.3,413.2s-14.6,11.7-32.6,11.7S274,413.4,274,413.4a276,276,0,0,1,31.7-1.8C323.7,411.7,338.3,413.2,338.3,413.2Z"/><path class="cls-9" d="M315,407.8c-5.1,0-9.1,2.4-9.2,5.3-.1-2.9-4.2-5.3-9.2-5.3s-23.4,5.4-23.4,5.4,17.8,1.4,22.9,1.4,9.6,1.5,9.7-1.3c.1,2.8,3.8,1.8,8.8,1.8s23.8-1.8,23.8-1.8S320.1,407.8,315,407.8Z"/><path id="_Path_" data-name="&lt;Path&gt;" class="cls-10" d="M239.2,332.8s9,16.6,22.7,18.4,28.1-.4,28.1-.4-1.3-17-8.4-19.8S259.3,325.7,239.2,332.8Z"/><path id="_Path_2" data-name="&lt;Path&gt;" class="cls-11" d="M278.2,339.7a12.3,12.3,0,0,1-13.3,10.9,11.7,11.7,0,0,1-11-12.7A12.3,12.3,0,0,1,267.2,327,11.7,11.7,0,0,1,278.2,339.7Z"/><path id="_Path_3" data-name="&lt;Path&gt;" class="cls-12" d="M265.7,345.4a5.6,5.6,0,0,1-4.7-6.1,5.9,5.9,0,0,1,5.8-5.4,5.6,5.6,0,0,1,4.7,6.1A5.9,5.9,0,0,1,265.7,345.4Z"/><path id="_Path_4" data-name="&lt;Path&gt;" class="cls-13" d="M290,350.8h-1c-.6-5.9-2.2-14-6.6-15.7-8-3.2-22.6-5.9-40.2,2.1a36.9,36.9,0,0,1-3-4.5c20.5-10.9,36.7-6.7,43.8-4S290,350.8,290,350.8Z"/><path id="_Path_5" data-name="&lt;Path&gt;" class="cls-10" d="M372.4,334.8s-8.5,16.2-22.1,17.6-28.2-1.1-28.2-1.1.4-16.1,7.4-18.6S351.8,327.1,372.4,334.8Z"/><path id="_Path_6" data-name="&lt;Path&gt;" class="cls-11" d="M330.8,340.5c.7,6.7,7,11.8,14,11.4s12.1-6.2,11.4-12.9-7-11.8-14-11.4S330,333.8,330.8,340.5Z"/><path id="_Path_7" data-name="&lt;Path&gt;" class="cls-12" d="M343.9,346.6a5.7,5.7,0,0,0,4.9-6.3,6.3,6.3,0,0,0-6.1-5.6,5.7,5.7,0,0,0-4.9,6.3A6.3,6.3,0,0,0,343.9,346.6Z"/><path id="_Path_8" data-name="&lt;Path&gt;" class="cls-14" d="M322.1,351.3l1,.2c.4-5.8,1.8-13.8,6.2-15.4,6.5-2.4,21.2-5.8,40.3,3.1a34.3,34.3,0,0,0,2.8-4.4c-20.8-11.2-36.9-7.5-43.9-5S322.1,351.3,322.1,351.3Z"/><path id="_Path_9" data-name="&lt;Path&gt;" class="cls-14" d="M295.2,385.6c-.2-4.4,8-1.6,10.7-1.5s8.7-1.4,9.2-1c3.8,2.6-4.1,7.8-9.4,7.8C304.4,390.9,295.3,388.2,295.2,385.6Z"/><g id="_Group_" data-name="&lt;Group&gt;"><path id="_Path_10" data-name="&lt;Path&gt;" class="cls-15" d="M378.8,311l-1.2-.9a22.9,22.9,0,0,0-4.2-2.8,43.9,43.9,0,0,0-8.7-3.8,46.9,46.9,0,0,0-10.9-1.7,44.7,44.7,0,0,0-11,1.4,39.5,39.5,0,0,0-8.9,3.7,30.2,30.2,0,0,0-7.5,5.7h0a2.7,2.7,0,0,0-.1,3.5c.5.6,1,3.2,1.7,3.3h0a2.9,2.9,0,0,0,2.1-.5h0a44.7,44.7,0,0,1,6.9-3.9,47.1,47.1,0,0,1,7.6-2.9,37.4,37.4,0,0,1,9.3-1.5,41.6,41.6,0,0,1,9.4.4l1.4.3,3,.6,2.5.7,1.4.4a45.4,45.4,0,0,1,4.9,1.7l1,.4h6.5Z"/></g><g id="_Group_2" data-name="&lt;Group&gt;"><path id="_Path_11" data-name="&lt;Path&gt;" class="cls-15" d="M239.2,309.6l1.2-.9a22.9,22.9,0,0,1,4.2-2.8,43.9,43.9,0,0,1,8.7-3.8,46.9,46.9,0,0,1,10.9-1.7,44.7,44.7,0,0,1,11,1.4,39.5,39.5,0,0,1,8.9,3.7,30.2,30.2,0,0,1,7.5,5.7h0a2.7,2.7,0,0,1,.1,3.5c-.5.6-1,3.2-1.7,3.3h0a2.9,2.9,0,0,1-2.1-.5h0a44.7,44.7,0,0,0-6.9-3.9,47.1,47.1,0,0,0-7.6-2.9,37.4,37.4,0,0,0-9.3-1.5,41.6,41.6,0,0,0-9.4.4l-1.4.3-3,.6-2.5.7-1.4.4a45.4,45.4,0,0,0-4.9,1.7l-1,.4h-6.5Z"/></g><path class="cls-16" d="M175.1,338.3c5.8-9.3,8.1-7.5,10.3-5.4s4.2,5.1,2.7,10.6c-.8,3.1-4,3.3-3.2,8s3.3,5.6,4.7,6.8,3.1,2.1,4,4.3a11.9,11.9,0,0,1,.5,6.6c-.9,3.8.2,3-3.5,1.3s-10.2-7.7-12.1-9.9c-4.9-5.6-7.2-16.3-3.3-22.5"/><path class="cls-16" d="M434.5,336.6c-5.8-9.3-6.7-5.8-8.9-3.7s-4.2,5.1-2.7,10.6c.8,3.1,4.1,3.3,3.3,8s-3.3,5.6-4.7,6.8-3.1,2.1-4,4.3,1.1,4.5,1.6,6.5c.9,3.8-6,1.6-2.3-.1s12.3-7.8,14.3-10c4.9-5.6,7.7-14.7,3.9-20.9"/><path class="cls-2" d="M411.7,372.1c-4.5-54-73.2-93.6-159.7-105.8-27.1,14.3-48,88.4-50.2,137.7-17.8-33.7-14.9-117.4-6.5-145.5,5.9-19.6,10.5-29,22.6-41.1,26.2-26.3,61.2-31,86.7-31,23.3,0,56.4,4.3,82.5,24.8,15.2,11.9,23.6,26.9,30.3,48.7C426,287.5,429.9,332.6,411.7,372.1Z"/><path class="cls-17" d="M423.3,600.6a2.9,2.9,0,0,0-2.7.2h-229l-2.8-1.2c0-72.5,28.3-100.4,48.9-112.7-4.3,23.5,31.7,32.6,68.2,32.1s70.6-10.3,68-32.7c20.6,12.2,49.4,40.6,49.4,113.3"/></g></g></svg>