<svg id="Layer_1" data-name="Layer 1" xmlns="http://www.w3.org/2000/svg" xmlns:xlink="http://www.w3.org/1999/xlink" viewBox="0 0 612 792"><defs><style>.cls-1{fill:none;}.cls-2{fill:#352626;}.cls-3{fill:#9b6d4c;}.cls-4{fill:#a8774a;}.cls-5{clip-path:url(#clip-path);}.cls-6{fill:#8c613e;}.cls-7{fill:#93643f;}.cls-8{fill:#a57146;}.cls-9{fill:#d28e5a;}.cls-10{fill:#c38653;}.cls-11{fill:#7f593e;}.cls-12{fill:#231f20;}.cls-13{fill:#fff;}.cls-14{fill:#1d130d;}.cls-15{fill:#142026;}.cls-16{fill:#684626;}.cls-17{fill:#8a5833;}.cls-18{fill:#666766;}.cls-19{fill:#27120d;}.cls-20{fill:#4f4f4f;}</style><clipPath id="clip-path"><rect class="cls-1" x="275.2" y="440.6" width="60.7" height="35.98"/></clipPath></defs><title>OOW II - Final avatars</title><path class="cls-2" d="M299.8,427.5a7.5,7.5,0,0,0-.9,3.5v3.3a7.5,7.5,0,1,0,15,0v-3.3a7.5,7.5,0,0,0-.9-3.5,63.1,63.1,0,0,0-13.2,0Z"/><path class="cls-3" d="M305.4,398.7V600.7H195.8l-2.7-1.1c0-108.4,67.1-116.5,67.1-116.5,6.7,0,11-8.6,13.8-21.7.5-2,.9-4.1,1.2-6.4s1.1-7.6,1.5-11.7c.2-2.4.5-4.9.7-7.5,1-12.4,1.3-25.9,1.3-38.7,0,0,14.8,1.4,26.7,1.4"/><path class="cls-4" d="M418.1,599.6l-2.6,1.2H305.4V398.7h.2c11.9,0,26.7-1.4,26.7-1.4,0,12.7.3,26,1.3,38.4l.7,7.3c.4,4.2.9,8.2,1.5,12h0c.2,1.7.6,3.3.9,4.8,2.8,14,7.3,23.4,14.2,23.4,0,0,67.1,8.1,67.1,116.5"/><g class="cls-5"><path class="cls-6" d="M335.9,459.9h0a35.5,35.5,0,0,1-30.4,16.6h-.2c-17.4-.1-27.6-12.8-30.2-16.5q.9-5.5,1.5-11.7c.2-2.4.5-4.9.7-7.5a119.3,119.3,0,0,0,27.6,3.6h.3a113.2,113.2,0,0,0,28.3-3.9l.7,7.3c.4,4.2.9,8.2,1.5,12"/></g><path class="cls-3" d="M305.7,171.9C189.6,171.9,189,269.3,194.1,333c-7.9-15.1-31.5-10.4-29.6,13.4s35.1,34.8,34.7,32.1c9.5,52.5,64.1,82.8,106.5,82.8h.9V171.9h-.9"/><path class="cls-7" d="M172,336.4c5.8-9.2,14.6-5.2,16.8-3.2s4.2,5.1,2.7,10.5c-.8,3.1-4,3.3-3.2,8s3.3,5.6,4.6,6.7,3.1,2.1,3.9,4.3a12,12,0,0,1,.5,6.6c-.9,3.8-6.4.8-10-.9s-10.1-7.6-12-9.8c-4.8-5.5-7.1-16.1-3.3-22.2"/><path class="cls-4" d="M306.3,171.9c116.1,0,116.8,97.4,111.6,161.1,7.9-15.1,31.5-10.4,29.6,13.4s-35.1,34.8-34.7,32.1c-9.5,52.5-64.1,82.8-106.5,82.8h-.9V171.9h.9"/><path class="cls-8" d="M440.1,336.4c-5.7-9.2-14.6-5.2-16.8-3.2s-4.2,5.1-2.7,10.5c.8,3.1,4,3.3,3.2,8s-3.2,5.6-4.7,6.7-3,2.1-3.9,4.3a11.6,11.6,0,0,0-.5,6.6c.9,3.8,6.3.8,10-.9s10.1-7.6,12-9.8c4.9-5.5,7.2-16.1,3.3-22.2"/><path class="cls-3" d="M304.7,199.4c-38.2,0-66.1,11.1-83.1,33.1-23.7,30.6-22.8,77.5-14,111.1,2.7,10.3,4,38,5.9,48.2,8.2,45.4,58.3,69.7,91.2,69.7h.9V199.4h-.9"/><path id="_Path_" data-name="&lt;Path&gt;" class="cls-9" d="M326.5,416.5c-3-.1-6.2,2-9.8,1.7h-.4a7.4,7.4,0,0,0-2.6.2,31.8,31.8,0,0,0-3.4.9,18.3,18.3,0,0,1-6,.8h-.2a18.3,18.3,0,0,1-6-.8,31.8,31.8,0,0,0-3.4-.9,7.4,7.4,0,0,0-2.6-.2h-.4c-3.7.3-6.8-1.8-9.8-1.7-.8.1-2.1-.1-2.7-.1l.5.2c8.7,3.6,16.2,10.3,24.5,10.1h.2c8.3.2,15.8-6.5,24.5-10.1l.5-.2C328.6,416.3,327.3,416.5,326.5,416.5Z"/><path class="cls-10" d="M329,416.3h0s-8.8-2.9-15.1-1.2a44.4,44.4,0,0,1-4.8,1.2,14.8,14.8,0,0,1-5,.6h0l-3.6-.3-1-.2h-1.4l-3.7-1c-6.3-1.7-15.1,1.2-15.1,1.2h-.2c.7,0,1.9.2,2.7.1,2.5-.1,5.1,1.3,7.9,1.7a74,74,0,0,0,10.6,1.6,15.4,15.4,0,0,0,3.7.2h2.3a42.2,42.2,0,0,0,12.3-1.8h0c2.8-.4,5.3-1.7,7.8-1.6.8.1,2.1-.1,2.7-.1Z"/><path id="_Path_2" data-name="&lt;Path&gt;" class="cls-11" d="M294.2,371.9c-.2-4.7,8.6-1.7,11.4-1.6s9.2-1.5,9.8-1.1c4.1,2.8-4.3,8.3-10,8.3C304,377.7,294.3,374.8,294.2,371.9Z"/><g id="_Group_" data-name="&lt;Group&gt;"><path id="_Path_3" data-name="&lt;Path&gt;" class="cls-12" d="M384.6,298.8l-1.2-.9a23.7,23.7,0,0,0-4.4-2.9,45.5,45.5,0,0,0-9-4,48.6,48.6,0,0,0-11.3-1.8,46.3,46.3,0,0,0-11.4,1.5,40.9,40.9,0,0,0-9.2,3.8,31.4,31.4,0,0,0-7.8,5.9h0a2.8,2.8,0,0,0-.1,3.6c.5.6,1,3.4,1.8,3.5h0a3,3,0,0,0,2.2-.6h0a46.3,46.3,0,0,1,7.1-4,48.8,48.8,0,0,1,7.9-3,38.8,38.8,0,0,1,9.6-1.6,43.1,43.1,0,0,1,9.8.4l1.5.3,3.2.6,2.6.7,1.4.5a47.1,47.1,0,0,1,5.1,1.8l1,.4h6.8Z"/></g><g id="_Group_2" data-name="&lt;Group&gt;"><path id="_Path_4" data-name="&lt;Path&gt;" class="cls-12" d="M227.6,299.6l1.2-.9a23.7,23.7,0,0,1,4.4-2.9,45.5,45.5,0,0,1,9-4,48.6,48.6,0,0,1,11.3-1.8,46.3,46.3,0,0,1,11.4,1.5,40.9,40.9,0,0,1,9.2,3.8,31.4,31.4,0,0,1,7.8,5.9h0a2.8,2.8,0,0,1,.1,3.6c-.5.6-1,3.4-1.8,3.5h0a3,3,0,0,1-2.2-.6h0a46.3,46.3,0,0,0-7.1-4,48.8,48.8,0,0,0-7.9-3,38.8,38.8,0,0,0-9.6-1.6,43.1,43.1,0,0,0-9.8.4l-1.5.3-3.2.6-2.6.7-1.4.5a47.1,47.1,0,0,0-5.1,1.8l-1,.4h-6.8Z"/></g><path class="cls-10" d="M227.5,315.4l-.2.3.4-.2Z"/><path id="_Path_5" data-name="&lt;Path&gt;" class="cls-13" d="M232,319.1s8.4,15.2,21.2,16.9,26.3-.3,26.3-.3-.4-14.8-7.1-17.3S250.7,312.5,232,319.1Z"/><path id="_Path_6" data-name="&lt;Path&gt;" class="cls-14" d="M268.4,325.4c-.6,6-6.1,10.4-12.4,9.9a10.8,10.8,0,0,1-10.3-11.6c.6-6,6.1-10.4,12.4-9.9S269,319.5,268.4,325.4Z"/><path id="_Path_7" data-name="&lt;Path&gt;" class="cls-15" d="M256.8,330.7a5.2,5.2,0,0,1-4.4-5.6,5.5,5.5,0,0,1,5.4-4.9,5.2,5.2,0,0,1,4.4,5.6A5.5,5.5,0,0,1,256.8,330.7Z"/><path id="_Path_8" data-name="&lt;Path&gt;" class="cls-16" d="M279.4,335.6h-.9c-.5-5.4-2.1-12.9-6.2-14.4-6.2-2.4-20-5.9-37.5,1.9A33.9,33.9,0,0,1,232,319c19.1-9.9,34.3-6.1,40.9-3.6S279.4,335.6,279.4,335.6Z"/><path id="_Path_9" data-name="&lt;Path&gt;" class="cls-13" d="M380.4,319.3s-7.9,14.8-20.6,16.1-26.3-1-26.3-1,1.4-14.6,8-16.9S360.7,312.6,380.4,319.3Z"/><path id="_Path_10" data-name="&lt;Path&gt;" class="cls-14" d="M341.5,324.4c.7,6.1,6.5,10.8,13.1,10.4s11.3-5.7,10.6-11.8-6.5-10.8-13.1-10.4S340.8,318.3,341.5,324.4Z"/><path id="_Path_11" data-name="&lt;Path&gt;" class="cls-15" d="M353.8,330a5.2,5.2,0,0,0,4.6-5.7,5.9,5.9,0,0,0-5.8-5.1,5.2,5.2,0,0,0-4.6,5.7A5.9,5.9,0,0,0,353.8,330Z"/><path id="_Path_12" data-name="&lt;Path&gt;" class="cls-17" d="M333.4,334.3l.9.2c.4-5.3,1.7-12.6,5.8-14.1,6.1-2.2,19.8-5.3,37.6,2.9a31.1,31.1,0,0,0,2.6-4c-19.4-10.3-34.5-6.9-41-4.6S333.4,334.3,333.4,334.3Z"/><path class="cls-18" d="M407.4,535.2c-18.9-47.6-56.3-52.2-56.3-52.2h-.6c-2.7-4.1-4.4-8.8-3.6-13.5s-9-5.4-9-5.4a7.8,7.8,0,0,0,.5,1.4c.1,1.5.9,5.1-2.3,7s-9,4.4-20,5.5l-3.2.3h-1l-6.1.2c-17.8,0-25.2-2.1-29.2-4.2-1.8-1-4.8-4.2-2.8-11.1,0,0-4.1-.7-9.1,2.7s3.2,5.9.2,10.3-2.4,4.5-4.5,6.8h-.1c-1.8.3-25.3,4-43.9,29.5-12.6,17.2-23,44.4-23,87.1l2.7,1.2H415.5l2.6-1.2C418.1,572.2,413.8,551.3,407.4,535.2Z"/><path class="cls-19" d="M425.3,250c.5-31.9-23.6-65.3-23.6-65.3l-.5,22.2c-.5,0-14.9-38.2-27.6-45.2a288.5,288.5,0,0,1-40-26.9L351,162.5l-37.7-38.3c.3,10.1,1.1,37.1.8,30-1.7-8.6-5-20.4-7.8-29.8-7.7,23.7-10.7,34.5-10.7,32.5s0-10.1-.3-22.7l-19.2,27L292,129.6c-14.9,16.7-39.7,18.1-50.3,37.4-8.1,14.8-12.4,11.7-21.6,25.5l12.1-24.3s-29.5,25.5-37.7,47.7c-2.8,7.6-11.9,23.5-8.7,60.5,2.8,32.4,5.3,36.6,14.4,59.8,3.2,9.4,5.9,14,5.9,13.7s.6,1,.7.8c2.5-6-2-71.1-1.1-73.3,4.4-10.2,27.5-34.9,28.3-35.3,5.5-3.1,38.9-4.6,72.5-4.7s66.9,1.6,72.5,4.7c.7.4,22.5,25.2,26.9,35.3.9,2.1-.8,73.2-.4,72.5a4.5,4.5,0,0,0,.2.8c.3.6,2.5-5.1,5.7-14.5C425.3,300.8,424.6,297.7,425.3,250Z"/><path class="cls-20" d="M308.2,516.7c16.8,0,43.5-6.1,51.8-31.2-5.9-2.3-5.9-1.9-9.5-2.5-5.9,15.1-26.2,23-43.4,23s-40.7-7.9-46.7-23c-5.3,1.2-3.7.5-11.2,3.3A174.4,174.4,0,0,0,262,502.7C277,515.4,290.3,516.7,308.2,516.7Z"/></svg>