<svg id="Layer_1" data-name="Layer 1" xmlns="http://www.w3.org/2000/svg" xmlns:xlink="http://www.w3.org/1999/xlink" viewBox="0 0 612 792"><defs><style>.cls-1{fill:none;}.cls-2{fill:#e29f26;}.cls-3{fill:#e5c6a8;}.cls-4{fill:#f2d1ac;}.cls-5,.cls-7,.cls-8{fill:#c09a80;}.cls-5{opacity:0.7;}.cls-6{clip-path:url(#clip-path);}.cls-8{opacity:0.6;}.cls-9{fill:#c6696e;}.cls-10{fill:#d87373;}.cls-11{fill:#fff;}.cls-12{fill:#0799c4;}.cls-13{fill:#142026;}.cls-14{fill:#74624f;}.cls-15{fill:#34af9a;}</style><clipPath id="clip-path"><rect class="cls-1" x="257.3" y="446.1" width="63.9" height="34.13"/></clipPath></defs><title>OOW II - Final avatars</title><path class="cls-2" d="M355.7,184.3c20.4-11.6,52.8-3.3,65.8,17s-.4,42.7,14.4,63.6c12.8,18,30.5,41.8,23.4,65.4-5.5,18.4-23.4,57.2-47.1,50.1-6.3-1.9-12.9-11.2-17.6-15.4-9.8-8.7-22.1-17.4-30-27.7-10.8-14.1-17.8-38.6-12.2-55.2,7.5-22,20.6-29.5,9.9-50.8-7.1-14.1-12.9-28.7-7.3-43.8"/><path class="cls-3" d="M292.5,398.4v200h-112l-2.7-1.2c0-29.7,5.1-51.9,12.5-68.3,12.2-27.1,30.6-38.7,42.5-43.5a46.6,46.6,0,0,1,11.6-3.4h.5l1.4-.3c5.5-1.6,9.2-9.6,11.7-21.2.5-2.1.8-4,1.1-6.2s1.1-7.6,1.5-11.7c.2-2.4.5-4.8.7-7.3,1-12.3,1.3-25.7,1.3-38.3C262.7,397,280.7,398.4,292.5,398.4Z"/><path class="cls-4" d="M400.9,597.2a18.1,18.1,0,0,0-2.6,1.2H289.1v-200h.2c11.8,0,26.5-1.4,26.5-1.4,0,12.6.3,25.8,1.3,38l.7,7.2c.5,4.2.9,8.2,1.5,11.8v.2c.2,1.7.5,3.2.9,4.7,2.3,11.2,5.6,19.4,10.5,22.2l1.1.5a6.6,6.6,0,0,0,2.4.4s33.6,4,53.1,44.8C395.3,543.4,400.9,566.1,400.9,597.2Z"/><path class="cls-5" d="M319.4,443.1h0a35.2,35.2,0,0,1-30.1,16.4h-.1c-17.3-.1-27.4-12.7-30-16.3.6-3.7,1.1-7.5,1.5-11.6l.7-7.4a119.3,119.3,0,0,0,27.4,3.6h.3a113.5,113.5,0,0,0,28.1-3.9l.7,7.2C318.3,435.4,318.8,439.3,319.4,443.1Z"/><g class="cls-6"><path class="cls-7" d="M321.2,464.5h0c-2.8,4.1-12.6,15.7-31.9,15.7h-.2c-18.3-.1-29-12.1-31.8-15.6.7-3.5,1.2-7.2,1.6-11.1.3-2.3.5-4.7.7-7.1a142.7,142.7,0,0,0,29.1,3.4h.3a129.7,129.7,0,0,0,29.8-3.8l.7,6.9c.5,4,.9,7.8,1.6,11.4"/></g><path class="cls-3" d="M289,191.5c-113.5-.2-114.1,91-109.1,150.4-7.8-14-22.5-9.3-20.6,13s26,31.7,25.6,29.3c9.3,48.4,62.8,75.3,104.1,79.2h.9V191.5Z"/><path class="cls-7" d="M163.9,347c3.1-6.6,8.4-3.4,9.7-1.9s2.6,3.9,1.9,7.9c-.4,2.2-2.2,2.3-1.7,5.8s2.1,4.2,2.9,5.1a8.6,8.6,0,0,1,2.4,3.3,10.9,10.9,0,0,1,.5,4.9c-.4,2.8-3.7.4-5.9-1s-6.1-5.9-7.3-7.6C163.4,359.3,161.8,351.4,163.9,347Z"/><path class="cls-4" d="M289.6,191.5c113.5-.2,114.1,91,109.1,150.4,7.8-14,21.1-9.1,19.2,13.2s-24.6,31.4-24.2,29.1c-9.3,48.4-62.8,75.3-104.1,79.2h-.9V191.5Z"/><path class="cls-8" d="M411.2,346.8c-3.6-7.4-8.4-4.7-9.6-3.2s-2.1,3.8-1.1,8.1c.6,2.4,2.4,2.7,2.1,6.3s-1.6,4.2-2.4,5.1a6.7,6.7,0,0,0-2.1,3.2,12.2,12.2,0,0,0,0,5.1c.6,3,3.6.9,5.6-.3s5.4-5.5,6.4-7.2C412.8,359.8,413.7,351.7,411.2,346.8Z"/><path class="cls-3" d="M288.5,198.3c-37.9,0-65.6,10.4-82.4,31.1-23.4,28.8-22.5,72.8-13.9,104.4,2.6,9.7,4,35.7,5.8,45.2,8.2,42.7,57.8,65.5,90.5,65.5h.9V198.3Z"/><path class="cls-4" d="M370.7,229.4c-16.7-20.5-44.1-30.9-81.4-31.1V444.4c37.3-.4,81.9-25.3,89.6-65.4,1.8-9.6,3.2-35.6,5.8-45.2C393.4,302.3,394.2,258.3,370.7,229.4Z"/><path class="cls-9" d="M314.8,411.2s-11.7,14.2-26.1,14.2-25.4-13.9-25.4-13.9a146.7,146.7,0,0,1,25.4-2.2A186,186,0,0,1,314.8,411.2Z"/><path class="cls-10" d="M296.1,404.7c-4.1,0-7.3,2.9-7.4,6.4-.1-3.6-3.3-6.4-7.4-6.4s-18.7,6.5-18.7,6.5,14.2,1.7,18.3,1.7,7.6,1.8,7.7-1.6c.1,3.5,3,2.1,7,2.1s19-2.2,19-2.2S300.2,404.7,296.1,404.7Z"/><path id="_Path_" data-name="&lt;Path&gt;" class="cls-7" d="M277.4,367.2c-.2-3.2,8.7-1.2,11.6-1.1s9.4-1,10-.7c4.1,1.9-4.4,5.8-10.1,5.8C287.3,371.1,277.6,369.1,277.4,367.2Z"/><path id="_Path_2" data-name="&lt;Path&gt;" class="cls-11" d="M210.6,309.8s9.4,18.6,23.6,20.5,29.5-.6,29.5-.6-.7-18.2-8.2-21.3S233.4,303.1,210.6,309.8Z"/><path id="_Path_3" data-name="&lt;Path&gt;" class="cls-12" d="M251.5,317.3a13.3,13.3,0,0,1-14,12.2A12.7,12.7,0,0,1,226,315.4a13.3,13.3,0,0,1,14-12.3A12.7,12.7,0,0,1,251.5,317.3Z"/><path id="_Path_4" data-name="&lt;Path&gt;" class="cls-13" d="M238.3,323.8c-2.6-.2-5.3-3.2-4.9-6.9s3.5-6.2,6.1-6,5.3,3.2,4.9,6.9S241,324,238.3,323.8Z"/><path id="_Path_5" data-name="&lt;Path&gt;" class="cls-7" d="M263.8,329.7l-1,.2c-.6-6.6-2.2-15.7-6.9-17.6-6.9-2.9-22.4-7.1-42.2,2.6a41.2,41.2,0,0,1-3.1-5.1c21.5-12.3,38.5-7.7,45.9-4.7S263.8,329.7,263.8,329.7Z"/><path id="_Path_6" data-name="&lt;Path&gt;" class="cls-11" d="M366.9,312.3s-9,18.2-23.3,19.9-29.5-1-29.5-1,1.7-17.4,9.1-20.3S345,303.1,366.9,312.3Z"/><path id="_Path_7" data-name="&lt;Path&gt;" class="cls-12" d="M323.3,319a13.8,13.8,0,0,0,14.6,12.6,13.2,13.2,0,0,0,12-14.6,13.9,13.9,0,0,0-14.6-12.7A13.1,13.1,0,0,0,323.3,319Z"/><path id="_Path_8" data-name="&lt;Path&gt;" class="cls-13" d="M337,325.7c2.7-.2,5.5-3.2,5.2-7.1s-3.7-6.4-6.4-6.2-5.5,3.3-5.2,7.1S334.3,325.9,337,325.7Z"/><path id="_Path_9" data-name="&lt;Path&gt;" class="cls-7" d="M314.1,331.1l1,.2c.5-6.5,2-15.5,6.6-17.3,6.9-2.7,22.3-6.7,42.2,3.2a39.4,39.4,0,0,0,3-5c-21.7-12.5-38.7-8.2-46-5.3S314.1,331.1,314.1,331.1Z"/><g id="_Group_" data-name="&lt;Group&gt;"><path id="_Path_10" data-name="&lt;Path&gt;" class="cls-14" d="M258.3,293.3a31.2,31.2,0,0,0-7.4-6.3,45.3,45.3,0,0,0-9.2-4.6,55.8,55.8,0,0,0-11.9-2.7,60.4,60.4,0,0,0-12.2.3,54.3,54.3,0,0,0-9.9,2.5,27.4,27.4,0,0,0-5.1,2.1l-1.4.7-6.3,3.3,7.3-1.4,1.1-.2c1.5-.3,3.4-.7,5.6-1l1.6-.2,2.9-.3,3.4-.2h1.5a53.1,53.1,0,0,1,10.5.8,46.2,46.2,0,0,1,9.8,2.6,55.1,55.1,0,0,1,8,3.7,48.9,48.9,0,0,1,7,4.5h0a3.5,3.5,0,0,0,2.3.8,3.6,3.6,0,0,0,1.7-.4,2.4,2.4,0,0,0,.9-3.6Z"/><path id="_Path_11" data-name="&lt;Path&gt;" class="cls-14" d="M376.3,286l-1.4-.7a27.2,27.2,0,0,0-5-2.1,54.7,54.7,0,0,0-10-2.5,60.2,60.2,0,0,0-12.2-.3,55.9,55.9,0,0,0-11.9,2.7,45.9,45.9,0,0,0-9.2,4.6,31.3,31.3,0,0,0-7.4,6.3h0a2.3,2.3,0,0,0,.4,3.3,3.5,3.5,0,0,0,2.2.8h0a3.5,3.5,0,0,0,2.2-.8h0a49.1,49.1,0,0,1,7-4.5,55.2,55.2,0,0,1,7.9-3.6,46.5,46.5,0,0,1,9.9-2.6,53.3,53.3,0,0,1,10.4-.8h1.6l3.4.2,2.8.3,1.6.2c2.2.3,4.1.7,5.6,1l1.1.2,7.3,1.4Z"/></g><path class="cls-2" d="M228.2,163.6s-98.7,31.7-56,150.7c0,0,6.4-95.9,70.3-96.6Z"/><path class="cls-2" d="M229.3,194.3s18.8,57.4,107.6,87.7c0,0,43.5,8.4,52.6,36.3,0,0,27.1-87-.8-131.2,0,0-67.3-96.2-159.4-27.5C229.3,159.6,212.4,166.1,229.3,194.3Z"/><path class="cls-15" d="M172.1,600.8c0-83,41.4-107.5,61.1-114.5,12.8,13.4,38.2,31.8,57.8,32.7h1c19.7-.9,45.1-19.4,57.9-32.8,19.6,6.9,61.2,31.3,61.2,114.6"/><path class="cls-2" d="M181.6,271.1s-16.1,180.5,50.4,234.3c0,0-78.3-31.8-55.8-234.3Z"/><path class="cls-2" d="M392.9,271.1S409,451.7,342.5,505.5c0,0,78.3-31.8,55.8-234.3Z"/></svg>