<svg id="Layer_1" data-name="Layer 1" xmlns="http://www.w3.org/2000/svg" xmlns:xlink="http://www.w3.org/1999/xlink" viewBox="0 0 612 792"><defs><style>.cls-1{fill:none;}.cls-2{fill:#425352;}.cls-3{fill:#e2bf9c;}.cls-4{fill:#f2d1ac;}.cls-5{fill:#e5c4a3;}.cls-6,.cls-7{fill:#c09a80;}.cls-7{opacity:0.6;}.cls-8{clip-path:url(#clip-path);}.cls-9{fill:#b6957d;}.cls-10{fill:#617575;}.cls-11{fill:#d3b497;}.cls-12{fill:#c69f83;}.cls-13{fill:#fff;}.cls-14{fill:#5888a0;}.cls-15{fill:#142026;}.cls-16{fill:#d6b699;}.cls-17{fill:#da6e27;}.cls-18{fill:#607575;}.cls-19{fill:#84a3a3;}</style><clipPath id="clip-path"><polygon class="cls-1" points="273.2 469.6 334.6 469.6 334.6 433.6 272.4 434.2 273.2 469.6"/></clipPath></defs><title>OOW II - Final avatars</title><path class="cls-2" d="M304.2,200.3c-173.5,8.6-142.8,163-142.8,163s20.2,31.1,44.5,65.3c22.7,31.9,46.2,76.4,98.3,65.8,45.6,8.6,80-23.5,98.3-63.7A275.3,275.3,0,0,1,447,363.2S477.7,208.9,304.2,200.3Z"/><path class="cls-3" d="M303.7,395.2V600.7H192.3l-2.8-1.2c0-110.2,68.2-118.4,68.2-118.4,6.8,0,11.2-8.8,14.1-22.1.5-2.1.8-4.2,1.2-6.5s1.2-7.7,1.6-11.9c.2-2.5.5-5,.7-7.6,1-12.6,1.3-26.3,1.3-39.3,0,0,15,1.5,27.1,1.5"/><path class="cls-4" d="M418.3,599.5l-2.7,1.2H303.7V395.2h.2c12.1,0,27.2-1.5,27.2-1.5,0,12.9.3,26.5,1.3,39,.2,2.5.5,5,.7,7.5.5,4.3.9,8.4,1.5,12.2h0c.2,1.7.5,3.3.9,4.9,2.9,14.2,7.4,23.8,14.4,23.8,0,0,68.2,8.2,68.2,118.4"/><path class="cls-5" d="M302.1,159.6c-118,0-118.7,99.1-113.4,163.9-8.1-15.4-32-10.6-30.1,13.6s35.7,35.3,35.3,32.6c9.7,53.4,65.2,84.2,108.3,84.2h.9V159.6h-.9"/><path class="cls-6" d="M166.2,326.8c5.8-9.4,14.8-5.3,17.1-3.3s4.2,5.2,2.7,10.8c-.8,3.1-4.1,3.3-3.3,8.1s3.3,5.7,4.7,6.8,3.1,2.2,4,4.4a11.8,11.8,0,0,1,.5,6.6c-.9,3.8-6.5.8-10.2-.9s-10.2-7.7-12.2-10c-4.9-5.6-7.2-16.4-3.3-22.6"/><path class="cls-4" d="M302.7,159.6c118,0,118.7,99.1,113.4,163.9,8.1-15.4,32-10.6,30.1,13.6s-35.7,35.3-35.3,32.6c-9.7,53.4-65.2,84.2-108.3,84.2h-.9V159.6h.9"/><path class="cls-7" d="M438.7,326.8c-5.8-9.4-14.8-5.3-17.1-3.3s-4.2,5.2-2.7,10.8c.8,3.1,4.1,3.3,3.3,8.1s-3.3,5.7-4.7,6.8-3.1,2.2-4,4.4a11.8,11.8,0,0,0-.5,6.6c.9,3.8,6.4.8,10.2-.9s10.2-7.7,12.2-10c5-5.6,7.2-16.4,3.4-22.6"/><g class="cls-8"><path class="cls-9" d="M334.6,453h0a36,36,0,0,1-30.7,16.6h-.2c-17.6-.1-27.9-12.8-30.5-16.5q.9-5.5,1.5-11.7c.2-2.4.5-4.9.7-7.5a122.1,122.1,0,0,0,28,3.6h.3a115.8,115.8,0,0,0,28.6-3.9l.7,7.3c.4,4.2.9,8.2,1.5,12"/></g><path class="cls-5" d="M303.1,187.5c-38.9,0-67.3,11.3-84.5,33.6-24,31.2-23.1,78.8-14.2,112.9,2.7,10.5,4.1,38.6,6,49,8.4,46.2,59.3,70.8,92.8,70.8h.9V187.5h-.9"/><path class="cls-4" d="M387.3,221.2c-17.1-22.2-45.2-33.5-83.4-33.7V453.8c38.3-.4,84-27.4,91.8-70.8,1.8-10.4,3.2-38.5,6-49,8.8-34.1,9.7-81.6-14.4-112.9"/><path class="cls-10" d="M418.4,599.6l-2.7,1.2H192.2l-2.8-1.2c0-84,39.7-108.7,58.5-115.8,12.3,13.6,36.6,32.2,55.4,33.1h.9c18.9-.9,43.2-19.6,55.5-33.2,18.8,7,58.7,31.6,58.7,115.8"/><path id="_Path_" data-name="&lt;Path&gt;" class="cls-6" d="M292.1,365.3c-.2-4.7,8.7-1.7,11.6-1.6s9.4-1.5,10-1.1c4.2,2.8-4.4,8.5-10.1,8.5C302.1,371.1,292.3,368.2,292.1,365.3Z"/><path id="_Path_2" data-name="&lt;Path&gt;" class="cls-11" d="M329.6,402.9c-3.5-.2-7,2.9-11.2,2.4H318a6.7,6.7,0,0,0-2.9.3,30.3,30.3,0,0,0-3.8,1.3,16.7,16.7,0,0,1-6.8,1.1h-.3a16.7,16.7,0,0,1-6.8-1.1,30.3,30.3,0,0,0-3.8-1.3,6.7,6.7,0,0,0-2.9-.3h-.4c-4.2.5-7.7-2.6-11.2-2.4-1,.1-2.3-.2-3.1-.2l.5.3c9.9,5.2,18.4,14.8,27.8,14.5h.3c9.4.3,17.9-9.3,27.8-14.5l.5-.3C331.9,402.8,330.6,403,329.6,402.9Z"/><path class="cls-12" d="M332.5,402.6h0s-10-4.1-17.2-1.7a42.3,42.3,0,0,1-5.4,1.8,13.5,13.5,0,0,1-5.7.8h0a29.4,29.4,0,0,1-4.1-.5l-1.2-.2h-.4l-.7-.2h-.4a44.9,44.9,0,0,1-4.2-1.5c-7.1-2.4-17.2,1.7-17.2,1.7h-.2c.8,0,2.2.3,3.1.2,2.8-.1,5.8,1.9,9,2.4a67.9,67.9,0,0,0,12,2.3,13.9,13.9,0,0,0,4.2.3h2.6a38.7,38.7,0,0,0,14-2.6h0c3.2-.5,6-2.5,8.8-2.4,1,.1,2.3-.2,3.1-.2Z"/><path id="_Path_3" data-name="&lt;Path&gt;" class="cls-1" d="M220.9,303.6s9,17.9,22.8,19.8,28.5-.6,28.5-.6.2-20.8-7-23.7S241.6,291.8,220.9,303.6Z"/><path id="_Path_4" data-name="&lt;Path&gt;" class="cls-1" d="M383.1,304.7s-8.7,17.6-22.5,19.2-28.5-1-28.5-1-.5-20.5,6.6-23.3S362.2,292.7,383.1,304.7Z"/><path id="_Path_5" data-name="&lt;Path&gt;" class="cls-13" d="M220.9,303.2s9.6,19,24.2,21,30.2-.6,30.2-.6.2-22-7.4-25.1S242.9,290.6,220.9,303.2Z"/><path id="_Path_6" data-name="&lt;Path&gt;" class="cls-14" d="M262.8,310.9a13.6,13.6,0,0,1-14.3,12.6A13,13,0,0,1,236.7,309c.7-7.5,7.1-13.1,14.3-12.6A13,13,0,0,1,262.8,310.9Z"/><path id="_Path_7" data-name="&lt;Path&gt;" class="cls-15" d="M249.4,317.6c-2.7-.2-5.4-3.2-5.1-7s3.6-6.4,6.3-6.2,5.4,3.2,5.1,7S252.1,317.8,249.4,317.6Z"/><path id="_Path_8" data-name="&lt;Path&gt;" class="cls-16" d="M275.4,323.5l-1.1.2c-.6-6.8-2.3-16.1-7-18-7.1-2.9-22.9-7.2-43.2,2.7a42.3,42.3,0,0,1-3.1-5.2c22.1-12.6,39.5-7.9,47.1-4.8S275.4,323.5,275.4,323.5Z"/><path id="_Path_9" data-name="&lt;Path&gt;" class="cls-13" d="M384.2,304.4s-9.3,18.7-23.9,20.4-30.3-1.1-30.3-1.1-.6-21.8,7-24.7S361.9,291.6,384.2,304.4Z"/><path id="_Path_10" data-name="&lt;Path&gt;" class="cls-14" d="M339.4,311.2a14.2,14.2,0,0,0,14.9,13,13.5,13.5,0,0,0,12.3-14.9,14.2,14.2,0,0,0-14.9-13A13.5,13.5,0,0,0,339.4,311.2Z"/><path id="_Path_11" data-name="&lt;Path&gt;" class="cls-15" d="M353.5,318.1c2.8-.2,5.6-3.3,5.3-7.2s-3.8-6.6-6.6-6.4-5.6,3.3-5.3,7.2S350.7,318.3,353.5,318.1Z"/><path id="_Path_12" data-name="&lt;Path&gt;" class="cls-3" d="M330,323.6l1.1.2c.5-6.7,2-15.9,6.8-17.7,7-2.8,22.8-6.8,43.3,3.3a40.4,40.4,0,0,0,3.1-5.1c-22.3-12.8-39.6-8.4-47.2-5.5S330,323.6,330,323.6Z"/><g id="_Group_" data-name="&lt;Group&gt;"><path id="_Path_13" data-name="&lt;Path&gt;" class="cls-17" d="M276.1,293.2a26.1,26.1,0,0,0-5.7-5.8,32.5,32.5,0,0,0-7-4.2,36.4,36.4,0,0,0-9.1-2.5,38.1,38.1,0,0,0-9.3.3,35.7,35.7,0,0,0-7.6,2.3,19.1,19.1,0,0,0-3.9,2l-1.1.6-4.8,3,5.6-1.3.8-.2a36.9,36.9,0,0,1,4.3-.9l1.2-.2,2.2-.3,2.6-.2h1.2a33.6,33.6,0,0,1,8,.7,30.4,30.4,0,0,1,7.5,2.4,39.1,39.1,0,0,1,6.1,3.4,37.7,37.7,0,0,1,5.3,4.2h0a2.4,2.4,0,0,0,1.7.7,2.4,2.4,0,0,0,1.3-.4,2.4,2.4,0,0,0,.7-3.3Z"/><path id="_Path_14" data-name="&lt;Path&gt;" class="cls-17" d="M373.2,282.2l-1.1-.6a19,19,0,0,0-3.8-1.9,35.9,35.9,0,0,0-7.7-2.3,37.9,37.9,0,0,0-9.3-.2,36.4,36.4,0,0,0-9.1,2.5,33,33,0,0,0-7,4.2,26.1,26.1,0,0,0-5.7,5.8h0a2.5,2.5,0,0,0,.3,3.1,2.4,2.4,0,0,0,1.7.7h0a2.4,2.4,0,0,0,1.7-.7h0a37.9,37.9,0,0,1,5.3-4.2,39.2,39.2,0,0,1,6.1-3.4,30.6,30.6,0,0,1,7.6-2.4,33.7,33.7,0,0,1,7.9-.7h1.2l2.6.2,2.2.3,1.2.2a37,37,0,0,1,4.3.9l.8.2,5.6,1.3Z"/></g><path class="cls-17" d="M418.5,314.7a26.4,26.4,0,0,0-6.8,10c-3.7,9.7-5.1,8-5.1,8s5.8-38,5.8-48.5-33.2-63.9-51.7-70.2-35.2,14.8-55.1,14.8h-1.6c-19.5-.4-36.8-20.9-55.1-14.8s-51.6,59.7-51.6,70.2,5.8,48.5,5.8,48.5-1.4,1.7-5.1-8c-2.1-5.7-7.4-8.2-10.1-10.5-4.9-65.8-.2-163.2,115.9-163.2h.6c116.8,0,119,98,113.9,163.7"/><path class="cls-18" d="M399.3,191.9c-22.6-36.1-53.8-58.6-96.5-58.6s-71.7,23.1-94.3,59.2c-20.6,32.9-30.5,40.5-46.2,86.3,12.2-22.9,56.8-69.9,142.2-69.9s132.2,46.8,144.6,69.9C433.4,233,419.9,224.8,399.3,191.9Z"/><path class="cls-19" d="M290.5,582.5c0-21.7-3.6-31.4-11.5-51.2-16-40.4-41.8-74.1-64.6-103.8-21-27.5-39.2-51.2-46.4-74.7-8.1-26.3-1.6-57.3,17.2-82.8,14.8-20,50.1-53.5,120.7-53.5S412,250,426.7,270c18.9,25.5,25.3,56.5,17.2,82.8-7.2,23.6-25.4,47.3-46.4,74.7C374.8,457.2,349,490.9,333,531.3c-7.9,19.8-11.8,34.6-11.8,56.3h0a7.6,7.6,0,1,0,15.1,0h0c0-19.8,3.5-32.7,10.7-50.7,15.3-38.4,40.4-71.2,62.5-100.2,21-27.4,40.8-53.3,48.9-79.5,9.5-30.9,2.2-66.9-19.5-96.2-16.5-22.3-55.6-59.6-132.9-59.6S189.6,238.7,173.1,261c-21.7,29.4-29,65.3-19.5,96.2,8,26.2,27.9,52.1,48.9,79.5,22.2,28.9,47.3,61.7,62.5,100.2,7.2,18,9.4,26.8,10.4,46.4h0c0,4.2,4.2,7.7,8.3,7.7s6.8-4.3,6.8-8.4"/></svg>