<svg id="Layer_1" data-name="Layer 1" xmlns="http://www.w3.org/2000/svg" xmlns:xlink="http://www.w3.org/1999/xlink" viewBox="0 0 612 792"><defs><style>.cls-1{fill:none;}.cls-2{fill:#e9caab;}.cls-3{fill:#f2d1ac;}.cls-4{clip-path:url(#clip-path);}.cls-5,.cls-6{fill:#c09a80;}.cls-6{opacity:0.6;}.cls-7{fill:#3a2817;}.cls-8{fill:#51341e;}.cls-9{fill:#d3b497;}.cls-10{fill:#c69f83;}.cls-11{fill:#fff;}.cls-12{fill:#483a15;}.cls-13{fill:#142026;}.cls-14{fill:#d6b699;}.cls-15{fill:#e2bf9c;}.cls-16{fill:#231f20;}.cls-17{fill:#7dcceb;}.cls-18{fill:#68bee1;}</style><clipPath id="clip-path"><rect class="cls-1" x="277.2" y="433.9" width="61.4" height="36.33"/></clipPath></defs><title>OOW II - Final avatars</title><path class="cls-2" d="M307.8,396.7V600.8H197l-2.8-1.2c0-84.2,40.1-108.5,58.7-115.2a44.6,44.6,0,0,1,9.2-2.5c6.8,0,11.1-8.7,14-21.9.4-2,.8-4.1,1.2-6.4s1.1-7.7,1.6-11.8c.1-2.5.5-5,.7-7.6,1-12.6,1.3-26.2,1.3-39.1,0,0,14.9,1.5,27,1.5"/><path class="cls-3" d="M421.7,599.6a19.9,19.9,0,0,0-2.6,1.2H307.8V396.7h.2c12.1,0,27.1-1.5,27.1-1.5,0,12.9.2,26.3,1.3,38.8.2,2.5.5,4.9.7,7.3.5,4.4.8,8.4,1.5,12.2h0c.3,1.7.5,3.3.9,4.8,2.9,14,7.4,23.5,14.4,23.5a53.1,53.1,0,0,1,13.9,4.4c19.9,9.1,53.9,35.9,53.9,113.4"/><g class="cls-4"><path class="cls-5" d="M338.6,453.4h0a35.8,35.8,0,0,1-30.7,16.7h-.2c-17.6-.1-27.9-12.9-30.5-16.7.6-3.7,1.2-7.7,1.5-11.8.2-2.5.5-5,.7-7.5a123.3,123.3,0,0,0,28,3.6h.3a115.1,115.1,0,0,0,28.6-3.9c.2,2.5.5,4.9.7,7.4.5,4.3.9,8.4,1.6,12.2"/></g><path class="cls-2" d="M305.7,162.5c-117.4,0-118,98.4-112.8,162.8-8-15.2-31.9-10.5-29.9,13.5s35.5,35.1,35.1,32.5c9.7,53,64.9,83.6,107.7,83.6h.9V162.5h-.9"/><path class="cls-5" d="M170.5,328.6c5.8-9.3,14.7-5.3,17-3.2s4.2,5.1,2.7,10.6c-.8,3.1-4,3.3-3.2,8s3.3,5.6,4.7,6.8,3.1,2.1,4,4.3a11.9,11.9,0,0,1,.5,6.6c-.9,3.8-6.5.8-10.1-.9s-10.2-7.7-12.1-9.9c-4.9-5.6-7.2-16.3-3.3-22.5"/><path class="cls-3" d="M306.3,162.5c117.4,0,118,98.4,112.8,162.8,8-15.2,31.9-10.5,29.9,13.5s-35.5,35.1-35.1,32.5c-9.6,53-64.8,83.6-107.7,83.6h-.9V162.5h.9"/><path class="cls-6" d="M441.6,328.6c-5.8-9.3-14.8-5.3-17-3.2s-4.2,5.1-2.7,10.6c.8,3.1,4.1,3.3,3.3,8s-3.3,5.6-4.7,6.8-3.1,2.1-4,4.3a11.5,11.5,0,0,0-.5,6.6c.9,3.8,6.4.8,10.1-.9s10.2-7.7,12.1-9.9c4.9-5.6,7.2-16.3,3.4-22.5"/><path class="cls-2" d="M307,190.2c-38.6,0-66.9,11.2-84,33.4-23.9,31-23,78.3-14.2,112.2,2.7,10.4,4.1,38.4,5.9,48.6,8.3,46,58.9,70.4,92.2,70.4h.9V190.3H307"/><path class="cls-3" d="M390.9,223.7c-17-22-44.9-33.2-82.9-33.4V454.8c38-.4,83.5-27.2,91.3-70.3,1.9-10.2,3.2-38.2,5.9-48.6,8.8-33.8,9.6-81.1-14.3-112.2"/><path class="cls-1" d="M344.6,209.8s-8.3-6.8-23.5-11.1A139,139,0,0,1,344.6,209.8Z"/><path class="cls-1" d="M201.6,278.7a63.1,63.1,0,0,0-2.2,11.1,162.6,162.6,0,0,1,4.9-15.6A21.3,21.3,0,0,0,201.6,278.7Z"/><path class="cls-7" d="M272.4,198.9l-.5.5h0Z"/><path class="cls-8" d="M437.2,255.4a28.6,28.6,0,0,0-2.5-4.6c-2.3-16.2-14.2-48.6-25.9-64.9s-42-31.9-80.3-36.4S256.9,171,256.9,171s-5.9-8.5-11-11-19.6.5-19.6.5,9.9,2.7,11.8,5.2a9.8,9.8,0,0,1,2,9.1s-11.5-4.8-16.6-4.9c-9.3-.3-19.7,11.1-19.7,11.1s8.7-5.9,17-5.7c2.7.1,10.3,3.5,10.3,3.5s-13.7,1.4-39.4,28.4c-19.4,20.4-19.4,47.4-19.4,47.4l16.3-9a41.4,41.4,0,0,0-6.3,9.7c-12,28.6,4.4,57.4,4.4,57.4s5.4.5,10.2,11.5c6.6,14.9,10.8,33.4,10.8,33.4h5.7s-12.3-46.1-4-71.2c2.3-6.9,8.5-21.1,17.1-21.6,0,0,5.7-4.8,8.2-14.3s15.7-25.4,22.8-28.3,11.2,1.5,11.2,1.5,11.2-8.5,31.5-11.9,31.4,17.4,35.9,28.4,2.1,16.4,2.1,16.4,8.7-13.4,7.6-26.9a32,32,0,0,0-2.3-10.2c2.6,1.3,14.2,4.4,16.6,33.2,1.1,13.6-11.7,22.9-11.7,22.9s28.5-11.3,22.6-46.3c6.1,6.3,12.3,15.2,14,21.4,2.5,9.5,23.9,31.5,25.3,35.9,8.3,25.1-4,71.2-4,71.2h5.7s4.1-18.5,10.8-33.4c4.9-11,10.2-11.5,10.2-11.5S449.2,284,437.2,255.4Zm-96.8-41-.4-.6.5.5Z"/><path id="_Path_" data-name="&lt;Path&gt;" class="cls-9" d="M332,404.4c-3.4-.1-6.9,2.3-11.1,1.9h-.4a8.3,8.3,0,0,0-2.9.2,35.8,35.8,0,0,0-3.8,1,20.6,20.6,0,0,1-6.8.9h-.3a20.6,20.6,0,0,1-6.8-.9,35.8,35.8,0,0,0-3.8-1,8.3,8.3,0,0,0-2.9-.2h-.4c-4.1.4-7.6-2-11.1-1.9-.9.1-2.3-.1-3.1-.1l.5.2c9.8,4,18.2,11.6,27.5,11.3h.3c9.3.2,17.8-7.3,27.5-11.3l.5-.2C334.3,404.2,332.9,404.4,332,404.4Z"/><path class="cls-10" d="M334.8,404.1h0s-9.9-3.2-17-1.3a49.9,49.9,0,0,1-5.4,1.4,16.7,16.7,0,0,1-5.6.6h0l-4.1-.4-1.2-.2h-1.5c-2.3-.5-4.2-1.2-4.2-1.2-7.1-1.9-17,1.3-17,1.3h-.2c.8,0,2.1.2,3.1.1,2.8-.1,5.7,1.5,8.9,1.9a83.2,83.2,0,0,0,11.9,1.8,17.4,17.4,0,0,0,4.1.3h2.6a47.5,47.5,0,0,0,13.9-2.1h0c3.2-.4,6-2,8.8-1.8.9.1,2.3-.1,3.1-.1Z"/><path id="_Path_2" data-name="&lt;Path&gt;" class="cls-11" d="M216.8,300.8s10.9,21.7,27.7,24,34.5-.7,34.5-.7-1-22.3-9.7-25.8S241.6,289.6,216.8,300.8Z"/><path id="_Path_3" data-name="&lt;Path&gt;" class="cls-12" d="M264.7,309.6c-.8,8.5-8.1,14.9-16.3,14.3s-14.3-8-13.5-16.5,8.1-15,16.3-14.4A14.9,14.9,0,0,1,264.7,309.6Z"/><path id="_Path_4" data-name="&lt;Path&gt;" class="cls-13" d="M249.3,317.2c-3.1-.2-6.2-3.7-5.8-8s4.1-7.3,7.2-7.1,6.2,3.7,5.8,8S252.4,317.4,249.3,317.2Z"/><path id="_Path_5" data-name="&lt;Path&gt;" class="cls-14" d="M279,324l-1.2.2c-.7-7.7-2.6-18.4-8-20.6-8.1-3.4-26.2-8.3-49.3,3a48.3,48.3,0,0,1-3.6-5.9c25.2-14.4,45.1-9,53.7-5.5S279,324,279,324Z"/><path id="_Path_6" data-name="&lt;Path&gt;" class="cls-11" d="M403.1,302.2s-10.6,21.3-27.3,23.3-34.5-1.2-34.5-1.2,2-20.3,10.7-23.6S377.3,291.3,403.1,302.2Z"/><path id="_Path_7" data-name="&lt;Path&gt;" class="cls-12" d="M352,310a16.2,16.2,0,0,0,17,14.8,15.4,15.4,0,0,0,14.1-17,16.2,16.2,0,0,0-17.1-14.8A15.4,15.4,0,0,0,352,310Z"/><path id="_Path_8" data-name="&lt;Path&gt;" class="cls-13" d="M368.1,317.8c3.2-.2,6.4-3.8,6-8.3s-4.3-7.5-7.5-7.3-6.4,3.8-6,8.3S364.9,318.1,368.1,317.8Z"/><path id="_Path_9" data-name="&lt;Path&gt;" class="cls-15" d="M341.3,324.2l1.2.2c.5-7.6,2.3-18.1,7.7-20.2,8-3.2,26-7.8,49.4,3.7a46.1,46.1,0,0,0,3.5-5.8c-25.4-14.6-45.2-9.6-53.8-6.2S341.3,324.2,341.3,324.2Z"/><path id="_Path_10" data-name="&lt;Path&gt;" class="cls-5" d="M290.9,365.9c-.3-7.1,13-2.6,17.4-2.4s14.1-2.2,15-1.6c6.2,4.2-6.6,12.7-15.2,12.7C305.8,374.6,291.1,370.2,290.9,365.9Z"/><g id="_Group_" data-name="&lt;Group&gt;"><path id="_Path_11" data-name="&lt;Path&gt;" class="cls-16" d="M280,291.3a29.7,29.7,0,0,0-6.5-6.6,37.1,37.1,0,0,0-8-4.8,41.6,41.6,0,0,0-10.3-2.9,43.4,43.4,0,0,0-10.6.3,40.7,40.7,0,0,0-8.7,2.6,21.8,21.8,0,0,0-4.4,2.2l-1.3.7-5.5,3.5,6.4-1.5,1-.3a42.1,42.1,0,0,1,4.9-1.1l1.4-.3,2.5-.4,3-.2H245a38.3,38.3,0,0,1,9.1.8,34.7,34.7,0,0,1,8.6,2.7,44.6,44.6,0,0,1,7,3.9,43.1,43.1,0,0,1,6.1,4.8h0a2.8,2.8,0,0,0,2,.8,2.7,2.7,0,0,0,1.5-.5,2.8,2.8,0,0,0,.8-3.8Z"/><path id="_Path_12" data-name="&lt;Path&gt;" class="cls-16" d="M385.2,282.9l-1.2-.7a21.6,21.6,0,0,0-4.4-2.2,41,41,0,0,0-8.8-2.7,43.3,43.3,0,0,0-10.6-.3,41.6,41.6,0,0,0-10.3,2.9,37.6,37.6,0,0,0-8,4.8,29.7,29.7,0,0,0-6.5,6.6h0a2.8,2.8,0,0,0,.4,3.5,2.7,2.7,0,0,0,2,.8h0a2.7,2.7,0,0,0,2-.8h0a43.2,43.2,0,0,1,6.1-4.8,44.7,44.7,0,0,1,6.9-3.9,34.9,34.9,0,0,1,8.6-2.7,38.5,38.5,0,0,1,9.1-.8h1.4l3,.2,2.5.4,1.4.3a42.2,42.2,0,0,1,4.9,1.1l1,.3,6.4,1.5Z"/></g><path class="cls-17" d="M422.9,599.6a19.5,19.5,0,0,0-2.7,1.2H196.7l-2.8-1.2c0-45,12.6-76.1,28.2-94.3s32.6-23,41.2-24.2c11.9-1.7,17.9,15.5,24.2,18.3s11.8,7.3,20.9,7.3,18.6-5.4,30.8-9.2,4.7-18,13.8-16.5,26.9,7.8,41.2,24.3c16.2,18.6,28.7,52.4,28.7,94.3"/><path class="cls-18" d="M349.2,474.1c-1.7-4.2-5.6-8.2-7-11.6l-4.6-10.5c-.5,5.3-8.7,29-8.7,29s-25.6,27.6-21.6,28.5,23,9.8,28.5,16.2,4.6,12.4,6,3.7,11.8-44.1,7.5-55.4"/><path class="cls-18" d="M287,481.1s-8.2-23.7-8.7-29c0,0-2.2,4.9-4.6,10.5-1.4,3.4-5.4,7.3-7,11.6-4.3,11.4,6.1,46.7,7.5,55.4s.5,2.7,6-3.7,23.8-15.2,27.8-16.1S287,481.1,287,481.1"/></svg>