<svg xmlns="http://www.w3.org/2000/svg" xmlns:xlink="http://www.w3.org/1999/xlink" viewBox="0 0 3144 1090"><defs><style>.cls-1,.cls-138,.cls-139,.cls-141,.cls-142{fill:none;}.cls-2{isolation:isolate;}.cls-3{fill:#5293ce;}.cls-4{fill:#17100d;}.cls-5{mix-blend-mode:multiply;}.cls-6{fill:#b98058;}.cls-7{fill:#c58c66;}.cls-8{fill:#aa6b40;}.cls-9{fill:#c48c66;}.cls-10{fill:#81431d;}.cls-11{fill:#af6938;}.cls-12{fill:#fff;}.cls-13,.cls-143{fill:#332214;}.cls-14{fill:#132026;}.cls-15{fill:#684426;}.cls-16{fill:#96613c;}.cls-118,.cls-127,.cls-17,.cls-54{fill:#231f20;}.cls-18,.cls-24,.cls-78{fill:#c09980;}.cls-19{fill:#124b8c;}.cls-20{fill:#cececd;}.cls-21{fill:#e1be9b;}.cls-22{fill:#f1d1ac;}.cls-23{fill:#e4c3a2;}.cls-123,.cls-24,.cls-49{opacity:0.6;}.cls-25{clip-path:url(#clip-path);}.cls-26{fill:#b6947d;}.cls-27{fill:#5e5e5e;}.cls-28{fill:#d3b396;}.cls-29{fill:#c69f84;}.cls-30{fill:#58879f;}.cls-31{fill:#d5b599;}.cls-32{fill:#da6e27;}.cls-33{fill:#3a3a3a;}.cls-34{fill:#47b28e;}.cls-35{fill:#5a4118;}.cls-36{fill:#e4c4a4;}.cls-37{clip-path:url(#clip-path-2);}.cls-38{fill:#c18553;}.cls-39{fill:#d6915e;}.cls-40{fill:#3c2615;}.cls-41{fill:#75634f;}.cls-42{fill:#5a421a;}.cls-43{fill:#d1d1d1;}.cls-44{fill:#733039;}.cls-45{fill:#f4d65b;}.cls-46{fill:#a0643d;}.cls-47{fill:#b5774c;}.cls-48,.cls-49{fill:#8c542a;}.cls-50{fill:#c88e65;}.cls-51{fill:#c3855b;}.cls-52{fill:#402e13;}.cls-53{fill:#262626;}.cls-118,.cls-127,.cls-54{stroke:#231f20;}.cls-118,.cls-127,.cls-138,.cls-139,.cls-141,.cls-142,.cls-54,.cls-64{stroke-linecap:round;}.cls-118,.cls-127,.cls-54,.cls-64{stroke-linejoin:round;}.cls-54{stroke-width:7px;}.cls-55{fill:#6e0e10;}.cls-56{fill:#213e7a;}.cls-57{fill:#eaeae9;}.cls-58{fill:#d8b280;}.cls-59{fill:#894e26;}.cls-60{clip-path:url(#clip-path-3);}.cls-61{fill:#755622;}.cls-62{fill:#bf9980;}.cls-63{fill:#ee3e5d;}.cls-64{fill:#8a4f25;stroke:#8a4f25;}.cls-118,.cls-64{stroke-width:2.23px;}.cls-65{fill:#bf706b;}.cls-66{fill:#994e49;}.cls-67{fill:#c8c8c8;}.cls-68{fill:#fc8d62;}.cls-69{fill:#e8c9aa;}.cls-70{clip-path:url(#clip-path-4);}.cls-71{fill:#3a2817;}.cls-72{fill:#51341d;}.cls-73{fill:#483a15;}.cls-74{fill:#7dcbea;}.cls-75{fill:#39b1da;}.cls-76{fill:#d48929;}.cls-77{fill:#e4c5a8;}.cls-78{opacity:0.7;}.cls-79{clip-path:url(#clip-path-5);}.cls-80{fill:#c6696f;}.cls-81{fill:#d87374;}.cls-82{fill:#0398c3;}.cls-83{fill:#32ae98;}.cls-84{fill:#342626;}.cls-85{fill:#8d6542;}.cls-86{fill:#9e7244;}.cls-87{clip-path:url(#clip-path-6);}.cls-88{fill:#8b613e;}.cls-89{fill:#a57146;}.cls-90{fill:#d28d5a;}.cls-91{fill:#c38553;}.cls-92{fill:#7f5a3e;}.cls-93{fill:#eec92c;}.cls-94{fill:#f2f2f2;}.cls-95{fill:#201009;}.cls-96{opacity:0.53;}.cls-97{fill:#674335;}.cls-98{fill:#9a6d4c;}.cls-99{fill:#a7774a;}.cls-100{clip-path:url(#clip-path-7);}.cls-101{fill:#93643f;}.cls-102{fill:#1d130d;}.cls-103{fill:#694626;}.cls-104{fill:#895833;}.cls-105{fill:#666667;}.cls-106{fill:#26120d;}.cls-107{fill:#4f4f4f;}.cls-108{fill:#5d1d12;}.cls-109{fill:#5d1e13;}.cls-110{fill:#ae7852;}.cls-111{fill:#bd835c;}.cls-112{fill:#4c2c15;}.cls-113{clip-path:url(#clip-path-8);}.cls-114{fill:#7b4d2a;}.cls-115{fill:#a11d21;}.cls-116{fill:#c02026;}.cls-117{fill:#0c0d0d;}.cls-119{fill:#651f0e;}.cls-120{fill:#60361f;}.cls-121{fill:#6b3c21;}.cls-122,.cls-123{fill:#391f12;}.cls-124{fill:#984e48;}.cls-125{fill:#5b381b;}.cls-126{fill:#2c180f;}.cls-127{stroke-width:9px;}.cls-128{fill:#070707;}.cls-129{fill:#8d8d8d;}.cls-130{fill:#f47f35;}.cls-131{fill:#663922;}.cls-132{fill:#704029;}.cls-133{fill:#563b20;}.cls-134{fill:#381f13;}.cls-135{fill:#331f15;}.cls-136{fill:#020202;}.cls-137{fill:#a35da4;}.cls-138,.cls-139,.cls-141,.cls-142{stroke:#ebc41b;stroke-miterlimit:10;}.cls-139{stroke-dasharray:0.2 1;}.cls-140{fill:#dfb725;}.cls-141,.cls-142{stroke-width:0.5px;}.cls-142{stroke-dasharray:0.2 0.5;}.cls-143{opacity:0.5;}</style><clipPath id="clip-path"><polygon class="cls-1" points="753.21 403.97 814.59 403.97 814.59 368.03 752.41 368.56 753.21 403.97"/></clipPath><clipPath id="clip-path-2"><rect class="cls-1" x="2841.76" y="367.72" width="61.54" height="36.47"/></clipPath><clipPath id="clip-path-3"><rect class="cls-1" x="2811.8" y="894.71" width="60.16" height="35.65"/></clipPath><clipPath id="clip-path-4"><rect class="cls-1" x="232.5" y="888.04" width="62.9" height="37.23"/></clipPath><clipPath id="clip-path-5"><rect class="cls-1" x="1781.23" y="904.33" width="63.87" height="34.13"/></clipPath><clipPath id="clip-path-6"><rect class="cls-1" x="1801.89" y="367.36" width="61.32" height="36.34"/></clipPath><clipPath id="clip-path-7"><rect class="cls-1" x="2327.21" y="898.81" width="60.71" height="35.98"/></clipPath><clipPath id="clip-path-8"><polyline class="cls-1" points="756.18 926.05 817.52 926.05 817.52 889.37 756.18 889.37"/></clipPath></defs><title>Final-Avatars</title><g class="cls-2"><g id="Layer_1" data-name="Layer 1"><rect class="cls-3" x="10" y="31" width="504" height="504"/><path class="cls-4" d="M377.9,154.18C355,82.54,290.76,56.37,262.46,73.25c-28.3-16.88-91,6.42-114,78.06C106.57,282.25,130.72,489,130.72,489l131.42-3.3L393.56,489S419.84,285.13,377.9,154.18Z"/><path class="cls-5" d="M341.87,284.58l-79.73-.2-79.73.2s-5.22,98.88,25.87,130c10.75,10.75,31.94,21.86,53.86,24.08,21.92-2.22,43.12-13.33,53.86-24.08C347.09,383.46,341.87,284.58,341.87,284.58Z"/><path class="cls-6" d="M262.56,312.14V535H141.71c-1.95-.93-3-1.28-3-1.28,0-33.14,5.69-57.86,13.9-76.12,13.56-30.17,34-43.08,47.21-48.53a52,52,0,0,1,12.88-3.82h.6a8.76,8.76,0,0,0,1.61-.34c6.09-1.78,10.24-10.7,13-23.62.52-2.28.95-4.49,1.28-7,.68-4.09,1.27-8.42,1.69-13q.39-3.94.76-8.16c1.11-13.76,1.44-28.63,1.44-42.63C233.16,310.53,249.44,312.14,262.56,312.14Z"/><path class="cls-7" d="M386.81,533.72a20.64,20.64,0,0,0-2.88,1.28H262.56V312.14h.26c13.14,0,29.5-1.61,29.5-1.61,0,14,.33,28.7,1.43,42.29.26,2.73.52,5.44.76,8.08.52,4.67,1,9.09,1.7,13.17v.18c.26,1.85.59,3.55.94,5.25,2.54,12.51,6.27,21.68,11.7,24.74a10.63,10.63,0,0,0,4,1s37.38,4.51,59,50C380.62,473.74,386.81,499.05,386.81,533.72Z"/><path class="cls-8" d="M296.2,374.15v.09a39.06,39.06,0,0,1-33.47,18.26h-.09c-19.32-.07-30.5-14.1-33.39-18.18.68-4.08,1.26-8.41,1.69-12.91.24-2.72.52-5.45.76-8.25a131.35,131.35,0,0,0,30.5,4h.34a124.64,124.64,0,0,0,31.19-4.33l.76,8.06C295,365.57,295.52,370,296.2,374.15Z"/><path class="cls-6" d="M262.46,98.78C136.33,98.56,135.6,191.41,141.21,252c-8.66-14.2-24.69-5.41-22.59,17.33,2,21.79,28.62,28.14,28.12,25.74,10.31,49.32,69.77,76.72,115.72,80.62.32,0,.67,0,1,0V98.79Z"/><path class="cls-9" d="M263.09,98.78C389.23,98.56,390,191.41,384.35,252c8.66-14.2,23.11-9.61,21,13.14-2,21.79-27,32.34-26.54,29.94-10.32,49.32-69.76,76.72-115.73,80.62-.32,0-.66,0-1,0V98.79Z"/><path class="cls-6" d="M261.8,101.38c-42.14,0-73,11.65-91.62,34.64-26.06,32.09-25.06,81.12-15.45,116.33,2.94,10.76,4.45,39.76,6.48,50.41,9.1,47.58,64.27,72.94,100.6,72.94l1,0V101.41Z"/><path class="cls-7" d="M353.23,136.06c-18.52-22.84-49-34.47-90.45-34.66V375.68c41.48-.44,91.08-28.22,99.6-72.92,2-10.65,3.52-39.65,6.47-50.41C378.44,217.24,379.38,168.27,353.23,136.06Z"/><path class="cls-10" d="M297.07,335.79S281.6,348.2,262.49,348.2s-33.7-12.14-33.7-12.14a293.13,293.13,0,0,1,33.7-1.88C281.6,334.18,297.07,335.79,297.07,335.79Z"/><path class="cls-11" d="M272.3,330.06c-5.39,0-9.7,2.52-9.81,5.63-.11-3.11-4.42-5.63-9.78-5.63s-24.81,5.73-24.81,5.73,18.9,1.5,24.33,1.5,10.15,1.58,10.26-1.42c.08,3,4,1.86,9.34,1.86s25.23-1.94,25.23-1.94S277.71,330.06,272.3,330.06Z"/><path id="_Path_" data-name="&lt;Path&gt;" class="cls-12" d="M191.81,250.42s9.57,17.67,24.06,19.55,29.87-.42,29.87-.42-1.42-18.09-9-21S213.15,242.86,191.81,250.42Z"/><path id="_Path_2" data-name="&lt;Path&gt;" class="cls-13" d="M233.25,257.71a13,13,0,0,1-14.07,11.54,12.44,12.44,0,0,1-11.73-13.44,13.05,13.05,0,0,1,14.08-11.56A12.45,12.45,0,0,1,233.25,257.71Z"/><path id="_Path_3" data-name="&lt;Path&gt;" class="cls-14" d="M220,263.83a6,6,0,0,1-5-6.53,6.28,6.28,0,0,1,6.18-5.69,6,6,0,0,1,5,6.53A6.28,6.28,0,0,1,220,263.83Z"/><path id="_Path_4" data-name="&lt;Path&gt;" class="cls-15" d="M245.76,269.5s-.32,0-1.06.16c-.61-6.26-2.35-14.91-7.06-16.71-8.54-3.36-24-6.24-42.69,2.24a39.22,39.22,0,0,1-3.14-4.82c21.73-11.55,39-7.12,46.47-4.2S245.76,269.5,245.76,269.5Z"/><path id="_Path_5" data-name="&lt;Path&gt;" class="cls-12" d="M333.25,252.55s-9.06,17.22-23.5,18.73-29.9-1.13-29.9-1.13.44-17.1,7.9-19.79S311.41,244.33,333.25,252.55Z"/><path id="_Path_6" data-name="&lt;Path&gt;" class="cls-13" d="M289.08,258.62c.76,7.13,7.4,12.52,14.82,12.06s12.85-6.63,12.1-13.74-7.4-12.54-14.83-12.08S288.3,251.49,289.08,258.62Z"/><path id="_Path_7" data-name="&lt;Path&gt;" class="cls-14" d="M303,265.08a6,6,0,0,0,5.19-6.67,6.71,6.71,0,0,0-6.53-5.93,6,6,0,0,0-5.19,6.67A6.71,6.71,0,0,0,303,265.08Z"/><path id="_Path_8" data-name="&lt;Path&gt;" class="cls-16" d="M279.84,270.07s.33.05,1.06.2c.43-6.19,1.92-14.68,6.59-16.34,6.94-2.56,22.51-6.2,42.76,3.25a36.39,36.39,0,0,0,3-4.69c-22.07-11.94-39.21-8-46.61-5.29S279.84,270.07,279.84,270.07Z"/><path id="_Path_9" data-name="&lt;Path&gt;" class="cls-16" d="M251.3,306.43c-.23-4.65,8.52-1.7,11.41-1.55,2.28.12,9.21-1.47,9.81-1.06,4.08,2.76-4.32,8.32-10,8.32C261.06,312.14,251.43,309.24,251.3,306.43Z"/><g id="_Group_" data-name="&lt;Group&gt;"><path id="_Path_10" data-name="&lt;Path&gt;" class="cls-17" d="M340.1,227.23c-.37-.26-.78-.58-1.23-.93a24.28,24.28,0,0,0-4.47-3,46.65,46.65,0,0,0-9.21-4.08,49.77,49.77,0,0,0-11.6-1.85,47.43,47.43,0,0,0-11.72,1.5,42,42,0,0,0-9.48,3.89,32.12,32.12,0,0,0-8,6l-.05.05a2.9,2.9,0,0,0-.09,3.72c.5.63,1,3.45,1.83,3.55h0a3.08,3.08,0,0,0,2.25-.58l0,0a47.48,47.48,0,0,1,7.32-4.15,50,50,0,0,1,8.12-3,39.74,39.74,0,0,1,9.82-1.59,44.19,44.19,0,0,1,10,.45l1.52.31,3.23.65a19.15,19.15,0,0,1,2.67.75c.5.17,1,.33,1.47.46a48.24,48.24,0,0,1,5.19,1.83l1,.41,7,.1Z"/></g><g id="_Group_2" data-name="&lt;Group&gt;"><path id="_Path_11" data-name="&lt;Path&gt;" class="cls-17" d="M191.8,225.72c.37-.26.78-.58,1.23-.93a24.28,24.28,0,0,1,4.47-3,46.65,46.65,0,0,1,9.21-4.08,49.77,49.77,0,0,1,11.6-1.85,47.43,47.43,0,0,1,11.72,1.5,42,42,0,0,1,9.48,3.89,32.12,32.12,0,0,1,8,6l.05.05a2.9,2.9,0,0,1,.09,3.72c-.5.63-1,3.45-1.83,3.55h0a3.08,3.08,0,0,1-2.25-.58l0,0a47.48,47.48,0,0,0-7.32-4.15,50,50,0,0,0-8.12-3,39.74,39.74,0,0,0-9.82-1.59,44.19,44.19,0,0,0-10,.45l-1.52.31-3.23.65a19.15,19.15,0,0,0-2.67.75c-.5.17-1,.33-1.47.46a48.24,48.24,0,0,0-5.19,1.83l-1,.41-7,.1Z"/></g><path class="cls-18" d="M123.8,256.25c6.18-9.83,8.6-7.94,10.95-5.76,2.49,2.34,4.46,5.46,2.9,11.3-.83,3.27-4.3,3.54-3.45,8.54.93,5.59,3.51,6,5,7.24s3.3,2.22,4.22,4.62a12.67,12.67,0,0,1,.56,7c-1,4,.2,3.2-3.71,1.39-2.59-1.18-10.82-8.15-12.9-10.48-5.23-5.91-7.66-17.27-3.56-23.87"/><path class="cls-18" d="M399.22,254.43c-6.18-9.83-7.07-6.12-9.43-3.93-2.45,2.34-4.42,5.46-2.91,11.3.88,3.27,4.33,3.54,3.49,8.54-.93,5.59-3.5,6-5,7.24s-3.27,2.22-4.2,4.62,1.21,4.74,1.72,6.88c.93,4-6.35,1.66-2.39-.14,2.59-1.18,13.06-8.3,15.14-10.62,5.24-5.91,8.22-15.59,4.13-22.19"/><path class="cls-4" d="M375,292.17c-4.75-57.3-77.69-99.37-169.65-112.34-28.82,15.23-51,93.89-53.28,146.22-18.88-35.78-15.81-124.64-6.87-154.56,6.22-20.83,11.18-30.77,24-43.64,27.81-27.93,65-33,92.09-33,24.79,0,59.89,4.61,87.62,26.37,16.13,12.66,25.09,28.58,32.21,51.68C390.19,202.28,394.33,250.24,375,292.17Z"/><path class="cls-19" d="M387.37,534.83a3.06,3.06,0,0,0-2.9.17H141.24l-2.94-1.31c0-77,30-106.67,51.93-119.73-4.61,25,33.68,34.59,72.41,34.11,37.93-.44,75-11,72.25-34.68,21.88,13,52.49,43.15,52.49,120.3"/><rect class="cls-3" x="534" y="31" width="504" height="504"/><path class="cls-20" d="M784.18,134.85C610.79,143.46,641.49,297.7,641.49,297.7s20.15,31,44.49,65.22c22.67,31.84,46.14,76.35,98.2,65.71,45.58,8.64,79.92-23.43,98.25-63.61a275.06,275.06,0,0,1,44.44-67.32S957.56,143.46,784.18,134.85Z"/><path class="cls-21" d="M783.74,329.66V535H672.42c-1.8-.8-2.75-1.19-2.75-1.19,0-110.12,68.17-118.32,68.17-118.32,6.79,0,11.17-8.77,14.07-22.05.46-2.07.84-4.19,1.16-6.46.63-3.74,1.17-7.72,1.56-11.91.22-2.46.47-5,.7-7.56,1-12.62,1.34-26.31,1.34-39.29,0,0,15,1.47,27.09,1.47"/><path class="cls-22" d="M898.18,533.77s-1,.39-2.65,1.19H783.74V329.66H784c12.11,0,27.17-1.47,27.17-1.47,0,12.9.3,26.43,1.31,39,.25,2.51.48,5,.72,7.45.48,4.29.92,8.36,1.55,12.17v.08c.24,1.71.55,3.31.88,4.86,2.87,14.17,7.41,23.73,14.43,23.73,0,0,68.16,8.2,68.16,118.32"/><path class="cls-23" d="M782.12,94.22c-117.9,0-118.58,99-113.32,163.74-8.11-15.36-32-10.62-30.06,13.58,1.91,23.29,35.7,35.31,35.22,32.59,9.66,53.31,65.16,84.08,108.16,84.08H783v-294h-.91"/><path class="cls-18" d="M646.28,261.3c5.83-9.35,14.81-5.32,17-3.26,2.33,2.23,4.2,5.22,2.73,10.75-.81,3.1-4.06,3.31-3.28,8,.88,5.29,3.33,5.65,4.73,6.84s3.09,2.15,4,4.39a11.83,11.83,0,0,1,.52,6.64c-.88,3.83-6.45.79-10.18-.88-2.42-1.16-10.21-7.72-12.2-10-4.93-5.61-7.22-16.36-3.33-22.58"/><path class="cls-22" d="M782.72,94.22c117.89,0,118.56,99,113.33,163.74,8.09-15.36,32-10.62,30,13.58-1.89,23.29-35.71,35.31-35.22,32.59-9.66,53.31-65.14,84.08-108.16,84.08h-.9v-294h.9"/><path class="cls-24" d="M918.58,261.3C912.76,252,903.76,256,901.52,258c-2.32,2.23-4.16,5.22-2.74,10.75.81,3.1,4.1,3.31,3.29,8-.88,5.29-3.33,5.65-4.72,6.84s-3.12,2.15-4,4.39a11.83,11.83,0,0,0-.51,6.64c.88,3.83,6.43.79,10.17-.88,2.44-1.16,10.21-7.72,12.19-10,5-5.61,7.23-16.36,3.37-22.58"/><g class="cls-25"><path class="cls-26" d="M814.59,387.33v.07A35.94,35.94,0,0,1,783.89,404h-.16c-17.62-.08-27.86-12.79-30.51-16.49q.95-5.53,1.54-11.71c.24-2.42.48-4.89.71-7.45a122,122,0,0,0,27.95,3.61h.32A115.71,115.71,0,0,0,812.34,368c.23,2.47.48,4.94.71,7.33.44,4.22.91,8.21,1.54,12"/></g><path class="cls-23" d="M783.07,122.13c-38.84,0-67.19,11.26-84.42,33.6-24,31.13-23.07,78.7-14.21,112.82,2.7,10.46,4.1,38.58,6,48.93,8.38,46.18,59.21,70.74,92.68,70.74.28,0,.59,0,.87,0V122.13h-.87"/><path class="cls-22" d="M867.25,155.77c-17.06-22.18-45.11-33.45-83.31-33.64V388.18c38.23-.4,83.9-27.35,91.76-70.7,1.83-10.35,3.24-38.47,6-48.93,8.81-34,9.68-81.53-14.42-112.78"/><path class="cls-27" d="M898.34,533.8s-1,.4-2.66,1.2H672.33c-1.81-.79-2.76-1.2-2.76-1.2,0-83.88,39.62-108.6,58.46-115.65,12.28,13.54,36.58,32.18,55.35,33.09h.52c.08,0,.25.08.4,0,18.84-.91,43.14-19.63,55.43-33.16,18.73,7,58.6,31.6,58.6,115.72"/><path id="_Path_12" data-name="&lt;Path&gt;" class="cls-18" d="M772.15,299.74c-.23-4.74,8.67-1.73,11.61-1.58,2.32.12,9.38-1.49,10-1.08,4.15,2.81-4.4,8.46-10.13,8.46C782.08,305.54,772.29,302.6,772.15,299.74Z"/><path id="_Path_13" data-name="&lt;Path&gt;" class="cls-28" d="M809.57,337.35c-3.46-.18-7,2.9-11.17,2.43a.73.73,0,0,0-.43-.09A6.65,6.65,0,0,0,795,340a30.29,30.29,0,0,0-3.81,1.31,16.71,16.71,0,0,1-6.83,1.1v0l-.13,0-.13,0v0a16.71,16.71,0,0,1-6.83-1.1,30.3,30.3,0,0,0-3.81-1.31,6.65,6.65,0,0,0-2.94-.27.73.73,0,0,0-.43.09c-4.16.47-7.71-2.62-11.17-2.43-1,.09-2.34-.18-3.12-.18l.53.27c9.86,5.15,18.37,14.79,27.78,14.48h.27c9.42.31,17.93-9.33,27.78-14.48l.53-.27C811.92,337.16,810.53,337.44,809.57,337.35Z"/><path class="cls-29" d="M812.47,337.05h0s-10-4.13-17.16-1.71a42.23,42.23,0,0,1-5.4,1.78,13.53,13.53,0,0,1-5.66.82h0a29.39,29.39,0,0,1-4.1-.49c-.39-.06-.78-.15-1.17-.24l-.45-.1-.71-.18-.41-.11h0a44.81,44.81,0,0,1-4.24-1.48c-7.13-2.43-17.16,1.71-17.16,1.71h0l-.22.11c.78,0,2.16.27,3.12.18,2.84-.15,5.75,1.91,9,2.38A67.84,67.84,0,0,0,780,342a13.92,13.92,0,0,0,4.15.33v0l.13,0,.13,0v0a12.59,12.59,0,0,0,2.37,0,38.71,38.71,0,0,0,14-2.63h0c3.18-.52,6-2.5,8.83-2.36,1,.09,2.34-.18,3.12-.18Z"/><path id="_Path_14" data-name="&lt;Path&gt;" class="cls-1" d="M701,238.13s9,17.91,22.81,19.77,28.46-.59,28.46-.59.21-20.74-7-23.67S721.7,226.3,701,238.13Z"/><path id="_Path_15" data-name="&lt;Path&gt;" class="cls-1" d="M863.05,239.22s-8.72,17.57-22.49,19.18-28.47-1-28.47-1-.54-20.48,6.59-23.27S842.15,227.23,863.05,239.22Z"/><path id="_Path_16" data-name="&lt;Path&gt;" class="cls-12" d="M701,237.72s9.58,19,24.22,21,30.21-.62,30.21-.62.22-22-7.4-25.12S723,225.15,701,237.72Z"/><path id="_Path_17" data-name="&lt;Path&gt;" class="cls-30" d="M742.86,245.35a13.63,13.63,0,0,1-14.3,12.55,13,13,0,0,1-11.79-14.45c.69-7.47,7.09-13.1,14.31-12.56A13,13,0,0,1,742.86,245.35Z"/><path id="_Path_18" data-name="&lt;Path&gt;" class="cls-14" d="M729.42,252c-2.67-.19-5.4-3.23-5.06-7s3.62-6.37,6.29-6.18,5.41,3.23,5.06,7S732.1,252.24,729.42,252Z"/><path id="_Path_19" data-name="&lt;Path&gt;" class="cls-31" d="M755.45,258s-.33,0-1.07.17c-.58-6.76-2.29-16.09-7-18-7.07-2.94-22.92-7.24-43.19,2.66a42.25,42.25,0,0,1-3.14-5.19c22-12.6,39.47-7.92,47-4.81S755.45,258,755.45,258Z"/><path id="_Path_20" data-name="&lt;Path&gt;" class="cls-12" d="M864.09,238.89s-9.26,18.65-23.87,20.36S810,258.2,810,258.2s-.57-21.75,7-24.7S841.89,226.15,864.09,238.89Z"/><path id="_Path_21" data-name="&lt;Path&gt;" class="cls-30" d="M819.38,245.71a14.19,14.19,0,0,0,14.92,12.94,13.47,13.47,0,0,0,12.31-14.91,14.19,14.19,0,0,0-14.93-13A13.47,13.47,0,0,0,819.38,245.71Z"/><path id="_Path_22" data-name="&lt;Path&gt;" class="cls-14" d="M833.42,252.6c2.79-.2,5.64-3.32,5.28-7.23s-3.78-6.57-6.57-6.37-5.64,3.34-5.28,7.23S830.63,252.8,833.42,252.6Z"/><path id="_Path_23" data-name="&lt;Path&gt;" class="cls-21" d="M810,258.13s.33.05,1.07.21c.47-6.69,2-15.87,6.75-17.68,7-2.8,22.8-6.83,43.22,3.27a40.39,40.39,0,0,0,3.07-5.08c-22.25-12.78-39.61-8.4-47.11-5.45S810,258.13,810,258.13Z"/><g id="_Group_3" data-name="&lt;Group&gt;"><path id="_Path_24" data-name="&lt;Path&gt;" class="cls-32" d="M756.13,227.71a26,26,0,0,0-5.66-5.8,32.49,32.49,0,0,0-7-4.21,36.38,36.38,0,0,0-9.06-2.51,38,38,0,0,0-9.32.25,35.62,35.62,0,0,0-7.58,2.31,19.1,19.1,0,0,0-3.87,1.95c-.39.24-.74.45-1.1.65l-4.83,3,5.57-1.31.84-.22a36.9,36.9,0,0,1,4.26-.93c.39-.06.79-.14,1.2-.22a14.62,14.62,0,0,1,2.18-.32l2.62-.18,1.17-.08a33.55,33.55,0,0,1,8,.73,30.4,30.4,0,0,1,7.51,2.36,39.05,39.05,0,0,1,6.09,3.39,37.71,37.71,0,0,1,5.31,4.19h0a2.42,2.42,0,0,0,1.72.71,2.38,2.38,0,0,0,1.32-.39,2.44,2.44,0,0,0,.72-3.34Z"/><path id="_Path_25" data-name="&lt;Path&gt;" class="cls-32" d="M853.16,216.77c-.32-.17-.67-.39-1.06-.63a18.94,18.94,0,0,0-3.82-1.93,35.87,35.87,0,0,0-7.66-2.34,37.9,37.9,0,0,0-9.3-.25,36.41,36.41,0,0,0-9,2.5,32.93,32.93,0,0,0-7,4.21,26,26,0,0,0-5.65,5.79l0,.05a2.46,2.46,0,0,0,.32,3.05,2.39,2.39,0,0,0,1.71.72h0a2.39,2.39,0,0,0,1.71-.72l0,0a37.86,37.86,0,0,1,5.31-4.19,39.11,39.11,0,0,1,6.06-3.37,30.58,30.58,0,0,1,7.55-2.37,33.68,33.68,0,0,1,7.93-.72l1.23.09,2.61.18a14.62,14.62,0,0,1,2.17.32c.41.08.81.16,1.2.22a36.92,36.92,0,0,1,4.27.93l.85.22,5.56,1.31Z"/></g><path class="cls-32" d="M898.39,249.22a26.42,26.42,0,0,0-6.81,10c-3.7,9.69-5.1,8-5.1,8s5.83-37.92,5.83-48.48S859.17,155,840.68,148.7s-35.16,14.8-55,14.8h-1.57c-19.48-.4-36.77-20.91-55-14.8-18.45,6.27-51.58,59.63-51.58,70.1s5.81,48.48,5.81,48.48-1.43,1.66-5.09-8c-2.11-5.66-7.4-8.2-10.06-10.5-4.92-65.69-.22-163.08,115.82-163.08h.62c116.66,0,118.91,97.86,113.83,163.54"/><path class="cls-27" d="M879.21,126.55C856.6,90.48,825.49,68,782.82,68s-71.64,23-94.24,59.11C668,160,658.1,167.56,642.46,213.36c12.22-22.86,56.76-69.84,142.05-69.84S916.64,190.27,929,213.36C913.33,167.56,899.8,159.42,879.21,126.55Z"/><path class="cls-33" d="M770.55,516.77c0-21.7-3.62-31.38-11.47-51.17-16-40.34-41.79-74-64.53-103.68-21-27.43-39.14-51.11-46.37-74.67-8.07-26.32-1.64-57.25,17.2-82.74,14.76-20,50-53.44,120.63-53.44s105.87,33.48,120.63,53.44c18.84,25.49,25.27,56.42,17.2,82.74-7.22,23.55-25.36,47.24-46.37,74.67-22.74,29.69-48.51,63.34-64.53,103.68-7.86,19.79-11.76,34.55-11.76,56.25h0a7.56,7.56,0,1,0,15.12,0h0c0-19.78,3.54-32.67,10.69-50.67,15.25-38.39,40.34-71.16,62.48-100.07,21-27.4,40.8-53.27,48.82-79.42,9.47-30.88,2.18-66.83-19.49-96.15C902.34,173.28,863.21,136,786,136s-116.34,37.33-132.78,59.57c-21.68,29.32-29,65.27-19.49,96.15,8,26.15,27.84,52,48.82,79.42C704.68,400,729.78,432.79,745,471.18c7.15,18,9.42,26.76,10.43,46.37h0c0,4.17,4.15,7.65,8.33,7.65s6.77-4.26,6.77-8.43"/><rect class="cls-34" x="2630" y="31" width="504" height="504"/><path class="cls-35" d="M2873.7,250.67c-4.53,15.23-9.74,32.62-19.49,50s-39.4,39.77-40.42,63.63c-2.21,51.19,70.31,75.53,99.57,84.23s39,9.55,42.25,22.18.59,33.66.59,33.66,24.64-13.47,31.59-23.8c14.95-22.16-1.41-37.25-1.41-37.25s-6.06,5.21,1.08,17,7.16,22.18,4.56,25.22-11.7,12.61-11.7,12.61,45.19-12.82,36.4-49.57c-1.51-6.29-5.63-1.69,0,0,12.57,3.75,10.21,24.5,10.21,24.5s30.65-39.7-31.43-62.16c-5.91-2.14-37.89-10.05-41.19-36.48-1.84-14.66,8.89-15.95,10.85-33.86,2.53-23.19-30.66-18.31-43.43-40.16-2.43-4.15,9.59-6.51,0-17.79C2910.14,269,2905.88,270,2889.31,262S2873.7,250.67,2873.7,250.67Z"/><path class="cls-36" d="M2872.39,330.37V535H2761.28l-2.72-1.16c0-109.76,68-118,68-118,6.79,0,11.16-8.72,14-22,.47-2,.86-4.12,1.17-6.39.63-3.73,1.17-7.74,1.55-11.86.25-2.5.47-5,.72-7.54,1-12.58,1.31-26.23,1.31-39.17,0,0,15,1.46,27.06,1.46"/><path class="cls-22" d="M2986.6,533.83s-1,.41-2.66,1.16H2872.39V330.37h.22c12.06,0,27.13-1.46,27.13-1.46,0,12.86.3,26.36,1.3,38.81.25,2.5.48,5,.69,7.42.49,4.29.94,8.34,1.57,12.19v.07c.24,1.71.56,3.26.87,4.85,2.86,14.08,7.37,23.6,14.41,23.6,0,0,68,8.22,68,118"/><path class="cls-22" d="M2872.6,95.72v293h.83c42.94,0,98.31-30.63,108-83.77a5.24,5.24,0,0,0,.16,2.42c1.78,4.29,9.83,8.74,15.49,3.66,5-4.53,1.73-13,1.95-13.18,8.28-5.63,16.6-14.21,17.54-25.44,2-24.13-21.9-28.81-30-13.49,5.19-64.6,4.6-163.18-113.14-163.18Zm114.72,208.66a3.52,3.52,0,0,1,3.53-3.45,3.44,3.44,0,1,1-3.53,3.45"/><g class="cls-37"><path class="cls-18" d="M2903.3,387.32v.07a35.94,35.94,0,0,1-30.76,16.79h-.17c-17.67-.07-28-13-30.61-16.7.63-3.73,1.17-7.74,1.55-11.86.25-2.5.47-5,.72-7.54a124.67,124.67,0,0,0,28.06,3.66h.29a113.42,113.42,0,0,0,28.67-4c.25,2.5.48,5,.72,7.42.47,4.29.91,8.34,1.55,12.19"/></g><path class="cls-36" d="M2872.71,95.67c-117.71,0-118.32,98.62-113.13,163.22-8.09-15.32-31.94-10.6-30,13.49.91,11.23,9.25,19.81,17.52,25.44.23.16-3.06,8.65,1.94,13.18,5.7,5.08,13.7.63,15.5-3.66a5.44,5.44,0,0,0,.15-2.42c9.68,53.14,65.07,83.77,108,83.77h.87v-293ZM2755.3,307.79a3.41,3.41,0,0,1,0-6.83,3.42,3.42,0,1,1,0,6.83"/><path class="cls-18" d="M2737.11,262.2c5.82-9.29,14.77-5.28,17-3.26,2.34,2.26,4.2,5.2,2.75,10.73-.81,3.09-4.06,3.32-3.27,8,.87,5.27,3.33,5.6,4.71,6.83s3.09,2.1,4,4.36a11.57,11.57,0,0,1,.52,6.63c-.89,3.81-6.44.8-10.14-.91-2.43-1.11-10.19-7.7-12.16-9.88-5-5.6-7.26-16.31-3.37-22.54"/><path class="cls-36" d="M2871.68,123.45c-38.72,0-67.06,11.27-84.23,33.49-24,31-23,78.46-14.2,112.51,2.71,10.4,4.09,38.45,6,48.74,8.36,46,59.07,70.56,92.47,70.56.27,0,.6,0,.91,0V123.49c-.32,0-.6,0-.91,0"/><path class="cls-22" d="M2955.73,157c-17-22.06-45.06-33.29-83.14-33.49V388.7c38.12-.42,83.69-27.25,91.53-70.51,1.86-10.29,3.25-38.34,5.94-48.74,8.82-33.93,9.69-81.32-14.33-112.47"/><path class="cls-24" d="M3008.86,262.2c-5.82-9.29-14.77-5.28-17-3.26-2.34,2.26-4.21,5.2-2.76,10.73.81,3.09,4.06,3.32,3.29,8-.87,5.27-3.31,5.6-4.74,6.83s-3.08,2.1-4,4.36a11.71,11.71,0,0,0-.52,6.63c.91,3.81,6.45.8,10.14-.91,2.45-1.11,10.22-7.7,12.16-9.88,5-5.6,7.25-16.31,3.36-22.54"/><path class="cls-38" d="M2892.76,338.72s-9.34,11.42-20.85,11.42-20.31-11.2-20.31-11.2a117.91,117.91,0,0,1,20.31-1.72A147.4,147.4,0,0,1,2892.76,338.72Z"/><path class="cls-39" d="M2877.81,333.44c-3.24,0-5.84,2.31-5.9,5.17a5.62,5.62,0,0,0-5.9-5.17c-3.26,0-14.95,5.28-14.95,5.28s11.39,1.36,14.64,1.36,6.14,1.47,6.21-1.28c0,2.78,2.39,1.7,5.63,1.7s15.21-1.78,15.21-1.78S2881.08,333.44,2877.81,333.44Z"/><path id="_Path_26" data-name="&lt;Path&gt;" class="cls-12" d="M2780.32,241.37s11.84,21.37,29.72,23.68,36.85-.44,36.85-.44-2.35-20.25-11.67-23.77S2807.39,231.12,2780.32,241.37Z"/><path id="_Path_27" data-name="&lt;Path&gt;" class="cls-40" d="M2831.45,250.27c-.78,8.35-8.55,14.58-17.33,13.92s-15.28-7.94-14.5-16.27,8.54-14.6,17.34-13.94S2832.25,241.92,2831.45,250.27Z"/><path id="_Path_28" data-name="&lt;Path&gt;" class="cls-14" d="M2815.11,257.64a7.29,7.29,0,0,1-6.23-7.9,7.66,7.66,0,0,1,7.62-6.86,7.29,7.29,0,0,1,6.23,7.9A7.65,7.65,0,0,1,2815.11,257.64Z"/><path id="_Path_29" data-name="&lt;Path&gt;" d="M2846.91,264.55s-.4,0-1.31.19c-.76-7.57-2.93-18-8.74-20.21-8.65-3.35-28-8.3-52.66,2.62a47.5,47.5,0,0,1-3.88-5.83c26.78-13.91,48.08-8.53,57.32-5S2846.91,264.55,2846.91,264.55Z"/><path id="_Path_30" data-name="&lt;Path&gt;" class="cls-12" d="M2967.08,244s-11.14,20.79-28.95,22.58-36.88-1.43-36.88-1.43,2-20.49,11.2-23.73S2940.16,233.13,2967.08,244Z"/><path id="_Path_31" data-name="&lt;Path&gt;" class="cls-40" d="M2912.6,251.22c.95,8.62,9.15,15.15,18.31,14.6s15.84-8,14.89-16.58-9.15-15.17-18.32-14.63S2911.63,242.6,2912.6,251.22Z"/><path id="_Path_32" data-name="&lt;Path&gt;" class="cls-14" d="M2929.78,259.05a7.28,7.28,0,0,0,6.38-8,8.25,8.25,0,0,0-8.07-7.18,7.29,7.29,0,0,0-6.38,8A8.25,8.25,0,0,0,2929.78,259.05Z"/><path id="_Path_33" data-name="&lt;Path&gt;" d="M2901.22,265s.4.06,1.31.24c.51-7.48,2.33-17.74,8.09-19.73,8.55-3.07,27.76-7.45,52.75,4a43.65,43.65,0,0,0,3.71-5.66c-27.25-14.48-48.39-9.73-57.51-6.49S2901.22,265,2901.22,265Z"/><path id="_Path_34" data-name="&lt;Path&gt;" class="cls-18" d="M2859.47,295.35c-.26-5.39,9.87-2,13.21-1.8,2.64.14,10.67-1.7,11.36-1.23,4.72,3.19-5,9.63-11.52,9.63C2870.77,302,2859.63,298.6,2859.47,295.35Z"/><g id="_Group_4" data-name="&lt;Group&gt;"><path id="_Path_35" data-name="&lt;Path&gt;" class="cls-41" d="M2844.41,228.35a31.77,31.77,0,0,0-6.91-7.08,39.65,39.65,0,0,0-8.59-5.14,44.4,44.4,0,0,0-11.06-3.06,46.4,46.4,0,0,0-11.37.31,43.47,43.47,0,0,0-9.25,2.82,23.31,23.31,0,0,0-4.72,2.38c-.47.29-.9.55-1.34.79l-5.89,3.72,6.79-1.6,1-.27a45,45,0,0,1,5.2-1.14c.48-.07,1-.17,1.47-.27a17.85,17.85,0,0,1,2.66-.39l3.19-.22,1.43-.1a40.94,40.94,0,0,1,9.76.89,37.11,37.11,0,0,1,9.16,2.88,47.66,47.66,0,0,1,7.43,4.14,46,46,0,0,1,6.48,5.12h0a3,3,0,0,0,2.1.87,2.91,2.91,0,0,0,1.61-.48,3,3,0,0,0,.88-4.08Z"/><path id="_Path_36" data-name="&lt;Path&gt;" class="cls-41" d="M2954.23,220.13c-.39-.21-.82-.47-1.29-.76a23.11,23.11,0,0,0-4.67-2.36,43.78,43.78,0,0,0-9.35-2.85,46.26,46.26,0,0,0-11.35-.3,44.44,44.44,0,0,0-11,3.06,40.19,40.19,0,0,0-8.59,5.14,31.78,31.78,0,0,0-6.9,7.07l0,.06a3,3,0,0,0,.39,3.73,2.92,2.92,0,0,0,2.09.88h0a2.92,2.92,0,0,0,2.09-.88l0,0a46.21,46.21,0,0,1,6.48-5.11,47.74,47.74,0,0,1,7.39-4.11,37.32,37.32,0,0,1,9.21-2.9,41.1,41.1,0,0,1,9.68-.88l1.5.11,3.18.22a17.84,17.84,0,0,1,2.65.39c.5.1,1,.2,1.46.27a45.06,45.06,0,0,1,5.21,1.14l1,.27,6.79,1.6Z"/></g><path class="cls-42" d="M2801,153.95s88.69-45.23,121.5,45.29C2922.52,199.23,2935.77,60.94,2801,153.95Z"/><circle class="cls-43" cx="2753.54" cy="306.5" r="10.47"/><circle class="cls-43" cx="2991.21" cy="306.5" r="10.47"/><path class="cls-42" d="M2813.71,102.61s-13.8,37.23-7.46,47.8c0,0-43.53,17.75-47.63,106,0,0-4-1-9.06,4.25C2749.56,260.69,2716.47,135.81,2813.71,102.61Z"/><path class="cls-42" d="M2801,153.95s107.4-78.7,118.7,35.69c0,0,16.48,73.08,68.32,66.79,0,0,31.76-72.88-29.53-149,0,0-43.34-55-106.76-35.12C2851.75,72.32,2789.39,94.12,2801,153.95Z"/><path class="cls-44" d="M2964.72,503.57h19.72c0-2.22,0-4.39-.11-6.54a108.72,108.72,0,0,0-12.06-43.72c-1.77-3.4-3-5.33-3-5.33a80.82,80.82,0,0,0-17.15-18.18,16,16,0,0,0-1.53-1.27c-.84-.64-1.69-1.24-2.53-1.82-90.33,157.44-149.78,0-149.78,0-.93.64-1.85,1.26-2.78,2a8.08,8.08,0,0,0-1.55,1.23c-1.39,1.08-2.79,2.25-4.17,3.5A85.53,85.53,0,0,0,2776.94,448s-12.66,28.4-15.06,49.05c-.26,2.29-1.45,4.82-1.43,6.87l21-.33c0,2.18,0,4.26-.06,6.28-.14,11-.5,19.56-.86,25.15h185.2c-.37-5.58-.77-14.14-.93-25.15C2964.75,507.83,2964.73,505.76,2964.72,503.57Z"/><rect class="cls-45" x="1058" y="555" width="504" height="504"/><path class="cls-46" d="M1311.68,849v207.24H1200.94c-1.69-.8-2.7-1.17-2.7-1.17,0-52.33,15-81.87,30.82-98.48,17.94-18.71,37-21,37-21h.55a6.94,6.94,0,0,0,1.46-.33c5.61-1.56,9.48-9.94,12-21.94.46-2.05.82-4.18,1.13-6.46.63-3.84,1.27-7.85,1.58-12,.3-2.53.44-5.06.67-7.68,1-12.7,1.36-26.51,1.36-39.67,0,0,13.41,1.38,25.07,1.53Z"/><path class="cls-47" d="M1423.64,1055.06a27,27,0,0,0-2.65,1.17H1309.83V849h1.85c11.73-.15,25.4-1.53,25.4-1.53,0,13,.31,26.73,1.32,39.35.22,2.54.45,5.05.69,7.51.49,4.36.93,8.45,1.55,12.35v0c.24,1.78.56,3.33.88,4.95,2.32,11.61,5.71,20.14,10.7,23a5.59,5.59,0,0,0,1.17.44,6.25,6.25,0,0,0,2.49.49s17.31,2.13,34.38,18.48a90.64,90.64,0,0,1,10.57,12.35c12.59,17.69,22.83,45.32,22.83,88.66"/><path class="cls-48" d="M1339.07,894.36c-.22-2.5-.46-5-.7-7.51a112.81,112.81,0,0,1-26.69,4h0l-1.89.06h-.3q-1.72,0-3.4-.11l-.9-.05c-.83,0-1.65-.09-2.47-.14l-.9-.07c-.81-.06-1.62-.13-2.42-.21l-.82-.09c-.82-.09-1.65-.18-2.46-.28l-.71-.1c-.85-.11-1.69-.23-2.53-.36l-.59-.1c-.87-.14-1.74-.28-2.6-.44l-.48-.09q-1.34-.25-2.65-.52l-.4-.09c-.94-.2-1.87-.41-2.79-.63-.21,2.45-.35,4.82-.63,7.19-.31,4.18-1,8.19-1.58,12-.1.71-.21,1.37-.32,2.05a44.38,44.38,0,0,0,3.53,3.89h0l.26.25.56.53.69.63.53.48q.6.52,1.25,1l.54.42.91.69.63.45,1,.66.62.4q.76.47,1.56.93l.35.19q.76.42,1.56.81l.65.3q.65.3,1.31.58l.7.28c.5.2,1,.38,1.54.56l.53.18q1.05.33,2.15.61l.56.12c.57.13,1.15.25,1.74.35l.79.12c.56.08,1.13.15,1.71.21l.76.07c.83.06,1.67.11,2.53.11h.16q.88,0,1.74,0h0a35.74,35.74,0,0,0,29-17v-.07C1340,902.82,1339.53,898.71,1339.07,894.36Z"/><rect class="cls-1" x="1279.28" y="886.85" width="61.35" height="36.9"/><path class="cls-46" d="M1309.71,626.24c-115.54-.2-116.23,94.29-111.08,155.89-7.92-14.45-31.36-9.07-29.44,14.07,1.85,22.19,34.95,32.24,34.49,29.79,9.45,50.21,63.92,78.1,106,82a5.2,5.2,0,0,0,.87,0V626.28c-.28,0-.59,0-.87,0"/><path class="cls-48" d="M1175,786.4c5.8-8.92,14.73-5.06,16.94-3.09,2.33,2.13,4.18,5,2.74,10.28-.81,3-4,3.19-3.29,7.72.88,5.1,3.31,5.44,4.73,6.61s3.08,2,4,4.17a11.16,11.16,0,0,1,.51,6.4c-.9,3.66-6.41.71-10.11-.89-2.45-1-10.2-7.4-12.12-9.52-4.95-5.36-7.24-15.67-3.36-21.67"/><path class="cls-47" d="M1310.3,626.24c115.56-.2,116.23,94.29,111.07,155.89,7.92-14.45,31.37-9.07,29.44,14.07-1.85,22.19-34.95,32.24-34.51,29.79-9.44,50.21-63.91,78.1-106,82a5.69,5.69,0,0,1-.92,0V626.28c.33,0,.61,0,.92,0"/><path class="cls-46" d="M1309.11,653c-38.61,0-66.83,10.82-84,32.19-23.87,29.87-23,75.48-14.16,108.2,2.69,10,4.09,37,5.95,46.87,8.32,44.28,58.87,67.85,92.16,67.85.26,0,.6,0,.88,0V653h-.88"/><path class="cls-47" d="M1392.86,685.27C1375.89,664,1348,653.21,1310,653V908.08c38-.4,83.45-26.21,91.26-67.81,1.83-9.88,3.23-36.85,5.92-46.87,8.8-32.63,9.63-78.21-14.31-108.13"/><path id="_Path_37" data-name="&lt;Path&gt;" class="cls-48" d="M1293.52,828.1c-.35-4.43,13.19-1.62,17.66-1.48,3.53.11,14.26-1.4,15.18-1,6.31,2.63-6.69,7.92-15.41,7.92C1308.63,833.53,1293.73,830.77,1293.52,828.1Z"/><path class="cls-49" d="M1442.47,786.4c-5.8-8.92-14.73-5.06-16.95-3.09-2.33,2.13-4.18,5-2.74,10.28.81,3,4,3.19,3.29,7.72-.88,5.1-3.31,5.44-4.73,6.61s-3.08,2-4,4.17a11.15,11.15,0,0,0-.51,6.4c.9,3.66,6.41.71,10.11-.89,2.45-1,10.2-7.4,12.12-9.52,4.95-5.36,7.24-15.67,3.36-21.67"/><path id="_Path_38" data-name="&lt;Path&gt;" class="cls-50" d="M1343.7,858.51c-4.31-.18-8.74,2.87-13.92,2.4a1.11,1.11,0,0,0-.54-.09,10.37,10.37,0,0,0-3.67.27,44.87,44.87,0,0,0-4.75,1.29,25.81,25.81,0,0,1-8.51,1.09v0l-.17,0-.17,0v0a25.81,25.81,0,0,1-8.51-1.09,44.88,44.88,0,0,0-4.75-1.29,10.37,10.37,0,0,0-3.67-.27,1.12,1.12,0,0,0-.54.09c-5.18.47-9.61-2.58-13.92-2.4-1.19.09-2.92-.18-3.89-.18l.65.27c12.29,5.08,22.89,14.6,34.63,14.29h.34c11.74.3,22.34-9.21,34.63-14.29l.65-.27C1346.62,858.33,1344.9,858.59,1343.7,858.51Z"/><path class="cls-51" d="M1347.31,858.21h0s-12.49-4.08-21.38-1.69a62.61,62.61,0,0,1-6.74,1.76,21,21,0,0,1-7.06.81h0a45.85,45.85,0,0,1-5.11-.48c-.48-.06-1-.15-1.46-.24l-.56-.1-.89-.17-.52-.11h0c-2.84-.65-5.28-1.46-5.28-1.46-8.89-2.39-21.38,1.69-21.38,1.69h0l-.28.11c1,0,2.7.27,3.89.18,3.54-.15,7.16,1.88,11.22,2.35a104.35,104.35,0,0,0,15,2.28,21.77,21.77,0,0,0,5.17.33v0l.17,0,.17,0v0a19.79,19.79,0,0,0,3,0,59.57,59.57,0,0,0,17.43-2.59h0c4-.52,7.52-2.47,11-2.33,1.19.09,2.92-.18,3.89-.18Z"/><path id="_Path_39" data-name="&lt;Path&gt;" class="cls-12" d="M1230.82,766.49s9,16,22.47,17.75,27.85-.31,27.85-.31-2.28-15-9.32-17.67S1250.23,758.59,1230.82,766.49Z"/><path id="_Path_40" data-name="&lt;Path&gt;" class="cls-52" d="M1269.46,773.18c-.59,6.25-6.45,10.91-13.09,10.41s-11.55-6-11-12.19,6.45-10.93,13.1-10.43S1270.06,766.93,1269.46,773.18Z"/><path id="_Path_41" data-name="&lt;Path&gt;" class="cls-14" d="M1257.12,778.69a5.48,5.48,0,0,1-4.71-5.92,5.76,5.76,0,0,1,5.75-5.13,5.48,5.48,0,0,1,4.71,5.92A5.76,5.76,0,0,1,1257.12,778.69Z"/><path id="_Path_42" data-name="&lt;Path&gt;" class="cls-53" d="M1281.15,783.88s-.3,0-1,.14c-.58-5.67-2.22-13.5-6.62-15.14-6.54-2.51-21.18-6.23-39.79,1.93a35.61,35.61,0,0,1-2.93-4.37c20.23-10.4,36.33-6.36,43.31-3.7S1281.15,783.88,1281.15,783.88Z"/><path id="_Path_43" data-name="&lt;Path&gt;" class="cls-12" d="M1386.9,767.18s-8.4,15.56-21.86,16.89-27.88-1.09-27.88-1.09,1.49-16.38,8.44-18.8S1366,759.75,1386.9,767.18Z"/><path id="_Path_44" data-name="&lt;Path&gt;" class="cls-52" d="M1345.73,772.58c.72,6.45,6.93,11.35,13.85,10.95s12-6,11.25-12.41-6.93-11.37-13.86-11S1345,766.12,1345.73,772.58Z"/><path id="_Path_45" data-name="&lt;Path&gt;" class="cls-14" d="M1358.72,778.45a5.45,5.45,0,0,0,4.82-6,6.23,6.23,0,0,0-6.1-5.38,5.46,5.46,0,0,0-4.82,6A6.23,6.23,0,0,0,1358.72,778.45Z"/><path id="_Path_46" data-name="&lt;Path&gt;" class="cls-53" d="M1337.14,782.92l1,.18c.38-5.6,1.75-13.28,6.1-14.77,6.46-2.3,21-5.56,39.87,3a32.58,32.58,0,0,0,2.8-4.24c-20.6-10.86-36.57-7.32-43.46-4.89S1337.14,782.92,1337.14,782.92Z"/><g id="_Group_5" data-name="&lt;Group&gt;"><path id="_Path_47" data-name="&lt;Path&gt;" class="cls-54" d="M1387.56,731.72c-.37-.18-.78-.41-1.22-.65a26.66,26.66,0,0,0-4.46-2.08,57.76,57.76,0,0,0-9.19-2.88,68.85,68.85,0,0,0-11.57-1.3,66,66,0,0,0-11.69,1.06,52.86,52.86,0,0,0-9.45,2.74,32.91,32.91,0,0,0-8,4.25l-.05,0a1.61,1.61,0,0,0-.09,2.63c.5.45,1,2.43,1.82,2.51h0a4.07,4.07,0,0,0,2.25-.41h0a54.6,54.6,0,0,1,7.3-2.93,64,64,0,0,1,8.1-2.15,54.9,54.9,0,0,1,9.8-1.12,62.16,62.16,0,0,1,10,.32l1.52.22,3.22.46a25.54,25.54,0,0,1,2.66.53c.5.12,1,.23,1.46.33,2.06.41,3.79.9,5.17,1.29l1,.29,6.93.07Z"/></g><g id="_Group_6" data-name="&lt;Group&gt;"><path id="_Path_48" data-name="&lt;Path&gt;" class="cls-54" d="M1232.23,731.72c.37-.18.78-.41,1.22-.65a26.66,26.66,0,0,1,4.46-2.08,57.76,57.76,0,0,1,9.19-2.88,68.85,68.85,0,0,1,11.57-1.3,66,66,0,0,1,11.69,1.06,52.86,52.86,0,0,1,9.45,2.74,32.91,32.91,0,0,1,8,4.25l.05,0a1.61,1.61,0,0,1,.09,2.63c-.5.45-1,2.43-1.82,2.51h0a4.07,4.07,0,0,1-2.25-.41h0a54.6,54.6,0,0,0-7.3-2.93,64,64,0,0,0-8.1-2.15,54.9,54.9,0,0,0-9.8-1.12,62.16,62.16,0,0,0-10,.32l-1.52.22-3.22.46a25.54,25.54,0,0,0-2.66.53c-.5.12-1,.23-1.46.33-2.06.41-3.79.9-5.17,1.29l-1,.29-6.93.07Z"/></g><path d="M1387.74,620.78c-20.21-17.77-153.74-79-207.47,60-16,53.84,14.53,73.76,17.24,85.19,6.65-29.57.6-39.05,27.57-56.8,36.89-24.26,95.51,10.69,138.11-18C1384.24,676.94,1410.08,640.43,1387.74,620.78Z"/><path d="M1378.79,677.2s-3.41-73.34,53-32.71c37.65,27.1-14.25,93.27-9.84,139.38-20-61.13-21-63.53-21.36-77.11S1382.89,671.26,1378.79,677.2Z"/><path class="cls-55" d="M1422.29,753.34v-.21a.92.92,0,0,0-.58-.54h0l-.13-.05c-9.42-3.36-48.91-4.93-70.22-2.52s-34.12,7.88-41.19,8.13c-7.1-.1-19.92-5.3-41.38-7.28s-60.8.39-70.13,4a.45.45,0,0,0-.16.06h0a.77.77,0,0,0-.53.54v.21c-.09,1.19-.38,6.33-.24,9.25a3.14,3.14,0,0,0,0,.44,2.47,2.47,0,0,0,1.69,1.84l.13,0c1.91.66,5.18,3.5,8.65,17.44,1.6,6.95,3.58,21.66,18.73,26,6.9,1.92,40.21,5.66,57-7.45,3.54-2.76,7.35-8.79,10.55-14.92,1.87-4.18,6.85-16.18,7.57-18a7.28,7.28,0,0,1,7.34-5.27l1.66,0a7.29,7.29,0,0,1,7.42,5.13c.77,1.82,6,13.71,7.92,17.84,3.33,6.08,7.28,12,10.85,14.72,17.09,12.75,50.3,8.33,57.14,6.27,15.08-4.64,16.76-19.37,18.19-26.36,3.21-14,6.45-16.93,8.3-17.62l.13,0a2.52,2.52,0,0,0,1.68-1.87v-.45C1422.78,759.67,1422.38,754.52,1422.29,753.34Zm-137.62,38.53a25.6,25.6,0,0,1-15.82,13.39c-13.1,3.72-22.4,3.88-35.5,2.16-8.75-1.16-15.24-7-17-13-2.17-8.24-5.29-16.65-3.29-24.89a17.5,17.5,0,0,1,11.74-12.2c13-4.17,33.25-4,46.27-1.93,6.38,1.15,17.68,2.31,20.31,9.79C1294.24,773.33,1289,784.69,1284.66,791.87Zm120.18.66c-1.66,6-8,12-16.77,13.31-13.05,2-22.35,2-35.5-1.44a25.55,25.55,0,0,1-16.11-13.05c-4.51-7.09-9.92-18.33-7.26-26.47,2.47-7.54,13.76-8.94,20.11-10.22,13-2.29,33.24-2.91,46.29,1a17.46,17.46,0,0,1,12,12C1409.79,775.8,1406.85,784.28,1404.85,792.53Z"/><path class="cls-56" d="M1182.54,1059c0-86.6,44.89-112.12,66.25-119.39,13.9,14,41.44,33.21,62.7,34.15h.6c.09,0,.28.09.45,0,21.35-.94,48.88-20.26,62.8-34.24,21.24,7.19,66.41,32.64,66.41,119.48"/><path class="cls-57" d="M1242.54,942.1c15.2,16.79,45.33,39.87,68.55,41h.68c.09,0,.31.08.47,0,23.29-1.16,53.35-24.23,68.57-41a76.17,76.17,0,0,0-11-5.18c-12.8,14.13-38.16,33.67-57.84,34.62-.15.09-.32,0-.39,0H1311c-19.57-.95-44.94-20.4-57.75-34.54a75.29,75.29,0,0,0-10.76,5.11"/><rect class="cls-58" x="2630" y="555" width="504" height="504"/><path class="cls-59" d="M2731.21,812.77s10.57,115.41,91.11,149.39V919.59s-55.09-49.37-75.84-102C2746.48,817.55,2736.48,819,2731.21,812.77Z"/><rect class="cls-59" x="2871.96" y="881.69" width="75.25" height="89.49"/><path class="cls-36" d="M2841.74,858.2v200H2733.13l-2.66-1.14c0-107.29,66.48-115.33,66.48-115.33,6.64,0,10.91-8.53,13.7-21.49.46-2,.84-4,1.15-6.24.62-3.65,1.15-7.57,1.51-11.6.24-2.45.46-4.89.7-7.37,1-12.3,1.28-25.64,1.28-38.29,0,0,14.65,1.43,26.46,1.43"/><path class="cls-22" d="M2953.4,1057.09s-1,.4-2.6,1.14H2841.74v-200h.22c11.79,0,26.52-1.43,26.52-1.43,0,12.57.29,25.77,1.27,37.94.24,2.45.47,4.88.67,7.25.48,4.19.92,8.15,1.54,11.92v.07c.24,1.67.54,3.19.85,4.74,2.8,13.77,7.2,23.07,14.09,23.07,0,0,66.49,8,66.49,115.33"/><path class="cls-22" d="M2841.95,628.82V915.22h.81c42,0,96.1-29.94,105.56-81.89a5.12,5.12,0,0,0,.15,2.37c1.74,4.19,9.61,8.54,15.14,3.58,4.88-4.43,1.69-12.73,1.9-12.88,8.1-5.5,16.22-13.89,17.14-24.87,1.91-23.59-21.41-28.16-29.31-13.19,5.07-63.15,4.49-159.52-110.59-159.52Zm112.14,204a3.45,3.45,0,0,1,3.45-3.37,3.36,3.36,0,1,1-3.45,3.37"/><g class="cls-60"><path class="cls-18" d="M2872,913.87v.07a35.13,35.13,0,0,1-30.07,16.41h-.16c-17.27-.07-27.33-12.69-29.93-16.33.62-3.65,1.15-7.57,1.51-11.6.24-2.45.46-4.89.7-7.37a121.87,121.87,0,0,0,27.43,3.58h.28a110.87,110.87,0,0,0,28-3.93c.24,2.45.47,4.88.7,7.25.46,4.19.89,8.15,1.51,11.92"/></g><path class="cls-36" d="M2842.06,628.78c-115.06,0-115.67,96.4-110.59,159.56-7.91-15-31.22-10.36-29.29,13.19.89,11,9,19.37,17.13,24.87.23.15-3,8.45,1.89,12.88,5.58,5,13.39.62,15.15-3.58a5.32,5.32,0,0,0,.15-2.37c9.46,51.94,63.61,81.89,105.56,81.89h.85V628.78ZM2727.28,836.13a3.34,3.34,0,0,1,0-6.67,3.34,3.34,0,1,1,0,6.67"/><path class="cls-18" d="M2709.51,791.56c5.69-9.08,14.44-5.16,16.61-3.19,2.28,2.21,4.1,5.08,2.69,10.48-.8,3-4,3.24-3.19,7.87.85,5.15,3.25,5.47,4.61,6.67s3,2.06,3.87,4.26a11.31,11.31,0,0,1,.5,6.49c-.87,3.72-6.29.78-9.92-.89-2.37-1.09-10-7.53-11.88-9.66-4.84-5.47-7.1-15.95-3.29-22"/><path class="cls-36" d="M2841.05,655.93c-37.85,0-65.55,11-82.33,32.74-23.42,30.35-22.52,76.7-13.88,110,2.65,10.17,4,37.59,5.82,47.65,8.18,45,57.74,69,90.4,69,.27,0,.59,0,.89,0V656c-.31,0-.59,0-.89,0"/><path class="cls-22" d="M2923.22,688.71c-16.66-21.56-44-32.54-81.27-32.74V915.22c37.27-.41,81.81-26.64,89.48-68.92,1.82-10.05,3.18-37.48,5.8-47.65,8.62-33.17,9.47-79.49-14-109.94"/><path class="cls-18" d="M2975.15,791.56c-5.69-9.08-14.44-5.16-16.61-3.19-2.28,2.21-4.11,5.08-2.7,10.48.8,3,4,3.24,3.22,7.87-.85,5.15-3.23,5.47-4.63,6.67s-3,2.06-3.87,4.26a11.45,11.45,0,0,0-.5,6.49c.89,3.72,6.31.78,9.92-.89,2.4-1.09,10-7.53,11.89-9.66,4.84-5.47,7.09-15.95,3.28-22"/><path id="_Path_49" data-name="&lt;Path&gt;" class="cls-12" d="M2751.75,771.2s11.58,20.89,29.05,23.15,36-.43,36-.43-2.3-19.79-11.4-23.24S2778.21,761.18,2751.75,771.2Z"/><path id="_Path_50" data-name="&lt;Path&gt;" class="cls-61" d="M2801.73,779.9c-.76,8.16-8.35,14.25-16.94,13.6s-14.94-7.76-14.17-15.9,8.35-14.27,17-13.62S2802.5,771.74,2801.73,779.9Z"/><path id="_Path_51" data-name="&lt;Path&gt;" class="cls-14" d="M2785.76,787.11a7.13,7.13,0,0,1-6.09-7.72,7.49,7.49,0,0,1,7.45-6.7,7.12,7.12,0,0,1,6.09,7.72A7.48,7.48,0,0,1,2785.76,787.11Z"/><path id="_Path_52" data-name="&lt;Path&gt;" class="cls-62" d="M2816.84,793.86s-.39,0-1.28.18c-.75-7.4-2.86-17.62-8.54-19.76-8.46-3.27-27.39-8.11-51.47,2.56a46.44,46.44,0,0,1-3.79-5.7c26.18-13.6,47-8.33,56-4.87S2816.84,793.86,2816.84,793.86Z"/><path id="_Path_53" data-name="&lt;Path&gt;" class="cls-12" d="M2934.31,773.74s-10.89,20.32-28.3,22.07-36.06-1.4-36.06-1.4,1.95-20,10.95-23.2S2908,763.15,2934.31,773.74Z"/><path id="_Path_54" data-name="&lt;Path&gt;" class="cls-61" d="M2881.05,780.83c.93,8.42,8.95,14.81,17.9,14.28s15.48-7.81,14.56-16.21-8.95-14.83-17.91-14.3S2880.1,772.41,2881.05,780.83Z"/><path id="_Path_55" data-name="&lt;Path&gt;" class="cls-14" d="M2897.85,788.49a7.12,7.12,0,0,0,6.24-7.87,8.06,8.06,0,0,0-7.88-7,7.13,7.13,0,0,0-6.24,7.87A8.07,8.07,0,0,0,2897.85,788.49Z"/><path id="_Path_56" data-name="&lt;Path&gt;" class="cls-62" d="M2869.93,794.34s.39.06,1.28.24c.5-7.31,2.28-17.34,7.91-19.28,8.36-3,27.13-7.28,51.56,3.93a42.67,42.67,0,0,0,3.62-5.53c-26.64-14.15-47.3-9.51-56.21-6.34S2869.93,794.34,2869.93,794.34Z"/><path id="_Path_57" data-name="&lt;Path&gt;" class="cls-18" d="M2833.08,829.28c-.18-3.61,6.61-1.32,8.85-1.21,1.77.09,7.15-1.14,7.61-.82,3.16,2.14-3.35,6.45-7.72,6.45C2840.65,833.7,2833.19,831.46,2833.08,829.28Z"/><circle class="cls-43" cx="2957.89" cy="834.87" r="10.24"/><path class="cls-63" d="M2932,1027.51h19.28c0-2.17,0-4.29-.11-6.39a106.27,106.27,0,0,0-11.79-42.74c-1.73-3.32-3-5.21-3-5.21a79,79,0,0,0-16.76-17.77,15.66,15.66,0,0,0-1.49-1.24c-.83-.63-1.65-1.21-2.47-1.78-88.3,153.9-146.42,0-146.42,0-.91.63-1.8,1.23-2.72,1.93a7.9,7.9,0,0,0-1.52,1.2c-1.35,1.05-2.73,2.2-4.08,3.42a83.61,83.61,0,0,0-12.52,14.24s-12.38,27.76-14.72,48c-.26,2.24-1.42,4.71-1.39,6.71l20.5-.32c0,2.14,0,4.16-.06,6.14-.14,10.76-.49,19.13-.84,24.59h181c-.36-5.45-.75-13.83-.91-24.59C2932,1031.68,2932,1029.65,2932,1027.51Z"/><path class="cls-59" d="M2774.06,670.58s90.84-46.34,124.46,46.39C2898.52,717,2912.09,575.32,2774.06,670.58Z"/><path class="cls-59" d="M2787.06,628.43s-14.15,38.15-7.64,49c0,0-43.75,20.5-47.95,110.92h0S2687.46,662.45,2787.06,628.43Z"/><g id="_Group_7" data-name="&lt;Group&gt;"><path id="_Path_58" data-name="&lt;Path&gt;" class="cls-64" d="M2919.12,747.73c-.38-.17-.8-.39-1.25-.62a28.34,28.34,0,0,0-4.57-2,62.61,62.61,0,0,0-9.41-2.74,75.87,75.87,0,0,0-11.85-1.24,72.78,72.78,0,0,0-12,1,57.46,57.46,0,0,0-9.68,2.6,34.55,34.55,0,0,0-8.17,4l-.05,0a1.47,1.47,0,0,0-.1,2.49c.51.42,1,2.31,1.87,2.38h0a4.45,4.45,0,0,0,2.3-.39h0a58.49,58.49,0,0,1,7.48-2.78,69.72,69.72,0,0,1,8.3-2,60.49,60.49,0,0,1,10-1.07,68.67,68.67,0,0,1,10.26.3l1.55.21,3.3.44c.95.11,1.85.31,2.72.5.51.11,1,.22,1.5.31,2.11.39,3.88.85,5.3,1.23l1,.27,7.1.06Z"/></g><g id="_Group_8" data-name="&lt;Group&gt;"><path id="_Path_59" data-name="&lt;Path&gt;" class="cls-64" d="M2764.37,748c.38-.17.8-.39,1.25-.62a28.34,28.34,0,0,1,4.57-2,62.61,62.61,0,0,1,9.41-2.74,75.87,75.87,0,0,1,11.85-1.24,72.78,72.78,0,0,1,12,1,57.46,57.46,0,0,1,9.68,2.6,34.55,34.55,0,0,1,8.17,4l.05,0a1.47,1.47,0,0,1,.1,2.49c-.51.42-1,2.31-1.87,2.38h0a4.45,4.45,0,0,1-2.3-.39h0a58.49,58.49,0,0,0-7.48-2.78,69.72,69.72,0,0,0-8.3-2,60.49,60.49,0,0,0-10-1.07,68.67,68.67,0,0,0-10.26.3l-1.55.21-3.3.44c-.95.11-1.85.31-2.72.5-.51.11-1,.22-1.5.31-2.11.39-3.88.85-5.3,1.23l-1,.27-7.1.06Z"/></g><path class="cls-59" d="M2774.06,681s110-80.6,121.59,36.56c0,0,16.88,74.86,70,68.41,0,0,32.53-74.66-30.25-152.6,0,0-44.39-56.29-109.34-36C2826,597.42,2762.15,619.76,2774.06,681Z"/><path class="cls-59" d="M2907.58,781.85c2.08,6.77,4.93,13,11.54,14.56a14.85,14.85,0,0,0-1.31,18.62,14.95,14.95,0,0,0-5,25.55,14.94,14.94,0,0,0,1.87,24.09,14.93,14.93,0,0,0-1.9,24.05A14.95,14.95,0,0,0,2915,913a14.93,14.93,0,0,0-4.06,27.36,14.93,14.93,0,0,0,3.62,27.25,14.94,14.94,0,0,0,4.37,27.16,14.95,14.95,0,0,0,6.29,28.51,14.75,14.75,0,0,0,6.34-1.43,14.95,14.95,0,0,0,23.15,17.85,178.36,178.36,0,0,1,40.15,19.31,14.94,14.94,0,0,0,14.9-13.75,14.95,14.95,0,0,0,22.25-13.05,15.08,15.08,0,0,0-.47-3.64l.47,0a14.95,14.95,0,0,0,9.28-26.68,14.95,14.95,0,0,0,9.62-28,14.95,14.95,0,0,0-1.31-29.13,14.94,14.94,0,0,0-10.26-25.63,14.94,14.94,0,0,0-6.95-25.42,14.94,14.94,0,0,0-12.19-23.59l-.29,0a14.94,14.94,0,0,0-7-25.64,14.94,14.94,0,0,0-9.16-22,14.95,14.95,0,0,0-4.65-18.5,15,15,0,0,0-4.54-26.39,14.91,14.91,0,0,0-2.74-23.57,14.94,14.94,0,0,0-2.71-24.2,15,15,0,0,0-8.41-24.07,14.95,14.95,0,0,0-10.61-25.49H2970a14.8,14.8,0,0,0,.15-2,15,15,0,0,0-15-15S2897.34,748.68,2907.58,781.85Z"/><path class="cls-65" d="M2872,865.15s-13.63,10.07-30.42,10.07-29.58-9.86-29.58-9.86,12.75-.8,29.52-.8,30.48.59,30.48.59"/><path class="cls-66" d="M2850.22,860.52c-4.74,0-8.51,2-8.63,4.55-.05-2.55-3.85-4.55-8.57-4.55s-21.81,4.63-21.81,4.63,16.64,1.2,21.37,1.2,9,1.32,9-1.16c.08,2.48,3.52,1.49,8.26,1.49s22.16-1.53,22.16-1.53-17-4.63-21.79-4.63"/><polygon class="cls-67" points="2722.65 823.47 2708.96 833.05 2710.41 849.7 2725.55 856.77 2739.24 847.19 2737.79 830.54 2722.65 823.47"/><rect class="cls-68" x="10" y="555" width="504" height="504"/><path class="cls-69" d="M263.84,849.86V1059H150.29a28.1,28.1,0,0,0-2.9-1.18c0-86.26,41.11-111.17,60.14-118.07a45.75,45.75,0,0,1,9.46-2.56c6.95,0,11.32-8.87,14.35-22.43.45-2.07.85-4.22,1.18-6.52.65-3.82,1.11-7.92,1.6-12.13.15-2.56.46-5.12.7-7.75,1.06-12.9,1.37-26.85,1.37-40,0,0,15.28,1.53,27.64,1.53"/><path class="cls-22" d="M380.56,1057.82a20.43,20.43,0,0,0-2.71,1.18h-114V849.86h.22c12.36,0,27.73-1.53,27.73-1.53,0,13.17.22,27,1.33,39.74.16,2.55.5,5.07.74,7.46.48,4.47.84,8.65,1.5,12.54v.08c.32,1.74.56,3.33,1,4.94,2.94,14.36,7.55,24.09,14.75,24.09a54.4,54.4,0,0,1,14.28,4.46c20.41,9.33,55.21,36.76,55.21,116.17"/><g class="cls-70"><path class="cls-18" d="M295.39,908v.09A36.69,36.69,0,0,1,264,925.27h-.16c-18.07-.09-28.59-13.27-31.3-17.07.64-3.82,1.18-7.91,1.58-12.13.23-2.56.46-5.11.72-7.71a126.39,126.39,0,0,0,28.66,3.73h.33a117.9,117.9,0,0,0,29.3-4c.22,2.51.47,5.07.7,7.54.49,4.43,1,8.57,1.59,12.45"/></g><path class="cls-69" d="M261.71,609.94c-120.27,0-121,100.79-115.61,166.8-8.24-15.61-32.64-10.79-30.66,13.83,1.93,23.73,36.41,36,35.92,33.26,9.89,54.3,66.48,85.67,110.35,85.67.3,0,.63,0,.91,0V609.94h-.91"/><path class="cls-18" d="M123.13,780.14c6-9.49,15.11-5.39,17.37-3.28s4.31,5.27,2.8,10.9c-.81,3.16-4.15,3.41-3.33,8.24.89,5.39,3.39,5.76,4.8,7s3.19,2.14,4.07,4.45a12.22,12.22,0,0,1,.54,6.77c-.95,3.89-6.62.81-10.39-.93-2.5-1.14-10.44-7.87-12.44-10.11-5-5.71-7.4-16.66-3.43-23"/><path class="cls-22" d="M262.3,609.94c120.26,0,121,100.79,115.61,166.8,8.24-15.61,32.67-10.79,30.64,13.83-1.91,23.73-36.39,36-35.92,33.26-9.85,54.3-66.43,85.67-110.33,85.67-.3,0-.6,0-.91,0V609.94h.91"/><path class="cls-24" d="M400.9,780.14c-6-9.49-15.13-5.39-17.41-3.28s-4.26,5.27-2.81,10.9c.85,3.16,4.17,3.41,3.37,8.24-.9,5.39-3.38,5.76-4.82,7s-3.16,2.14-4.05,4.45a11.82,11.82,0,0,0-.52,6.77c.89,3.89,6.55.81,10.36-.93,2.5-1.14,10.42-7.87,12.43-10.11,5.06-5.71,7.4-16.66,3.45-23"/><path class="cls-69" d="M263.07,638.35c-39.57,0-68.53,11.52-86.06,34.23-24.51,31.72-23.58,80.18-14.53,115,2.77,10.63,4.18,39.3,6.09,49.8,8.52,47.09,60.36,72.12,94.5,72.12.28,0,.61,0,.92,0V638.38c-.31,0-.61,0-.92,0"/><path class="cls-22" d="M349,672.62c-17.41-22.56-46-34-85-34.24V909.44c39-.39,85.56-27.86,93.58-72.08,1.9-10.5,3.32-39.17,6.07-49.8,9-34.68,9.88-83.1-14.68-114.94"/><path class="cls-1" d="M301.57,658.42s-8.48-6.95-24.07-11.41A142.38,142.38,0,0,1,301.57,658.42Z"/><path class="cls-1" d="M155,728.94a64.67,64.67,0,0,0-2.28,11.39,166.57,166.57,0,0,1,5-16A21.88,21.88,0,0,0,155,728.94Z"/><path class="cls-71" d="M227.56,647.2l-.48.51,0,.12C227.27,647.62,227.41,647.38,227.56,647.2Z"/><path class="cls-72" d="M396.47,705.06a29.35,29.35,0,0,0-2.56-4.74c-2.31-16.59-14.53-49.83-26.52-66.5-12.46-17.34-43-32.69-82.26-37.28s-73.45,22.1-73.45,22.1-6.07-8.68-11.28-11.23-20.11.48-20.11.48,10.11,2.74,12.1,5.29a10,10,0,0,1,2,9.37s-11.83-4.93-17-5c-9.52-.26-20.2,11.32-20.2,11.32s8.92-6,17.43-5.81c2.79.08,10.51,3.61,10.51,3.61s-14.05,1.44-40.41,29.15c-19.9,20.92-19.9,48.55-19.9,48.55l16.67-9.18a42.39,42.39,0,0,0-6.44,9.91c-12.27,29.35,4.53,58.81,4.53,58.81s5.49.52,10.5,11.81c6.77,15.32,11,34.27,11,34.27H167s-12.63-47.26-4.12-73c2.35-7.08,8.7-21.62,17.54-22.11,0,0,5.82-4.9,8.42-14.64s16.11-26,23.4-29,11.44,1.52,11.44,1.52,11.44-8.66,32.24-12.23,32.21,17.85,36.77,29.08,2.2,16.83,2.2,16.83,8.87-13.77,7.82-27.56a32.75,32.75,0,0,0-2.39-10.49c2.71,1.32,14.54,4.49,17,34,1.16,14-12,23.47-12,23.47s29.2-11.62,23.17-47.47c6.23,6.42,12.62,15.53,14.31,21.91,2.6,9.74,24.48,32.31,25.95,36.75,8.52,25.73-4.1,73-4.1,73h5.85s4.24-19,11-34.27c5-11.3,10.5-11.81,10.5-11.81S408.77,734.41,396.47,705.06Zm-99.15-42c-.15-.18-.3-.39-.45-.57l.49.46Z"/><path id="_Path_60" data-name="&lt;Path&gt;" class="cls-28" d="M288.62,857.75c-3.51-.15-7.12,2.33-11.35,2a.91.91,0,0,0-.44-.07,8.48,8.48,0,0,0-3,.22,36.66,36.66,0,0,0-3.87,1,21.1,21.1,0,0,1-6.94.89h-.27a21.09,21.09,0,0,1-6.94-.89,36.67,36.67,0,0,0-3.87-1,8.48,8.48,0,0,0-3-.22.91.91,0,0,0-.44.07c-4.23.38-7.83-2.1-11.35-2-1,.07-2.38-.15-3.17-.15l.53.22c10,4.13,18.66,11.87,28.23,11.62H263c9.57.25,18.21-7.49,28.23-11.62l.53-.22C291,857.6,289.59,857.82,288.62,857.75Z"/><path class="cls-29" d="M291.56,857.51h0s-10.18-3.32-17.43-1.37a51.16,51.16,0,0,1-5.49,1.43,17.12,17.12,0,0,1-5.75.65h0a37.48,37.48,0,0,1-4.16-.39c-.4-.05-.79-.12-1.19-.19l-.45-.08-.72-.14-.42-.09h0c-2.32-.53-4.3-1.19-4.3-1.19-7.24-1.95-17.43,1.37-17.43,1.37h0l-.23.09c.79,0,2.2.22,3.17.15,2.89-.12,5.84,1.53,9.15,1.91a85.28,85.28,0,0,0,12.23,1.85,17.79,17.79,0,0,0,4.21.27H263a16.18,16.18,0,0,0,2.41,0,48.69,48.69,0,0,0,14.21-2.11h0c3.23-.42,6.13-2,9-1.89,1,.07,2.38-.15,3.17-.15Z"/><path id="_Path_61" data-name="&lt;Path&gt;" class="cls-12" d="M170.63,751.67s11.21,22.27,28.34,24.56,35.36-.73,35.36-.73-1.06-22.86-10-26.48S196,740.14,170.63,751.67Z"/><path id="_Path_62" data-name="&lt;Path&gt;" class="cls-73" d="M219.63,760.6c-.81,8.74-8.3,15.31-16.73,14.68s-14.61-8.2-13.79-16.91,8.3-15.33,16.74-14.7A15.24,15.24,0,0,1,219.63,760.6Z"/><path id="_Path_63" data-name="&lt;Path&gt;" class="cls-14" d="M203.9,768.44c-3.13-.23-6.32-3.78-5.92-8.22s4.23-7.45,7.36-7.23,6.33,3.78,5.92,8.22S207,768.66,203.9,768.44Z"/><path id="_Path_64" data-name="&lt;Path&gt;" class="cls-31" d="M234.36,775.43s-.38,0-1.25.2c-.68-7.91-2.68-18.83-8.24-21.08-8.28-3.44-26.83-8.48-50.54,3.12a49.45,49.45,0,0,1-3.68-6.07c25.8-14.75,46.2-9.27,55-5.62S234.36,775.43,234.36,775.43Z"/><path id="_Path_65" data-name="&lt;Path&gt;" class="cls-12" d="M361.51,753s-10.84,21.83-27.94,23.83-35.38-1.23-35.38-1.23,2.06-20.77,10.92-24.23S335,741.9,361.51,753Z"/><path id="_Path_66" data-name="&lt;Path&gt;" class="cls-73" d="M309.18,761a16.6,16.6,0,0,0,17.46,15.15,15.77,15.77,0,0,0,14.41-17.45,16.61,16.61,0,0,0-17.48-15.17A15.76,15.76,0,0,0,309.18,761Z"/><path id="_Path_67" data-name="&lt;Path&gt;" class="cls-14" d="M325.61,769.09c3.27-.24,6.6-3.88,6.18-8.47s-4.42-7.69-7.69-7.46-6.6,3.9-6.18,8.47S322.34,769.32,325.61,769.09Z"/><path id="_Path_68" data-name="&lt;Path&gt;" class="cls-21" d="M298.17,775.56s.38.06,1.25.24c.55-7.83,2.37-18.57,7.91-20.7,8.23-3.28,26.69-8,50.58,3.82a47.26,47.26,0,0,0,3.6-5.95c-26-15-46.36-9.83-55.13-6.37S298.17,775.56,298.17,775.56Z"/><path id="_Path_69" data-name="&lt;Path&gt;" class="cls-18" d="M246.52,818.29c-.36-7.29,13.36-2.66,17.88-2.44,3.57.18,14.44-2.3,15.37-1.66,6.39,4.32-6.77,13-15.6,13C261.81,827.23,246.73,822.69,246.52,818.29Z"/><g id="_Group_9" data-name="&lt;Group&gt;"><path id="_Path_70" data-name="&lt;Path&gt;" class="cls-17" d="M235.34,741.93a30.47,30.47,0,0,0-6.63-6.79,38,38,0,0,0-8.24-4.93,42.58,42.58,0,0,0-10.6-2.93,44.5,44.5,0,0,0-10.91.3,41.69,41.69,0,0,0-8.87,2.71,22.35,22.35,0,0,0-4.53,2.28c-.45.28-.87.53-1.28.76l-5.65,3.56,6.51-1.53,1-.26a43.19,43.19,0,0,1,5-1.09c.46-.07.93-.16,1.41-.26a17.11,17.11,0,0,1,2.55-.38l3.06-.22,1.37-.1a39.26,39.26,0,0,1,9.36.85,35.58,35.58,0,0,1,8.79,2.76,45.7,45.7,0,0,1,7.13,4,44.13,44.13,0,0,1,6.21,4.91h0a2.83,2.83,0,0,0,2,.84,2.79,2.79,0,0,0,1.54-.46,2.86,2.86,0,0,0,.84-3.91Z"/><path id="_Path_71" data-name="&lt;Path&gt;" class="cls-17" d="M343.19,733.3c-.37-.2-.79-.45-1.24-.73a22.16,22.16,0,0,0-4.47-2.26,42,42,0,0,0-9-2.74,44.36,44.36,0,0,0-10.88-.29A42.62,42.62,0,0,0,307,730.22a38.54,38.54,0,0,0-8.24,4.93,30.48,30.48,0,0,0-6.61,6.78l0,.06a2.88,2.88,0,0,0,.37,3.57,2.8,2.8,0,0,0,2,.84h0a2.8,2.8,0,0,0,2-.84l0,0a44.31,44.31,0,0,1,6.22-4.9,45.78,45.78,0,0,1,7.09-3.95,35.79,35.79,0,0,1,8.84-2.78,39.42,39.42,0,0,1,9.28-.85l1.44.1,3,.21a17.11,17.11,0,0,1,2.54.37c.48.1.94.19,1.4.26a43.21,43.21,0,0,1,5,1.09l1,.26,6.51,1.53Z"/></g><path class="cls-74" d="M381.77,1057.81A20,20,0,0,0,379,1059H150a26.67,26.67,0,0,0-2.91-1.19c0-46.08,12.89-78,28.93-96.64,14.94-17.38,33.42-23.52,42.21-24.75,12.24-1.72,18.3,15.84,24.75,18.77,4.95,2.19,12.12,7.52,21.45,7.44,8.64-.16,19.1-5.5,31.59-9.46,11.54-3.67,4.78-18.41,14.18-16.87,10.88,1.78,27.53,8,42.19,24.9,16.56,19.11,29.41,53.72,29.41,96.61"/><path class="cls-75" d="M306.22,929.25c-1.7-4.34-5.7-8.38-7.18-11.84-2.45-5.72-4.67-10.76-4.67-10.76-.55,5.44-8.94,29.74-8.94,29.74s-26.24,28.32-22.15,29.22,23.61,10.06,29.16,16.6,4.68,12.67,6.14,3.82,12.11-45.15,7.63-56.79"/><path class="cls-75" d="M242.54,936.4s-8.38-24.3-8.92-29.74c0,0-2.25,5-4.69,10.76-1.45,3.45-5.51,7.5-7.19,11.84-4.45,11.63,6.21,47.89,7.66,56.79s.52,2.74,6.1-3.82,24.36-15.53,28.48-16.45-21.43-29.37-21.43-29.37"/><rect class="cls-45" x="1582" y="555" width="504" height="504"/><path class="cls-76" d="M1879.61,642.57c20.44-11.55,52.78-3.25,65.84,17,12.68,19.6-.44,42.74,14.43,63.62,12.79,18,30.46,41.75,23.44,65.44-5.46,18.39-23.43,57.25-47.13,50.13-6.31-1.9-12.87-11.21-17.55-15.36-9.84-8.69-22.11-17.4-30-27.74-10.8-14.13-17.79-38.56-12.17-55.18,7.45-22,20.59-29.47,9.89-50.77-7.07-14.07-12.85-28.7-7.27-43.77"/><path class="cls-77" d="M1816.36,856.65v200h-112c-1.76-.84-2.67-1.15-2.67-1.15,0-29.73,5.12-51.91,12.51-68.3,12.2-27.06,30.57-38.65,42.47-43.54a46.65,46.65,0,0,1,11.58-3.44h.53a7.69,7.69,0,0,0,1.45-.3c5.48-1.6,9.22-9.6,11.74-21.19.46-2.05.84-4,1.15-6.24.6-3.67,1.14-7.56,1.51-11.66.24-2.36.46-4.8.7-7.33,1-12.35,1.3-25.69,1.3-38.26C1786.57,855.21,1804.55,856.65,1816.36,856.65Z"/><path class="cls-22" d="M1924.78,1055.47a18.09,18.09,0,0,0-2.59,1.15H1813v-200h.23c11.81,0,26.53-1.44,26.53-1.44,0,12.57.29,25.76,1.29,38l.68,7.24c.47,4.2.93,8.16,1.53,11.82v.16c.23,1.66.54,3.19.85,4.72,2.28,11.22,5.63,19.44,10.52,22.19a6.76,6.76,0,0,0,1.15.46,6.58,6.58,0,0,0,2.43.45s33.61,4,53.05,44.84C1919.22,1001.66,1924.78,1024.36,1924.78,1055.47Z"/><path class="cls-78" d="M1843.28,901.29v.08a35.16,35.16,0,0,1-30.12,16.39H1813c-17.3-.06-27.37-12.66-30-16.32.6-3.66,1.14-7.55,1.51-11.58.23-2.44.46-4.89.7-7.4a119.3,119.3,0,0,0,27.44,3.59h.31a113.5,113.5,0,0,0,28.05-3.88l.68,7.23C1842.23,893.6,1842.66,897.55,1843.28,901.29Z"/><g class="cls-79"><path class="cls-18" d="M1845.1,922.68v.07c-2.84,4.09-12.62,15.71-31.93,15.71H1813c-18.34-.07-29-12.15-31.77-15.63.66-3.49,1.22-7.25,1.61-11.11.26-2.34.49-4.69.74-7.06a142.71,142.71,0,0,0,29.12,3.42h.3a129.71,129.71,0,0,0,29.75-3.76c.26,2.34.5,4.68.74,6.94.48,4,.95,7.81,1.61,11.41"/></g><path class="cls-77" d="M1812.93,649.73c-113.46-.21-114.12,91-109.07,150.43-7.8-14-22.49-9.35-20.61,13,1.81,21.39,26,31.66,25.58,29.32,9.28,48.43,62.77,75.34,104.09,79.17.29,0,.6,0,.88,0V649.76Z"/><path class="cls-18" d="M1687.74,805.22c3.09-6.62,8.37-3.42,9.71-1.86s2.56,3.92,1.89,7.9c-.39,2.24-2.25,2.31-1.66,5.77.65,3.9,2.08,4.22,2.91,5.14a8.56,8.56,0,0,1,2.41,3.3,10.86,10.86,0,0,1,.48,4.87c-.41,2.76-3.68.38-5.87-1-1.43-.89-6.1-5.92-7.29-7.62C1687.31,817.55,1685.69,809.63,1687.74,805.22Z"/><path class="cls-22" d="M1813.5,649.73c113.46-.21,114.12,91,109.07,150.43,7.79-14,21.07-9.1,19.19,13.24-1.81,21.39-24.6,31.41-24.15,29.07-9.29,48.43-62.76,75.34-104.1,79.17-.29,0-.6,0-.86,0V649.76Z"/><path class="cls-24" d="M1935.13,805c-3.58-7.39-8.44-4.65-9.59-3.16s-2.13,3.83-1.13,8.13c.57,2.41,2.4,2.72,2.13,6.31-.29,4-1.64,4.21-2.37,5.08a6.69,6.69,0,0,0-2.06,3.2,12.24,12.24,0,0,0,0,5.09c.65,3,3.62.86,5.63-.29,1.33-.77,5.41-5.51,6.42-7.16C1936.66,818.08,1937.53,809.9,1935.13,805Z"/><path class="cls-77" d="M1812.34,656.55c-37.9,0-65.62,10.45-82.42,31.07-23.44,28.79-22.55,72.8-13.9,104.38,2.64,9.67,4,35.67,5.82,45.23,8.18,42.7,57.8,65.46,90.49,65.46.28,0,.59,0,.88,0V656.57Z"/><path class="cls-22" d="M1894.58,687.67c-16.66-20.49-44.08-30.94-81.37-31.1V902.66c37.32-.38,81.92-25.31,89.6-65.42,1.81-9.56,3.16-35.57,5.82-45.23C1917.25,760.51,1918.1,716.56,1894.58,687.67Z"/><path class="cls-80" d="M1838.69,869.42s-11.66,14.19-26.05,14.19-25.38-13.88-25.38-13.88a146.67,146.67,0,0,1,25.38-2.15A186,186,0,0,1,1838.69,869.42Z"/><path class="cls-81" d="M1820,862.88c-4.07,0-7.32,2.88-7.4,6.43-.07-3.55-3.32-6.43-7.35-6.43s-18.69,6.54-18.69,6.54,14.24,1.71,18.33,1.71,7.64,1.83,7.72-1.61c.06,3.45,3,2.12,7,2.12s19-2.22,19-2.22S1824.11,862.88,1820,862.88Z"/><path id="_Path_72" data-name="&lt;Path&gt;" class="cls-18" d="M1801.31,825.38c-.23-3.22,8.66-1.18,11.59-1.08,2.32.08,9.36-1,10-.73,4.15,1.91-4.39,5.76-10.12,5.76C1811.23,829.33,1801.45,827.32,1801.31,825.38Z"/><path id="_Path_73" data-name="&lt;Path&gt;" class="cls-12" d="M1734.48,768.07s9.35,18.58,23.64,20.49,29.5-.61,29.5-.61-.75-18.23-8.18-21.25S1757.26,761.36,1734.48,768.07Z"/><path id="_Path_74" data-name="&lt;Path&gt;" class="cls-82" d="M1775.35,775.52a13.31,13.31,0,0,1-14,12.25,12.69,12.69,0,0,1-11.51-14.11,13.32,13.32,0,0,1,14-12.27A12.71,12.71,0,0,1,1775.35,775.52Z"/><path id="_Path_75" data-name="&lt;Path&gt;" class="cls-14" d="M1762.23,782.06c-2.61-.19-5.27-3.16-4.94-6.86s3.53-6.22,6.14-6,5.28,3.16,4.94,6.86S1764.85,782.25,1762.23,782.06Z"/><path id="_Path_76" data-name="&lt;Path&gt;" class="cls-18" d="M1787.64,787.9s-.32,0-1,.17c-.56-6.6-2.23-15.71-6.87-17.58-6.91-2.87-22.38-7.07-42.16,2.6a41.25,41.25,0,0,1-3.07-5.06c21.52-12.3,38.54-7.73,45.91-4.69S1787.64,787.9,1787.64,787.9Z"/><path id="_Path_77" data-name="&lt;Path&gt;" class="cls-12" d="M1890.8,770.58s-9,18.21-23.31,19.88-29.51-1-29.51-1,1.72-17.37,9.11-20.26S1868.9,761.36,1890.8,770.58Z"/><path id="_Path_78" data-name="&lt;Path&gt;" class="cls-82" d="M1847.15,777.23a13.85,13.85,0,0,0,14.57,12.63,13.15,13.15,0,0,0,12-14.56,13.85,13.85,0,0,0-14.58-12.65A13.15,13.15,0,0,0,1847.15,777.23Z"/><path id="_Path_79" data-name="&lt;Path&gt;" class="cls-14" d="M1860.86,784c2.73-.2,5.51-3.24,5.16-7.06s-3.69-6.42-6.41-6.22-5.51,3.26-5.16,7.06S1858.13,784.16,1860.86,784Z"/><path id="_Path_80" data-name="&lt;Path&gt;" class="cls-18" d="M1838,789.36s.32.05,1,.2c.46-6.53,2-15.49,6.59-17.26,6.86-2.73,22.26-6.67,42.2,3.19a39.43,39.43,0,0,0,3-5c-21.72-12.47-38.67-8.2-46-5.32S1838,789.36,1838,789.36Z"/><g id="_Group_10" data-name="&lt;Group&gt;"><path id="_Path_81" data-name="&lt;Path&gt;" class="cls-41" d="M1782.21,751.5a31.25,31.25,0,0,0-7.42-6.27,45.27,45.27,0,0,0-9.23-4.55,55.84,55.84,0,0,0-11.88-2.71,60.37,60.37,0,0,0-12.22.27,54.28,54.28,0,0,0-9.94,2.5,27.41,27.41,0,0,0-5.08,2.11c-.51.26-1,.49-1.44.7l-6.33,3.29,7.3-1.42,1.1-.24c1.51-.33,3.39-.74,5.59-1,.52-.06,1-.15,1.58-.24a23,23,0,0,1,2.86-.35l3.43-.2,1.53-.09a53.06,53.06,0,0,1,10.49.79,46.22,46.22,0,0,1,9.85,2.56,55.13,55.13,0,0,1,8,3.67,48.9,48.9,0,0,1,7,4.53h0a3.54,3.54,0,0,0,2.25.77,3.62,3.62,0,0,0,1.73-.43,2.37,2.37,0,0,0,.95-3.62Z"/><path id="_Path_82" data-name="&lt;Path&gt;" class="cls-41" d="M1900.22,744.22c-.42-.18-.88-.42-1.39-.68a27.18,27.18,0,0,0-5-2.09,54.67,54.67,0,0,0-10-2.53,60.18,60.18,0,0,0-12.2-.27,55.88,55.88,0,0,0-11.87,2.71,45.89,45.89,0,0,0-9.23,4.55,31.28,31.28,0,0,0-7.41,6.26l0,.05a2.32,2.32,0,0,0,.41,3.3,3.5,3.5,0,0,0,2.25.78h0a3.49,3.49,0,0,0,2.24-.78l0,0a49.15,49.15,0,0,1,7-4.53,55.22,55.22,0,0,1,7.95-3.65,46.5,46.5,0,0,1,9.9-2.57,53.28,53.28,0,0,1,10.4-.78l1.61.1,3.42.2a23,23,0,0,1,2.85.35c.53.09,1.06.17,1.57.24,2.2.27,4.08.68,5.59,1l1.11.24,7.29,1.42Z"/></g><path class="cls-76" d="M1752.08,621.8s-98.74,31.67-56,150.72c0,0,6.41-95.89,70.3-96.6Z"/><path class="cls-76" d="M1753.2,652.54S1772,710,1860.82,740.2c0,0,43.5,8.39,52.58,36.33,0,0,27.11-87-.8-131.18,0,0-67.25-96.22-159.4-27.54C1753.2,617.8,1736.3,624.34,1753.2,652.54Z"/><path class="cls-83" d="M1695.95,1059c0-83,41.38-107.5,61.06-114.47,12.82,13.38,38.19,31.84,57.79,32.75h.55c.08,0,.25.09.42,0,19.68-.91,45.06-19.43,57.88-32.83,19.58,6.89,61.21,31.29,61.21,114.56"/><path class="cls-76" d="M1705.45,729.37s-16.13,180.52,50.36,234.35c0,0-78.34-31.82-55.79-234.35Z"/><path class="cls-76" d="M1916.76,729.37s16.14,180.52-50.36,234.35c0,0,78.34-31.82,55.79-234.35Z"/><rect class="cls-34" x="1582" y="31" width="504" height="504"/><path class="cls-84" d="M1826.77,354.19a7.54,7.54,0,0,0-.91,3.55v3.34a7.56,7.56,0,1,0,15.12,0v-3.34a7.54,7.54,0,0,0-.91-3.55,63.72,63.72,0,0,0-13.29,0Z"/><path class="cls-85" d="M1832.37,330.08v204.1H1721.7L1719,533c0-109.48,67.74-117.64,67.74-117.64,6.8,0,11.1-8.7,14-21.93.48-2.06.87-4.14,1.19-6.41q.95-5.59,1.53-11.84c.24-2.45.48-4.94.71-7.53,1-12.54,1.31-26.15,1.31-39.05,0,0,14.92,1.46,26.93,1.46"/><path class="cls-86" d="M1946.19,533s-1,.4-2.63,1.2H1832.37V330.08h.23c12,0,27-1.46,27-1.46,0,12.83.32,26.28,1.34,38.75.23,2.5.48,5,.71,7.41.44,4.27.9,8.31,1.54,12.11V387c.23,1.71.56,3.29.87,4.83,2.84,14.1,7.34,23.59,14.32,23.59,0,0,67.79,8.16,67.79,117.64"/><g class="cls-87"><path class="cls-88" d="M1863.21,386.88V387a35.84,35.84,0,0,1-30.68,16.75h-.16c-17.6-.08-27.83-12.93-30.48-16.67q.95-5.59,1.53-11.84c.24-2.45.48-4.94.71-7.53a120.5,120.5,0,0,0,27.92,3.65h.32a114.31,114.31,0,0,0,28.58-4c.23,2.5.48,5,.71,7.41.44,4.27.9,8.31,1.54,12.11"/></g><path class="cls-85" d="M1832.72,96c-117.26,0-117.93,98.4-112.72,162.76-8-15.24-31.82-10.53-29.88,13.49,1.9,23.2,35.49,35.15,35,32.47,9.64,53,64.79,83.63,107.59,83.63.27,0,.6-.07.87-.07V96h-.87"/><path class="cls-89" d="M1697.61,262.11c5.81-9.3,14.74-5.3,16.94-3.23s4.19,5.17,2.71,10.63c-.79,3.09-4.06,3.33-3.22,8,.86,5.26,3.31,5.61,4.66,6.8s3.11,2.09,4,4.35a12.13,12.13,0,0,1,.52,6.62c-.91,3.81-6.45.79-10.11-.9-2.45-1.11-10.19-7.64-12.16-9.86-4.9-5.57-7.19-16.25-3.32-22.44"/><path class="cls-86" d="M1833.28,96c117.26,0,117.93,98.4,112.72,162.76,8-15.24,31.82-10.53,29.85,13.49-1.86,23.2-35.5,35.15-35,32.47-9.58,53-64.74,83.63-107.54,83.63-.28,0-.59-.07-.91-.07V96h.91"/><path class="cls-89" d="M1968.38,262.11c-5.8-9.3-14.77-5.3-16.93-3.23-2.33,2.2-4.19,5.17-2.76,10.63.82,3.09,4.07,3.33,3.27,8-.87,5.26-3.27,5.61-4.7,6.8s-3.07,2.09-3.94,4.35a11.69,11.69,0,0,0-.52,6.62c.9,3.81,6.4.79,10.11-.9,2.46-1.11,10.2-7.64,12.13-9.86,4.94-5.57,7.22-16.25,3.35-22.44"/><path class="cls-85" d="M1831.7,123.73c-38.58,0-66.81,11.21-83.9,33.41-23.89,30.95-23,78.26-14.18,112.17,2.69,10.41,4.07,38.36,5.92,48.65,8.33,45.9,58.87,70.37,92.16,70.37.27,0,.59,0,.86,0V123.73h-.86"/><path id="_Path_83" data-name="&lt;Path&gt;" class="cls-90" d="M1854.69,337c-3.08-.13-6.24,2-9.94,1.71a.8.8,0,0,0-.38-.06,7.42,7.42,0,0,0-2.62.19,32.11,32.11,0,0,0-3.39.92,18.48,18.48,0,0,1-6.08.78H1832a18.48,18.48,0,0,1-6.08-.78,32.12,32.12,0,0,0-3.39-.92,7.42,7.42,0,0,0-2.62-.19.8.8,0,0,0-.38.06c-3.7.33-6.86-1.84-9.94-1.71-.85.06-2.09-.13-2.78-.13l.47.19c8.77,3.62,16.34,10.39,24.72,10.18h.24c8.38.22,16-6.56,24.72-10.18l.47-.19C1856.77,336.82,1855.54,337,1854.69,337Z"/><path class="cls-91" d="M1857.26,336.74h0s-8.92-2.91-15.26-1.2a44.8,44.8,0,0,1-4.81,1.25,15,15,0,0,1-5,.57h0a32.83,32.83,0,0,1-3.65-.34c-.35,0-.69-.1-1-.17l-.4-.07-.63-.12-.37-.08h0c-2-.46-3.77-1-3.77-1-6.34-1.71-15.26,1.2-15.26,1.2h0l-.2.08c.69,0,1.93.19,2.78.13,2.53-.11,5.12,1.34,8,1.67a74.69,74.69,0,0,0,10.71,1.62,15.58,15.58,0,0,0,3.69.23h.24a14.17,14.17,0,0,0,2.11,0,42.64,42.64,0,0,0,12.45-1.85h0c2.83-.37,5.37-1.76,7.85-1.66.85.06,2.08-.13,2.78-.13Z"/><path id="_Path_84" data-name="&lt;Path&gt;" class="cls-92" d="M1817.31,296.11c-.31-6.29,11.52-2.3,15.42-2.1,3.08.16,12.45-2,13.26-1.43,5.51,3.73-5.84,11.24-13.45,11.24C1830.5,303.82,1817.49,299.91,1817.31,296.11Z"/><path id="_Path_85" data-name="&lt;Path&gt;" class="cls-12" d="M1911,242.52s-9.52,17.63-24.76,19.14-31.56-1.24-31.56-1.24,1.75-16.48,9.62-19.23S1887.33,236,1911,242.52Z"/><path id="_Path_86" data-name="&lt;Path&gt;" class="cls-13" d="M1864.42,248.64c.81,7.31,7.84,12.85,15.68,12.4s13.55-6.76,12.73-14.06-7.84-12.87-15.69-12.42S1863.58,241.33,1864.42,248.64Z"/><path id="_Path_87" data-name="&lt;Path&gt;" class="cls-14" d="M1879.12,255.29a6.18,6.18,0,0,0,5.46-6.82,7.05,7.05,0,0,0-6.91-6.1,6.19,6.19,0,0,0-5.46,6.82A7.05,7.05,0,0,0,1879.12,255.29Z"/><path id="_Path_88" data-name="&lt;Path&gt;" class="cls-16" d="M1854.69,260.35s.34.05,1.12.21c.43-6.34,2-15,6.91-16.73,7.32-2.6,23.74-6.3,45.13,3.44a36.91,36.91,0,0,0,3.17-4.8c-23.32-12.3-41.41-8.29-49.21-5.54S1854.69,260.35,1854.69,260.35Z"/><path id="_Path_89" data-name="&lt;Path&gt;" class="cls-12" d="M1752.24,241.1s10.15,18.14,25.44,20.1,31.53-.35,31.53-.35-1.12-17.42-9.09-20.42S1775.57,233.78,1752.24,241.1Z"/><path id="_Path_90" data-name="&lt;Path&gt;" class="cls-13" d="M1796,248.68c-.66,7.08-7.3,12.36-14.82,11.79s-13.08-6.74-12.41-13.81,7.3-12.38,14.83-11.81S1796.66,241.6,1796,248.68Z"/><path id="_Path_91" data-name="&lt;Path&gt;" class="cls-14" d="M1782,254.93a6.21,6.21,0,0,1-5.33-6.7,6.53,6.53,0,0,1,6.51-5.81,6.2,6.2,0,0,1,5.33,6.7A6.52,6.52,0,0,1,1782,254.93Z"/><path id="_Path_92" data-name="&lt;Path&gt;" class="cls-15" d="M1809.22,260.81s-.34,0-1.12.16c-.66-6.42-2.52-15.29-7.49-17.15-9-3.47-25.35-6.45-45.05,2.19a40.34,40.34,0,0,1-3.32-4.95c22.91-11.78,41.13-7.2,49-4.19S1809.22,260.81,1809.22,260.81Z"/><g id="_Group_11" data-name="&lt;Group&gt;"><path id="_Path_93" data-name="&lt;Path&gt;" class="cls-17" d="M1912.41,224.19c-.37-.25-.77-.57-1.21-.91a23.94,23.94,0,0,0-4.41-2.91,46,46,0,0,0-9.08-4,49.06,49.06,0,0,0-11.43-1.82,46.75,46.75,0,0,0-11.55,1.48,41.35,41.35,0,0,0-9.34,3.83,31.67,31.67,0,0,0-7.88,5.93l-.05.05a2.86,2.86,0,0,0-.09,3.67c.49.62,1,3.4,1.8,3.5h0a3,3,0,0,0,2.22-.57l0,0a46.81,46.81,0,0,1,7.21-4.09,49.26,49.26,0,0,1,8-3,39.18,39.18,0,0,1,9.68-1.57,43.56,43.56,0,0,1,9.89.44l1.5.31,3.18.64a18.88,18.88,0,0,1,2.63.74c.49.16,1,.32,1.45.46a47.55,47.55,0,0,1,5.11,1.81l1,.4,6.85.09Z"/></g><g id="_Group_12" data-name="&lt;Group&gt;"><path id="_Path_94" data-name="&lt;Path&gt;" class="cls-17" d="M1753.82,224.95c.37-.25.77-.57,1.21-.91a23.94,23.94,0,0,1,4.41-2.91,46,46,0,0,1,9.08-4,49.06,49.06,0,0,1,11.43-1.82,46.75,46.75,0,0,1,11.55,1.48,41.35,41.35,0,0,1,9.34,3.83,31.67,31.67,0,0,1,7.88,5.93l.05.05a2.86,2.86,0,0,1,.09,3.67c-.49.62-1,3.4-1.8,3.5h0a3,3,0,0,1-2.22-.57l0,0a46.81,46.81,0,0,0-7.21-4.09,49.26,49.26,0,0,0-8-3,39.18,39.18,0,0,0-9.68-1.57,43.56,43.56,0,0,0-9.89.44l-1.5.31-3.18.64a18.88,18.88,0,0,0-2.63.74c-.49.16-1,.32-1.45.46a47.55,47.55,0,0,0-5.11,1.81l-1,.4-6.85.09Z"/></g><path class="cls-91" d="M1753.66,241l-.22.31.43-.23Z"/><path class="cls-93" d="M1948,533.79s-1,.41-2.69,1.21h-225.8c-1.83-.8-2.79-1.21-2.79-1.21,0-84.8,40.06-109.79,59.1-116.92,12.41,13.69,37,32.53,56,33.45h.53c.08,0,.25.08.41,0,19-.92,43.61-19.84,56-33.52,18.94,7,59.25,32,59.25,117"/><path class="cls-94" d="M1765.22,421.82c14.72,16.26,43.9,38.61,66.38,39.73h.66c.09,0,.3.07.46,0,22.56-1.13,51.67-23.47,66.41-39.73a73.76,73.76,0,0,0-10.62-5c-12.4,13.68-37,32.6-56,33.52-.14.08-.31,0-.38,0h-.55c-19-.92-43.52-19.76-55.93-33.45a72.92,72.92,0,0,0-10.42,4.94"/><path class="cls-95" d="M1941.85,266.16c17.18-45.61,23.59-51.25,33.07-79.35,7.87-23.3,1.05-56.11-25.5-58.38,22-26.85-122.5-96.2-230.74-25.81,13.5,5.32,18.66,9,18.66,9a69,69,0,0,0-36,31.52c-16.19,30.36.62,75.26,21.51,120.8-1.86-30.75-7-58.49,9.3-84.17,12.6-19.81,50.1-6.79,98.71-6.79s90-18.54,101.5,7.66C1940.11,198.41,1943,227,1941.85,266.16Z"/><rect class="cls-94" x="1845.57" y="485.66" width="51.32" height="14.14"/><g class="cls-96"><path class="cls-97" d="M1836.69,322.78s6-8.3-15.26-6.77c-7.91.57-19.83,2.21-19,14.9,0,0,.86-2.41,6.47-4.36a5.24,5.24,0,0,0,2.16-2.51s.26,2.41-.95,2.46c0,0,6.64.35,9.05-2.76a2.48,2.48,0,0,1-1.55,1.86s9,.7,10.18-2.76c0,0,.52,1-1,2C1826.77,324.78,1833,324.93,1836.69,322.78Z"/><path class="cls-97" d="M1828.44,322.78s-6-8.3,15.26-6.77c7.91.57,19.83,2.21,19,14.9,0,0-.86-2.41-6.47-4.36A5.24,5.24,0,0,1,1854,324s-.26,2.41.95,2.46c0,0-6.64.35-9.05-2.76a2.48,2.48,0,0,0,1.55,1.86s-9,.7-10.18-2.76c0,0-.52,1,1,2C1838.35,324.78,1832.14,324.93,1828.44,322.78Z"/></g><rect class="cls-58" x="2106" y="555" width="504" height="504"/><path class="cls-84" d="M2351.85,885.77a7.47,7.47,0,0,0-.9,3.52v3.3a7.48,7.48,0,1,0,15,0v-3.3a7.47,7.47,0,0,0-.9-3.52,63.09,63.09,0,0,0-13.16,0Z"/><path class="cls-98" d="M2357.39,856.89V1059H2247.82l-2.7-1.14c0-108.4,67.07-116.48,67.07-116.48,6.73,0,11-8.61,13.85-21.71.48-2,.86-4.1,1.18-6.35q.94-5.53,1.52-11.72c.24-2.42.47-4.9.7-7.45,1-12.41,1.3-25.89,1.3-38.67,0,0,14.77,1.45,26.66,1.45"/><path class="cls-99" d="M2470.08,1057.82s-1,.39-2.61,1.18H2357.39V856.89h.23c11.92,0,26.74-1.45,26.74-1.45,0,12.7.32,26,1.33,38.36.23,2.47.47,4.94.7,7.33.43,4.22.9,8.22,1.53,12v.07c.23,1.7.55,3.26.86,4.78,2.81,14,7.26,23.36,14.18,23.36,0,0,67.12,8.08,67.12,116.48"/><g class="cls-100"><path class="cls-88" d="M2387.92,918.13v.07a35.48,35.48,0,0,1-30.37,16.58h-.16c-17.43-.08-27.56-12.81-30.18-16.5q.94-5.53,1.52-11.72c.24-2.42.47-4.9.7-7.45a119.31,119.31,0,0,0,27.64,3.62h.31a113.18,113.18,0,0,0,28.3-3.92c.23,2.47.47,4.94.7,7.33.43,4.22.9,8.22,1.53,12"/></g><path class="cls-98" d="M2357.74,630.12c-116.1,0-116.76,97.42-111.6,161.15-7.93-15.09-31.51-10.42-29.59,13.36,1.88,23,35.14,34.8,34.67,32.15,9.54,52.47,64.15,82.8,106.53,82.8.27,0,.59-.07.86-.07V630.12h-.86"/><path class="cls-101" d="M2224,794.6c5.75-9.21,14.59-5.25,16.77-3.2s4.15,5.12,2.69,10.53c-.78,3.06-4,3.3-3.19,8,.85,5.21,3.28,5.56,4.62,6.73s3.08,2.07,3.94,4.3a12,12,0,0,1,.51,6.55c-.9,3.77-6.38.78-10-.9-2.42-1.1-10.09-7.57-12-9.77-4.85-5.52-7.12-16.09-3.29-22.22"/><path class="cls-99" d="M2358.29,630.12c116.09,0,116.76,97.42,111.6,161.15,7.93-15.09,31.51-10.42,29.55,13.36-1.84,23-35.15,34.8-34.68,32.15-9.49,52.47-64.1,82.8-106.47,82.8-.28,0-.58-.07-.9-.07V630.12h.9"/><path class="cls-89" d="M2492.05,794.6c-5.74-9.21-14.62-5.25-16.77-3.2-2.31,2.18-4.15,5.12-2.74,10.53.81,3.06,4,3.3,3.24,8-.86,5.21-3.24,5.56-4.66,6.73s-3,2.07-3.9,4.3a11.58,11.58,0,0,0-.51,6.55c.9,3.77,6.33.78,10-.9,2.43-1.1,10.09-7.57,12-9.77,4.89-5.52,7.15-16.09,3.32-22.22"/><path class="cls-98" d="M2356.73,657.59c-38.2,0-66.15,11.09-83.07,33.08-23.65,30.64-22.76,77.48-14,111.06,2.66,10.31,4,38,5.86,48.17,8.25,45.45,58.29,69.68,91.24,69.68.27,0,.58,0,.86,0V657.59h-.86"/><path id="_Path_95" data-name="&lt;Path&gt;" class="cls-90" d="M2378.49,874.69c-3-.13-6.18,2-9.84,1.69a.79.79,0,0,0-.38-.06,7.35,7.35,0,0,0-2.59.19,31.79,31.79,0,0,0-3.36.91,18.29,18.29,0,0,1-6,.77h-.24a18.29,18.29,0,0,1-6-.77,31.8,31.8,0,0,0-3.36-.91,7.35,7.35,0,0,0-2.59-.19.79.79,0,0,0-.38.06c-3.66.33-6.79-1.82-9.84-1.69-.84.06-2.06-.13-2.75-.13l.46.19c8.68,3.58,16.18,10.29,24.48,10.08h.24c8.3.21,15.79-6.5,24.48-10.08l.46-.19C2380.55,874.57,2379.33,874.76,2378.49,874.69Z"/><path class="cls-91" d="M2381,874.49h0s-8.83-2.88-15.11-1.19a44.36,44.36,0,0,1-4.76,1.24,14.85,14.85,0,0,1-5,.57h0a32.5,32.5,0,0,1-3.61-.34c-.34,0-.68-.1-1-.17l-.39-.07-.63-.12-.36-.08h0c-2-.46-3.73-1-3.73-1-6.28-1.69-15.11,1.19-15.11,1.19h0l-.2.08c.68,0,1.91.19,2.75.13,2.5-.1,5.06,1.33,7.93,1.66a74,74,0,0,0,10.6,1.61,15.43,15.43,0,0,0,3.65.23h.24a14,14,0,0,0,2.09,0,42.22,42.22,0,0,0,12.32-1.83h0c2.8-.36,5.32-1.74,7.78-1.64.84.06,2.06-.13,2.75-.13Z"/><path id="_Path_96" data-name="&lt;Path&gt;" class="cls-92" d="M2346.21,830.17c-.23-4.67,8.55-1.71,11.44-1.56,2.29.12,9.24-1.47,9.84-1.06,4.09,2.77-4.34,8.34-10,8.34C2356,835.89,2346.34,833,2346.21,830.17Z"/><g id="_Group_13" data-name="&lt;Group&gt;"><path id="_Path_97" data-name="&lt;Path&gt;" class="cls-17" d="M2436.63,757.06c-.36-.25-.76-.56-1.2-.91a23.7,23.7,0,0,0-4.37-2.89,45.53,45.53,0,0,0-9-4,48.57,48.57,0,0,0-11.32-1.8,46.29,46.29,0,0,0-11.44,1.47,40.94,40.94,0,0,0-9.25,3.79,31.35,31.35,0,0,0-7.81,5.88l0,.05a2.83,2.83,0,0,0-.09,3.63c.49.62,1,3.36,1.78,3.47h0a3,3,0,0,0,2.2-.56l0,0a46.34,46.34,0,0,1,7.14-4,48.77,48.77,0,0,1,7.92-3,38.79,38.79,0,0,1,9.59-1.56,43.12,43.12,0,0,1,9.79.44l1.48.3,3.15.64a18.69,18.69,0,0,1,2.6.73c.49.16,1,.32,1.43.45a47.08,47.08,0,0,1,5.06,1.79l1,.4,6.78.09Z"/></g><g id="_Group_14" data-name="&lt;Group&gt;"><path id="_Path_98" data-name="&lt;Path&gt;" class="cls-17" d="M2279.63,757.8c.36-.25.76-.56,1.2-.91a23.7,23.7,0,0,1,4.37-2.89,45.53,45.53,0,0,1,9-4,48.57,48.57,0,0,1,11.32-1.8,46.29,46.29,0,0,1,11.44,1.47,40.94,40.94,0,0,1,9.25,3.79,31.35,31.35,0,0,1,7.81,5.88l0,.05a2.83,2.83,0,0,1,.09,3.63c-.49.62-1,3.36-1.78,3.47h0a3,3,0,0,1-2.2-.56l0,0a46.34,46.34,0,0,0-7.14-4,48.77,48.77,0,0,0-7.92-3,38.79,38.79,0,0,0-9.59-1.56,43.12,43.12,0,0,0-9.79.44l-1.48.3-3.15.64a18.69,18.69,0,0,0-2.6.73c-.49.16-1,.32-1.43.45a47.08,47.08,0,0,0-5.06,1.79l-1,.4-6.78.09Z"/></g><path class="cls-91" d="M2279.46,773.68l-.21.31.42-.23Z"/><path id="_Path_99" data-name="&lt;Path&gt;" class="cls-12" d="M2284,777.29s8.44,15.24,21.19,16.89,26.27-.32,26.27-.32-.45-14.75-7.09-17.27S2302.68,770.76,2284,777.29Z"/><path id="_Path_100" data-name="&lt;Path&gt;" class="cls-102" d="M2320.41,783.64c-.56,6-6.09,10.4-12.36,9.92a10.84,10.84,0,0,1-10.34-11.6c.56-6,6.09-10.41,12.37-9.94S2321,777.69,2320.41,783.64Z"/><path id="_Path_101" data-name="&lt;Path&gt;" class="cls-14" d="M2308.76,788.9a5.2,5.2,0,0,1-4.44-5.63,5.47,5.47,0,0,1,5.43-4.89,5.2,5.2,0,0,1,4.44,5.63A5.46,5.46,0,0,1,2308.76,788.9Z"/><path id="_Path_102" data-name="&lt;Path&gt;" class="cls-103" d="M2331.43,793.83s-.29,0-.93.13c-.54-5.4-2.09-12.85-6.23-14.41-6.17-2.39-20-5.92-37.54,1.87a33.88,33.88,0,0,1-2.76-4.16c19.09-9.92,34.28-6.08,40.87-3.55S2331.43,793.83,2331.43,793.83Z"/><path id="_Path_103" data-name="&lt;Path&gt;" class="cls-12" d="M2432.38,777.48s-7.94,14.83-20.64,16.1-26.3-1-26.3-1,1.42-14.58,8-16.89S2412.68,770.85,2432.38,777.48Z"/><path id="_Path_104" data-name="&lt;Path&gt;" class="cls-102" d="M2393.53,782.66c.67,6.15,6.53,10.8,13.05,10.42s11.29-5.7,10.62-11.83-6.53-10.82-13.06-10.43S2392.84,776.51,2393.53,782.66Z"/><path id="_Path_105" data-name="&lt;Path&gt;" class="cls-14" d="M2405.78,788.24a5.19,5.19,0,0,0,4.55-5.74,5.88,5.88,0,0,0-5.75-5.12,5.2,5.2,0,0,0-4.55,5.74A5.88,5.88,0,0,0,2405.78,788.24Z"/><path id="_Path_106" data-name="&lt;Path&gt;" class="cls-104" d="M2385.42,792.51l.93.17c.37-5.34,1.66-12.65,5.77-14.07,6.1-2.19,19.79-5.31,37.61,2.86a31.13,31.13,0,0,0,2.64-4c-19.43-10.33-34.5-6.94-41-4.63S2385.42,792.51,2385.42,792.51Z"/><path class="cls-105" d="M2459.43,993.41c-18.9-47.63-56.32-52.18-56.32-52.18h-.61c-2.7-4.15-4.38-8.78-3.61-13.48s-9-5.45-9-5.45a7.84,7.84,0,0,0,.49,1.42c.08,1.53.94,5.13-2.32,7-3,1.68-9,4.41-20,5.51-1,.1-2.06.19-3.15.27l-1,.06c-2,.11-4,.16-6.11.16-17.82,0-25.25-2.08-29.16-4.23-1.85-1-4.76-4.17-2.84-11.11,0,0-4.07-.69-9.13,2.72s3.22,5.93.23,10.33c-2.14,3.23-2.38,4.47-4.45,6.84h-.08c-1.84.29-25.31,4-43.94,29.55-12.59,17.22-23,44.35-23,87.06,0,0,.91.38,2.68,1.16h219.29c1.6-.78,2.6-1.16,2.6-1.16C2470.08,1030.46,2465.81,1009.48,2459.43,993.41Z"/><path class="cls-106" d="M2477.31,712.64c.46-30.52-23.61-62.4-23.61-62.4l-.54,21.27c-.55,0-14.93-36.51-27.62-43.24a289.24,289.24,0,0,1-40-25.75L2403,628.94l-37.74-36.61c.28,9.63,1.08,35.48.83,28.72-1.73-8.22-5-19.54-7.8-28.51-7.67,22.65-10.67,32.94-10.67,31,0-2.12,0-9.65-.25-21.75l-19.21,25.81,15.8-30.14c-14.94,15.93-39.69,17.32-50.33,35.8-8.13,14.12-12.43,11.19-21.56,24.42l12.06-23.28s-29.48,24.42-37.72,45.63c-2.81,7.24-11.86,22.5-8.68,57.88,2.79,31,5.27,35,14.41,57.17,3.18,9,5.85,13.42,5.92,13.1.39.67.64.94.71.78,2.52-5.7-2-68-1.1-70.08,4.44-9.72,27.53-33.37,28.27-33.77,5.52-3,38.93-4.44,72.46-4.46s66.94,1.5,72.46,4.46c.74.4,22.45,24,26.9,33.77.94,2.05-.78,70-.39,69.31a4.12,4.12,0,0,0,.23.78c.27.61,2.51-4.91,5.69-13.87C2477.28,761.19,2476.63,758.21,2477.31,712.64Z"/><path class="cls-107" d="M2360.21,974.9c16.77,0,43.52-6.07,51.75-31.16-5.9-2.26-5.9-1.93-9.47-2.51-5.94,15.09-26.15,23-43.35,23s-40.72-7.87-46.66-23c-5.29,1.21-3.73.53-11.23,3.28A174.39,174.39,0,0,0,2314,961C2329,973.65,2342.28,974.9,2360.21,974.9Z"/><rect class="cls-68" x="534" y="555" width="504" height="504"/><rect class="cls-108" x="700.66" y="863.66" width="178.34" height="108.48"/><path class="cls-109" d="M838.57,856.23s84.06,44.61,33,96.18c-28,30.37-30.42,46.18-14.61,51.38-19,1.4-59.7-51.16-27.26-68.69,29.68-16.06,31.22-46.24-1.23-65.5C814.83,861.52,838.57,856.23,838.57,856.23Z"/><path class="cls-110" d="M786.84,852.92V1059H675.07c-1.81-.8-2.73-1.16-2.73-1.16,0-69.87,25.83-101.72,47.41-110.72,13.95-5.82,21-7.89,21-7.89,7.59-.8,11.15-9,14.07-22.36.46-2,.85-4.2,1.16-6.47.63-3.76,1.19-7.75,1.59-11.91.23-2.52.47-5,.68-7.64,1-12.66,1.35-26.41,1.35-39.44,0,0,15,1.52,27.2,1.52"/><path class="cls-111" d="M900.94,1056.94s-1,.36-2.66,1.16H786V852h.23c12.14,0,27.27-1.52,27.27-1.52,0,13,.32,26.58,1.34,39.13.22,2.52.46,5,.69,7.48.48,4.32.93,8.39,1.56,12.27v.08c.23,1.72.55,3.27.87,4.88,2.92,14.19,16.13,26.35,23.18,26.35,0,0,.51-1.46,12.18,5.46,20.13,11.75,47.55,40.77,47.55,110.79"/><path class="cls-110" d="M787.06,628.36c-116.66-.24-117.32,93.72-112.15,155-8-14.38-31.66-9-29.7,14C647.08,819.41,680.5,829.4,680,827c9.54,49.93,64.53,77.66,107,81.62h.89V628.36h-.89"/><path class="cls-112" d="M651.07,787.63c5.86-8.9,14.87-5.07,17.11-3.12,2.36,2.16,4.19,5,2.75,10.23-.82,3-4.09,3.19-3.29,7.68.86,5.07,3.32,5.4,4.73,6.56s3.12,2,4,4.15a11,11,0,0,1,.51,6.36c-.9,3.63-6.48.73-10.19-.88-2.47-1-10.29-7.32-12.27-9.47-5-5.32-7.27-15.59-3.36-21.51"/><g class="cls-113"><path class="cls-114" d="M817.15,909.15l0,.52c-2.74,4.39-11.77,16.38-30.34,16.38h-.15c-17.61-.08-27.88-12.37-30.51-16.17.61-3.75,1.16-8.45,1.56-12.61.24-2.48.46-5,.72-7.64a118.54,118.54,0,0,0,27.93,3.73h.31a114.41,114.41,0,0,0,28.57-4c.24,2.51.47,5,.68,7.43.47,4.36.58,8.51,1.21,12.35"/></g><path class="cls-111" d="M787.64,628.36c116.65-.24,117.33,93.72,112.13,155,8-14.38,31.67-9,29.73,14-1.86,22.07-35.29,32.06-34.83,29.62-9.53,49.93-64.51,77.66-107,81.62h-.9V628.36h.9"/><path class="cls-112" d="M924.47,787.63c-5.87-8.9-14.88-5.07-17.11-3.12-2.34,2.16-4.2,5-2.76,10.23.83,3,4.1,3.19,3.3,7.68-.88,5.07-3.35,5.4-4.74,6.56s-3.11,2-4,4.15a10.65,10.65,0,0,0-.53,6.36c.88,3.63,6.46.73,10.21-.88,2.46-1,10.25-7.32,12.25-9.47,5-5.32,7.27-15.59,3.37-21.51"/><path class="cls-110" d="M786.44,654.93c-39,0-67.43,10.78-84.75,32-24.07,29.69-23.15,75.06-14.28,107.6,2.71,9.95,4.11,36.77,6,46.59,8.41,44.05,59.43,67.47,93,67.47.29,0,.62,0,.89,0V655c-.31,0-.6,0-.89,0"/><path class="cls-115" d="M812.2,851s-11.23,12-25,12-24.41-11.77-24.41-11.77a158.74,158.74,0,0,1,24.41-1.83,199.67,199.67,0,0,1,25,1.59"/><path class="cls-116" d="M794.26,845.44c-3.91,0-7,2.45-7.11,5.46-.09-3-3.22-5.46-7.09-5.46s-18,5.57-18,5.57,13.7,1.42,17.64,1.42,7.33,1.59,7.43-1.37c0,3,2.89,1.83,6.74,1.83S812.2,851,812.2,851s-14-5.57-17.94-5.57"/><path id="_Path_107" data-name="&lt;Path&gt;" class="cls-12" d="M715.58,768.1s8.2,14.62,20.56,16.21A108.42,108.42,0,0,0,761.6,784s-.45-14.14-6.89-16.56S733.72,761.86,715.58,768.1Z"/><path id="_Path_108" data-name="&lt;Path&gt;" class="cls-102" d="M750.92,774.22c-.54,5.7-5.9,10-12,9.5s-10.57-5.44-10-11.13,5.9-10,12-9.52S751.47,768.51,750.92,774.22Z"/><path id="_Path_109" data-name="&lt;Path&gt;" class="cls-14" d="M739.64,779.25a5,5,0,0,1-4.31-5.4,5.27,5.27,0,0,1,5.26-4.68,5,5,0,0,1,4.31,5.4A5.26,5.26,0,0,1,739.64,779.25Z"/><path id="_Path_110" data-name="&lt;Path&gt;" class="cls-117" d="M761.62,784s-.28,0-.9.13c-.53-5.17-2-12.32-6.05-13.82-6-2.29-19.37-5.69-36.39,1.75a32.52,32.52,0,0,1-2.68-4c18.5-9.49,33.23-5.8,39.61-3.37S761.62,784,761.62,784Z"/><path id="_Path_111" data-name="&lt;Path&gt;" class="cls-12" d="M859.45,768.42s-7.68,14.2-20,15.42-25.49-1-25.49-1,1.36-14,7.72-16.18S840.35,762,859.45,768.42Z"/><path id="_Path_112" data-name="&lt;Path&gt;" class="cls-102" d="M821.8,773.34c.66,5.89,6.34,10.36,12.66,10s10.94-5.45,10.28-11.32-6.34-10.38-12.67-10S821.13,767.45,821.8,773.34Z"/><path id="_Path_113" data-name="&lt;Path&gt;" class="cls-14" d="M833.68,778.71a5,5,0,0,0,4.41-5.5,5.69,5.69,0,0,0-5.58-4.91,5,5,0,0,0-4.41,5.5A5.7,5.7,0,0,0,833.68,778.71Z"/><path id="_Path_114" data-name="&lt;Path&gt;" class="cls-117" d="M813.95,782.78l.9.17c.35-5.11,1.6-12.12,5.58-13.48,5.91-2.1,19.18-5.07,36.46,2.78a29.72,29.72,0,0,0,2.56-3.87c-18.84-9.91-33.45-6.68-39.75-4.47S813.95,782.78,813.95,782.78Z"/><g id="_Group_15" data-name="&lt;Group&gt;"><path id="_Path_115" data-name="&lt;Path&gt;" class="cls-118" d="M869.23,747.56c-.4-.18-.84-.41-1.32-.65a29.77,29.77,0,0,0-4.8-2.08,65.77,65.77,0,0,0-9.89-2.87,79.7,79.7,0,0,0-12.45-1.3,76.46,76.46,0,0,0-12.58,1.06A60.36,60.36,0,0,0,818,744.45a36.29,36.29,0,0,0-8.58,4.24l-.05,0a1.54,1.54,0,0,0-.1,2.62c.53.45,1.09,2.42,2,2.5h0a4.68,4.68,0,0,0,2.42-.41h0a61.44,61.44,0,0,1,7.85-2.92,73.24,73.24,0,0,1,8.71-2.14,63.54,63.54,0,0,1,10.55-1.12,72.14,72.14,0,0,1,10.77.32l1.63.22,3.47.46c1,.12,1.94.32,2.86.52.53.12,1.06.23,1.57.33,2.21.41,4.07.9,5.57,1.29l1.1.29,7.46.07Z"/></g><g id="_Group_16" data-name="&lt;Group&gt;"><path id="_Path_116" data-name="&lt;Path&gt;" class="cls-118" d="M706.67,747.84c.4-.18.84-.41,1.32-.65a29.77,29.77,0,0,1,4.8-2.08,65.77,65.77,0,0,1,9.89-2.87,79.7,79.7,0,0,1,12.45-1.3A76.46,76.46,0,0,1,747.71,742a60.36,60.36,0,0,1,10.17,2.73,36.29,36.29,0,0,1,8.58,4.24l.05,0a1.54,1.54,0,0,1,.1,2.62c-.53.45-1.09,2.42-2,2.5h0a4.68,4.68,0,0,1-2.42-.41h0a61.44,61.44,0,0,0-7.85-2.92,73.24,73.24,0,0,0-8.71-2.14,63.54,63.54,0,0,0-10.55-1.12,72.14,72.14,0,0,0-10.77.32l-1.63.22-3.47.46c-1,.12-1.94.32-2.86.52-.53.12-1.06.23-1.57.33-2.21.41-4.07.9-5.57,1.29l-1.1.29-7.46.07Z"/></g><path id="_Path_117" data-name="&lt;Path&gt;" class="cls-114" d="M773.06,821.81c-.28-3.87,10.4-1.41,13.92-1.29,2.78.1,11.24-1.22,12-.88,5,2.29-5.27,6.91-12.14,6.91C785,826.55,773.22,824.14,773.06,821.81Z"/><path d="M879,1058.74H696.42c.48-7,1.2-17.26,1.94-22.84,3.26-26.65,22.89-31.67,21.68-89,0-.92-.09-.48.4-1l10.48-4,5.19-1.9,4.17-1.4.08.79c.22,7.68,1.51,57.5,2.84,71.18.91,9.79,22.59,18.09,42.85,18.81,20.24-.73,45.18-9,46.13-18.81,1.29-13.76,2.59-64.06,2.73-71.22a5.47,5.47,0,0,1,.22-1l2.54.59,3.23,1,13.44,4.55c.25.63.57,1.35.82,2,.61,60.84,18.48,62.6,21.94,89.4.68,5.58,1.42,15.84,1.9,22.84"/><path class="cls-119" d="M715.36,695.12s24.9,31.26,55.16,45.24c-8.45-15.9-27.45-33.06-33.78-45.15C760,714.29,812,741.63,812,741.63c-31.33-32.71-19.71-57.55-19.71-57.55s98.94,41.53,94.06,108.32c-3.72,50.76-50.14,71.29-40.31,109.69,11.51,45,32.22,40.76,20,91.44,55.63-61.17,71.43-158.71,67-207.48C928.78,738.28,937.78,592,792.79,592S650.58,717.07,639.88,773.36c-9.85,51.84,27.21,67.47,29.06,99.48,1,17.77-10.32,63.35-21.59,67.17,14.79-1.9,33.79-20.35,39.43-35.61,2.81,12.73-25.59,99.41,6.14,67.77,58.05-20.88,35.39-60.76,32.56-79.84,16.2,27.33,14.61,19.87,14.61,27.51-.56-50.19-39.63-65.11-52.29-107.7S688.47,729.34,715.36,695.12Z"/><path class="cls-17" d="M754.3,926.74l-3.76,7c3.68,2.51,17.18,7.82,40.07,7.93s35.81-5.76,38.67-7.63c0,0-1.56-1.54-3-3.22-1.21-1.44-2.3-3.05-2.32-3a119.35,119.35,0,0,1-33.23,4.9C773,932.7,757.43,928.1,754.3,926.74Z"/><path class="cls-119" d="M718.35,867.55s73.63,60.3,13.36,100.79c-33.47,24.26-38.93,39.28-24.45,47.5-18.87-2.36-48.45-61.92-13.19-72.72,32.26-9.9,39.72-39.19,11.7-64.46C694,868.06,718.35,867.55,718.35,867.55Z"/><rect class="cls-3" x="1058" y="31" width="504" height="504"/><path class="cls-120" d="M1309.36,327.31V535H1196.62c-1.82-.8-2.77-1.19-2.77-1.19,0-111.41,69-119.74,69-119.74,6.88,0,11.31-8.85,14.24-22.31.48-2.07.87-4.21,1.19-6.5.63-3.8,1.18-7.84,1.57-12,.24-2.53.47-5.07.71-7.68.87-10.37,1.19-21.53,1.27-32.38.08-2.46.08-4.91.08-7.36C1281.93,325.81,1297.1,327.31,1309.36,327.31Z"/><path class="cls-121" d="M1425.27,533.81s-1,.39-2.68,1.19H1309.36V327.31h.24c12.25,0,27.51-1.5,27.51-1.5,0,2.84,0,5.69.08,8.55.08,10.35.48,21,1.27,30.87.22,2.53.47,5.07.71,7.53.47,4.34,1,8.47,1.58,12.34v.1c.23,1.73.54,3.32.86,4.9,2.93,14.33,7.52,24,14.63,24C1356.25,414.07,1425.27,422.39,1425.27,533.81Z"/><path class="cls-122" d="M1340.76,385.11v.1a36.43,36.43,0,0,1-31.23,17h-.15c-18-.07-28.39-13.14-31.07-16.93.63-3.8,1.17-7.83,1.57-12,.23-2.52.48-5.06.71-7.67a124.38,124.38,0,0,0,28.46,3.72h.33a117,117,0,0,0,29.08-4c.23,2.53.48,5.07.71,7.53C1339.66,377.12,1340.12,381.24,1340.76,385.11Z"/><path class="cls-120" d="M1309.71,89.11c-119.43,0-120.11,100.12-114.8,165.65-8.19-15.53-32.42-10.73-30.44,13.73,1.92,23.57,36.16,35.75,35.68,33,9.78,53.92,66,85.07,109.56,85.07.29,0,.61-.05.91-.05V89.14Z"/><path class="cls-122" d="M1172.09,258.15c5.92-9.45,15-5.37,17.25-3.29,2.38,2.27,4.26,5.27,2.79,10.85-.83,3.15-4.14,3.4-3.32,8.17.88,5.38,3.36,5.7,4.77,6.93s3.15,2.15,4,4.43a11.92,11.92,0,0,1,.53,6.74c-.92,3.86-6.53.79-10.3-.92-2.47-1.13-10.35-7.8-12.34-10.06C1170.47,275.34,1168.15,264.44,1172.09,258.15Z"/><path class="cls-121" d="M1310.29,89.11c119.43,0,120.12,100.12,114.79,165.65,8.19-15.53,32.43-10.73,30.45,13.73-1.93,23.57-36.16,35.75-35.68,33-9.78,53.92-66,85.07-109.56,85.07-.29,0-.62-.05-.91-.05V89.14Z"/><path class="cls-123" d="M1447.91,258.15c-5.89-9.45-15-5.37-17.25-3.29-2.38,2.27-4.24,5.27-2.79,10.85.83,3.15,4.13,3.4,3.33,8.17-.87,5.38-3.36,5.7-4.78,6.93s-3.15,2.15-4,4.43a12.07,12.07,0,0,0-.53,6.74c.92,3.86,6.54.79,10.3-.92,2.49-1.13,10.36-7.8,12.36-10.06C1449.52,275.34,1451.84,264.44,1447.91,258.15Z"/><path class="cls-120" d="M1308.67,117.34c-39.3,0-68,11.43-85.47,34-24.31,31.51-23.38,79.63-14.41,114.18,2.73,10.56,4.15,39,6,49.47,8.49,46.72,60,71.6,93.85,71.6.29,0,.61-.05.91-.05V117.38C1309.27,117.38,1309,117.34,1308.67,117.34Z"/><path class="cls-121" d="M1394,151.38c-17.28-22.41-45.71-33.82-84.39-34V386.53c38.71-.41,85-27.68,92.93-71.55,1.88-10.45,3.29-38.9,6-49.47C1417.48,231.06,1418.36,183,1394,151.38Z"/><path class="cls-12" d="M1206.67,345.09c.49.6.37.41-.16-.3C1206.57,344.87,1206.62,345,1206.67,345.09Z"/><path class="cls-65" d="M1333.81,335.17s-10.91,11.36-24.37,11.36-23.69-11.13-23.69-11.13,10.27-.34,23.69-.34,24.37.11,24.37.11"/><path class="cls-124" d="M1316.35,329.91c-3.79,0-6.8,2.28-6.9,5.15-.05-2.88-3.08-5.15-6.87-5.15s-17.48,5.26-17.48,5.26,13.33,1.35,17.13,1.35,7.16,1.49,7.21-1.3c.07,2.8,2.82,1.69,6.62,1.69s17.74-1.73,17.74-1.73-13.62-5.26-17.47-5.26"/><path id="_Path_118" data-name="&lt;Path&gt;" class="cls-122" d="M1287,288.22c-.46-6.41,17.23-2.34,23.06-2.14,4.61.16,18.62-2,19.83-1.46,8.25,3.8-8.73,11.45-20.12,11.45C1306.75,296.08,1287.3,292.09,1287,288.22Z"/><path id="_Path_119" data-name="&lt;Path&gt;" class="cls-12" d="M1226.13,219.84s11.17,19,28.24,21,35.23-.62,35.23-.62-1.2-19.23-10.08-22.32S1251.72,210.58,1226.13,219.84Z"/><path id="_Path_120" data-name="&lt;Path&gt;" class="cls-125" d="M1275,227.47c-.81,7.45-8.27,13.06-16.67,12.53s-14.55-7-13.74-14.43,8.27-13.08,16.68-12.54S1275.77,220,1275,227.47Z"/><path id="_Path_121" data-name="&lt;Path&gt;" class="cls-14" d="M1259.28,234.15a6.52,6.52,0,0,1-5.9-7,7.3,7.3,0,0,1,7.33-6.17,6.51,6.51,0,0,1,5.9,7A7.3,7.3,0,0,1,1259.28,234.15Z"/><path id="_Path_122" data-name="&lt;Path&gt;" class="cls-126" d="M1289.63,240.12s-.38,0-1.25.17c-.67-6.75-2.67-16.07-8.21-18-8.25-2.93-26.73-7.23-50.36,2.66a41.36,41.36,0,0,1-3.67-5.18c25.7-12.58,46-7.9,54.84-4.8S1289.63,240.12,1289.63,240.12Z"/><path id="_Path_123" data-name="&lt;Path&gt;" class="cls-12" d="M1397.37,222.4s-10.8,18.62-27.84,20.33-35.25-1.05-35.25-1.05,2.05-20,10.88-22.92S1371.45,213.74,1397.37,222.4Z"/><path id="_Path_124" data-name="&lt;Path&gt;" class="cls-125" d="M1345.23,229.21c.84,7.69,8.64,13.46,17.4,12.92s15.2-7.22,14.36-14.89-8.64-13.48-17.41-12.94S1344.36,221.53,1345.23,229.21Z"/><path id="_Path_125" data-name="&lt;Path&gt;" class="cls-14" d="M1361.6,236.09a6.74,6.74,0,0,0,6.16-7.22c-.43-3.89-4.4-6.56-7.66-6.36a6.75,6.75,0,0,0-6.16,7.22C1354.38,233.63,1358.35,236.3,1361.6,236.09Z"/><path class="cls-126" d="M1342.44,216.92c-7.16,2.4-8.09,17.08-8.18,22.6h0l-.07,2.18,1.32.2v-.07h0c.54-6.68,2.36-15.84,7.88-17.66,8.2-2.8,26.59-6.82,50.4,3.26a39.53,39.53,0,0,0,3.59-5.07C1371.42,209.6,1351.18,214,1342.44,216.92Z"/><g id="_Group_17" data-name="&lt;Group&gt;"><path id="_Path_126" data-name="&lt;Path&gt;" class="cls-127" d="M1392.42,200c-.38-.26-.79-.59-1.25-.94a24.68,24.68,0,0,0-4.55-3,47.41,47.41,0,0,0-9.36-4.15,50.58,50.58,0,0,0-11.79-1.88,48.21,48.21,0,0,0-11.91,1.53,42.64,42.64,0,0,0-9.63,3.95,32.65,32.65,0,0,0-8.13,6.12l-.05.06a3,3,0,0,0-.09,3.78c.51.64,1,3.5,1.86,3.61h0a3.13,3.13,0,0,0,2.29-.59l0,0a48.26,48.26,0,0,1,7.43-4.22,50.79,50.79,0,0,1,8.25-3.09,40.39,40.39,0,0,1,10-1.62,44.91,44.91,0,0,1,10.2.46l1.55.31,3.28.66a19.46,19.46,0,0,1,2.71.76c.51.17,1,.33,1.49.47A49,49,0,0,1,1390,204l1,.41,7.06.1Z"/></g><g id="_Group_18" data-name="&lt;Group&gt;"><path id="_Path_127" data-name="&lt;Path&gt;" class="cls-127" d="M1234.14,200c.38-.26.79-.59,1.25-.94a24.68,24.68,0,0,1,4.55-3,47.41,47.41,0,0,1,9.36-4.15,50.58,50.58,0,0,1,11.79-1.88,48.21,48.21,0,0,1,11.91,1.53,42.64,42.64,0,0,1,9.63,3.95,32.65,32.65,0,0,1,8.13,6.12l.05.06a3,3,0,0,1,.09,3.78c-.51.64-1,3.5-1.86,3.61h0a3.13,3.13,0,0,1-2.29-.59l0,0a48.26,48.26,0,0,0-7.43-4.22,50.79,50.79,0,0,0-8.25-3.09,40.39,40.39,0,0,0-10-1.62,44.91,44.91,0,0,0-10.2.46l-1.55.31-3.28.66a19.46,19.46,0,0,0-2.71.76c-.51.17-1,.33-1.49.47a49,49,0,0,0-5.27,1.86l-1,.41-7.06.1Z"/></g><polygon class="cls-126" points="1229.35 219.44 1225.68 221.32 1229.76 227.31 1235.2 222.87 1229.35 219.44"/><polygon class="cls-126" points="1288.32 244.45 1288.37 245.17 1289.63 245.02 1289.61 244.16 1288.32 244.45"/><path class="cls-128" d="M1433,245.45a28.37,28.37,0,0,0-7.36,10.89c-4,10.51-5.52,8.69-5.52,8.69s6.29-41.15,6.29-52.6-36.9-78.28-56.89-85.08-36.91-1.69-58.38-1.69h-1.7c-21.07-.42-40.84-4.94-60.57,1.69-20,6.8-54.66,73.73-54.66,85.08s6.28,52.6,6.28,52.6-1.55,1.81-5.51-8.69a28.26,28.26,0,0,0-8.82-12.09C1180.87,173,1183.91,68,1309.33,68h.67c126.1,0,128.53,106.18,123,177.45"/><path class="cls-129" d="M1424.82,208.12v-.21a.93.93,0,0,0-.59-.55h0l-.13-.05c-9.6-3.42-49.83-5-71.55-2.56s-34.77,8-42,8.28c-7.23-.1-20.3-5.4-42.16-7.42s-62,.4-71.46,4a.46.46,0,0,0-.16.06h0a.78.78,0,0,0-.54.55v.21c-.09,1.21-.39,6.45-.25,9.43a3.2,3.2,0,0,0,0,.45,2.52,2.52,0,0,0,1.72,1.87l.13,0c1.94.67,5.28,3.57,8.81,17.77,1.63,7.08,3.65,22.07,19.08,26.48,7,2,41,5.77,58.08-7.59,3.61-2.81,7.49-9,10.75-15.21,1.91-4.26,7-16.49,7.71-18.35a7.42,7.42,0,0,1,7.48-5.37l1.69,0a7.43,7.43,0,0,1,7.56,5.23c.79,1.85,6.1,14,8.07,18.18,3.39,6.19,7.42,12.26,11.06,15,17.42,13,51.26,8.48,58.23,6.39,15.36-4.73,17.07-19.74,18.54-26.86,3.27-14.28,6.57-17.25,8.46-18l.13,0a2.57,2.57,0,0,0,1.71-1.91v-.46C1425.32,214.57,1424.92,209.33,1424.82,208.12Zm-140.23,39.26A26.09,26.09,0,0,1,1268.48,261c-13.34,3.79-22.82,4-36.17,2.2-8.92-1.18-15.53-7.15-17.33-13.2-2.21-8.4-5.39-17-3.35-25.36a17.83,17.83,0,0,1,12-12.43c13.2-4.24,33.88-4,47.15-2,6.5,1.17,18,2.35,20.7,10C1294.35,228.49,1289,240.06,1284.59,247.38Zm122.46.68c-1.69,6.1-8.18,12.22-17.09,13.56-13.3,2-22.78,2.05-36.17-1.47a26,26,0,0,1-16.41-13.3c-4.59-7.23-10.11-18.68-7.4-27,2.52-7.68,14-9.11,20.49-10.42,13.23-2.33,33.87-3,47.17,1a17.79,17.79,0,0,1,12.23,12.18C1412.09,231,1409.1,239.64,1407.05,248.06Z"/><path class="cls-130" d="M1401.32,503.43h22c0-2.23-.68-4.65-1-6.77-3.32-19.45-9.37-35.77-13.48-43.72-1.76-3.41-3-5.36-3-5.36a80.85,80.85,0,0,0-17.06-18.26,16,16,0,0,0-1.52-1.27c-.84-.64-1.68-1.25-2.51-1.83-89.85,158.12-149,0-149,0a26.16,26.16,0,0,0-2.77,2,8.05,8.05,0,0,0-1.54,1.23,32.51,32.51,0,0,0-5.21,3.51c-4.35,3.94-7.59,8.75-11.68,14.63,0,0-17.92,26.86-18.32,48.51,0,0-.57,6-.55,8.07l23.33-.74c0,2.19,0,4.28-.06,6.3-.14,11.06-.5,19.65-.86,25.26h184.22c-.37-5.6-.77-14.2-.93-25.26C1401.35,507.71,1401.33,505.63,1401.32,503.43Z"/><path class="cls-130" d="M1239.34,423.18l6.68-3.71,6.25-2.79,8.39-2.4,18.81,12c19.63,4.92,38.6,5.43,58.1,0l20.5-12,6,1.46,8.24,3.64,12.42,6.86L1395,497.17H1215.09l17-68.29"/><path class="cls-12" d="M1260.66,414.29c10.7,8.62,31.93,20.46,48.29,21.06h.48a.92.92,0,0,0,.33,0c16.41-.6,37.58-12.44,48.31-21.06a64.43,64.43,0,0,0-7.72-2.66c-9,7.25-26.89,17.28-40.75,17.77a.58.58,0,0,1-.28,0h-.4c-13.79-.49-31.66-10.47-40.68-17.73a63.63,63.63,0,0,0-7.58,2.62"/><rect class="cls-34" x="2106" y="31" width="504" height="504"/><path class="cls-13" d="M2481.9,275c-4-7.45-10.29-4.22-11.83-2.58s-2.93,4.16-1.94,8.58c.58,2.49,2.84,2.66,2.29,6.45-.61,4.26-2.32,4.54-3.28,5.52s-2.15,1.67-2.76,3.48a10.75,10.75,0,0,0-.35,5.34c.61,3.05,4.48.59,7.05-.75,1.69-.87,7.11-6.18,8.47-7.95,3.45-4.47,5-13.08,2.35-18.09"/><path class="cls-131" d="M2360.43,334.37V535h-107.2c-1.63-.78-2.62-1.13-2.62-1.13,0-50.66,14.51-79.26,29.84-95.34,17.37-18.12,35.78-20.34,35.78-20.34h.54a6.72,6.72,0,0,0,1.42-.32c5.43-1.51,9.17-9.62,11.6-21.24.45-2,.79-4,1.1-6.25.61-3.71,1.22-7.6,1.53-11.65.29-2.45.42-4.9.65-7.44,1-12.3,1.31-25.67,1.31-38.4,0,0,13,1.34,24.27,1.48Z"/><path class="cls-132" d="M2468.83,533.87a26.18,26.18,0,0,0-2.56,1.13H2358.64V334.37h1.79c11.35-.14,24.59-1.48,24.59-1.48,0,12.61.3,25.88,1.28,38.1.21,2.46.44,4.89.66,7.27.47,4.22.9,8.18,1.5,12v0c.23,1.72.54,3.23.85,4.79,2.24,11.24,5.53,19.49,10.36,22.26a5.42,5.42,0,0,0,1.14.42,6,6,0,0,0,2.41.47s16.76,2.07,33.28,17.89a87.75,87.75,0,0,1,10.23,12c12.18,17.12,22.1,43.87,22.1,85.83"/><path class="cls-133" d="M2387,378.3c-.22-2.42-.45-4.82-.68-7.27a109.21,109.21,0,0,1-25.84,3.84h0l-1.83.06h-.29q-1.66,0-3.29-.1l-.87,0c-.8,0-1.6-.08-2.39-.14l-.87-.07-2.35-.2-.79-.09c-.8-.08-1.59-.17-2.38-.27l-.69-.09c-.82-.11-1.64-.22-2.45-.35l-.57-.09c-.84-.13-1.68-.27-2.52-.42l-.46-.09q-1.29-.24-2.57-.51l-.39-.08c-.91-.19-1.81-.39-2.7-.61-.2,2.37-.34,4.67-.61,7-.3,4.05-.92,7.93-1.53,11.65-.09.68-.2,1.33-.31,2a43,43,0,0,0,3.41,3.76h0l.25.24.54.51.67.61.52.46q.58.5,1.21,1l.53.41.88.66.61.43,1,.64.6.39q.73.46,1.51.9l.34.18q.74.4,1.51.78l.63.29q.63.29,1.27.56l.68.28c.49.19,1,.37,1.5.54l.51.18q1,.32,2.08.59l.54.12c.55.13,1.11.24,1.68.34l.76.12c.54.08,1.09.15,1.65.2l.74.07c.8.06,1.61.1,2.45.11h.15q.85,0,1.68,0h0a34.6,34.6,0,0,0,28-16.42v-.07C2387.85,386.49,2387.4,382.51,2387,378.3Z"/><rect class="cls-1" x="2329.07" y="371.03" width="59.39" height="35.72"/><path class="cls-131" d="M2358.53,118.74C2246.68,118.54,2246,210,2251,269.66c-7.67-14-24.93-8.66-23.08,13.75,1.79,21.48,28.41,31.09,28,28.71,9.15,48.61,61.88,75.6,102.65,79.42a5,5,0,0,0,.84,0V118.78c-.27,0-.57,0-.84,0"/><path class="cls-13" d="M2233.39,275c4.3-7.45,10.93-4.22,12.57-2.58s3.1,4.16,2,8.58c-.6,2.49-3,2.66-2.44,6.45.66,4.26,2.45,4.54,3.51,5.52s2.29,1.67,2.93,3.48a10.41,10.41,0,0,1,.38,5.34c-.67,3.05-4.76.59-7.5-.75-1.82-.87-7.57-6.18-9-7.95-3.67-4.47-5.37-13.08-2.49-18.09"/><path class="cls-132" d="M2359.1,118.74c111.87-.19,112.52,91.28,107.53,150.92,7.67-14,23.32-9.33,21.44,13.08-1.79,21.48-26.77,31.76-26.35,29.38-9.14,48.61-61.87,75.6-102.62,79.42a5.51,5.51,0,0,1-.89,0V118.78c.32,0,.59,0,.89,0"/><path class="cls-131" d="M2358,144.64c-37.38,0-64.7,10.47-81.27,31.17-23.11,28.92-22.22,73.07-13.71,104.75,2.6,9.7,4,35.81,5.76,45.38,8.05,42.87,57,65.69,89.22,65.69.26,0,.58,0,.85,0V144.64H2358"/><path class="cls-132" d="M2439,175.88c-16.43-20.57-43.45-31-80.22-31.24V391.58c36.81-.38,80.79-25.37,88.35-65.65,1.77-9.57,3.13-35.67,5.73-45.38,8.52-31.59,9.33-75.72-13.86-104.68"/><path class="cls-65" d="M2389.28,345s-13.78,17-30.75,17-29.9-16.6-29.9-16.6,12.89-1.34,29.84-1.34,30.81,1,30.81,1"/><path class="cls-66" d="M2367.25,337.17c-4.79,0-8.6,3.37-8.73,7.67-.05-4.3-3.89-7.67-8.66-7.67s-22,7.8-22,7.8,16.82,2,21.6,2,9.05,2.23,9.11-1.95c.08,4.18,3.56,2.51,8.35,2.51s22.4-2.59,22.4-2.59-17.19-7.8-22-7.8"/><path id="_Path_128" data-name="&lt;Path&gt;" class="cls-134" d="M2336.37,313.69c-.45-9.26,17-3.38,22.69-3.09,4.53.23,18.33-2.92,19.52-2.11,8.12,5.49-8.6,16.55-19.8,16.55C2355.79,325,2336.64,319.28,2336.37,313.69Z"/><path id="_Path_129" data-name="&lt;Path&gt;" class="cls-12" d="M2284.88,256s9.79,17.49,24.54,19.39,30.41-.34,30.41-.34-.88-17-8.57-19.87S2307,248.56,2284.88,256Z"/><path id="_Path_130" data-name="&lt;Path&gt;" class="cls-135" d="M2327.07,263.29c-.64,6.83-7,11.92-14.3,11.37s-12.61-6.5-12-13.31,7-11.94,14.3-11.39S2327.72,256.46,2327.07,263.29Z"/><path id="_Path_131" data-name="&lt;Path&gt;" class="cls-14" d="M2313.59,269.31a6,6,0,0,1-5.14-6.47,6.29,6.29,0,0,1,6.28-5.61,6,6,0,0,1,5.14,6.47A6.29,6.29,0,0,1,2313.59,269.31Z"/><path id="_Path_132" data-name="&lt;Path&gt;" class="cls-136" d="M2339.84,275s-.33,0-1.08.15c-.63-6.19-2.43-14.75-7.22-16.54-8.71-3.34-24.45-6.22-43.45,2.11a38.9,38.9,0,0,1-3.2-4.77c22.09-11.37,39.67-6.95,47.29-4S2339.84,275,2339.84,275Z"/><path id="_Path_133" data-name="&lt;Path&gt;" class="cls-12" d="M2432.88,258.43s-9.18,17-23.87,18.46-30.44-1.19-30.44-1.19.37-18.27,8-20.91S2410.51,248.3,2432.88,258.43Z"/><path id="_Path_134" data-name="&lt;Path&gt;" class="cls-135" d="M2387.93,264.33c.79,7,7.56,12.4,15.12,12s13.07-6.52,12.28-13.56-7.56-12.42-15.13-12S2387.13,257.28,2387.93,264.33Z"/><path id="_Path_135" data-name="&lt;Path&gt;" class="cls-14" d="M2402.12,270.75a6,6,0,0,0,5.26-6.58,6.8,6.8,0,0,0-6.66-5.88,6,6,0,0,0-5.26,6.58A6.8,6.8,0,0,0,2402.12,270.75Z"/><path id="_Path_136" data-name="&lt;Path&gt;" class="cls-136" d="M2378.55,275.63s.33.05,1.08.2c.42-6.12,1.91-14.51,6.66-16.13,7.06-2.51,22.9-6.08,43.53,3.32a35.6,35.6,0,0,0,3.06-4.63c-22.49-11.86-39.93-8-47.46-5.34S2378.55,275.63,2378.55,275.63Z"/><g id="_Group_19" data-name="&lt;Group&gt;"><path id="_Path_137" data-name="&lt;Path&gt;" class="cls-17" d="M2432.05,243.2c-.35-.24-.74-.55-1.17-.88a23.09,23.09,0,0,0-4.25-2.81,44.35,44.35,0,0,0-8.76-3.88,47.32,47.32,0,0,0-11-1.75,45.09,45.09,0,0,0-11.14,1.43,39.88,39.88,0,0,0-9,3.69,30.54,30.54,0,0,0-7.6,5.72l0,.05a2.75,2.75,0,0,0-.09,3.54c.47.6,1,3.28,1.74,3.38h0a2.93,2.93,0,0,0,2.14-.55l0,0a45.14,45.14,0,0,1,7-3.94,47.51,47.51,0,0,1,7.72-2.89,37.79,37.79,0,0,1,9.34-1.52,42,42,0,0,1,9.54.43l1.45.29,3.07.62a18.21,18.21,0,0,1,2.53.71c.47.16.94.31,1.39.44a45.86,45.86,0,0,1,4.93,1.74l1,.39,6.61.09Z"/></g><g id="_Group_20" data-name="&lt;Group&gt;"><path id="_Path_138" data-name="&lt;Path&gt;" class="cls-17" d="M2287,241.77c.35-.24.74-.55,1.17-.88a23.09,23.09,0,0,1,4.25-2.81,44.35,44.35,0,0,1,8.76-3.88,47.32,47.32,0,0,1,11-1.75,45.09,45.09,0,0,1,11.14,1.43,39.88,39.88,0,0,1,9,3.69,30.54,30.54,0,0,1,7.6,5.72l0,.05a2.75,2.75,0,0,1,.09,3.54c-.47.6-1,3.28-1.74,3.38h0a2.93,2.93,0,0,1-2.14-.55l0,0a45.14,45.14,0,0,0-7-3.94,47.51,47.51,0,0,0-7.72-2.89,37.79,37.79,0,0,0-9.34-1.52,42,42,0,0,0-9.54.43l-1.45.29-3.07.62a18.21,18.21,0,0,0-2.53.71c-.47.16-.94.31-1.39.44a45.86,45.86,0,0,0-4.93,1.74l-1,.39-6.61.09Z"/></g><path d="M2413.16,128.59a20.21,20.21,0,0,0,1.82-8.17c0-10.57-8.53-19.92-21.66-25.79a13.16,13.16,0,0,0,1.75-6.39c0-11.18-15.11-20.25-33.76-20.25s-33.77,9.06-33.77,20.25a13.09,13.09,0,0,0,1.75,6.39c-13.12,5.87-21.66,15.22-21.66,25.79a20.06,20.06,0,0,0,1.07,6.41c-69.47,20.79-70.84,88.09-66.66,136.35a23.59,23.59,0,0,1,8.3,9.79c3.72,8.51,5.17,7,5.17,7s-5.9-33.33-5.9-42.59,33.68-77.77,52.43-83.28c18.57-5.37,36.15,12.66,56,13h1.59c20.2,0,37.11-18.44,55.95-13S2468,228.22,2468,237.42,2462.1,280,2462.1,280s1.42,1.47,5.18-7a23.4,23.4,0,0,1,6.92-8.82C2478.41,217.14,2477.66,151.38,2413.16,128.59Z"/><path class="cls-137" d="M2446.7,512.76c-3.35-26.11-20.59-27.82-21.17-87.05-.24-.67-.56-1.36-.79-2l-18.67-5.85a6.51,6.51,0,0,1-.08.86c-.08,4.23-1.44,32.8-2.1,50.64l-44.31,9.74-44.43-10.21c-.66-17.56-.29-45.65-.42-50.13v-.9L2296,423.73a6.09,6.09,0,0,0-.93,2.37c1.18,55.82-17.78,60.71-20.92,86.66-.7,5.42-1.41,15.42-1.87,22.24h176.23C2448.07,528.18,2447.37,518.18,2446.7,512.76Z"/><line class="cls-138" x1="2321.48" y1="415.98" x2="2321.57" y2="416.03"/><path class="cls-139" d="M2322.46,416.51l16.31,8.84,18.71,7.79a4,4,0,0,0,3.41,0l21-8.4,15.5-8.48"/><line class="cls-138" x1="2397.87" y1="416.03" x2="2397.95" y2="415.98"/><path class="cls-140" d="M2363.82,445.78a15.53,15.53,0,0,1-6.82-2.52,2.52,2.52,0,0,0-1.66,4.42l3.58,3.58a.33.33,0,0,0,.46,0l3.58-3.58a2.51,2.51,0,0,0,.87-1.9Zm0,0"/><line class="cls-141" x1="2359.14" y1="434.26" x2="2359.14" y2="434.36"/><line class="cls-142" x1="2359.14" y1="434.86" x2="2359.14" y2="443.74"/><line class="cls-141" x1="2359.14" y1="443.99" x2="2359.14" y2="444.09"/><path class="cls-143" d="M2482.41,275c-4.3-7.45-10.93-4.22-12.58-2.58s-3.1,4.16-2,8.58c.6,2.49,3,2.66,2.44,6.45-.66,4.26-2.46,4.54-3.51,5.52s-2.29,1.67-2.93,3.48a10.41,10.41,0,0,0-.38,5.34c.67,3.05,4.76.59,7.5-.75,1.82-.87,7.57-6.18,9-7.95,3.67-4.47,5.37-13.08,2.49-18.09"/></g></g></svg>