<svg xmlns="http://www.w3.org/2000/svg" xmlns:xlink="http://www.w3.org/1999/xlink" viewBox="0 0 1572.1 546"><defs><style>.cls-1{fill:none;}.cls-2{isolation:isolate;}.cls-3{fill:#5293ce;}.cls-4{fill:#17100d;}.cls-5{mix-blend-mode:multiply;}.cls-6{fill:#b98058;}.cls-7{fill:#c58c66;}.cls-8{fill:#aa6b40;}.cls-9{fill:#c48c66;}.cls-10{fill:#81431d;}.cls-11{fill:#af6938;}.cls-12{fill:#fff;}.cls-13{fill:#332214;}.cls-14{fill:#132026;}.cls-15{fill:#684426;}.cls-16{fill:#96613c;}.cls-17,.cls-42{fill:#231f20;}.cls-18,.cls-24{fill:#c09980;}.cls-19{fill:#124b8c;}.cls-20{fill:#cececd;}.cls-21{fill:#e1be9b;}.cls-22{fill:#f1d1ac;}.cls-23{fill:#e4c3a2;}.cls-24,.cls-37{opacity:0.6;}.cls-25{clip-path:url(#clip-path);}.cls-26{fill:#b6947d;}.cls-27{fill:#5e5e5e;}.cls-28{fill:#d3b396;}.cls-29{fill:#c69f84;}.cls-30{fill:#58879f;}.cls-31{fill:#d5b599;}.cls-32{fill:#da6e27;}.cls-33{fill:#3a3a3a;}.cls-34{fill:#60361f;}.cls-35{fill:#6b3c21;}.cls-36,.cls-37{fill:#391f12;}.cls-38{fill:#bf706b;}.cls-39{fill:#984e48;}.cls-40{fill:#5b381b;}.cls-41{fill:#2c180f;}.cls-42{stroke:#231f20;stroke-linecap:round;stroke-linejoin:round;stroke-width:9px;}.cls-43{fill:#070707;}.cls-44{fill:#8d8d8d;}.cls-45{fill:#f47f35;}</style><clipPath id="clip-path"><polygon class="cls-1" points="743.71 393.97 805.09 393.97 805.09 358.03 742.91 358.56 743.71 393.97"/></clipPath></defs><title>Final-Avatars</title><g class="cls-2"><g id="Layer_1" data-name="Layer 1"><rect class="cls-3" x="0.5" y="21" width="504" height="504"/><path class="cls-4" d="M368.4,144.18C345.46,72.54,281.26,46.37,253,63.25c-28.3-16.88-91,6.42-114,78.06C97.07,272.25,121.22,479,121.22,479l131.42-3.3L384.06,479S410.34,275.13,368.4,144.18Z"/><path class="cls-5" d="M332.37,274.58l-79.73-.2-79.73.2s-5.22,98.88,25.87,130c10.75,10.75,31.94,21.86,53.86,24.08,21.92-2.22,43.12-13.33,53.86-24.08C337.59,373.46,332.37,274.58,332.37,274.58Z"/><path class="cls-6" d="M253.06,302.14V525H132.21c-1.95-.93-3-1.28-3-1.28,0-33.14,5.69-57.86,13.9-76.12,13.56-30.17,34-43.08,47.21-48.53a52,52,0,0,1,12.88-3.82h.6a8.76,8.76,0,0,0,1.61-.34c6.09-1.78,10.24-10.7,13-23.62.52-2.28.95-4.49,1.28-7,.68-4.09,1.27-8.42,1.69-13q.39-3.94.76-8.16c1.11-13.76,1.44-28.63,1.44-42.63C223.66,300.53,239.94,302.14,253.06,302.14Z"/><path class="cls-7" d="M377.31,523.72a20.64,20.64,0,0,0-2.88,1.28H253.06V302.14h.26c13.14,0,29.5-1.61,29.5-1.61,0,14,.33,28.7,1.43,42.29.26,2.73.52,5.44.76,8.08.52,4.67,1,9.09,1.7,13.17v.18c.26,1.85.59,3.55.94,5.25,2.54,12.51,6.27,21.68,11.7,24.74a10.63,10.63,0,0,0,4,1s37.38,4.51,59,50C371.12,463.74,377.31,489.05,377.31,523.72Z"/><path class="cls-8" d="M286.7,364.15v.09a39.06,39.06,0,0,1-33.47,18.26h-.09c-19.32-.07-30.5-14.1-33.39-18.18.68-4.08,1.26-8.41,1.69-12.91.24-2.72.52-5.45.76-8.25a131.35,131.35,0,0,0,30.5,4h.34a124.64,124.64,0,0,0,31.19-4.33l.76,8.06C285.53,355.57,286,360,286.7,364.15Z"/><path class="cls-6" d="M253,88.78C126.83,88.56,126.1,181.41,131.71,242c-8.66-14.2-24.69-5.41-22.59,17.33,2,21.79,28.62,28.14,28.12,25.74C147.55,334.34,207,361.75,253,365.64c.32,0,.67,0,1,0V88.79Z"/><path class="cls-9" d="M253.59,88.78C379.73,88.56,380.46,181.41,374.85,242c8.66-14.2,23.11-9.61,21,13.14-2,21.79-27,32.34-26.54,29.94-10.32,49.32-69.76,76.72-115.73,80.62-.32,0-.66,0-1,0V88.79Z"/><path class="cls-6" d="M252.3,91.38c-42.14,0-73,11.65-91.62,34.64-26.06,32.09-25.06,81.12-15.45,116.33,2.94,10.76,4.45,39.76,6.48,50.41,9.1,47.58,64.27,72.94,100.6,72.94l1,0V91.41Z"/><path class="cls-7" d="M343.73,126.06c-18.52-22.84-49-34.47-90.45-34.66V365.68c41.48-.44,91.08-28.22,99.6-72.92,2-10.65,3.52-39.65,6.47-50.41C368.94,207.24,369.88,158.27,343.73,126.06Z"/><path class="cls-10" d="M287.57,325.79S272.1,338.2,253,338.2s-33.7-12.14-33.7-12.14a293.13,293.13,0,0,1,33.7-1.88C272.1,324.18,287.57,325.79,287.57,325.79Z"/><path class="cls-11" d="M262.8,320.06c-5.39,0-9.7,2.52-9.81,5.63-.11-3.11-4.42-5.63-9.78-5.63s-24.81,5.73-24.81,5.73,18.9,1.5,24.33,1.5,10.15,1.58,10.26-1.42c.08,3,4,1.86,9.34,1.86s25.23-1.94,25.23-1.94S268.21,320.06,262.8,320.06Z"/><path id="_Path_" data-name="&lt;Path&gt;" class="cls-12" d="M182.31,240.42s9.57,17.67,24.06,19.55,29.87-.42,29.87-.42-1.42-18.09-9-21S203.65,232.86,182.31,240.42Z"/><path id="_Path_2" data-name="&lt;Path&gt;" class="cls-13" d="M223.75,247.71a13,13,0,0,1-14.07,11.54A12.44,12.44,0,0,1,198,245.81,13.05,13.05,0,0,1,212,234.25,12.45,12.45,0,0,1,223.75,247.71Z"/><path id="_Path_3" data-name="&lt;Path&gt;" class="cls-14" d="M210.5,253.83a6,6,0,0,1-5-6.53,6.28,6.28,0,0,1,6.18-5.69,6,6,0,0,1,5,6.53A6.28,6.28,0,0,1,210.5,253.83Z"/><path id="_Path_4" data-name="&lt;Path&gt;" class="cls-15" d="M236.26,259.5s-.32,0-1.06.16c-.61-6.26-2.35-14.91-7.06-16.71-8.54-3.36-24-6.24-42.69,2.24a39.22,39.22,0,0,1-3.14-4.82c21.73-11.55,39-7.12,46.47-4.2S236.26,259.5,236.26,259.5Z"/><path id="_Path_5" data-name="&lt;Path&gt;" class="cls-12" d="M323.75,242.55s-9.06,17.22-23.5,18.73-29.9-1.13-29.9-1.13.44-17.1,7.9-19.79S301.91,234.33,323.75,242.55Z"/><path id="_Path_6" data-name="&lt;Path&gt;" class="cls-13" d="M279.58,248.62c.76,7.13,7.4,12.52,14.82,12.06s12.85-6.63,12.1-13.74-7.4-12.54-14.83-12.08S278.8,241.49,279.58,248.62Z"/><path id="_Path_7" data-name="&lt;Path&gt;" class="cls-14" d="M293.49,255.08a6,6,0,0,0,5.19-6.67,6.71,6.71,0,0,0-6.53-5.93,6,6,0,0,0-5.19,6.67A6.71,6.71,0,0,0,293.49,255.08Z"/><path id="_Path_8" data-name="&lt;Path&gt;" class="cls-16" d="M270.34,260.07s.33.05,1.06.2c.43-6.19,1.92-14.68,6.59-16.34,6.94-2.56,22.51-6.2,42.76,3.25a36.39,36.39,0,0,0,3-4.69c-22.07-11.94-39.21-8-46.61-5.29S270.34,260.07,270.34,260.07Z"/><path id="_Path_9" data-name="&lt;Path&gt;" class="cls-16" d="M241.8,296.43c-.23-4.65,8.52-1.7,11.41-1.55,2.28.12,9.21-1.47,9.81-1.06,4.08,2.76-4.32,8.32-10,8.32C251.56,302.14,241.93,299.24,241.8,296.43Z"/><g id="_Group_" data-name="&lt;Group&gt;"><path id="_Path_10" data-name="&lt;Path&gt;" class="cls-17" d="M330.6,217.23c-.37-.26-.78-.58-1.23-.93a24.28,24.28,0,0,0-4.47-3,46.65,46.65,0,0,0-9.21-4.08,49.77,49.77,0,0,0-11.6-1.85,47.43,47.43,0,0,0-11.72,1.5,42,42,0,0,0-9.48,3.89,32.12,32.12,0,0,0-8,6l-.05.05a2.9,2.9,0,0,0-.09,3.72c.5.63,1,3.45,1.83,3.55h0a3.08,3.08,0,0,0,2.25-.58l0,0a47.48,47.48,0,0,1,7.32-4.15,50,50,0,0,1,8.12-3,39.74,39.74,0,0,1,9.82-1.59,44.19,44.19,0,0,1,10,.45l1.52.31,3.23.65a19.15,19.15,0,0,1,2.67.75c.5.17,1,.33,1.47.46a48.24,48.24,0,0,1,5.19,1.83l1,.41,7,.1Z"/></g><g id="_Group_2" data-name="&lt;Group&gt;"><path id="_Path_11" data-name="&lt;Path&gt;" class="cls-17" d="M182.3,215.72c.37-.26.78-.58,1.23-.93a24.28,24.28,0,0,1,4.47-3,46.65,46.65,0,0,1,9.21-4.08,49.77,49.77,0,0,1,11.6-1.85,47.43,47.43,0,0,1,11.72,1.5A42,42,0,0,1,230,211.3a32.12,32.12,0,0,1,8,6l.05.05a2.9,2.9,0,0,1,.09,3.72c-.5.63-1,3.45-1.83,3.55h0a3.08,3.08,0,0,1-2.25-.58l0,0a47.48,47.48,0,0,0-7.32-4.15,50,50,0,0,0-8.12-3,39.74,39.74,0,0,0-9.82-1.59,44.19,44.19,0,0,0-10,.45l-1.52.31-3.23.65a19.15,19.15,0,0,0-2.67.75c-.5.17-1,.33-1.47.46a48.24,48.24,0,0,0-5.19,1.83l-1,.41-7,.1Z"/></g><path class="cls-18" d="M114.3,246.25c6.18-9.83,8.6-7.94,10.95-5.76,2.49,2.34,4.46,5.46,2.9,11.3-.83,3.27-4.3,3.54-3.45,8.54.93,5.59,3.51,6,5,7.24s3.3,2.22,4.22,4.62a12.67,12.67,0,0,1,.56,7c-1,4,.2,3.2-3.71,1.39-2.59-1.18-10.82-8.15-12.9-10.48-5.23-5.91-7.66-17.27-3.56-23.87"/><path class="cls-18" d="M389.72,244.43c-6.18-9.83-7.07-6.12-9.43-3.93-2.45,2.34-4.42,5.46-2.91,11.3.88,3.27,4.33,3.54,3.49,8.54-.93,5.59-3.5,6-5,7.24s-3.27,2.22-4.2,4.62,1.21,4.74,1.72,6.88c.93,4-6.35,1.66-2.39-.14,2.59-1.18,13.06-8.3,15.14-10.62,5.24-5.91,8.22-15.59,4.13-22.19"/><path class="cls-4" d="M365.53,282.17c-4.75-57.3-77.69-99.37-169.65-112.34-28.82,15.23-51,93.89-53.28,146.22-18.88-35.78-15.81-124.64-6.87-154.56,6.22-20.83,11.18-30.77,24-43.64,27.81-27.93,65-33,92.09-33,24.79,0,59.89,4.61,87.62,26.37,16.13,12.66,25.09,28.58,32.21,51.68C380.69,192.28,384.83,240.24,365.53,282.17Z"/><path class="cls-19" d="M377.87,524.83a3.06,3.06,0,0,0-2.9.17H131.74l-2.94-1.31c0-77,30-106.67,51.93-119.73-4.61,25,33.68,34.59,72.41,34.11,37.93-.44,75-11,72.25-34.68,21.88,13,52.49,43.15,52.49,120.3"/><rect class="cls-3" x="524.5" y="21" width="504" height="504"/><path class="cls-20" d="M774.68,124.85C601.29,133.46,632,287.7,632,287.7s20.15,31,44.49,65.22c22.67,31.84,46.14,76.35,98.2,65.71,45.58,8.64,79.92-23.43,98.25-63.61a275.06,275.06,0,0,1,44.44-67.32S948.06,133.46,774.68,124.85Z"/><path class="cls-21" d="M774.24,319.66V525H662.92c-1.8-.8-2.75-1.19-2.75-1.19,0-110.12,68.17-118.32,68.17-118.32,6.79,0,11.17-8.77,14.07-22.05.46-2.07.84-4.19,1.16-6.46.63-3.74,1.17-7.72,1.56-11.91.22-2.46.47-5,.7-7.56,1-12.62,1.34-26.31,1.34-39.29,0,0,15,1.47,27.09,1.47"/><path class="cls-22" d="M888.68,523.77s-1,.39-2.65,1.19H774.24V319.66h.22c12.11,0,27.17-1.47,27.17-1.47,0,12.9.3,26.43,1.31,39,.25,2.51.48,5,.72,7.45.48,4.29.92,8.36,1.55,12.17v.08c.24,1.71.55,3.31.88,4.86,2.87,14.17,7.41,23.73,14.43,23.73,0,0,68.16,8.2,68.16,118.32"/><path class="cls-23" d="M772.62,84.22c-117.9,0-118.58,99-113.32,163.74-8.11-15.36-32-10.62-30.06,13.58,1.91,23.29,35.7,35.31,35.22,32.59,9.66,53.31,65.16,84.08,108.16,84.08h.91v-294h-.91"/><path class="cls-18" d="M636.78,251.3c5.83-9.35,14.81-5.32,17-3.26,2.33,2.23,4.2,5.22,2.73,10.75-.81,3.1-4.06,3.31-3.28,8,.88,5.29,3.33,5.65,4.73,6.84s3.09,2.15,4,4.39a11.83,11.83,0,0,1,.52,6.64c-.88,3.83-6.45.79-10.18-.88-2.42-1.16-10.21-7.72-12.2-10-4.93-5.61-7.22-16.36-3.33-22.58"/><path class="cls-22" d="M773.22,84.22c117.89,0,118.56,99,113.33,163.74,8.09-15.36,32-10.62,30,13.58-1.89,23.29-35.71,35.31-35.22,32.59-9.66,53.31-65.14,84.08-108.16,84.08h-.9v-294h.9"/><path class="cls-24" d="M909.08,251.3C903.26,242,894.26,246,892,248c-2.32,2.23-4.16,5.22-2.74,10.75.81,3.1,4.1,3.31,3.29,8-.88,5.29-3.33,5.65-4.72,6.84s-3.12,2.15-4,4.39a11.83,11.83,0,0,0-.51,6.64c.88,3.83,6.43.79,10.17-.88,2.44-1.16,10.21-7.72,12.19-10,5-5.61,7.23-16.36,3.37-22.58"/><g class="cls-25"><path class="cls-26" d="M805.09,377.33v.07A35.94,35.94,0,0,1,774.39,394h-.16c-17.62-.08-27.86-12.79-30.51-16.49q.95-5.53,1.54-11.71c.24-2.42.48-4.89.71-7.45a122,122,0,0,0,27.95,3.61h.32A115.71,115.71,0,0,0,802.84,358c.23,2.47.48,4.94.71,7.33.44,4.22.91,8.21,1.54,12"/></g><path class="cls-23" d="M773.57,112.13c-38.84,0-67.19,11.26-84.42,33.6-24,31.13-23.07,78.7-14.21,112.82,2.7,10.46,4.1,38.58,6,48.93,8.38,46.18,59.21,70.74,92.68,70.74.28,0,.59,0,.87,0V112.13h-.87"/><path class="cls-22" d="M857.75,145.77c-17.06-22.18-45.11-33.45-83.31-33.64V378.18c38.23-.4,83.9-27.35,91.76-70.7,1.83-10.35,3.24-38.47,6-48.93,8.81-34,9.68-81.53-14.42-112.78"/><path class="cls-27" d="M888.84,523.8s-1,.4-2.66,1.2H662.83c-1.81-.79-2.76-1.2-2.76-1.2,0-83.88,39.62-108.6,58.46-115.65,12.28,13.54,36.58,32.18,55.35,33.09h.52c.08,0,.25.08.4,0,18.84-.91,43.14-19.63,55.43-33.16,18.73,7,58.6,31.6,58.6,115.72"/><path id="_Path_12" data-name="&lt;Path&gt;" class="cls-18" d="M762.65,289.74c-.23-4.74,8.67-1.73,11.61-1.58,2.32.12,9.38-1.49,10-1.08,4.15,2.81-4.4,8.46-10.13,8.46C772.58,295.54,762.79,292.6,762.65,289.74Z"/><path id="_Path_13" data-name="&lt;Path&gt;" class="cls-28" d="M800.07,327.35c-3.46-.18-7,2.9-11.17,2.43a.73.73,0,0,0-.43-.09,6.65,6.65,0,0,0-2.94.27,30.29,30.29,0,0,0-3.81,1.31,16.71,16.71,0,0,1-6.83,1.1v0l-.13,0-.13,0v0a16.71,16.71,0,0,1-6.83-1.1A30.3,30.3,0,0,0,764,330a6.65,6.65,0,0,0-2.94-.27.73.73,0,0,0-.43.09c-4.16.47-7.71-2.62-11.17-2.43-1,.09-2.34-.18-3.12-.18l.53.27c9.86,5.15,18.37,14.79,27.78,14.48h.27c9.42.31,17.93-9.33,27.78-14.48l.53-.27C802.42,327.16,801,327.44,800.07,327.35Z"/><path class="cls-29" d="M803,327.05h0s-10-4.13-17.16-1.71a42.23,42.23,0,0,1-5.4,1.78,13.53,13.53,0,0,1-5.66.82h0a29.39,29.39,0,0,1-4.1-.49c-.39-.06-.78-.15-1.17-.24l-.45-.1-.71-.18-.41-.11h0a44.81,44.81,0,0,1-4.24-1.48c-7.13-2.43-17.16,1.71-17.16,1.71h0l-.22.11c.78,0,2.16.27,3.12.18,2.84-.15,5.75,1.91,9,2.38a67.84,67.84,0,0,0,12,2.31,13.92,13.92,0,0,0,4.15.33v0l.13,0,.13,0v0a12.59,12.59,0,0,0,2.37,0,38.71,38.71,0,0,0,14-2.63h0c3.18-.52,6-2.5,8.83-2.36,1,.09,2.34-.18,3.12-.18Z"/><path id="_Path_14" data-name="&lt;Path&gt;" class="cls-1" d="M691.47,228.13s9,17.91,22.81,19.77,28.46-.59,28.46-.59.21-20.74-7-23.67S712.2,216.3,691.47,228.13Z"/><path id="_Path_15" data-name="&lt;Path&gt;" class="cls-1" d="M853.55,229.22s-8.72,17.57-22.49,19.18-28.47-1-28.47-1-.54-20.48,6.59-23.27S832.65,217.23,853.55,229.22Z"/><path id="_Path_16" data-name="&lt;Path&gt;" class="cls-12" d="M691.5,227.72s9.58,19,24.22,21,30.21-.62,30.21-.62.22-22-7.4-25.12S713.5,215.15,691.5,227.72Z"/><path id="_Path_17" data-name="&lt;Path&gt;" class="cls-30" d="M733.36,235.35a13.63,13.63,0,0,1-14.3,12.55,13,13,0,0,1-11.79-14.45c.69-7.47,7.09-13.1,14.31-12.56A13,13,0,0,1,733.36,235.35Z"/><path id="_Path_18" data-name="&lt;Path&gt;" class="cls-14" d="M719.92,242c-2.67-.19-5.4-3.23-5.06-7s3.62-6.37,6.29-6.18,5.41,3.23,5.06,7S722.6,242.24,719.92,242Z"/><path id="_Path_19" data-name="&lt;Path&gt;" class="cls-31" d="M745.95,248s-.33,0-1.07.17c-.58-6.76-2.29-16.09-7-18-7.07-2.94-22.92-7.24-43.19,2.66a42.25,42.25,0,0,1-3.14-5.19c22-12.6,39.47-7.92,47-4.81S745.95,248,745.95,248Z"/><path id="_Path_20" data-name="&lt;Path&gt;" class="cls-12" d="M854.59,228.89s-9.26,18.65-23.87,20.36-30.23-1.05-30.23-1.05-.57-21.75,7-24.7S832.39,216.15,854.59,228.89Z"/><path id="_Path_21" data-name="&lt;Path&gt;" class="cls-30" d="M809.88,235.71a14.19,14.19,0,0,0,14.92,12.94,13.47,13.47,0,0,0,12.31-14.91,14.19,14.19,0,0,0-14.93-13A13.47,13.47,0,0,0,809.88,235.71Z"/><path id="_Path_22" data-name="&lt;Path&gt;" class="cls-14" d="M823.92,242.6c2.79-.2,5.64-3.32,5.28-7.23s-3.78-6.57-6.57-6.37-5.64,3.34-5.28,7.23S821.13,242.8,823.92,242.6Z"/><path id="_Path_23" data-name="&lt;Path&gt;" class="cls-21" d="M800.47,248.13s.33.05,1.07.21c.47-6.69,2-15.87,6.75-17.68,7-2.8,22.8-6.83,43.22,3.27a40.39,40.39,0,0,0,3.07-5.08c-22.25-12.78-39.61-8.4-47.11-5.45S800.47,248.13,800.47,248.13Z"/><g id="_Group_3" data-name="&lt;Group&gt;"><path id="_Path_24" data-name="&lt;Path&gt;" class="cls-32" d="M746.63,217.71a26,26,0,0,0-5.66-5.8,32.49,32.49,0,0,0-7-4.21,36.38,36.38,0,0,0-9.06-2.51,38,38,0,0,0-9.32.25,35.62,35.62,0,0,0-7.58,2.31,19.1,19.1,0,0,0-3.87,1.95c-.39.24-.74.45-1.1.65l-4.83,3,5.57-1.31.84-.22a36.9,36.9,0,0,1,4.26-.93c.39-.06.79-.14,1.2-.22a14.62,14.62,0,0,1,2.18-.32l2.62-.18,1.17-.08a33.55,33.55,0,0,1,8,.73,30.4,30.4,0,0,1,7.51,2.36,39.05,39.05,0,0,1,6.09,3.39,37.71,37.71,0,0,1,5.31,4.19h0a2.42,2.42,0,0,0,1.72.71,2.38,2.38,0,0,0,1.32-.39,2.44,2.44,0,0,0,.72-3.34Z"/><path id="_Path_25" data-name="&lt;Path&gt;" class="cls-32" d="M843.66,206.77c-.32-.17-.67-.39-1.06-.63a18.94,18.94,0,0,0-3.82-1.93,35.87,35.87,0,0,0-7.66-2.34,37.9,37.9,0,0,0-9.3-.25,36.41,36.41,0,0,0-9,2.5,32.93,32.93,0,0,0-7,4.21,26,26,0,0,0-5.65,5.79l0,.05a2.46,2.46,0,0,0,.32,3.05,2.39,2.39,0,0,0,1.71.72h0a2.39,2.39,0,0,0,1.71-.72l0,0a37.86,37.86,0,0,1,5.31-4.19,39.11,39.11,0,0,1,6.06-3.37,30.58,30.58,0,0,1,7.55-2.37,33.68,33.68,0,0,1,7.93-.72l1.23.09,2.61.18a14.62,14.62,0,0,1,2.17.32c.41.08.81.16,1.2.22a36.92,36.92,0,0,1,4.27.93l.85.22,5.56,1.31Z"/></g><path class="cls-32" d="M888.89,239.22a26.42,26.42,0,0,0-6.81,10c-3.7,9.69-5.1,8-5.1,8s5.83-37.92,5.83-48.48S849.67,145,831.18,138.7s-35.16,14.8-55,14.8h-1.57c-19.48-.4-36.77-20.91-55-14.8C701.09,145,668,198.33,668,208.8s5.81,48.48,5.81,48.48-1.43,1.66-5.09-8c-2.11-5.66-7.4-8.2-10.06-10.5-4.92-65.69-.22-163.08,115.82-163.08h.62c116.66,0,118.91,97.86,113.83,163.54"/><path class="cls-27" d="M869.71,116.55C847.1,80.48,816,58,773.32,58s-71.64,23-94.24,59.11C658.48,150,648.6,157.56,633,203.36c12.22-22.86,56.76-69.84,142.05-69.84s132.12,46.76,144.46,69.84C903.83,157.56,890.3,149.42,869.71,116.55Z"/><path class="cls-33" d="M761,506.77c0-21.7-3.62-31.38-11.47-51.17-16-40.34-41.79-74-64.53-103.68-21-27.43-39.14-51.11-46.37-74.67-8.07-26.32-1.64-57.25,17.2-82.74,14.76-20,50-53.44,120.63-53.44s105.87,33.48,120.63,53.44C916,220,922.4,250.93,914.33,277.25,907.1,300.81,889,324.49,868,351.92c-22.74,29.69-48.51,63.34-64.53,103.68-7.86,19.79-11.76,34.55-11.76,56.25h0a7.56,7.56,0,1,0,15.12,0h0c0-19.78,3.54-32.67,10.69-50.67C832.72,422.79,857.82,390,880,361.11c21-27.4,40.8-53.27,48.82-79.42,9.47-30.88,2.18-66.83-19.49-96.15C892.84,163.28,853.71,126,776.5,126s-116.34,37.33-132.78,59.57c-21.68,29.32-29,65.27-19.49,96.15,8,26.15,27.84,52,48.82,79.42,22.14,28.91,47.24,61.68,62.48,100.07,7.15,18,9.42,26.76,10.43,46.37h0c0,4.17,4.15,7.65,8.33,7.65s6.77-4.26,6.77-8.43"/><rect class="cls-3" x="1048.5" y="21" width="504" height="504"/><path class="cls-34" d="M1299.86,317.31V525H1187.12c-1.82-.8-2.77-1.19-2.77-1.19,0-111.41,69-119.74,69-119.74,6.88,0,11.31-8.85,14.24-22.31.48-2.07.87-4.21,1.19-6.5.63-3.8,1.18-7.84,1.57-12,.24-2.53.47-5.07.71-7.68.87-10.37,1.19-21.53,1.27-32.38.08-2.46.08-4.91.08-7.36C1272.43,315.81,1287.6,317.31,1299.86,317.31Z"/><path class="cls-35" d="M1415.77,523.81s-1,.39-2.68,1.19H1299.86V317.31h.24c12.25,0,27.51-1.5,27.51-1.5,0,2.84,0,5.69.08,8.55.08,10.35.48,21,1.27,30.87.22,2.53.47,5.07.71,7.53.47,4.34,1,8.47,1.58,12.34v.1c.23,1.73.54,3.32.86,4.9,2.93,14.33,7.52,24,14.63,24C1346.75,404.07,1415.77,412.39,1415.77,523.81Z"/><path class="cls-36" d="M1331.26,375.11v.1a36.43,36.43,0,0,1-31.23,17h-.15c-18-.07-28.39-13.14-31.07-16.93.63-3.8,1.17-7.83,1.57-12,.23-2.52.48-5.06.71-7.67a124.38,124.38,0,0,0,28.46,3.72h.33a117,117,0,0,0,29.08-4c.23,2.53.48,5.07.71,7.53C1330.16,367.12,1330.62,371.24,1331.26,375.11Z"/><path class="cls-34" d="M1300.21,79.11c-119.43,0-120.11,100.12-114.8,165.65C1177.22,229.23,1153,234,1155,258.5c1.92,23.57,36.16,35.75,35.68,33,9.78,53.92,66,85.07,109.56,85.07.29,0,.61-.05.91-.05V79.14Z"/><path class="cls-36" d="M1162.59,248.15c5.92-9.45,15-5.37,17.25-3.29,2.38,2.27,4.26,5.27,2.79,10.85-.83,3.15-4.14,3.4-3.32,8.17.88,5.38,3.36,5.7,4.77,6.93s3.15,2.15,4,4.43a11.92,11.92,0,0,1,.53,6.74c-.92,3.86-6.53.79-10.3-.92-2.47-1.13-10.35-7.8-12.34-10.06C1161,265.34,1158.65,254.44,1162.59,248.15Z"/><path class="cls-35" d="M1300.79,79.11c119.43,0,120.12,100.12,114.79,165.65C1423.78,229.23,1448,234,1446,258.5c-1.93,23.57-36.16,35.75-35.68,33-9.78,53.92-66,85.07-109.56,85.07-.29,0-.62-.05-.91-.05V79.14Z"/><path class="cls-37" d="M1438.41,248.15c-5.89-9.45-15-5.37-17.25-3.29-2.38,2.27-4.24,5.27-2.79,10.85.83,3.15,4.13,3.4,3.33,8.17-.87,5.38-3.36,5.7-4.78,6.93s-3.15,2.15-4,4.43a12.07,12.07,0,0,0-.53,6.74c.92,3.86,6.54.79,10.3-.92,2.49-1.13,10.36-7.8,12.36-10.06C1440,265.34,1442.34,254.44,1438.41,248.15Z"/><path class="cls-34" d="M1299.17,107.34c-39.3,0-68,11.43-85.47,34-24.31,31.51-23.38,79.63-14.41,114.18,2.73,10.56,4.15,39,6,49.47,8.49,46.72,60,71.6,93.85,71.6.29,0,.61-.05.91-.05V107.38C1299.77,107.38,1299.48,107.34,1299.17,107.34Z"/><path class="cls-35" d="M1384.46,141.38c-17.28-22.41-45.71-33.82-84.39-34V376.53c38.71-.41,85-27.68,92.93-71.55,1.88-10.45,3.29-38.9,6-49.47C1408,221.06,1408.86,173,1384.46,141.38Z"/><path class="cls-12" d="M1197.17,335.09c.49.6.37.41-.16-.3C1197.07,334.87,1197.12,335,1197.17,335.09Z"/><path class="cls-38" d="M1324.31,325.17s-10.91,11.36-24.37,11.36-23.69-11.13-23.69-11.13,10.27-.34,23.69-.34,24.37.11,24.37.11"/><path class="cls-39" d="M1306.85,319.91c-3.79,0-6.8,2.28-6.9,5.15-.05-2.88-3.08-5.15-6.87-5.15s-17.48,5.26-17.48,5.26,13.33,1.35,17.13,1.35,7.16,1.49,7.21-1.3c.07,2.8,2.82,1.69,6.62,1.69s17.74-1.73,17.74-1.73-13.62-5.26-17.47-5.26"/><path id="_Path_26" data-name="&lt;Path&gt;" class="cls-36" d="M1277.52,278.22c-.46-6.41,17.23-2.34,23.06-2.14,4.61.16,18.62-2,19.83-1.46,8.25,3.8-8.73,11.45-20.12,11.45C1297.25,286.08,1277.8,282.09,1277.52,278.22Z"/><path id="_Path_27" data-name="&lt;Path&gt;" class="cls-12" d="M1216.63,209.84s11.17,19,28.24,21,35.23-.62,35.23-.62-1.2-19.23-10.08-22.32S1242.22,200.58,1216.63,209.84Z"/><path id="_Path_28" data-name="&lt;Path&gt;" class="cls-40" d="M1265.45,217.47c-.81,7.45-8.27,13.06-16.67,12.53s-14.55-7-13.74-14.43,8.27-13.08,16.68-12.54S1266.27,210,1265.45,217.47Z"/><path id="_Path_29" data-name="&lt;Path&gt;" class="cls-14" d="M1249.78,224.15a6.52,6.52,0,0,1-5.9-7,7.3,7.3,0,0,1,7.33-6.17,6.51,6.51,0,0,1,5.9,7A7.3,7.3,0,0,1,1249.78,224.15Z"/><path id="_Path_30" data-name="&lt;Path&gt;" class="cls-41" d="M1280.13,230.12s-.38,0-1.25.17c-.67-6.75-2.67-16.07-8.21-18-8.25-2.93-26.73-7.23-50.36,2.66a41.36,41.36,0,0,1-3.67-5.18c25.7-12.58,46-7.9,54.84-4.8S1280.13,230.12,1280.13,230.12Z"/><path id="_Path_31" data-name="&lt;Path&gt;" class="cls-12" d="M1387.87,212.4S1377.07,231,1360,232.74s-35.25-1.05-35.25-1.05,2.05-20,10.88-22.92S1361.95,203.74,1387.87,212.4Z"/><path id="_Path_32" data-name="&lt;Path&gt;" class="cls-40" d="M1335.73,219.21c.84,7.69,8.64,13.46,17.4,12.92s15.2-7.22,14.36-14.89-8.64-13.48-17.41-12.94S1334.86,211.53,1335.73,219.21Z"/><path id="_Path_33" data-name="&lt;Path&gt;" class="cls-14" d="M1352.1,226.09a6.74,6.74,0,0,0,6.16-7.22c-.43-3.89-4.4-6.56-7.66-6.36a6.75,6.75,0,0,0-6.16,7.22C1344.88,223.63,1348.85,226.3,1352.1,226.09Z"/><path class="cls-41" d="M1332.94,206.92c-7.16,2.4-8.09,17.08-8.18,22.6h0l-.07,2.18,1.32.2v-.07h0c.54-6.68,2.36-15.84,7.88-17.66,8.2-2.8,26.59-6.82,50.4,3.26a39.53,39.53,0,0,0,3.59-5.07C1361.92,199.6,1341.68,204,1332.94,206.92Z"/><g id="_Group_4" data-name="&lt;Group&gt;"><path id="_Path_34" data-name="&lt;Path&gt;" class="cls-42" d="M1382.92,190c-.38-.26-.79-.59-1.25-.94a24.68,24.68,0,0,0-4.55-3,47.41,47.41,0,0,0-9.36-4.15A50.58,50.58,0,0,0,1356,180a48.21,48.21,0,0,0-11.91,1.53,42.64,42.64,0,0,0-9.63,3.95,32.65,32.65,0,0,0-8.13,6.12l-.05.06a3,3,0,0,0-.09,3.78c.51.64,1,3.5,1.86,3.61h0a3.13,3.13,0,0,0,2.29-.59l0,0a48.26,48.26,0,0,1,7.43-4.22,50.79,50.79,0,0,1,8.25-3.09,40.39,40.39,0,0,1,10-1.62,44.91,44.91,0,0,1,10.2.46l1.55.31,3.28.66a19.46,19.46,0,0,1,2.71.76c.51.17,1,.33,1.49.47a49,49,0,0,1,5.27,1.86l1,.41,7.06.1Z"/></g><g id="_Group_5" data-name="&lt;Group&gt;"><path id="_Path_35" data-name="&lt;Path&gt;" class="cls-42" d="M1224.64,190c.38-.26.79-.59,1.25-.94a24.68,24.68,0,0,1,4.55-3,47.41,47.41,0,0,1,9.36-4.15,50.58,50.58,0,0,1,11.79-1.88,48.21,48.21,0,0,1,11.91,1.53,42.64,42.64,0,0,1,9.63,3.95,32.65,32.65,0,0,1,8.13,6.12l.05.06a3,3,0,0,1,.09,3.78c-.51.64-1,3.5-1.86,3.61h0a3.13,3.13,0,0,1-2.29-.59l0,0a48.26,48.26,0,0,0-7.43-4.22,50.79,50.79,0,0,0-8.25-3.09,40.39,40.39,0,0,0-10-1.62,44.91,44.91,0,0,0-10.2.46l-1.55.31-3.28.66a19.46,19.46,0,0,0-2.71.76c-.51.17-1,.33-1.49.47a49,49,0,0,0-5.27,1.86l-1,.41-7.06.1Z"/></g><polygon class="cls-41" points="1219.85 209.44 1216.18 211.32 1220.26 217.31 1225.7 212.87 1219.85 209.44"/><polygon class="cls-41" points="1278.82 234.45 1278.87 235.17 1280.13 235.02 1280.11 234.16 1278.82 234.45"/><path class="cls-43" d="M1423.53,235.45a28.37,28.37,0,0,0-7.36,10.89c-4,10.51-5.52,8.69-5.52,8.69s6.29-41.15,6.29-52.6-36.9-78.28-56.89-85.08-36.91-1.69-58.38-1.69H1300c-21.07-.42-40.84-4.94-60.57,1.69-20,6.8-54.66,73.73-54.66,85.08S1191,255,1191,255s-1.55,1.81-5.51-8.69a28.26,28.26,0,0,0-8.82-12.09C1171.37,163,1174.41,58,1299.83,58h.67c126.1,0,128.53,106.18,123,177.45"/><path class="cls-44" d="M1415.32,198.12v-.21a.93.93,0,0,0-.59-.55h0l-.13-.05c-9.6-3.42-49.83-5-71.55-2.56s-34.77,8-42,8.28c-7.23-.1-20.3-5.4-42.16-7.42s-62,.4-71.46,4a.46.46,0,0,0-.16.06h0a.78.78,0,0,0-.54.55v.21c-.09,1.21-.39,6.45-.25,9.43a3.2,3.2,0,0,0,0,.45,2.52,2.52,0,0,0,1.72,1.87l.13,0c1.94.67,5.28,3.57,8.81,17.77,1.63,7.08,3.65,22.07,19.08,26.48,7,2,41,5.77,58.08-7.59,3.61-2.81,7.49-9,10.75-15.21,1.91-4.26,7-16.49,7.71-18.35a7.42,7.42,0,0,1,7.48-5.37l1.69,0a7.43,7.43,0,0,1,7.56,5.23c.79,1.85,6.1,14,8.07,18.18,3.39,6.19,7.42,12.26,11.06,15,17.42,13,51.26,8.48,58.23,6.39,15.36-4.73,17.07-19.74,18.54-26.86,3.27-14.28,6.57-17.25,8.46-18l.13,0a2.57,2.57,0,0,0,1.71-1.91v-.46C1415.82,204.57,1415.42,199.33,1415.32,198.12Zm-140.23,39.26A26.09,26.09,0,0,1,1259,251c-13.34,3.79-22.82,4-36.17,2.2-8.92-1.18-15.53-7.15-17.33-13.2-2.21-8.4-5.39-17-3.35-25.36a17.83,17.83,0,0,1,12-12.43c13.2-4.24,33.88-4,47.15-2,6.5,1.17,18,2.35,20.7,10C1284.85,218.49,1279.55,230.06,1275.09,237.38Zm122.46.68c-1.69,6.1-8.18,12.22-17.09,13.56-13.3,2-22.78,2.05-36.17-1.47a26,26,0,0,1-16.41-13.3c-4.59-7.23-10.11-18.68-7.4-27,2.52-7.68,14-9.11,20.49-10.42,13.23-2.33,33.87-3,47.17,1a17.79,17.79,0,0,1,12.23,12.18C1402.59,221,1399.6,229.64,1397.55,238.06Z"/><path class="cls-45" d="M1391.82,493.43h22c0-2.23-.68-4.65-1-6.77-3.32-19.45-9.37-35.77-13.48-43.72-1.76-3.41-3-5.36-3-5.36a80.85,80.85,0,0,0-17.06-18.26,16,16,0,0,0-1.52-1.27c-.84-.64-1.68-1.25-2.51-1.83-89.85,158.12-149,0-149,0a26.16,26.16,0,0,0-2.77,2,8.05,8.05,0,0,0-1.54,1.23,32.51,32.51,0,0,0-5.21,3.51c-4.35,3.94-7.59,8.75-11.68,14.63,0,0-17.92,26.86-18.32,48.51,0,0-.57,6-.55,8.07l23.33-.74c0,2.19,0,4.28-.06,6.3-.14,11.06-.5,19.65-.86,25.26h184.22c-.37-5.6-.77-14.2-.93-25.26C1391.85,497.71,1391.83,495.63,1391.82,493.43Z"/><path class="cls-45" d="M1229.84,413.18l6.68-3.71,6.25-2.79,8.39-2.4,18.81,12c19.63,4.92,38.6,5.43,58.1,0l20.5-12,6,1.46,8.24,3.64,12.42,6.86,10.22,70.93H1205.59l17-68.29"/><path class="cls-12" d="M1251.16,404.29c10.7,8.62,31.93,20.46,48.29,21.06h.48a.92.92,0,0,0,.33,0c16.41-.6,37.58-12.44,48.31-21.06a64.43,64.43,0,0,0-7.72-2.66c-9,7.25-26.89,17.28-40.75,17.77a.58.58,0,0,1-.28,0h-.4c-13.79-.49-31.66-10.47-40.68-17.73a63.63,63.63,0,0,0-7.58,2.62"/></g></g></svg>