<svg id="Layer_1" data-name="Layer 1" xmlns="http://www.w3.org/2000/svg" xmlns:xlink="http://www.w3.org/1999/xlink" viewBox="0 0 504 504"><defs><style>.cls-1{fill:none;}.cls-2{fill:#47b28e;}.cls-3{fill:#5a4118;}.cls-4{fill:#e4c4a4;}.cls-5{fill:#f1d1ac;}.cls-6{clip-path:url(#clip-path);}.cls-7,.cls-8{fill:#c09980;}.cls-8{opacity:0.6;}.cls-9{fill:#c18553;}.cls-10{fill:#d6915e;}.cls-11{fill:#fff;}.cls-12{fill:#3c2615;}.cls-13{fill:#132026;}.cls-14{fill:#75634f;}.cls-15{fill:#5a421a;}.cls-16{fill:#d1d1d1;}.cls-17{fill:#733039;}</style><clipPath id="clip-path"><rect class="cls-1" x="211.76" y="336.72" width="61.54" height="36.47"/></clipPath></defs><title>Final-Avatars</title><rect class="cls-2" width="504" height="504"/><path class="cls-3" d="M243.7,219.67c-4.53,15.23-9.74,32.62-19.49,50s-39.4,39.77-40.42,63.63c-2.21,51.19,70.31,75.53,99.57,84.23s39,9.55,42.25,22.18.59,33.66.59,33.66,24.64-13.47,31.59-23.8c14.95-22.16-1.41-37.25-1.41-37.25s-6.06,5.21,1.08,17,7.16,22.18,4.56,25.22-11.7,12.61-11.7,12.61,45.19-12.82,36.4-49.57c-1.51-6.29-5.63-1.69,0,0,12.57,3.75,10.21,24.5,10.21,24.5s30.65-39.7-31.43-62.16c-5.91-2.14-37.89-10.05-41.19-36.48-1.84-14.66,8.89-15.95,10.85-33.86,2.53-23.19-30.66-18.31-43.43-40.16-2.43-4.15,9.59-6.51,0-17.79C280.14,238,275.88,239,259.31,231S243.7,219.67,243.7,219.67Z"/><path class="cls-4" d="M242.39,299.37V504H131.28l-2.72-1.16c0-109.76,68-118,68-118,6.79,0,11.16-8.72,14-22,.47-2,.86-4.12,1.17-6.39.63-3.73,1.17-7.74,1.55-11.86.25-2.5.47-5,.72-7.54,1-12.58,1.31-26.23,1.31-39.17,0,0,15,1.46,27.06,1.46"/><path class="cls-5" d="M356.6,502.83s-1,.41-2.66,1.16H242.39V299.37h.22c12.06,0,27.13-1.46,27.13-1.46,0,12.86.3,26.36,1.3,38.81.25,2.5.48,5,.69,7.42.49,4.29.94,8.34,1.57,12.19v.07c.24,1.71.56,3.26.87,4.85,2.86,14.08,7.37,23.6,14.41,23.6,0,0,68,8.22,68,118"/><path class="cls-5" d="M242.6,64.72v293h.83c42.94,0,98.31-30.63,108-83.77a5.24,5.24,0,0,0,.16,2.42c1.78,4.29,9.83,8.74,15.49,3.66,5-4.53,1.73-13,1.95-13.18,8.28-5.63,16.6-14.21,17.54-25.44,2-24.13-21.9-28.81-30-13.49,5.19-64.6,4.6-163.18-113.14-163.18ZM357.31,273.38a3.52,3.52,0,0,1,3.53-3.45,3.44,3.44,0,1,1-3.53,3.45"/><g class="cls-6"><path class="cls-7" d="M273.3,356.32v.07a35.94,35.94,0,0,1-30.76,16.79h-.17c-17.67-.07-28-13-30.61-16.7.63-3.73,1.17-7.74,1.55-11.86.25-2.5.47-5,.72-7.54a124.67,124.67,0,0,0,28.06,3.66h.29a113.42,113.42,0,0,0,28.67-4c.25,2.5.48,5,.72,7.42.47,4.29.91,8.34,1.55,12.19"/></g><path class="cls-4" d="M242.71,64.67C125,64.67,124.39,163.29,129.59,227.9c-8.09-15.32-31.94-10.6-30,13.49.91,11.23,9.25,19.81,17.52,25.44.23.16-3.06,8.65,1.94,13.18,5.7,5.08,13.7.63,15.5-3.66a5.44,5.44,0,0,0,.15-2.42c9.68,53.14,65.07,83.77,108,83.77h.87v-293ZM125.3,276.79a3.41,3.41,0,0,1,0-6.83,3.42,3.42,0,1,1,0,6.83"/><path class="cls-7" d="M107.11,231.2c5.82-9.29,14.77-5.28,17-3.26,2.34,2.26,4.2,5.2,2.75,10.73-.81,3.09-4.06,3.32-3.27,8,.87,5.27,3.33,5.6,4.71,6.83s3.09,2.1,4,4.36a11.57,11.57,0,0,1,.52,6.63c-.89,3.81-6.44.8-10.14-.91-2.43-1.11-10.19-7.7-12.16-9.88-5-5.6-7.26-16.31-3.37-22.54"/><path class="cls-4" d="M241.68,92.45c-38.72,0-67.06,11.27-84.23,33.49-24,31-23,78.46-14.2,112.51,2.71,10.4,4.09,38.45,6,48.74,8.36,46,59.07,70.56,92.47,70.56.27,0,.6,0,.91,0V92.49c-.32,0-.6,0-.91,0"/><path class="cls-5" d="M325.73,126c-17-22.06-45.06-33.29-83.14-33.49V357.7c38.12-.42,83.69-27.25,91.53-70.51,1.86-10.29,3.25-38.34,5.94-48.74,8.82-33.93,9.69-81.32-14.33-112.47"/><path class="cls-8" d="M378.86,231.2c-5.82-9.29-14.77-5.28-17-3.26-2.34,2.26-4.21,5.2-2.76,10.73.81,3.09,4.06,3.32,3.29,8-.87,5.27-3.31,5.6-4.74,6.83s-3.08,2.1-4,4.36a11.71,11.71,0,0,0-.52,6.63c.91,3.81,6.45.8,10.14-.91,2.45-1.11,10.22-7.7,12.16-9.88,5-5.6,7.25-16.31,3.36-22.54"/><path class="cls-9" d="M262.76,307.72s-9.34,11.42-20.85,11.42-20.31-11.2-20.31-11.2a117.91,117.91,0,0,1,20.31-1.72A147.4,147.4,0,0,1,262.76,307.72Z"/><path class="cls-10" d="M247.81,302.44c-3.24,0-5.84,2.31-5.9,5.17a5.62,5.62,0,0,0-5.9-5.17c-3.26,0-14.95,5.28-14.95,5.28s11.39,1.36,14.64,1.36,6.14,1.47,6.21-1.28c0,2.78,2.39,1.7,5.63,1.7s15.21-1.78,15.21-1.78S251.08,302.44,247.81,302.44Z"/><path id="_Path_" data-name="&lt;Path&gt;" class="cls-11" d="M150.32,210.37s11.84,21.37,29.72,23.68,36.85-.44,36.85-.44-2.35-20.25-11.67-23.77S177.39,200.12,150.32,210.37Z"/><path id="_Path_2" data-name="&lt;Path&gt;" class="cls-12" d="M201.45,219.27c-.78,8.35-8.55,14.58-17.33,13.92s-15.28-7.94-14.5-16.27S178.17,202.32,187,203,202.25,210.92,201.45,219.27Z"/><path id="_Path_3" data-name="&lt;Path&gt;" class="cls-13" d="M185.11,226.64a7.29,7.29,0,0,1-6.23-7.9,7.66,7.66,0,0,1,7.62-6.86,7.29,7.29,0,0,1,6.23,7.9A7.65,7.65,0,0,1,185.11,226.64Z"/><path id="_Path_4" data-name="&lt;Path&gt;" d="M216.91,233.55s-.4,0-1.31.19c-.76-7.57-2.93-18-8.74-20.21-8.65-3.35-28-8.3-52.66,2.62a47.5,47.5,0,0,1-3.88-5.83c26.78-13.91,48.08-8.53,57.32-5S216.91,233.55,216.91,233.55Z"/><path id="_Path_5" data-name="&lt;Path&gt;" class="cls-11" d="M337.08,213s-11.14,20.79-28.95,22.58-36.88-1.43-36.88-1.43,2-20.49,11.2-23.73S310.16,202.13,337.08,213Z"/><path id="_Path_6" data-name="&lt;Path&gt;" class="cls-12" d="M282.6,220.22c.95,8.62,9.15,15.15,18.31,14.6s15.84-8,14.89-16.58-9.15-15.17-18.32-14.63S281.63,211.6,282.6,220.22Z"/><path id="_Path_7" data-name="&lt;Path&gt;" class="cls-13" d="M299.78,228.05a7.28,7.28,0,0,0,6.38-8,8.25,8.25,0,0,0-8.07-7.18,7.29,7.29,0,0,0-6.38,8A8.25,8.25,0,0,0,299.78,228.05Z"/><path id="_Path_8" data-name="&lt;Path&gt;" d="M271.22,234s.4.06,1.31.24c.51-7.48,2.33-17.74,8.09-19.73,8.55-3.07,27.76-7.45,52.75,4a43.65,43.65,0,0,0,3.71-5.66c-27.25-14.48-48.39-9.73-57.51-6.49S271.22,234,271.22,234Z"/><path id="_Path_9" data-name="&lt;Path&gt;" class="cls-7" d="M229.47,264.35c-.26-5.39,9.87-2,13.21-1.8,2.64.14,10.67-1.7,11.36-1.23,4.72,3.19-5,9.63-11.52,9.63C240.77,271,229.63,267.6,229.47,264.35Z"/><g id="_Group_" data-name="&lt;Group&gt;"><path id="_Path_10" data-name="&lt;Path&gt;" class="cls-14" d="M214.41,197.35a31.77,31.77,0,0,0-6.91-7.08,39.65,39.65,0,0,0-8.59-5.14,44.4,44.4,0,0,0-11.06-3.06,46.4,46.4,0,0,0-11.37.31,43.47,43.47,0,0,0-9.25,2.82,23.31,23.31,0,0,0-4.72,2.38c-.47.29-.9.55-1.34.79l-5.89,3.72,6.79-1.6,1-.27a45,45,0,0,1,5.2-1.14c.48-.07,1-.17,1.47-.27a17.85,17.85,0,0,1,2.66-.39l3.19-.22,1.43-.1a40.94,40.94,0,0,1,9.76.89,37.11,37.11,0,0,1,9.16,2.88,47.66,47.66,0,0,1,7.43,4.14,46,46,0,0,1,6.48,5.12h0a3,3,0,0,0,2.1.87,2.91,2.91,0,0,0,1.61-.48,3,3,0,0,0,.88-4.08Z"/><path id="_Path_11" data-name="&lt;Path&gt;" class="cls-14" d="M324.23,189.13c-.39-.21-.82-.47-1.29-.76a23.11,23.11,0,0,0-4.67-2.36,43.78,43.78,0,0,0-9.35-2.85,46.26,46.26,0,0,0-11.35-.3,44.44,44.44,0,0,0-11,3.06,40.19,40.19,0,0,0-8.59,5.14,31.78,31.78,0,0,0-6.9,7.07l0,.06a3,3,0,0,0,.39,3.73,2.92,2.92,0,0,0,2.09.88h0a2.92,2.92,0,0,0,2.09-.88l0,0a46.21,46.21,0,0,1,6.48-5.11,47.74,47.74,0,0,1,7.39-4.11,37.32,37.32,0,0,1,9.21-2.9,41.1,41.1,0,0,1,9.68-.88l1.5.11,3.18.22a17.84,17.84,0,0,1,2.65.39c.5.1,1,.2,1.46.27a45.06,45.06,0,0,1,5.21,1.14l1,.27,6.79,1.6Z"/></g><path class="cls-15" d="M171,122.95s88.69-45.23,121.5,45.29C292.52,168.23,305.77,29.94,171,122.95Z"/><circle class="cls-16" cx="123.54" cy="275.5" r="10.47"/><circle class="cls-16" cx="361.21" cy="275.5" r="10.47"/><path class="cls-15" d="M183.71,71.61s-13.8,37.23-7.46,47.8c0,0-43.53,17.75-47.63,106,0,0-4-1-9.06,4.25C119.56,229.69,86.47,104.81,183.71,71.61Z"/><path class="cls-15" d="M171,122.95s107.4-78.7,118.7,35.69c0,0,16.48,73.08,68.32,66.79,0,0,31.76-72.88-29.53-149,0,0-43.34-55-106.76-35.12C221.75,41.32,159.39,63.12,171,122.95Z"/><path class="cls-17" d="M334.72,472.57h19.72c0-2.22,0-4.39-.11-6.54a108.72,108.72,0,0,0-12.06-43.72c-1.77-3.4-3-5.33-3-5.33a80.82,80.82,0,0,0-17.15-18.18,16,16,0,0,0-1.53-1.27c-.84-.64-1.69-1.24-2.53-1.82-90.33,157.44-149.78,0-149.78,0-.93.64-1.85,1.26-2.78,2a8.08,8.08,0,0,0-1.55,1.23c-1.39,1.08-2.79,2.25-4.17,3.5A85.53,85.53,0,0,0,146.94,417s-12.66,28.4-15.06,49.05c-.26,2.29-1.45,4.82-1.43,6.87l21-.33c0,2.18,0,4.26-.06,6.28-.14,11-.5,19.56-.86,25.15h185.2c-.37-5.58-.77-14.14-.93-25.15C334.75,476.83,334.73,474.76,334.72,472.57Z"/></svg>