<svg id="Layer_1" data-name="Layer 1" xmlns="http://www.w3.org/2000/svg" xmlns:xlink="http://www.w3.org/1999/xlink" viewBox="0 0 504 504"><defs><style>.cls-1{fill:none;}.cls-2{fill:#342626;}.cls-3{fill:#9a6d4c;}.cls-4{fill:#a7774a;}.cls-5{clip-path:url(#clip-path);}.cls-6{fill:#8b613e;}.cls-7{fill:#93643f;}.cls-8{fill:#a57146;}.cls-9{fill:#d28d5a;}.cls-10{fill:#c38553;}.cls-11{fill:#7f5a3e;}.cls-12{fill:#231f20;}.cls-13{fill:#fff;}.cls-14{fill:#1d130d;}.cls-15{fill:#132026;}.cls-16{fill:#694626;}.cls-17{fill:#895833;}.cls-18{fill:#666667;}.cls-19{fill:#26120d;}.cls-20{fill:#4f4f4f;}</style><clipPath id="clip-path"><rect class="cls-1" x="221.21" y="343.81" width="60.71" height="35.98"/></clipPath></defs><title>Final-Avatars</title><path class="cls-2" d="M245.85,330.77a7.47,7.47,0,0,0-.9,3.52v3.3a7.48,7.48,0,1,0,15,0v-3.3a7.47,7.47,0,0,0-.9-3.52,63.09,63.09,0,0,0-13.16,0Z"/><path class="cls-3" d="M251.39,301.89V504H141.82l-2.7-1.14c0-108.4,67.07-116.48,67.07-116.48,6.73,0,11-8.61,13.85-21.71.48-2,.86-4.1,1.18-6.35q.94-5.53,1.52-11.72c.24-2.42.47-4.9.7-7.45,1-12.41,1.3-25.89,1.3-38.67,0,0,14.77,1.45,26.66,1.45"/><path class="cls-4" d="M364.08,502.82s-1,.39-2.61,1.18H251.39V301.89h.23c11.92,0,26.74-1.45,26.74-1.45,0,12.7.32,26,1.33,38.36.23,2.47.47,4.94.7,7.33.43,4.22.9,8.22,1.53,12v.07c.23,1.7.55,3.26.86,4.78,2.81,14,7.26,23.36,14.18,23.36,0,0,67.12,8.08,67.12,116.48"/><g class="cls-5"><path class="cls-6" d="M281.92,363.13v.07a35.48,35.48,0,0,1-30.37,16.58h-.16c-17.43-.08-27.56-12.81-30.18-16.5q.94-5.53,1.52-11.72c.24-2.42.47-4.9.7-7.45a119.31,119.31,0,0,0,27.64,3.62h.31a113.18,113.18,0,0,0,28.3-3.92c.23,2.47.47,4.94.7,7.33.43,4.22.9,8.22,1.53,12"/></g><path class="cls-3" d="M251.74,75.12c-116.1,0-116.76,97.42-111.6,161.15-7.93-15.09-31.51-10.42-29.59,13.36,1.88,23,35.14,34.8,34.67,32.15,9.54,52.47,64.15,82.8,106.53,82.8.27,0,.59-.07.86-.07V75.12h-.86"/><path class="cls-7" d="M118,239.6c5.75-9.21,14.59-5.25,16.77-3.2s4.15,5.12,2.69,10.53c-.78,3.06-4,3.3-3.19,8,.85,5.21,3.28,5.56,4.62,6.73s3.08,2.07,3.94,4.3a12,12,0,0,1,.51,6.55c-.9,3.77-6.38.78-10-.9-2.42-1.1-10.09-7.57-12-9.77-4.85-5.52-7.12-16.09-3.29-22.22"/><path class="cls-4" d="M252.29,75.12c116.09,0,116.76,97.42,111.6,161.15,7.93-15.09,31.51-10.42,29.55,13.36-1.84,23-35.15,34.8-34.68,32.15-9.49,52.47-64.1,82.8-106.47,82.8-.28,0-.58-.07-.9-.07V75.12h.9"/><path class="cls-8" d="M386.05,239.6c-5.74-9.21-14.62-5.25-16.77-3.2-2.31,2.18-4.15,5.12-2.74,10.53.81,3.06,4,3.3,3.24,8-.86,5.21-3.24,5.56-4.66,6.73s-3,2.07-3.9,4.3a11.58,11.58,0,0,0-.51,6.55c.9,3.77,6.33.78,10-.9,2.43-1.1,10.09-7.57,12-9.77,4.89-5.52,7.15-16.09,3.32-22.22"/><path class="cls-3" d="M250.73,102.59c-38.2,0-66.15,11.09-83.07,33.08-23.65,30.64-22.76,77.48-14,111.06,2.66,10.31,4,38,5.86,48.17,8.25,45.45,58.29,69.68,91.24,69.68.27,0,.58,0,.86,0V102.59h-.86"/><path id="_Path_" data-name="&lt;Path&gt;" class="cls-9" d="M272.49,319.69c-3-.13-6.18,2-9.84,1.69a.79.79,0,0,0-.38-.06,7.35,7.35,0,0,0-2.59.19,31.79,31.79,0,0,0-3.36.91,18.29,18.29,0,0,1-6,.77h-.24a18.29,18.29,0,0,1-6-.77,31.8,31.8,0,0,0-3.36-.91,7.35,7.35,0,0,0-2.59-.19.79.79,0,0,0-.38.06c-3.66.33-6.79-1.82-9.84-1.69-.84.06-2.06-.13-2.75-.13l.46.19c8.68,3.58,16.18,10.29,24.48,10.08h.24c8.3.21,15.79-6.5,24.48-10.08l.46-.19C274.55,319.57,273.33,319.76,272.49,319.69Z"/><path class="cls-10" d="M275,319.49h0s-8.83-2.88-15.11-1.19a44.36,44.36,0,0,1-4.76,1.24,14.85,14.85,0,0,1-5,.57h0a32.5,32.5,0,0,1-3.61-.34c-.34,0-.68-.1-1-.17l-.39-.07-.63-.12-.36-.08h0c-2-.46-3.73-1-3.73-1-6.28-1.69-15.11,1.19-15.11,1.19h0l-.2.08c.68,0,1.91.19,2.75.13,2.5-.1,5.06,1.33,7.93,1.66a74,74,0,0,0,10.6,1.61,15.43,15.43,0,0,0,3.65.23h.24a14,14,0,0,0,2.09,0,42.22,42.22,0,0,0,12.32-1.83h0c2.8-.36,5.32-1.74,7.78-1.64.84.06,2.06-.13,2.75-.13Z"/><path id="_Path_2" data-name="&lt;Path&gt;" class="cls-11" d="M240.21,275.17c-.23-4.67,8.55-1.71,11.44-1.56,2.29.12,9.24-1.47,9.84-1.06,4.09,2.77-4.34,8.34-10,8.34C250,280.89,240.34,278,240.21,275.17Z"/><g id="_Group_" data-name="&lt;Group&gt;"><path id="_Path_3" data-name="&lt;Path&gt;" class="cls-12" d="M330.63,202.06c-.36-.25-.76-.56-1.2-.91a23.7,23.7,0,0,0-4.37-2.89,45.53,45.53,0,0,0-9-4,48.57,48.57,0,0,0-11.32-1.8,46.29,46.29,0,0,0-11.44,1.47,40.94,40.94,0,0,0-9.25,3.79,31.35,31.35,0,0,0-7.81,5.88l0,.05a2.83,2.83,0,0,0-.09,3.63c.49.62,1,3.36,1.78,3.47h0a3,3,0,0,0,2.2-.56l0,0a46.34,46.34,0,0,1,7.14-4,48.77,48.77,0,0,1,7.92-3,38.79,38.79,0,0,1,9.59-1.56,43.12,43.12,0,0,1,9.79.44l1.48.3,3.15.64a18.69,18.69,0,0,1,2.6.73c.49.16,1,.32,1.43.45a47.08,47.08,0,0,1,5.06,1.79l1,.4,6.78.09Z"/></g><g id="_Group_2" data-name="&lt;Group&gt;"><path id="_Path_4" data-name="&lt;Path&gt;" class="cls-12" d="M173.63,202.8c.36-.25.76-.56,1.2-.91a23.7,23.7,0,0,1,4.37-2.89,45.53,45.53,0,0,1,9-4,48.57,48.57,0,0,1,11.32-1.8,46.29,46.29,0,0,1,11.44,1.47,40.94,40.94,0,0,1,9.25,3.79,31.35,31.35,0,0,1,7.81,5.88l0,.05a2.83,2.83,0,0,1,.09,3.63c-.49.62-1,3.36-1.78,3.47h0a3,3,0,0,1-2.2-.56l0,0a46.34,46.34,0,0,0-7.14-4,48.77,48.77,0,0,0-7.92-3,38.79,38.79,0,0,0-9.59-1.56,43.12,43.12,0,0,0-9.79.44l-1.48.3-3.15.64a18.69,18.69,0,0,0-2.6.73c-.49.16-1,.32-1.43.45a47.08,47.08,0,0,0-5.06,1.79l-1,.4-6.78.09Z"/></g><path class="cls-10" d="M173.46,218.68l-.21.31.42-.23Z"/><path id="_Path_5" data-name="&lt;Path&gt;" class="cls-13" d="M178,222.29s8.44,15.24,21.19,16.89,26.27-.32,26.27-.32-.45-14.75-7.09-17.27S196.68,215.76,178,222.29Z"/><path id="_Path_6" data-name="&lt;Path&gt;" class="cls-14" d="M214.41,228.64c-.56,6-6.09,10.4-12.36,9.92A10.84,10.84,0,0,1,191.72,227c.56-6,6.09-10.41,12.37-9.94S215,222.69,214.41,228.64Z"/><path id="_Path_7" data-name="&lt;Path&gt;" class="cls-15" d="M202.76,233.9a5.2,5.2,0,0,1-4.44-5.63,5.47,5.47,0,0,1,5.43-4.89A5.2,5.2,0,0,1,208.2,229,5.46,5.46,0,0,1,202.76,233.9Z"/><path id="_Path_8" data-name="&lt;Path&gt;" class="cls-16" d="M225.43,238.83s-.29,0-.93.13c-.54-5.4-2.09-12.85-6.23-14.41-6.17-2.39-20-5.92-37.54,1.87a33.88,33.88,0,0,1-2.76-4.16c19.09-9.92,34.28-6.08,40.87-3.55S225.43,238.83,225.43,238.83Z"/><path id="_Path_9" data-name="&lt;Path&gt;" class="cls-13" d="M326.38,222.48s-7.94,14.83-20.64,16.1-26.3-1-26.3-1,1.42-14.58,8-16.89S306.68,215.85,326.38,222.48Z"/><path id="_Path_10" data-name="&lt;Path&gt;" class="cls-14" d="M287.53,227.66c.67,6.15,6.53,10.8,13.05,10.42s11.29-5.7,10.62-11.83-6.53-10.82-13.06-10.43S286.84,221.51,287.53,227.66Z"/><path id="_Path_11" data-name="&lt;Path&gt;" class="cls-15" d="M299.78,233.24a5.19,5.19,0,0,0,4.55-5.74,5.88,5.88,0,0,0-5.75-5.12,5.2,5.2,0,0,0-4.55,5.74A5.88,5.88,0,0,0,299.78,233.24Z"/><path id="_Path_12" data-name="&lt;Path&gt;" class="cls-17" d="M279.42,237.51l.93.17c.37-5.34,1.66-12.65,5.77-14.07,6.1-2.19,19.79-5.31,37.61,2.86a31.13,31.13,0,0,0,2.64-4c-19.43-10.33-34.5-6.94-41-4.63S279.42,237.51,279.42,237.51Z"/><path class="cls-18" d="M353.43,438.41c-18.9-47.63-56.32-52.18-56.32-52.18h-.61c-2.7-4.15-4.38-8.78-3.61-13.48s-9-5.45-9-5.45a7.84,7.84,0,0,0,.49,1.42c.08,1.53.94,5.13-2.32,7-3,1.68-9,4.41-20,5.51-1,.1-2.06.19-3.15.27l-1,.06c-2,.11-4,.16-6.11.16-17.82,0-25.25-2.08-29.16-4.23-1.85-1-4.76-4.17-2.84-11.11,0,0-4.07-.69-9.13,2.72s3.22,5.93.23,10.33c-2.14,3.23-2.38,4.47-4.45,6.84h-.08c-1.84.29-25.31,4-43.94,29.55-12.59,17.22-23,44.35-23,87.06,0,0,.91.38,2.68,1.16H361.48c1.6-.78,2.6-1.16,2.6-1.16C364.08,475.46,359.81,454.48,353.43,438.41Z"/><path class="cls-19" d="M371.31,157.64c.46-30.52-23.61-62.4-23.61-62.4l-.54,21.27c-.55,0-14.93-36.51-27.62-43.24a289.24,289.24,0,0,1-40-25.75L297,73.94,259.26,37.33c.28,9.63,1.08,35.48.83,28.72-1.73-8.22-5-19.54-7.8-28.51-7.67,22.65-10.67,32.94-10.67,31,0-2.12,0-9.65-.25-21.75L222.15,72.63,238,42.49C223,58.43,198.26,59.81,187.62,78.29c-8.13,14.12-12.43,11.19-21.56,24.42l12.06-23.28s-29.48,24.42-37.72,45.63c-2.81,7.24-11.86,22.5-8.68,57.88,2.79,31,5.27,35,14.41,57.17,3.18,9,5.85,13.42,5.92,13.1.39.67.64.94.71.78,2.52-5.7-2-68-1.1-70.08,4.44-9.72,27.53-33.37,28.27-33.77,5.52-3,38.93-4.44,72.46-4.46s66.94,1.5,72.46,4.46c.74.4,22.45,24,26.9,33.77.94,2.05-.78,70-.39,69.31a4.12,4.12,0,0,0,.23.78c.27.61,2.51-4.91,5.69-13.87C371.28,206.19,370.63,203.21,371.31,157.64Z"/><path class="cls-20" d="M254.21,419.9c16.77,0,43.52-6.07,51.75-31.16-5.9-2.26-5.9-1.93-9.47-2.51-5.94,15.09-26.15,23-43.35,23s-40.72-7.87-46.66-23c-5.29,1.21-3.73.53-11.23,3.28A174.39,174.39,0,0,0,208,406C223,418.65,236.28,419.9,254.21,419.9Z"/></svg>