<svg id="Layer_1" data-name="Layer 1" xmlns="http://www.w3.org/2000/svg" xmlns:xlink="http://www.w3.org/1999/xlink" viewBox="0 0 1551.6 546"><defs><style>.cls-1,.cls-45,.cls-46,.cls-48,.cls-49{fill:none;}.cls-2{fill:#47b28e;}.cls-3{fill:#5a4118;}.cls-4{fill:#e4c4a4;}.cls-5{fill:#f1d1ac;}.cls-6{clip-path:url(#clip-path);}.cls-7,.cls-8{fill:#c09980;}.cls-8{opacity:0.6;}.cls-9{fill:#c18553;}.cls-10{fill:#d6915e;}.cls-11{fill:#fff;}.cls-12{fill:#3c2615;}.cls-13{fill:#132026;}.cls-14{fill:#75634f;}.cls-15{fill:#5a421a;}.cls-16{fill:#d1d1d1;}.cls-17{fill:#733039;}.cls-18{fill:#342626;}.cls-19{fill:#8d6542;}.cls-20{fill:#9e7244;}.cls-21{clip-path:url(#clip-path-2);}.cls-22{fill:#8b613e;}.cls-23{fill:#a57146;}.cls-24{fill:#d28d5a;}.cls-25{fill:#c38553;}.cls-26{fill:#7f5a3e;}.cls-27,.cls-50{fill:#332214;}.cls-28{fill:#96613c;}.cls-29{fill:#684426;}.cls-30{fill:#231f20;}.cls-31{fill:#eec92c;}.cls-32{fill:#f2f2f2;}.cls-33{fill:#201009;}.cls-34{opacity:0.53;}.cls-35{fill:#674335;}.cls-36{fill:#663922;}.cls-37{fill:#704029;}.cls-38{fill:#563b20;}.cls-39{fill:#bf706b;}.cls-40{fill:#994e49;}.cls-41{fill:#381f13;}.cls-42{fill:#331f15;}.cls-43{fill:#020202;}.cls-44{fill:#a35da4;}.cls-45,.cls-46,.cls-48,.cls-49{stroke:#ebc41b;stroke-linecap:round;stroke-miterlimit:10;}.cls-46{stroke-dasharray:0.2 1;}.cls-47{fill:#dfb725;}.cls-48,.cls-49{stroke-width:0.5px;}.cls-49{stroke-dasharray:0.2 0.5;}.cls-50{opacity:0.5;}</style><clipPath id="clip-path"><rect class="cls-1" x="1259.76" y="357.72" width="61.54" height="36.47"/></clipPath><clipPath id="clip-path-2"><rect class="cls-1" x="219.89" y="357.36" width="61.32" height="36.34"/></clipPath></defs><title>Final-Avatars</title><rect class="cls-2" x="1048" y="21" width="504" height="504"/><path class="cls-3" d="M1291.7,240.67c-4.53,15.23-9.74,32.62-19.49,50s-39.4,39.77-40.42,63.63c-2.21,51.19,70.31,75.53,99.57,84.23s39,9.55,42.25,22.18.59,33.66.59,33.66,24.64-13.47,31.59-23.8c14.95-22.16-1.41-37.25-1.41-37.25s-6.06,5.21,1.08,17,7.16,22.18,4.56,25.22-11.7,12.61-11.7,12.61,45.19-12.82,36.4-49.57c-1.51-6.29-5.63-1.69,0,0,12.57,3.75,10.21,24.5,10.21,24.5s30.65-39.7-31.43-62.16c-5.91-2.14-37.89-10.05-41.19-36.48-1.84-14.66,8.89-15.95,10.85-33.86,2.53-23.19-30.66-18.31-43.43-40.16-2.43-4.15,9.59-6.51,0-17.79C1328.14,259,1323.88,260,1307.31,252S1291.7,240.67,1291.7,240.67Z"/><path class="cls-4" d="M1290.39,320.37V525H1179.28l-2.72-1.16c0-109.76,68-118,68-118,6.79,0,11.16-8.72,14-22,.47-2,.86-4.12,1.17-6.39.63-3.73,1.17-7.74,1.55-11.86.25-2.5.47-5,.72-7.54,1-12.58,1.31-26.23,1.31-39.17,0,0,15,1.46,27.06,1.46"/><path class="cls-5" d="M1404.6,523.83s-1,.41-2.66,1.16H1290.39V320.37h.22c12.06,0,27.13-1.46,27.13-1.46,0,12.86.3,26.36,1.3,38.81.25,2.5.48,5,.69,7.42.49,4.29.94,8.34,1.57,12.19v.07c.24,1.71.56,3.26.87,4.85,2.86,14.08,7.37,23.6,14.41,23.6,0,0,68,8.22,68,118"/><path class="cls-5" d="M1290.6,85.72v293h.83c42.94,0,98.31-30.63,108-83.77a5.24,5.24,0,0,0,.16,2.42c1.78,4.29,9.83,8.74,15.49,3.66,5-4.53,1.73-13,1.95-13.18,8.28-5.63,16.6-14.21,17.54-25.44,2-24.13-21.9-28.81-30-13.49,5.19-64.6,4.6-163.18-113.14-163.18Zm114.72,208.66a3.52,3.52,0,0,1,3.53-3.45,3.44,3.44,0,1,1-3.53,3.45"/><g class="cls-6"><path class="cls-7" d="M1321.3,377.32v.07a35.94,35.94,0,0,1-30.76,16.79h-.17c-17.67-.07-28-13-30.61-16.7.63-3.73,1.17-7.74,1.55-11.86.25-2.5.47-5,.72-7.54a124.67,124.67,0,0,0,28.06,3.66h.29a113.42,113.42,0,0,0,28.67-4c.25,2.5.48,5,.72,7.42.47,4.29.91,8.34,1.55,12.19"/></g><path class="cls-4" d="M1290.71,85.67c-117.71,0-118.32,98.62-113.13,163.22-8.09-15.32-31.94-10.6-30,13.49.91,11.23,9.25,19.81,17.52,25.44.23.16-3.06,8.65,1.94,13.18,5.7,5.08,13.7.63,15.5-3.66a5.44,5.44,0,0,0,.15-2.42c9.68,53.14,65.07,83.77,108,83.77h.87v-293ZM1173.3,297.79a3.41,3.41,0,0,1,0-6.83,3.42,3.42,0,1,1,0,6.83"/><path class="cls-7" d="M1155.11,252.2c5.82-9.29,14.77-5.28,17-3.26,2.34,2.26,4.2,5.2,2.75,10.73-.81,3.09-4.06,3.32-3.27,8,.87,5.27,3.33,5.6,4.71,6.83s3.09,2.1,4,4.36a11.57,11.57,0,0,1,.52,6.63c-.89,3.81-6.44.8-10.14-.91-2.43-1.11-10.19-7.7-12.16-9.88-5-5.6-7.26-16.31-3.37-22.54"/><path class="cls-4" d="M1289.68,113.45c-38.72,0-67.06,11.27-84.23,33.49-24,31-23,78.46-14.2,112.51,2.71,10.4,4.09,38.45,6,48.74,8.36,46,59.07,70.56,92.47,70.56.27,0,.6,0,.91,0V113.49c-.32,0-.6,0-.91,0"/><path class="cls-5" d="M1373.73,147c-17-22.06-45.06-33.29-83.14-33.49V378.7c38.12-.42,83.69-27.25,91.53-70.51,1.86-10.29,3.25-38.34,5.94-48.74,8.82-33.93,9.69-81.32-14.33-112.47"/><path class="cls-8" d="M1426.86,252.2c-5.82-9.29-14.77-5.28-17-3.26-2.34,2.26-4.21,5.2-2.76,10.73.81,3.09,4.06,3.32,3.29,8-.87,5.27-3.31,5.6-4.74,6.83s-3.08,2.1-4,4.36a11.71,11.71,0,0,0-.52,6.63c.91,3.81,6.45.8,10.14-.91,2.45-1.11,10.22-7.7,12.16-9.88,5-5.6,7.25-16.31,3.36-22.54"/><path class="cls-9" d="M1310.76,328.72s-9.34,11.42-20.85,11.42-20.31-11.2-20.31-11.2a117.91,117.91,0,0,1,20.31-1.72A147.4,147.4,0,0,1,1310.76,328.72Z"/><path class="cls-10" d="M1295.81,323.44c-3.24,0-5.84,2.31-5.9,5.17a5.62,5.62,0,0,0-5.9-5.17c-3.26,0-14.95,5.28-14.95,5.28s11.39,1.36,14.64,1.36,6.14,1.47,6.21-1.28c0,2.78,2.39,1.7,5.63,1.7s15.21-1.78,15.21-1.78S1299.08,323.44,1295.81,323.44Z"/><path id="_Path_" data-name="&lt;Path&gt;" class="cls-11" d="M1198.32,231.37s11.84,21.37,29.72,23.68,36.85-.44,36.85-.44-2.35-20.25-11.67-23.77S1225.39,221.12,1198.32,231.37Z"/><path id="_Path_2" data-name="&lt;Path&gt;" class="cls-12" d="M1249.45,240.27c-.78,8.35-8.55,14.58-17.33,13.92s-15.28-7.94-14.5-16.27,8.54-14.6,17.34-13.94S1250.25,231.92,1249.45,240.27Z"/><path id="_Path_3" data-name="&lt;Path&gt;" class="cls-13" d="M1233.11,247.64a7.29,7.29,0,0,1-6.23-7.9,7.66,7.66,0,0,1,7.62-6.86,7.29,7.29,0,0,1,6.23,7.9A7.65,7.65,0,0,1,1233.11,247.64Z"/><path id="_Path_4" data-name="&lt;Path&gt;" d="M1264.91,254.55s-.4,0-1.31.19c-.76-7.57-2.93-18-8.74-20.21-8.65-3.35-28-8.3-52.66,2.62a47.5,47.5,0,0,1-3.88-5.83c26.78-13.91,48.08-8.53,57.32-5S1264.91,254.55,1264.91,254.55Z"/><path id="_Path_5" data-name="&lt;Path&gt;" class="cls-11" d="M1385.08,234s-11.14,20.79-28.95,22.58-36.88-1.43-36.88-1.43,2-20.49,11.2-23.73S1358.16,223.13,1385.08,234Z"/><path id="_Path_6" data-name="&lt;Path&gt;" class="cls-12" d="M1330.6,241.22c.95,8.62,9.15,15.15,18.31,14.6s15.84-8,14.89-16.58-9.15-15.17-18.32-14.63S1329.63,232.6,1330.6,241.22Z"/><path id="_Path_7" data-name="&lt;Path&gt;" class="cls-13" d="M1347.78,249.05a7.28,7.28,0,0,0,6.38-8,8.25,8.25,0,0,0-8.07-7.18,7.29,7.29,0,0,0-6.38,8A8.25,8.25,0,0,0,1347.78,249.05Z"/><path id="_Path_8" data-name="&lt;Path&gt;" d="M1319.22,255s.4.06,1.31.24c.51-7.48,2.33-17.74,8.09-19.73,8.55-3.07,27.76-7.45,52.75,4a43.65,43.65,0,0,0,3.71-5.66c-27.25-14.48-48.39-9.73-57.51-6.49S1319.22,255,1319.22,255Z"/><path id="_Path_9" data-name="&lt;Path&gt;" class="cls-7" d="M1277.47,285.35c-.26-5.39,9.87-2,13.21-1.8,2.64.14,10.67-1.7,11.36-1.23,4.72,3.19-5,9.63-11.52,9.63C1288.77,292,1277.63,288.6,1277.47,285.35Z"/><g id="_Group_" data-name="&lt;Group&gt;"><path id="_Path_10" data-name="&lt;Path&gt;" class="cls-14" d="M1262.41,218.35a31.77,31.77,0,0,0-6.91-7.08,39.65,39.65,0,0,0-8.59-5.14,44.4,44.4,0,0,0-11.06-3.06,46.4,46.4,0,0,0-11.37.31,43.47,43.47,0,0,0-9.25,2.82,23.31,23.31,0,0,0-4.72,2.38c-.47.29-.9.55-1.34.79l-5.89,3.72,6.79-1.6,1-.27a45,45,0,0,1,5.2-1.14c.48-.07,1-.17,1.47-.27a17.85,17.85,0,0,1,2.66-.39l3.19-.22,1.43-.1a40.94,40.94,0,0,1,9.76.89,37.11,37.11,0,0,1,9.16,2.88,47.66,47.66,0,0,1,7.43,4.14,46,46,0,0,1,6.48,5.12h0a3,3,0,0,0,2.1.87,2.91,2.91,0,0,0,1.61-.48,3,3,0,0,0,.88-4.08Z"/><path id="_Path_11" data-name="&lt;Path&gt;" class="cls-14" d="M1372.23,210.13c-.39-.21-.82-.47-1.29-.76a23.11,23.11,0,0,0-4.67-2.36,43.78,43.78,0,0,0-9.35-2.85,46.26,46.26,0,0,0-11.35-.3,44.44,44.44,0,0,0-11,3.06,40.19,40.19,0,0,0-8.59,5.14,31.78,31.78,0,0,0-6.9,7.07l0,.06a3,3,0,0,0,.39,3.73,2.92,2.92,0,0,0,2.09.88h0a2.92,2.92,0,0,0,2.09-.88l0,0a46.21,46.21,0,0,1,6.48-5.11,47.74,47.74,0,0,1,7.39-4.11,37.32,37.32,0,0,1,9.21-2.9,41.1,41.1,0,0,1,9.68-.88l1.5.11,3.18.22a17.84,17.84,0,0,1,2.65.39c.5.1,1,.2,1.46.27a45.06,45.06,0,0,1,5.21,1.14l1,.27,6.79,1.6Z"/></g><path class="cls-15" d="M1219,143.95s88.69-45.23,121.5,45.29C1340.52,189.23,1353.77,50.94,1219,143.95Z"/><circle class="cls-16" cx="1171.54" cy="296.5" r="10.47"/><circle class="cls-16" cx="1409.21" cy="296.5" r="10.47"/><path class="cls-15" d="M1231.71,92.61s-13.8,37.23-7.46,47.8c0,0-43.53,17.75-47.63,106,0,0-4-1-9.06,4.25C1167.56,250.69,1134.47,125.81,1231.71,92.61Z"/><path class="cls-15" d="M1219,143.95s107.4-78.7,118.7,35.69c0,0,16.48,73.08,68.32,66.79,0,0,31.76-72.88-29.53-149,0,0-43.34-55-106.76-35.12C1269.75,62.32,1207.39,84.12,1219,143.95Z"/><path class="cls-17" d="M1382.72,493.57h19.72c0-2.22,0-4.39-.11-6.54a108.72,108.72,0,0,0-12.06-43.72c-1.77-3.4-3-5.33-3-5.33a80.82,80.82,0,0,0-17.15-18.18,16,16,0,0,0-1.53-1.27c-.84-.64-1.69-1.24-2.53-1.82-90.33,157.44-149.78,0-149.78,0-.93.64-1.85,1.26-2.78,2a8.08,8.08,0,0,0-1.55,1.23c-1.39,1.08-2.79,2.25-4.17,3.5A85.53,85.53,0,0,0,1194.94,438s-12.66,28.4-15.06,49.05c-.26,2.29-1.45,4.82-1.43,6.87l21-.33c0,2.18,0,4.26-.06,6.28-.14,11-.5,19.56-.86,25.15h185.2c-.37-5.58-.77-14.14-.93-25.15C1382.75,497.83,1382.73,495.76,1382.72,493.57Z"/><rect class="cls-2" y="21" width="504" height="504"/><path class="cls-18" d="M244.77,344.19a7.54,7.54,0,0,0-.91,3.55v3.34a7.56,7.56,0,1,0,15.12,0v-3.34a7.54,7.54,0,0,0-.91-3.55,63.72,63.72,0,0,0-13.29,0Z"/><path class="cls-19" d="M250.37,320.08v204.1H139.7L137,523c0-109.48,67.74-117.64,67.74-117.64,6.8,0,11.1-8.7,14-21.93.48-2.06.87-4.14,1.19-6.41q.95-5.59,1.53-11.84c.24-2.45.48-4.94.71-7.53,1-12.54,1.31-26.15,1.31-39.05,0,0,14.92,1.46,26.93,1.46"/><path class="cls-20" d="M364.19,523s-1,.4-2.63,1.2H250.37V320.08h.23c12,0,27-1.46,27-1.46,0,12.83.32,26.28,1.34,38.75.23,2.5.48,5,.71,7.41.44,4.27.9,8.31,1.54,12.11V377c.23,1.71.56,3.29.87,4.83,2.84,14.1,7.34,23.59,14.32,23.59,0,0,67.79,8.16,67.79,117.64"/><g class="cls-21"><path class="cls-22" d="M281.21,376.88V377a35.84,35.84,0,0,1-30.68,16.75h-.16c-17.6-.08-27.83-12.93-30.48-16.67q.95-5.59,1.53-11.84c.24-2.45.48-4.94.71-7.53a120.5,120.5,0,0,0,27.92,3.65h.32a114.31,114.31,0,0,0,28.58-4c.23,2.5.48,5,.71,7.41.44,4.27.9,8.31,1.54,12.11"/></g><path class="cls-19" d="M250.72,86C133.46,86,132.79,184.39,138,248.75c-8-15.24-31.82-10.53-29.88,13.49,1.9,23.2,35.49,35.15,35,32.47,9.64,53,64.79,83.63,107.59,83.63.27,0,.6-.07.87-.07V86h-.87"/><path class="cls-23" d="M115.61,252.11c5.81-9.3,14.74-5.3,16.94-3.23s4.19,5.17,2.71,10.63c-.79,3.09-4.06,3.33-3.22,8,.86,5.26,3.31,5.61,4.66,6.8s3.11,2.09,4,4.35a12.13,12.13,0,0,1,.52,6.62c-.91,3.81-6.45.79-10.11-.9-2.45-1.11-10.19-7.64-12.16-9.86-4.9-5.57-7.19-16.25-3.32-22.44"/><path class="cls-20" d="M251.28,86C368.54,86,369.21,184.39,364,248.75c8-15.24,31.82-10.53,29.85,13.49-1.86,23.2-35.5,35.15-35,32.47-9.58,53-64.74,83.63-107.54,83.63-.28,0-.59-.07-.91-.07V86h.91"/><path class="cls-23" d="M386.38,252.11c-5.8-9.3-14.77-5.3-16.93-3.23-2.33,2.2-4.19,5.17-2.76,10.63.82,3.09,4.07,3.33,3.27,8-.87,5.26-3.27,5.61-4.7,6.8s-3.07,2.09-3.94,4.35a11.69,11.69,0,0,0-.52,6.62c.9,3.81,6.4.79,10.11-.9,2.46-1.11,10.2-7.64,12.13-9.86,4.94-5.57,7.22-16.25,3.35-22.44"/><path class="cls-19" d="M249.7,113.73c-38.58,0-66.81,11.21-83.9,33.41-23.89,30.95-23,78.26-14.18,112.17,2.69,10.41,4.07,38.36,5.92,48.65,8.33,45.9,58.87,70.37,92.16,70.37.27,0,.59,0,.86,0V113.73h-.86"/><path id="_Path_12" data-name="&lt;Path&gt;" class="cls-24" d="M272.69,327c-3.08-.13-6.24,2-9.94,1.71a.8.8,0,0,0-.38-.06,7.42,7.42,0,0,0-2.62.19,32.11,32.11,0,0,0-3.39.92,18.48,18.48,0,0,1-6.08.78H250a18.48,18.48,0,0,1-6.08-.78,32.12,32.12,0,0,0-3.39-.92,7.42,7.42,0,0,0-2.62-.19.8.8,0,0,0-.38.06c-3.7.33-6.86-1.84-9.94-1.71-.85.06-2.09-.13-2.78-.13l.47.19c8.77,3.62,16.34,10.39,24.72,10.18h.24c8.38.22,16-6.56,24.72-10.18l.47-.19C274.77,326.82,273.54,327,272.69,327Z"/><path class="cls-25" d="M275.26,326.74h0s-8.92-2.91-15.26-1.2a44.8,44.8,0,0,1-4.81,1.25,15,15,0,0,1-5,.57h0a32.83,32.83,0,0,1-3.65-.34c-.35,0-.69-.1-1-.17l-.4-.07-.63-.12-.37-.08h0c-2-.46-3.77-1-3.77-1-6.34-1.71-15.26,1.2-15.26,1.2h0l-.2.08c.69,0,1.93.19,2.78.13,2.53-.11,5.12,1.34,8,1.67a74.69,74.69,0,0,0,10.71,1.62,15.58,15.58,0,0,0,3.69.23h.24a14.17,14.17,0,0,0,2.11,0,42.64,42.64,0,0,0,12.45-1.85h0c2.83-.37,5.37-1.76,7.85-1.66.85.06,2.08-.13,2.78-.13Z"/><path id="_Path_13" data-name="&lt;Path&gt;" class="cls-26" d="M235.31,286.11c-.31-6.29,11.52-2.3,15.42-2.1,3.08.16,12.45-2,13.26-1.43,5.51,3.73-5.84,11.24-13.45,11.24C248.5,293.82,235.49,289.91,235.31,286.11Z"/><path id="_Path_14" data-name="&lt;Path&gt;" class="cls-11" d="M329,232.52s-9.52,17.63-24.76,19.14-31.56-1.24-31.56-1.24,1.75-16.48,9.62-19.23S305.33,226,329,232.52Z"/><path id="_Path_15" data-name="&lt;Path&gt;" class="cls-27" d="M282.42,238.64c.81,7.31,7.84,12.85,15.68,12.4s13.55-6.76,12.73-14.06-7.84-12.87-15.69-12.42S281.58,231.33,282.42,238.64Z"/><path id="_Path_16" data-name="&lt;Path&gt;" class="cls-13" d="M297.12,245.29a6.18,6.18,0,0,0,5.46-6.82,7.05,7.05,0,0,0-6.91-6.1,6.19,6.19,0,0,0-5.46,6.82A7.05,7.05,0,0,0,297.12,245.29Z"/><path id="_Path_17" data-name="&lt;Path&gt;" class="cls-28" d="M272.69,250.35s.34.05,1.12.21c.43-6.34,2-15,6.91-16.73,7.32-2.6,23.74-6.3,45.13,3.44a36.91,36.91,0,0,0,3.17-4.8c-23.32-12.3-41.41-8.29-49.21-5.54S272.69,250.35,272.69,250.35Z"/><path id="_Path_18" data-name="&lt;Path&gt;" class="cls-11" d="M170.24,231.1s10.15,18.14,25.44,20.1,31.53-.35,31.53-.35-1.12-17.42-9.09-20.42S193.57,223.78,170.24,231.1Z"/><path id="_Path_19" data-name="&lt;Path&gt;" class="cls-27" d="M214,238.68c-.66,7.08-7.3,12.36-14.82,11.79s-13.08-6.74-12.41-13.81,7.3-12.38,14.83-11.81S214.66,231.6,214,238.68Z"/><path id="_Path_20" data-name="&lt;Path&gt;" class="cls-13" d="M200,244.93a6.21,6.21,0,0,1-5.33-6.7,6.53,6.53,0,0,1,6.51-5.81,6.2,6.2,0,0,1,5.33,6.7A6.52,6.52,0,0,1,200,244.93Z"/><path id="_Path_21" data-name="&lt;Path&gt;" class="cls-29" d="M227.22,250.81s-.34,0-1.12.16c-.66-6.42-2.52-15.29-7.49-17.15-9-3.47-25.35-6.45-45.05,2.19a40.34,40.34,0,0,1-3.32-4.95c22.91-11.78,41.13-7.2,49-4.19S227.22,250.81,227.22,250.81Z"/><g id="_Group_2" data-name="&lt;Group&gt;"><path id="_Path_22" data-name="&lt;Path&gt;" class="cls-30" d="M330.41,214.19c-.37-.25-.77-.57-1.21-.91a23.94,23.94,0,0,0-4.41-2.91,46,46,0,0,0-9.08-4,49.06,49.06,0,0,0-11.43-1.82A46.75,46.75,0,0,0,292.73,206a41.35,41.35,0,0,0-9.34,3.83,31.67,31.67,0,0,0-7.88,5.93l-.05.05a2.86,2.86,0,0,0-.09,3.67c.49.62,1,3.4,1.8,3.5h0a3,3,0,0,0,2.22-.57l0,0a46.81,46.81,0,0,1,7.21-4.09,49.26,49.26,0,0,1,8-3,39.18,39.18,0,0,1,9.68-1.57,43.56,43.56,0,0,1,9.89.44l1.5.31,3.18.64a18.88,18.88,0,0,1,2.63.74c.49.16,1,.32,1.45.46a47.55,47.55,0,0,1,5.11,1.81l1,.4,6.85.09Z"/></g><g id="_Group_3" data-name="&lt;Group&gt;"><path id="_Path_23" data-name="&lt;Path&gt;" class="cls-30" d="M171.82,214.95c.37-.25.77-.57,1.21-.91a23.94,23.94,0,0,1,4.41-2.91,46,46,0,0,1,9.08-4A49.06,49.06,0,0,1,198,205.27a46.75,46.75,0,0,1,11.55,1.48,41.35,41.35,0,0,1,9.34,3.83,31.67,31.67,0,0,1,7.88,5.93l.05.05a2.86,2.86,0,0,1,.09,3.67c-.49.62-1,3.4-1.8,3.5h0a3,3,0,0,1-2.22-.57l0,0a46.81,46.81,0,0,0-7.21-4.09,49.26,49.26,0,0,0-8-3,39.18,39.18,0,0,0-9.68-1.57,43.56,43.56,0,0,0-9.89.44l-1.5.31-3.18.64a18.88,18.88,0,0,0-2.63.74c-.49.16-1,.32-1.45.46a47.55,47.55,0,0,0-5.11,1.81l-1,.4-6.85.09Z"/></g><path class="cls-25" d="M171.66,231l-.22.31.43-.23Z"/><path class="cls-31" d="M366,523.79s-1,.41-2.69,1.21H137.52c-1.83-.8-2.79-1.21-2.79-1.21,0-84.8,40.06-109.79,59.1-116.92,12.41,13.69,37,32.53,56,33.45h.53c.08,0,.25.08.41,0,19-.92,43.61-19.84,56-33.52,18.94,7,59.25,32,59.25,117"/><path class="cls-32" d="M183.22,411.82c14.72,16.26,43.9,38.61,66.38,39.73h.66c.09,0,.3.07.46,0,22.56-1.13,51.67-23.47,66.41-39.73a73.76,73.76,0,0,0-10.62-5c-12.4,13.68-37,32.6-56,33.52-.14.08-.31,0-.38,0h-.55c-19-.92-43.52-19.76-55.93-33.45a72.92,72.92,0,0,0-10.42,4.94"/><path class="cls-33" d="M359.85,256.16c17.18-45.61,23.59-51.25,33.07-79.35,7.87-23.3,1.05-56.11-25.5-58.38,22-26.85-122.5-96.2-230.74-25.81,13.5,5.32,18.66,9,18.66,9a69,69,0,0,0-36,31.52c-16.19,30.36.62,75.26,21.51,120.8-1.86-30.75-7-58.49,9.3-84.17,12.6-19.81,50.1-6.79,98.71-6.79s90-18.54,101.5,7.66C358.11,188.41,361,217,359.85,256.16Z"/><rect class="cls-32" x="263.57" y="475.66" width="51.32" height="14.14"/><g class="cls-34"><path class="cls-35" d="M254.69,312.78s6-8.3-15.26-6.77c-7.91.57-19.83,2.21-19,14.9,0,0,.86-2.41,6.47-4.36a5.24,5.24,0,0,0,2.16-2.51s.26,2.41-.95,2.46c0,0,6.64.35,9.05-2.76a2.48,2.48,0,0,1-1.55,1.86s9,.7,10.18-2.76c0,0,.52,1-1,2C244.77,314.78,251,314.93,254.69,312.78Z"/><path class="cls-35" d="M246.44,312.78s-6-8.3,15.26-6.77c7.91.57,19.83,2.21,19,14.9,0,0-.86-2.41-6.47-4.36A5.24,5.24,0,0,1,272,314s-.26,2.41.95,2.46c0,0-6.64.35-9.05-2.76a2.48,2.48,0,0,0,1.55,1.86s-9,.7-10.18-2.76c0,0-.52,1,1,2C256.35,314.78,250.14,314.93,246.44,312.78Z"/></g><rect class="cls-2" x="524" y="21" width="504" height="504"/><path class="cls-27" d="M899.9,265c-4-7.45-10.29-4.22-11.83-2.58s-2.93,4.16-1.94,8.58c.58,2.49,2.84,2.66,2.29,6.45-.61,4.26-2.32,4.54-3.28,5.52s-2.15,1.67-2.76,3.48a10.75,10.75,0,0,0-.35,5.34c.61,3.05,4.48.59,7.05-.75,1.69-.87,7.11-6.18,8.47-7.95,3.45-4.47,5-13.08,2.35-18.09"/><path class="cls-36" d="M778.43,324.37V525H671.23c-1.63-.78-2.62-1.13-2.62-1.13,0-50.66,14.51-79.26,29.84-95.34,17.37-18.12,35.78-20.34,35.78-20.34h.54a6.72,6.72,0,0,0,1.42-.32c5.43-1.51,9.17-9.62,11.6-21.24.45-2,.79-4,1.1-6.25.61-3.71,1.22-7.6,1.53-11.65.29-2.45.42-4.9.65-7.44,1-12.3,1.31-25.67,1.31-38.4,0,0,13,1.34,24.27,1.48Z"/><path class="cls-37" d="M886.83,523.87a26.18,26.18,0,0,0-2.56,1.13H776.64V324.37h1.79c11.35-.14,24.59-1.48,24.59-1.48,0,12.61.3,25.88,1.28,38.1.21,2.46.44,4.89.66,7.27.47,4.22.9,8.18,1.5,12v0c.23,1.72.54,3.23.85,4.79,2.24,11.24,5.53,19.49,10.36,22.26a5.42,5.42,0,0,0,1.14.42,6,6,0,0,0,2.41.47s16.76,2.07,33.28,17.89a87.75,87.75,0,0,1,10.23,12c12.18,17.12,22.1,43.87,22.1,85.83"/><path class="cls-38" d="M805,368.3c-.22-2.42-.45-4.82-.68-7.27a109.21,109.21,0,0,1-25.84,3.84h0l-1.83.06h-.29q-1.66,0-3.29-.1l-.87,0c-.8,0-1.6-.08-2.39-.14l-.87-.07-2.35-.2-.79-.09c-.8-.08-1.59-.17-2.38-.27l-.69-.09c-.82-.11-1.64-.22-2.45-.35l-.57-.09c-.84-.13-1.68-.27-2.52-.42l-.46-.09q-1.29-.24-2.57-.51l-.39-.08c-.91-.19-1.81-.39-2.7-.61-.2,2.37-.34,4.67-.61,7-.3,4.05-.92,7.93-1.53,11.65-.09.68-.2,1.33-.31,2a43,43,0,0,0,3.41,3.76h0l.25.24.54.51.67.61.52.46q.58.5,1.21,1l.53.41.88.66.61.43,1,.64.6.39q.73.46,1.51.9l.34.18q.74.4,1.51.78l.63.29q.63.29,1.27.56l.68.28c.49.19,1,.37,1.5.54l.51.18q1,.32,2.08.59l.54.12c.55.13,1.11.24,1.68.34l.76.12c.54.08,1.09.15,1.65.2l.74.07c.8.06,1.61.1,2.45.11h.15q.85,0,1.68,0h0a34.6,34.6,0,0,0,28-16.42v-.07C805.85,376.49,805.4,372.51,805,368.3Z"/><rect class="cls-1" x="747.07" y="361.03" width="59.39" height="35.72"/><path class="cls-36" d="M776.53,108.74C664.68,108.54,664,200,669,259.66c-7.67-14-24.93-8.66-23.08,13.75,1.79,21.48,28.41,31.09,28,28.71,9.15,48.61,61.88,75.6,102.65,79.42a5,5,0,0,0,.84,0V108.78c-.27,0-.57,0-.84,0"/><path class="cls-27" d="M651.39,265c4.3-7.45,10.93-4.22,12.57-2.58s3.1,4.16,2,8.58c-.6,2.49-3,2.66-2.44,6.45.66,4.26,2.45,4.54,3.51,5.52s2.29,1.67,2.93,3.48a10.41,10.41,0,0,1,.38,5.34c-.67,3.05-4.76.59-7.5-.75-1.82-.87-7.57-6.18-9-7.95-3.67-4.47-5.37-13.08-2.49-18.09"/><path class="cls-37" d="M777.1,108.74C889,108.54,889.62,200,884.63,259.66c7.67-14,23.32-9.33,21.44,13.08-1.79,21.48-26.77,31.76-26.35,29.38-9.14,48.61-61.87,75.6-102.62,79.42a5.51,5.51,0,0,1-.89,0V108.78c.32,0,.59,0,.89,0"/><path class="cls-36" d="M776,134.64c-37.38,0-64.7,10.47-81.27,31.17-23.11,28.92-22.22,73.07-13.71,104.75,2.6,9.7,4,35.81,5.76,45.38,8.05,42.87,57,65.69,89.22,65.69.26,0,.58,0,.85,0V134.64H776"/><path class="cls-37" d="M857,165.88c-16.43-20.57-43.45-31-80.22-31.24V381.58c36.81-.38,80.79-25.37,88.35-65.65,1.77-9.57,3.13-35.67,5.73-45.38C879.4,239,880.21,194.84,857,165.88"/><path class="cls-39" d="M807.28,335s-13.78,17-30.75,17-29.9-16.6-29.9-16.6S759.52,334,776.46,334s30.81,1,30.81,1"/><path class="cls-40" d="M785.25,327.17c-4.79,0-8.6,3.37-8.73,7.67-.05-4.3-3.89-7.67-8.66-7.67s-22,7.8-22,7.8,16.82,2,21.6,2,9.05,2.23,9.11-1.95c.08,4.18,3.56,2.51,8.35,2.51s22.4-2.59,22.4-2.59-17.19-7.8-22-7.8"/><path id="_Path_24" data-name="&lt;Path&gt;" class="cls-41" d="M754.37,303.69c-.45-9.26,17-3.38,22.69-3.09,4.53.23,18.33-2.92,19.52-2.11C804.7,304,788,315,776.78,315,773.79,315,754.64,309.28,754.37,303.69Z"/><path id="_Path_25" data-name="&lt;Path&gt;" class="cls-11" d="M702.88,246s9.79,17.49,24.54,19.39,30.41-.34,30.41-.34-.88-17-8.57-19.87S725,238.56,702.88,246Z"/><path id="_Path_26" data-name="&lt;Path&gt;" class="cls-42" d="M745.07,253.29c-.64,6.83-7,11.92-14.3,11.37s-12.61-6.5-12-13.31,7-11.94,14.3-11.39S745.72,246.46,745.07,253.29Z"/><path id="_Path_27" data-name="&lt;Path&gt;" class="cls-13" d="M731.59,259.31a6,6,0,0,1-5.14-6.47,6.29,6.29,0,0,1,6.28-5.61,6,6,0,0,1,5.14,6.47A6.29,6.29,0,0,1,731.59,259.31Z"/><path id="_Path_28" data-name="&lt;Path&gt;" class="cls-43" d="M757.84,265s-.33,0-1.08.15c-.63-6.19-2.43-14.75-7.22-16.54-8.71-3.34-24.45-6.22-43.45,2.11a38.9,38.9,0,0,1-3.2-4.77c22.09-11.37,39.67-6.95,47.29-4S757.84,265,757.84,265Z"/><path id="_Path_29" data-name="&lt;Path&gt;" class="cls-11" d="M850.88,248.43s-9.18,17-23.87,18.46-30.44-1.19-30.44-1.19.37-18.27,8-20.91S828.51,238.3,850.88,248.43Z"/><path id="_Path_30" data-name="&lt;Path&gt;" class="cls-42" d="M805.93,254.33c.79,7,7.56,12.4,15.12,12s13.07-6.52,12.28-13.56-7.56-12.42-15.13-12S805.13,247.28,805.93,254.33Z"/><path id="_Path_31" data-name="&lt;Path&gt;" class="cls-13" d="M820.12,260.75a6,6,0,0,0,5.26-6.58,6.8,6.8,0,0,0-6.66-5.88,6,6,0,0,0-5.26,6.58A6.8,6.8,0,0,0,820.12,260.75Z"/><path id="_Path_32" data-name="&lt;Path&gt;" class="cls-43" d="M796.55,265.63s.33.05,1.08.2c.42-6.12,1.91-14.51,6.66-16.13,7.06-2.51,22.9-6.08,43.53,3.32a35.6,35.6,0,0,0,3.06-4.63c-22.49-11.86-39.93-8-47.46-5.34S796.55,265.63,796.55,265.63Z"/><g id="_Group_4" data-name="&lt;Group&gt;"><path id="_Path_33" data-name="&lt;Path&gt;" class="cls-30" d="M850.05,233.2c-.35-.24-.74-.55-1.17-.88a23.09,23.09,0,0,0-4.25-2.81,44.35,44.35,0,0,0-8.76-3.88,47.32,47.32,0,0,0-11-1.75,45.09,45.09,0,0,0-11.14,1.43,39.88,39.88,0,0,0-9,3.69,30.54,30.54,0,0,0-7.6,5.72l0,.05a2.75,2.75,0,0,0-.09,3.54c.47.6,1,3.28,1.74,3.38h0a2.93,2.93,0,0,0,2.14-.55l0,0a45.14,45.14,0,0,1,7-3.94,47.51,47.51,0,0,1,7.72-2.89,37.79,37.79,0,0,1,9.34-1.52,42,42,0,0,1,9.54.43l1.45.29,3.07.62a18.21,18.21,0,0,1,2.53.71c.47.16.94.31,1.39.44A45.86,45.86,0,0,1,847.8,237l1,.39,6.61.09Z"/></g><g id="_Group_5" data-name="&lt;Group&gt;"><path id="_Path_34" data-name="&lt;Path&gt;" class="cls-30" d="M705,231.77c.35-.24.74-.55,1.17-.88a23.09,23.09,0,0,1,4.25-2.81,44.35,44.35,0,0,1,8.76-3.88,47.32,47.32,0,0,1,11-1.75,45.09,45.09,0,0,1,11.14,1.43,39.88,39.88,0,0,1,9,3.69,30.54,30.54,0,0,1,7.6,5.72l0,.05a2.75,2.75,0,0,1,.09,3.54c-.47.6-1,3.28-1.74,3.38h0a2.93,2.93,0,0,1-2.14-.55l0,0a45.14,45.14,0,0,0-7-3.94,47.51,47.51,0,0,0-7.72-2.89,37.79,37.79,0,0,0-9.34-1.52,42,42,0,0,0-9.54.43l-1.45.29-3.07.62a18.21,18.21,0,0,0-2.53.71c-.47.16-.94.31-1.39.44a45.86,45.86,0,0,0-4.93,1.74l-1,.39-6.61.09Z"/></g><path d="M831.16,118.59a20.21,20.21,0,0,0,1.82-8.17c0-10.57-8.53-19.92-21.66-25.79a13.16,13.16,0,0,0,1.75-6.39c0-11.18-15.11-20.25-33.76-20.25s-33.77,9.06-33.77,20.25a13.09,13.09,0,0,0,1.75,6.39c-13.12,5.87-21.66,15.22-21.66,25.79a20.06,20.06,0,0,0,1.07,6.41c-69.47,20.79-70.84,88.09-66.66,136.35a23.59,23.59,0,0,1,8.3,9.79c3.72,8.51,5.17,7,5.17,7s-5.9-33.33-5.9-42.59,33.68-77.77,52.43-83.28c18.57-5.37,36.15,12.66,56,13h1.59c20.2,0,37.11-18.44,55.95-13S886,218.22,886,227.42,880.1,270,880.1,270s1.42,1.47,5.18-7a23.4,23.4,0,0,1,6.92-8.82C896.41,207.14,895.66,141.38,831.16,118.59Z"/><path class="cls-44" d="M864.7,502.76c-3.35-26.11-20.59-27.82-21.17-87.05-.24-.67-.56-1.36-.79-2l-18.67-5.85a6.51,6.51,0,0,1-.08.86c-.08,4.23-1.44,32.8-2.1,50.64l-44.31,9.74L733.14,458.9c-.66-17.56-.29-45.65-.42-50.13v-.9L714,413.73a6.09,6.09,0,0,0-.93,2.37c1.18,55.82-17.78,60.71-20.92,86.66-.7,5.42-1.41,15.42-1.87,22.24H866.55C866.07,518.18,865.37,508.18,864.7,502.76Z"/><line class="cls-45" x1="739.48" y1="405.98" x2="739.57" y2="406.03"/><path class="cls-46" d="M740.46,406.51l16.31,8.84,18.71,7.79a4,4,0,0,0,3.41,0l21-8.4,15.5-8.48"/><line class="cls-45" x1="815.87" y1="406.03" x2="815.95" y2="405.98"/><path class="cls-47" d="M781.82,435.78a15.53,15.53,0,0,1-6.82-2.52,2.52,2.52,0,0,0-1.66,4.42l3.58,3.58a.33.33,0,0,0,.46,0l3.58-3.58a2.51,2.51,0,0,0,.87-1.9Zm0,0"/><line class="cls-48" x1="777.14" y1="424.26" x2="777.14" y2="424.36"/><line class="cls-49" x1="777.14" y1="424.86" x2="777.14" y2="433.74"/><line class="cls-48" x1="777.14" y1="433.99" x2="777.14" y2="434.09"/><path class="cls-50" d="M900.41,265c-4.3-7.45-10.93-4.22-12.58-2.58s-3.1,4.16-2,8.58c.6,2.49,3,2.66,2.44,6.45-.66,4.26-2.46,4.54-3.51,5.52s-2.29,1.67-2.93,3.48a10.41,10.41,0,0,0-.38,5.34c.67,3.05,4.76.59,7.5-.75,1.82-.87,7.57-6.18,9-7.95,3.67-4.47,5.37-13.08,2.49-18.09"/></svg>