<svg id="Layer_1" data-name="Layer 1" xmlns="http://www.w3.org/2000/svg" xmlns:xlink="http://www.w3.org/1999/xlink" viewBox="0 0 504 504"><defs><style>.cls-1{fill:none;}.cls-2{fill:#fc8d62;}.cls-3{fill:#e8c9aa;}.cls-4{fill:#f1d1ac;}.cls-5{clip-path:url(#clip-path);}.cls-6,.cls-7{fill:#c09980;}.cls-7{opacity:0.6;}.cls-8{fill:#3a2817;}.cls-9{fill:#51341d;}.cls-10{fill:#d3b396;}.cls-11{fill:#c69f84;}.cls-12{fill:#fff;}.cls-13{fill:#483a15;}.cls-14{fill:#132026;}.cls-15{fill:#d5b599;}.cls-16{fill:#e1be9b;}.cls-17{fill:#231f20;}.cls-18{fill:#7dcbea;}.cls-19{fill:#39b1da;}</style><clipPath id="clip-path"><rect class="cls-1" x="222.5" y="333.04" width="62.9" height="37.23"/></clipPath></defs><title>Final-Avatars</title><rect class="cls-2" width="504" height="504"/><path class="cls-3" d="M253.84,294.86V504H140.29a28.1,28.1,0,0,0-2.9-1.18c0-86.26,41.11-111.17,60.14-118.07a45.75,45.75,0,0,1,9.46-2.56c6.95,0,11.32-8.87,14.35-22.43.45-2.07.85-4.22,1.18-6.52.65-3.82,1.11-7.92,1.6-12.13.15-2.56.46-5.12.7-7.75,1.06-12.9,1.37-26.85,1.37-40,0,0,15.28,1.53,27.64,1.53"/><path class="cls-4" d="M370.56,502.82a20.43,20.43,0,0,0-2.71,1.18h-114V294.86h.22c12.36,0,27.73-1.53,27.73-1.53,0,13.17.22,27,1.33,39.74.16,2.55.5,5.07.74,7.46.48,4.47.84,8.65,1.5,12.54v.08c.32,1.74.56,3.33,1,4.94,2.94,14.36,7.55,24.09,14.75,24.09a54.4,54.4,0,0,1,14.28,4.46c20.41,9.33,55.21,36.76,55.21,116.17"/><g class="cls-5"><path class="cls-6" d="M285.39,353v.09A36.69,36.69,0,0,1,254,370.27h-.16c-18.07-.09-28.59-13.27-31.3-17.07.64-3.82,1.18-7.91,1.58-12.13.23-2.56.46-5.11.72-7.71a126.39,126.39,0,0,0,28.66,3.73h.33a117.9,117.9,0,0,0,29.3-4c.22,2.51.47,5.07.7,7.54.49,4.43,1,8.57,1.59,12.45"/></g><path class="cls-3" d="M251.71,54.94c-120.27,0-121,100.79-115.61,166.8-8.24-15.61-32.64-10.79-30.66,13.83,1.93,23.73,36.41,36,35.92,33.26,9.89,54.3,66.48,85.67,110.35,85.67.3,0,.63,0,.91,0V54.94h-.91"/><path class="cls-6" d="M113.13,225.14c6-9.49,15.11-5.39,17.37-3.28s4.31,5.27,2.8,10.9c-.81,3.16-4.15,3.41-3.33,8.24.89,5.39,3.39,5.76,4.8,7s3.19,2.14,4.07,4.45a12.22,12.22,0,0,1,.54,6.77c-.95,3.89-6.62.81-10.39-.93-2.5-1.14-10.44-7.87-12.44-10.11-5-5.71-7.4-16.66-3.43-23"/><path class="cls-4" d="M252.3,54.94c120.26,0,121,100.79,115.61,166.8,8.24-15.61,32.67-10.79,30.64,13.83-1.91,23.73-36.39,36-35.92,33.26-9.85,54.3-66.43,85.67-110.33,85.67-.3,0-.6,0-.91,0V54.94h.91"/><path class="cls-7" d="M390.9,225.14c-6-9.49-15.13-5.39-17.41-3.28s-4.26,5.27-2.81,10.9c.85,3.16,4.17,3.41,3.37,8.24-.9,5.39-3.38,5.76-4.82,7s-3.16,2.14-4.05,4.45a11.82,11.82,0,0,0-.52,6.77c.89,3.89,6.55.81,10.36-.93,2.5-1.14,10.42-7.87,12.43-10.11,5.06-5.71,7.4-16.66,3.45-23"/><path class="cls-3" d="M253.07,83.35c-39.57,0-68.53,11.52-86.06,34.23-24.51,31.72-23.58,80.18-14.53,115,2.77,10.63,4.18,39.3,6.09,49.8,8.52,47.09,60.36,72.12,94.5,72.12.28,0,.61,0,.92,0V83.38c-.31,0-.61,0-.92,0"/><path class="cls-4" d="M339,117.62c-17.41-22.56-46-34-85-34.24V354.44c39-.39,85.56-27.86,93.58-72.08,1.9-10.5,3.32-39.17,6.07-49.8,9-34.68,9.88-83.1-14.68-114.94"/><path class="cls-1" d="M291.57,103.42S283.09,96.48,267.51,92A142.38,142.38,0,0,1,291.57,103.42Z"/><path class="cls-1" d="M145,173.94a64.67,64.67,0,0,0-2.28,11.39,166.57,166.57,0,0,1,5-16A21.88,21.88,0,0,0,145,173.94Z"/><path class="cls-8" d="M217.56,92.2l-.48.51,0,.12C217.27,92.62,217.41,92.38,217.56,92.2Z"/><path class="cls-9" d="M386.47,150.06a29.35,29.35,0,0,0-2.56-4.74c-2.31-16.59-14.53-49.83-26.52-66.5-12.46-17.34-43-32.69-82.26-37.28s-73.45,22.1-73.45,22.1S195.6,54.95,190.4,52.4s-20.11.48-20.11.48,10.11,2.74,12.1,5.29a10,10,0,0,1,2,9.37s-11.83-4.93-17-5c-9.52-.26-20.2,11.32-20.2,11.32s8.92-6,17.43-5.81c2.79.08,10.51,3.61,10.51,3.61s-14.05,1.44-40.41,29.15c-19.9,20.92-19.9,48.55-19.9,48.55l16.67-9.18a42.39,42.39,0,0,0-6.44,9.91c-12.27,29.35,4.53,58.81,4.53,58.81s5.49.52,10.5,11.81c6.77,15.32,11,34.27,11,34.27H157s-12.63-47.26-4.12-73c2.35-7.08,8.7-21.62,17.54-22.11,0,0,5.82-4.9,8.42-14.64s16.11-26,23.4-29,11.44,1.52,11.44,1.52,11.44-8.66,32.24-12.23,32.21,17.85,36.77,29.08,2.2,16.83,2.2,16.83,8.87-13.77,7.82-27.56a32.75,32.75,0,0,0-2.39-10.49c2.71,1.32,14.54,4.49,17,34,1.16,14-12,23.47-12,23.47s29.2-11.62,23.17-47.47c6.23,6.42,12.62,15.53,14.31,21.91,2.6,9.74,24.48,32.31,25.95,36.75,8.52,25.73-4.1,73-4.1,73h5.85s4.24-19,11-34.27c5-11.3,10.5-11.81,10.5-11.81S398.77,179.41,386.47,150.06Zm-99.15-42c-.15-.18-.3-.39-.45-.57l.49.46Z"/><path id="_Path_" data-name="&lt;Path&gt;" class="cls-10" d="M278.62,302.75c-3.51-.15-7.12,2.33-11.35,2a.91.91,0,0,0-.44-.07,8.48,8.48,0,0,0-3,.22,36.66,36.66,0,0,0-3.87,1,21.1,21.1,0,0,1-6.94.89h-.27a21.09,21.09,0,0,1-6.94-.89,36.67,36.67,0,0,0-3.87-1,8.48,8.48,0,0,0-3-.22.91.91,0,0,0-.44.07c-4.23.38-7.83-2.1-11.35-2-1,.07-2.38-.15-3.17-.15l.53.22c10,4.13,18.66,11.87,28.23,11.62H253c9.57.25,18.21-7.49,28.23-11.62l.53-.22C281,302.6,279.59,302.82,278.62,302.75Z"/><path class="cls-11" d="M281.56,302.51h0s-10.18-3.32-17.43-1.37a51.16,51.16,0,0,1-5.49,1.43,17.12,17.12,0,0,1-5.75.65h0a37.48,37.48,0,0,1-4.16-.39c-.4-.05-.79-.12-1.19-.19l-.45-.08-.72-.14-.42-.09h0c-2.32-.53-4.3-1.19-4.3-1.19-7.24-1.95-17.43,1.37-17.43,1.37h0l-.23.09c.79,0,2.2.22,3.17.15,2.89-.12,5.84,1.53,9.15,1.91a85.28,85.28,0,0,0,12.23,1.85,17.79,17.79,0,0,0,4.21.27H253a16.18,16.18,0,0,0,2.41,0,48.69,48.69,0,0,0,14.21-2.11h0c3.23-.42,6.13-2,9-1.89,1,.07,2.38-.15,3.17-.15Z"/><path id="_Path_2" data-name="&lt;Path&gt;" class="cls-12" d="M160.63,196.67s11.21,22.27,28.34,24.56,35.36-.73,35.36-.73-1.06-22.86-10-26.48S186,185.14,160.63,196.67Z"/><path id="_Path_3" data-name="&lt;Path&gt;" class="cls-13" d="M209.63,205.6c-.81,8.74-8.3,15.31-16.73,14.68s-14.61-8.2-13.79-16.91,8.3-15.33,16.74-14.7A15.24,15.24,0,0,1,209.63,205.6Z"/><path id="_Path_4" data-name="&lt;Path&gt;" class="cls-14" d="M193.9,213.44c-3.13-.23-6.32-3.78-5.92-8.22s4.23-7.45,7.36-7.23,6.33,3.78,5.92,8.22S197,213.66,193.9,213.44Z"/><path id="_Path_5" data-name="&lt;Path&gt;" class="cls-15" d="M224.36,220.43s-.38,0-1.25.2c-.68-7.91-2.68-18.83-8.24-21.08-8.28-3.44-26.83-8.48-50.54,3.12a49.45,49.45,0,0,1-3.68-6.07c25.8-14.75,46.2-9.27,55-5.62S224.36,220.43,224.36,220.43Z"/><path id="_Path_6" data-name="&lt;Path&gt;" class="cls-12" d="M351.51,198s-10.84,21.83-27.94,23.83-35.38-1.23-35.38-1.23,2.06-20.77,10.92-24.23S325,186.9,351.51,198Z"/><path id="_Path_7" data-name="&lt;Path&gt;" class="cls-13" d="M299.18,206a16.6,16.6,0,0,0,17.46,15.15,15.77,15.77,0,0,0,14.41-17.45,16.61,16.61,0,0,0-17.48-15.17A15.76,15.76,0,0,0,299.18,206Z"/><path id="_Path_8" data-name="&lt;Path&gt;" class="cls-14" d="M315.61,214.09c3.27-.24,6.6-3.88,6.18-8.47s-4.42-7.69-7.69-7.46-6.6,3.9-6.18,8.47S312.34,214.32,315.61,214.09Z"/><path id="_Path_9" data-name="&lt;Path&gt;" class="cls-16" d="M288.17,220.56s.38.06,1.25.24c.55-7.83,2.37-18.57,7.91-20.7,8.23-3.28,26.69-8,50.58,3.82a47.26,47.26,0,0,0,3.6-5.95c-26-15-46.36-9.83-55.13-6.37S288.17,220.56,288.17,220.56Z"/><path id="_Path_10" data-name="&lt;Path&gt;" class="cls-6" d="M236.52,263.29c-.36-7.29,13.36-2.66,17.88-2.44,3.57.18,14.44-2.3,15.37-1.66,6.39,4.32-6.77,13-15.6,13C251.81,272.23,236.73,267.69,236.52,263.29Z"/><g id="_Group_" data-name="&lt;Group&gt;"><path id="_Path_11" data-name="&lt;Path&gt;" class="cls-17" d="M225.34,186.93a30.47,30.47,0,0,0-6.63-6.79,38,38,0,0,0-8.24-4.93,42.58,42.58,0,0,0-10.6-2.93,44.5,44.5,0,0,0-10.91.3,41.69,41.69,0,0,0-8.87,2.71,22.35,22.35,0,0,0-4.53,2.28c-.45.28-.87.53-1.28.76l-5.65,3.56,6.51-1.53,1-.26a43.19,43.19,0,0,1,5-1.09c.46-.07.93-.16,1.41-.26a17.11,17.11,0,0,1,2.55-.38l3.06-.22,1.37-.1a39.26,39.26,0,0,1,9.36.85,35.58,35.58,0,0,1,8.79,2.76,45.7,45.7,0,0,1,7.13,4,44.13,44.13,0,0,1,6.21,4.91h0a2.83,2.83,0,0,0,2,.84,2.79,2.79,0,0,0,1.54-.46,2.86,2.86,0,0,0,.84-3.91Z"/><path id="_Path_12" data-name="&lt;Path&gt;" class="cls-17" d="M333.19,178.3c-.37-.2-.79-.45-1.24-.73a22.16,22.16,0,0,0-4.47-2.26,42,42,0,0,0-9-2.74,44.36,44.36,0,0,0-10.88-.29A42.62,42.62,0,0,0,297,175.22a38.54,38.54,0,0,0-8.24,4.93,30.48,30.48,0,0,0-6.61,6.78l0,.06a2.88,2.88,0,0,0,.37,3.57,2.8,2.8,0,0,0,2,.84h0a2.8,2.8,0,0,0,2-.84l0,0a44.31,44.31,0,0,1,6.22-4.9,45.78,45.78,0,0,1,7.09-3.95,35.79,35.79,0,0,1,8.84-2.78,39.42,39.42,0,0,1,9.28-.85l1.44.1,3,.21a17.11,17.11,0,0,1,2.54.37c.48.1.94.19,1.4.26a43.21,43.21,0,0,1,5,1.09l1,.26,6.51,1.53Z"/></g><path class="cls-18" d="M371.77,502.81A20,20,0,0,0,369,504H140a26.67,26.67,0,0,0-2.91-1.19c0-46.08,12.89-78,28.93-96.64,14.94-17.38,33.42-23.52,42.21-24.75,12.24-1.72,18.3,15.84,24.75,18.77,4.95,2.19,12.12,7.52,21.45,7.44,8.64-.16,19.1-5.5,31.59-9.46,11.54-3.67,4.78-18.41,14.18-16.87,10.88,1.78,27.53,8,42.19,24.9,16.56,19.11,29.41,53.72,29.41,96.61"/><path class="cls-19" d="M296.22,374.25c-1.7-4.34-5.7-8.38-7.18-11.84-2.45-5.72-4.67-10.76-4.67-10.76-.55,5.44-8.94,29.74-8.94,29.74s-26.24,28.32-22.15,29.22,23.61,10.06,29.16,16.6,4.68,12.67,6.14,3.82,12.11-45.15,7.63-56.79"/><path class="cls-19" d="M232.54,381.4s-8.38-24.3-8.92-29.74c0,0-2.25,5-4.69,10.76-1.45,3.45-5.51,7.5-7.19,11.84-4.45,11.63,6.21,47.89,7.66,56.79s.52,2.74,6.1-3.82,24.36-15.53,28.48-16.45-21.43-29.37-21.43-29.37"/></svg>