<svg id="Layer_1" data-name="Layer 1" xmlns="http://www.w3.org/2000/svg" xmlns:xlink="http://www.w3.org/1999/xlink" viewBox="0 0 1048.32 529.2"><defs><style>.cls-1{fill:none;}.cls-2{fill:#fc8d62;}.cls-3{fill:#e8c9aa;}.cls-4{fill:#f1d1ac;}.cls-5{clip-path:url(#clip-path);}.cls-6,.cls-7{fill:#c09980;}.cls-7{opacity:0.6;}.cls-8{fill:#3a2817;}.cls-9{fill:#51341d;}.cls-10{fill:#d3b396;}.cls-11{fill:#c69f84;}.cls-12{fill:#fff;}.cls-13{fill:#483a15;}.cls-14{fill:#132026;}.cls-15{fill:#d5b599;}.cls-16{fill:#e1be9b;}.cls-17,.cls-31{fill:#231f20;}.cls-18{fill:#7dcbea;}.cls-19{fill:#39b1da;}.cls-20{fill:#5d1d12;}.cls-21{fill:#5d1e13;}.cls-22{fill:#ae7852;}.cls-23{fill:#bd835c;}.cls-24{fill:#4c2c15;}.cls-25{clip-path:url(#clip-path-2);}.cls-26{fill:#7b4d2a;}.cls-27{fill:#a11d21;}.cls-28{fill:#c02026;}.cls-29{fill:#1d130d;}.cls-30{fill:#0c0d0d;}.cls-31{stroke:#231f20;stroke-linecap:round;stroke-linejoin:round;stroke-width:2.23px;}.cls-32{fill:#651f0e;}</style><clipPath id="clip-path"><rect class="cls-1" x="223.66" y="332.95" width="62.9" height="37.23"/></clipPath><clipPath id="clip-path-2"><polyline class="cls-1" points="747.34 370.96 808.68 370.96 808.68 334.28 747.34 334.28"/></clipPath></defs><title>Final-Avatars</title><rect class="cls-2" x="1.16" y="-0.09" width="504" height="504"/><path class="cls-3" d="M255,294.77V503.91H141.45a28.1,28.1,0,0,0-2.9-1.18c0-86.26,41.11-111.17,60.14-118.07a45.75,45.75,0,0,1,9.46-2.56c6.95,0,11.32-8.87,14.35-22.43.45-2.07.85-4.22,1.18-6.52.65-3.82,1.11-7.92,1.6-12.13.15-2.56.46-5.12.7-7.75,1.06-12.9,1.37-26.85,1.37-40,0,0,15.28,1.53,27.64,1.53"/><path class="cls-4" d="M371.72,502.73a20.43,20.43,0,0,0-2.71,1.18H255V294.77h.22c12.36,0,27.73-1.53,27.73-1.53,0,13.17.22,27,1.33,39.74.16,2.55.5,5.07.74,7.46.48,4.47.84,8.65,1.5,12.54v.08c.32,1.74.56,3.33,1,4.94,2.94,14.36,7.55,24.09,14.75,24.09a54.4,54.4,0,0,1,14.28,4.46c20.41,9.33,55.21,36.76,55.21,116.17"/><g class="cls-5"><path class="cls-6" d="M286.55,352.94V353a36.69,36.69,0,0,1-31.44,17.15H255c-18.07-.09-28.59-13.27-31.3-17.07.64-3.82,1.18-7.91,1.58-12.13.23-2.56.46-5.11.72-7.71A126.39,126.39,0,0,0,254.63,337H255a117.9,117.9,0,0,0,29.3-4c.22,2.51.47,5.07.7,7.54.49,4.43,1,8.57,1.59,12.45"/></g><path class="cls-3" d="M252.87,54.85c-120.27,0-121,100.79-115.61,166.8C129,206,104.62,210.86,106.6,235.47c1.93,23.73,36.41,36,35.92,33.26C152.41,323,209,354.4,252.87,354.4c.3,0,.63,0,.91,0V54.85h-.91"/><path class="cls-6" d="M114.29,225.05c6-9.49,15.11-5.39,17.37-3.28s4.31,5.27,2.8,10.9c-.81,3.16-4.15,3.41-3.33,8.24.89,5.39,3.39,5.76,4.8,7s3.19,2.14,4.07,4.45a12.22,12.22,0,0,1,.54,6.77c-.95,3.89-6.62.81-10.39-.93-2.5-1.14-10.44-7.87-12.44-10.11-5-5.71-7.4-16.66-3.43-23"/><path class="cls-4" d="M253.46,54.85c120.26,0,121,100.79,115.61,166.8,8.24-15.61,32.67-10.79,30.64,13.83-1.91,23.73-36.39,36-35.92,33.26-9.85,54.3-66.43,85.67-110.33,85.67-.3,0-.6,0-.91,0V54.85h.91"/><path class="cls-7" d="M392.06,225.05c-6-9.49-15.13-5.39-17.41-3.28s-4.26,5.27-2.81,10.9c.85,3.16,4.17,3.41,3.37,8.24-.9,5.39-3.38,5.76-4.82,7s-3.16,2.14-4.05,4.45a11.82,11.82,0,0,0-.52,6.77c.89,3.89,6.55.81,10.36-.93,2.5-1.14,10.42-7.87,12.43-10.11,5.06-5.71,7.4-16.66,3.45-23"/><path class="cls-3" d="M254.23,83.26c-39.57,0-68.53,11.52-86.06,34.23-24.51,31.72-23.58,80.18-14.53,115,2.77,10.63,4.18,39.3,6.09,49.8,8.52,47.09,60.36,72.12,94.5,72.12.28,0,.61,0,.92,0V83.29c-.31,0-.61,0-.92,0"/><path class="cls-4" d="M340.12,117.53c-17.41-22.56-46-34-85-34.24V354.35c39-.39,85.56-27.86,93.58-72.08,1.9-10.5,3.32-39.17,6.07-49.8,9-34.68,9.88-83.1-14.68-114.94"/><path class="cls-1" d="M292.73,103.33s-8.48-6.95-24.07-11.41A142.38,142.38,0,0,1,292.73,103.33Z"/><path class="cls-1" d="M146.18,173.85a64.67,64.67,0,0,0-2.28,11.39,166.57,166.57,0,0,1,5-16A21.88,21.88,0,0,0,146.18,173.85Z"/><path class="cls-8" d="M218.72,92.11l-.48.51,0,.12C218.43,92.53,218.57,92.29,218.72,92.11Z"/><path class="cls-9" d="M387.63,150a29.35,29.35,0,0,0-2.56-4.74c-2.31-16.59-14.53-49.83-26.52-66.5-12.46-17.34-43-32.69-82.26-37.28s-73.45,22.1-73.45,22.1-6.07-8.68-11.28-11.23-20.11.48-20.11.48,10.11,2.74,12.1,5.29a10,10,0,0,1,2,9.37s-11.83-4.93-17-5c-9.52-.26-20.2,11.32-20.2,11.32s8.92-6,17.43-5.81c2.79.08,10.51,3.61,10.51,3.61S162.23,73,135.87,100.69C116,121.61,116,149.24,116,149.24l16.67-9.18A42.39,42.39,0,0,0,126.2,150c-12.27,29.35,4.53,58.81,4.53,58.81s5.49.52,10.5,11.81c6.77,15.32,11,34.27,11,34.27h5.86s-12.63-47.26-4.12-73c2.35-7.08,8.7-21.62,17.54-22.11,0,0,5.82-4.9,8.42-14.64s16.11-26,23.4-29,11.44,1.52,11.44,1.52S226.23,109,247,105.38s32.21,17.85,36.77,29.08,2.2,16.83,2.2,16.83,8.87-13.77,7.82-27.56a32.75,32.75,0,0,0-2.39-10.49c2.71,1.32,14.54,4.49,17,34,1.16,14-12,23.47-12,23.47s29.2-11.62,23.17-47.47c6.23,6.42,12.62,15.53,14.31,21.91,2.6,9.74,24.48,32.31,25.95,36.75,8.52,25.73-4.1,73-4.1,73h5.85s4.24-19,11-34.27c5-11.3,10.5-11.81,10.5-11.81S399.93,179.32,387.63,150Zm-99.15-42c-.15-.18-.3-.39-.45-.57l.49.46Z"/><path id="_Path_" data-name="&lt;Path&gt;" class="cls-10" d="M279.78,302.66c-3.51-.15-7.12,2.33-11.35,2a.91.91,0,0,0-.44-.07,8.48,8.48,0,0,0-3,.22,36.66,36.66,0,0,0-3.87,1,21.1,21.1,0,0,1-6.94.89h-.27a21.09,21.09,0,0,1-6.94-.89,36.67,36.67,0,0,0-3.87-1,8.48,8.48,0,0,0-3-.22.91.91,0,0,0-.44.07c-4.23.38-7.83-2.1-11.35-2-1,.07-2.38-.15-3.17-.15l.53.22c10,4.13,18.66,11.87,28.23,11.62h.27c9.57.25,18.21-7.49,28.23-11.62l.53-.22C282.16,302.51,280.75,302.73,279.78,302.66Z"/><path class="cls-11" d="M282.72,302.42h0s-10.18-3.32-17.43-1.37a51.16,51.16,0,0,1-5.49,1.43,17.12,17.12,0,0,1-5.75.65h0a37.48,37.48,0,0,1-4.16-.39c-.4-.05-.79-.12-1.19-.19l-.45-.08-.72-.14-.42-.09h0c-2.32-.53-4.3-1.19-4.3-1.19-7.24-1.95-17.43,1.37-17.43,1.37h0l-.23.09c.79,0,2.2.22,3.17.15,2.89-.12,5.84,1.53,9.15,1.91a85.28,85.28,0,0,0,12.23,1.85,17.79,17.79,0,0,0,4.21.27h.27a16.18,16.18,0,0,0,2.41,0,48.69,48.69,0,0,0,14.21-2.11h0c3.23-.42,6.13-2,9-1.89,1,.07,2.38-.15,3.17-.15Z"/><path id="_Path_2" data-name="&lt;Path&gt;" class="cls-12" d="M161.79,196.58s11.21,22.27,28.34,24.56,35.36-.73,35.36-.73-1.06-22.86-10-26.48S187.18,185,161.79,196.58Z"/><path id="_Path_3" data-name="&lt;Path&gt;" class="cls-13" d="M210.79,205.51c-.81,8.74-8.3,15.31-16.73,14.68s-14.61-8.2-13.79-16.91,8.3-15.33,16.74-14.7A15.24,15.24,0,0,1,210.79,205.51Z"/><path id="_Path_4" data-name="&lt;Path&gt;" class="cls-14" d="M195.06,213.35c-3.13-.23-6.32-3.78-5.92-8.22s4.23-7.45,7.36-7.23,6.33,3.78,5.92,8.22S198.2,213.57,195.06,213.35Z"/><path id="_Path_5" data-name="&lt;Path&gt;" class="cls-15" d="M225.52,220.34s-.38,0-1.25.2c-.68-7.91-2.68-18.83-8.24-21.08-8.28-3.44-26.83-8.48-50.54,3.12a49.45,49.45,0,0,1-3.68-6.07c25.8-14.75,46.2-9.27,55-5.62S225.52,220.34,225.52,220.34Z"/><path id="_Path_6" data-name="&lt;Path&gt;" class="cls-12" d="M352.67,198s-10.84,21.83-27.94,23.83-35.38-1.23-35.38-1.23,2.06-20.77,10.92-24.23S326.19,186.81,352.67,198Z"/><path id="_Path_7" data-name="&lt;Path&gt;" class="cls-13" d="M300.34,205.93a16.6,16.6,0,0,0,17.46,15.15,15.77,15.77,0,0,0,14.41-17.45,16.61,16.61,0,0,0-17.48-15.17A15.76,15.76,0,0,0,300.34,205.93Z"/><path id="_Path_8" data-name="&lt;Path&gt;" class="cls-14" d="M316.77,214c3.27-.24,6.6-3.88,6.18-8.47s-4.42-7.69-7.69-7.46-6.6,3.9-6.18,8.47S313.5,214.23,316.77,214Z"/><path id="_Path_9" data-name="&lt;Path&gt;" class="cls-16" d="M289.33,220.47s.38.06,1.25.24c.55-7.83,2.37-18.57,7.91-20.7,8.23-3.28,26.69-8,50.58,3.82a47.26,47.26,0,0,0,3.6-5.95c-26-15-46.36-9.83-55.13-6.37S289.33,220.47,289.33,220.47Z"/><path id="_Path_10" data-name="&lt;Path&gt;" class="cls-6" d="M237.68,263.2c-.36-7.29,13.36-2.66,17.88-2.44,3.57.18,14.44-2.3,15.37-1.66,6.39,4.32-6.77,13-15.6,13C253,272.14,237.89,267.6,237.68,263.2Z"/><g id="_Group_" data-name="&lt;Group&gt;"><path id="_Path_11" data-name="&lt;Path&gt;" class="cls-17" d="M226.5,186.84a30.47,30.47,0,0,0-6.63-6.79,38,38,0,0,0-8.24-4.93A42.58,42.58,0,0,0,201,172.2a44.5,44.5,0,0,0-10.91.3,41.69,41.69,0,0,0-8.87,2.71,22.35,22.35,0,0,0-4.53,2.28c-.45.28-.87.53-1.28.76l-5.65,3.56,6.51-1.53,1-.26a43.19,43.19,0,0,1,5-1.09c.46-.07.93-.16,1.41-.26a17.11,17.11,0,0,1,2.55-.38l3.06-.22,1.37-.1a39.26,39.26,0,0,1,9.36.85,35.58,35.58,0,0,1,8.79,2.76,45.7,45.7,0,0,1,7.13,4,44.13,44.13,0,0,1,6.21,4.91h0a2.83,2.83,0,0,0,2,.84,2.79,2.79,0,0,0,1.54-.46,2.86,2.86,0,0,0,.84-3.91Z"/><path id="_Path_12" data-name="&lt;Path&gt;" class="cls-17" d="M334.35,178.21c-.37-.2-.79-.45-1.24-.73a22.16,22.16,0,0,0-4.47-2.26,42,42,0,0,0-9-2.74,44.36,44.36,0,0,0-10.88-.29,42.62,42.62,0,0,0-10.59,2.93,38.54,38.54,0,0,0-8.24,4.93,30.48,30.48,0,0,0-6.61,6.78l0,.06a2.88,2.88,0,0,0,.37,3.57,2.8,2.8,0,0,0,2,.84h0a2.8,2.8,0,0,0,2-.84l0,0a44.31,44.31,0,0,1,6.22-4.9,45.78,45.78,0,0,1,7.09-3.95,35.79,35.79,0,0,1,8.84-2.78,39.42,39.42,0,0,1,9.28-.85l1.44.1,3,.21a17.11,17.11,0,0,1,2.54.37c.48.1.94.19,1.4.26a43.21,43.21,0,0,1,5,1.09l1,.26,6.51,1.53Z"/></g><path class="cls-18" d="M372.93,502.72a20,20,0,0,0-2.72,1.19h-229a26.67,26.67,0,0,0-2.91-1.19c0-46.08,12.89-78,28.93-96.64,14.94-17.38,33.42-23.52,42.21-24.75,12.24-1.72,18.3,15.84,24.75,18.77,4.95,2.19,12.12,7.52,21.45,7.44,8.64-.16,19.1-5.5,31.59-9.46,11.54-3.67,4.78-18.41,14.18-16.87,10.88,1.78,27.53,8,42.19,24.9,16.56,19.11,29.41,53.72,29.41,96.61"/><path class="cls-19" d="M297.38,374.16c-1.7-4.34-5.7-8.38-7.18-11.84-2.45-5.72-4.67-10.76-4.67-10.76-.55,5.44-8.94,29.74-8.94,29.74s-26.24,28.32-22.15,29.22,23.61,10.06,29.16,16.6,4.68,12.67,6.14,3.82,12.11-45.15,7.63-56.79"/><path class="cls-19" d="M233.7,381.31s-8.38-24.3-8.92-29.74c0,0-2.25,5-4.69,10.76-1.45,3.45-5.51,7.5-7.19,11.84-4.45,11.63,6.21,47.89,7.66,56.79s.52,2.74,6.1-3.82S251,411.6,255.13,410.68s-21.43-29.37-21.43-29.37"/><rect class="cls-2" x="525.16" y="-0.09" width="504" height="504"/><rect class="cls-20" x="691.82" y="308.57" width="178.34" height="108.48"/><path class="cls-21" d="M829.73,301.14s84.06,44.61,33,96.18c-28,30.37-30.42,46.18-14.61,51.38-19,1.4-59.7-51.16-27.26-68.69,29.68-16.06,31.22-46.24-1.23-65.5C806,306.43,829.73,301.14,829.73,301.14Z"/><path class="cls-22" d="M778,297.83V503.91H666.23c-1.81-.8-2.73-1.16-2.73-1.16,0-69.87,25.83-101.72,47.41-110.72,13.95-5.82,21-7.89,21-7.89,7.59-.8,11.15-9,14.07-22.36.46-2,.85-4.2,1.16-6.47.63-3.76,1.19-7.75,1.59-11.91.23-2.52.47-5,.68-7.64,1-12.66,1.35-26.41,1.35-39.44,0,0,15,1.52,27.2,1.52"/><path class="cls-23" d="M892.1,501.85s-1,.36-2.66,1.16H777.21V296.93h.23c12.14,0,27.27-1.52,27.27-1.52,0,13,.32,26.58,1.34,39.13.22,2.52.46,5,.69,7.48.48,4.32.93,8.39,1.56,12.27v.08c.23,1.72.55,3.27.87,4.88,2.92,14.19,16.13,26.35,23.18,26.35,0,0,.51-1.46,12.18,5.46,20.13,11.75,47.55,40.77,47.55,110.79"/><path class="cls-22" d="M778.22,73.27C661.57,73,660.91,167,666.07,228.26c-8-14.38-31.66-9-29.7,14,1.87,22.07,35.29,32.06,34.83,29.62,9.54,49.93,64.53,77.66,107,81.62h.89V73.27h-.89"/><path class="cls-24" d="M642.23,232.54c5.86-8.9,14.87-5.07,17.11-3.12,2.36,2.16,4.19,5,2.75,10.23-.82,3-4.09,3.19-3.29,7.68.86,5.07,3.32,5.4,4.73,6.56s3.12,2,4,4.15a11,11,0,0,1,.51,6.36c-.9,3.63-6.48.73-10.19-.88-2.47-1-10.29-7.32-12.27-9.47-5-5.32-7.27-15.59-3.36-21.51"/><g class="cls-25"><path class="cls-26" d="M808.31,354.06l0,.52C805.6,359,796.57,371,778,371h-.15c-17.61-.08-27.88-12.37-30.51-16.17.61-3.75,1.16-8.45,1.56-12.61.24-2.48.46-5,.72-7.64a118.54,118.54,0,0,0,27.93,3.73h.31a114.41,114.41,0,0,0,28.57-4c.24,2.51.47,5,.68,7.43.47,4.36.58,8.51,1.21,12.35"/></g><path class="cls-23" d="M778.8,73.27C895.45,73,896.12,167,890.93,228.26c8-14.38,31.67-9,29.73,14-1.86,22.07-35.29,32.06-34.83,29.62-9.53,49.93-64.51,77.66-107,81.62h-.9V73.27h.9"/><path class="cls-24" d="M915.63,232.54c-5.87-8.9-14.88-5.07-17.11-3.12-2.34,2.16-4.2,5-2.76,10.23.83,3,4.1,3.19,3.3,7.68-.88,5.07-3.35,5.4-4.74,6.56s-3.11,2-4,4.15a10.65,10.65,0,0,0-.53,6.36c.88,3.63,6.46.73,10.21-.88,2.46-1,10.25-7.32,12.25-9.47,5-5.32,7.27-15.59,3.37-21.51"/><path class="cls-22" d="M777.6,99.84c-39,0-67.43,10.78-84.75,32-24.07,29.69-23.15,75.06-14.28,107.6,2.71,9.95,4.11,36.77,6,46.59,8.41,44.05,59.43,67.47,93,67.47.29,0,.62,0,.89,0V99.89c-.31,0-.6,0-.89,0"/><path class="cls-27" d="M803.36,295.92s-11.23,12-25,12-24.41-11.77-24.41-11.77a158.74,158.74,0,0,1,24.41-1.83,199.67,199.67,0,0,1,25,1.59"/><path class="cls-28" d="M785.42,290.35c-3.91,0-7,2.45-7.11,5.46-.09-3-3.22-5.46-7.09-5.46s-18,5.57-18,5.57,13.7,1.42,17.64,1.42,7.33,1.59,7.43-1.37c0,3,2.89,1.83,6.74,1.83s18.31-1.87,18.31-1.87-14-5.57-17.94-5.57"/><path id="_Path_13" data-name="&lt;Path&gt;" class="cls-12" d="M706.74,213s8.2,14.62,20.56,16.21a108.42,108.42,0,0,0,25.47-.28s-.45-14.14-6.89-16.56S724.88,206.77,706.74,213Z"/><path id="_Path_14" data-name="&lt;Path&gt;" class="cls-29" d="M742.08,219.13c-.54,5.7-5.9,10-12,9.5s-10.57-5.44-10-11.13,5.9-10,12-9.52S742.63,213.42,742.08,219.13Z"/><path id="_Path_15" data-name="&lt;Path&gt;" class="cls-14" d="M730.8,224.16a5,5,0,0,1-4.31-5.4,5.27,5.27,0,0,1,5.26-4.68,5,5,0,0,1,4.31,5.4A5.26,5.26,0,0,1,730.8,224.16Z"/><path id="_Path_16" data-name="&lt;Path&gt;" class="cls-30" d="M752.78,228.9s-.28,0-.9.13c-.53-5.17-2-12.32-6.05-13.82-6-2.29-19.37-5.69-36.39,1.75a32.52,32.52,0,0,1-2.68-4c18.5-9.49,33.23-5.8,39.61-3.37S752.78,228.9,752.78,228.9Z"/><path id="_Path_17" data-name="&lt;Path&gt;" class="cls-12" d="M850.61,213.33s-7.68,14.2-20,15.42-25.49-1-25.49-1,1.36-14,7.72-16.18S831.51,207,850.61,213.33Z"/><path id="_Path_18" data-name="&lt;Path&gt;" class="cls-29" d="M813,218.25c.66,5.89,6.34,10.36,12.66,10s10.94-5.45,10.28-11.32-6.34-10.38-12.67-10S812.29,212.36,813,218.25Z"/><path id="_Path_19" data-name="&lt;Path&gt;" class="cls-14" d="M824.84,223.62a5,5,0,0,0,4.41-5.5,5.69,5.69,0,0,0-5.58-4.91,5,5,0,0,0-4.41,5.5A5.7,5.7,0,0,0,824.84,223.62Z"/><path id="_Path_20" data-name="&lt;Path&gt;" class="cls-30" d="M805.11,227.69l.9.17c.35-5.11,1.6-12.12,5.58-13.48,5.91-2.1,19.18-5.07,36.46,2.78a29.72,29.72,0,0,0,2.56-3.87c-18.84-9.91-33.45-6.68-39.75-4.47S805.11,227.69,805.11,227.69Z"/><g id="_Group_2" data-name="&lt;Group&gt;"><path id="_Path_21" data-name="&lt;Path&gt;" class="cls-31" d="M860.39,192.47c-.4-.18-.84-.41-1.32-.65a29.77,29.77,0,0,0-4.8-2.08,65.77,65.77,0,0,0-9.89-2.87,79.7,79.7,0,0,0-12.45-1.3,76.46,76.46,0,0,0-12.58,1.06,60.36,60.36,0,0,0-10.17,2.73,36.29,36.29,0,0,0-8.58,4.24l-.05,0a1.54,1.54,0,0,0-.1,2.62c.53.45,1.09,2.42,2,2.5h0a4.68,4.68,0,0,0,2.42-.41h0a61.44,61.44,0,0,1,7.85-2.92,73.24,73.24,0,0,1,8.71-2.14A63.54,63.54,0,0,1,832,192.15a72.14,72.14,0,0,1,10.77.32l1.63.22,3.47.46c1,.12,1.94.32,2.86.52.53.12,1.06.23,1.57.33,2.21.41,4.07.9,5.57,1.29l1.1.29,7.46.07Z"/></g><g id="_Group_3" data-name="&lt;Group&gt;"><path id="_Path_22" data-name="&lt;Path&gt;" class="cls-31" d="M697.83,192.75c.4-.18.84-.41,1.32-.65a29.77,29.77,0,0,1,4.8-2.08,65.77,65.77,0,0,1,9.89-2.87,79.7,79.7,0,0,1,12.45-1.3,76.46,76.46,0,0,1,12.58,1.06A60.36,60.36,0,0,1,749,189.64a36.29,36.29,0,0,1,8.58,4.24l.05,0a1.54,1.54,0,0,1,.1,2.62c-.53.45-1.09,2.42-2,2.5h0a4.68,4.68,0,0,1-2.42-.41h0a61.44,61.44,0,0,0-7.85-2.92,73.24,73.24,0,0,0-8.71-2.14,63.54,63.54,0,0,0-10.55-1.12,72.14,72.14,0,0,0-10.77.32l-1.63.22-3.47.46c-1,.12-1.94.32-2.86.52-.53.12-1.06.23-1.57.33-2.21.41-4.07.9-5.57,1.29l-1.1.29-7.46.07Z"/></g><path id="_Path_23" data-name="&lt;Path&gt;" class="cls-26" d="M764.22,266.72c-.28-3.87,10.4-1.41,13.92-1.29,2.78.1,11.24-1.22,12-.88,5,2.29-5.27,6.91-12.14,6.91C776.13,271.46,764.38,269.05,764.22,266.72Z"/><path d="M870.16,503.65H687.58c.48-7,1.2-17.26,1.94-22.84,3.26-26.65,22.89-31.67,21.68-89,0-.92-.09-.48.4-1l10.48-4,5.19-1.9,4.17-1.4.08.79c.22,7.68,1.51,57.5,2.84,71.18.91,9.79,22.59,18.09,42.85,18.81,20.24-.73,45.18-9,46.13-18.81,1.29-13.76,2.59-64.06,2.73-71.22a5.47,5.47,0,0,1,.22-1l2.54.59,3.23,1,13.44,4.55c.25.63.57,1.35.82,2,.61,60.84,18.48,62.6,21.94,89.4.68,5.58,1.42,15.84,1.9,22.84"/><path class="cls-32" d="M706.52,140s24.9,31.26,55.16,45.24c-8.45-15.9-27.45-33.06-33.78-45.15,23.23,19.09,75.31,46.43,75.31,46.43C771.88,153.83,783.5,129,783.5,129s98.94,41.53,94.06,108.32c-3.72,50.76-50.14,71.29-40.31,109.69,11.51,45,32.22,40.76,20,91.44,55.63-61.17,71.43-158.71,67-207.48C919.94,183.19,928.94,36.91,784,36.91S641.74,162,631,218.27c-9.85,51.84,27.21,67.47,29.06,99.48,1,17.77-10.32,63.35-21.59,67.17,14.79-1.9,33.79-20.35,39.43-35.61,2.81,12.73-25.59,99.41,6.14,67.77,58.05-20.88,35.39-60.76,32.56-79.84,16.2,27.33,14.61,19.87,14.61,27.51-.56-50.19-39.63-65.11-52.29-107.7S679.63,174.25,706.52,140Z"/><path class="cls-17" d="M745.46,371.65l-3.76,7c3.68,2.51,17.18,7.82,40.07,7.93s35.81-5.76,38.67-7.63c0,0-1.56-1.54-3-3.22-1.21-1.44-2.3-3.05-2.32-3a119.35,119.35,0,0,1-33.23,4.9C764.17,377.61,748.59,373,745.46,371.65Z"/><path class="cls-32" d="M709.51,312.46s73.63,60.3,13.36,100.79c-33.47,24.26-38.93,39.28-24.45,47.5C679.55,458.38,650,398.82,685.23,388c32.26-9.9,39.72-39.19,11.7-64.46C685.19,313,709.51,312.46,709.51,312.46Z"/></svg>