<svg id="Layer_1" data-name="Layer 1" xmlns="http://www.w3.org/2000/svg" xmlns:xlink="http://www.w3.org/1999/xlink" viewBox="0 0 1048.32 529.2"><defs><style>.cls-1{fill:none;}.cls-2{fill:#f4d65b;}.cls-3{fill:#a0643d;}.cls-4{fill:#b5774c;}.cls-5,.cls-6{fill:#8c542a;}.cls-23,.cls-6{opacity:0.6;}.cls-7{fill:#c88e65;}.cls-8{fill:#c3855b;}.cls-9{fill:#fff;}.cls-10{fill:#402e13;}.cls-11{fill:#132026;}.cls-12{fill:#262626;}.cls-13{fill:#231f20;stroke:#231f20;stroke-linecap:round;stroke-linejoin:round;stroke-width:7px;}.cls-14{fill:#6e0e10;}.cls-15{fill:#213e7a;}.cls-16{fill:#eaeae9;}.cls-17{fill:#d48929;}.cls-18{fill:#e4c5a8;}.cls-19{fill:#f1d1ac;}.cls-20,.cls-22,.cls-23{fill:#c09980;}.cls-20{opacity:0.7;}.cls-21{clip-path:url(#clip-path);}.cls-24{fill:#c6696f;}.cls-25{fill:#d87374;}.cls-26{fill:#0398c3;}.cls-27{fill:#75634f;}.cls-28{fill:#32ae98;}</style><clipPath id="clip-path"><rect class="cls-1" x="723.23" y="349.33" width="63.87" height="34.13"/></clipPath></defs><title>Final-Avatars</title><rect class="cls-2" width="504" height="504"/><path class="cls-3" d="M253.68,294V501.22H142.94c-1.69-.8-2.7-1.17-2.7-1.17,0-52.33,15-81.87,30.82-98.48,17.94-18.71,37-21,37-21h.55a6.94,6.94,0,0,0,1.46-.33c5.61-1.56,9.48-9.94,12-21.94.46-2.05.82-4.18,1.13-6.46.63-3.84,1.27-7.85,1.58-12,.3-2.53.44-5.06.67-7.68,1-12.7,1.36-26.51,1.36-39.67,0,0,13.41,1.38,25.07,1.53Z"/><path class="cls-4" d="M365.64,500.06a27,27,0,0,0-2.65,1.17H251.83V294h1.85c11.73-.15,25.4-1.53,25.4-1.53,0,13,.31,26.73,1.32,39.35.22,2.54.45,5.05.69,7.51.49,4.36.93,8.45,1.55,12.35v0c.24,1.78.56,3.33.88,4.95,2.32,11.61,5.71,20.14,10.7,23a5.59,5.59,0,0,0,1.17.44,6.25,6.25,0,0,0,2.49.49s17.31,2.13,34.38,18.48a90.64,90.64,0,0,1,10.57,12.35c12.59,17.69,22.83,45.32,22.83,88.66"/><path class="cls-5" d="M281.07,339.36c-.22-2.5-.46-5-.7-7.51a112.81,112.81,0,0,1-26.69,4h0l-1.89.06h-.3q-1.72,0-3.4-.11l-.9-.05c-.83,0-1.65-.09-2.47-.14l-.9-.07c-.81-.06-1.62-.13-2.42-.21l-.82-.09c-.82-.09-1.65-.18-2.46-.28l-.71-.1c-.85-.11-1.69-.23-2.53-.36l-.59-.1c-.87-.14-1.74-.28-2.6-.44l-.48-.09q-1.34-.25-2.65-.52l-.4-.09c-.94-.2-1.87-.41-2.79-.63-.21,2.45-.35,4.82-.63,7.19-.31,4.18-1,8.19-1.58,12-.1.71-.21,1.37-.32,2.05a44.38,44.38,0,0,0,3.53,3.89h0l.26.25.56.53.69.63.53.48q.6.52,1.25,1l.54.42.91.69.63.45,1,.66.62.4q.76.47,1.56.93l.35.19q.76.42,1.56.81l.65.3q.65.3,1.31.58l.7.28c.5.2,1,.38,1.54.56l.53.18q1.05.33,2.15.61l.56.12c.57.13,1.15.25,1.74.35l.79.12c.56.08,1.13.15,1.71.21l.76.07c.83.06,1.67.11,2.53.11h.16q.88,0,1.74,0h0a35.74,35.74,0,0,0,29-17v-.07C282,347.82,281.53,343.71,281.07,339.36Z"/><rect class="cls-1" x="221.28" y="331.85" width="61.35" height="36.9"/><path class="cls-3" d="M251.71,71.24C136.17,71,135.48,165.53,140.63,227.13c-7.92-14.45-31.36-9.07-29.44,14.07C113,263.4,146.13,273.45,145.68,271c9.45,50.21,63.92,78.1,106,82a5.2,5.2,0,0,0,.87,0V71.28c-.28,0-.59,0-.87,0"/><path class="cls-5" d="M117,231.4c5.8-8.92,14.73-5.06,16.94-3.09,2.33,2.13,4.18,5,2.74,10.28-.81,3-4,3.19-3.29,7.72.88,5.1,3.31,5.44,4.73,6.61s3.08,2,4,4.17a11.16,11.16,0,0,1,.51,6.4c-.9,3.66-6.41.71-10.11-.89-2.45-1-10.2-7.4-12.12-9.52-4.95-5.36-7.24-15.67-3.36-21.67"/><path class="cls-4" d="M252.3,71.24c115.56-.2,116.23,94.29,111.07,155.89,7.92-14.45,31.37-9.07,29.44,14.07C391,263.4,357.86,273.45,358.3,271c-9.44,50.21-63.91,78.1-106,82a5.69,5.69,0,0,1-.92,0V71.28c.33,0,.61,0,.92,0"/><path class="cls-3" d="M251.11,98c-38.61,0-66.83,10.82-84,32.19-23.87,29.87-23,75.48-14.16,108.2,2.69,10,4.09,37,5.95,46.87,8.32,44.28,58.87,67.85,92.16,67.85.26,0,.6,0,.88,0V98h-.88"/><path class="cls-4" d="M334.86,130.27C317.89,109,290,98.21,252,98V353.08c38-.4,83.45-26.21,91.26-67.81,1.83-9.88,3.23-36.85,5.92-46.87,8.8-32.63,9.63-78.21-14.31-108.13"/><path id="_Path_" data-name="&lt;Path&gt;" class="cls-5" d="M235.52,273.1c-.35-4.43,13.19-1.62,17.66-1.48,3.53.11,14.26-1.4,15.18-1,6.31,2.63-6.69,7.92-15.41,7.92C250.63,278.53,235.73,275.77,235.52,273.1Z"/><path class="cls-6" d="M384.47,231.4c-5.8-8.92-14.73-5.06-16.95-3.09-2.33,2.13-4.18,5-2.74,10.28.81,3,4,3.19,3.29,7.72-.88,5.1-3.31,5.44-4.73,6.61s-3.08,2-4,4.17a11.15,11.15,0,0,0-.51,6.4c.9,3.66,6.41.71,10.11-.89,2.45-1,10.2-7.4,12.12-9.52,4.95-5.36,7.24-15.67,3.36-21.67"/><path id="_Path_2" data-name="&lt;Path&gt;" class="cls-7" d="M285.7,303.51c-4.31-.18-8.74,2.87-13.92,2.4a1.11,1.11,0,0,0-.54-.09,10.37,10.37,0,0,0-3.67.27,44.87,44.87,0,0,0-4.75,1.29,25.81,25.81,0,0,1-8.51,1.09v0l-.17,0-.17,0v0a25.81,25.81,0,0,1-8.51-1.09,44.88,44.88,0,0,0-4.75-1.29,10.37,10.37,0,0,0-3.67-.27,1.12,1.12,0,0,0-.54.09c-5.18.47-9.61-2.58-13.92-2.4-1.19.09-2.92-.18-3.89-.18l.65.27c12.29,5.08,22.89,14.6,34.63,14.29h.34c11.74.3,22.34-9.21,34.63-14.29l.65-.27C288.62,303.33,286.9,303.59,285.7,303.51Z"/><path class="cls-8" d="M289.31,303.21h0s-12.49-4.08-21.38-1.69a62.61,62.61,0,0,1-6.74,1.76,21,21,0,0,1-7.06.81h0a45.85,45.85,0,0,1-5.11-.48c-.48-.06-1-.15-1.46-.24l-.56-.1-.89-.17-.52-.11h0c-2.84-.65-5.28-1.46-5.28-1.46-8.89-2.39-21.38,1.69-21.38,1.69h0l-.28.11c1,0,2.7.27,3.89.18,3.54-.15,7.16,1.88,11.22,2.35a104.35,104.35,0,0,0,15,2.28,21.77,21.77,0,0,0,5.17.33v0l.17,0,.17,0v0a19.79,19.79,0,0,0,3,0,59.57,59.57,0,0,0,17.43-2.59h0c4-.52,7.52-2.47,11-2.33,1.19.09,2.92-.18,3.89-.18Z"/><path id="_Path_3" data-name="&lt;Path&gt;" class="cls-9" d="M172.82,211.49s9,16,22.47,17.75,27.85-.31,27.85-.31-2.28-15-9.32-17.67S192.23,203.59,172.82,211.49Z"/><path id="_Path_4" data-name="&lt;Path&gt;" class="cls-10" d="M211.46,218.18c-.59,6.25-6.45,10.91-13.09,10.41s-11.55-6-11-12.19,6.45-10.93,13.1-10.43S212.06,211.93,211.46,218.18Z"/><path id="_Path_5" data-name="&lt;Path&gt;" class="cls-11" d="M199.12,223.69a5.48,5.48,0,0,1-4.71-5.92,5.76,5.76,0,0,1,5.75-5.13,5.48,5.48,0,0,1,4.71,5.92A5.76,5.76,0,0,1,199.12,223.69Z"/><path id="_Path_6" data-name="&lt;Path&gt;" class="cls-12" d="M223.15,228.88s-.3,0-1,.14c-.58-5.67-2.22-13.5-6.62-15.14-6.54-2.51-21.18-6.23-39.79,1.93a35.61,35.61,0,0,1-2.93-4.37c20.23-10.4,36.33-6.36,43.31-3.7S223.15,228.88,223.15,228.88Z"/><path id="_Path_7" data-name="&lt;Path&gt;" class="cls-9" d="M328.9,212.18s-8.4,15.56-21.86,16.89S279.16,228,279.16,228s1.49-16.38,8.44-18.8S308,204.75,328.9,212.18Z"/><path id="_Path_8" data-name="&lt;Path&gt;" class="cls-10" d="M287.73,217.58c.72,6.45,6.93,11.35,13.85,10.95s12-6,11.25-12.41-6.93-11.37-13.86-11S287,211.12,287.73,217.58Z"/><path id="_Path_9" data-name="&lt;Path&gt;" class="cls-11" d="M300.72,223.45a5.45,5.45,0,0,0,4.82-6,6.23,6.23,0,0,0-6.1-5.38,5.46,5.46,0,0,0-4.82,6A6.23,6.23,0,0,0,300.72,223.45Z"/><path id="_Path_10" data-name="&lt;Path&gt;" class="cls-12" d="M279.14,227.92l1,.18c.38-5.6,1.75-13.28,6.1-14.77,6.46-2.3,21-5.56,39.87,3a32.58,32.58,0,0,0,2.8-4.24c-20.6-10.86-36.57-7.32-43.46-4.89S279.14,227.92,279.14,227.92Z"/><g id="_Group_" data-name="&lt;Group&gt;"><path id="_Path_11" data-name="&lt;Path&gt;" class="cls-13" d="M329.56,176.72c-.37-.18-.78-.41-1.22-.65a26.66,26.66,0,0,0-4.46-2.08,57.76,57.76,0,0,0-9.19-2.88,68.85,68.85,0,0,0-11.57-1.3,66,66,0,0,0-11.69,1.06A52.86,52.86,0,0,0,282,173.6a32.91,32.91,0,0,0-8,4.25l-.05,0a1.61,1.61,0,0,0-.09,2.63c.5.45,1,2.43,1.82,2.51h0a4.07,4.07,0,0,0,2.25-.41h0a54.6,54.6,0,0,1,7.3-2.93,64,64,0,0,1,8.1-2.15,54.9,54.9,0,0,1,9.8-1.12,62.16,62.16,0,0,1,10,.32l1.52.22,3.22.46a25.54,25.54,0,0,1,2.66.53c.5.12,1,.23,1.46.33,2.06.41,3.79.9,5.17,1.29l1,.29,6.93.07Z"/></g><g id="_Group_2" data-name="&lt;Group&gt;"><path id="_Path_12" data-name="&lt;Path&gt;" class="cls-13" d="M174.23,176.72c.37-.18.78-.41,1.22-.65a26.66,26.66,0,0,1,4.46-2.08,57.76,57.76,0,0,1,9.19-2.88,68.85,68.85,0,0,1,11.57-1.3,66,66,0,0,1,11.69,1.06,52.86,52.86,0,0,1,9.45,2.74,32.91,32.91,0,0,1,8,4.25l.05,0a1.61,1.61,0,0,1,.09,2.63c-.5.45-1,2.43-1.82,2.51h0a4.07,4.07,0,0,1-2.25-.41h0a54.6,54.6,0,0,0-7.3-2.93,64,64,0,0,0-8.1-2.15,54.9,54.9,0,0,0-9.8-1.12,62.16,62.16,0,0,0-10,.32l-1.52.22-3.22.46a25.54,25.54,0,0,0-2.66.53c-.5.12-1,.23-1.46.33-2.06.41-3.79.9-5.17,1.29l-1,.29-6.93.07Z"/></g><path d="M329.74,65.78c-20.21-17.77-153.74-79-207.47,60-16,53.84,14.53,73.76,17.24,85.19,6.65-29.57.6-39.05,27.57-56.8,36.89-24.26,95.51,10.69,138.11-18C326.24,121.94,352.08,85.43,329.74,65.78Z"/><path d="M320.79,122.2s-3.41-73.34,53-32.71c37.65,27.1-14.25,93.27-9.84,139.38-20-61.13-21-63.53-21.36-77.11S324.89,116.26,320.79,122.2Z"/><path class="cls-14" d="M364.29,198.34v-.21a.92.92,0,0,0-.58-.54h0l-.13-.05c-9.42-3.36-48.91-4.93-70.22-2.52s-34.12,7.88-41.19,8.13c-7.1-.1-19.92-5.3-41.38-7.28s-60.8.39-70.13,4a.45.45,0,0,0-.16.06h0a.77.77,0,0,0-.53.54v.21c-.09,1.19-.38,6.33-.24,9.25a3.14,3.14,0,0,0,0,.44,2.47,2.47,0,0,0,1.69,1.84l.13,0c1.91.66,5.18,3.5,8.65,17.44,1.6,6.95,3.58,21.66,18.73,26,6.9,1.92,40.21,5.66,57-7.45,3.54-2.76,7.35-8.79,10.55-14.92,1.87-4.18,6.85-16.18,7.57-18a7.28,7.28,0,0,1,7.34-5.27l1.66,0a7.29,7.29,0,0,1,7.42,5.13c.77,1.82,6,13.71,7.92,17.84,3.33,6.08,7.28,12,10.85,14.72,17.09,12.75,50.3,8.33,57.14,6.27,15.08-4.64,16.76-19.37,18.19-26.36,3.21-14,6.45-16.93,8.3-17.62l.13,0A2.52,2.52,0,0,0,364.7,208v-.45C364.78,204.67,364.38,199.52,364.29,198.34ZM226.66,236.87a25.6,25.6,0,0,1-15.82,13.39c-13.1,3.72-22.4,3.88-35.5,2.16-8.75-1.16-15.24-7-17-13-2.17-8.24-5.29-16.65-3.29-24.89a17.5,17.5,0,0,1,11.74-12.2c13-4.17,33.25-4,46.27-1.93,6.38,1.15,17.68,2.31,20.31,9.79C236.24,218.33,231,229.69,226.66,236.87Zm120.18.66c-1.66,6-8,12-16.77,13.31-13.05,2-22.35,2-35.5-1.44a25.55,25.55,0,0,1-16.11-13.05c-4.51-7.09-9.92-18.33-7.26-26.47,2.47-7.54,13.76-8.94,20.11-10.22,13-2.29,33.24-2.91,46.29,1a17.46,17.46,0,0,1,12,12C351.79,220.8,348.85,229.28,346.85,237.53Z"/><path class="cls-15" d="M124.54,504c0-86.6,44.89-112.12,66.25-119.39,13.9,14,41.44,33.21,62.7,34.15h.6c.09,0,.28.09.45,0,21.35-.94,48.88-20.26,62.8-34.24,21.24,7.19,66.41,32.64,66.41,119.48"/><path class="cls-16" d="M184.54,387.1c15.2,16.79,45.33,39.87,68.55,41h.68c.09,0,.31.08.47,0,23.29-1.16,53.35-24.23,68.57-41a76.17,76.17,0,0,0-11-5.18C299.05,396,273.69,415.59,254,416.54c-.15.09-.32,0-.39,0H253c-19.57-.95-44.94-20.4-57.75-34.54a75.29,75.29,0,0,0-10.76,5.11"/><rect class="cls-2" x="524" width="504" height="504"/><path class="cls-17" d="M821.61,87.57c20.44-11.55,52.78-3.25,65.84,17,12.68,19.6-.44,42.74,14.43,63.62,12.79,18,30.46,41.75,23.44,65.44-5.46,18.39-23.43,57.25-47.13,50.13-6.31-1.9-12.87-11.21-17.55-15.36-9.84-8.69-22.11-17.4-30-27.74-10.8-14.13-17.79-38.56-12.17-55.18,7.45-22,20.59-29.47,9.89-50.77-7.07-14.07-12.85-28.7-7.27-43.77"/><path class="cls-18" d="M758.36,301.65v200h-112c-1.76-.84-2.67-1.15-2.67-1.15,0-29.73,5.12-51.91,12.51-68.3,12.2-27.06,30.57-38.65,42.47-43.54a46.65,46.65,0,0,1,11.58-3.44h.53a7.69,7.69,0,0,0,1.45-.3c5.48-1.6,9.22-9.6,11.74-21.19.46-2.05.84-4,1.15-6.24.6-3.67,1.14-7.56,1.51-11.66.24-2.36.46-4.8.7-7.33,1-12.35,1.3-25.69,1.3-38.26C728.57,300.21,746.55,301.65,758.36,301.65Z"/><path class="cls-19" d="M866.78,500.47a18.09,18.09,0,0,0-2.59,1.15H755v-200h.23c11.81,0,26.53-1.44,26.53-1.44,0,12.57.29,25.76,1.29,38l.68,7.24c.47,4.2.93,8.16,1.53,11.82v.16c.23,1.66.54,3.19.85,4.72,2.28,11.22,5.63,19.44,10.52,22.19a6.76,6.76,0,0,0,1.15.46,6.58,6.58,0,0,0,2.43.45s33.61,4,53.05,44.84C861.22,446.66,866.78,469.36,866.78,500.47Z"/><path class="cls-20" d="M785.28,346.29v.08a35.16,35.16,0,0,1-30.12,16.39H755c-17.3-.06-27.37-12.66-30-16.32.6-3.66,1.14-7.55,1.51-11.58.23-2.44.46-4.89.7-7.4A119.3,119.3,0,0,0,754.71,331H755a113.5,113.5,0,0,0,28.05-3.88l.68,7.23C784.23,338.6,784.66,342.55,785.28,346.29Z"/><g class="cls-21"><path class="cls-22" d="M787.1,367.68v.07c-2.84,4.09-12.62,15.71-31.93,15.71H755c-18.34-.07-29-12.15-31.77-15.63.66-3.49,1.22-7.25,1.61-11.11.26-2.34.49-4.69.74-7.06a142.71,142.71,0,0,0,29.12,3.42h.3a129.71,129.71,0,0,0,29.75-3.76c.26,2.34.5,4.68.74,6.94.48,4,.95,7.81,1.61,11.41"/></g><path class="cls-18" d="M754.93,94.73c-113.46-.21-114.12,91-109.07,150.43-7.8-14-22.49-9.35-20.61,13,1.81,21.39,26,31.66,25.58,29.32,9.28,48.43,62.77,75.34,104.09,79.17.29,0,.6,0,.88,0V94.76Z"/><path class="cls-22" d="M629.74,250.22c3.09-6.62,8.37-3.42,9.71-1.86s2.56,3.92,1.89,7.9c-.39,2.24-2.25,2.31-1.66,5.77.65,3.9,2.08,4.22,2.91,5.14a8.56,8.56,0,0,1,2.41,3.3,10.86,10.86,0,0,1,.48,4.87c-.41,2.76-3.68.38-5.87-1-1.43-.89-6.1-5.92-7.29-7.62C629.31,262.55,627.69,254.63,629.74,250.22Z"/><path class="cls-19" d="M755.5,94.73c113.46-.21,114.12,91,109.07,150.43,7.79-14,21.07-9.1,19.19,13.24-1.81,21.39-24.6,31.41-24.15,29.07-9.29,48.43-62.76,75.34-104.1,79.17-.29,0-.6,0-.86,0V94.76Z"/><path class="cls-23" d="M877.13,250c-3.58-7.39-8.44-4.65-9.59-3.16s-2.13,3.83-1.13,8.13c.57,2.41,2.4,2.72,2.13,6.31-.29,4-1.64,4.21-2.37,5.08a6.69,6.69,0,0,0-2.06,3.2,12.24,12.24,0,0,0,0,5.09c.65,3,3.62.86,5.63-.29,1.33-.77,5.41-5.51,6.42-7.16C878.66,263.08,879.53,254.9,877.13,250Z"/><path class="cls-18" d="M754.34,101.55c-37.9,0-65.62,10.45-82.42,31.07C648.48,161.41,649.38,205.42,658,237c2.64,9.67,4,35.67,5.82,45.23,8.18,42.7,57.8,65.46,90.49,65.46.28,0,.59,0,.88,0V101.57Z"/><path class="cls-19" d="M836.58,132.67c-16.66-20.49-44.08-30.94-81.37-31.1V347.66c37.32-.38,81.92-25.31,89.6-65.42,1.81-9.56,3.16-35.57,5.82-45.23C859.25,205.51,860.1,161.56,836.58,132.67Z"/><path class="cls-24" d="M780.69,314.42S769,328.61,754.63,328.61s-25.38-13.88-25.38-13.88a146.67,146.67,0,0,1,25.38-2.15A186,186,0,0,1,780.69,314.42Z"/><path class="cls-25" d="M762,307.88c-4.07,0-7.32,2.88-7.4,6.43-.07-3.55-3.32-6.43-7.35-6.43s-18.69,6.54-18.69,6.54,14.24,1.71,18.33,1.71,7.64,1.83,7.72-1.61c.06,3.45,3,2.12,7,2.12s19-2.22,19-2.22S766.11,307.88,762,307.88Z"/><path id="_Path_13" data-name="&lt;Path&gt;" class="cls-22" d="M743.31,270.38c-.23-3.22,8.66-1.18,11.59-1.08,2.32.08,9.36-1,10-.73,4.15,1.91-4.39,5.76-10.12,5.76C753.23,274.33,743.45,272.32,743.31,270.38Z"/><path id="_Path_14" data-name="&lt;Path&gt;" class="cls-9" d="M676.48,213.07s9.35,18.58,23.64,20.49,29.5-.61,29.5-.61-.75-18.23-8.18-21.25S699.26,206.36,676.48,213.07Z"/><path id="_Path_15" data-name="&lt;Path&gt;" class="cls-26" d="M717.35,220.52a13.31,13.31,0,0,1-14,12.25,12.69,12.69,0,0,1-11.51-14.11,13.32,13.32,0,0,1,14-12.27A12.71,12.71,0,0,1,717.35,220.52Z"/><path id="_Path_16" data-name="&lt;Path&gt;" class="cls-11" d="M704.23,227.06c-2.61-.19-5.27-3.16-4.94-6.86s3.53-6.22,6.14-6,5.28,3.16,4.94,6.86S706.85,227.25,704.23,227.06Z"/><path id="_Path_17" data-name="&lt;Path&gt;" class="cls-22" d="M729.64,232.9s-.32,0-1,.17c-.56-6.6-2.23-15.71-6.87-17.58-6.91-2.87-22.38-7.07-42.16,2.6a41.25,41.25,0,0,1-3.07-5.06c21.52-12.3,38.54-7.73,45.91-4.69S729.64,232.9,729.64,232.9Z"/><path id="_Path_18" data-name="&lt;Path&gt;" class="cls-9" d="M832.8,215.58s-9,18.21-23.31,19.88-29.51-1-29.51-1,1.72-17.37,9.11-20.26S810.9,206.36,832.8,215.58Z"/><path id="_Path_19" data-name="&lt;Path&gt;" class="cls-26" d="M789.15,222.23a13.85,13.85,0,0,0,14.57,12.63,13.15,13.15,0,0,0,12-14.56,13.85,13.85,0,0,0-14.58-12.65A13.15,13.15,0,0,0,789.15,222.23Z"/><path id="_Path_20" data-name="&lt;Path&gt;" class="cls-11" d="M802.86,229c2.73-.2,5.51-3.24,5.16-7.06s-3.69-6.42-6.41-6.22-5.51,3.26-5.16,7.06S800.13,229.16,802.86,229Z"/><path id="_Path_21" data-name="&lt;Path&gt;" class="cls-22" d="M780,234.36s.32.05,1,.2c.46-6.53,2-15.49,6.59-17.26,6.86-2.73,22.26-6.67,42.2,3.19a39.43,39.43,0,0,0,3-5c-21.72-12.47-38.67-8.2-46-5.32S780,234.36,780,234.36Z"/><g id="_Group_3" data-name="&lt;Group&gt;"><path id="_Path_22" data-name="&lt;Path&gt;" class="cls-27" d="M724.21,196.5a31.25,31.25,0,0,0-7.42-6.27,45.27,45.27,0,0,0-9.23-4.55A55.84,55.84,0,0,0,695.67,183a60.37,60.37,0,0,0-12.22.27,54.28,54.28,0,0,0-9.94,2.5,27.41,27.41,0,0,0-5.08,2.11c-.51.26-1,.49-1.44.7l-6.33,3.29,7.3-1.42,1.1-.24c1.51-.33,3.39-.74,5.59-1,.52-.06,1-.15,1.58-.24a23,23,0,0,1,2.86-.35l3.43-.2,1.53-.09a53.06,53.06,0,0,1,10.49.79,46.22,46.22,0,0,1,9.85,2.56,55.13,55.13,0,0,1,8,3.67,48.9,48.9,0,0,1,7,4.53h0a3.54,3.54,0,0,0,2.25.77,3.62,3.62,0,0,0,1.73-.43,2.37,2.37,0,0,0,.95-3.62Z"/><path id="_Path_23" data-name="&lt;Path&gt;" class="cls-27" d="M842.22,189.22c-.42-.18-.88-.42-1.39-.68a27.18,27.18,0,0,0-5-2.09,54.67,54.67,0,0,0-10-2.53,60.18,60.18,0,0,0-12.2-.27,55.88,55.88,0,0,0-11.87,2.71,45.89,45.89,0,0,0-9.23,4.55,31.28,31.28,0,0,0-7.41,6.26l0,.05a2.32,2.32,0,0,0,.41,3.3,3.5,3.5,0,0,0,2.25.78h0a3.49,3.49,0,0,0,2.24-.78l0,0a49.15,49.15,0,0,1,7-4.53,55.22,55.22,0,0,1,7.95-3.65,46.5,46.5,0,0,1,9.9-2.57,53.28,53.28,0,0,1,10.4-.78l1.61.1,3.42.2a23,23,0,0,1,2.85.35c.53.09,1.06.17,1.57.24,2.2.27,4.08.68,5.59,1l1.11.24,7.29,1.42Z"/></g><path class="cls-17" d="M694.08,66.8s-98.74,31.67-56,150.72c0,0,6.41-95.89,70.3-96.6Z"/><path class="cls-17" d="M695.2,97.54S714,155,802.82,185.2c0,0,43.5,8.39,52.58,36.33,0,0,27.11-87-.8-131.18,0,0-67.25-96.22-159.4-27.54C695.2,62.8,678.3,69.34,695.2,97.54Z"/><path class="cls-28" d="M637.95,504c0-83,41.38-107.5,61.06-114.47,12.82,13.38,38.19,31.84,57.79,32.75h.55c.08,0,.25.09.42,0,19.68-.91,45.06-19.43,57.88-32.83,19.58,6.89,61.21,31.29,61.21,114.56"/><path class="cls-17" d="M647.45,174.37S631.32,354.9,697.82,408.72c0,0-78.34-31.82-55.79-234.35Z"/><path class="cls-17" d="M858.76,174.37S874.89,354.9,808.4,408.72c0,0,78.34-31.82,55.79-234.35Z"/></svg>