<svg id="Layer_1" data-name="Layer 1" xmlns="http://www.w3.org/2000/svg" xmlns:xlink="http://www.w3.org/1999/xlink" viewBox="0 0 504 504"><defs><style>.cls-1{fill:none;}.cls-2{fill:#342626;}.cls-3{fill:#8d6542;}.cls-4{fill:#9e7244;}.cls-5{clip-path:url(#clip-path);}.cls-6{fill:#8b613e;}.cls-7{fill:#a57146;}.cls-8{fill:#d28d5a;}.cls-9{fill:#c38553;}.cls-10{fill:#7f5a3e;}.cls-11{fill:#fff;}.cls-12{fill:#332214;}.cls-13{fill:#132026;}.cls-14{fill:#96613c;}.cls-15{fill:#684426;}.cls-16{fill:#231f20;}.cls-17{fill:#eec92c;}.cls-18{fill:#f2f2f2;}.cls-19{fill:#201009;}.cls-20{opacity:0.53;}.cls-21{fill:#674335;}</style><clipPath id="clip-path"><rect class="cls-1" x="219.89" y="336.36" width="61.32" height="36.34"/></clipPath></defs><title>Final-Avatars</title><path class="cls-2" d="M244.77,323.19a7.54,7.54,0,0,0-.91,3.55v3.34a7.56,7.56,0,1,0,15.12,0v-3.34a7.54,7.54,0,0,0-.91-3.55,63.72,63.72,0,0,0-13.29,0Z"/><path class="cls-3" d="M250.37,299.08v204.1H139.7L137,502c0-109.48,67.74-117.64,67.74-117.64,6.8,0,11.1-8.7,14-21.93.48-2.06.87-4.14,1.19-6.41q.95-5.59,1.53-11.84c.24-2.45.48-4.94.71-7.53,1-12.54,1.31-26.15,1.31-39.05,0,0,14.92,1.46,26.93,1.46"/><path class="cls-4" d="M364.19,502s-1,.4-2.63,1.2H250.37V299.08h.23c12,0,27-1.46,27-1.46,0,12.83.32,26.28,1.34,38.75.23,2.5.48,5,.71,7.41.44,4.27.9,8.31,1.54,12.11V356c.23,1.71.56,3.29.87,4.83,2.84,14.1,7.34,23.59,14.32,23.59,0,0,67.79,8.16,67.79,117.64"/><g class="cls-5"><path class="cls-6" d="M281.21,355.88V356a35.84,35.84,0,0,1-30.68,16.75h-.16c-17.6-.08-27.83-12.93-30.48-16.67q.95-5.59,1.53-11.84c.24-2.45.48-4.94.71-7.53a120.5,120.5,0,0,0,27.92,3.65h.32a114.31,114.31,0,0,0,28.58-4c.23,2.5.48,5,.71,7.41.44,4.27.9,8.31,1.54,12.11"/></g><path class="cls-3" d="M250.72,65C133.46,65,132.79,163.39,138,227.75c-8-15.24-31.82-10.53-29.88,13.49,1.9,23.2,35.49,35.15,35,32.47,9.64,53,64.79,83.63,107.59,83.63.27,0,.6-.07.87-.07V65h-.87"/><path class="cls-7" d="M115.61,231.11c5.81-9.3,14.74-5.3,16.94-3.23s4.19,5.17,2.71,10.63c-.79,3.09-4.06,3.33-3.22,8,.86,5.26,3.31,5.61,4.66,6.8s3.11,2.09,4,4.35a12.13,12.13,0,0,1,.52,6.62c-.91,3.81-6.45.79-10.11-.9-2.45-1.11-10.19-7.64-12.16-9.86-4.9-5.57-7.19-16.25-3.32-22.44"/><path class="cls-4" d="M251.28,65C368.54,65,369.21,163.39,364,227.75c8-15.24,31.82-10.53,29.85,13.49-1.86,23.2-35.5,35.15-35,32.47-9.58,53-64.74,83.63-107.54,83.63-.28,0-.59-.07-.91-.07V65h.91"/><path class="cls-7" d="M386.38,231.11c-5.8-9.3-14.77-5.3-16.93-3.23-2.33,2.2-4.19,5.17-2.76,10.63.82,3.09,4.07,3.33,3.27,8-.87,5.26-3.27,5.61-4.7,6.8s-3.07,2.09-3.94,4.35a11.69,11.69,0,0,0-.52,6.62c.9,3.81,6.4.79,10.11-.9,2.46-1.11,10.2-7.64,12.13-9.86,4.94-5.57,7.22-16.25,3.35-22.44"/><path class="cls-3" d="M249.7,92.73c-38.58,0-66.81,11.21-83.9,33.41-23.89,30.95-23,78.26-14.18,112.17,2.69,10.41,4.07,38.36,5.92,48.65,8.33,45.9,58.87,70.37,92.16,70.37.27,0,.59,0,.86,0V92.73h-.86"/><path id="_Path_" data-name="&lt;Path&gt;" class="cls-8" d="M272.69,306c-3.08-.13-6.24,2-9.94,1.71a.8.8,0,0,0-.38-.06,7.42,7.42,0,0,0-2.62.19,32.11,32.11,0,0,0-3.39.92,18.48,18.48,0,0,1-6.08.78H250a18.48,18.48,0,0,1-6.08-.78,32.12,32.12,0,0,0-3.39-.92,7.42,7.42,0,0,0-2.62-.19.8.8,0,0,0-.38.06c-3.7.33-6.86-1.84-9.94-1.71-.85.06-2.09-.13-2.78-.13l.47.19c8.77,3.62,16.34,10.39,24.72,10.18h.24c8.38.22,16-6.56,24.72-10.18l.47-.19C274.77,305.82,273.54,306,272.69,306Z"/><path class="cls-9" d="M275.26,305.74h0s-8.92-2.91-15.26-1.2a44.8,44.8,0,0,1-4.81,1.25,15,15,0,0,1-5,.57h0a32.83,32.83,0,0,1-3.65-.34c-.35,0-.69-.1-1-.17l-.4-.07-.63-.12-.37-.08h0c-2-.46-3.77-1-3.77-1-6.34-1.71-15.26,1.2-15.26,1.2h0l-.2.08c.69,0,1.93.19,2.78.13,2.53-.11,5.12,1.34,8,1.67a74.69,74.69,0,0,0,10.71,1.62,15.58,15.58,0,0,0,3.69.23h.24a14.17,14.17,0,0,0,2.11,0,42.64,42.64,0,0,0,12.45-1.85h0c2.83-.37,5.37-1.76,7.85-1.66.85.06,2.08-.13,2.78-.13Z"/><path id="_Path_2" data-name="&lt;Path&gt;" class="cls-10" d="M235.31,265.11c-.31-6.29,11.52-2.3,15.42-2.1,3.08.16,12.45-2,13.26-1.43,5.51,3.73-5.84,11.24-13.45,11.24C248.5,272.82,235.49,268.91,235.31,265.11Z"/><path id="_Path_3" data-name="&lt;Path&gt;" class="cls-11" d="M329,211.52s-9.52,17.63-24.76,19.14-31.56-1.24-31.56-1.24,1.75-16.48,9.62-19.23S305.33,205,329,211.52Z"/><path id="_Path_4" data-name="&lt;Path&gt;" class="cls-12" d="M282.42,217.64c.81,7.31,7.84,12.85,15.68,12.4s13.55-6.76,12.73-14.06-7.84-12.87-15.69-12.42S281.58,210.33,282.42,217.64Z"/><path id="_Path_5" data-name="&lt;Path&gt;" class="cls-13" d="M297.12,224.29a6.18,6.18,0,0,0,5.46-6.82,7.05,7.05,0,0,0-6.91-6.1,6.19,6.19,0,0,0-5.46,6.82A7.05,7.05,0,0,0,297.12,224.29Z"/><path id="_Path_6" data-name="&lt;Path&gt;" class="cls-14" d="M272.69,229.35s.34.05,1.12.21c.43-6.34,2-15,6.91-16.73,7.32-2.6,23.74-6.3,45.13,3.44a36.91,36.91,0,0,0,3.17-4.8c-23.32-12.3-41.41-8.29-49.21-5.54S272.69,229.35,272.69,229.35Z"/><path id="_Path_7" data-name="&lt;Path&gt;" class="cls-11" d="M170.24,210.1s10.15,18.14,25.44,20.1,31.53-.35,31.53-.35-1.12-17.42-9.09-20.42S193.57,202.78,170.24,210.1Z"/><path id="_Path_8" data-name="&lt;Path&gt;" class="cls-12" d="M214,217.68c-.66,7.08-7.3,12.36-14.82,11.79s-13.08-6.74-12.41-13.81,7.3-12.38,14.83-11.81S214.66,210.6,214,217.68Z"/><path id="_Path_9" data-name="&lt;Path&gt;" class="cls-13" d="M200,223.93a6.21,6.21,0,0,1-5.33-6.7,6.53,6.53,0,0,1,6.51-5.81,6.2,6.2,0,0,1,5.33,6.7A6.52,6.52,0,0,1,200,223.93Z"/><path id="_Path_10" data-name="&lt;Path&gt;" class="cls-15" d="M227.22,229.81s-.34,0-1.12.16c-.66-6.42-2.52-15.29-7.49-17.15-9-3.47-25.35-6.45-45.05,2.19a40.34,40.34,0,0,1-3.32-4.95c22.91-11.78,41.13-7.2,49-4.19S227.22,229.81,227.22,229.81Z"/><g id="_Group_" data-name="&lt;Group&gt;"><path id="_Path_11" data-name="&lt;Path&gt;" class="cls-16" d="M330.41,193.19c-.37-.25-.77-.57-1.21-.91a23.94,23.94,0,0,0-4.41-2.91,46,46,0,0,0-9.08-4,49.06,49.06,0,0,0-11.43-1.82A46.75,46.75,0,0,0,292.73,185a41.35,41.35,0,0,0-9.34,3.83,31.67,31.67,0,0,0-7.88,5.93l-.05.05a2.86,2.86,0,0,0-.09,3.67c.49.62,1,3.4,1.8,3.5h0a3,3,0,0,0,2.22-.57l0,0a46.81,46.81,0,0,1,7.21-4.09,49.26,49.26,0,0,1,8-3,39.18,39.18,0,0,1,9.68-1.57,43.56,43.56,0,0,1,9.89.44l1.5.31,3.18.64a18.88,18.88,0,0,1,2.63.74c.49.16,1,.32,1.45.46a47.55,47.55,0,0,1,5.11,1.81l1,.4,6.85.09Z"/></g><g id="_Group_2" data-name="&lt;Group&gt;"><path id="_Path_12" data-name="&lt;Path&gt;" class="cls-16" d="M171.82,193.95c.37-.25.77-.57,1.21-.91a23.94,23.94,0,0,1,4.41-2.91,46,46,0,0,1,9.08-4A49.06,49.06,0,0,1,198,184.27a46.75,46.75,0,0,1,11.55,1.48,41.35,41.35,0,0,1,9.34,3.83,31.67,31.67,0,0,1,7.88,5.93l.05.05a2.86,2.86,0,0,1,.09,3.67c-.49.62-1,3.4-1.8,3.5h0a3,3,0,0,1-2.22-.57l0,0a46.81,46.81,0,0,0-7.21-4.09,49.26,49.26,0,0,0-8-3,39.18,39.18,0,0,0-9.68-1.57,43.56,43.56,0,0,0-9.89.44l-1.5.31-3.18.64a18.88,18.88,0,0,0-2.63.74c-.49.16-1,.32-1.45.46a47.55,47.55,0,0,0-5.11,1.81l-1,.4-6.85.09Z"/></g><path class="cls-9" d="M171.66,210l-.22.31.43-.23Z"/><path class="cls-17" d="M366,502.79s-1,.41-2.69,1.21H137.52c-1.83-.8-2.79-1.21-2.79-1.21,0-84.8,40.06-109.79,59.1-116.92,12.41,13.69,37,32.53,56,33.45h.53c.08,0,.25.08.41,0,19-.92,43.61-19.84,56-33.52,18.94,7,59.25,32,59.25,117"/><path class="cls-18" d="M183.22,390.82c14.72,16.26,43.9,38.61,66.38,39.73h.66c.09,0,.3.07.46,0,22.56-1.13,51.67-23.47,66.41-39.73a73.76,73.76,0,0,0-10.62-5c-12.4,13.68-37,32.6-56,33.52-.14.08-.31,0-.38,0h-.55c-19-.92-43.52-19.76-55.93-33.45a72.92,72.92,0,0,0-10.42,4.94"/><path class="cls-19" d="M359.85,235.16c17.18-45.61,23.59-51.25,33.07-79.35,7.87-23.3,1.05-56.11-25.5-58.38,22-26.85-122.5-96.2-230.74-25.81,13.5,5.32,18.66,9,18.66,9a69,69,0,0,0-36,31.52c-16.19,30.36.62,75.26,21.51,120.8-1.86-30.75-7-58.49,9.3-84.17,12.6-19.81,50.1-6.79,98.71-6.79s90-18.54,101.5,7.66C358.11,167.41,361,196,359.85,235.16Z"/><rect class="cls-18" x="263.57" y="454.66" width="51.32" height="14.14"/><g class="cls-20"><path class="cls-21" d="M254.69,291.78s6-8.3-15.26-6.77c-7.91.57-19.83,2.21-19,14.9,0,0,.86-2.41,6.47-4.36a5.24,5.24,0,0,0,2.16-2.51s.26,2.41-.95,2.46c0,0,6.64.35,9.05-2.76a2.48,2.48,0,0,1-1.55,1.86s9,.7,10.18-2.76c0,0,.52,1-1,2C244.77,293.78,251,293.93,254.69,291.78Z"/><path class="cls-21" d="M246.44,291.78s-6-8.3,15.26-6.77c7.91.57,19.83,2.21,19,14.9,0,0-.86-2.41-6.47-4.36A5.24,5.24,0,0,1,272,293s-.26,2.41.95,2.46c0,0-6.64.35-9.05-2.76a2.48,2.48,0,0,0,1.55,1.86s-9,.7-10.18-2.76c0,0-.52,1,1,2C256.35,293.78,250.14,293.93,246.44,291.78Z"/></g></svg>