<svg id="Layer_1" data-name="Layer 1" xmlns="http://www.w3.org/2000/svg" viewBox="0 0 504 504"><defs><style>.cls-1{fill:#f4d65b;}.cls-2{fill:#a0643d;}.cls-3{fill:#b5774c;}.cls-4,.cls-6{fill:#8c542a;}.cls-5{fill:none;}.cls-6{opacity:0.6;}.cls-7{fill:#c88e65;}.cls-8{fill:#c3855b;}.cls-9{fill:#fff;}.cls-10{fill:#402e13;}.cls-11{fill:#132026;}.cls-12{fill:#262626;}.cls-13{fill:#231f20;stroke:#231f20;stroke-linecap:round;stroke-linejoin:round;stroke-width:7px;}.cls-14{fill:#6e0e10;}.cls-15{fill:#213e7a;}.cls-16{fill:#eaeae9;}</style></defs><title>Final-Avatars</title><rect class="cls-1" width="504" height="504"/><path class="cls-2" d="M253.68,294V501.22H142.94c-1.69-.8-2.7-1.17-2.7-1.17,0-52.33,15-81.87,30.82-98.48,17.94-18.71,37-21,37-21h.55a6.94,6.94,0,0,0,1.46-.33c5.61-1.56,9.48-9.94,12-21.94.46-2.05.82-4.18,1.13-6.46.63-3.84,1.27-7.85,1.58-12,.3-2.53.44-5.06.67-7.68,1-12.7,1.36-26.51,1.36-39.67,0,0,13.41,1.38,25.07,1.53Z"/><path class="cls-3" d="M365.64,500.06a27,27,0,0,0-2.65,1.17H251.83V294h1.85c11.73-.15,25.4-1.53,25.4-1.53,0,13,.31,26.73,1.32,39.35.22,2.54.45,5.05.69,7.51.49,4.36.93,8.45,1.55,12.35v0c.24,1.78.56,3.33.88,4.95,2.32,11.61,5.71,20.14,10.7,23a5.59,5.59,0,0,0,1.17.44,6.25,6.25,0,0,0,2.49.49s17.31,2.13,34.38,18.48a90.64,90.64,0,0,1,10.57,12.35c12.59,17.69,22.83,45.32,22.83,88.66"/><path class="cls-4" d="M281.07,339.36c-.22-2.5-.46-5-.7-7.51a112.81,112.81,0,0,1-26.69,4h0l-1.89.06h-.3q-1.72,0-3.4-.11l-.9-.05c-.83,0-1.65-.09-2.47-.14l-.9-.07c-.81-.06-1.62-.13-2.42-.21l-.82-.09c-.82-.09-1.65-.18-2.46-.28l-.71-.1c-.85-.11-1.69-.23-2.53-.36l-.59-.1c-.87-.14-1.74-.28-2.6-.44l-.48-.09q-1.34-.25-2.65-.52l-.4-.09c-.94-.2-1.87-.41-2.79-.63-.21,2.45-.35,4.82-.63,7.19-.31,4.18-1,8.19-1.58,12-.1.71-.21,1.37-.32,2.05a44.38,44.38,0,0,0,3.53,3.89h0l.26.25.56.53.69.63.53.48q.6.52,1.25,1l.54.42.91.69.63.45,1,.66.62.4q.76.47,1.56.93l.35.19q.76.42,1.56.81l.65.3q.65.3,1.31.58l.7.28c.5.2,1,.38,1.54.56l.53.18q1.05.33,2.15.61l.56.12c.57.13,1.15.25,1.74.35l.79.12c.56.08,1.13.15,1.71.21l.76.07c.83.06,1.67.11,2.53.11h.16q.88,0,1.74,0h0a35.74,35.74,0,0,0,29-17v-.07C282,347.82,281.53,343.71,281.07,339.36Z"/><rect class="cls-5" x="221.28" y="331.85" width="61.35" height="36.9"/><path class="cls-2" d="M251.71,71.24C136.17,71,135.48,165.53,140.63,227.13c-7.92-14.45-31.36-9.07-29.44,14.07C113,263.4,146.13,273.45,145.68,271c9.45,50.21,63.92,78.1,106,82a5.2,5.2,0,0,0,.87,0V71.28c-.28,0-.59,0-.87,0"/><path class="cls-4" d="M117,231.4c5.8-8.92,14.73-5.06,16.94-3.09,2.33,2.13,4.18,5,2.74,10.28-.81,3-4,3.19-3.29,7.72.88,5.1,3.31,5.44,4.73,6.61s3.08,2,4,4.17a11.16,11.16,0,0,1,.51,6.4c-.9,3.66-6.41.71-10.11-.89-2.45-1-10.2-7.4-12.12-9.52-4.95-5.36-7.24-15.67-3.36-21.67"/><path class="cls-3" d="M252.3,71.24c115.56-.2,116.23,94.29,111.07,155.89,7.92-14.45,31.37-9.07,29.44,14.07C391,263.4,357.86,273.45,358.3,271c-9.44,50.21-63.91,78.1-106,82a5.69,5.69,0,0,1-.92,0V71.28c.33,0,.61,0,.92,0"/><path class="cls-2" d="M251.11,98c-38.61,0-66.83,10.82-84,32.19-23.87,29.87-23,75.48-14.16,108.2,2.69,10,4.09,37,5.95,46.87,8.32,44.28,58.87,67.85,92.16,67.85.26,0,.6,0,.88,0V98h-.88"/><path class="cls-3" d="M334.86,130.27C317.89,109,290,98.21,252,98V353.08c38-.4,83.45-26.21,91.26-67.81,1.83-9.88,3.23-36.85,5.92-46.87,8.8-32.63,9.63-78.21-14.31-108.13"/><path id="_Path_" data-name="&lt;Path&gt;" class="cls-4" d="M235.52,273.1c-.35-4.43,13.19-1.62,17.66-1.48,3.53.11,14.26-1.4,15.18-1,6.31,2.63-6.69,7.92-15.41,7.92C250.63,278.53,235.73,275.77,235.52,273.1Z"/><path class="cls-6" d="M384.47,231.4c-5.8-8.92-14.73-5.06-16.95-3.09-2.33,2.13-4.18,5-2.74,10.28.81,3,4,3.19,3.29,7.72-.88,5.1-3.31,5.44-4.73,6.61s-3.08,2-4,4.17a11.15,11.15,0,0,0-.51,6.4c.9,3.66,6.41.71,10.11-.89,2.45-1,10.2-7.4,12.12-9.52,4.95-5.36,7.24-15.67,3.36-21.67"/><path id="_Path_2" data-name="&lt;Path&gt;" class="cls-7" d="M285.7,303.51c-4.31-.18-8.74,2.87-13.92,2.4a1.11,1.11,0,0,0-.54-.09,10.37,10.37,0,0,0-3.67.27,44.87,44.87,0,0,0-4.75,1.29,25.81,25.81,0,0,1-8.51,1.09v0l-.17,0-.17,0v0a25.81,25.81,0,0,1-8.51-1.09,44.88,44.88,0,0,0-4.75-1.29,10.37,10.37,0,0,0-3.67-.27,1.12,1.12,0,0,0-.54.09c-5.18.47-9.61-2.58-13.92-2.4-1.19.09-2.92-.18-3.89-.18l.65.27c12.29,5.08,22.89,14.6,34.63,14.29h.34c11.74.3,22.34-9.21,34.63-14.29l.65-.27C288.62,303.33,286.9,303.59,285.7,303.51Z"/><path class="cls-8" d="M289.31,303.21h0s-12.49-4.08-21.38-1.69a62.61,62.61,0,0,1-6.74,1.76,21,21,0,0,1-7.06.81h0a45.85,45.85,0,0,1-5.11-.48c-.48-.06-1-.15-1.46-.24l-.56-.1-.89-.17-.52-.11h0c-2.84-.65-5.28-1.46-5.28-1.46-8.89-2.39-21.38,1.69-21.38,1.69h0l-.28.11c1,0,2.7.27,3.89.18,3.54-.15,7.16,1.88,11.22,2.35a104.35,104.35,0,0,0,15,2.28,21.77,21.77,0,0,0,5.17.33v0l.17,0,.17,0v0a19.79,19.79,0,0,0,3,0,59.57,59.57,0,0,0,17.43-2.59h0c4-.52,7.52-2.47,11-2.33,1.19.09,2.92-.18,3.89-.18Z"/><path id="_Path_3" data-name="&lt;Path&gt;" class="cls-9" d="M172.82,211.49s9,16,22.47,17.75,27.85-.31,27.85-.31-2.28-15-9.32-17.67S192.23,203.59,172.82,211.49Z"/><path id="_Path_4" data-name="&lt;Path&gt;" class="cls-10" d="M211.46,218.18c-.59,6.25-6.45,10.91-13.09,10.41s-11.55-6-11-12.19,6.45-10.93,13.1-10.43S212.06,211.93,211.46,218.18Z"/><path id="_Path_5" data-name="&lt;Path&gt;" class="cls-11" d="M199.12,223.69a5.48,5.48,0,0,1-4.71-5.92,5.76,5.76,0,0,1,5.75-5.13,5.48,5.48,0,0,1,4.71,5.92A5.76,5.76,0,0,1,199.12,223.69Z"/><path id="_Path_6" data-name="&lt;Path&gt;" class="cls-12" d="M223.15,228.88s-.3,0-1,.14c-.58-5.67-2.22-13.5-6.62-15.14-6.54-2.51-21.18-6.23-39.79,1.93a35.61,35.61,0,0,1-2.93-4.37c20.23-10.4,36.33-6.36,43.31-3.7S223.15,228.88,223.15,228.88Z"/><path id="_Path_7" data-name="&lt;Path&gt;" class="cls-9" d="M328.9,212.18s-8.4,15.56-21.86,16.89S279.16,228,279.16,228s1.49-16.38,8.44-18.8S308,204.75,328.9,212.18Z"/><path id="_Path_8" data-name="&lt;Path&gt;" class="cls-10" d="M287.73,217.58c.72,6.45,6.93,11.35,13.85,10.95s12-6,11.25-12.41-6.93-11.37-13.86-11S287,211.12,287.73,217.58Z"/><path id="_Path_9" data-name="&lt;Path&gt;" class="cls-11" d="M300.72,223.45a5.45,5.45,0,0,0,4.82-6,6.23,6.23,0,0,0-6.1-5.38,5.46,5.46,0,0,0-4.82,6A6.23,6.23,0,0,0,300.72,223.45Z"/><path id="_Path_10" data-name="&lt;Path&gt;" class="cls-12" d="M279.14,227.92l1,.18c.38-5.6,1.75-13.28,6.1-14.77,6.46-2.3,21-5.56,39.87,3a32.58,32.58,0,0,0,2.8-4.24c-20.6-10.86-36.57-7.32-43.46-4.89S279.14,227.92,279.14,227.92Z"/><g id="_Group_" data-name="&lt;Group&gt;"><path id="_Path_11" data-name="&lt;Path&gt;" class="cls-13" d="M329.56,176.72c-.37-.18-.78-.41-1.22-.65a26.66,26.66,0,0,0-4.46-2.08,57.76,57.76,0,0,0-9.19-2.88,68.85,68.85,0,0,0-11.57-1.3,66,66,0,0,0-11.69,1.06A52.86,52.86,0,0,0,282,173.6a32.91,32.91,0,0,0-8,4.25l-.05,0a1.61,1.61,0,0,0-.09,2.63c.5.45,1,2.43,1.82,2.51h0a4.07,4.07,0,0,0,2.25-.41h0a54.6,54.6,0,0,1,7.3-2.93,64,64,0,0,1,8.1-2.15,54.9,54.9,0,0,1,9.8-1.12,62.16,62.16,0,0,1,10,.32l1.52.22,3.22.46a25.54,25.54,0,0,1,2.66.53c.5.12,1,.23,1.46.33,2.06.41,3.79.9,5.17,1.29l1,.29,6.93.07Z"/></g><g id="_Group_2" data-name="&lt;Group&gt;"><path id="_Path_12" data-name="&lt;Path&gt;" class="cls-13" d="M174.23,176.72c.37-.18.78-.41,1.22-.65a26.66,26.66,0,0,1,4.46-2.08,57.76,57.76,0,0,1,9.19-2.88,68.85,68.85,0,0,1,11.57-1.3,66,66,0,0,1,11.69,1.06,52.86,52.86,0,0,1,9.45,2.74,32.91,32.91,0,0,1,8,4.25l.05,0a1.61,1.61,0,0,1,.09,2.63c-.5.45-1,2.43-1.82,2.51h0a4.07,4.07,0,0,1-2.25-.41h0a54.6,54.6,0,0,0-7.3-2.93,64,64,0,0,0-8.1-2.15,54.9,54.9,0,0,0-9.8-1.12,62.16,62.16,0,0,0-10,.32l-1.52.22-3.22.46a25.54,25.54,0,0,0-2.66.53c-.5.12-1,.23-1.46.33-2.06.41-3.79.9-5.17,1.29l-1,.29-6.93.07Z"/></g><path d="M329.74,65.78c-20.21-17.77-153.74-79-207.47,60-16,53.84,14.53,73.76,17.24,85.19,6.65-29.57.6-39.05,27.57-56.8,36.89-24.26,95.51,10.69,138.11-18C326.24,121.94,352.08,85.43,329.74,65.78Z"/><path d="M320.79,122.2s-3.41-73.34,53-32.71c37.65,27.1-14.25,93.27-9.84,139.38-20-61.13-21-63.53-21.36-77.11S324.89,116.26,320.79,122.2Z"/><path class="cls-14" d="M364.29,198.34v-.21a.92.92,0,0,0-.58-.54h0l-.13-.05c-9.42-3.36-48.91-4.93-70.22-2.52s-34.12,7.88-41.19,8.13c-7.1-.1-19.92-5.3-41.38-7.28s-60.8.39-70.13,4a.45.45,0,0,0-.16.06h0a.77.77,0,0,0-.53.54v.21c-.09,1.19-.38,6.33-.24,9.25a3.14,3.14,0,0,0,0,.44,2.47,2.47,0,0,0,1.69,1.84l.13,0c1.91.66,5.18,3.5,8.65,17.44,1.6,6.95,3.58,21.66,18.73,26,6.9,1.92,40.21,5.66,57-7.45,3.54-2.76,7.35-8.79,10.55-14.92,1.87-4.18,6.85-16.18,7.57-18a7.28,7.28,0,0,1,7.34-5.27l1.66,0a7.29,7.29,0,0,1,7.42,5.13c.77,1.82,6,13.71,7.92,17.84,3.33,6.08,7.28,12,10.85,14.72,17.09,12.75,50.3,8.33,57.14,6.27,15.08-4.64,16.76-19.37,18.19-26.36,3.21-14,6.45-16.93,8.3-17.62l.13,0A2.52,2.52,0,0,0,364.7,208v-.45C364.78,204.67,364.38,199.52,364.29,198.34ZM226.66,236.87a25.6,25.6,0,0,1-15.82,13.39c-13.1,3.72-22.4,3.88-35.5,2.16-8.75-1.16-15.24-7-17-13-2.17-8.24-5.29-16.65-3.29-24.89a17.5,17.5,0,0,1,11.74-12.2c13-4.17,33.25-4,46.27-1.93,6.38,1.15,17.68,2.31,20.31,9.79C236.24,218.33,231,229.69,226.66,236.87Zm120.18.66c-1.66,6-8,12-16.77,13.31-13.05,2-22.35,2-35.5-1.44a25.55,25.55,0,0,1-16.11-13.05c-4.51-7.09-9.92-18.33-7.26-26.47,2.47-7.54,13.76-8.94,20.11-10.22,13-2.29,33.24-2.91,46.29,1a17.46,17.46,0,0,1,12,12C351.79,220.8,348.85,229.28,346.85,237.53Z"/><path class="cls-15" d="M124.54,504c0-86.6,44.89-112.12,66.25-119.39,13.9,14,41.44,33.21,62.7,34.15h.6c.09,0,.28.09.45,0,21.35-.94,48.88-20.26,62.8-34.24,21.24,7.19,66.41,32.64,66.41,119.48"/><path class="cls-16" d="M184.54,387.1c15.2,16.79,45.33,39.87,68.55,41h.68c.09,0,.31.08.47,0,23.29-1.16,53.35-24.23,68.57-41a76.17,76.17,0,0,0-11-5.18C299.05,396,273.69,415.59,254,416.54c-.15.09-.32,0-.39,0H253c-19.57-.95-44.94-20.4-57.75-34.54a75.29,75.29,0,0,0-10.76,5.11"/></svg>