<svg id="Layer_1" data-name="Layer 1" xmlns="http://www.w3.org/2000/svg" xmlns:xlink="http://www.w3.org/1999/xlink" viewBox="0 0 504 504"><defs><style>.cls-1{fill:none;}.cls-2{fill:#5293ce;}.cls-3{fill:#cececd;}.cls-4{fill:#e1be9b;}.cls-5{fill:#f1d1ac;}.cls-6{fill:#e4c3a2;}.cls-7,.cls-8{fill:#c09980;}.cls-8{opacity:0.6;}.cls-9{clip-path:url(#clip-path);}.cls-10{fill:#b6947d;}.cls-11{fill:#5e5e5e;}.cls-12{fill:#d3b396;}.cls-13{fill:#c69f84;}.cls-14{fill:#fff;}.cls-15{fill:#58879f;}.cls-16{fill:#132026;}.cls-17{fill:#d5b599;}.cls-18{fill:#da6e27;}.cls-19{fill:#3a3a3a;}</style><clipPath id="clip-path"><polygon class="cls-1" points="219.21 372.97 280.59 372.97 280.59 337.03 218.41 337.56 219.21 372.97"/></clipPath></defs><title>Final-Avatars</title><rect class="cls-2" width="504" height="504"/><path class="cls-3" d="M250.18,103.85C76.79,112.46,107.49,266.7,107.49,266.7s20.15,31,44.49,65.22c22.67,31.84,46.14,76.35,98.2,65.71,45.58,8.64,79.92-23.43,98.25-63.61a275.06,275.06,0,0,1,44.44-67.32S423.56,112.46,250.18,103.85Z"/><path class="cls-4" d="M249.74,298.66V504H138.42c-1.8-.8-2.75-1.19-2.75-1.19,0-110.12,68.17-118.32,68.17-118.32,6.79,0,11.17-8.77,14.07-22.05.46-2.07.84-4.19,1.16-6.46.63-3.74,1.17-7.72,1.56-11.91.22-2.46.47-5,.7-7.56,1-12.62,1.34-26.31,1.34-39.29,0,0,15,1.47,27.09,1.47"/><path class="cls-5" d="M364.18,502.77s-1,.39-2.65,1.19H249.74V298.66H250c12.11,0,27.17-1.47,27.17-1.47,0,12.9.3,26.43,1.31,39,.25,2.51.48,5,.72,7.45.48,4.29.92,8.36,1.55,12.17v.08c.24,1.71.55,3.31.88,4.86,2.87,14.17,7.41,23.73,14.43,23.73,0,0,68.16,8.2,68.16,118.32"/><path class="cls-6" d="M248.12,63.22c-117.9,0-118.58,99-113.32,163.74-8.11-15.36-32-10.62-30.06,13.58,1.91,23.29,35.7,35.31,35.22,32.59,9.66,53.31,65.16,84.08,108.16,84.08H249v-294h-.91"/><path class="cls-7" d="M112.28,230.3c5.83-9.35,14.81-5.32,17-3.26,2.33,2.23,4.2,5.22,2.73,10.75-.81,3.1-4.06,3.31-3.28,8,.88,5.29,3.33,5.65,4.73,6.84s3.09,2.15,4,4.39a11.83,11.83,0,0,1,.52,6.64c-.88,3.83-6.45.79-10.18-.88-2.42-1.16-10.21-7.72-12.2-10-4.93-5.61-7.22-16.36-3.33-22.58"/><path class="cls-5" d="M248.72,63.22c117.89,0,118.56,99,113.33,163.74,8.09-15.36,32-10.62,30,13.58-1.89,23.29-35.71,35.31-35.22,32.59-9.66,53.31-65.14,84.08-108.16,84.08h-.9v-294h.9"/><path class="cls-8" d="M384.58,230.3C378.76,221,369.76,225,367.52,227c-2.32,2.23-4.16,5.22-2.74,10.75.81,3.1,4.1,3.31,3.29,8-.88,5.29-3.33,5.65-4.72,6.84s-3.12,2.15-4,4.39a11.83,11.83,0,0,0-.51,6.64c.88,3.83,6.43.79,10.17-.88,2.44-1.16,10.21-7.72,12.19-10,5-5.61,7.23-16.36,3.37-22.58"/><g class="cls-9"><path class="cls-10" d="M280.59,356.33v.07A35.94,35.94,0,0,1,249.89,373h-.16c-17.62-.08-27.86-12.79-30.51-16.49q.95-5.53,1.54-11.71c.24-2.42.48-4.89.71-7.45a122,122,0,0,0,27.95,3.61h.32A115.71,115.71,0,0,0,278.34,337c.23,2.47.48,4.94.71,7.33.44,4.22.91,8.21,1.54,12"/></g><path class="cls-6" d="M249.07,91.13c-38.84,0-67.19,11.26-84.42,33.6-24,31.13-23.07,78.7-14.21,112.82,2.7,10.46,4.1,38.58,6,48.93,8.38,46.18,59.21,70.74,92.68,70.74.28,0,.59,0,.87,0V91.13h-.87"/><path class="cls-5" d="M333.25,124.77c-17.06-22.18-45.11-33.45-83.31-33.64V357.18c38.23-.4,83.9-27.35,91.76-70.7,1.83-10.35,3.24-38.47,6-48.93,8.81-34,9.68-81.53-14.42-112.78"/><path class="cls-11" d="M364.34,502.8s-1,.4-2.66,1.2H138.33c-1.81-.79-2.76-1.2-2.76-1.2,0-83.88,39.62-108.6,58.46-115.65,12.28,13.54,36.58,32.18,55.35,33.09h.52c.08,0,.25.08.4,0,18.84-.91,43.14-19.63,55.43-33.16,18.73,7,58.6,31.6,58.6,115.72"/><path id="_Path_" data-name="&lt;Path&gt;" class="cls-7" d="M238.15,268.74c-.23-4.74,8.67-1.73,11.61-1.58,2.32.12,9.38-1.49,10-1.08,4.15,2.81-4.4,8.46-10.13,8.46C248.08,274.54,238.29,271.6,238.15,268.74Z"/><path id="_Path_2" data-name="&lt;Path&gt;" class="cls-12" d="M275.57,306.35c-3.46-.18-7,2.9-11.17,2.43a.73.73,0,0,0-.43-.09A6.65,6.65,0,0,0,261,309a30.29,30.29,0,0,0-3.81,1.31,16.71,16.71,0,0,1-6.83,1.1v0l-.13,0-.13,0v0a16.71,16.71,0,0,1-6.83-1.1,30.3,30.3,0,0,0-3.81-1.31,6.65,6.65,0,0,0-2.94-.27.73.73,0,0,0-.43.09c-4.16.47-7.71-2.62-11.17-2.43-1,.09-2.34-.18-3.12-.18l.53.27c9.86,5.15,18.37,14.79,27.78,14.48h.27c9.42.31,17.93-9.33,27.78-14.48l.53-.27C277.92,306.16,276.53,306.44,275.57,306.35Z"/><path class="cls-13" d="M278.47,306.05h0s-10-4.13-17.16-1.71a42.23,42.23,0,0,1-5.4,1.78,13.53,13.53,0,0,1-5.66.82h0a29.39,29.39,0,0,1-4.1-.49c-.39-.06-.78-.15-1.17-.24l-.45-.1-.71-.18-.41-.11h0a44.81,44.81,0,0,1-4.24-1.48c-7.13-2.43-17.16,1.71-17.16,1.71h0l-.22.11c.78,0,2.16.27,3.12.18,2.84-.15,5.75,1.91,9,2.38A67.84,67.84,0,0,0,246,311a13.92,13.92,0,0,0,4.15.33v0l.13,0,.13,0v0a12.59,12.59,0,0,0,2.37,0,38.71,38.71,0,0,0,14-2.63h0c3.18-.52,6-2.5,8.83-2.36,1,.09,2.34-.18,3.12-.18Z"/><path id="_Path_3" data-name="&lt;Path&gt;" class="cls-1" d="M167,207.13s9,17.91,22.81,19.77,28.46-.59,28.46-.59.21-20.74-7-23.67S187.7,195.3,167,207.13Z"/><path id="_Path_4" data-name="&lt;Path&gt;" class="cls-1" d="M329.05,208.22s-8.72,17.57-22.49,19.18-28.47-1-28.47-1-.54-20.48,6.59-23.27S308.15,196.23,329.05,208.22Z"/><path id="_Path_5" data-name="&lt;Path&gt;" class="cls-14" d="M167,206.72s9.58,19,24.22,21,30.21-.62,30.21-.62.22-22-7.4-25.12S189,194.15,167,206.72Z"/><path id="_Path_6" data-name="&lt;Path&gt;" class="cls-15" d="M208.86,214.35a13.63,13.63,0,0,1-14.3,12.55,13,13,0,0,1-11.79-14.45c.69-7.47,7.09-13.1,14.31-12.56A13,13,0,0,1,208.86,214.35Z"/><path id="_Path_7" data-name="&lt;Path&gt;" class="cls-16" d="M195.42,221c-2.67-.19-5.4-3.23-5.06-7s3.62-6.37,6.29-6.18,5.41,3.23,5.06,7S198.1,221.24,195.42,221Z"/><path id="_Path_8" data-name="&lt;Path&gt;" class="cls-17" d="M221.45,227s-.33,0-1.07.17c-.58-6.76-2.29-16.09-7-18-7.07-2.94-22.92-7.24-43.19,2.66a42.25,42.25,0,0,1-3.14-5.19c22-12.6,39.47-7.92,47-4.81S221.45,227,221.45,227Z"/><path id="_Path_9" data-name="&lt;Path&gt;" class="cls-14" d="M330.09,207.89s-9.26,18.65-23.87,20.36S276,227.2,276,227.2s-.57-21.75,7-24.7S307.89,195.15,330.09,207.89Z"/><path id="_Path_10" data-name="&lt;Path&gt;" class="cls-15" d="M285.38,214.71a14.19,14.19,0,0,0,14.92,12.94,13.47,13.47,0,0,0,12.31-14.91,14.19,14.19,0,0,0-14.93-13A13.47,13.47,0,0,0,285.38,214.71Z"/><path id="_Path_11" data-name="&lt;Path&gt;" class="cls-16" d="M299.42,221.6c2.79-.2,5.64-3.32,5.28-7.23s-3.78-6.57-6.57-6.37-5.64,3.34-5.28,7.23S296.63,221.8,299.42,221.6Z"/><path id="_Path_12" data-name="&lt;Path&gt;" class="cls-4" d="M276,227.13s.33.05,1.07.21c.47-6.69,2-15.87,6.75-17.68,7-2.8,22.8-6.83,43.22,3.27a40.39,40.39,0,0,0,3.07-5.08c-22.25-12.78-39.61-8.4-47.11-5.45S276,227.13,276,227.13Z"/><g id="_Group_" data-name="&lt;Group&gt;"><path id="_Path_13" data-name="&lt;Path&gt;" class="cls-18" d="M222.13,196.71a26,26,0,0,0-5.66-5.8,32.49,32.49,0,0,0-7-4.21,36.38,36.38,0,0,0-9.06-2.51,38,38,0,0,0-9.32.25,35.62,35.62,0,0,0-7.58,2.31,19.1,19.1,0,0,0-3.87,1.95c-.39.24-.74.45-1.1.65l-4.83,3,5.57-1.31.84-.22a36.9,36.9,0,0,1,4.26-.93c.39-.06.79-.14,1.2-.22a14.62,14.62,0,0,1,2.18-.32l2.62-.18,1.17-.08a33.55,33.55,0,0,1,8,.73,30.4,30.4,0,0,1,7.51,2.36,39.05,39.05,0,0,1,6.09,3.39,37.71,37.71,0,0,1,5.31,4.19h0a2.42,2.42,0,0,0,1.72.71,2.38,2.38,0,0,0,1.32-.39,2.44,2.44,0,0,0,.72-3.34Z"/><path id="_Path_14" data-name="&lt;Path&gt;" class="cls-18" d="M319.16,185.77c-.32-.17-.67-.39-1.06-.63a18.94,18.94,0,0,0-3.82-1.93,35.87,35.87,0,0,0-7.66-2.34,37.9,37.9,0,0,0-9.3-.25,36.41,36.41,0,0,0-9,2.5,32.93,32.93,0,0,0-7,4.21,26,26,0,0,0-5.65,5.79l0,.05a2.46,2.46,0,0,0,.32,3.05,2.39,2.39,0,0,0,1.71.72h0a2.39,2.39,0,0,0,1.71-.72l0,0a37.86,37.86,0,0,1,5.31-4.19,39.11,39.11,0,0,1,6.06-3.37,30.58,30.58,0,0,1,7.55-2.37,33.68,33.68,0,0,1,7.93-.72l1.23.09,2.61.18a14.62,14.62,0,0,1,2.17.32c.41.08.81.16,1.2.22a36.92,36.92,0,0,1,4.27.93l.85.22,5.56,1.31Z"/></g><path class="cls-18" d="M364.39,218.22a26.42,26.42,0,0,0-6.81,10c-3.7,9.69-5.1,8-5.1,8s5.83-37.92,5.83-48.48S325.17,124,306.68,117.7s-35.16,14.8-55,14.8h-1.57c-19.48-.4-36.77-20.91-55-14.8-18.45,6.27-51.58,59.63-51.58,70.1s5.81,48.48,5.81,48.48-1.43,1.66-5.09-8c-2.11-5.66-7.4-8.2-10.06-10.5-4.92-65.69-.22-163.08,115.82-163.08h.62c116.66,0,118.91,97.86,113.83,163.54"/><path class="cls-11" d="M345.21,95.55C322.6,59.48,291.49,37,248.82,37s-71.64,23-94.24,59.11C134,129,124.1,136.56,108.46,182.36c12.22-22.86,56.76-69.84,142.05-69.84S382.64,159.27,395,182.36C379.33,136.56,365.8,128.42,345.21,95.55Z"/><path class="cls-19" d="M236.55,485.77c0-21.7-3.62-31.38-11.47-51.17-16-40.34-41.79-74-64.53-103.68-21-27.43-39.14-51.11-46.37-74.67-8.07-26.32-1.64-57.25,17.2-82.74,14.76-20,50-53.44,120.63-53.44s105.87,33.48,120.63,53.44c18.84,25.49,25.27,56.42,17.2,82.74-7.22,23.55-25.36,47.24-46.37,74.67-22.74,29.69-48.51,63.34-64.53,103.68-7.86,19.79-11.76,34.55-11.76,56.25h0a7.56,7.56,0,1,0,15.12,0h0c0-19.78,3.54-32.67,10.69-50.67,15.25-38.39,40.34-71.16,62.48-100.07,21-27.4,40.8-53.27,48.82-79.42,9.47-30.88,2.18-66.83-19.49-96.15C368.34,142.28,329.21,105,252,105s-116.34,37.33-132.78,59.57c-21.68,29.32-29,65.27-19.49,96.15,8,26.15,27.84,52,48.82,79.42C170.68,369,195.78,401.79,211,440.18c7.15,18,9.42,26.76,10.43,46.37h0c0,4.17,4.15,7.65,8.33,7.65s6.77-4.26,6.77-8.43"/></svg>