<svg id="Layer_1" data-name="Layer 1" xmlns="http://www.w3.org/2000/svg" xmlns:xlink="http://www.w3.org/1999/xlink" viewBox="0 0 1027.66 529"><defs><style>.cls-1{fill:none;}.cls-2{fill:#d8b280;}.cls-3{fill:#894e26;}.cls-4{fill:#e4c4a4;}.cls-5{fill:#f1d1ac;}.cls-6{clip-path:url(#clip-path);}.cls-7{fill:#c09980;}.cls-8{fill:#fff;}.cls-9{fill:#755622;}.cls-10{fill:#132026;}.cls-11{fill:#bf9980;}.cls-12{fill:#d1d1d1;}.cls-13{fill:#ee3e5d;}.cls-14{fill:#8a4f25;stroke:#8a4f25;stroke-linecap:round;stroke-linejoin:round;stroke-width:2.23px;}.cls-15{fill:#bf706b;}.cls-16{fill:#994e49;}.cls-17{fill:#c8c8c8;}.cls-18{fill:#342626;}.cls-19{fill:#9a6d4c;}.cls-20{fill:#a7774a;}.cls-21{clip-path:url(#clip-path-2);}.cls-22{fill:#8b613e;}.cls-23{fill:#93643f;}.cls-24{fill:#a57146;}.cls-25{fill:#d28d5a;}.cls-26{fill:#c38553;}.cls-27{fill:#7f5a3e;}.cls-28{fill:#231f20;}.cls-29{fill:#1d130d;}.cls-30{fill:#694626;}.cls-31{fill:#895833;}.cls-32{fill:#666667;}.cls-33{fill:#26120d;}.cls-34{fill:#4f4f4f;}</style><clipPath id="clip-path"><rect class="cls-1" x="705.8" y="339.71" width="60.16" height="35.65"/></clipPath><clipPath id="clip-path-2"><rect class="cls-1" x="221.21" y="343.81" width="60.71" height="35.98"/></clipPath></defs><title>Final-Avatars</title><rect class="cls-2" x="524" width="504" height="504"/><path class="cls-3" d="M625.21,257.77s10.57,115.41,91.11,149.39V364.59s-55.09-49.37-75.84-102C640.48,262.55,630.48,264,625.21,257.77Z"/><rect class="cls-3" x="765.96" y="326.69" width="75.25" height="89.49"/><path class="cls-4" d="M735.74,303.2v200H627.13l-2.66-1.14C624.48,394.8,691,386.76,691,386.76c6.64,0,10.91-8.53,13.7-21.49.46-2,.84-4,1.15-6.24.62-3.65,1.15-7.57,1.51-11.6.24-2.45.46-4.89.7-7.37,1-12.3,1.28-25.64,1.28-38.29,0,0,14.65,1.43,26.46,1.43"/><path class="cls-5" d="M847.4,502.09s-1,.4-2.6,1.14H735.74v-200H736c11.79,0,26.52-1.43,26.52-1.43,0,12.57.29,25.77,1.27,37.94.24,2.45.47,4.88.67,7.25.48,4.19.92,8.15,1.54,11.92v.07c.24,1.67.54,3.19.85,4.74,2.8,13.77,7.2,23.07,14.09,23.07,0,0,66.49,8,66.49,115.33"/><path class="cls-5" d="M735.95,73.82V360.22h.81c42,0,96.1-29.94,105.56-81.89a5.12,5.12,0,0,0,.15,2.37c1.74,4.19,9.61,8.54,15.14,3.58,4.88-4.43,1.69-12.73,1.9-12.88,8.1-5.5,16.22-13.89,17.14-24.87,1.91-23.59-21.41-28.16-29.31-13.19,5.07-63.15,4.49-159.52-110.59-159.52Zm112.14,204a3.45,3.45,0,0,1,3.45-3.37,3.36,3.36,0,1,1-3.45,3.37"/><g class="cls-6"><path class="cls-7" d="M766,358.87v.07a35.13,35.13,0,0,1-30.07,16.41h-.16c-17.27-.07-27.33-12.69-29.93-16.33.62-3.65,1.15-7.57,1.51-11.6.24-2.45.46-4.89.7-7.37a121.87,121.87,0,0,0,27.43,3.58h.28a110.87,110.87,0,0,0,28-3.93c.24,2.45.47,4.88.7,7.25.46,4.19.89,8.15,1.51,11.92"/></g><path class="cls-4" d="M736.06,73.78c-115.06,0-115.67,96.4-110.59,159.56-7.91-15-31.22-10.36-29.29,13.19.89,11,9,19.37,17.13,24.87.23.15-3,8.45,1.89,12.88,5.58,5,13.39.62,15.15-3.58a5.32,5.32,0,0,0,.15-2.37c9.46,51.94,63.61,81.89,105.56,81.89h.85V73.78ZM621.28,281.13a3.34,3.34,0,0,1,0-6.67,3.34,3.34,0,1,1,0,6.67"/><path class="cls-7" d="M603.51,236.56c5.69-9.08,14.44-5.16,16.61-3.19,2.28,2.21,4.1,5.08,2.69,10.48-.8,3-4,3.24-3.19,7.87.85,5.15,3.25,5.47,4.61,6.67s3,2.06,3.87,4.26a11.31,11.31,0,0,1,.5,6.49c-.87,3.72-6.29.78-9.92-.89-2.37-1.09-10-7.53-11.88-9.66-4.84-5.47-7.1-15.95-3.29-22"/><path class="cls-4" d="M735.05,100.93c-37.85,0-65.55,11-82.33,32.74-23.42,30.35-22.52,76.7-13.88,110,2.65,10.17,4,37.59,5.82,47.65,8.18,45,57.74,69,90.4,69,.27,0,.59,0,.89,0V101c-.31,0-.59,0-.89,0"/><path class="cls-5" d="M817.22,133.71c-16.66-21.56-44-32.54-81.27-32.74V360.22c37.27-.41,81.81-26.64,89.48-68.92,1.82-10.05,3.18-37.48,5.8-47.65,8.62-33.17,9.47-79.49-14-109.94"/><path class="cls-7" d="M869.15,236.56c-5.69-9.08-14.44-5.16-16.61-3.19-2.28,2.21-4.11,5.08-2.7,10.48.8,3,4,3.24,3.22,7.87-.85,5.15-3.23,5.47-4.63,6.67s-3,2.06-3.87,4.26a11.45,11.45,0,0,0-.5,6.49c.89,3.72,6.31.78,9.92-.89,2.4-1.09,10-7.53,11.89-9.66,4.84-5.47,7.09-15.95,3.28-22"/><path id="_Path_" data-name="&lt;Path&gt;" class="cls-8" d="M645.75,216.2s11.58,20.89,29.05,23.15,36-.43,36-.43-2.3-19.79-11.4-23.24S672.21,206.18,645.75,216.2Z"/><path id="_Path_2" data-name="&lt;Path&gt;" class="cls-9" d="M695.73,224.9c-.76,8.16-8.35,14.25-16.94,13.6s-14.94-7.76-14.17-15.9,8.35-14.27,17-13.62S696.5,216.74,695.73,224.9Z"/><path id="_Path_3" data-name="&lt;Path&gt;" class="cls-10" d="M679.76,232.11a7.13,7.13,0,0,1-6.09-7.72,7.49,7.49,0,0,1,7.45-6.7,7.12,7.12,0,0,1,6.09,7.72A7.48,7.48,0,0,1,679.76,232.11Z"/><path id="_Path_4" data-name="&lt;Path&gt;" class="cls-11" d="M710.84,238.86s-.39,0-1.28.18c-.75-7.4-2.86-17.62-8.54-19.76-8.46-3.27-27.39-8.11-51.47,2.56a46.44,46.44,0,0,1-3.79-5.7c26.18-13.6,47-8.33,56-4.87S710.84,238.86,710.84,238.86Z"/><path id="_Path_5" data-name="&lt;Path&gt;" class="cls-8" d="M828.31,218.74s-10.89,20.32-28.3,22.07-36.06-1.4-36.06-1.4,1.95-20,10.95-23.2S802,208.15,828.31,218.74Z"/><path id="_Path_6" data-name="&lt;Path&gt;" class="cls-9" d="M775.05,225.83c.93,8.42,8.95,14.81,17.9,14.28s15.48-7.81,14.56-16.21-8.95-14.83-17.91-14.3S774.1,217.41,775.05,225.83Z"/><path id="_Path_7" data-name="&lt;Path&gt;" class="cls-10" d="M791.85,233.49a7.12,7.12,0,0,0,6.24-7.87,8.06,8.06,0,0,0-7.88-7,7.13,7.13,0,0,0-6.24,7.87A8.07,8.07,0,0,0,791.85,233.49Z"/><path id="_Path_8" data-name="&lt;Path&gt;" class="cls-11" d="M763.93,239.34s.39.06,1.28.24c.5-7.31,2.28-17.34,7.91-19.28,8.36-3,27.13-7.28,51.56,3.93a42.67,42.67,0,0,0,3.62-5.53c-26.64-14.15-47.3-9.51-56.21-6.34S763.93,239.34,763.93,239.34Z"/><path id="_Path_9" data-name="&lt;Path&gt;" class="cls-7" d="M727.08,274.28c-.18-3.61,6.61-1.32,8.85-1.21,1.77.09,7.15-1.14,7.61-.82,3.16,2.14-3.35,6.45-7.72,6.45C734.65,278.7,727.19,276.46,727.08,274.28Z"/><circle class="cls-12" cx="851.89" cy="279.87" r="10.24"/><path class="cls-13" d="M826,472.51h19.28c0-2.17,0-4.29-.11-6.39a106.27,106.27,0,0,0-11.79-42.74c-1.73-3.32-3-5.21-3-5.21a79,79,0,0,0-16.76-17.77,15.66,15.66,0,0,0-1.49-1.24c-.83-.63-1.65-1.21-2.47-1.78-88.3,153.9-146.42,0-146.42,0-.91.63-1.8,1.23-2.72,1.93a7.9,7.9,0,0,0-1.52,1.2c-1.35,1.05-2.73,2.2-4.08,3.42a83.61,83.61,0,0,0-12.52,14.24s-12.38,27.76-14.72,48c-.26,2.24-1.42,4.71-1.39,6.71l20.5-.32c0,2.14,0,4.16-.06,6.14-.14,10.76-.49,19.13-.84,24.59H827c-.36-5.45-.75-13.83-.91-24.59C826,476.68,826,474.65,826,472.51Z"/><path class="cls-3" d="M668.06,115.58S758.91,69.25,792.52,162C792.52,162,806.09,20.32,668.06,115.58Z"/><path class="cls-3" d="M681.06,73.43s-14.15,38.15-7.64,49c0,0-43.75,20.5-47.95,110.92h0S581.46,107.45,681.06,73.43Z"/><g id="_Group_" data-name="&lt;Group&gt;"><path id="_Path_10" data-name="&lt;Path&gt;" class="cls-14" d="M813.12,192.73c-.38-.17-.8-.39-1.25-.62a28.34,28.34,0,0,0-4.57-2,62.61,62.61,0,0,0-9.41-2.74A75.87,75.87,0,0,0,786,186.16a72.78,72.78,0,0,0-12,1,57.46,57.46,0,0,0-9.68,2.6,34.55,34.55,0,0,0-8.17,4l-.05,0a1.47,1.47,0,0,0-.1,2.49c.51.42,1,2.31,1.87,2.38h0a4.45,4.45,0,0,0,2.3-.39h0a58.49,58.49,0,0,1,7.48-2.78,69.72,69.72,0,0,1,8.3-2,60.49,60.49,0,0,1,10-1.07,68.67,68.67,0,0,1,10.26.3l1.55.21,3.3.44c.95.11,1.85.31,2.72.5.51.11,1,.22,1.5.31,2.11.39,3.88.85,5.3,1.23l1,.27,7.1.06Z"/></g><g id="_Group_2" data-name="&lt;Group&gt;"><path id="_Path_11" data-name="&lt;Path&gt;" class="cls-14" d="M658.37,193c.38-.17.8-.39,1.25-.62a28.34,28.34,0,0,1,4.57-2,62.61,62.61,0,0,1,9.41-2.74,75.87,75.87,0,0,1,11.85-1.24,72.78,72.78,0,0,1,12,1,57.46,57.46,0,0,1,9.68,2.6,34.55,34.55,0,0,1,8.17,4l.05,0a1.47,1.47,0,0,1,.1,2.49c-.51.42-1,2.31-1.87,2.38h0a4.45,4.45,0,0,1-2.3-.39h0a58.49,58.49,0,0,0-7.48-2.78,69.72,69.72,0,0,0-8.3-2,60.49,60.49,0,0,0-10-1.07,68.67,68.67,0,0,0-10.26.3l-1.55.21-3.3.44c-.95.11-1.85.31-2.72.5-.51.11-1,.22-1.5.31-2.11.39-3.88.85-5.3,1.23l-1,.27-7.1.06Z"/></g><path class="cls-3" d="M668.06,126s110-80.6,121.59,36.56c0,0,16.88,74.86,70,68.41,0,0,32.53-74.66-30.25-152.6,0,0-44.39-56.29-109.34-36C720,42.42,656.15,64.76,668.06,126Z"/><path class="cls-3" d="M801.58,226.85c2.08,6.77,4.93,13,11.54,14.56A14.85,14.85,0,0,0,811.81,260a14.95,14.95,0,0,0-5,25.55,14.94,14.94,0,0,0,1.87,24.09,14.93,14.93,0,0,0-1.9,24.05A14.95,14.95,0,0,0,809,358,14.93,14.93,0,0,0,805,385.34a14.93,14.93,0,0,0,3.62,27.25,14.94,14.94,0,0,0,4.37,27.16,14.95,14.95,0,0,0,6.29,28.51,14.75,14.75,0,0,0,6.34-1.43,14.95,14.95,0,0,0,23.15,17.85,14.95,14.95,0,0,0,27.09,11.64,14.95,14.95,0,0,0,28-6.08A14.95,14.95,0,0,0,926,477.19a15.08,15.08,0,0,0-.47-3.64l.47,0a14.95,14.95,0,0,0,9.28-26.68,14.95,14.95,0,0,0,9.62-28,14.95,14.95,0,0,0-1.31-29.13,14.94,14.94,0,0,0-10.26-25.63,14.94,14.94,0,0,0-6.95-25.42,14.94,14.94,0,0,0-12.19-23.59l-.29,0a14.94,14.94,0,0,0-7-25.64,14.94,14.94,0,0,0-9.16-22,14.95,14.95,0,0,0-4.65-18.5,15,15,0,0,0-4.54-26.39,14.91,14.91,0,0,0-2.74-23.57,14.94,14.94,0,0,0-2.71-24.2,15,15,0,0,0-8.41-24.07,14.95,14.95,0,0,0-10.61-25.49H864a14.8,14.8,0,0,0,.15-2,15,15,0,0,0-15-15S791.34,193.68,801.58,226.85Z"/><path class="cls-15" d="M766,310.15s-13.63,10.07-30.42,10.07S706,310.36,706,310.36s12.75-.8,29.52-.8,30.48.59,30.48.59"/><path class="cls-16" d="M744.22,305.52c-4.74,0-8.51,2-8.63,4.55-.05-2.55-3.85-4.55-8.57-4.55s-21.81,4.63-21.81,4.63,16.64,1.2,21.37,1.2,9,1.32,9-1.16c.08,2.48,3.52,1.49,8.26,1.49S766,310.15,766,310.15s-17-4.63-21.79-4.63"/><polygon class="cls-17" points="616.65 268.47 602.96 278.05 604.41 294.7 619.55 301.77 633.25 292.19 631.79 275.54 616.65 268.47"/><rect class="cls-2" width="504" height="504"/><path class="cls-18" d="M245.85,330.77a7.47,7.47,0,0,0-.9,3.52v3.3a7.48,7.48,0,1,0,15,0v-3.3a7.47,7.47,0,0,0-.9-3.52,63.09,63.09,0,0,0-13.16,0Z"/><path class="cls-19" d="M251.39,301.89V504H141.82l-2.7-1.14c0-108.4,67.07-116.48,67.07-116.48,6.73,0,11-8.61,13.85-21.71.48-2,.86-4.1,1.18-6.35q.94-5.53,1.52-11.72c.24-2.42.47-4.9.7-7.45,1-12.41,1.3-25.89,1.3-38.67,0,0,14.77,1.45,26.66,1.45"/><path class="cls-20" d="M364.08,502.82s-1,.39-2.61,1.18H251.39V301.89h.23c11.92,0,26.74-1.45,26.74-1.45,0,12.7.32,26,1.33,38.36.23,2.47.47,4.94.7,7.33.43,4.22.9,8.22,1.53,12v.07c.23,1.7.55,3.26.86,4.78,2.81,14,7.26,23.36,14.18,23.36,0,0,67.12,8.08,67.12,116.48"/><g class="cls-21"><path class="cls-22" d="M281.92,363.13v.07a35.48,35.48,0,0,1-30.37,16.58h-.16c-17.43-.08-27.56-12.81-30.18-16.5q.94-5.53,1.52-11.72c.24-2.42.47-4.9.7-7.45a119.31,119.31,0,0,0,27.64,3.62h.31a113.18,113.18,0,0,0,28.3-3.92c.23,2.47.47,4.94.7,7.33.43,4.22.9,8.22,1.53,12"/></g><path class="cls-19" d="M251.74,75.12c-116.1,0-116.76,97.42-111.6,161.15-7.93-15.09-31.51-10.42-29.59,13.36,1.88,23,35.14,34.8,34.67,32.15,9.54,52.47,64.15,82.8,106.53,82.8.27,0,.59-.07.86-.07V75.12h-.86"/><path class="cls-23" d="M118,239.6c5.75-9.21,14.59-5.25,16.77-3.2s4.15,5.12,2.69,10.53c-.78,3.06-4,3.3-3.19,8,.85,5.21,3.28,5.56,4.62,6.73s3.08,2.07,3.94,4.3a12,12,0,0,1,.51,6.55c-.9,3.77-6.38.78-10-.9-2.42-1.1-10.09-7.57-12-9.77-4.85-5.52-7.12-16.09-3.29-22.22"/><path class="cls-20" d="M252.29,75.12c116.09,0,116.76,97.42,111.6,161.15,7.93-15.09,31.51-10.42,29.55,13.36-1.84,23-35.15,34.8-34.68,32.15-9.49,52.47-64.1,82.8-106.47,82.8-.28,0-.58-.07-.9-.07V75.12h.9"/><path class="cls-24" d="M386.05,239.6c-5.74-9.21-14.62-5.25-16.77-3.2-2.31,2.18-4.15,5.12-2.74,10.53.81,3.06,4,3.3,3.24,8-.86,5.21-3.24,5.56-4.66,6.73s-3,2.07-3.9,4.3a11.58,11.58,0,0,0-.51,6.55c.9,3.77,6.33.78,10-.9,2.43-1.1,10.09-7.57,12-9.77,4.89-5.52,7.15-16.09,3.32-22.22"/><path class="cls-19" d="M250.73,102.59c-38.2,0-66.15,11.09-83.07,33.08-23.65,30.64-22.76,77.48-14,111.06,2.66,10.31,4,38,5.86,48.17,8.25,45.45,58.29,69.68,91.24,69.68.27,0,.58,0,.86,0V102.59h-.86"/><path id="_Path_12" data-name="&lt;Path&gt;" class="cls-25" d="M272.49,319.69c-3-.13-6.18,2-9.84,1.69a.79.79,0,0,0-.38-.06,7.35,7.35,0,0,0-2.59.19,31.79,31.79,0,0,0-3.36.91,18.29,18.29,0,0,1-6,.77h-.24a18.29,18.29,0,0,1-6-.77,31.8,31.8,0,0,0-3.36-.91,7.35,7.35,0,0,0-2.59-.19.79.79,0,0,0-.38.06c-3.66.33-6.79-1.82-9.84-1.69-.84.06-2.06-.13-2.75-.13l.46.19c8.68,3.58,16.18,10.29,24.48,10.08h.24c8.3.21,15.79-6.5,24.48-10.08l.46-.19C274.55,319.57,273.33,319.76,272.49,319.69Z"/><path class="cls-26" d="M275,319.49h0s-8.83-2.88-15.11-1.19a44.36,44.36,0,0,1-4.76,1.24,14.85,14.85,0,0,1-5,.57h0a32.5,32.5,0,0,1-3.61-.34c-.34,0-.68-.1-1-.17l-.39-.07-.63-.12-.36-.08h0c-2-.46-3.73-1-3.73-1-6.28-1.69-15.11,1.19-15.11,1.19h0l-.2.08c.68,0,1.91.19,2.75.13,2.5-.1,5.06,1.33,7.93,1.66a74,74,0,0,0,10.6,1.61,15.43,15.43,0,0,0,3.65.23h.24a14,14,0,0,0,2.09,0,42.22,42.22,0,0,0,12.32-1.83h0c2.8-.36,5.32-1.74,7.78-1.64.84.06,2.06-.13,2.75-.13Z"/><path id="_Path_13" data-name="&lt;Path&gt;" class="cls-27" d="M240.21,275.17c-.23-4.67,8.55-1.71,11.44-1.56,2.29.12,9.24-1.47,9.84-1.06,4.09,2.77-4.34,8.34-10,8.34C250,280.89,240.34,278,240.21,275.17Z"/><g id="_Group_3" data-name="&lt;Group&gt;"><path id="_Path_14" data-name="&lt;Path&gt;" class="cls-28" d="M330.63,202.06c-.36-.25-.76-.56-1.2-.91a23.7,23.7,0,0,0-4.37-2.89,45.53,45.53,0,0,0-9-4,48.57,48.57,0,0,0-11.32-1.8,46.29,46.29,0,0,0-11.44,1.47,40.94,40.94,0,0,0-9.25,3.79,31.35,31.35,0,0,0-7.81,5.88l0,.05a2.83,2.83,0,0,0-.09,3.63c.49.62,1,3.36,1.78,3.47h0a3,3,0,0,0,2.2-.56l0,0a46.34,46.34,0,0,1,7.14-4,48.77,48.77,0,0,1,7.92-3,38.79,38.79,0,0,1,9.59-1.56,43.12,43.12,0,0,1,9.79.44l1.48.3,3.15.64a18.69,18.69,0,0,1,2.6.73c.49.16,1,.32,1.43.45a47.08,47.08,0,0,1,5.06,1.79l1,.4,6.78.09Z"/></g><g id="_Group_4" data-name="&lt;Group&gt;"><path id="_Path_15" data-name="&lt;Path&gt;" class="cls-28" d="M173.63,202.8c.36-.25.76-.56,1.2-.91a23.7,23.7,0,0,1,4.37-2.89,45.53,45.53,0,0,1,9-4,48.57,48.57,0,0,1,11.32-1.8,46.29,46.29,0,0,1,11.44,1.47,40.94,40.94,0,0,1,9.25,3.79,31.35,31.35,0,0,1,7.81,5.88l0,.05a2.83,2.83,0,0,1,.09,3.63c-.49.62-1,3.36-1.78,3.47h0a3,3,0,0,1-2.2-.56l0,0a46.34,46.34,0,0,0-7.14-4,48.77,48.77,0,0,0-7.92-3,38.79,38.79,0,0,0-9.59-1.56,43.12,43.12,0,0,0-9.79.44l-1.48.3-3.15.64a18.69,18.69,0,0,0-2.6.73c-.49.16-1,.32-1.43.45a47.08,47.08,0,0,0-5.06,1.79l-1,.4-6.78.09Z"/></g><path class="cls-26" d="M173.46,218.68l-.21.31.42-.23Z"/><path id="_Path_16" data-name="&lt;Path&gt;" class="cls-8" d="M178,222.29s8.44,15.24,21.19,16.89,26.27-.32,26.27-.32-.45-14.75-7.09-17.27S196.68,215.76,178,222.29Z"/><path id="_Path_17" data-name="&lt;Path&gt;" class="cls-29" d="M214.41,228.64c-.56,6-6.09,10.4-12.36,9.92A10.84,10.84,0,0,1,191.72,227c.56-6,6.09-10.41,12.37-9.94S215,222.69,214.41,228.64Z"/><path id="_Path_18" data-name="&lt;Path&gt;" class="cls-10" d="M202.76,233.9a5.2,5.2,0,0,1-4.44-5.63,5.47,5.47,0,0,1,5.43-4.89A5.2,5.2,0,0,1,208.2,229,5.46,5.46,0,0,1,202.76,233.9Z"/><path id="_Path_19" data-name="&lt;Path&gt;" class="cls-30" d="M225.43,238.83s-.29,0-.93.13c-.54-5.4-2.09-12.85-6.23-14.41-6.17-2.39-20-5.92-37.54,1.87a33.88,33.88,0,0,1-2.76-4.16c19.09-9.92,34.28-6.08,40.87-3.55S225.43,238.83,225.43,238.83Z"/><path id="_Path_20" data-name="&lt;Path&gt;" class="cls-8" d="M326.38,222.48s-7.94,14.83-20.64,16.1-26.3-1-26.3-1,1.42-14.58,8-16.89S306.68,215.85,326.38,222.48Z"/><path id="_Path_21" data-name="&lt;Path&gt;" class="cls-29" d="M287.53,227.66c.67,6.15,6.53,10.8,13.05,10.42s11.29-5.7,10.62-11.83-6.53-10.82-13.06-10.43S286.84,221.51,287.53,227.66Z"/><path id="_Path_22" data-name="&lt;Path&gt;" class="cls-10" d="M299.78,233.24a5.19,5.19,0,0,0,4.55-5.74,5.88,5.88,0,0,0-5.75-5.12,5.2,5.2,0,0,0-4.55,5.74A5.88,5.88,0,0,0,299.78,233.24Z"/><path id="_Path_23" data-name="&lt;Path&gt;" class="cls-31" d="M279.42,237.51l.93.17c.37-5.34,1.66-12.65,5.77-14.07,6.1-2.19,19.79-5.31,37.61,2.86a31.13,31.13,0,0,0,2.64-4c-19.43-10.33-34.5-6.94-41-4.63S279.42,237.51,279.42,237.51Z"/><path class="cls-32" d="M353.43,438.41c-18.9-47.63-56.32-52.18-56.32-52.18h-.61c-2.7-4.15-4.38-8.78-3.61-13.48s-9-5.45-9-5.45a7.84,7.84,0,0,0,.49,1.42c.08,1.53.94,5.13-2.32,7-3,1.68-9,4.41-20,5.51-1,.1-2.06.19-3.15.27l-1,.06c-2,.11-4,.16-6.11.16-17.82,0-25.25-2.08-29.16-4.23-1.85-1-4.76-4.17-2.84-11.11,0,0-4.07-.69-9.13,2.72s3.22,5.93.23,10.33c-2.14,3.23-2.38,4.47-4.45,6.84h-.08c-1.84.29-25.31,4-43.94,29.55-12.59,17.22-23,44.35-23,87.06,0,0,.91.38,2.68,1.16H361.48c1.6-.78,2.6-1.16,2.6-1.16C364.08,475.46,359.81,454.48,353.43,438.41Z"/><path class="cls-33" d="M371.31,157.64c.46-30.52-23.61-62.4-23.61-62.4l-.54,21.27c-.55,0-14.93-36.51-27.62-43.24a289.24,289.24,0,0,1-40-25.75L297,73.94,259.26,37.33c.28,9.63,1.08,35.48.83,28.72-1.73-8.22-5-19.54-7.8-28.51-7.67,22.65-10.67,32.94-10.67,31,0-2.12,0-9.65-.25-21.75L222.15,72.63,238,42.49C223,58.43,198.26,59.81,187.62,78.29c-8.13,14.12-12.43,11.19-21.56,24.42l12.06-23.28s-29.48,24.42-37.72,45.63c-2.81,7.24-11.86,22.5-8.68,57.88,2.79,31,5.27,35,14.41,57.17,3.18,9,5.85,13.42,5.92,13.1.39.67.64.94.71.78,2.52-5.7-2-68-1.1-70.08,4.44-9.72,27.53-33.37,28.27-33.77,5.52-3,38.93-4.44,72.46-4.46s66.94,1.5,72.46,4.46c.74.4,22.45,24,26.9,33.77.94,2.05-.78,70-.39,69.31a4.12,4.12,0,0,0,.23.78c.27.61,2.51-4.91,5.69-13.87C371.28,206.19,370.63,203.21,371.31,157.64Z"/><path class="cls-34" d="M254.21,419.9c16.77,0,43.52-6.07,51.75-31.16-5.9-2.26-5.9-1.93-9.47-2.51-5.94,15.09-26.15,23-43.35,23s-40.72-7.87-46.66-23c-5.29,1.21-3.73.53-11.23,3.28A174.39,174.39,0,0,0,208,406C223,418.65,236.28,419.9,254.21,419.9Z"/></svg>