<svg id="Layer_1" data-name="Layer 1" xmlns="http://www.w3.org/2000/svg" xmlns:xlink="http://www.w3.org/1999/xlink" viewBox="0 0 504 504"><defs><style>.cls-1{fill:none;}.cls-2{fill:#894e26;}.cls-3{fill:#e4c4a4;}.cls-4{fill:#f1d1ac;}.cls-5{clip-path:url(#clip-path);}.cls-6{fill:#c09980;}.cls-7{fill:#fff;}.cls-8{fill:#755622;}.cls-9{fill:#132026;}.cls-10{fill:#bf9980;}.cls-11{fill:#d1d1d1;}.cls-12{fill:#ee3e5d;}.cls-13{fill:#8a4f25;stroke:#8a4f25;stroke-linecap:round;stroke-linejoin:round;stroke-width:2.23px;}.cls-14{fill:#bf706b;}.cls-15{fill:#994e49;}.cls-16{fill:#c8c8c8;}</style><clipPath id="clip-path"><rect class="cls-1" x="181.8" y="339.71" width="60.16" height="35.65"/></clipPath></defs><title>Final-Avatars</title><path class="cls-2" d="M101.21,257.77s10.57,115.41,91.11,149.39V364.59s-55.09-49.37-75.84-102C116.48,262.55,106.48,264,101.21,257.77Z"/><rect class="cls-2" x="241.96" y="326.69" width="75.25" height="89.49"/><path class="cls-3" d="M211.74,303.2v200H103.13l-2.66-1.14C100.48,394.8,167,386.76,167,386.76c6.64,0,10.91-8.53,13.7-21.49.46-2,.84-4,1.15-6.24.62-3.65,1.15-7.57,1.51-11.6.24-2.45.46-4.89.7-7.37,1-12.3,1.28-25.64,1.28-38.29,0,0,14.65,1.43,26.46,1.43"/><path class="cls-4" d="M323.4,502.09s-1,.4-2.6,1.14H211.74v-200H212c11.79,0,26.52-1.43,26.52-1.43,0,12.57.29,25.77,1.27,37.94.24,2.45.47,4.88.67,7.25.48,4.19.92,8.15,1.54,11.92v.07c.24,1.67.54,3.19.85,4.74,2.8,13.77,7.2,23.07,14.09,23.07,0,0,66.49,8,66.49,115.33"/><path class="cls-4" d="M211.95,73.82V360.22h.81c42,0,96.1-29.94,105.56-81.89a5.12,5.12,0,0,0,.15,2.37c1.74,4.19,9.61,8.54,15.14,3.58,4.88-4.43,1.69-12.73,1.9-12.88,8.1-5.5,16.22-13.89,17.14-24.87,1.91-23.59-21.41-28.16-29.31-13.19,5.07-63.15,4.49-159.52-110.59-159.52Zm112.14,204a3.45,3.45,0,0,1,3.45-3.37,3.36,3.36,0,1,1-3.45,3.37"/><g class="cls-5"><path class="cls-6" d="M242,358.87v.07a35.13,35.13,0,0,1-30.07,16.41h-.16c-17.27-.07-27.33-12.69-29.93-16.33.62-3.65,1.15-7.57,1.51-11.6.24-2.45.46-4.89.7-7.37a121.87,121.87,0,0,0,27.43,3.58h.28a110.87,110.87,0,0,0,28-3.93c.24,2.45.47,4.88.7,7.25.46,4.19.89,8.15,1.51,11.92"/></g><path class="cls-3" d="M212.06,73.78C97,73.78,96.39,170.18,101.47,233.33c-7.91-15-31.22-10.36-29.29,13.19.89,11,9,19.37,17.13,24.87.23.15-3,8.45,1.89,12.88,5.58,5,13.39.62,15.15-3.58a5.32,5.32,0,0,0,.15-2.37c9.46,51.94,63.61,81.89,105.56,81.89h.85V73.78ZM97.28,281.13a3.34,3.34,0,0,1,0-6.67,3.34,3.34,0,1,1,0,6.67"/><path class="cls-6" d="M79.51,236.56c5.69-9.08,14.44-5.16,16.61-3.19,2.28,2.21,4.1,5.08,2.69,10.48-.8,3-4,3.24-3.19,7.87.85,5.15,3.25,5.47,4.61,6.67s3,2.06,3.87,4.26a11.31,11.31,0,0,1,.5,6.49c-.87,3.72-6.29.78-9.92-.89-2.37-1.09-10-7.53-11.88-9.66-4.84-5.47-7.1-15.95-3.29-22"/><path class="cls-3" d="M211.05,100.93c-37.85,0-65.55,11-82.33,32.74-23.42,30.35-22.52,76.7-13.88,110,2.65,10.17,4,37.59,5.82,47.65,8.18,45,57.74,69,90.4,69,.27,0,.59,0,.89,0V101c-.31,0-.59,0-.89,0"/><path class="cls-4" d="M293.22,133.71c-16.66-21.56-44-32.54-81.27-32.74V360.22c37.27-.41,81.81-26.64,89.48-68.92,1.82-10.05,3.18-37.48,5.8-47.65,8.62-33.17,9.47-79.49-14-109.94"/><path class="cls-6" d="M345.15,236.56c-5.69-9.08-14.44-5.16-16.61-3.19-2.28,2.21-4.11,5.08-2.7,10.48.8,3,4,3.24,3.22,7.87-.85,5.15-3.23,5.47-4.63,6.67s-3,2.06-3.87,4.26a11.45,11.45,0,0,0-.5,6.49c.89,3.72,6.31.78,9.92-.89,2.4-1.09,10-7.53,11.89-9.66,4.84-5.47,7.09-15.95,3.28-22"/><path id="_Path_" data-name="&lt;Path&gt;" class="cls-7" d="M121.75,216.2s11.58,20.89,29.05,23.15,36-.43,36-.43-2.3-19.79-11.4-23.24S148.21,206.18,121.75,216.2Z"/><path id="_Path_2" data-name="&lt;Path&gt;" class="cls-8" d="M171.73,224.9c-.76,8.16-8.35,14.25-16.94,13.6s-14.94-7.76-14.17-15.9,8.35-14.27,17-13.62S172.5,216.74,171.73,224.9Z"/><path id="_Path_3" data-name="&lt;Path&gt;" class="cls-9" d="M155.76,232.11a7.13,7.13,0,0,1-6.09-7.72,7.49,7.49,0,0,1,7.45-6.7,7.12,7.12,0,0,1,6.09,7.72A7.48,7.48,0,0,1,155.76,232.11Z"/><path id="_Path_4" data-name="&lt;Path&gt;" class="cls-10" d="M186.84,238.86s-.39,0-1.28.18c-.75-7.4-2.86-17.62-8.54-19.76-8.46-3.27-27.39-8.11-51.47,2.56a46.44,46.44,0,0,1-3.79-5.7c26.18-13.6,47-8.33,56-4.87S186.84,238.86,186.84,238.86Z"/><path id="_Path_5" data-name="&lt;Path&gt;" class="cls-7" d="M304.31,218.74s-10.89,20.32-28.3,22.07-36.06-1.4-36.06-1.4,1.95-20,10.95-23.2S278,208.15,304.31,218.74Z"/><path id="_Path_6" data-name="&lt;Path&gt;" class="cls-8" d="M251.05,225.83c.93,8.42,8.95,14.81,17.9,14.28s15.48-7.81,14.56-16.21-8.95-14.83-17.91-14.3S250.1,217.41,251.05,225.83Z"/><path id="_Path_7" data-name="&lt;Path&gt;" class="cls-9" d="M267.85,233.49a7.12,7.12,0,0,0,6.24-7.87,8.06,8.06,0,0,0-7.88-7,7.13,7.13,0,0,0-6.24,7.87A8.07,8.07,0,0,0,267.85,233.49Z"/><path id="_Path_8" data-name="&lt;Path&gt;" class="cls-10" d="M239.93,239.34s.39.06,1.28.24c.5-7.31,2.28-17.34,7.91-19.28,8.36-3,27.13-7.28,51.56,3.93a42.67,42.67,0,0,0,3.62-5.53c-26.64-14.15-47.3-9.51-56.21-6.34S239.93,239.34,239.93,239.34Z"/><path id="_Path_9" data-name="&lt;Path&gt;" class="cls-6" d="M203.08,274.28c-.18-3.61,6.61-1.32,8.85-1.21,1.77.09,7.15-1.14,7.61-.82,3.16,2.14-3.35,6.45-7.72,6.45C210.65,278.7,203.19,276.46,203.08,274.28Z"/><circle class="cls-11" cx="327.89" cy="279.87" r="10.24"/><path class="cls-12" d="M302,472.51h19.28c0-2.17,0-4.29-.11-6.39a106.27,106.27,0,0,0-11.79-42.74c-1.73-3.32-3-5.21-3-5.21a79,79,0,0,0-16.76-17.77,15.66,15.66,0,0,0-1.49-1.24c-.83-.63-1.65-1.21-2.47-1.78-88.3,153.9-146.42,0-146.42,0-.91.63-1.8,1.23-2.72,1.93a7.9,7.9,0,0,0-1.52,1.2c-1.35,1.05-2.73,2.2-4.08,3.42a83.61,83.61,0,0,0-12.52,14.24s-12.38,27.76-14.72,48c-.26,2.24-1.42,4.71-1.39,6.71l20.5-.32c0,2.14,0,4.16-.06,6.14-.14,10.76-.49,19.13-.84,24.59H303c-.36-5.45-.75-13.83-.91-24.59C302,476.68,302,474.65,302,472.51Z"/><path class="cls-2" d="M144.06,115.58S234.91,69.25,268.52,162C268.52,162,282.09,20.32,144.06,115.58Z"/><path class="cls-2" d="M157.06,73.43s-14.15,38.15-7.64,49c0,0-43.75,20.5-47.95,110.92h0S57.46,107.45,157.06,73.43Z"/><g id="_Group_" data-name="&lt;Group&gt;"><path id="_Path_10" data-name="&lt;Path&gt;" class="cls-13" d="M289.12,192.73c-.38-.17-.8-.39-1.25-.62a28.34,28.34,0,0,0-4.57-2,62.61,62.61,0,0,0-9.41-2.74A75.87,75.87,0,0,0,262,186.16a72.78,72.78,0,0,0-12,1,57.46,57.46,0,0,0-9.68,2.6,34.55,34.55,0,0,0-8.17,4l-.05,0a1.47,1.47,0,0,0-.1,2.49c.51.42,1,2.31,1.87,2.38h0a4.45,4.45,0,0,0,2.3-.39h0a58.49,58.49,0,0,1,7.48-2.78,69.72,69.72,0,0,1,8.3-2,60.49,60.49,0,0,1,10-1.07,68.67,68.67,0,0,1,10.26.3l1.55.21,3.3.44c.95.11,1.85.31,2.72.5.51.11,1,.22,1.5.31,2.11.39,3.88.85,5.3,1.23l1,.27,7.1.06Z"/></g><g id="_Group_2" data-name="&lt;Group&gt;"><path id="_Path_11" data-name="&lt;Path&gt;" class="cls-13" d="M134.37,193c.38-.17.8-.39,1.25-.62a28.34,28.34,0,0,1,4.57-2,62.61,62.61,0,0,1,9.41-2.74,75.87,75.87,0,0,1,11.85-1.24,72.78,72.78,0,0,1,12,1,57.46,57.46,0,0,1,9.68,2.6,34.55,34.55,0,0,1,8.17,4l.05,0a1.47,1.47,0,0,1,.1,2.49c-.51.42-1,2.31-1.87,2.38h0a4.45,4.45,0,0,1-2.3-.39h0a58.49,58.49,0,0,0-7.48-2.78,69.72,69.72,0,0,0-8.3-2,60.49,60.49,0,0,0-10-1.07,68.67,68.67,0,0,0-10.26.3l-1.55.21-3.3.44c-.95.11-1.85.31-2.72.5-.51.11-1,.22-1.5.31-2.11.39-3.88.85-5.3,1.23l-1,.27-7.1.06Z"/></g><path class="cls-2" d="M144.06,126s110-80.6,121.59,36.56c0,0,16.88,74.86,70,68.41,0,0,32.53-74.66-30.25-152.6,0,0-44.39-56.29-109.34-36C196,42.42,132.15,64.76,144.06,126Z"/><path class="cls-2" d="M277.58,226.85c2.08,6.77,4.93,13,11.54,14.56A14.85,14.85,0,0,0,287.81,260a14.95,14.95,0,0,0-5,25.55,14.94,14.94,0,0,0,1.87,24.09,14.93,14.93,0,0,0-1.9,24.05A14.95,14.95,0,0,0,285,358,14.93,14.93,0,0,0,281,385.34a14.93,14.93,0,0,0,3.62,27.25,14.94,14.94,0,0,0,4.37,27.16,14.95,14.95,0,0,0,6.29,28.51,14.75,14.75,0,0,0,6.34-1.43,14.95,14.95,0,0,0,23.15,17.85,14.95,14.95,0,0,0,27.09,11.64,14.95,14.95,0,0,0,28-6.08A14.95,14.95,0,0,0,402,477.19a15.08,15.08,0,0,0-.47-3.64l.47,0a14.95,14.95,0,0,0,9.28-26.68,14.95,14.95,0,0,0,9.62-28,14.95,14.95,0,0,0-1.31-29.13,14.94,14.94,0,0,0-10.26-25.63,14.94,14.94,0,0,0-6.95-25.42,14.94,14.94,0,0,0-12.19-23.59l-.29,0a14.94,14.94,0,0,0-7-25.64,14.94,14.94,0,0,0-9.16-22,14.95,14.95,0,0,0-4.65-18.5,15,15,0,0,0-4.54-26.39,14.91,14.91,0,0,0-2.74-23.57,14.94,14.94,0,0,0-2.71-24.2,15,15,0,0,0-8.41-24.07,14.95,14.95,0,0,0-10.61-25.49H340a14.8,14.8,0,0,0,.15-2,15,15,0,0,0-15-15S267.34,193.68,277.58,226.85Z"/><path class="cls-14" d="M242,310.15s-13.63,10.07-30.42,10.07S182,310.36,182,310.36s12.75-.8,29.52-.8,30.48.59,30.48.59"/><path class="cls-15" d="M220.22,305.52c-4.74,0-8.51,2-8.63,4.55-.05-2.55-3.85-4.55-8.57-4.55s-21.81,4.63-21.81,4.63,16.64,1.2,21.37,1.2,9,1.32,9-1.16c.08,2.48,3.52,1.49,8.26,1.49S242,310.15,242,310.15s-17-4.63-21.79-4.63"/><polygon class="cls-16" points="92.65 268.47 78.96 278.05 80.41 294.7 95.55 301.77 109.25 292.19 107.79 275.54 92.65 268.47"/></svg>