<svg xmlns="http://www.w3.org/2000/svg" viewBox="0 0 504 504"><defs><style>.cls-1{isolation:isolate;}.cls-2{fill:#5293ce;}.cls-3{fill:#17100d;}.cls-4{mix-blend-mode:multiply;}.cls-5{fill:#b98058;}.cls-6{fill:#c58c66;}.cls-7{fill:#aa6b40;}.cls-8{fill:#c48c66;}.cls-9{fill:#81431d;}.cls-10{fill:#af6938;}.cls-11{fill:#fff;}.cls-12{fill:#332214;}.cls-13{fill:#132026;}.cls-14{fill:#684426;}.cls-15{fill:#96613c;}.cls-16{fill:#231f20;}.cls-17{fill:#c09980;}.cls-18{fill:#124b8c;}</style></defs><title>Final-Avatars</title><g class="cls-1"><g id="Layer_1" data-name="Layer 1"><rect class="cls-2" width="504" height="504"/><path class="cls-3" d="M367.9,123.18C345,51.54,280.76,25.37,252.46,42.25c-28.3-16.88-91,6.42-114,78.06C96.57,251.25,120.72,458,120.72,458l131.42-3.3L383.56,458S409.84,254.13,367.9,123.18Z"/><path class="cls-4" d="M331.87,253.58l-79.73-.2-79.73.2s-5.22,98.88,25.87,130c10.75,10.75,31.94,21.86,53.86,24.08,21.92-2.22,43.12-13.33,53.86-24.08C337.09,352.46,331.87,253.58,331.87,253.58Z"/><path class="cls-5" d="M252.56,281.14V504H131.71c-1.95-.93-3-1.28-3-1.28,0-33.14,5.69-57.86,13.9-76.12,13.56-30.17,34-43.08,47.21-48.53a52,52,0,0,1,12.88-3.82h.6a8.76,8.76,0,0,0,1.61-.34c6.09-1.78,10.24-10.7,13-23.62.52-2.28.95-4.49,1.28-7,.68-4.09,1.27-8.42,1.69-13q.39-3.94.76-8.16c1.11-13.76,1.44-28.63,1.44-42.63C223.16,279.53,239.44,281.14,252.56,281.14Z"/><path class="cls-6" d="M376.81,502.72a20.64,20.64,0,0,0-2.88,1.28H252.56V281.14h.26c13.14,0,29.5-1.61,29.5-1.61,0,14,.33,28.7,1.43,42.29.26,2.73.52,5.44.76,8.08.52,4.67,1,9.09,1.7,13.17v.18c.26,1.85.59,3.55.94,5.25,2.54,12.51,6.27,21.68,11.7,24.74a10.63,10.63,0,0,0,4,1s37.38,4.51,59,50C370.62,442.74,376.81,468.05,376.81,502.72Z"/><path class="cls-7" d="M286.2,343.15v.09a39.06,39.06,0,0,1-33.47,18.26h-.09c-19.32-.07-30.5-14.1-33.39-18.18.68-4.08,1.26-8.41,1.69-12.91.24-2.72.52-5.45.76-8.25a131.35,131.35,0,0,0,30.5,4h.34a124.64,124.64,0,0,0,31.19-4.33l.76,8.06C285,334.57,285.52,339,286.2,343.15Z"/><path class="cls-5" d="M252.46,67.78C126.33,67.56,125.6,160.41,131.21,221c-8.66-14.2-24.69-5.41-22.59,17.33,2,21.79,28.62,28.14,28.12,25.74,10.31,49.32,69.77,76.72,115.72,80.62.32,0,.67,0,1,0V67.79Z"/><path class="cls-8" d="M253.09,67.78C379.23,67.56,380,160.41,374.35,221c8.66-14.2,23.11-9.61,21,13.14-2,21.79-27,32.34-26.54,29.94-10.32,49.32-69.76,76.72-115.73,80.62-.32,0-.66,0-1,0V67.79Z"/><path class="cls-5" d="M251.8,70.38c-42.14,0-73,11.65-91.62,34.64-26.06,32.09-25.06,81.12-15.45,116.33,2.94,10.76,4.45,39.76,6.48,50.41,9.1,47.58,64.27,72.94,100.6,72.94l1,0V70.41Z"/><path class="cls-6" d="M343.23,105.06c-18.52-22.84-49-34.47-90.45-34.66V344.68c41.48-.44,91.08-28.22,99.6-72.92,2-10.65,3.52-39.65,6.47-50.41C368.44,186.24,369.38,137.27,343.23,105.06Z"/><path class="cls-9" d="M287.07,304.79S271.6,317.2,252.49,317.2s-33.7-12.14-33.7-12.14a293.13,293.13,0,0,1,33.7-1.88C271.6,303.18,287.07,304.79,287.07,304.79Z"/><path class="cls-10" d="M262.3,299.06c-5.39,0-9.7,2.52-9.81,5.63-.11-3.11-4.42-5.63-9.78-5.63s-24.81,5.73-24.81,5.73,18.9,1.5,24.33,1.5,10.15,1.58,10.26-1.42c.08,3,4,1.86,9.34,1.86s25.23-1.94,25.23-1.94S267.71,299.06,262.3,299.06Z"/><path id="_Path_" data-name="&lt;Path&gt;" class="cls-11" d="M181.81,219.42s9.57,17.67,24.06,19.55,29.87-.42,29.87-.42-1.42-18.09-9-21S203.15,211.86,181.81,219.42Z"/><path id="_Path_2" data-name="&lt;Path&gt;" class="cls-12" d="M223.25,226.71a13,13,0,0,1-14.07,11.54,12.44,12.44,0,0,1-11.73-13.44,13.05,13.05,0,0,1,14.08-11.56A12.45,12.45,0,0,1,223.25,226.71Z"/><path id="_Path_3" data-name="&lt;Path&gt;" class="cls-13" d="M210,232.83a6,6,0,0,1-5-6.53,6.28,6.28,0,0,1,6.18-5.69,6,6,0,0,1,5,6.53A6.28,6.28,0,0,1,210,232.83Z"/><path id="_Path_4" data-name="&lt;Path&gt;" class="cls-14" d="M235.76,238.5s-.32,0-1.06.16c-.61-6.26-2.35-14.91-7.06-16.71-8.54-3.36-24-6.24-42.69,2.24a39.22,39.22,0,0,1-3.14-4.82c21.73-11.55,39-7.12,46.47-4.2S235.76,238.5,235.76,238.5Z"/><path id="_Path_5" data-name="&lt;Path&gt;" class="cls-11" d="M323.25,221.55s-9.06,17.22-23.5,18.73-29.9-1.13-29.9-1.13.44-17.1,7.9-19.79S301.41,213.33,323.25,221.55Z"/><path id="_Path_6" data-name="&lt;Path&gt;" class="cls-12" d="M279.08,227.62c.76,7.13,7.4,12.52,14.82,12.06s12.85-6.63,12.1-13.74-7.4-12.54-14.83-12.08S278.3,220.49,279.08,227.62Z"/><path id="_Path_7" data-name="&lt;Path&gt;" class="cls-13" d="M293,234.08a6,6,0,0,0,5.19-6.67,6.71,6.71,0,0,0-6.53-5.93,6,6,0,0,0-5.19,6.67A6.71,6.71,0,0,0,293,234.08Z"/><path id="_Path_8" data-name="&lt;Path&gt;" class="cls-15" d="M269.84,239.07s.33.05,1.06.2c.43-6.19,1.92-14.68,6.59-16.34,6.94-2.56,22.51-6.2,42.76,3.25a36.39,36.39,0,0,0,3-4.69c-22.07-11.94-39.21-8-46.61-5.29S269.84,239.07,269.84,239.07Z"/><path id="_Path_9" data-name="&lt;Path&gt;" class="cls-15" d="M241.3,275.43c-.23-4.65,8.52-1.7,11.41-1.55,2.28.12,9.21-1.47,9.81-1.06,4.08,2.76-4.32,8.32-10,8.32C251.06,281.14,241.43,278.24,241.3,275.43Z"/><g id="_Group_" data-name="&lt;Group&gt;"><path id="_Path_10" data-name="&lt;Path&gt;" class="cls-16" d="M330.1,196.23c-.37-.26-.78-.58-1.23-.93a24.28,24.28,0,0,0-4.47-3,46.65,46.65,0,0,0-9.21-4.08,49.77,49.77,0,0,0-11.6-1.85,47.43,47.43,0,0,0-11.72,1.5,42,42,0,0,0-9.48,3.89,32.12,32.12,0,0,0-8,6l-.05.05a2.9,2.9,0,0,0-.09,3.72c.5.63,1,3.45,1.83,3.55h0a3.08,3.08,0,0,0,2.25-.58l0,0a47.48,47.48,0,0,1,7.32-4.15,50,50,0,0,1,8.12-3,39.74,39.74,0,0,1,9.82-1.59,44.19,44.19,0,0,1,10,.45l1.52.31,3.23.65a19.15,19.15,0,0,1,2.67.75c.5.17,1,.33,1.47.46a48.24,48.24,0,0,1,5.19,1.83l1,.41,7,.1Z"/></g><g id="_Group_2" data-name="&lt;Group&gt;"><path id="_Path_11" data-name="&lt;Path&gt;" class="cls-16" d="M181.8,194.72c.37-.26.78-.58,1.23-.93a24.28,24.28,0,0,1,4.47-3,46.65,46.65,0,0,1,9.21-4.08,49.77,49.77,0,0,1,11.6-1.85,47.43,47.43,0,0,1,11.72,1.5,42,42,0,0,1,9.48,3.89,32.12,32.12,0,0,1,8,6l.05.05a2.9,2.9,0,0,1,.09,3.72c-.5.63-1,3.45-1.83,3.55h0a3.08,3.08,0,0,1-2.25-.58l0,0a47.48,47.48,0,0,0-7.32-4.15,50,50,0,0,0-8.12-3,39.74,39.74,0,0,0-9.82-1.59,44.19,44.19,0,0,0-10,.45l-1.52.31-3.23.65a19.15,19.15,0,0,0-2.67.75c-.5.17-1,.33-1.47.46a48.24,48.24,0,0,0-5.19,1.83l-1,.41-7,.1Z"/></g><path class="cls-17" d="M113.8,225.25c6.18-9.83,8.6-7.94,10.95-5.76,2.49,2.34,4.46,5.46,2.9,11.3-.83,3.27-4.3,3.54-3.45,8.54.93,5.59,3.51,6,5,7.24s3.3,2.22,4.22,4.62a12.67,12.67,0,0,1,.56,7c-1,4,.2,3.2-3.71,1.39-2.59-1.18-10.82-8.15-12.9-10.48-5.23-5.91-7.66-17.27-3.56-23.87"/><path class="cls-17" d="M389.22,223.43c-6.18-9.83-7.07-6.12-9.43-3.93-2.45,2.34-4.42,5.46-2.91,11.3.88,3.27,4.33,3.54,3.49,8.54-.93,5.59-3.5,6-5,7.24s-3.27,2.22-4.2,4.62,1.21,4.74,1.72,6.88c.93,4-6.35,1.66-2.39-.14,2.59-1.18,13.06-8.3,15.14-10.62,5.24-5.91,8.22-15.59,4.13-22.19"/><path class="cls-3" d="M365,261.17c-4.75-57.3-77.69-99.37-169.65-112.34-28.82,15.23-51,93.89-53.28,146.22-18.88-35.78-15.81-124.64-6.87-154.56,6.22-20.83,11.18-30.77,24-43.64,27.81-27.93,65-33,92.09-33,24.79,0,59.89,4.61,87.62,26.37,16.13,12.66,25.09,28.58,32.21,51.68C380.19,171.28,384.33,219.24,365,261.17Z"/><path class="cls-18" d="M377.37,503.83a3.06,3.06,0,0,0-2.9.17H131.24l-2.94-1.31c0-77,30-106.67,51.93-119.73-4.61,25,33.68,34.59,72.41,34.11,37.93-.44,75-11,72.25-34.68,21.88,13,52.49,43.15,52.49,120.3"/></g></g></svg>