<svg id="Layer_1" data-name="Layer 1" xmlns="http://www.w3.org/2000/svg" xmlns:xlink="http://www.w3.org/1999/xlink" viewBox="0 0 504 504"><defs><style>.cls-1{fill:none;}.cls-2{fill:#f4d65b;}.cls-3{fill:#d48929;}.cls-4{fill:#e4c5a8;}.cls-5{fill:#f1d1ac;}.cls-6,.cls-8,.cls-9{fill:#c09980;}.cls-6{opacity:0.7;}.cls-7{clip-path:url(#clip-path);}.cls-9{opacity:0.6;}.cls-10{fill:#c6696f;}.cls-11{fill:#d87374;}.cls-12{fill:#fff;}.cls-13{fill:#0398c3;}.cls-14{fill:#132026;}.cls-15{fill:#75634f;}.cls-16{fill:#32ae98;}</style><clipPath id="clip-path"><rect class="cls-1" x="199.23" y="349.33" width="63.87" height="34.13"/></clipPath></defs><title>Final-Avatars</title><rect class="cls-2" width="504" height="504"/><path class="cls-3" d="M297.61,87.57c20.44-11.55,52.78-3.25,65.84,17,12.68,19.6-.44,42.74,14.43,63.62,12.79,18,30.46,41.75,23.44,65.44-5.46,18.39-23.43,57.25-47.13,50.13-6.31-1.9-12.87-11.21-17.55-15.36-9.84-8.69-22.11-17.4-30-27.74-10.8-14.13-17.79-38.56-12.17-55.18,7.45-22,20.59-29.47,9.89-50.77-7.07-14.07-12.85-28.7-7.27-43.77"/><path class="cls-4" d="M234.36,301.65v200h-112c-1.76-.84-2.67-1.15-2.67-1.15,0-29.73,5.12-51.91,12.51-68.3,12.2-27.06,30.57-38.65,42.47-43.54a46.65,46.65,0,0,1,11.58-3.44h.53a7.69,7.69,0,0,0,1.45-.3c5.48-1.6,9.22-9.6,11.74-21.19.46-2.05.84-4,1.15-6.24.6-3.67,1.14-7.56,1.51-11.66.24-2.36.46-4.8.7-7.33,1-12.35,1.3-25.69,1.3-38.26C204.57,300.21,222.55,301.65,234.36,301.65Z"/><path class="cls-5" d="M342.78,500.47a18.09,18.09,0,0,0-2.59,1.15H231v-200h.23c11.81,0,26.53-1.44,26.53-1.44,0,12.57.29,25.76,1.29,38l.68,7.24c.47,4.2.93,8.16,1.53,11.82v.16c.23,1.66.54,3.19.85,4.72,2.28,11.22,5.63,19.44,10.52,22.19a6.76,6.76,0,0,0,1.15.46,6.58,6.58,0,0,0,2.43.45s33.61,4,53.05,44.84C337.22,446.66,342.78,469.36,342.78,500.47Z"/><path class="cls-6" d="M261.28,346.29v.08a35.16,35.16,0,0,1-30.12,16.39H231c-17.3-.06-27.37-12.66-30-16.32.6-3.66,1.14-7.55,1.51-11.58.23-2.44.46-4.89.7-7.4A119.3,119.3,0,0,0,230.71,331H231a113.5,113.5,0,0,0,28.05-3.88l.68,7.23C260.23,338.6,260.66,342.55,261.28,346.29Z"/><g class="cls-7"><path class="cls-8" d="M263.1,367.68v.07c-2.84,4.09-12.62,15.71-31.93,15.71H231c-18.34-.07-29-12.15-31.77-15.63.66-3.49,1.22-7.25,1.61-11.11.26-2.34.49-4.69.74-7.06a142.71,142.71,0,0,0,29.12,3.42h.3a129.71,129.71,0,0,0,29.75-3.76c.26,2.34.5,4.68.74,6.94.48,4,.95,7.81,1.61,11.41"/></g><path class="cls-4" d="M230.93,94.73c-113.46-.21-114.12,91-109.07,150.43-7.8-14-22.49-9.35-20.61,13,1.81,21.39,26,31.66,25.58,29.32,9.28,48.43,62.77,75.34,104.09,79.17.29,0,.6,0,.88,0V94.76Z"/><path class="cls-8" d="M105.74,250.22c3.09-6.62,8.37-3.42,9.71-1.86s2.56,3.92,1.89,7.9c-.39,2.24-2.25,2.31-1.66,5.77.65,3.9,2.08,4.22,2.91,5.14a8.56,8.56,0,0,1,2.41,3.3,10.86,10.86,0,0,1,.48,4.87c-.41,2.76-3.68.38-5.87-1-1.43-.89-6.1-5.92-7.29-7.62C105.31,262.55,103.69,254.63,105.74,250.22Z"/><path class="cls-5" d="M231.5,94.73c113.46-.21,114.12,91,109.07,150.43,7.79-14,21.07-9.1,19.19,13.24-1.81,21.39-24.6,31.41-24.15,29.07-9.29,48.43-62.76,75.34-104.1,79.17-.29,0-.6,0-.86,0V94.76Z"/><path class="cls-9" d="M353.13,250c-3.58-7.39-8.44-4.65-9.59-3.16s-2.13,3.83-1.13,8.13c.57,2.41,2.4,2.72,2.13,6.31-.29,4-1.64,4.21-2.37,5.08a6.69,6.69,0,0,0-2.06,3.2,12.24,12.24,0,0,0,0,5.09c.65,3,3.62.86,5.63-.29,1.33-.77,5.41-5.51,6.42-7.16C354.66,263.08,355.53,254.9,353.13,250Z"/><path class="cls-4" d="M230.34,101.55c-37.9,0-65.62,10.45-82.42,31.07C124.48,161.41,125.38,205.42,134,237c2.64,9.67,4,35.67,5.82,45.23,8.18,42.7,57.8,65.46,90.49,65.46.28,0,.59,0,.88,0V101.57Z"/><path class="cls-5" d="M312.58,132.67c-16.66-20.49-44.08-30.94-81.37-31.1V347.66c37.32-.38,81.92-25.31,89.6-65.42,1.81-9.56,3.16-35.57,5.82-45.23C335.25,205.51,336.1,161.56,312.58,132.67Z"/><path class="cls-10" d="M256.69,314.42S245,328.61,230.63,328.61s-25.38-13.88-25.38-13.88a146.67,146.67,0,0,1,25.38-2.15A186,186,0,0,1,256.69,314.42Z"/><path class="cls-11" d="M238,307.88c-4.07,0-7.32,2.88-7.4,6.43-.07-3.55-3.32-6.43-7.35-6.43s-18.69,6.54-18.69,6.54,14.24,1.71,18.33,1.71,7.64,1.83,7.72-1.61c.06,3.45,3,2.12,7,2.12s19-2.22,19-2.22S242.11,307.88,238,307.88Z"/><path id="_Path_" data-name="&lt;Path&gt;" class="cls-8" d="M219.31,270.38c-.23-3.22,8.66-1.18,11.59-1.08,2.32.08,9.36-1,10-.73,4.15,1.91-4.39,5.76-10.12,5.76C229.23,274.33,219.45,272.32,219.31,270.38Z"/><path id="_Path_2" data-name="&lt;Path&gt;" class="cls-12" d="M152.48,213.07s9.35,18.58,23.64,20.49,29.5-.61,29.5-.61-.75-18.23-8.18-21.25S175.26,206.36,152.48,213.07Z"/><path id="_Path_3" data-name="&lt;Path&gt;" class="cls-13" d="M193.35,220.52a13.31,13.31,0,0,1-14,12.25,12.69,12.69,0,0,1-11.51-14.11,13.32,13.32,0,0,1,14-12.27A12.71,12.71,0,0,1,193.35,220.52Z"/><path id="_Path_4" data-name="&lt;Path&gt;" class="cls-14" d="M180.23,227.06c-2.61-.19-5.27-3.16-4.94-6.86s3.53-6.22,6.14-6,5.28,3.16,4.94,6.86S182.85,227.25,180.23,227.06Z"/><path id="_Path_5" data-name="&lt;Path&gt;" class="cls-8" d="M205.64,232.9s-.32,0-1,.17c-.56-6.6-2.23-15.71-6.87-17.58-6.91-2.87-22.38-7.07-42.16,2.6a41.25,41.25,0,0,1-3.07-5.06c21.52-12.3,38.54-7.73,45.91-4.69S205.64,232.9,205.64,232.9Z"/><path id="_Path_6" data-name="&lt;Path&gt;" class="cls-12" d="M308.8,215.58s-9,18.21-23.31,19.88-29.51-1-29.51-1,1.72-17.37,9.11-20.26S286.9,206.36,308.8,215.58Z"/><path id="_Path_7" data-name="&lt;Path&gt;" class="cls-13" d="M265.15,222.23a13.85,13.85,0,0,0,14.57,12.63,13.15,13.15,0,0,0,12-14.56,13.85,13.85,0,0,0-14.58-12.65A13.15,13.15,0,0,0,265.15,222.23Z"/><path id="_Path_8" data-name="&lt;Path&gt;" class="cls-14" d="M278.86,229c2.73-.2,5.51-3.24,5.16-7.06s-3.69-6.42-6.41-6.22-5.51,3.26-5.16,7.06S276.13,229.16,278.86,229Z"/><path id="_Path_9" data-name="&lt;Path&gt;" class="cls-8" d="M256,234.36s.32.05,1,.2c.46-6.53,2-15.49,6.59-17.26,6.86-2.73,22.26-6.67,42.2,3.19a39.43,39.43,0,0,0,3-5c-21.72-12.47-38.67-8.2-46-5.32S256,234.36,256,234.36Z"/><g id="_Group_" data-name="&lt;Group&gt;"><path id="_Path_10" data-name="&lt;Path&gt;" class="cls-15" d="M200.21,196.5a31.25,31.25,0,0,0-7.42-6.27,45.27,45.27,0,0,0-9.23-4.55A55.84,55.84,0,0,0,171.67,183a60.37,60.37,0,0,0-12.22.27,54.28,54.28,0,0,0-9.94,2.5,27.41,27.41,0,0,0-5.08,2.11c-.51.26-1,.49-1.44.7l-6.33,3.29,7.3-1.42,1.1-.24c1.51-.33,3.39-.74,5.59-1,.52-.06,1-.15,1.58-.24a23,23,0,0,1,2.86-.35l3.43-.2,1.53-.09a53.06,53.06,0,0,1,10.49.79,46.22,46.22,0,0,1,9.85,2.56,55.13,55.13,0,0,1,8,3.67,48.9,48.9,0,0,1,7,4.53h0a3.54,3.54,0,0,0,2.25.77,3.62,3.62,0,0,0,1.73-.43,2.37,2.37,0,0,0,.95-3.62Z"/><path id="_Path_11" data-name="&lt;Path&gt;" class="cls-15" d="M318.22,189.22c-.42-.18-.88-.42-1.39-.68a27.18,27.18,0,0,0-5-2.09,54.67,54.67,0,0,0-10-2.53,60.18,60.18,0,0,0-12.2-.27,55.88,55.88,0,0,0-11.87,2.71,45.89,45.89,0,0,0-9.23,4.55,31.28,31.28,0,0,0-7.41,6.26l0,.05a2.32,2.32,0,0,0,.41,3.3,3.5,3.5,0,0,0,2.25.78h0a3.49,3.49,0,0,0,2.24-.78l0,0a49.15,49.15,0,0,1,7-4.53,55.22,55.22,0,0,1,7.95-3.65,46.5,46.5,0,0,1,9.9-2.57,53.28,53.28,0,0,1,10.4-.78l1.61.1,3.42.2a23,23,0,0,1,2.85.35c.53.09,1.06.17,1.57.24,2.2.27,4.08.68,5.59,1l1.11.24,7.29,1.42Z"/></g><path class="cls-3" d="M170.08,66.8s-98.74,31.67-56,150.72c0,0,6.41-95.89,70.3-96.6Z"/><path class="cls-3" d="M171.2,97.54S190,155,278.82,185.2c0,0,43.5,8.39,52.58,36.33,0,0,27.11-87-.8-131.18,0,0-67.25-96.22-159.4-27.54C171.2,62.8,154.3,69.34,171.2,97.54Z"/><path class="cls-16" d="M113.95,504c0-83,41.38-107.5,61.06-114.47,12.82,13.38,38.19,31.84,57.79,32.75h.55c.08,0,.25.09.42,0,19.68-.91,45.06-19.43,57.88-32.83,19.58,6.89,61.21,31.29,61.21,114.56"/><path class="cls-3" d="M123.45,174.37S107.32,354.9,173.82,408.72c0,0-78.34-31.82-55.79-234.35Z"/><path class="cls-3" d="M334.76,174.37S350.89,354.9,284.4,408.72c0,0,78.34-31.82,55.79-234.35Z"/></svg>