<svg id="Layer_1" data-name="Layer 1" xmlns="http://www.w3.org/2000/svg" xmlns:xlink="http://www.w3.org/1999/xlink" viewBox="0 0 504 504"><defs><style>.cls-1{fill:none;}.cls-2{fill:#fc8d62;}.cls-3{fill:#5d1d12;}.cls-4{fill:#5d1e13;}.cls-5{fill:#ae7852;}.cls-6{fill:#bd835c;}.cls-7{fill:#4c2c15;}.cls-8{clip-path:url(#clip-path);}.cls-9{fill:#7b4d2a;}.cls-10{fill:#a11d21;}.cls-11{fill:#c02026;}.cls-12{fill:#fff;}.cls-13{fill:#1d130d;}.cls-14{fill:#132026;}.cls-15{fill:#0c0d0d;}.cls-16,.cls-18{fill:#231f20;}.cls-16{stroke:#231f20;stroke-linecap:round;stroke-linejoin:round;stroke-width:2.23px;}.cls-17{fill:#651f0e;}</style><clipPath id="clip-path"><polyline class="cls-1" points="222.18 371.05 283.52 371.05 283.52 334.37 222.18 334.37"/></clipPath></defs><title>Final-Avatars</title><rect class="cls-2" width="504" height="504"/><rect class="cls-3" x="166.66" y="308.66" width="178.34" height="108.48"/><path class="cls-4" d="M304.57,301.23s84.06,44.61,33,96.18c-28,30.37-30.42,46.18-14.61,51.38-19,1.4-59.7-51.16-27.26-68.69,29.68-16.06,31.22-46.24-1.23-65.5C280.83,306.52,304.57,301.23,304.57,301.23Z"/><path class="cls-5" d="M252.84,297.92V504H141.07c-1.81-.8-2.73-1.16-2.73-1.16,0-69.87,25.83-101.72,47.41-110.72,13.95-5.82,21-7.89,21-7.89,7.59-.8,11.15-9,14.07-22.36.46-2,.85-4.2,1.16-6.47.63-3.76,1.19-7.75,1.59-11.91.23-2.52.47-5,.68-7.64,1-12.66,1.35-26.41,1.35-39.44,0,0,15,1.52,27.2,1.52"/><path class="cls-6" d="M366.94,501.94s-1,.36-2.66,1.16H252V297h.23c12.14,0,27.27-1.52,27.27-1.52,0,13,.32,26.58,1.34,39.13.22,2.52.46,5,.69,7.48.48,4.32.93,8.39,1.56,12.27v.08c.23,1.72.55,3.27.87,4.88,2.92,14.19,16.13,26.35,23.18,26.35,0,0,.51-1.46,12.18,5.46,20.13,11.75,47.55,40.77,47.55,110.79"/><path class="cls-5" d="M253.06,73.36c-116.66-.24-117.32,93.72-112.15,155-8-14.38-31.66-9-29.7,14C113.08,264.41,146.5,274.4,146,272c9.54,49.93,64.53,77.66,107,81.62h.89V73.36h-.89"/><path class="cls-7" d="M117.07,232.63c5.86-8.9,14.87-5.07,17.11-3.12,2.36,2.16,4.19,5,2.75,10.23-.82,3-4.09,3.19-3.29,7.68.86,5.07,3.32,5.4,4.73,6.56s3.12,2,4,4.15a11,11,0,0,1,.51,6.36c-.9,3.63-6.48.73-10.19-.88-2.47-1-10.29-7.32-12.27-9.47-5-5.32-7.27-15.59-3.36-21.51"/><g class="cls-8"><path class="cls-9" d="M283.15,354.15l0,.52c-2.74,4.39-11.77,16.38-30.34,16.38h-.15c-17.61-.08-27.88-12.37-30.51-16.17.61-3.75,1.16-8.45,1.56-12.61.24-2.48.46-5,.72-7.64a118.54,118.54,0,0,0,27.93,3.73h.31a114.41,114.41,0,0,0,28.57-4c.24,2.51.47,5,.68,7.43.47,4.36.58,8.51,1.21,12.35"/></g><path class="cls-6" d="M253.64,73.36c116.65-.24,117.33,93.72,112.13,155,8-14.38,31.67-9,29.73,14-1.86,22.07-35.29,32.06-34.83,29.62-9.53,49.93-64.51,77.66-107,81.62h-.9V73.36h.9"/><path class="cls-7" d="M390.47,232.63c-5.87-8.9-14.88-5.07-17.11-3.12-2.34,2.16-4.2,5-2.76,10.23.83,3,4.1,3.19,3.3,7.68-.88,5.07-3.35,5.4-4.74,6.56s-3.11,2-4,4.15a10.65,10.65,0,0,0-.53,6.36c.88,3.63,6.46.73,10.21-.88,2.46-1,10.25-7.32,12.25-9.47,5-5.32,7.27-15.59,3.37-21.51"/><path class="cls-5" d="M252.44,99.93c-39,0-67.43,10.78-84.75,32-24.07,29.69-23.15,75.06-14.28,107.6,2.71,9.95,4.11,36.77,6,46.59,8.41,44.05,59.43,67.47,93,67.47.29,0,.62,0,.89,0V100c-.31,0-.6,0-.89,0"/><path class="cls-10" d="M278.2,296s-11.23,12-25,12-24.41-11.77-24.41-11.77a158.74,158.74,0,0,1,24.41-1.83,199.67,199.67,0,0,1,25,1.59"/><path class="cls-11" d="M260.26,290.44c-3.91,0-7,2.45-7.11,5.46-.09-3-3.22-5.46-7.09-5.46s-18,5.57-18,5.57,13.7,1.42,17.64,1.42,7.33,1.59,7.43-1.37c0,3,2.89,1.83,6.74,1.83S278.2,296,278.2,296s-14-5.57-17.94-5.57"/><path id="_Path_" data-name="&lt;Path&gt;" class="cls-12" d="M181.58,213.1s8.2,14.62,20.56,16.21A108.42,108.42,0,0,0,227.6,229s-.45-14.14-6.89-16.56S199.72,206.86,181.58,213.1Z"/><path id="_Path_2" data-name="&lt;Path&gt;" class="cls-13" d="M216.92,219.22c-.54,5.7-5.9,10-12,9.5s-10.57-5.44-10-11.13,5.9-10,12-9.52S217.47,213.51,216.92,219.22Z"/><path id="_Path_3" data-name="&lt;Path&gt;" class="cls-14" d="M205.64,224.25a5,5,0,0,1-4.31-5.4,5.27,5.27,0,0,1,5.26-4.68,5,5,0,0,1,4.31,5.4A5.26,5.26,0,0,1,205.64,224.25Z"/><path id="_Path_4" data-name="&lt;Path&gt;" class="cls-15" d="M227.62,229s-.28,0-.9.13c-.53-5.17-2-12.32-6.05-13.82-6-2.29-19.37-5.69-36.39,1.75a32.52,32.52,0,0,1-2.68-4c18.5-9.49,33.23-5.8,39.61-3.37S227.62,229,227.62,229Z"/><path id="_Path_5" data-name="&lt;Path&gt;" class="cls-12" d="M325.45,213.42s-7.68,14.2-20,15.42-25.49-1-25.49-1,1.36-14,7.72-16.18S306.35,207,325.45,213.42Z"/><path id="_Path_6" data-name="&lt;Path&gt;" class="cls-13" d="M287.8,218.34c.66,5.89,6.34,10.36,12.66,10s10.94-5.45,10.28-11.32-6.34-10.38-12.67-10S287.13,212.45,287.8,218.34Z"/><path id="_Path_7" data-name="&lt;Path&gt;" class="cls-14" d="M299.68,223.71a5,5,0,0,0,4.41-5.5,5.69,5.69,0,0,0-5.58-4.91,5,5,0,0,0-4.41,5.5A5.7,5.7,0,0,0,299.68,223.71Z"/><path id="_Path_8" data-name="&lt;Path&gt;" class="cls-15" d="M279.95,227.78l.9.17c.35-5.11,1.6-12.12,5.58-13.48,5.91-2.1,19.18-5.07,36.46,2.78a29.72,29.72,0,0,0,2.56-3.87c-18.84-9.91-33.45-6.68-39.75-4.47S279.95,227.78,279.95,227.78Z"/><g id="_Group_" data-name="&lt;Group&gt;"><path id="_Path_9" data-name="&lt;Path&gt;" class="cls-16" d="M335.23,192.56c-.4-.18-.84-.41-1.32-.65a29.77,29.77,0,0,0-4.8-2.08,65.77,65.77,0,0,0-9.89-2.87,79.7,79.7,0,0,0-12.45-1.3,76.46,76.46,0,0,0-12.58,1.06A60.36,60.36,0,0,0,284,189.45a36.29,36.29,0,0,0-8.58,4.24l-.05,0a1.54,1.54,0,0,0-.1,2.62c.53.45,1.09,2.42,2,2.5h0a4.68,4.68,0,0,0,2.42-.41h0a61.44,61.44,0,0,1,7.85-2.92,73.24,73.24,0,0,1,8.71-2.14,63.54,63.54,0,0,1,10.55-1.12,72.14,72.14,0,0,1,10.77.32l1.63.22,3.47.46c1,.12,1.94.32,2.86.52.53.12,1.06.23,1.57.33,2.21.41,4.07.9,5.57,1.29l1.1.29,7.46.07Z"/></g><g id="_Group_2" data-name="&lt;Group&gt;"><path id="_Path_10" data-name="&lt;Path&gt;" class="cls-16" d="M172.67,192.84c.4-.18.84-.41,1.32-.65a29.77,29.77,0,0,1,4.8-2.08,65.77,65.77,0,0,1,9.89-2.87,79.7,79.7,0,0,1,12.45-1.3A76.46,76.46,0,0,1,213.71,187a60.36,60.36,0,0,1,10.17,2.73,36.29,36.29,0,0,1,8.58,4.24l.05,0a1.54,1.54,0,0,1,.1,2.62c-.53.45-1.09,2.42-2,2.5h0a4.68,4.68,0,0,1-2.42-.41h0a61.44,61.44,0,0,0-7.85-2.92,73.24,73.24,0,0,0-8.71-2.14,63.54,63.54,0,0,0-10.55-1.12,72.14,72.14,0,0,0-10.77.32l-1.63.22-3.47.46c-1,.12-1.94.32-2.86.52-.53.12-1.06.23-1.57.33-2.21.41-4.07.9-5.57,1.29l-1.1.29-7.46.07Z"/></g><path id="_Path_11" data-name="&lt;Path&gt;" class="cls-9" d="M239.06,266.81c-.28-3.87,10.4-1.41,13.92-1.29,2.78.1,11.24-1.22,12-.88,5,2.29-5.27,6.91-12.14,6.91C251,271.55,239.22,269.14,239.06,266.81Z"/><path d="M345,503.74H162.42c.48-7,1.2-17.26,1.94-22.84,3.26-26.65,22.89-31.67,21.68-89,0-.92-.09-.48.4-1l10.48-4,5.19-1.9,4.17-1.4.08.79c.22,7.68,1.51,57.5,2.84,71.18.91,9.79,22.59,18.09,42.85,18.81,20.24-.73,45.18-9,46.13-18.81,1.29-13.76,2.59-64.06,2.73-71.22a5.47,5.47,0,0,1,.22-1l2.54.59,3.23,1,13.44,4.55c.25.63.57,1.35.82,2,.61,60.84,18.48,62.6,21.94,89.4.68,5.58,1.42,15.84,1.9,22.84"/><path class="cls-17" d="M181.36,140.12s24.9,31.26,55.16,45.24c-8.45-15.9-27.45-33.06-33.78-45.15C226,159.29,278,186.63,278,186.63c-31.33-32.71-19.71-57.55-19.71-57.55s98.94,41.53,94.06,108.32c-3.72,50.76-50.14,71.29-40.31,109.69,11.51,45,32.22,40.76,20,91.44,55.63-61.17,71.43-158.71,67-207.48C394.78,183.28,403.78,37,258.79,37S116.58,162.07,105.88,218.36c-9.85,51.84,27.21,67.47,29.06,99.48,1,17.77-10.32,63.35-21.59,67.17,14.79-1.9,33.79-20.35,39.43-35.61,2.81,12.73-25.59,99.41,6.14,67.77,58.05-20.88,35.39-60.76,32.56-79.84,16.2,27.33,14.61,19.87,14.61,27.51-.56-50.19-39.63-65.11-52.29-107.7S154.47,174.34,181.36,140.12Z"/><path class="cls-18" d="M220.3,371.74l-3.76,7c3.68,2.51,17.18,7.82,40.07,7.93s35.81-5.76,38.67-7.63c0,0-1.56-1.54-3-3.22-1.21-1.44-2.3-3.05-2.32-3a119.35,119.35,0,0,1-33.23,4.9C239,377.7,223.43,373.1,220.3,371.74Z"/><path class="cls-17" d="M184.35,312.55s73.63,60.3,13.36,100.79c-33.47,24.26-38.93,39.28-24.45,47.5-18.87-2.36-48.45-61.92-13.19-72.72,32.26-9.9,39.72-39.19,11.7-64.46C160,313.06,184.35,312.55,184.35,312.55Z"/></svg>