<svg id="Layer_1" data-name="Layer 1" xmlns="http://www.w3.org/2000/svg" viewBox="0 0 504 504"><defs><style>.cls-1,.cls-20{fill:#332214;}.cls-2{fill:#663922;}.cls-3{fill:#704029;}.cls-4{fill:#563b20;}.cls-15,.cls-16,.cls-18,.cls-19,.cls-5{fill:none;}.cls-6{fill:#bf706b;}.cls-7{fill:#994e49;}.cls-8{fill:#381f13;}.cls-9{fill:#fff;}.cls-10{fill:#331f15;}.cls-11{fill:#132026;}.cls-12{fill:#020202;}.cls-13{fill:#231f20;}.cls-14{fill:#a35da4;}.cls-15,.cls-16,.cls-18,.cls-19{stroke:#ebc41b;stroke-linecap:round;stroke-miterlimit:10;}.cls-16{stroke-dasharray:0.2 1;}.cls-17{fill:#dfb725;}.cls-18,.cls-19{stroke-width:0.5px;}.cls-19{stroke-dasharray:0.2 0.5;}.cls-20{opacity:0.5;}</style></defs><title>Final-Avatars</title><path class="cls-1" d="M375.9,244c-4-7.45-10.29-4.22-11.83-2.58s-2.93,4.16-1.94,8.58c.58,2.49,2.84,2.66,2.29,6.45-.61,4.26-2.32,4.54-3.28,5.52s-2.15,1.67-2.76,3.48a10.75,10.75,0,0,0-.35,5.34c.61,3.05,4.48.59,7.05-.75,1.69-.87,7.11-6.18,8.47-7.95,3.45-4.47,5-13.08,2.35-18.09"/><path class="cls-2" d="M254.43,303.37V504H147.23c-1.63-.78-2.62-1.13-2.62-1.13,0-50.66,14.51-79.26,29.84-95.34,17.37-18.12,35.78-20.34,35.78-20.34h.54a6.72,6.72,0,0,0,1.42-.32c5.43-1.51,9.17-9.62,11.6-21.24.45-2,.79-4,1.1-6.25.61-3.71,1.22-7.6,1.53-11.65.29-2.45.42-4.9.65-7.44,1-12.3,1.31-25.67,1.31-38.4,0,0,13,1.34,24.27,1.48Z"/><path class="cls-3" d="M362.83,502.87a26.18,26.18,0,0,0-2.56,1.13H252.64V303.37h1.79c11.35-.14,24.59-1.48,24.59-1.48,0,12.61.3,25.88,1.28,38.1.21,2.46.44,4.89.66,7.27.47,4.22.9,8.18,1.5,12v0c.23,1.72.54,3.23.85,4.79,2.24,11.24,5.53,19.49,10.36,22.26a5.42,5.42,0,0,0,1.14.42,6,6,0,0,0,2.41.47s16.76,2.07,33.28,17.89a87.75,87.75,0,0,1,10.23,12c12.18,17.12,22.1,43.87,22.1,85.83"/><path class="cls-4" d="M281,347.3c-.22-2.42-.45-4.82-.68-7.27a109.21,109.21,0,0,1-25.84,3.84h0l-1.83.06h-.29q-1.66,0-3.29-.1l-.87,0c-.8,0-1.6-.08-2.39-.14l-.87-.07-2.35-.2-.79-.09c-.8-.08-1.59-.17-2.38-.27l-.69-.09c-.82-.11-1.64-.22-2.45-.35l-.57-.09c-.84-.13-1.68-.27-2.52-.42l-.46-.09q-1.29-.24-2.57-.51l-.39-.08c-.91-.19-1.81-.39-2.7-.61-.2,2.37-.34,4.67-.61,7-.3,4.05-.92,7.93-1.53,11.65-.09.68-.2,1.33-.31,2a43,43,0,0,0,3.41,3.76h0l.25.24.54.51.67.61.52.46q.58.5,1.21,1l.53.41.88.66.61.43,1,.64.6.39q.73.46,1.51.9l.34.18q.74.4,1.51.78l.63.29q.63.29,1.27.56l.68.28c.49.19,1,.37,1.5.54l.51.18q1,.32,2.08.59l.54.12c.55.13,1.11.24,1.68.34l.76.12c.54.08,1.09.15,1.65.2l.74.07c.8.06,1.61.1,2.45.11h.15q.85,0,1.68,0h0a34.6,34.6,0,0,0,28-16.42v-.07C281.85,355.49,281.4,351.51,281,347.3Z"/><rect class="cls-5" x="223.07" y="340.03" width="59.39" height="35.72"/><path class="cls-2" d="M252.53,87.74C140.68,87.54,140,179,145,238.66c-7.67-14-24.93-8.66-23.08,13.75,1.79,21.48,28.41,31.09,28,28.71,9.15,48.61,61.88,75.6,102.65,79.42a5,5,0,0,0,.84,0V87.78c-.27,0-.57,0-.84,0"/><path class="cls-1" d="M127.39,244c4.3-7.45,10.93-4.22,12.57-2.58s3.1,4.16,2,8.58c-.6,2.49-3,2.66-2.44,6.45.66,4.26,2.45,4.54,3.51,5.52s2.29,1.67,2.93,3.48a10.41,10.41,0,0,1,.38,5.34c-.67,3.05-4.76.59-7.5-.75-1.82-.87-7.57-6.18-9-7.95-3.67-4.47-5.37-13.08-2.49-18.09"/><path class="cls-3" d="M253.1,87.74C365,87.54,365.62,179,360.63,238.66c7.67-14,23.32-9.33,21.44,13.08-1.79,21.48-26.77,31.76-26.35,29.38-9.14,48.61-61.87,75.6-102.62,79.42a5.51,5.51,0,0,1-.89,0V87.78c.32,0,.59,0,.89,0"/><path class="cls-2" d="M252,113.64c-37.38,0-64.7,10.47-81.27,31.17-23.11,28.92-22.22,73.07-13.71,104.75,2.6,9.7,4,35.81,5.76,45.38,8.05,42.87,57,65.69,89.22,65.69.26,0,.58,0,.85,0V113.64H252"/><path class="cls-3" d="M333,144.88c-16.43-20.57-43.45-31-80.22-31.24V360.58c36.81-.38,80.79-25.37,88.35-65.65,1.77-9.57,3.13-35.67,5.73-45.38C355.4,218,356.21,173.84,333,144.88"/><path class="cls-6" d="M283.28,314s-13.78,17-30.75,17-29.9-16.6-29.9-16.6S235.52,313,252.46,313s30.81,1,30.81,1"/><path class="cls-7" d="M261.25,306.17c-4.79,0-8.6,3.37-8.73,7.67-.05-4.3-3.89-7.67-8.66-7.67s-22,7.8-22,7.8,16.82,2,21.6,2,9.05,2.23,9.11-1.95c.08,4.18,3.56,2.51,8.35,2.51s22.4-2.59,22.4-2.59-17.19-7.8-22-7.8"/><path id="_Path_" data-name="&lt;Path&gt;" class="cls-8" d="M230.37,282.69c-.45-9.26,17-3.38,22.69-3.09,4.53.23,18.33-2.92,19.52-2.11C280.7,283,264,294,252.78,294,249.79,294,230.64,288.28,230.37,282.69Z"/><path id="_Path_2" data-name="&lt;Path&gt;" class="cls-9" d="M178.88,225s9.79,17.49,24.54,19.39,30.41-.34,30.41-.34-.88-17-8.57-19.87S201,217.56,178.88,225Z"/><path id="_Path_3" data-name="&lt;Path&gt;" class="cls-10" d="M221.07,232.29c-.64,6.83-7,11.92-14.3,11.37s-12.61-6.5-12-13.31,7-11.94,14.3-11.39S221.72,225.46,221.07,232.29Z"/><path id="_Path_4" data-name="&lt;Path&gt;" class="cls-11" d="M207.59,238.31a6,6,0,0,1-5.14-6.47,6.29,6.29,0,0,1,6.28-5.61,6,6,0,0,1,5.14,6.47A6.29,6.29,0,0,1,207.59,238.31Z"/><path id="_Path_5" data-name="&lt;Path&gt;" class="cls-12" d="M233.84,244s-.33,0-1.08.15c-.63-6.19-2.43-14.75-7.22-16.54-8.71-3.34-24.45-6.22-43.45,2.11a38.9,38.9,0,0,1-3.2-4.77c22.09-11.37,39.67-6.95,47.29-4S233.84,244,233.84,244Z"/><path id="_Path_6" data-name="&lt;Path&gt;" class="cls-9" d="M326.88,227.43s-9.18,17-23.87,18.46-30.44-1.19-30.44-1.19.37-18.27,8-20.91S304.51,217.3,326.88,227.43Z"/><path id="_Path_7" data-name="&lt;Path&gt;" class="cls-10" d="M281.93,233.33c.79,7,7.56,12.4,15.12,12s13.07-6.52,12.28-13.56-7.56-12.42-15.13-12S281.13,226.28,281.93,233.33Z"/><path id="_Path_8" data-name="&lt;Path&gt;" class="cls-11" d="M296.12,239.75a6,6,0,0,0,5.26-6.58,6.8,6.8,0,0,0-6.66-5.88,6,6,0,0,0-5.26,6.58A6.8,6.8,0,0,0,296.12,239.75Z"/><path id="_Path_9" data-name="&lt;Path&gt;" class="cls-12" d="M272.55,244.63s.33.05,1.08.2c.42-6.12,1.91-14.51,6.66-16.13,7.06-2.51,22.9-6.08,43.53,3.32a35.6,35.6,0,0,0,3.06-4.63c-22.49-11.86-39.93-8-47.46-5.34S272.55,244.63,272.55,244.63Z"/><g id="_Group_" data-name="&lt;Group&gt;"><path id="_Path_10" data-name="&lt;Path&gt;" class="cls-13" d="M326.05,212.2c-.35-.24-.74-.55-1.17-.88a23.09,23.09,0,0,0-4.25-2.81,44.35,44.35,0,0,0-8.76-3.88,47.32,47.32,0,0,0-11-1.75,45.09,45.09,0,0,0-11.14,1.43,39.88,39.88,0,0,0-9,3.69,30.54,30.54,0,0,0-7.6,5.72l0,.05a2.75,2.75,0,0,0-.09,3.54c.47.6,1,3.28,1.74,3.38h0a2.93,2.93,0,0,0,2.14-.55l0,0a45.14,45.14,0,0,1,7-3.94,47.51,47.51,0,0,1,7.72-2.89,37.79,37.79,0,0,1,9.34-1.52,42,42,0,0,1,9.54.43l1.45.29,3.07.62a18.21,18.21,0,0,1,2.53.71c.47.16.94.31,1.39.44A45.86,45.86,0,0,1,323.8,216l1,.39,6.61.09Z"/></g><g id="_Group_2" data-name="&lt;Group&gt;"><path id="_Path_11" data-name="&lt;Path&gt;" class="cls-13" d="M181,210.77c.35-.24.74-.55,1.17-.88a23.09,23.09,0,0,1,4.25-2.81,44.35,44.35,0,0,1,8.76-3.88,47.32,47.32,0,0,1,11-1.75,45.09,45.09,0,0,1,11.14,1.43,39.88,39.88,0,0,1,9,3.69,30.54,30.54,0,0,1,7.6,5.72l0,.05a2.75,2.75,0,0,1,.09,3.54c-.47.6-1,3.28-1.74,3.38h0a2.93,2.93,0,0,1-2.14-.55l0,0a45.14,45.14,0,0,0-7-3.94,47.51,47.51,0,0,0-7.72-2.89,37.79,37.79,0,0,0-9.34-1.52,42,42,0,0,0-9.54.43l-1.45.29-3.07.62a18.21,18.21,0,0,0-2.53.71c-.47.16-.94.31-1.39.44a45.86,45.86,0,0,0-4.93,1.74l-1,.39-6.61.09Z"/></g><path d="M307.16,97.59A20.21,20.21,0,0,0,309,89.42c0-10.57-8.53-19.92-21.66-25.79a13.16,13.16,0,0,0,1.75-6.39c0-11.18-15.11-20.25-33.76-20.25s-33.77,9.06-33.77,20.25a13.09,13.09,0,0,0,1.75,6.39c-13.12,5.87-21.66,15.22-21.66,25.79a20.06,20.06,0,0,0,1.07,6.41c-69.47,20.79-70.84,88.09-66.66,136.35a23.59,23.59,0,0,1,8.3,9.79c3.72,8.51,5.17,7,5.17,7s-5.9-33.33-5.9-42.59,33.68-77.77,52.43-83.28c18.57-5.37,36.15,12.66,56,13h1.59c20.2,0,37.11-18.44,55.95-13S362,197.22,362,206.42,356.1,249,356.1,249s1.42,1.47,5.18-7a23.4,23.4,0,0,1,6.92-8.82C372.41,186.14,371.66,120.38,307.16,97.59Z"/><path class="cls-14" d="M340.7,481.76c-3.35-26.11-20.59-27.82-21.17-87.05-.24-.67-.56-1.36-.79-2l-18.67-5.85a6.51,6.51,0,0,1-.08.86c-.08,4.23-1.44,32.8-2.1,50.64l-44.31,9.74L209.14,437.9c-.66-17.56-.29-45.65-.42-50.13v-.9L190,392.73a6.09,6.09,0,0,0-.93,2.37c1.18,55.82-17.78,60.71-20.92,86.66-.7,5.42-1.41,15.42-1.87,22.24H342.55C342.07,497.18,341.37,487.18,340.7,481.76Z"/><line class="cls-15" x1="215.48" y1="384.98" x2="215.57" y2="385.03"/><path class="cls-16" d="M216.46,385.51l16.31,8.84,18.71,7.79a4,4,0,0,0,3.41,0l21-8.4,15.5-8.48"/><line class="cls-15" x1="291.87" y1="385.03" x2="291.95" y2="384.98"/><path class="cls-17" d="M257.82,414.78a2.52,2.52,0,0,0-4.67-1.32,2.52,2.52,0,1,0-3.81,3.22l3.58,3.58a.33.33,0,0,0,.46,0l3.58-3.58a2.51,2.51,0,0,0,.87-1.9Zm0,0"/><line class="cls-18" x1="253.14" y1="403.26" x2="253.14" y2="403.36"/><line class="cls-19" x1="253.14" y1="403.86" x2="253.14" y2="412.74"/><line class="cls-18" x1="253.14" y1="412.99" x2="253.14" y2="413.09"/><path class="cls-20" d="M376.41,244c-4.3-7.45-10.93-4.22-12.58-2.58s-3.1,4.16-2,8.58c.6,2.49,3,2.66,2.44,6.45-.66,4.26-2.46,4.54-3.51,5.52s-2.29,1.67-2.93,3.48a10.41,10.41,0,0,0-.38,5.34c.67,3.05,4.76.59,7.5-.75,1.82-.87,7.57-6.18,9-7.95,3.67-4.47,5.37-13.08,2.49-18.09"/></svg>