<svg id="Layer_1" data-name="Layer 1" xmlns="http://www.w3.org/2000/svg" viewBox="0 0 504 504"><defs><style>.cls-1{fill:#60361f;}.cls-2{fill:#6b3c21;}.cls-3,.cls-4{fill:#391f12;}.cls-4{opacity:0.6;}.cls-5{fill:#fff;}.cls-6{fill:#bf706b;}.cls-7{fill:#984e48;}.cls-8{fill:#5b381b;}.cls-9{fill:#132026;}.cls-10{fill:#2c180f;}.cls-11{fill:#231f20;stroke:#231f20;stroke-linecap:round;stroke-linejoin:round;stroke-width:9px;}.cls-12{fill:#070707;}.cls-13{fill:#8d8d8d;}.cls-14{fill:#f47f35;}</style></defs><title>Final-Avatars</title><path class="cls-1" d="M251.36,296.31V504H138.62c-1.82-.8-2.77-1.19-2.77-1.19,0-111.41,69-119.74,69-119.74,6.88,0,11.31-8.85,14.24-22.31.48-2.07.87-4.21,1.19-6.5.63-3.8,1.18-7.84,1.57-12,.24-2.53.47-5.07.71-7.68.87-10.37,1.19-21.53,1.27-32.38.08-2.46.08-4.91.08-7.36C223.93,294.81,239.1,296.31,251.36,296.31Z"/><path class="cls-2" d="M367.27,502.81s-1,.39-2.68,1.19H251.36V296.31h.24c12.25,0,27.51-1.5,27.51-1.5,0,2.84,0,5.69.08,8.55.08,10.35.48,21,1.27,30.87.22,2.53.47,5.07.71,7.53.47,4.34,1,8.47,1.58,12.34v.1c.23,1.73.54,3.32.86,4.9,2.93,14.33,7.52,24,14.63,24C298.25,383.07,367.27,391.39,367.27,502.81Z"/><path class="cls-3" d="M282.76,354.11v.1a36.43,36.43,0,0,1-31.23,17h-.15c-18-.07-28.39-13.14-31.07-16.93.63-3.8,1.17-7.83,1.57-12,.23-2.52.48-5.06.71-7.67a124.38,124.38,0,0,0,28.46,3.72h.33a117,117,0,0,0,29.08-4c.23,2.53.48,5.07.71,7.53C281.66,346.12,282.12,350.24,282.76,354.11Z"/><path class="cls-1" d="M251.71,58.11c-119.43,0-120.11,100.12-114.8,165.65-8.19-15.53-32.42-10.73-30.44,13.73,1.92,23.57,36.16,35.75,35.68,33,9.78,53.92,66,85.07,109.56,85.07.29,0,.61-.05.91-.05V58.14Z"/><path class="cls-3" d="M114.09,227.15c5.92-9.45,15-5.37,17.25-3.29,2.38,2.27,4.26,5.27,2.79,10.85-.83,3.15-4.14,3.4-3.32,8.17.88,5.38,3.36,5.7,4.77,6.93s3.15,2.15,4,4.43a11.92,11.92,0,0,1,.53,6.74c-.92,3.86-6.53.79-10.3-.92-2.47-1.13-10.35-7.8-12.34-10.06C112.47,244.34,110.15,233.44,114.09,227.15Z"/><path class="cls-2" d="M252.29,58.11c119.43,0,120.12,100.12,114.79,165.65,8.19-15.53,32.43-10.73,30.45,13.73-1.93,23.57-36.16,35.75-35.68,33-9.78,53.92-66,85.07-109.56,85.07-.29,0-.62-.05-.91-.05V58.14Z"/><path class="cls-4" d="M389.91,227.15c-5.89-9.45-15-5.37-17.25-3.29-2.38,2.27-4.24,5.27-2.79,10.85.83,3.15,4.13,3.4,3.33,8.17-.87,5.38-3.36,5.7-4.78,6.93s-3.15,2.15-4,4.43a12.07,12.07,0,0,0-.53,6.74c.92,3.86,6.54.79,10.3-.92,2.49-1.13,10.36-7.8,12.36-10.06C391.52,244.34,393.84,233.44,389.91,227.15Z"/><path class="cls-1" d="M250.67,86.34c-39.3,0-68,11.43-85.47,34-24.31,31.51-23.38,79.63-14.41,114.18,2.73,10.56,4.15,39,6,49.47,8.49,46.72,60,71.6,93.85,71.6.29,0,.61-.05.91-.05V86.38C251.27,86.38,251,86.34,250.67,86.34Z"/><path class="cls-2" d="M336,120.38c-17.28-22.41-45.71-33.82-84.39-34V355.53c38.71-.41,85-27.68,92.93-71.55,1.88-10.45,3.29-38.9,6-49.47C359.48,200.06,360.36,152,336,120.38Z"/><path class="cls-5" d="M148.67,314.09c.49.6.37.41-.16-.3C148.57,313.87,148.62,314,148.67,314.09Z"/><path class="cls-6" d="M275.81,304.17s-10.91,11.36-24.37,11.36-23.69-11.13-23.69-11.13,10.27-.34,23.69-.34,24.37.11,24.37.11"/><path class="cls-7" d="M258.35,298.91c-3.79,0-6.8,2.28-6.9,5.15-.05-2.88-3.08-5.15-6.87-5.15s-17.48,5.26-17.48,5.26,13.33,1.35,17.13,1.35,7.16,1.49,7.21-1.3c.07,2.8,2.82,1.69,6.62,1.69s17.74-1.73,17.74-1.73-13.62-5.26-17.47-5.26"/><path id="_Path_" data-name="&lt;Path&gt;" class="cls-3" d="M229,257.22c-.46-6.41,17.23-2.34,23.06-2.14,4.61.16,18.62-2,19.83-1.46,8.25,3.8-8.73,11.45-20.12,11.45C248.75,265.08,229.3,261.09,229,257.22Z"/><path id="_Path_2" data-name="&lt;Path&gt;" class="cls-5" d="M168.13,188.84s11.17,19,28.24,21,35.23-.62,35.23-.62-1.2-19.23-10.08-22.32S193.72,179.58,168.13,188.84Z"/><path id="_Path_3" data-name="&lt;Path&gt;" class="cls-8" d="M217,196.47c-.81,7.45-8.27,13.06-16.67,12.53s-14.55-7-13.74-14.43,8.27-13.08,16.68-12.54S217.77,189,217,196.47Z"/><path id="_Path_4" data-name="&lt;Path&gt;" class="cls-9" d="M201.28,203.15a6.52,6.52,0,0,1-5.9-7,7.3,7.3,0,0,1,7.33-6.17,6.51,6.51,0,0,1,5.9,7A7.3,7.3,0,0,1,201.28,203.15Z"/><path id="_Path_5" data-name="&lt;Path&gt;" class="cls-10" d="M231.63,209.12s-.38,0-1.25.17c-.67-6.75-2.67-16.07-8.21-18-8.25-2.93-26.73-7.23-50.36,2.66a41.36,41.36,0,0,1-3.67-5.18c25.7-12.58,46-7.9,54.84-4.8S231.63,209.12,231.63,209.12Z"/><path id="_Path_6" data-name="&lt;Path&gt;" class="cls-5" d="M339.37,191.4s-10.8,18.62-27.84,20.33-35.25-1.05-35.25-1.05,2.05-20,10.88-22.92S313.45,182.74,339.37,191.4Z"/><path id="_Path_7" data-name="&lt;Path&gt;" class="cls-8" d="M287.23,198.21c.84,7.69,8.64,13.46,17.4,12.92s15.2-7.22,14.36-14.89-8.64-13.48-17.41-12.94S286.36,190.53,287.23,198.21Z"/><path id="_Path_8" data-name="&lt;Path&gt;" class="cls-9" d="M303.6,205.09a6.74,6.74,0,0,0,6.16-7.22c-.43-3.89-4.4-6.56-7.66-6.36a6.75,6.75,0,0,0-6.16,7.22C296.38,202.63,300.35,205.3,303.6,205.09Z"/><path class="cls-10" d="M284.44,185.92c-7.16,2.4-8.09,17.08-8.18,22.6h0l-.07,2.18,1.32.2v-.07h0c.54-6.68,2.36-15.84,7.88-17.66,8.2-2.8,26.59-6.82,50.4,3.26a39.53,39.53,0,0,0,3.59-5.07C313.42,178.6,293.18,183,284.44,185.92Z"/><g id="_Group_" data-name="&lt;Group&gt;"><path id="_Path_9" data-name="&lt;Path&gt;" class="cls-11" d="M334.42,169c-.38-.26-.79-.59-1.25-.94a24.68,24.68,0,0,0-4.55-3,47.41,47.41,0,0,0-9.36-4.15A50.58,50.58,0,0,0,307.48,159a48.21,48.21,0,0,0-11.91,1.53,42.64,42.64,0,0,0-9.63,3.95,32.65,32.65,0,0,0-8.13,6.12l-.05.06a3,3,0,0,0-.09,3.78c.51.64,1,3.5,1.86,3.61h0a3.13,3.13,0,0,0,2.29-.59l0,0a48.26,48.26,0,0,1,7.43-4.22,50.79,50.79,0,0,1,8.25-3.09,40.39,40.39,0,0,1,10-1.62,44.91,44.91,0,0,1,10.2.46l1.55.31,3.28.66a19.46,19.46,0,0,1,2.71.76c.51.17,1,.33,1.49.47A49,49,0,0,1,332,173l1,.41,7.06.1Z"/></g><g id="_Group_2" data-name="&lt;Group&gt;"><path id="_Path_10" data-name="&lt;Path&gt;" class="cls-11" d="M176.14,169c.38-.26.79-.59,1.25-.94a24.68,24.68,0,0,1,4.55-3,47.41,47.41,0,0,1,9.36-4.15A50.58,50.58,0,0,1,203.08,159,48.21,48.21,0,0,1,215,160.51a42.64,42.64,0,0,1,9.63,3.95,32.65,32.65,0,0,1,8.13,6.12l.05.06a3,3,0,0,1,.09,3.78c-.51.64-1,3.5-1.86,3.61h0a3.13,3.13,0,0,1-2.29-.59l0,0a48.26,48.26,0,0,0-7.43-4.22,50.79,50.79,0,0,0-8.25-3.09,40.39,40.39,0,0,0-10-1.62,44.91,44.91,0,0,0-10.2.46l-1.55.31-3.28.66a19.46,19.46,0,0,0-2.71.76c-.51.17-1,.33-1.49.47a49,49,0,0,0-5.27,1.86l-1,.41-7.06.1Z"/></g><polygon class="cls-10" points="171.35 188.44 167.68 190.32 171.76 196.31 177.2 191.87 171.35 188.44"/><polygon class="cls-10" points="230.32 213.45 230.37 214.17 231.63 214.02 231.61 213.16 230.32 213.45"/><path class="cls-12" d="M375,214.45a28.37,28.37,0,0,0-7.36,10.89c-4,10.51-5.52,8.69-5.52,8.69s6.29-41.15,6.29-52.6-36.9-78.28-56.89-85.08-36.91-1.69-58.38-1.69h-1.7c-21.07-.42-40.84-4.94-60.57,1.69-20,6.8-54.66,73.73-54.66,85.08s6.28,52.6,6.28,52.6-1.55,1.81-5.51-8.69a28.26,28.26,0,0,0-8.82-12.09C122.87,142,125.91,37,251.33,37H252c126.1,0,128.53,106.18,123,177.45"/><path class="cls-13" d="M366.82,177.12v-.21a.93.93,0,0,0-.59-.55h0l-.13-.05c-9.6-3.42-49.83-5-71.55-2.56s-34.77,8-42,8.28c-7.23-.1-20.3-5.4-42.16-7.42s-62,.4-71.46,4a.46.46,0,0,0-.16.06h0a.78.78,0,0,0-.54.55v.21c-.09,1.21-.39,6.45-.25,9.43a3.2,3.2,0,0,0,0,.45,2.52,2.52,0,0,0,1.72,1.87l.13,0c1.94.67,5.28,3.57,8.81,17.77,1.63,7.08,3.65,22.07,19.08,26.48,7,2,41,5.77,58.08-7.59,3.61-2.81,7.49-9,10.75-15.21,1.91-4.26,7-16.49,7.71-18.35a7.42,7.42,0,0,1,7.48-5.37l1.69,0a7.43,7.43,0,0,1,7.56,5.23c.79,1.85,6.1,14,8.07,18.18,3.39,6.19,7.42,12.26,11.06,15,17.42,13,51.26,8.48,58.23,6.39,15.36-4.73,17.07-19.74,18.54-26.86,3.27-14.28,6.57-17.25,8.46-18l.13,0a2.57,2.57,0,0,0,1.71-1.91v-.46C367.32,183.57,366.92,178.33,366.82,177.12ZM226.59,216.38A26.09,26.09,0,0,1,210.48,230c-13.34,3.79-22.82,4-36.17,2.2-8.92-1.18-15.53-7.15-17.33-13.2-2.21-8.4-5.39-17-3.35-25.36a17.83,17.83,0,0,1,12-12.43c13.2-4.24,33.88-4,47.15-2,6.5,1.17,18,2.35,20.7,10C236.35,197.49,231,209.06,226.59,216.38Zm122.46.68c-1.69,6.1-8.18,12.22-17.09,13.56-13.3,2-22.78,2.05-36.17-1.47a26,26,0,0,1-16.41-13.3c-4.59-7.23-10.11-18.68-7.4-27,2.52-7.68,14-9.11,20.49-10.42,13.23-2.33,33.87-3,47.17,1a17.79,17.79,0,0,1,12.23,12.18C354.09,200,351.1,208.64,349.05,217.06Z"/><path class="cls-14" d="M343.32,472.43h22c0-2.23-.68-4.65-1-6.77-3.32-19.45-9.37-35.77-13.48-43.72-1.76-3.41-3-5.36-3-5.36a80.85,80.85,0,0,0-17.06-18.26,16,16,0,0,0-1.52-1.27c-.84-.64-1.68-1.25-2.51-1.83-89.85,158.12-149,0-149,0a26.16,26.16,0,0,0-2.77,2,8.05,8.05,0,0,0-1.54,1.23,32.51,32.51,0,0,0-5.21,3.51c-4.35,3.94-7.59,8.75-11.68,14.63,0,0-17.92,26.86-18.32,48.51,0,0-.57,6-.55,8.07l23.33-.74c0,2.19,0,4.28-.06,6.3-.14,11.06-.5,19.65-.86,25.26H344.31c-.37-5.6-.77-14.2-.93-25.26C343.35,476.71,343.33,474.63,343.32,472.43Z"/><path class="cls-14" d="M181.34,392.18l6.68-3.71,6.25-2.79,8.39-2.4,18.81,12c19.63,4.92,38.6,5.43,58.1,0l20.5-12,6,1.46,8.24,3.64,12.42,6.86L337,466.17H157.09l17-68.29"/><path class="cls-5" d="M202.66,383.29c10.7,8.62,31.93,20.46,48.29,21.06h.48a.92.92,0,0,0,.33,0c16.41-.6,37.58-12.44,48.31-21.06a64.43,64.43,0,0,0-7.72-2.66c-9,7.25-26.89,17.28-40.75,17.77a.58.58,0,0,1-.28,0h-.4c-13.79-.49-31.66-10.47-40.68-17.73a63.63,63.63,0,0,0-7.58,2.62"/></svg>