<?xml version="1.0" encoding="UTF-8" standalone="no"?>
<!-- Created with Inkscape (http://www.inkscape.org/) -->

<svg
   xmlns:dc="http://purl.org/dc/elements/1.1/"
   xmlns:cc="http://creativecommons.org/ns#"
   xmlns:rdf="http://www.w3.org/1999/02/22-rdf-syntax-ns#"
   xmlns:svg="http://www.w3.org/2000/svg"
   xmlns="http://www.w3.org/2000/svg"
   xmlns:sodipodi="http://sodipodi.sourceforge.net/DTD/sodipodi-0.dtd"
   xmlns:inkscape="http://www.inkscape.org/namespaces/inkscape"
   id="svg2"
   version="1.1"
   inkscape:version="0.91 r13725"
   xml:space="preserve"
   width="400"
   height="600"
   viewBox="0 0 400 600"
   sodipodi:docname="anika.svg"
   inkscape:export-filename="/home/alec/Projects/Brookings/out-of-work/data/avatars/anika.png"
   inkscape:export-xdpi="90"
   inkscape:export-ydpi="90"><metadata
     id="metadata8"><rdf:RDF><cc:Work
         rdf:about=""><dc:format>image/svg+xml</dc:format><dc:type
           rdf:resource="http://purl.org/dc/dcmitype/StillImage" /><dc:title></dc:title></cc:Work></rdf:RDF></metadata><defs
     id="defs6"><clipPath
       clipPathUnits="userSpaceOnUse"
       id="clipPath24"><path
         d="M 0,792 612,792 612,0 0,0 0,792 Z"
         id="path26"
         inkscape:connector-curvature="0" /></clipPath></defs><sodipodi:namedview
     pagecolor="#ffffff"
     bordercolor="#666666"
     borderopacity="1"
     objecttolerance="10"
     gridtolerance="10"
     guidetolerance="10"
     inkscape:pageopacity="0"
     inkscape:pageshadow="2"
     inkscape:window-width="1529"
     inkscape:window-height="883"
     id="namedview4"
     showgrid="false"
     inkscape:zoom="0.47676768"
     inkscape:cx="272.14407"
     inkscape:cy="439.50378"
     inkscape:window-x="59"
     inkscape:window-y="30"
     inkscape:window-maximized="0"
     inkscape:current-layer="g10" /><g
     id="g10"
     inkscape:groupmode="layer"
     inkscape:label="AvatarsR2"
     transform="matrix(1.25,0,0,-1.25,0,600)"><text
       transform="scale(1,-1)"
       style="font-variant:normal;font-weight:300;font-stretch:normal;font-size:13px;font-family:Interstate-Light;-inkscape-font-specification:Interstate-Light;writing-mode:lr-tb;fill:#231f20;fill-opacity:1;fill-rule:nonzero;stroke:none"
       id="text12"
       x="109.37254"
       y="127.50063"><tspan
         x="109.37254 118.31654 121.57954 128.84654 136.21754 139.48055 146.38354 149.76355 156.78354 164.05055 171.42154 177.63554 184.64255 189.21855 196.23854 203.50555 206.88554 213.89255 221.26355 228.53055 231.91055 238.93054 246.30154 253.56854 260.57556 267.84256 274.86255 282.12955 285.50955 292.08755 299.44556 306.81656 314.18756 321.45456 328.47455 333.76556 337.14554 344.41254 349.70355 352.96655 363.99054 371.01056 375.00024 382.00726 389.27426 396.29425 399.67426 406.94125 413.96127 421.31924 428.58627 431.84927 438.86926"
         y="127.50063"
         sodipodi:role="line"
         id="tspan14">Highly educated and engaged younger prime-age people </tspan></text>
<text
       transform="scale(1,-1)"
       style="font-variant:normal;font-weight:normal;font-stretch:normal;font-size:34px;font-family:'Myriad Pro';-inkscape-font-specification:MyriadPro-Regular;writing-mode:lr-tb;fill:#231f20;fill-opacity:1;fill-rule:nonzero;stroke:none"
       id="text16"
       x="233.88034"
       y="164.50063"><tspan
         x="233.88034 254.58635 273.45633 281.41235 297.97034"
         y="164.50063"
         sodipodi:role="line"
         id="tspan18">Anika</tspan></text>
<g
       id="g20"
       transform="matrix(0.90225427,0,0,0.90225427,-120.26951,-179.81866)"><g
         id="g22"
         clip-path="url(#clipPath24)"><g
           id="g28"
           transform="translate(304.7705,531.8633)"><path
             d="m 0,0 c -4.795,-16.141 -10.311,-34.585 -20.612,-53.047 -10.32,-18.435 -84.232,-22.772 -85.311,-48.072 -2.348,-54.279 116.927,-99.482 147.877,-108.703 30.942,-9.223 41.242,-10.141 44.689,-23.519 3.446,-13.379 0.621,-35.692 0.621,-35.692 0,0 26.055,14.288 33.415,25.228 15.808,23.5 -1.502,39.506 -1.502,39.506 0,0 -6.398,-5.523 1.151,-17.975 7.567,-12.453 7.567,-23.519 4.822,-26.749 -2.753,-3.23 -12.371,-13.379 -12.371,-13.379 0,0 47.802,13.604 38.499,52.58 -1.592,6.676 -5.965,1.79 0,0 13.289,-3.978 10.797,-25.976 10.797,-25.976 0,0 32.416,42.089 -33.245,65.913 -6.262,2.268 -40.082,10.654 -43.564,38.689 -1.944,15.547 9.402,16.905 11.471,35.907 2.682,24.58 -32.443,19.397 -45.939,42.574 -2.573,4.401 10.14,6.902 0,18.867 C 38.535,-19.389 34.036,-20.522 16.51,-11.993 -1.025,-3.464 0,0 0,0"
             style="fill:#231f20;fill-opacity:1;fill-rule:nonzero;stroke:none"
             id="path30"
             inkscape:connector-curvature="0" /></g><g
           id="g32"
           transform="translate(299.5068,440.1827)"><path
             d="m 0,0 0,-209.85 -113.796,0 c -1.835,0.872 -2.798,1.205 -2.798,1.205 0,31.203 5.354,54.478 13.091,71.672 12.768,28.404 32.003,40.568 44.455,45.697 7.18,3.032 12.128,3.598 12.128,3.598 l 0.567,0 c 0.477,0.073 1.035,0.154 1.511,0.324 5.732,1.673 9.646,10.077 12.281,22.241 0.487,2.15 0.891,4.229 1.207,6.55 0.638,3.851 1.196,7.926 1.592,12.246 0.242,2.473 0.486,5.038 0.72,7.683 1.043,12.955 1.358,26.955 1.358,40.145 C -27.684,1.511 -12.353,0 0,0"
             style="fill:#bf7648;fill-opacity:1;fill-rule:nonzero;stroke:none"
             id="path34"
             inkscape:connector-curvature="0" /></g><g
           id="g36"
           transform="translate(416.5059,231.5381)"><path
             d="m 0,0 c 0,0 -1.034,-0.333 -2.708,-1.205 l -114.291,0 0,209.85 0.243,0 c 12.371,0 27.775,1.51 27.775,1.51 0,-13.189 0.314,-27.027 1.349,-39.821 0.243,-2.573 0.486,-5.119 0.72,-7.611 0.486,-4.4 0.963,-8.557 1.601,-12.399 l 0,-0.171 c 0.244,-1.745 0.558,-3.346 0.882,-4.939 2.394,-11.777 5.903,-20.414 11.013,-23.293 0.395,-0.162 0.782,-0.397 1.196,-0.478 0.801,-0.323 1.674,-0.476 2.546,-0.476 0,0 35.197,-4.247 55.54,-47.046 C -5.83,56.476 0,32.642 0,0"
             style="fill:#cc7e4a;fill-opacity:1;fill-rule:nonzero;stroke:none"
             id="path38"
             inkscape:connector-curvature="0" /></g><g
           id="g40"
           transform="translate(331.1865,381.7911)"><path
             d="m 0,0 0,-0.081 c -2.799,-4.472 -12.443,-17.193 -31.518,-17.193 l -0.081,0 c -18.191,0.062 -28.718,13.279 -31.435,17.121 0.638,3.841 1.187,7.918 1.593,12.155 0.224,2.564 0.485,5.128 0.719,7.765 8.844,-2.249 18.426,-3.609 28.719,-3.761 l 0.323,0 c 10.536,0.152 20.262,1.592 29.367,4.075 0.244,-2.563 0.486,-5.119 0.72,-7.594 C -1.106,8.079 -0.639,3.932 0,0"
             style="fill:#a65f36;fill-opacity:1;fill-rule:nonzero;stroke:none"
             id="path42"
             inkscape:connector-curvature="0" /></g><g
           id="g44"
           transform="translate(299.417,665.7139)"><path
             d="m 0,0 c -118.771,0.225 -119.455,-95.46 -114.174,-157.855 -8.151,14.638 -32.227,9.204 -30.248,-14.234 1.881,-22.457 35.926,-32.633 35.458,-30.158 9.708,-50.825 65.697,-79.067 108.964,-83.08 0.297,-0.018 0.63,0 0.918,-0.035 l 0,285.343 C 0.612,-0.019 0.297,0 0,0"
             style="fill:#bf7648;fill-opacity:1;fill-rule:nonzero;stroke:none"
             id="path46"
             inkscape:connector-curvature="0" /></g><g
           id="g48"
           transform="translate(160.9512,503.5313)"><path
             d="m 0,0 c 5.965,9.06 15.143,5.155 17.409,3.148 2.403,-2.168 4.301,-5.038 2.817,-10.4 -0.846,-3.014 -4.166,-3.248 -3.356,-7.827 0.891,-5.155 3.401,-5.488 4.822,-6.658 1.404,-1.152 3.185,-2.061 4.067,-4.238 0.864,-2.169 1.016,-4.49 0.531,-6.46 -0.918,-3.725 -6.596,-0.774 -10.401,0.864 -2.493,1.097 -10.454,7.485 -12.47,9.663 C -1.638,-16.483 -3.985,-6.028 0,0"
             style="fill:#bd9275;fill-opacity:1;fill-rule:nonzero;stroke:none"
             id="path50"
             inkscape:connector-curvature="0" /></g><g
           id="g52"
           transform="translate(300.0107,665.7139)"><path
             d="m 0,0 c 118.771,0.225 119.455,-95.46 114.174,-157.855 8.151,14.638 32.237,9.204 30.266,-14.234 -1.898,-22.457 -35.943,-32.633 -35.466,-30.158 -9.717,-50.825 -65.688,-79.067 -108.974,-83.08 -0.297,-0.018 -0.62,0 -0.899,-0.035 l 0,285.343 C -0.603,-0.019 -0.297,0 0,0"
             style="fill:#cc7e4a;fill-opacity:1;fill-rule:nonzero;stroke:none"
             id="path54"
             inkscape:connector-curvature="0" /></g><g
           id="g56"
           transform="translate(439.3232,503.5313)"><path
             d="m 0,0 c -5.947,9.06 -15.151,5.155 -17.41,3.148 -2.402,-2.168 -4.282,-5.038 -2.816,-10.4 0.837,-3.014 4.175,-3.248 3.365,-7.827 -0.891,-5.155 -3.401,-5.488 -4.831,-6.658 -1.412,-1.152 -3.185,-2.061 -4.077,-4.238 -0.827,-2.169 -1.006,-4.49 -0.521,-6.46 0.927,-3.725 6.595,-0.774 10.392,0.864 2.519,1.097 10.463,7.485 12.47,9.663 C 1.638,-16.483 3.977,-6.028 0,0"
             style="fill:#bd9275;fill-opacity:1;fill-rule:nonzero;stroke:none"
             id="path58"
             inkscape:connector-curvature="0" /></g><g
           id="g60"
           transform="translate(298.7969,638.6319)"><path
             d="m 0,0 c -39.678,0 -68.693,-10.967 -86.274,-32.614 -24.536,-30.212 -23.599,-76.386 -14.548,-109.54 2.77,-10.131 4.192,-37.438 6.099,-47.469 8.566,-44.807 60.516,-68.685 94.723,-68.685 0.297,0 0.62,0.028 0.917,0.028 l 0,258.254 C 0.611,-0.026 0.314,0 0,0"
             style="fill:#bf7648;fill-opacity:1;fill-rule:nonzero;stroke:none"
             id="path62"
             inkscape:connector-curvature="0" /></g><g
           id="g64"
           transform="translate(384.8809,605.9727)"><path
             d="m 0,0 c -17.437,21.503 -46.137,32.453 -85.167,32.633 l 0,-258.254 c 39.057,0.413 85.761,26.568 93.787,68.657 1.898,10.031 3.311,37.338 6.091,47.469 C 23.744,-76.439 24.626,-30.329 0,0"
             style="fill:#cc7e4a;fill-opacity:1;fill-rule:nonzero;stroke:none"
             id="path66"
             inkscape:connector-curvature="0" /></g><g
           id="g68"
           transform="translate(335.7109,417.9092)"><path
             d="m 0,0 c 0,0 -15.842,-11.684 -35.41,-11.684 -19.553,0 -34.52,11.432 -34.52,11.432 0,0 14.967,1.773 34.52,1.773 C -15.842,1.521 0,0 0,0"
             style="fill:#7d391a;fill-opacity:1;fill-rule:nonzero;stroke:none"
             id="path70"
             inkscape:connector-curvature="0" /></g><g
           id="g72"
           transform="translate(310.3477,423.3028)"><path
             d="M 0,0 C -5.525,0 -9.936,-2.374 -10.047,-5.306 -10.158,-2.374 -14.568,0 -20.062,0 c -5.557,0 -25.412,-5.394 -25.412,-5.394 0,0 19.362,-1.411 24.918,-1.411 5.526,0 10.398,-1.488 10.509,1.335 0.079,-2.844 4.092,-1.751 9.569,-1.751 5.573,0 25.841,1.827 25.841,1.827 C 25.363,-5.394 5.541,0 0,0"
             style="fill:#ac5b2e;fill-opacity:1;fill-rule:nonzero;stroke:none"
             id="path74"
             inkscape:connector-curvature="0" /></g><g
           id="g76"
           transform="translate(387.6885,340.2149)"><path
             d="m 0,0 c -15.331,7.351 -33.506,11.993 -32.543,9.789 9.933,-13.991 6.244,-25.714 4.606,-45.805 -2.545,-31.219 -22.798,-23.608 -60.442,-23.23 -37.644,-0.378 -57.896,-7.989 -60.433,23.23 -1.638,20.091 -5.336,31.814 4.596,45.805 0.972,2.204 -17.211,-2.438 -32.533,-9.789 -15.331,-7.351 -27.819,-17.392 -27.819,-17.392 0,0 11.471,-3.788 16.185,-17.949 2.385,-7.036 3.833,-19.83 4.653,-31.679 1.655,-24.004 13.684,-34.783 12.973,-42.862 l 82.378,0 82.387,0 c -0.72,8.079 11.309,18.858 12.965,42.862 0.818,11.849 2.267,24.643 4.66,31.679 4.706,14.161 16.178,17.949 16.178,17.949 0,0 -12.48,10.041 -27.811,17.392"
             style="fill:#7d2695;fill-opacity:1;fill-rule:nonzero;stroke:none"
             id="path78"
             inkscape:connector-curvature="0" /></g><g
           id="g80"
           transform="translate(212.8018,389.6905)"><path
             d="m 0,0 c 0,0 -138.655,94.632 -15.188,262.743 31.059,42.26 68.055,47.56 90.746,47.829 24.355,0.27 41.693,-12.433 41.693,-12.433 0,0 89.081,-8.674 102.379,-67.696 10.562,-46.695 21.971,-65.535 16.167,-106.616 C 223.075,33.838 189.741,3.445 189.741,3.445 l -25.453,-19.254 c 0,0 17.544,47.992 22.043,77.439 4.553,29.448 1.26,39.912 -3.814,60.299 -5.121,20.432 -18.643,37.032 -41.82,54.046 -23.221,16.987 -20.603,57.312 -20.603,57.312 0,0 -114.525,-50.105 -112.635,-179.008 0.413,-26.73 22.088,-72.93 22.088,-72.93 L 0,0 Z"
             style="fill:#231f20;fill-opacity:1;fill-rule:nonzero;stroke:none"
             id="path82"
             inkscape:connector-curvature="0" /></g><g
           id="g84"
           transform="translate(232.9287,498.7198)"><path
             d="m 0,0 c 0,0 9.051,-16.178 22.693,-17.935 13.643,-1.77 28.123,0.315 28.123,0.315 0,0 -1.381,16.546 -8.495,19.219 C 35.206,4.286 20.071,6.863 0,0"
             style="fill:#ffffff;fill-opacity:1;fill-rule:nonzero;stroke:none"
             id="path86"
             inkscape:connector-curvature="0" /></g><g
           id="g88"
           transform="translate(271.9561,491.961)"><path
             d="m 0,0 c -0.592,-6.314 -6.514,-11.025 -13.222,-10.519 -6.715,0.491 -11.667,6.016 -11.073,12.315 0.592,6.314 6.513,11.041 13.23,10.535 C -4.366,11.824 0.601,6.314 0,0"
             style="fill:#2d1e16;fill-opacity:1;fill-rule:nonzero;stroke:none"
             id="path90"
             inkscape:connector-curvature="0" /></g><g
           id="g92"
           transform="translate(259.4902,486.3878)"><path
             d="m 0,0 c -2.489,0.182 -5.053,2.773 -4.757,5.98 0.305,3.19 3.321,5.366 5.81,5.185 C 3.542,10.982 6.114,8.39 5.81,5.185 5.506,1.994 2.499,-0.182 0,0"
             style="fill:#191e22;fill-opacity:1;fill-rule:nonzero;stroke:none"
             id="path94"
             inkscape:connector-curvature="0" /></g><g
           id="g96"
           transform="translate(283.7607,481.1446)"><path
             d="m 0,0 c 0,0 -0.306,-0.027 -0.996,-0.14 -0.586,5.726 -2.244,13.64 -6.68,15.297 -8.052,3.092 -22.611,5.757 -40.185,-1.95 -1.944,2.517 -2.963,4.412 -2.963,4.412 20.43,10.512 36.69,6.425 43.741,3.737 C 0.046,18.654 0,0 0,0"
             style="fill:#623b23;fill-opacity:1;fill-rule:nonzero;stroke:none"
             id="path98"
             inkscape:connector-curvature="0" /></g><g
           id="g100"
           transform="translate(366.0859,496.4522)"><path
             d="m 0,0 c 0,0 -8.488,-15.723 -22.081,-17.069 -13.594,-1.361 -28.151,1.104 -28.151,1.104 0,0 0.373,15.632 7.396,18.081 C -35.813,4.579 -20.586,7.56 0,0"
             style="fill:#ffffff;fill-opacity:1;fill-rule:nonzero;stroke:none"
             id="path102"
             inkscape:connector-curvature="0" /></g><g
           id="g104"
           transform="translate(324.5107,490.9952)"><path
             d="M 0,0 C 0.727,-6.521 6.994,-11.467 13.982,-11.061 20.991,-10.653 26.066,-5.027 25.34,1.477 24.612,8.015 18.346,12.961 11.348,12.555 4.349,12.148 -0.746,6.521 0,0"
             style="fill:#2d1e16;fill-opacity:1;fill-rule:nonzero;stroke:none"
             id="path106"
             inkscape:connector-curvature="0" /></g><g
           id="g108"
           transform="translate(337.6279,485.0616)"><path
             d="M 0,0 C 2.599,0.151 5.23,2.768 4.867,6.087 4.494,9.392 1.306,11.677 -1.292,11.526 -3.89,11.377 -6.522,8.742 -6.158,5.439 -5.784,2.137 -2.597,-0.15 0,0"
             style="fill:#191e22;fill-opacity:1;fill-rule:nonzero;stroke:none"
             id="path110"
             inkscape:connector-curvature="0" /></g><g
           id="g112"
           transform="translate(315.8369,480.5469)"><path
             d="m 0,0 c 0,0 0.307,-0.047 0.999,-0.184 0.387,5.66 1.77,13.419 6.164,14.922 6.525,2.322 21.18,5.619 40.26,-3.069 1.869,2.443 2.826,4.28 2.826,4.28 C 29.446,26.919 13.314,23.34 6.356,20.89 -0.684,18.426 0,0 0,0"
             style="fill:#915533;fill-opacity:1;fill-rule:nonzero;stroke:none"
             id="path114"
             inkscape:connector-curvature="0" /></g><g
           id="g116"
           transform="translate(288.9033,445.5518)"><path
             d="m 0,0 c -0.214,4.383 8.024,1.602 10.74,1.465 2.147,-0.111 8.677,1.381 9.238,0.997 3.84,-2.599 -4.07,-7.831 -9.374,-7.831 C 9.19,-5.369 0.128,-2.643 0,0"
             style="fill:#915533;fill-opacity:1;fill-rule:nonzero;stroke:none"
             id="path118"
             inkscape:connector-curvature="0" /></g><g
           id="g120"
           transform="translate(273.5664,516.7999)"><path
             d="m 0,0 c -0.075,0.118 -1.912,2.918 -5.666,5.806 -2.352,1.809 -4.656,3.186 -7.048,4.213 -2.906,1.225 -6.036,2.091 -9.068,2.507 -2.742,0.305 -5.781,0.224 -9.328,-0.255 -2.707,-0.516 -5.348,-1.324 -7.589,-2.315 -1.598,-0.553 -2.86,-1.328 -3.874,-1.951 -0.389,-0.239 -0.74,-0.456 -1.098,-0.649 l -4.833,-3.047 5.57,1.312 c 0.26,0.066 0.54,0.14 0.842,0.22 1.153,0.306 2.587,0.688 4.269,0.935 0.393,0.058 0.794,0.138 1.202,0.22 0.701,0.14 1.426,0.284 2.184,0.32 0.844,0.057 1.719,0.121 2.619,0.185 l 1.17,0.085 c 3.085,0.038 5.69,-0.196 8.005,-0.731 2.531,-0.438 5.131,-1.256 7.516,-2.365 2.251,-1.081 4.41,-2.153 6.095,-3.393 3.403,-2.279 5.296,-4.178 5.314,-4.197 l 0,-10e-4 c 0.468,-0.471 1.093,-0.714 1.721,-0.714 0.457,0 0.916,0.128 1.317,0.394 1.121,0.735 1.436,2.253 0.723,3.347 L 0,0 Z"
             style="fill:#231f20;fill-opacity:1;fill-rule:nonzero;stroke:none"
             id="path122"
             inkscape:connector-curvature="0" /></g><g
           id="g124"
           transform="translate(368.4873,524.1797)"><path
             d="m 0,0 c -0.319,0.17 -0.672,0.387 -1.061,0.626 -1.013,0.623 -2.276,1.398 -3.826,1.932 -2.289,1.009 -4.928,1.817 -7.669,2.339 -3.515,0.475 -6.555,0.556 -9.309,0.248 -3.017,-0.415 -6.148,-1.281 -9.058,-2.506 -2.357,-1.012 -4.727,-2.429 -7.045,-4.213 -3.685,-2.834 -5.518,-5.586 -5.657,-5.797 l -0.034,-0.051 c -0.622,-0.96 -0.488,-2.247 0.316,-3.057 0.458,-0.463 1.067,-0.718 1.714,-0.718 l 0.002,0 c 0.648,10e-4 1.255,0.256 1.712,0.718 l 0.019,0.021 c 0.18,0.178 2.018,1.98 5.318,4.191 1.658,1.222 3.818,2.295 6.063,3.375 2.394,1.111 4.995,1.93 7.558,2.374 2.282,0.529 4.892,0.758 7.936,0.726 l 1.228,-0.088 c 0.893,-0.064 1.76,-0.126 2.608,-0.183 0.748,-0.036 1.472,-0.18 2.173,-0.321 0.409,-0.082 0.809,-0.161 1.201,-0.219 1.683,-0.247 3.118,-0.628 4.27,-0.935 0.302,-0.08 0.582,-0.155 0.85,-0.222 L 4.877,-3.072 0,0 Z"
             style="fill:#231f20;fill-opacity:1;fill-rule:nonzero;stroke:none"
             id="path126"
             inkscape:connector-curvature="0" /></g></g></g></g></svg>