<?xml version="1.0" encoding="UTF-8" standalone="no"?>
<!-- Created with Inkscape (http://www.inkscape.org/) -->

<svg
   xmlns:dc="http://purl.org/dc/elements/1.1/"
   xmlns:cc="http://creativecommons.org/ns#"
   xmlns:rdf="http://www.w3.org/1999/02/22-rdf-syntax-ns#"
   xmlns:svg="http://www.w3.org/2000/svg"
   xmlns="http://www.w3.org/2000/svg"
   xmlns:sodipodi="http://sodipodi.sourceforge.net/DTD/sodipodi-0.dtd"
   xmlns:inkscape="http://www.inkscape.org/namespaces/inkscape"
   id="svg4337"
   version="1.1"
   inkscape:version="0.91 r13725"
   xml:space="preserve"
   width="400"
   height="600"
   viewBox="0 0 400 600"
   sodipodi:docname="anna.svg"
   inkscape:export-filename="/home/alec/Projects/Brookings/out-of-work/data/avatars/anna.png"
   inkscape:export-xdpi="90"
   inkscape:export-ydpi="90"><metadata
     id="metadata4343"><rdf:RDF><cc:Work
         rdf:about=""><dc:format>image/svg+xml</dc:format><dc:type
           rdf:resource="http://purl.org/dc/dcmitype/StillImage" /><dc:title /></cc:Work></rdf:RDF></metadata><defs
     id="defs4341"><clipPath
       clipPathUnits="userSpaceOnUse"
       id="clipPath4351"><path
         d="M 0,792 612,792 612,0 0,0 0,792 Z"
         id="path4353"
         inkscape:connector-curvature="0" /></clipPath><clipPath
       clipPathUnits="userSpaceOnUse"
       id="clipPath4375"><path
         d="M 0,792 612,792 612,0 0,0 0,792 Z"
         id="path4377"
         inkscape:connector-curvature="0" /></clipPath><clipPath
       clipPathUnits="userSpaceOnUse"
       id="clipPath4395"><path
         d="m 273.41,354.41 57.605,0 0,34.133 -57.605,0 0,-34.133 z"
         id="path4397"
         inkscape:connector-curvature="0" /></clipPath><clipPath
       clipPathUnits="userSpaceOnUse"
       id="clipPath4407"><path
         d="M 0,792 612,792 612,0 0,0 0,792 Z"
         id="path4409"
         inkscape:connector-curvature="0" /></clipPath></defs><sodipodi:namedview
     pagecolor="#ffffff"
     bordercolor="#666666"
     borderopacity="1"
     objecttolerance="10"
     gridtolerance="10"
     guidetolerance="10"
     inkscape:pageopacity="0"
     inkscape:pageshadow="2"
     inkscape:window-width="1808"
     inkscape:window-height="846"
     id="namedview4339"
     showgrid="false"
     inkscape:zoom="0.33712566"
     inkscape:cx="-406.92155"
     inkscape:cy="646.58248"
     inkscape:window-x="72"
     inkscape:window-y="37"
     inkscape:window-maximized="0"
     inkscape:current-layer="g4345" /><g
     id="g4345"
     inkscape:groupmode="layer"
     inkscape:label="AvatarsR2"
     transform="matrix(1.25,0,0,-1.25,0,600)"><text
       transform="scale(1,-1)"
       style="font-variant:normal;font-weight:300;font-stretch:normal;font-size:13px;font-family:Interstate-Light;-inkscape-font-specification:Interstate-Light;writing-mode:lr-tb;fill:#231f20;fill-opacity:1;fill-rule:nonzero;stroke:none"
       id="text4363"
       x="121.85469"
       y="87.31028"><tspan
         x="121.85469 132.09869 139.39299 144.22899 147.49199 153.91399 160.92099 165.49829 172.5183 179.78529 182.90529 186.28529 197.30928 204.66728 211.93428 218.95428 223.79028 230.79729 235.37329 242.39328 245.65628 252.5593 255.93929 262.95929 270.22629 277.59729 283.81128 290.81827 295.39429 302.41428 309.68127 313.06128 319.63928 326.99728 334.36829 341.73929 349.00629 356.02628 361.31729 364.6973 371.96429 377.25528 380.51828 391.54227 398.56229 402.55197 409.55899 416.82599 423.84598 427.22598 434.49298 441.51297 448.87097 456.13797 459.40097"
         y="87.31028"
         sodipodi:role="line"
         id="tspan4365">Motivated, moderately educated younger prime-age people</tspan></text>
<text
       transform="scale(1,-1)"
       style="font-variant:normal;font-weight:normal;font-stretch:normal;font-size:34px;font-family:'Myriad Pro';-inkscape-font-specification:MyriadPro-Regular;writing-mode:lr-tb;fill:#231f20;fill-opacity:1;fill-rule:nonzero;stroke:none"
       id="text4367"
       x="256.71799"
       y="124.31028"><tspan
         x="256.71799 277.42398 296.29398 315.164 331.552"
         y="124.31028"
         sodipodi:role="line"
         id="tspan4369">Anna </tspan></text>
<g
       id="g5140"
       transform="matrix(0.94848435,0,0,0.94848435,-126.20334,-191.98975)"><g
         id="g4347"><g
           clip-path="url(#clipPath4351)"
           id="g4349"><g
             transform="translate(303.1846,515.7663)"
             id="g4355"><path
               inkscape:connector-curvature="0"
               id="path4357"
               style="fill:#533a16;fill-opacity:1;fill-rule:nonzero;stroke:none"
               d="m 0,0 c 4.252,-14.251 9.124,-30.533 18.248,-46.823 9.133,-16.274 36.871,-37.237 37.826,-59.562 2.078,-47.914 -65.811,-70.692 -93.192,-78.837 -27.388,-8.137 -36.504,-8.941 -39.546,-20.757 -3.049,-11.807 -0.549,-31.504 -0.549,-31.504 0,0 -23.065,12.611 -29.57,22.269 -13.988,20.748 1.321,34.872 1.321,34.872 0,0 5.669,-4.88 -1.018,-15.868 -6.705,-10.987 -6.705,-20.756 -4.268,-23.606 2.436,-2.858 10.955,-11.807 10.955,-11.807 0,0 -42.301,11.998 -34.076,46.401 1.417,5.891 5.278,1.584 0,0 -11.76,-3.511 -9.554,-22.93 -9.554,-22.93 0,0 -28.686,37.157 29.427,58.185 5.525,2.006 35.461,9.41 38.543,34.148 1.72,13.726 -8.313,14.928 -10.144,31.695 -2.381,21.704 28.702,17.134 40.653,37.588 2.269,3.885 -8.973,6.09 0,16.656 10.843,12.762 14.833,11.759 30.334,19.291 C 0.907,-3.057 0,0 0,0" /></g><g
             transform="translate(300.3106,498.0993)"
             id="g4359"><path
               inkscape:connector-curvature="0"
               id="path4361"
               style="fill:#533a16;fill-opacity:1;fill-rule:nonzero;stroke:none"
               d="m 0,0 c -4.244,-14.251 -9.116,-30.533 -18.24,-46.823 -9.133,-16.274 -36.879,-37.229 -37.835,-59.562 -2.07,-47.914 65.812,-70.693 93.2,-78.837 27.381,-8.137 36.497,-8.942 39.547,-20.757 3.049,-11.807 0.549,-31.504 0.549,-31.504 0,0 23.065,12.611 29.57,22.277 13.988,20.74 -1.322,34.864 -1.322,34.864 0,0 -5.668,-4.88 1.011,-15.867 6.704,-10.987 6.704,-20.757 4.268,-23.607 -2.436,-2.859 -10.947,-11.807 -10.947,-11.807 0,0 42.301,11.998 34.068,46.401 -1.409,5.891 -5.271,1.584 0,0 11.767,-3.511 9.554,-22.93 9.554,-22.93 0,0 28.686,37.157 -29.419,58.184 -5.533,2.007 -35.47,9.411 -38.551,34.148 -1.72,13.726 8.32,14.928 10.151,31.696 2.365,21.704 -28.702,17.134 -40.652,37.587 -2.277,3.886 8.973,6.091 0,16.657 C 34.108,-17.118 30.119,-18.121 14.609,-10.597 -0.908,-3.058 0,0 0,0" /></g></g></g><g
         id="g4371"><g
           clip-path="url(#clipPath4375)"
           id="g4373"><g
             transform="translate(302.0811,423.5026)"
             id="g4379"><path
               inkscape:connector-curvature="0"
               id="path4381"
               style="fill:#e4c099;fill-opacity:1;fill-rule:nonzero;stroke:none"
               d="m 0,0 0,-191.533 -103.997,0 c -1.673,0.708 -2.545,1.089 -2.545,1.089 0,102.736 63.652,110.433 63.652,110.433 6.359,0 10.445,8.163 13.122,20.576 0.436,1.892 0.801,3.861 1.097,5.977 0.592,3.495 1.098,7.246 1.448,11.106 0.234,2.342 0.444,4.685 0.669,7.059 0.942,11.774 1.222,24.553 1.222,36.663 C -25.332,1.37 -11.308,0 0,0" /></g><g
             transform="translate(408.9883,233.0583)"
             id="g4383"><path
               inkscape:connector-curvature="0"
               id="path4385"
               style="fill:#f1cd9f;fill-opacity:1;fill-rule:nonzero;stroke:none"
               d="m 0,0 c 0,0 -0.965,-0.381 -2.49,-1.089 l -104.417,0 0,191.533 0.21,0 c 11.292,0 25.394,1.37 25.394,1.37 0,-12.04 0.28,-24.67 1.214,-36.329 0.234,-2.342 0.451,-4.677 0.646,-6.942 0.459,-4.015 0.88,-7.805 1.47,-11.408 l 0,-0.071 c 0.226,-1.603 0.522,-3.05 0.818,-4.537 2.677,-13.183 6.895,-22.094 13.487,-22.094 C -63.668,110.433 0,102.736 0,0" /></g><g
             transform="translate(409.6494,447.8302)"
             id="g4387"><path
               inkscape:connector-curvature="0"
               id="path4389"
               style="fill:#f1cd9f;fill-opacity:1;fill-rule:nonzero;stroke:none"
               d="M 0,0 C 0,1.744 1.486,3.23 3.308,3.23 5.051,3.23 6.515,1.744 6.515,0 6.515,-1.751 5.051,-3.198 3.308,-3.198 1.486,-3.198 0,-1.751 0,0 m -107.374,195.308 0,-274.237 0.778,0 c 40.197,0 92.02,28.67 101.078,78.408 -0.078,-0.218 -0.155,-1.37 0.149,-2.265 1.665,-4.016 9.198,-8.179 14.498,-3.424 4.67,4.241 1.619,12.187 1.821,12.335 7.751,5.269 15.534,13.3 16.413,23.814 C 29.192,52.524 6.864,56.905 -0.7,42.57 4.156,103.04 3.604,195.308 -106.596,195.308 l -0.778,0 z" /></g></g></g><g
         id="g4391"><g
           clip-path="url(#clipPath4395)"
           id="g4393"><g
             transform="translate(331.0157,370.193)"
             id="g4399"><path
               inkscape:connector-curvature="0"
               id="path4401"
               style="fill:#bd9275;fill-opacity:1;fill-rule:nonzero;stroke:none"
               d="m 0,0 0,-0.07 c -2.561,-4.086 -11.386,-15.713 -28.795,-15.713 l -0.155,0 c -16.538,0.07 -26.165,12.148 -28.655,15.635 0.591,3.494 1.097,7.245 1.448,11.106 0.233,2.342 0.443,4.685 0.669,7.058 8.093,-2.008 16.841,-3.268 26.265,-3.424 l 0.273,0 c 9.635,0.156 18.538,1.455 26.834,3.759 0.233,-2.343 0.451,-4.678 0.669,-6.942 C -1.012,7.393 -0.591,3.603 0,0" /></g></g></g><g
         id="g4403"><g
           clip-path="url(#clipPath4407)"
           id="g4405"><g
             transform="translate(192.4805,444.632)"
             id="g4411"><path
               inkscape:connector-curvature="0"
               id="path4413"
               style="fill:#e4c099;fill-opacity:1;fill-rule:nonzero;stroke:none"
               d="m 0,0 c -1.743,0 -3.19,1.447 -3.19,3.198 0,1.744 1.447,3.191 3.19,3.191 1.821,0 3.308,-1.447 3.308,-3.191 C 3.308,1.447 1.821,0 0,0 M 109.904,198.545 C -0.272,198.545 -0.848,106.238 4.016,45.769 -3.557,60.104 -25.876,55.691 -24.032,33.137 -23.184,22.624 -15.378,14.592 -7.634,9.323 -7.416,9.175 -10.498,1.229 -5.821,-3.012 -0.482,-7.767 7.005,-3.604 8.686,0.412 c 0.288,0.895 0.217,2.047 0.139,2.265 9.06,-49.738 60.906,-78.408 101.079,-78.408 l 0.817,0 0,274.276 -0.817,0 z" /></g><g
             transform="translate(175.461,487.3107)"
             id="g4415"><path
               inkscape:connector-curvature="0"
               id="path4417"
               style="fill:#bd9275;fill-opacity:1;fill-rule:nonzero;stroke:none"
               d="m 0,0 c 5.447,8.693 13.829,4.942 15.907,3.051 2.187,-2.117 3.93,-4.864 2.576,-10.04 -0.762,-2.895 -3.797,-3.105 -3.058,-7.533 0.816,-4.934 3.112,-5.238 4.412,-6.39 1.276,-1.112 2.895,-1.968 3.705,-4.077 0.785,-2.086 0.934,-4.312 0.482,-6.211 -0.833,-3.564 -6.024,-0.747 -9.495,0.856 -2.272,1.043 -9.541,7.207 -11.378,9.246 C -1.486,-15.861 -3.643,-5.829 0,0" /></g><g
             transform="translate(301.419,617.1765)"
             id="g4419"><path
               inkscape:connector-curvature="0"
               id="path4421"
               style="fill:#e4c099;fill-opacity:1;fill-rule:nonzero;stroke:none"
               d="m 0,0 c -36.242,0 -62.765,-10.553 -78.836,-31.348 -22.421,-29.06 -21.564,-73.443 -13.292,-105.312 2.537,-9.736 3.829,-35.993 5.572,-45.62 7.829,-43.084 55.286,-66.042 86.556,-66.042 0.257,0 0.561,0.047 0.856,0.047 l 0,248.236 C 0.561,-0.039 0.296,0 0,0" /></g><g
             transform="translate(380.0918,585.7897)"
             id="g4423"><path
               inkscape:connector-curvature="0"
               id="path4425"
               style="fill:#f1cd9f;fill-opacity:1;fill-rule:nonzero;stroke:none"
               d="m 0,0 c -15.954,20.647 -42.173,31.161 -77.816,31.348 l 0,-248.237 c 35.682,0.397 78.337,25.511 85.676,65.995 1.744,9.627 3.043,35.885 5.557,45.621 C 21.674,-73.513 22.483,-29.161 0,0" /></g><g
             transform="translate(409.6494,447.8302)"
             id="g4427"><path
               inkscape:connector-curvature="0"
               id="path4429"
               style="fill:#97359f;fill-opacity:1;fill-rule:nonzero;stroke:none"
               d="M 0,0 C 0,1.744 1.486,3.23 3.308,3.23 5.051,3.23 6.515,1.744 6.515,0 6.515,-1.751 5.051,-3.198 3.308,-3.198 1.486,-3.198 0,-1.751 0,0 m -3.634,0 c 0,-3.79 3.152,-6.872 6.942,-6.872 3.79,0 6.856,3.082 6.856,6.872 0,3.782 -3.066,6.864 -6.856,6.864 -3.79,0 -6.942,-3.082 -6.942,-6.864" /></g><g
             transform="translate(429.8213,487.3107)"
             id="g4431"><path
               inkscape:connector-curvature="0"
               id="path4433"
               style="fill:#bd9275;fill-opacity:1;fill-rule:nonzero;stroke:none"
               d="m 0,0 c -5.447,8.693 -13.829,4.942 -15.899,3.051 -2.187,-2.117 -3.938,-4.864 -2.583,-10.04 0.762,-2.895 3.797,-3.105 3.081,-7.533 -0.817,-4.934 -3.097,-5.238 -4.436,-6.39 -1.261,-1.112 -2.888,-1.968 -3.704,-4.077 -0.771,-2.086 -0.935,-4.312 -0.482,-6.211 0.847,-3.564 6.039,-0.747 9.494,0.856 2.296,1.043 9.564,7.207 11.385,9.246 C 1.495,-15.861 3.643,-5.829 0,0" /></g><g
             transform="translate(385.2832,231.9382)"
             id="g4435"><path
               inkscape:connector-curvature="0"
               id="path4437"
               style="fill:#65339b;fill-opacity:1;fill-rule:nonzero;stroke:none"
               d="m 0,0 -166.42,0 c 0.436,6.537 1.098,16.117 1.767,21.323 2.972,24.881 20.864,29.566 19.759,83.093 -0.023,0.857 0.569,1.526 0.872,2.265 l 17.651,5.619 0,-0.863 c 0.202,-7.168 1.377,-53.684 2.591,-66.455 0.825,-9.136 22.118,-30.102 40.578,-30.779 18.444,0.677 39.659,21.643 40.523,30.779 1.175,12.849 2.358,59.808 2.491,66.493 0.069,0.529 0.069,0.825 0.069,0.825 l 17.636,-5.619 c 0.225,-0.583 0.521,-1.261 0.747,-1.891 C -21.185,47.994 -4.896,46.352 -1.735,21.323 -1.113,16.117 -0.444,6.537 0,0" /></g><g
             transform="translate(425.8604,414.2882)"
             id="g4439"><path
               inkscape:connector-curvature="0"
               id="path4441"
               style="fill:#97359f;fill-opacity:1;fill-rule:nonzero;stroke:none"
               d="m 0,0 -25.876,0 c -1.689,0 -3.043,1.362 -3.043,3.035 0,0.918 0.365,1.471 0.365,1.471 0,0 0.163,0.257 0.171,0.257 l 0.172,0.264 0.334,0.545 7.588,12.086 14.678,0 7.868,-12.537 c 0,0 0.778,-1.144 0.778,-2.086 C 3.035,1.362 1.674,0 0,0 M 5.199,7.035 -7.347,27.028 c -0.054,0.086 -0.124,0.187 -0.186,0.296 -1.206,1.782 -3.238,2.872 -5.417,2.872 -2.155,0 -4.163,-1.059 -5.385,-2.833 -0.102,-0.156 -0.21,-0.319 -0.304,-0.483 l -7.215,-11.494 -4.98,-7.938 -0.35,-0.553 -0.171,-0.265 0.007,0 c 0,0 -0.062,-0.093 -0.092,-0.132 -0.67,-0.949 -0.99,-2.226 -0.99,-3.463 0,-3.603 2.935,-6.553 6.554,-6.553 l 25.876,0 c 3.611,0 6.545,2.95 6.545,6.553 0,1.805 -0.981,3.447 -1.346,4" /></g><g
             transform="translate(189.2979,447.8302)"
             id="g4443"><path
               inkscape:connector-curvature="0"
               id="path4445"
               style="fill:#97359f;fill-opacity:1;fill-rule:nonzero;stroke:none"
               d="M 0,0 C 0,1.744 1.479,3.23 3.3,3.23 5.051,3.23 6.514,1.744 6.514,0 6.514,-1.751 5.051,-3.198 3.3,-3.198 1.479,-3.198 0,-1.751 0,0 m -3.635,0 c 0,-3.79 3.153,-6.872 6.935,-6.872 3.798,0 6.864,3.082 6.864,6.872 0,3.782 -3.066,6.864 -6.864,6.864 -3.782,0 -6.935,-3.082 -6.935,-6.864" /></g><g
             transform="translate(205.5088,414.2882)"
             id="g4447"><path
               inkscape:connector-curvature="0"
               id="path4449"
               style="fill:#97359f;fill-opacity:1;fill-rule:nonzero;stroke:none"
               d="m 0,0 -25.877,0 c -1.688,0 -3.043,1.362 -3.043,3.035 0,0.918 0.366,1.471 0.366,1.471 l 0.171,0.257 0.171,0.264 0.335,0.545 7.588,12.086 14.678,0 7.86,-12.537 c 0,0 0.786,-1.144 0.786,-2.086 C 3.035,1.362 1.673,0 0,0 M 5.198,7.035 -7.347,27.028 c -0.054,0.086 -0.125,0.187 -0.186,0.296 -1.215,1.782 -3.238,2.872 -5.417,2.872 -2.155,0 -4.171,-1.059 -5.386,-2.833 -0.101,-0.156 -0.21,-0.319 -0.303,-0.483 l -7.222,-11.494 -4.973,-7.938 -0.351,-0.553 -0.17,-0.265 0.007,0 c 0,0 -0.062,-0.093 -0.093,-0.132 -0.669,-0.949 -0.989,-2.226 -0.989,-3.463 0,-3.603 2.935,-6.553 6.553,-6.553 l 25.877,0 c 3.611,0 6.537,2.95 6.537,6.553 0,1.805 -0.973,3.447 -1.339,4" /></g><g
             transform="translate(331.2803,414.3971)"
             id="g4451"><path
               inkscape:connector-curvature="0"
               id="path4453"
               style="fill:#c75469;fill-opacity:1;fill-rule:nonzero;stroke:none"
               d="m 0,0 c 0,0 -12.576,-13.472 -28.079,-13.472 -15.494,0 -27.362,13.207 -27.362,13.207 0,0 11.868,2.024 27.362,2.024 C -12.576,1.759 0,0 0,0" /></g><g
             transform="translate(311.1475,420.6232)"
             id="g4455"><path
               inkscape:connector-curvature="0"
               id="path4457"
               style="fill:#d85b6c;fill-opacity:1;fill-rule:nonzero;stroke:none"
               d="M 0,0 C -4.358,0 -7.868,-2.724 -7.946,-6.102 -8.039,-2.724 -11.525,0 -15.892,0 c -4.389,0 -20.133,-6.226 -20.133,-6.226 0,0 15.347,-1.603 19.72,-1.603 4.398,0 8.266,-1.736 8.359,1.51 0.054,-3.277 3.215,-2.001 7.588,-2.001 4.389,0 20.491,2.094 20.491,2.094 C 20.133,-6.226 4.405,0 0,0" /></g><g
             transform="translate(215.7666,505.1056)"
             id="g4459"><path
               inkscape:connector-curvature="0"
               id="path4461"
               style="fill:#ffffff;fill-opacity:1;fill-rule:nonzero;stroke:none"
               d="m 0,0 c 0,0 10.942,-21.741 27.667,-23.972 16.724,-2.252 34.515,0.711 34.515,0.711 0,0 -2.058,20.659 -10.759,24.195 C 42.719,4.488 25.423,10.661 0,0" /></g><g
             transform="translate(263.5918,496.3825)"
             id="g4463"><path
               inkscape:connector-curvature="0"
               id="path4465"
               style="fill:#55301b;fill-opacity:1;fill-rule:nonzero;stroke:none"
               d="m 0,0 c -0.791,-8.528 -8.105,-14.946 -16.332,-14.331 -8.236,0.594 -14.257,8 -13.465,16.507 0.791,8.528 8.106,14.968 16.343,14.352 C -5.238,15.913 0.802,8.527 0,0" /></g><g
             transform="translate(248.2363,488.7336)"
             id="g4467"><path
               inkscape:connector-curvature="0"
               id="path4469"
               style="fill:#191e22;fill-opacity:1;fill-rule:nonzero;stroke:none"
               d="m 0,0 c -3.052,0.22 -6.172,3.692 -5.775,8.022 0.405,4.309 4.129,7.275 7.181,7.057 C 4.46,14.858 7.589,11.385 7.183,7.056 6.777,2.748 3.065,-0.22 0,0" /></g><g
             transform="translate(277.9678,481.9044)"
             id="g4471"><path
               inkscape:connector-curvature="0"
               id="path4473"
               style="fill:#100f0d;fill-opacity:1;fill-rule:nonzero;stroke:none"
               d="m 0,0 c 0,0 -0.375,-0.04 -1.224,-0.198 -0.661,7.721 -2.614,18.384 -8.042,20.576 -8.081,3.356 -26.186,8.274 -49.335,-3.042 -2.358,3.377 -3.59,5.925 -3.59,5.925 25.179,14.395 45.091,9.044 53.716,5.489 C 0.246,25.176 0,0 0,0" /></g><g
             transform="translate(390.6621,503.7633)"
             id="g4475"><path
               inkscape:connector-curvature="0"
               id="path4477"
               style="fill:#ffffff;fill-opacity:1;fill-rule:nonzero;stroke:none"
               d="m 0,0 c 0,0 -10.576,-21.306 -27.271,-23.261 -16.696,-1.975 -34.536,1.204 -34.536,1.204 0,0 2.01,20.936 10.655,24.313 C -42.51,5.652 -25.14,10.878 0,0" /></g><g
             transform="translate(339.586,495.9748)"
             id="g4479"><path
               inkscape:connector-curvature="0"
               id="path4481"
               style="fill:#55301b;fill-opacity:1;fill-rule:nonzero;stroke:none"
               d="m 0,0 c 0.826,-8.793 8.466,-15.404 17.047,-14.785 8.605,0.621 14.89,8.266 14.064,17.036 C 30.286,11.067 22.646,17.68 14.054,17.059 5.461,16.439 -0.85,8.794 0,0" /></g><g
             transform="translate(355.6231,488.1007)"
             id="g4483"><path
               inkscape:connector-curvature="0"
               id="path4485"
               style="fill:#191e22;fill-opacity:1;fill-rule:nonzero;stroke:none"
               d="M 0,0 C 3.19,0.23 6.447,3.788 6.035,8.265 5.61,12.72 1.722,15.772 -1.469,15.543 -4.657,15.314 -7.915,11.732 -7.502,7.278 -7.077,2.825 -3.188,-0.229 0,0" /></g><g
             transform="translate(328.836,481.7858)"
             id="g4487"><path
               inkscape:connector-curvature="0"
               id="path4489"
               style="fill:#100f0d;fill-opacity:1;fill-rule:nonzero;stroke:none"
               d="m 0,0 c 0,0 0.375,-0.06 1.224,-0.238 0.532,7.643 2.308,18.128 7.715,20.201 8.033,3.2 26.049,7.8 49.375,-3.732 2.319,3.317 3.512,5.805 3.512,5.805 C 36.409,36.63 16.576,31.634 8.013,28.257 -0.651,24.86 0,0 0,0" /></g><g
             transform="translate(289.9873,456.2809)"
             id="g4491"><path
               inkscape:connector-curvature="0"
               id="path4493"
               style="fill:#bd9275;fill-opacity:1;fill-rule:nonzero;stroke:none"
               d="M 0,0 C -0.246,5.043 9.235,1.843 12.36,1.685 14.83,1.559 22.345,3.274 22.99,2.833 27.41,-0.157 18.308,-6.18 12.203,-6.18 10.577,-6.18 0.147,-3.042 0,0" /></g><g
             transform="translate(275.8907,518.9958)"
             id="g4495"><path
               inkscape:connector-curvature="0"
               id="path4497"
               style="fill:#6c5a46;fill-opacity:1;fill-rule:nonzero;stroke:none"
               d="m 0,0 c -0.087,0.135 -2.183,3.331 -6.467,6.626 -2.684,2.066 -5.314,3.638 -8.044,4.809 -3.316,1.398 -6.889,2.386 -10.349,2.861 -3.13,0.349 -6.599,0.256 -10.646,-0.29 -3.09,-0.59 -6.103,-1.512 -8.661,-2.643 -1.824,-0.63 -3.265,-1.515 -4.422,-2.227 -0.443,-0.273 -0.845,-0.519 -1.252,-0.74 L -55.357,4.917 -49,6.416 c 0.296,0.075 0.616,0.159 0.961,0.251 1.314,0.35 2.952,0.786 4.871,1.068 0.449,0.065 0.906,0.156 1.373,0.25 0.799,0.16 1.626,0.325 2.493,0.366 0.963,0.065 1.961,0.136 2.988,0.21 l 1.334,0.097 c 3.522,0.044 6.496,-0.223 9.138,-0.834 2.887,-0.5 5.856,-1.434 8.577,-2.699 2.57,-1.233 5.034,-2.457 6.956,-3.873 3.884,-2.6 6.044,-4.768 6.066,-4.789 l 0,-10e-4 c 0.533,-0.538 1.246,-0.816 1.964,-0.816 0.521,0 1.046,0.147 1.503,0.45 1.279,0.84 1.638,2.571 0.825,3.82 L 0,0 Z" /></g><g
             transform="translate(378.6846,526.6906)"
             id="g4499"><path
               inkscape:connector-curvature="0"
               id="path4501"
               style="fill:#6c5a46;fill-opacity:1;fill-rule:nonzero;stroke:none"
               d="m 0,0 c -0.364,0.194 -0.767,0.441 -1.211,0.714 -1.156,0.712 -2.597,1.597 -4.366,2.205 -2.612,1.153 -5.625,2.074 -8.752,2.67 -4.013,0.541 -7.483,0.635 -10.625,0.283 -3.443,-0.473 -7.017,-1.461 -10.338,-2.861 -2.689,-1.155 -5.395,-2.772 -8.039,-4.807 -4.207,-3.235 -6.3,-6.376 -6.457,-6.617 l -0.039,-0.057 c -0.71,-1.097 -0.558,-2.565 0.36,-3.489 0.524,-0.53 1.218,-0.82 1.957,-0.82 l 0.002,0 c 0.738,10e-4 1.432,0.292 1.953,0.82 l 0.023,0.023 c 0.205,0.204 2.303,2.261 6.068,4.784 1.894,1.394 4.359,2.62 6.921,3.851 2.731,1.268 5.701,2.202 8.625,2.71 2.605,0.603 5.583,0.865 9.059,0.828 l 1.401,-0.1 c 1.018,-0.074 2.007,-0.144 2.976,-0.209 0.853,-0.041 1.68,-0.206 2.48,-0.365 0.466,-0.094 0.922,-0.185 1.371,-0.251 1.92,-0.282 3.558,-0.718 4.873,-1.068 0.343,-0.091 0.664,-0.177 0.97,-0.253 L 5.565,-3.507 0,0 Z" /></g><g
             transform="translate(419.9356,585.6867)"
             id="g4503"><path
               inkscape:connector-curvature="0"
               id="path4505"
               style="fill:#533a16;fill-opacity:1;fill-rule:nonzero;stroke:none"
               d="m 0,0 c -1.361,4.355 -2.795,8.392 -4.251,12.293 l 0,1.664 c 0,16.417 -13.393,37.714 -34.682,58.407 -21.297,20.685 -34.689,16.425 -52.34,15.82 0,0 -0.048,-0.119 -0.136,-0.334 -7.738,1.799 -49.387,10.748 -74.163,0.844 -27.381,-10.948 -49.809,-29.761 -65.629,-80.271 -15.828,-50.493 -2.826,-91.87 0.23,-109.514 9.706,-55.891 56.354,-91.281 56.354,-91.281 0,0 -11.776,14.928 -17.038,29.817 -4.084,11.544 -10.183,31.377 -10.183,60.581 0,29.211 26.616,65.373 26.616,65.373 0,0 -12.277,-22.691 -14.698,-47.634 -2.444,-24.953 10.431,-44.244 10.431,-44.244 0,0 -16.306,32.404 9.745,56.592 8.288,7.691 15.207,15.733 20.804,23.057 0,-0.016 -0.008,-0.04 -0.008,-0.04 -6.553,-19.131 6.584,-35.191 6.584,-35.191 0,0 -0.239,24.523 13.352,32.851 33.105,20.302 38.367,28.686 43.033,45.016 0.645,2.237 1.003,4.291 1.243,6.281 l 30.254,-47.245 c 1.417,-2.054 3.726,-5.533 6.417,-10.024 7.85,-13.097 18.702,-34.553 18.702,-53.216 0,-29.211 -6.099,-49.044 -10.183,-60.581 -5.263,-14.897 -17.038,-29.816 -17.038,-29.816 0,0 46.647,35.381 56.346,91.281 C 2.835,-91.879 15.828,-50.51 0,0" /></g></g></g></g></g></svg>