<?xml version="1.0" encoding="UTF-8" standalone="no"?>
<!-- Created with Inkscape (http://www.inkscape.org/) -->

<svg
   xmlns:dc="http://purl.org/dc/elements/1.1/"
   xmlns:cc="http://creativecommons.org/ns#"
   xmlns:rdf="http://www.w3.org/1999/02/22-rdf-syntax-ns#"
   xmlns:svg="http://www.w3.org/2000/svg"
   xmlns="http://www.w3.org/2000/svg"
   xmlns:sodipodi="http://sodipodi.sourceforge.net/DTD/sodipodi-0.dtd"
   xmlns:inkscape="http://www.inkscape.org/namespaces/inkscape"
   id="svg2"
   version="1.1"
   inkscape:version="0.91 r13725"
   xml:space="preserve"
   width="400"
   height="600"
   viewBox="0 0 400 600"
   sodipodi:docname="bernadette.svg"
   inkscape:export-filename="/home/alec/Projects/Brookings/out-of-work/data/avatars/bernadette.png"
   inkscape:export-xdpi="90"
   inkscape:export-ydpi="90"><metadata
     id="metadata8"><rdf:RDF><cc:Work
         rdf:about=""><dc:format>image/svg+xml</dc:format><dc:type
           rdf:resource="http://purl.org/dc/dcmitype/StillImage" /><dc:title></dc:title></cc:Work></rdf:RDF></metadata><defs
     id="defs6"><clipPath
       clipPathUnits="userSpaceOnUse"
       id="clipPath16"><path
         d="M 0,792 612,792 612,0 0,0 0,792 Z"
         id="path18"
         inkscape:connector-curvature="0" /></clipPath><clipPath
       clipPathUnits="userSpaceOnUse"
       id="clipPath70"><path
         d="M 0,792 612,792 612,0 0,0 0,792 Z"
         id="path72"
         inkscape:connector-curvature="0" /></clipPath><clipPath
       clipPathUnits="userSpaceOnUse"
       id="clipPath98"><path
         d="m 288.46,341.26 55.498,0 0,32.849 -55.498,0 0,-32.849 z"
         id="path100"
         inkscape:connector-curvature="0" /></clipPath><clipPath
       clipPathUnits="userSpaceOnUse"
       id="clipPath110"><path
         d="M 0,792 612,792 612,0 0,0 0,792 Z"
         id="path112"
         inkscape:connector-curvature="0" /></clipPath></defs><sodipodi:namedview
     pagecolor="#ffffff"
     bordercolor="#666666"
     borderopacity="1"
     objecttolerance="10"
     gridtolerance="10"
     guidetolerance="10"
     inkscape:pageopacity="0"
     inkscape:pageshadow="2"
     inkscape:window-width="1638"
     inkscape:window-height="847"
     id="namedview4"
     showgrid="false"
     inkscape:zoom="0.47676768"
     inkscape:cx="-233.41026"
     inkscape:cy="363.04979"
     inkscape:window-x="69"
     inkscape:window-y="34"
     inkscape:window-maximized="0"
     inkscape:current-layer="g10" /><g
     id="g10"
     inkscape:groupmode="layer"
     inkscape:label="AvatarsR2"
     transform="matrix(1.25,0,0,-1.25,0,600)"><text
       transform="scale(1,-1)"
       style="font-variant:normal;font-weight:300;font-stretch:normal;font-size:13px;font-family:Interstate-Light;-inkscape-font-specification:Interstate-Light;writing-mode:lr-tb;fill:#231f20;fill-opacity:1;fill-rule:nonzero;stroke:none"
       id="text62"
       x="127.09721"
       y="67.09285"><tspan
         x="127.09721 136.0412 143.0482 147.8842 151.1472 157.7005 164.7205 168.90651 176.17351 183.53151 188.82251 196.1935 199.31351 202.6935 213.7175 221.0755 228.3425 235.3625 240.1985 247.20551 251.78151 258.80151 262.06451 268.9675 272.3475 279.36749 286.63449 294.00549 300.2182 307.22522 311.80121 318.8212 326.0882 329.4682 336.8262 340.0892 347.3562 354.37622 359.66721 363.04721 370.31421 375.60519 378.86819 389.89221 396.9122 400.9032 407.91019 415.17719 422.1972 425.57721 432.84421 439.8642 447.2222 454.4892 457.7522"
         y="67.09285"
         sodipodi:role="line"
         id="tspan64">Native-born, moderately educated older prime-age people</tspan></text>
<text
       transform="scale(1,-1)"
       style="font-variant:normal;font-weight:normal;font-stretch:normal;font-size:34px;font-family:'Myriad Pro';-inkscape-font-specification:MyriadPro-Regular;writing-mode:lr-tb;fill:#231f20;fill-opacity:1;fill-rule:nonzero;stroke:none"
       id="text74"
       x="217.10411"
       y="104.09286"><tspan
         x="217.10411 235.66811 252.7021 263.95609 282.82608 299.21408 318.39011 335.4241 346.6781 357.72809 374.76208"
         y="104.09286"
         sodipodi:role="line"
         id="tspan76">Bernadette </tspan></text>
<g
       id="g4613"
       transform="matrix(0.88997701,0,0,0.88997701,-121.59976,-170.69742)"><path
         d="m 216.1475,454.7921 c -19.235,-8.136 -32.731,-27.183 -32.731,-49.381 l 0,-182.044"
         style="fill:none;stroke:#76797c;stroke-width:21.34886551;stroke-linecap:butt;stroke-linejoin:miter;stroke-miterlimit:10;stroke-dasharray:none;stroke-opacity:1"
         id="path22"
         inkscape:connector-curvature="0" /><path
         d="m 437.5342,223.3669 0,129.974 c 0,9.46 -7.74,17.201 -17.2,17.201 l -209.933,0 c -9.46,0 -17.2,-7.741 -17.2,-17.201 l 0,-129.974 244.333,0 z"
         style="fill:#100f0d;fill-opacity:1;fill-rule:nonzero;stroke:none"
         id="path26"
         inkscape:connector-curvature="0" /><path
         d="m 414.6338,224.3268 0,118.011 c 0,5.315 -4.349,9.663 -9.663,9.663 -5.316,0 -9.664,-4.348 -9.664,-9.663 l 0,-118.011 19.327,0 z"
         style="fill:#373433;fill-opacity:1;fill-rule:nonzero;stroke:none"
         id="path30"
         inkscape:connector-curvature="0" /><path
         d="m 383.8916,224.3268 0,118.011 c 0,5.315 -4.348,9.663 -9.663,9.663 -5.316,0 -9.663,-4.348 -9.663,-9.663 l 0,-118.011 19.326,0 z"
         style="fill:#373433;fill-opacity:1;fill-rule:nonzero;stroke:none"
         id="path34"
         inkscape:connector-curvature="0" /><path
         d="m 353.1494,224.3268 0,118.011 c 0,5.315 -4.348,9.663 -9.663,9.663 -5.316,0 -9.663,-4.348 -9.663,-9.663 l 0,-118.011 19.326,0 z"
         style="fill:#373433;fill-opacity:1;fill-rule:nonzero;stroke:none"
         id="path38"
         inkscape:connector-curvature="0" /><path
         d="m 322.4073,224.3268 0,118.011 c 0,5.315 -4.348,9.663 -9.663,9.663 -5.316,0 -9.663,-4.348 -9.663,-9.663 l 0,-118.011 19.326,0 z"
         style="fill:#373433;fill-opacity:1;fill-rule:nonzero;stroke:none"
         id="path42"
         inkscape:connector-curvature="0" /><path
         d="m 291.6651,224.3268 0,118.011 c 0,5.315 -4.348,9.663 -9.663,9.663 -5.316,0 -9.663,-4.348 -9.663,-9.663 l 0,-118.011 19.326,0 z"
         style="fill:#373433;fill-opacity:1;fill-rule:nonzero;stroke:none"
         id="path46"
         inkscape:connector-curvature="0" /><path
         d="m 260.9229,224.3268 0,118.011 c 0,5.315 -4.348,9.663 -9.663,9.663 -5.316,0 -9.663,-4.348 -9.663,-9.663 l 0,-118.011 19.326,0 z"
         style="fill:#373433;fill-opacity:1;fill-rule:nonzero;stroke:none"
         id="path50"
         inkscape:connector-curvature="0" /><path
         d="m 230.1817,224.3268 0,118.011 c 0,5.315 -4.349,9.663 -9.664,9.663 -5.315,0 -9.663,-4.348 -9.663,-9.663 l 0,-118.011 19.327,0 z"
         style="fill:#373433;fill-opacity:1;fill-rule:nonzero;stroke:none"
         id="path54"
         inkscape:connector-curvature="0" /><path
         inkscape:connector-curvature="0"
         id="path56"
         style="fill:#76797c;fill-opacity:1;fill-rule:nonzero;stroke:none"
         d="m 438.814,379.402 -248.613,0 0,9.571 248.613,0 0,-9.571 z" /><path
         d="m 493.0069,536.6974 c 0,-27.912 -85.188,-93.384 -176.603,-93.384 -91.406,0 -176.586,56.447 -176.586,84.359 0,27.904 82.089,38.965 173.503,38.965 91.407,0 179.686,-2.044 179.686,-29.94"
         style="fill:#55141c;fill-opacity:1;fill-rule:nonzero;stroke:none"
         id="path60"
         inkscape:connector-curvature="0" /><path
         d="m 203.9522,444.3351 c -6.995,0 -12.683,-5.695 -12.683,-12.7 0,-6.999 5.688,-12.697 12.683,-12.697 6.995,0 12.684,5.698 12.684,12.697 0,7.005 -5.689,12.7 -12.684,12.7 m 0,-27.599 c -8.208,0 -14.886,6.681 -14.886,14.899 0,8.221 6.678,14.906 14.886,14.906 8.205,0 14.886,-6.685 14.886,-14.906 0,-8.218 -6.681,-14.899 -14.886,-14.899"
         style="fill:#f1e11b;fill-opacity:1;fill-rule:nonzero;stroke:none"
         id="path80"
         inkscape:connector-curvature="0" /><path
         d="m 419.8565,444.3351 c -6.995,0 -12.684,-5.695 -12.684,-12.7 0,-6.999 5.689,-12.697 12.684,-12.697 6.995,0 12.683,5.698 12.683,12.697 0,7.005 -5.688,12.7 -12.683,12.7 m 0,-27.599 c -8.208,0 -14.886,6.681 -14.886,14.899 0,8.221 6.678,14.906 14.886,14.906 8.204,0 14.886,-6.685 14.886,-14.906 0,-8.218 -6.682,-14.899 -14.886,-14.899"
         style="fill:#f1e11b;fill-opacity:1;fill-rule:nonzero;stroke:none"
         id="path84"
         inkscape:connector-curvature="0" /><path
         d="m 316.1192,407.7843 0,-184.523 -100.191,0 c -1.622,0.749 -2.549,1.042 -2.549,1.042 0,76.115 36.27,98.092 53.065,104.177 5.035,1.868 8.348,2.262 8.348,2.262 6.123,0 9.992,7.83 12.656,19.792 0.401,1.822 0.757,3.722 1.05,5.752 0.571,3.367 0.98,6.989 1.413,10.703 0.132,2.263 0.401,4.517 0.618,6.842 0.935,11.382 1.204,23.683 1.204,35.312 0,0 13.49,-1.359 24.386,-1.359"
         style="fill:#814c1c;fill-opacity:1;fill-rule:nonzero;stroke:none"
         id="path88"
         inkscape:connector-curvature="0" /><path
         d="m 419.1153,224.3034 c 0,0 -0.927,-0.293 -2.395,-1.042 l -100.601,0 0,184.523 0.193,0 c 10.904,0 24.471,1.359 24.471,1.359 0,-11.629 0.193,-23.791 1.166,-35.065 0.147,-2.247 0.44,-4.471 0.648,-6.579 0.433,-3.947 0.749,-7.63 1.322,-11.066 l 0,-0.069 c 0.285,-1.537 0.502,-2.942 0.864,-4.363 2.587,-12.672 6.664,-21.259 13.012,-21.259 0,0 5.181,-0.61 12.61,-3.938 17.999,-8.231 48.71,-32.432 48.71,-102.501"
         style="fill:#915524;fill-opacity:1;fill-rule:nonzero;stroke:none"
         id="path92"
         inkscape:connector-curvature="0" /><path
         d="m 343.9571,356.4723 0,-0.078 c -2.455,-3.938 -10.949,-15.134 -27.729,-15.134 l -0.139,0 c -15.946,0.077 -25.236,11.706 -27.614,15.065 0.564,3.367 1.043,6.98 1.398,10.703 0.2,2.255 0.409,4.509 0.625,6.803 7.792,-1.939 16.247,-3.151 25.297,-3.29 l 0.294,0 c 9.273,0.139 17.83,1.39 25.852,3.568 0.194,-2.217 0.417,-4.471 0.619,-6.649 0.432,-3.907 0.841,-7.56 1.397,-10.988"
         style="fill:#603618;fill-opacity:1;fill-rule:nonzero;stroke:none"
         id="path104"
         inkscape:connector-curvature="0" /><path
         d="m 314.2432,619.4811 c -106.123,0 -106.725,-88.934 -102.015,-147.165 -7.273,13.776 -28.795,9.521 -27.049,-12.208 1.713,-20.934 32.13,-31.775 31.698,-29.343 8.726,-47.907 58.648,-75.582 97.366,-75.582 0.263,0 0.556,0.038 0.803,0.038 l 0,264.26 -0.803,0"
         style="fill:#814c1c;fill-opacity:1;fill-rule:nonzero;stroke:none"
         id="path116"
         inkscape:connector-curvature="0" /><path
         d="m 191.9668,469.3048 c 5.25,8.371 13.327,4.757 15.327,2.896 2.116,-1.992 3.8,-4.649 2.472,-9.622 -0.711,-2.787 -3.66,-3.011 -2.935,-7.266 0.788,-4.757 2.989,-5.081 4.232,-6.154 1.243,-1.082 2.818,-1.9 3.598,-3.938 0.749,-2.008 0.88,-4.155 0.479,-5.978 -0.834,-3.436 -5.846,-0.717 -9.166,0.819 -2.216,1.004 -9.212,6.95 -10.988,8.919 -4.44,5.035 -6.525,14.71 -3.019,20.324"
         style="fill:#351f16;fill-opacity:1;fill-rule:nonzero;stroke:none"
         id="path120"
         inkscape:connector-curvature="0" /><path
         d="m 314.7608,619.4811 c 106.122,0 106.732,-88.934 102.015,-147.165 7.273,13.776 28.825,9.521 27.042,-12.208 -1.692,-20.934 -32.116,-31.775 -31.706,-29.343 -8.68,-47.907 -58.61,-75.582 -97.351,-75.582 -0.255,0 -0.525,0.038 -0.796,0.038 l 0,264.26 0.796,0"
         style="fill:#915524;fill-opacity:1;fill-rule:nonzero;stroke:none"
         id="path124"
         inkscape:connector-curvature="0" /><path
         d="m 437.0606,469.3048 c -5.259,8.371 -13.352,4.757 -15.359,2.896 -2.084,-1.992 -3.76,-4.649 -2.479,-9.622 0.749,-2.787 3.684,-3.011 2.966,-7.266 -0.788,-4.757 -2.982,-5.081 -4.247,-6.154 -1.236,-1.082 -2.78,-1.9 -3.575,-3.938 -0.749,-2.008 -0.897,-4.155 -0.464,-5.978 0.796,-3.436 5.792,-0.717 9.15,0.819 2.217,1.004 9.197,6.95 10.966,8.919 4.463,5.035 6.524,14.71 3.042,20.324"
         style="fill:#351f16;fill-opacity:1;fill-rule:nonzero;stroke:none"
         id="path128"
         inkscape:connector-curvature="0" /><path
         d="m 315.4405,594.4235 c -34.911,0 -60.471,-10.17 -75.938,-30.208 -21.622,-27.992 -20.803,-70.749 -12.818,-101.451 2.432,-9.39 3.683,-34.687 5.366,-43.953 7.53,-41.544 53.258,-63.629 83.39,-63.629 0.255,0 0.54,0.039 0.811,0.039 l 0,239.163 c -0.271,0 -0.541,0.039 -0.811,0.039"
         style="fill:#814c1c;fill-opacity:1;fill-rule:nonzero;stroke:none"
         id="path132"
         inkscape:connector-curvature="0" /><path
         d="m 391.2305,564.1769 c -15.366,19.907 -40.625,30.03 -74.979,30.208 l 0,-239.164 c 34.401,0.348 75.497,24.587 82.57,63.59 1.676,9.267 2.927,34.564 5.359,43.953 7.946,30.595 8.718,73.32 -12.95,101.413"
         style="fill:#915524;fill-opacity:1;fill-rule:nonzero;stroke:none"
         id="path136"
         inkscape:connector-curvature="0" /><path
         d="m 284.1123,586.6169 -0.433,-0.456 0.039,-0.1 c 0.139,0.178 0.262,0.386 0.394,0.556"
         style="fill:#342318;fill-opacity:1;fill-rule:nonzero;stroke:none"
         id="path140"
         inkscape:connector-curvature="0" /><path
         d="M 218.0977,504.4396 Z"
         style="fill:#342318;fill-opacity:1;fill-rule:nonzero;stroke:none"
         id="path144"
         inkscape:connector-curvature="0" /><path
         d="m 419.8565,224.4421 c 0,0 -0.927,-0.378 -2.448,-1.166 l -203.775,0 c -1.613,0.788 -2.478,1.166 -2.478,1.166 0,42.672 9.552,69.799 21.189,87.127 l 0.031,0.077 c 5.057,7.529 10.509,13.174 15.691,17.421 0.795,0.703 1.722,1.336 2.656,2.031 0.147,0.162 0.216,0.224 0.279,0.224 0.872,0.633 1.698,1.251 2.563,1.791 5.884,3.784 27.212,14.556 30.872,15.722 l -8.401,-19.683 c -0.394,-7.606 18.919,-44.625 38.918,-44.27 20.78,0.386 42.255,38.455 41.644,46.378 2.162,3.374 -9.976,14.139 -8.262,16.702 7.799,-2.494 37.807,-17.258 50.849,-37.057 11.413,-17.344 20.672,-44.447 20.672,-86.463"
         style="fill:#3c6bb6;fill-opacity:1;fill-rule:nonzero;stroke:none"
         id="path148"
         inkscape:connector-curvature="0" /><path
         d="m 360.544,327.7077 c -1.784,4.595 -6.101,8.927 -7.676,12.579 -2.587,6.046 -8.085,11.714 -8.085,11.714 -0.579,-5.807 -6.425,-31.86 -6.425,-31.86 0,0 -27.25,-36.618 -22.864,-37.552 4.417,-0.973 24.409,-4.093 30.37,-11.034 5.962,-6.974 4.996,-13.452 6.534,-4.047 1.551,9.421 12.926,47.884 8.146,60.2"
         style="fill:#ffffff;fill-opacity:1;fill-rule:nonzero;stroke:none"
         id="path152"
         inkscape:connector-curvature="0" /><path
         d="m 315.7256,284.612 c -2.479,7.822 -23.173,35.528 -23.173,35.528 0,0 -4.286,25.761 -4.857,31.56 0,0 -7.028,-5.367 -9.653,-11.413 -1.583,-3.653 -5.884,-7.985 -7.683,-12.579 -4.773,-12.317 6.602,-50.78 8.154,-60.2 1.575,-9.406 0.579,-2.927 6.525,4.046 3.019,3.513 9.653,6.046 16.046,7.815 l 6.394,-24.927 7.729,-30.115 7.753,30.115 7.753,30.17 -14.988,0 z"
         style="fill:#ffffff;fill-opacity:1;fill-rule:nonzero;stroke:none"
         id="path156"
         inkscape:connector-curvature="0" /><path
         d="m 415.0225,465.2511 c 0.479,2.216 0.927,4.432 1.328,6.648 -0.108,-0.192 -0.231,-0.386 -0.34,-0.563 -0.294,-2.039 -0.626,-4.07 -0.988,-6.085"
         style="fill:#1b1b1a;fill-opacity:1;fill-rule:nonzero;stroke:none"
         id="path160"
         inkscape:connector-curvature="0" /><path
         d="m 343.3848,395.3307 c 0,0 -12.246,-16.928 -27.353,-16.928 -15.069,0 -26.593,16.577 -26.593,16.577 0,0 11.524,2.584 26.593,2.584 15.107,0 27.353,-2.233 27.353,-2.233"
         style="fill:#803533;fill-opacity:1;fill-rule:nonzero;stroke:none"
         id="path164"
         inkscape:connector-curvature="0" /><path
         d="m 323.7774,403.1667 c -4.257,0 -7.633,-3.393 -7.745,-7.679 -0.057,4.286 -3.46,7.679 -7.708,7.679 -4.285,0 -19.617,-7.836 -19.617,-7.836 0,0 14.966,-2.004 19.232,-2.004 4.276,0 8.036,-2.222 8.093,1.944 0.075,-4.166 3.169,-2.524 7.435,-2.524 4.23,0 19.917,2.584 19.917,2.584 0,0 -15.294,7.836 -19.607,7.836"
         style="fill:#6b2829;fill-opacity:1;fill-rule:nonzero;stroke:none"
         id="path168"
         inkscape:connector-curvature="0" /><path
         d="m 250.8926,473.2809 c 0,0 8.353,-16.597 21.12,-18.3 12.768,-1.72 26.349,0.542 26.349,0.542 0,0 -1.697,16.582 -8.339,19.28 -6.645,2.714 -19.833,6.898 -39.13,-1.522"
         style="fill:#ffffff;fill-opacity:1;fill-rule:nonzero;stroke:none"
         id="path172"
         inkscape:connector-curvature="0" /><path
         d="m 287.4024,466.6212 c -0.604,-6.51 -6.188,-11.41 -12.469,-10.94 -6.287,0.453 -10.883,6.107 -10.278,12.601 0.603,6.511 6.187,11.427 12.476,10.957 6.272,-0.47 10.882,-6.108 10.271,-12.618"
         style="fill:#55301b;fill-opacity:1;fill-rule:nonzero;stroke:none"
         id="path176"
         inkscape:connector-curvature="0" /><path
         d="m 275.6797,460.7824 c -2.33,0.167 -4.711,2.818 -4.409,6.124 0.309,3.289 3.152,5.554 5.482,5.387 2.331,-0.169 4.721,-2.82 4.41,-6.125 -0.309,-3.289 -3.143,-5.554 -5.483,-5.386"
         style="fill:#191e22;fill-opacity:1;fill-rule:nonzero;stroke:none"
         id="path180"
         inkscape:connector-curvature="0" /><path
         d="m 298.377,455.569 c 0,0 -0.287,-0.03 -0.935,-0.151 -0.504,5.894 -1.996,14.034 -6.138,15.707 -6.17,2.563 -19.991,6.317 -37.662,-2.322 -1.801,2.579 -2.743,4.523 -2.743,4.523 19.223,10.99 34.423,6.905 41.008,4.191 6.657,-2.729 6.47,-21.948 6.47,-21.948"
         style="fill:#351f16;fill-opacity:1;fill-rule:nonzero;stroke:none"
         id="path184"
         inkscape:connector-curvature="0" /><path
         d="m 384.4073,471.3141 c 0,0 -8.074,-16.265 -20.819,-17.758 -12.745,-1.507 -26.365,0.92 -26.365,0.92 0,0 1.536,16.779 8.134,19.357 6.598,2.593 18.998,5.437 39.05,-2.519"
         style="fill:#ffffff;fill-opacity:1;fill-rule:nonzero;stroke:none"
         id="path188"
         inkscape:connector-curvature="0" /><path
         d="m 345.416,465.3683 c 0.63,-6.712 6.463,-11.76 13.013,-11.287 6.569,0.474 11.368,6.31 10.737,13.006 -0.63,6.73 -6.463,11.778 -13.021,11.303 -6.561,-0.472 -11.377,-6.309 -10.729,-13.022"
         style="fill:#55301b;fill-opacity:1;fill-rule:nonzero;stroke:none"
         id="path192"
         inkscape:connector-curvature="0" /><path
         d="m 357.6582,459.3576 c 2.436,0.176 4.922,2.891 4.607,6.309 -0.324,3.401 -3.293,5.731 -5.728,5.556 -2.435,-0.175 -4.921,-2.909 -4.606,-6.309 0.325,-3.4 3.293,-5.731 5.727,-5.556"
         style="fill:#191e22;fill-opacity:1;fill-rule:nonzero;stroke:none"
         id="path196"
         inkscape:connector-curvature="0" /><path
         d="m 337.209,454.5363 c 0,0 0.286,-0.046 0.935,-0.181 0.406,5.834 1.761,13.838 5.89,15.421 6.131,2.443 19.885,5.954 37.692,-2.849 1.77,2.532 2.681,4.431 2.681,4.431 -19.403,11.141 -34.544,7.327 -41.081,4.75 -6.614,-2.593 -6.117,-21.572 -6.117,-21.572"
         style="fill:#351f16;fill-opacity:1;fill-rule:nonzero;stroke:none"
         id="path200"
         inkscape:connector-curvature="0" /><path
         d="m 294.4893,424.2238 c -0.437,6.11 16.422,2.233 21.979,2.042 4.392,-0.154 17.754,1.925 18.901,1.39 7.861,-3.623 -8.326,-10.92 -19.18,-10.92 -2.892,0 -21.437,3.802 -21.7,7.488"
         style="fill:#351f16;fill-opacity:1;fill-rule:nonzero;stroke:none"
         id="path204"
         inkscape:connector-curvature="0" /><path
         d="m 383.1348,489.5753 c -0.327,0.227 -0.684,0.507 -1.078,0.816 -1.026,0.807 -2.305,1.809 -3.934,2.6 -2.373,1.4 -5.161,2.639 -8.098,3.591 -3.797,1.015 -7.127,1.546 -10.197,1.623 -3.374,0.004 -6.936,-0.453 -10.306,-1.322 -2.733,-0.723 -5.536,-1.873 -8.334,-3.417 -4.449,-2.454 -6.851,-5.091 -7.032,-5.294 l -0.044,-0.048 c -0.819,-0.923 -0.853,-2.3 -0.082,-3.274 0.437,-0.556 0.894,-3.03 1.605,-3.125 l 0.002,0 c 0.712,-0.094 1.415,0.086 1.982,0.508 l 0.025,0.018 c 0.221,0.162 2.495,1.797 6.432,3.649 1.995,1.047 4.52,1.864 7.139,2.675 2.786,0.824 5.761,1.308 8.639,1.402 2.582,0.224 5.482,0.085 8.824,-0.394 l 1.337,-0.273 c 0.972,-0.198 1.915,-0.39 2.841,-0.574 0.816,-0.147 1.591,-0.406 2.342,-0.657 0.438,-0.146 0.866,-0.288 1.291,-0.406 1.813,-0.508 3.335,-1.12 4.56,-1.613 0.319,-0.129 0.617,-0.248 0.902,-0.359 l 6.112,-0.083 -4.928,3.957 z"
         style="fill:#231f20;fill-opacity:1;fill-rule:nonzero;stroke:none"
         id="path208"
         inkscape:connector-curvature="0" /><path
         d="m 383.1348,489.5753 c -0.327,0.227 -0.684,0.507 -1.078,0.816 -1.026,0.807 -2.305,1.809 -3.934,2.6 -2.373,1.4 -5.161,2.639 -8.098,3.591 -3.797,1.015 -7.127,1.546 -10.197,1.623 -3.374,0.004 -6.936,-0.453 -10.306,-1.322 -2.733,-0.723 -5.536,-1.873 -8.334,-3.417 -4.449,-2.454 -6.851,-5.091 -7.032,-5.294 l -0.044,-0.048 c -0.819,-0.923 -0.853,-2.3 -0.082,-3.274 0.437,-0.556 0.894,-3.03 1.605,-3.125 l 0.002,0 c 0.712,-0.094 1.415,0.086 1.982,0.508 l 0.025,0.018 c 0.221,0.162 2.495,1.797 6.432,3.649 1.995,1.047 4.52,1.864 7.139,2.675 2.786,0.824 5.761,1.308 8.639,1.402 2.582,0.224 5.482,0.085 8.824,-0.394 l 1.337,-0.273 c 0.972,-0.198 1.915,-0.39 2.841,-0.574 0.816,-0.147 1.591,-0.406 2.342,-0.657 0.438,-0.146 0.866,-0.288 1.291,-0.406 1.813,-0.508 3.335,-1.12 4.56,-1.613 0.319,-0.129 0.617,-0.248 0.902,-0.359 l 6.112,-0.083 -4.928,3.957 z"
         style="fill:none;stroke:#231f20;stroke-width:2.24724913;stroke-linecap:round;stroke-linejoin:round;stroke-miterlimit:10;stroke-dasharray:none;stroke-opacity:1"
         id="path212"
         inkscape:connector-curvature="0" /><path
         d="m 249.9834,489.2233 c 0.328,0.226 0.685,0.507 1.078,0.816 1.027,0.807 2.305,1.809 3.934,2.6 2.373,1.4 5.161,2.639 8.099,3.591 3.797,1.015 7.126,1.546 10.197,1.623 3.373,0.004 6.935,-0.453 10.306,-1.322 2.733,-0.724 5.536,-1.873 8.333,-3.417 4.45,-2.454 6.851,-5.091 7.033,-5.294 l 0.044,-0.048 c 0.819,-0.924 0.853,-2.301 0.082,-3.274 -0.438,-0.557 -0.894,-3.03 -1.606,-3.125 l -0.001,0 c -0.712,-0.094 -1.415,0.086 -1.982,0.508 l -0.025,0.018 c -0.222,0.162 -2.496,1.797 -6.432,3.649 -1.995,1.047 -4.52,1.864 -7.139,2.675 -2.786,0.823 -5.761,1.308 -8.639,1.402 -2.582,0.224 -5.483,0.085 -8.825,-0.395 l -1.336,-0.272 c -0.972,-0.198 -1.916,-0.39 -2.841,-0.575 -0.816,-0.146 -1.592,-0.405 -2.343,-0.656 -0.437,-0.146 -0.866,-0.288 -1.29,-0.407 -1.813,-0.507 -3.336,-1.12 -4.56,-1.612 -0.319,-0.129 -0.617,-0.249 -0.902,-0.359 l -6.112,-0.083 4.927,3.957 z"
         style="fill:#231f20;fill-opacity:1;fill-rule:nonzero;stroke:none"
         id="path216"
         inkscape:connector-curvature="0" /><path
         d="m 249.9834,489.2233 c 0.328,0.226 0.685,0.507 1.078,0.816 1.027,0.807 2.305,1.809 3.934,2.6 2.373,1.4 5.161,2.639 8.099,3.591 3.797,1.015 7.126,1.546 10.197,1.623 3.373,0.004 6.935,-0.453 10.306,-1.322 2.733,-0.724 5.536,-1.873 8.333,-3.417 4.45,-2.454 6.851,-5.091 7.033,-5.294 l 0.044,-0.048 c 0.819,-0.924 0.853,-2.301 0.082,-3.274 -0.438,-0.557 -0.894,-3.03 -1.606,-3.125 l -0.001,0 c -0.712,-0.094 -1.415,0.086 -1.982,0.508 l -0.025,0.018 c -0.222,0.162 -2.496,1.797 -6.432,3.649 -1.995,1.047 -4.52,1.864 -7.139,2.675 -2.786,0.823 -5.761,1.308 -8.639,1.402 -2.582,0.224 -5.483,0.085 -8.825,-0.395 l -1.336,-0.272 c -0.972,-0.198 -1.916,-0.39 -2.841,-0.575 -0.816,-0.146 -1.592,-0.405 -2.343,-0.656 -0.437,-0.146 -0.866,-0.288 -1.29,-0.407 -1.813,-0.507 -3.336,-1.12 -4.56,-1.612 -0.319,-0.129 -0.617,-0.249 -0.902,-0.359 l -6.112,-0.083 4.927,3.957 z"
         style="fill:none;stroke:#231f20;stroke-width:2.24724913;stroke-linecap:round;stroke-linejoin:round;stroke-miterlimit:10;stroke-dasharray:none;stroke-opacity:1"
         id="path220"
         inkscape:connector-curvature="0" /><path
         d="m 210.9893,603.3532 c 24.71,8.135 17.079,34.657 52.605,49.465 18.193,7.579 29.038,6.592 35.332,3.823 -6.376,5.218 -19.462,4.758 -19.462,4.758 0,0 16.159,8.863 41.136,0.913 17.547,-5.597 28.058,-11.958 33.952,-16.523 l -9.85,9.353 c 0,0 6.977,-2.472 16.85,-7.483 -6.711,12.983 -19.129,27.205 -19.129,27.205 31.65,-11.743 57.852,-54.008 57.852,-54.008 -2.515,15.929 -8.046,30.515 -8.046,30.515 54.008,-40.046 45.613,-112.365 45.613,-112.365 0,-27.368 -10.83,-54.81 -17.933,-62.967 -7.111,-8.143 -4.832,-19.96 -6.963,-19.96 0,0 -4.275,-0.156 -4.424,20.494 -0.519,6.97 -2.739,18.163 -11.802,14.816 -0.482,-0.208 -0.972,-0.438 -1.455,-0.639 -0.088,-0.044 -0.178,-0.074 -0.267,-0.118 l -0.007,0 c -26.329,-10.489 -45.183,0.482 -56.405,11.579 l 0.007,-0.015 -0.023,0.023 c -1.818,1.803 -3.436,3.6 -4.854,5.314 -13.116,13.584 -49.212,45.783 -64.786,6.733 0,0 -13.294,33.446 28.652,29.846 -17.05,11.343 -36.282,14.534 -44.188,-19.143 0,0 -14.377,35.318 21.935,42.444 -38.769,7.971 -54.824,-54.513 -51.447,-71.377 5.33,-26.774 -2.101,-42.191 -4.944,-41.471 0,0 -0.103,6.799 -2.679,12.863 -7.646,18.052 -14.059,5.501 -15.247,29.981 -0.95,19.655 -3.339,30.752 -4.297,40.728 -6.049,-4.817 -15.113,-8.232 -28.637,-8.513 0,0 19.136,5.9 32.631,42.68 2.27,8.247 11.587,14.63 11.601,14.674 -0.022,-0.014 1.691,4.688 -1.456,4.688"
         style="fill:#100f0d;fill-opacity:1;fill-rule:nonzero;stroke:none"
         id="path224"
         inkscape:connector-curvature="0" /><path
         d="m 435.0098,622.0021 -230.796,0 c 0,0 -0.422,5.192 0,6.843 8.291,32.195 39.097,70.833 112.234,70.833 70.891,0 108.475,-37.751 118.562,-70.833 0.494,-1.636 0,-6.843 0,-6.843"
         style="fill:#9d1a24;fill-opacity:1;fill-rule:nonzero;stroke:none"
         id="path228"
         inkscape:connector-curvature="0" /><path
         d="m 435.0098,580.506 -230.796,0 0,41.496 c 0,0 39.097,28.777 112.234,28.777 70.891,0 118.562,-28.777 118.562,-28.777 l 0,-41.496 z"
         style="fill:#bc4962;fill-opacity:1;fill-rule:nonzero;stroke:none"
         id="path232"
         inkscape:connector-curvature="0" /><path
         d="m 456.3096,223.2614 c 0,0.035 0.005,0.069 0.005,0.105 l 0,182.044 c 0,17.763 10.572,33.712 26.933,40.632 4.833,2.044 7.092,7.618 5.049,12.45 -2.045,4.834 -7.619,7.092 -12.451,5.049 -23.406,-9.9 -38.531,-32.718 -38.531,-58.131 l 0,-182.044 c 0,-0.036 0.005,-0.07 0.005,-0.105 l 18.99,0 z"
         style="fill:#76797c;fill-opacity:1;fill-rule:nonzero;stroke:none"
         id="path236"
         inkscape:connector-curvature="0" /><path
         d="m 465.6387,562.4245 -10e-4,-10e-4 c -32.353,21.488 -92.357,54.666 -154.346,54.583 -103.303,-0.131 -169.888,-82.985 -169.888,-82.985 0,0 107.666,30.544 171.918,32.616 42.222,1.36 176.958,-22.107 176.958,-22.107 -2.247,4.386 -24.641,17.894 -24.641,17.894"
         style="fill:#9d1a24;fill-opacity:1;fill-rule:nonzero;stroke:none"
         id="path240"
         inkscape:connector-curvature="0" /></g></g></svg>