<?xml version="1.0" encoding="UTF-8" standalone="no"?>
<!-- Created with Inkscape (http://www.inkscape.org/) -->

<svg
   xmlns:dc="http://purl.org/dc/elements/1.1/"
   xmlns:cc="http://creativecommons.org/ns#"
   xmlns:rdf="http://www.w3.org/1999/02/22-rdf-syntax-ns#"
   xmlns:svg="http://www.w3.org/2000/svg"
   xmlns="http://www.w3.org/2000/svg"
   xmlns:sodipodi="http://sodipodi.sourceforge.net/DTD/sodipodi-0.dtd"
   xmlns:inkscape="http://www.inkscape.org/namespaces/inkscape"
   id="svg2"
   version="1.1"
   inkscape:version="0.91 r13725"
   xml:space="preserve"
   width="400"
   height="600"
   viewBox="0 0 400 600"
   sodipodi:docname="carlos.svg"
   inkscape:export-filename="/home/alec/Projects/Brookings/out-of-work/data/avatars/carlos.png"
   inkscape:export-xdpi="90"
   inkscape:export-ydpi="90"><metadata
     id="metadata8"><rdf:RDF><cc:Work
         rdf:about=""><dc:format>image/svg+xml</dc:format><dc:type
           rdf:resource="http://purl.org/dc/dcmitype/StillImage" /><dc:title /></cc:Work></rdf:RDF></metadata><defs
     id="defs6"><clipPath
       clipPathUnits="userSpaceOnUse"
       id="clipPath24"><path
         d="M 0,792 612,792 612,0 0,0 0,792 Z"
         id="path26"
         inkscape:connector-curvature="0" /></clipPath><clipPath
       clipPathUnits="userSpaceOnUse"
       id="clipPath48"><path
         d="m 271.822,365.021 60.709,0 0,35.978 -60.709,0 0,-35.978 z"
         id="path50"
         inkscape:connector-curvature="0" /></clipPath><clipPath
       clipPathUnits="userSpaceOnUse"
       id="clipPath60"><path
         d="M 0,792 612,792 612,0 0,0 0,792 Z"
         id="path62"
         inkscape:connector-curvature="0" /></clipPath></defs><sodipodi:namedview
     pagecolor="#ffffff"
     bordercolor="#666666"
     borderopacity="1"
     objecttolerance="10"
     gridtolerance="10"
     guidetolerance="10"
     inkscape:pageopacity="0"
     inkscape:pageshadow="2"
     inkscape:window-width="1737"
     inkscape:window-height="877"
     id="namedview4"
     showgrid="false"
     inkscape:zoom="0.47676768"
     inkscape:cx="-406.76506"
     inkscape:cy="366.23252"
     inkscape:window-x="72"
     inkscape:window-y="37"
     inkscape:window-maximized="0"
     inkscape:current-layer="g10" /><g
     id="g10"
     inkscape:groupmode="layer"
     inkscape:label="AvatarsR2"
     transform="matrix(1.25,0,0,-1.25,0,600)"><text
       transform="scale(1,-1)"
       style="font-variant:normal;font-weight:300;font-stretch:normal;font-size:13px;font-family:Interstate-Light;-inkscape-font-specification:Interstate-Light;writing-mode:lr-tb;fill:#231f20;fill-opacity:1;fill-rule:nonzero;stroke:none"
       id="text12"
       x="-32.398945"
       y="114.0759"><tspan
         x="-32.398945 -22.154943 -14.860644 -10.024644 -6.7616439 -0.3396447 6.6673551 11.244657 18.264656 25.531654 28.651653 32.031658 43.055653 50.413654 57.680653 64.700661 69.536659 76.543655 81.119659 88.139656 91.402657 98.305664 101.68565 108.70566 115.97266 123.34366 129.55766 136.56465 141.14066 148.16066 155.42766 158.80766 165.38567 172.74365 180.11465 187.48566 194.75266 201.77266 207.06366 210.44366 217.71066 223.00166 226.26466 237.28865 244.30867 248.29836 255.30537 262.57236 269.59235 272.97235 280.23935 287.25934 294.61734 301.88434 305.14734"
         y="114.0759"
         sodipodi:role="line"
         id="tspan14">Motivated, moderately educated younger prime-age people</tspan></text>
<text
       transform="scale(1,-1)"
       style="font-variant:normal;font-weight:normal;font-stretch:normal;font-size:34px;font-family:'Myriad Pro';-inkscape-font-specification:MyriadPro-Regular;writing-mode:lr-tb;fill:#231f20;fill-opacity:1;fill-rule:nonzero;stroke:none"
       id="text16"
       x="96.242653"
       y="151.0759"><tspan
         x="96.242653 115.72466 132.11266 143.36665 151.39066 170.05666 183.52066"
         y="151.0759"
         sodipodi:role="line"
         id="tspan18">Carlos </tspan></text>
<g
       id="g5047"
       transform="matrix(0.92855131,0,0,0.92855131,-120.98985,-190.95518)"><g
         id="g20"><g
           clip-path="url(#clipPath24)"
           id="g22"><g
             transform="translate(202.0354,449.7096)"
             id="g28"><path
               inkscape:connector-curvature="0"
               id="path30"
               style="fill:#110f0e;fill-opacity:1;fill-rule:nonzero;stroke:none"
               d="M 0,0 C 0,0 89.632,-192.942 201.948,0 L 0,0 Z" /></g><g
             transform="translate(296.4583,414.0358)"
             id="g32"><path
               inkscape:connector-curvature="0"
               id="path34"
               style="fill:#2f2122;fill-opacity:1;fill-rule:nonzero;stroke:none"
               d="m 0,0 c -0.56,-1.056 -0.903,-2.24 -0.903,-3.52 l 0,-3.303 c 0,-4.151 3.35,-7.51 7.478,-7.51 4.143,0 7.487,3.359 7.487,7.51 l 0,3.303 c 0,1.28 -0.344,2.464 -0.904,3.52 C 11.022,0.216 8.822,0.344 6.575,0.344 4.335,0.344 2.136,0.216 0,0" /></g><g
             transform="translate(302.0013,437.9118)"
             id="g36"><path
               inkscape:connector-curvature="0"
               id="path38"
               style="fill:#ce8e50;fill-opacity:1;fill-rule:nonzero;stroke:none"
               d="m 0,0 0,-202.068 -109.572,0 c -1.752,0.752 -2.697,1.143 -2.697,1.143 0,108.397 67.069,116.476 67.069,116.476 6.735,0 10.99,8.614 13.846,21.708 0.48,2.039 0.864,4.103 1.175,6.351 0.624,3.687 1.128,7.598 1.52,11.718 0.24,2.423 0.472,4.895 0.704,7.454 0.984,12.414 1.296,25.892 1.296,38.666 C -26.659,1.448 -11.886,0 0,0" /></g><g
             transform="translate(414.6936,236.987)"
             id="g40"><path
               inkscape:connector-curvature="0"
               id="path42"
               style="fill:#db9659;fill-opacity:1;fill-rule:nonzero;stroke:none"
               d="m 0,0 c 0,0 -1.008,-0.392 -2.607,-1.184 l -110.085,0 0,202.109 0.232,0 c 11.918,0 26.739,1.448 26.739,1.448 0,-12.702 0.32,-26.02 1.327,-38.362 0.233,-2.471 0.473,-4.943 0.705,-7.335 0.431,-4.223 0.895,-8.222 1.527,-11.989 l 0,-0.072 c 0.232,-1.696 0.553,-3.256 0.864,-4.783 2.808,-13.958 7.263,-23.356 14.182,-23.356 C -67.116,116.476 0,108.397 0,0" /></g></g></g><g
         id="g44"><g
           clip-path="url(#clipPath48)"
           id="g46"><g
             transform="translate(332.5315,381.6735)"
             id="g52"><path
               inkscape:connector-curvature="0"
               id="path54"
               style="fill:#a1663b;fill-opacity:1;fill-rule:nonzero;stroke:none"
               d="m 0,0 0,-0.072 c -2.695,-4.303 -12.006,-16.581 -30.37,-16.581 l -0.16,0 c -17.429,0.08 -27.555,12.806 -30.179,16.501 0.624,3.688 1.128,7.599 1.52,11.718 0.24,2.424 0.472,4.895 0.704,7.455 8.526,-2.168 17.741,-3.464 27.643,-3.616 l 0.312,0 c 10.166,0.152 19.541,1.528 28.299,3.92 0.232,-2.472 0.472,-4.944 0.704,-7.335 C -1.096,7.767 -0.632,3.768 0,0" /></g></g></g><g
         id="g56"><g
           clip-path="url(#clipPath60)"
           id="g58"><g
             transform="translate(302.3528,669.6789)"
             id="g64"><path
               inkscape:connector-curvature="0"
               id="path66"
               style="fill:#ce8e50;fill-opacity:1;fill-rule:nonzero;stroke:none"
               d="m 0,0 c -116.099,0 -116.763,-97.423 -111.604,-161.147 -7.934,15.093 -31.506,10.421 -29.586,-13.358 1.879,-22.972 35.137,-34.802 34.666,-32.147 9.542,-52.471 64.148,-82.801 106.524,-82.801 0.272,0 0.593,0.072 0.864,0.072 L 0.864,0 0,0" /></g><g
             transform="translate(168.5852,505.2038)"
             id="g68"><path
               inkscape:connector-curvature="0"
               id="path70"
               style="fill:#a1663b;fill-opacity:1;fill-rule:nonzero;stroke:none"
               d="m 0,0 c 5.751,9.207 14.589,5.247 16.772,3.2 2.312,-2.176 4.152,-5.119 2.688,-10.527 -0.783,-3.063 -4.023,-3.295 -3.191,-7.966 0.847,-5.207 3.279,-5.559 4.615,-6.735 1.36,-1.208 3.079,-2.072 3.943,-4.304 0.817,-2.199 0.936,-4.559 0.512,-6.55 -0.903,-3.767 -6.383,-0.784 -10.014,0.896 -2.424,1.095 -10.087,7.567 -12.038,9.766 C -1.561,-16.701 -3.832,-6.127 0,0" /></g><g
             transform="translate(302.9055,669.6789)"
             id="g72"><path
               inkscape:connector-curvature="0"
               id="path74"
               style="fill:#db9659;fill-opacity:1;fill-rule:nonzero;stroke:none"
               d="m 0,0 c 116.091,0 116.755,-97.423 111.596,-161.147 7.934,15.093 31.507,10.421 29.554,-13.358 -1.838,-22.972 -35.145,-34.802 -34.681,-32.147 C 96.982,-259.123 42.368,-289.453 0,-289.453 c -0.28,0 -0.584,0.072 -0.904,0.072 L -0.904,0 0,0" /></g><g
             transform="translate(436.6653,505.2038)"
             id="g76"><path
               inkscape:connector-curvature="0"
               id="path78"
               style="fill:#a1663b;fill-opacity:1;fill-rule:nonzero;stroke:none"
               d="m 0,0 c -5.742,9.207 -14.621,5.247 -16.765,3.2 -2.311,-2.176 -4.151,-5.119 -2.735,-10.527 0.808,-3.063 4.031,-3.295 3.239,-7.966 -0.864,-5.207 -3.239,-5.559 -4.655,-6.735 -1.328,-1.208 -3.039,-2.072 -3.903,-4.304 -0.825,-2.199 -0.976,-4.559 -0.512,-6.55 0.895,-3.767 6.335,-0.784 10.006,0.896 2.431,1.095 10.095,7.567 12.006,9.766 C 1.568,-16.701 3.832,-6.127 0,0" /></g><g
             transform="translate(301.3372,642.2116)"
             id="g80"><path
               inkscape:connector-curvature="0"
               id="path82"
               style="fill:#ce8e50;fill-opacity:1;fill-rule:nonzero;stroke:none"
               d="m 0,0 c -38.201,0 -66.148,-11.094 -83.065,-33.082 -23.652,-30.643 -22.756,-77.482 -14.038,-111.061 2.664,-10.31 4.032,-37.977 5.864,-48.167 8.246,-45.448 58.285,-69.676 91.239,-69.676 0.272,0 0.584,0.04 0.856,0.04 L 0.856,0 0,0" /></g><g
             transform="translate(384.2024,609.0895)"
             id="g84"><path
               inkscape:connector-curvature="0"
               id="path86"
               style="fill:#db9659;fill-opacity:1;fill-rule:nonzero;stroke:none"
               d="m 0,0 c -16.765,21.82 -44.407,32.922 -82.009,33.122 l 0,-261.914 c 37.641,0.392 82.593,26.923 90.344,69.604 1.832,10.19 3.207,37.857 5.863,48.167 C 22.868,-77.514 23.732,-30.763 0,0" /></g><g
             transform="translate(351.2571,352.5905)"
             id="g88"><path
               inkscape:connector-curvature="0"
               id="path90"
               style="fill:#3b3a3c;fill-opacity:1;fill-rule:nonzero;stroke:none"
               d="m 0,0 c 0.096,-0.336 -3.496,1.16 -4.231,2.504 -2.168,3.519 -4.776,6.967 -7.927,10.63 -0.273,0.272 -0.552,0.52 -0.752,0.792 l -1.16,-6.599 -34.506,-17.517 -33.986,16.317 -1.704,7.799 c -0.143,-0.128 -0.271,-0.328 -0.463,-0.448 C -89.305,8.279 -97.184,-0.336 -97.111,0 -109.885,-2.927 -161.9,-20.708 -161.9,-115.428 c 0,0 0.944,-0.407 2.679,-1.151 l 221.362,0 c 1.719,0.744 2.655,1.151 2.655,1.151 C 64.796,-20.708 12.789,-2.927 0,0" /></g><g
             transform="translate(279.3889,236.0114)"
             id="g92"><path
               inkscape:connector-curvature="0"
               id="path94"
               style="fill:#151413;fill-opacity:1;fill-rule:nonzero;stroke:none"
               d="m 0,0 -67.684,0 c 0.552,9.07 1.152,25.764 0.88,48.327 -0.08,9.91 -1.912,23.596 -4.319,38.257 19.948,29.476 46.624,32.691 46.624,32.691 2.096,0 3.951,0.848 5.623,2.311 0,0 0,0.064 0.071,0.064 0.521,0.552 1.073,1.184 1.632,1.888 0.225,-0.152 -0.399,1.16 0,0 3.12,-8.27 11.59,-43.112 13.374,-56.158 C -0.08,40.457 0.152,13.069 0,0" /></g><g
             transform="translate(322.1741,236.0114)"
             id="g96"><path
               inkscape:connector-curvature="0"
               id="path98"
               style="fill:#151413;fill-opacity:1;fill-rule:nonzero;stroke:none"
               d="m 0,0 67.676,0 c -0.56,9.07 -1.152,25.764 -0.832,48.327 0.04,9.91 1.855,23.596 4.231,38.257 -19.908,29.476 -46.576,32.691 -46.576,32.691 -2.103,0 -3.959,0.848 -5.591,2.311 0,0 0,0.064 -0.072,0.064 -0.56,0.552 -1.111,1.184 -1.663,1.888 -0.24,-0.152 -0.632,-0.792 -1,-1.952 C 13.054,113.316 5.583,80.426 3.799,67.38 0.071,40.457 -0.16,13.069 0,0" /></g><g
             transform="translate(262.8714,361.9645)"
             id="g100"><path
               inkscape:connector-curvature="0"
               id="path102"
               style="fill:#151413;fill-opacity:1;fill-rule:nonzero;stroke:none"
               d="M 0,0 -7.208,-7.87 2.235,-11.88 0,0 Z" /></g><g
             transform="translate(337.0237,353.5314)"
             id="g104"><path
               inkscape:connector-curvature="0"
               id="path106"
               style="fill:#151413;fill-opacity:1;fill-rule:nonzero;stroke:none"
               d="m 0,0 3.564,10.426 c 0,0 5.284,-6.074 7.92,-11.762 L 0,0 Z" /></g><g
             transform="translate(322.0979,425.1086)"
             id="g108"><path
               inkscape:connector-curvature="0"
               id="path110"
               style="fill:#d1834a;fill-opacity:1;fill-rule:nonzero;stroke:none"
               d="m 0,0 c -3.047,0.127 -6.176,-2.021 -9.84,-1.693 -0.149,0.063 -0.223,0.063 -0.38,0.063 -0.842,0.126 -1.676,0 -2.593,-0.189 -1.139,-0.202 -2.287,-0.593 -3.359,-0.909 -1.832,-0.504 -3.895,-0.908 -6.018,-0.769 l 0,-0.012 c -0.044,0 -0.075,0.012 -0.12,0.012 -0.044,0 -0.074,-0.012 -0.118,-0.012 l 0,0.012 c -2.123,-0.139 -4.186,0.265 -6.018,0.769 -1.073,0.316 -2.22,0.707 -3.36,0.909 -0.916,0.189 -1.751,0.315 -2.592,0.189 -0.157,0 -0.231,0 -0.38,-0.063 -3.664,-0.328 -6.793,1.82 -9.84,1.693 -0.842,-0.062 -2.065,0.127 -2.749,0.127 0.149,-0.064 0.305,-0.127 0.463,-0.189 8.684,-3.583 16.178,-10.292 24.476,-10.078 l 0.118,0 0.12,0 c 8.297,-0.214 15.792,6.495 24.476,10.078 C 2.443,0 2.6,0.063 2.749,0.127 2.063,0.127 0.842,-0.062 0,0" /></g><g
             transform="translate(324.6497,425.3136)"
             id="g112"><path
               inkscape:connector-curvature="0"
               id="path114"
               style="fill:#c17c44;fill-opacity:1;fill-rule:nonzero;stroke:none"
               d="m 0,0 0.001,0 c 0,0 -8.832,2.877 -15.113,1.189 0,0 -2.338,-0.771 -4.761,-1.241 -1.474,-0.486 -3.259,-0.627 -4.987,-0.568 l -0.001,0 c -1.323,0.044 -2.577,0.186 -3.61,0.338 -0.342,0.045 -0.683,0.104 -1.034,0.167 -0.151,0.027 -0.265,0.047 -0.394,0.072 -0.212,0.041 -0.418,0.075 -0.627,0.121 -0.229,0.047 -0.365,0.079 -0.365,0.079 l 0.014,0.004 c -2.009,0.461 -3.732,1.028 -3.732,1.028 C -40.891,2.877 -49.723,0 -49.723,0 l 10e-4,0 c -0.122,-0.047 -0.197,-0.078 -0.197,-0.078 0.685,0 1.907,-0.19 2.749,-0.127 2.504,0.104 5.066,-1.326 7.933,-1.657 1.327,-0.311 5.419,-1.2 10.604,-1.608 1.174,-0.204 2.403,-0.314 3.654,-0.232 l 0,-0.012 c 0.043,0 0.074,0.012 0.118,0.012 0.045,0 0.075,-0.012 0.119,-0.012 l 0,0.012 c 0.706,-0.046 1.404,-0.028 2.09,0.03 4.059,0.055 8.362,0.54 12.324,1.827 2.804,0.364 5.317,1.742 7.776,1.64 0.842,-0.063 2.064,0.127 2.749,0.127 0,0 -0.075,0.031 -0.197,0.078" /></g><g
             transform="translate(281.4397,485.2428)"
             id="g116"><path
               inkscape:connector-curvature="0"
               id="path118"
               style="fill:#c17c44;fill-opacity:1;fill-rule:nonzero;stroke:none"
               d="M 0,0 C -0.42,8.585 15.721,3.137 21.042,2.868 25.246,2.653 38.038,5.574 39.137,4.821 46.662,-0.269 31.165,-10.521 20.774,-10.521 18.006,-10.521 0.25,-5.179 0,0" /></g><g
             transform="translate(379.8772,524.6017)"
             id="g120"><path
               inkscape:connector-curvature="0"
               id="path122"
               style="fill:#ffffff;fill-opacity:1;fill-rule:nonzero;stroke:none"
               d="m 0,0 c 0,0 -9.422,-17.452 -24.51,-18.946 -15.087,-1.51 -31.246,1.226 -31.246,1.226 0,0 1.734,16.316 9.528,19.035 C -38.433,4.049 -23.458,6.496 0,0" /></g><g
             transform="translate(333.7307,518.5441)"
             id="g124"><path
               inkscape:connector-curvature="0"
               id="path126"
               style="fill:#2d1e16;fill-opacity:1;fill-rule:nonzero;stroke:none"
               d="M 0,0 C 0.807,-7.238 7.763,-12.728 15.52,-12.276 23.299,-11.825 28.932,-5.58 28.125,1.64 27.318,8.896 20.362,14.387 12.595,13.935 4.827,13.484 -0.828,7.239 0,0" /></g><g
             transform="translate(348.2903,511.9586)"
             id="g128"><path
               inkscape:connector-curvature="0"
               id="path130"
               style="fill:#191e22;fill-opacity:1;fill-rule:nonzero;stroke:none"
               d="M 0,0 C 2.884,0.168 5.806,3.071 5.402,6.756 4.987,10.423 1.449,12.96 -1.435,12.793 -4.317,12.627 -7.239,9.703 -6.836,6.037 -6.421,2.372 -2.883,-0.167 0,0" /></g><g
             transform="translate(324.1038,506.9474)"
             id="g132"><path
               inkscape:connector-curvature="0"
               id="path134"
               style="fill:#915533;fill-opacity:1;fill-rule:nonzero;stroke:none"
               d="m 0,0 c 0,0 0.34,-0.052 1.108,-0.204 0.43,6.282 1.965,14.894 6.842,16.562 7.243,2.577 23.508,6.238 44.686,-3.406 2.074,2.712 3.136,4.75 3.136,4.75 C 32.683,29.879 14.777,25.905 7.055,23.186 -0.759,20.452 0,0 0,0" /></g><g
             transform="translate(222.6663,526.0046)"
             id="g136"><path
               inkscape:connector-curvature="0"
               id="path138"
               style="fill:#ffffff;fill-opacity:1;fill-rule:nonzero;stroke:none"
               d="m 0,0 c 0,0 10.046,-17.956 25.188,-19.905 15.143,-1.966 31.214,0.349 31.214,0.349 0,0 -1.107,17.251 -9.003,20.218 C 39.502,3.645 23.098,7.254 0,0" /></g><g
             transform="translate(265.9846,518.5036)"
             id="g140"><path
               inkscape:connector-curvature="0"
               id="path142"
               style="fill:#2d1e16;fill-opacity:1;fill-rule:nonzero;stroke:none"
               d="m 0,0 c -0.658,-7.009 -7.23,-12.237 -14.675,-11.675 -7.455,0.544 -12.95,6.677 -12.292,13.668 0.657,7.009 7.23,12.256 14.685,11.693 C -4.848,13.124 0.667,7.008 0,0" /></g><g
             transform="translate(252.1477,512.3176)"
             id="g144"><path
               inkscape:connector-curvature="0"
               id="path146"
               style="fill:#191e22;fill-opacity:1;fill-rule:nonzero;stroke:none"
               d="m 0,0 c -2.763,0.202 -5.608,3.079 -5.279,6.638 0.337,3.54 3.685,5.955 6.448,5.754 C 3.932,12.19 6.786,9.312 6.448,5.754 6.111,2.213 2.773,-0.202 0,0" /></g><g
             transform="translate(279.0862,506.4977)"
             id="g148"><path
               inkscape:connector-curvature="0"
               id="path150"
               style="fill:#623b23;fill-opacity:1;fill-rule:nonzero;stroke:none"
               d="M 0,0 C 0,0 -0.339,-0.03 -1.105,-0.155 -1.756,6.2 -3.596,14.984 -8.52,16.824 c -8.936,3.431 -25.096,6.389 -44.603,-2.165 -2.156,2.793 -3.289,4.897 -3.289,4.897 22.678,11.668 40.724,7.131 48.551,4.149 C 0.051,20.705 0,0 0,0" /></g><g
             transform="translate(381.2454,542.7473)"
             id="g152"><path
               inkscape:connector-curvature="0"
               id="path154"
               style="fill:#231f20;fill-opacity:1;fill-rule:nonzero;stroke:none"
               d="m 0,0 c -0.363,0.251 -0.759,0.562 -1.196,0.906 -1.14,0.895 -2.558,2.008 -4.366,2.885 -2.634,1.555 -5.729,2.93 -8.99,3.987 -4.214,1.126 -7.91,1.715 -11.316,1.801 -3.745,0.004 -7.699,-0.503 -11.441,-1.468 -3.033,-0.802 -6.144,-2.078 -9.25,-3.792 -4.938,-2.723 -7.603,-5.651 -7.804,-5.876 l -0.05,-0.053 c -0.908,-1.025 -0.946,-2.554 -0.091,-3.635 0.486,-0.617 0.992,-3.363 1.782,-3.468 l 0.002,0 c 0.79,-0.104 1.572,0.096 2.2,0.564 l 0.028,0.02 c 0.246,0.18 2.769,1.994 7.139,4.049 2.214,1.163 5.016,2.071 7.923,2.971 3.093,0.913 6.395,1.45 9.589,1.556 2.866,0.248 6.086,0.094 9.795,-0.439 l 1.483,-0.302 c 1.079,-0.22 2.126,-0.433 3.153,-0.638 0.907,-0.163 1.767,-0.45 2.601,-0.728 0.486,-0.162 0.96,-0.32 1.431,-0.452 2.014,-0.563 3.704,-1.243 5.063,-1.789 0.354,-0.143 0.685,-0.276 1.002,-0.398 L 5.47,-4.392 0,0 Z" /></g><g
             transform="translate(224.2366,541.9992)"
             id="g156"><path
               inkscape:connector-curvature="0"
               id="path158"
               style="fill:#231f20;fill-opacity:1;fill-rule:nonzero;stroke:none"
               d="m 0,0 c 0.363,0.251 0.759,0.562 1.196,0.906 1.14,0.895 2.558,2.008 4.366,2.885 2.634,1.555 5.729,2.93 8.99,3.986 4.214,1.127 7.91,1.716 11.317,1.802 3.744,0.004 7.698,-0.503 11.44,-1.468 3.033,-0.802 6.145,-2.079 9.25,-3.793 4.938,-2.723 7.603,-5.65 7.804,-5.875 l 0.05,-0.053 c 0.908,-1.025 0.946,-2.555 0.091,-3.635 -0.486,-0.617 -0.992,-3.363 -1.782,-3.468 l -0.002,0 c -0.79,-0.105 -1.571,0.096 -2.2,0.564 l -0.028,0.02 c -0.246,0.18 -2.769,1.994 -7.139,4.049 -2.213,1.163 -5.016,2.07 -7.923,2.971 -3.093,0.913 -6.395,1.45 -9.589,1.555 -2.866,0.249 -6.086,0.095 -9.795,-0.438 L 14.563,-0.294 C 13.484,-0.514 12.437,-0.727 11.41,-0.932 10.503,-1.095 9.643,-1.382 8.809,-1.66 8.323,-1.822 7.849,-1.98 7.378,-2.112 5.364,-2.675 3.674,-3.355 2.315,-3.901 1.961,-4.044 1.63,-4.177 1.313,-4.299 L -5.469,-4.393 0,0 Z" /></g><g
             transform="translate(222.846,547.5632)"
             id="g160"><path
               inkscape:connector-curvature="0"
               id="path162"
               style="fill:#110f0e;fill-opacity:1;fill-rule:nonzero;stroke:none"
               d="m 0,0 1.59,6.468 c 73.785,-10.472 98.333,55.58 98.333,55.58 l 10.863,-3.179 C 79.18,-29.476 0,0 0,0 m 183.448,99.408 c -10.946,10.238 -24.814,13.893 -24.814,13.893 0,0 -30.642,15.349 -53.999,26.312 -23.333,10.947 -61.275,2.181 -80.97,-2.922 -19.711,-5.119 -43.178,-33.171 -50.469,-48.504 -7.284,-15.358 -25.423,-48.68 -31.258,-72.779 -5.827,-24.115 13.786,-47.506 26.022,-52.5 7.949,-3.247 8.457,-21.968 8.457,-21.968 l 8.699,-3.854 c 0,0 -1.065,29.626 12.378,52.867 94.088,-39.091 122.649,58.286 123.931,62.856 0.116,0.108 0.216,0.199 0.333,0.299 6.6,-1.548 17.563,-5.468 31.148,-15.558 13.794,-10.263 30.775,-24.472 30.775,-55.189 0,-10.272 -4.595,-40.155 -4.595,-40.155 l 4.595,3.254 c 0,0 0,11.587 13.102,18.83 10.422,5.801 13.077,25.496 13.077,33.637 0,54.424 -15.458,91.259 -26.412,101.481" /></g><g
             transform="translate(344.388,409.4396)"
             id="g164"><path
               inkscape:connector-curvature="0"
               id="path166"
               style="fill:none;stroke:#c47d4e;stroke-width:2.15389276;stroke-linecap:butt;stroke-linejoin:miter;stroke-miterlimit:10;stroke-dasharray:none;stroke-opacity:1"
               d="M 0,0 C 6.729,16.295 -4.406,36.327 -24.895,44.786" /></g><g
             transform="translate(255.1897,409.4396)"
             id="g168"><path
               inkscape:connector-curvature="0"
               id="path170"
               style="fill:none;stroke:#c47d4e;stroke-width:2.15389276;stroke-linecap:butt;stroke-linejoin:miter;stroke-miterlimit:10;stroke-dasharray:none;stroke-opacity:1"
               d="M 0,0 C -6.729,16.295 4.406,36.327 24.895,44.786" /></g><g
             transform="translate(224.0696,526.1281)"
             id="g172"><path
               inkscape:connector-curvature="0"
               id="path174"
               style="fill:#c17c44;fill-opacity:1;fill-rule:nonzero;stroke:none"
               d="m 0,0 c -0.068,-0.105 -0.146,-0.206 -0.214,-0.312 0.142,0.08 0.281,0.151 0.422,0.229 L 0,0 Z" /></g></g></g></g></g></svg>