<?xml version="1.0" encoding="UTF-8" standalone="no"?>
<!-- Created with Inkscape (http://www.inkscape.org/) -->

<svg
   xmlns:dc="http://purl.org/dc/elements/1.1/"
   xmlns:cc="http://creativecommons.org/ns#"
   xmlns:rdf="http://www.w3.org/1999/02/22-rdf-syntax-ns#"
   xmlns:svg="http://www.w3.org/2000/svg"
   xmlns="http://www.w3.org/2000/svg"
   xmlns:sodipodi="http://sodipodi.sourceforge.net/DTD/sodipodi-0.dtd"
   xmlns:inkscape="http://www.inkscape.org/namespaces/inkscape"
   id="svg2"
   version="1.1"
   inkscape:version="0.91 r13725"
   xml:space="preserve"
   width="400"
   height="600"
   viewBox="0 0 400 600"
   sodipodi:docname="carmen.svg"
   inkscape:export-filename="/home/alec/Projects/Brookings/out-of-work/data/avatars/carmen.png"
   inkscape:export-xdpi="90"
   inkscape:export-ydpi="90"><metadata
     id="metadata8"><rdf:RDF><cc:Work
         rdf:about=""><dc:format>image/svg+xml</dc:format><dc:type
           rdf:resource="http://purl.org/dc/dcmitype/StillImage" /><dc:title /></cc:Work></rdf:RDF></metadata><defs
     id="defs6"><clipPath
       clipPathUnits="userSpaceOnUse"
       id="clipPath16"><path
         d="M 0,792 612,792 612,0 0,0 0,792 Z"
         id="path18"
         inkscape:connector-curvature="0" /></clipPath><clipPath
       clipPathUnits="userSpaceOnUse"
       id="clipPath66"><path
         d="M 0,792 612,792 612,0 0,0 0,792 Z"
         id="path68"
         inkscape:connector-curvature="0" /></clipPath></defs><sodipodi:namedview
     pagecolor="#ffffff"
     bordercolor="#666666"
     borderopacity="1"
     objecttolerance="10"
     gridtolerance="10"
     guidetolerance="10"
     inkscape:pageopacity="0"
     inkscape:pageshadow="2"
     inkscape:window-width="1622"
     inkscape:window-height="965"
     id="namedview4"
     showgrid="false"
     inkscape:zoom="0.47676768"
     inkscape:cx="-543.69931"
     inkscape:cy="503.67554"
     inkscape:window-x="69"
     inkscape:window-y="34"
     inkscape:window-maximized="0"
     inkscape:current-layer="g10" /><g
     id="g10"
     inkscape:groupmode="layer"
     inkscape:label="AvatarsR2"
     transform="matrix(1.25,0,0,-1.25,0,600)"><text
       transform="scale(1,-1)"
       style="font-variant:normal;font-weight:300;font-stretch:normal;font-size:13px;font-family:Interstate-Light;-inkscape-font-specification:Interstate-Light;writing-mode:lr-tb;fill:#231f20;fill-opacity:1;fill-rule:nonzero;stroke:none"
       id="text48"
       x="58.926453"
       y="55.347084"><tspan
         x="58.926453 66.244148 73.134148 79.07515 84.887451 89.073448 96.093452 103.36045 110.73145 116.94545 123.95245 128.52844 135.54845 142.81544 146.19545 153.46245 158.75345 162.01645 173.04045 180.06046 184.05016 191.05716 198.32416 205.34415 208.72415 215.99115 223.01115 230.36916 237.63615 240.89915 247.91916 251.03915"
         y="55.347084"
         sodipodi:role="line"
         id="tspan50">Less-educated prime-age people; </tspan><tspan
         x="63.814449 74.838448 81.845451 88.918755 95.821754 99.201752 106.83275 114.20375 121.47075 124.73375 127.99675 134.06775 141.43875"
         y="70.947083"
         sodipodi:role="line"
         id="tspan52">many English </tspan></text>
<text
       transform="scale(1,-1)"
       style="font-variant:normal;font-weight:normal;font-stretch:normal;font-size:13px;font-family:'Myriad Pro';-inkscape-font-specification:MyriadPro-Regular;writing-mode:lr-tb;fill:#231f20;fill-opacity:1;fill-rule:nonzero;stroke:none"
       id="text54"
       x="144.81876"
       y="70.947083"><tspan
         x="144.81876 147.88675 154.15276 161.36775 168.63475 175.79774 182.06375 189.33075 196.20775 200.19875 203.26675 209.77975 216.04575 220.34875 227.56375 234.07675 238.32776 243.47575 246.16675"
         y="70.947083"
         sodipodi:role="line"
         id="tspan56">language-learners: </tspan></text>
<text
       transform="scale(1,-1)"
       style="font-variant:normal;font-weight:normal;font-stretch:normal;font-size:34px;font-family:'Myriad Pro';-inkscape-font-specification:MyriadPro-Regular;writing-mode:lr-tb;fill:#231f20;fill-opacity:1;fill-rule:nonzero;stroke:none"
       id="text58"
       x="99.290649"
       y="107.94769"><tspan
         x="99.290649 118.77265 135.16064 146.41466 174.77066 191.80466"
         y="107.94769"
         sodipodi:role="line"
         id="tspan60">Carmen</tspan></text>
<g
       id="g4208"
       transform="matrix(0.93832297,0,0,0.93832297,-133.91976,-189.8877)"><g
         id="g12"><g
           clip-path="url(#clipPath16)"
           id="g14"><g
             transform="translate(303.2698,353.7287)"
             id="g20"><path
               inkscape:connector-curvature="0"
               id="path22"
               style="fill:#110f0e;fill-opacity:1;fill-rule:nonzero;stroke:none"
               d="m 0,0 c -21.052,-1.784 -31.597,-13.717 -36.228,-6.216 -4.614,7.556 -16.365,17.269 -20.575,27.45 -4.202,10.164 -9.237,23.85 -9.237,23.85 0,0 -4.995,-0.967 -2.442,-16.46 1.832,-11.244 10.165,-15.993 10.165,-15.993 0,0 -13.749,1.927 -18.245,15.215 -2.275,6.748 -2.41,19.712 -4.948,28.981 -2.537,9.3 -14.827,20.131 -14.827,20.131 0,0 4.908,-7.715 1.087,-22.042 -1.261,-4.702 -8.738,-20.901 -1.998,-29.02 6.747,-8.111 17.079,-6.637 17.079,-6.637 0,0 -15.747,-5.542 -23.739,2.403 -7.969,7.968 -11.775,7.239 -12.608,17.99 -0.832,10.752 0.833,14.724 -2.537,24.89 -3.33,10.18 -10.506,28.75 -10.506,28.75 0,0 20.576,-20.195 8.643,-41.587 -6.09,-10.895 -22.542,-10.435 -20.972,-9.206 0,0 32.825,4.472 3.219,43.086 -7.168,9.324 1.832,23.739 -2.807,39.66 -4.615,15.914 -3.568,33.944 4.21,50.285 5.17,10.919 9.65,27.87 16.794,52.664 7.175,24.723 29.178,35.974 40.525,54.123 11.37,18.118 10.125,23.288 24.421,28.148 14.288,4.852 13.043,5.732 29.44,5.732 16.397,0 36.607,-8.824 36.607,-8.824 0,0 5.9,5.597 5.686,8.111 -0.658,8.262 -5.686,14.867 -5.686,14.867 0,0 12.195,-11.291 13.456,-13.266 3.726,-5.883 2.529,-11.061 2.529,-11.061 0,0 2.498,9.293 14.717,9.293 12.171,0 16.396,1.34 26.07,-3.084 9.688,-4.44 18.086,-11.949 29.02,-19.918 10.933,-7.928 19.354,-10.608 27.775,-21.661 8.412,-11.061 18.887,-23.406 21.812,-34.031 2.957,-10.593 -0.373,-24.778 -0.373,-37.615 0,-12.821 0.23,-26.744 4.449,-36.108 4.21,-9.404 -2.435,-23.137 6.406,-21.924 6.977,0.952 7.786,4.615 7.786,4.615 0,0 -3.702,-12.94 -15.984,-7.39 -5.369,2.41 -8.953,13.479 -8.953,13.479 0,0 11.18,-12.908 11.751,-22.653 1.562,-26.744 -12.956,-31.033 -11.148,-61.552 0.357,-6.248 0.81,-12.948 9.895,-9.261 3.823,1.554 5.757,3.901 5.757,3.901 0,0 -9.689,-12.06 -18.047,-4.852 -5.312,4.543 -9.165,36.917 -9.165,36.917 0,0 9.721,-15.105 1.538,-37.845 -4.543,-12.639 -17.158,-18.617 -19.029,-21.194 -3.822,-5.202 -5.131,-13.757 -0.515,-17.761 4.646,-3.972 12.543,-1.934 12.543,-1.934 0,0 -4.464,-3.037 -8.207,-3.386 -2.132,-0.19 -7.857,-1.546 -13.724,3.425 -5.012,4.282 -6.7,9.753 -4.583,20.377 2.085,10.61 9.276,19.403 9.276,19.403 0,0 -8,-27.419 -10.941,-32.311 C 91.682,18.11 92.903,13.844 88.28,10.514 84.522,7.826 71.876,6.272 72.613,-9.832 c 0.206,-4.702 5.558,-6.089 5.558,-6.089 0,0 -12.337,0.793 -12.425,11.996 -0.047,6.272 -0.285,5.305 2.529,12.536 3.482,9.031 13.742,11.727 13.742,21.44 0,9.76 -3.846,15.033 -3.846,15.033 0,0 6.502,-7.937 -0.372,-15.731 C 74.302,25.396 72.335,22.954 63.923,17.214 55.511,11.473 54.678,11.473 53.813,7.501 53.005,3.536 60.553,1.768 51.704,-1.784 42.88,-5.32 57.619,-14.161 32.374,-6.636 7.144,0.88 0,0 0,0" /></g><g
             transform="translate(308.6848,430.9167)"
             id="g24"><path
               inkscape:connector-curvature="0"
               id="path26"
               style="fill:#ae724a;fill-opacity:1;fill-rule:nonzero;stroke:none"
               d="m 0,0 0,-198.707 -106.176,0 c -1.617,0.77 -2.593,1.118 -2.593,1.118 0,50.175 14.368,78.505 29.551,94.426 17.206,17.943 35.435,20.147 35.435,20.147 l 0.531,0 c 0.46,0.064 0.959,0.151 1.403,0.317 5.376,1.499 9.087,9.531 11.49,21.036 0.444,1.966 0.785,4.004 1.086,6.192 0.602,3.679 1.212,7.525 1.514,11.537 0.285,2.426 0.42,4.852 0.643,7.366 0.967,12.179 1.3,25.42 1.3,38.035 0,0 12.861,-1.324 24.041,-1.467 L 0,0 Z" /></g><g
             transform="translate(416.0422,233.3278)"
             id="g28"><path
               inkscape:connector-curvature="0"
               id="path30"
               style="fill:#b47952;fill-opacity:1;fill-rule:nonzero;stroke:none"
               d="m 0,0 c 0,0 -0.982,-0.349 -2.537,-1.118 l -106.596,0 0,198.707 1.776,0 c 11.243,0.142 24.349,1.467 24.349,1.467 0,-12.488 0.302,-25.635 1.27,-37.734 0.206,-2.434 0.435,-4.844 0.657,-7.199 0.468,-4.179 0.889,-8.104 1.483,-11.846 l 0,-0.032 c 0.23,-1.704 0.539,-3.195 0.84,-4.742 2.221,-11.131 5.48,-19.306 10.261,-22.042 0.372,-0.158 0.729,-0.349 1.126,-0.42 0.721,-0.317 1.554,-0.468 2.386,-0.468 0,0 16.595,-2.046 32.961,-17.721 3.424,-3.354 6.842,-7.215 10.132,-11.846 C -9.823,68.046 0,41.556 0,0" /></g><g
             transform="translate(394.2063,319.2697)"
             id="g32"><path
               inkscape:connector-curvature="0"
               id="path34"
               style="fill:#e3456c;fill-opacity:1;fill-rule:nonzero;stroke:none"
               d="m 0,0 c -3.973,6.05 -10.545,11.101 -13.971,14.438 -0.515,-2.418 1.404,-7.46 0.951,-9.007 l 0.358,-1.649 c -1.134,-3.949 -1.927,-9.261 -3.719,-12.155 -10.03,-16.492 -49.183,-33.405 -59.34,-34.451 -1.316,-0.143 -2.791,-0.301 -4.44,-0.452 -1.721,-0.167 -3.505,-0.238 -5.36,-0.396 -0.579,0 -1.166,0 -1.776,-0.072 l -0.381,0 c -2.672,0.159 -5.289,0.301 -7.564,0.468 -1.681,0.151 -3.163,0.309 -4.495,0.452 -7.011,0.724 -27.871,9.042 -43.413,19.561 l -5.739,44.925 c -5.529,-3.757 -10.163,-7.589 -14.047,-11.3 -3.71,-3.22 -7.273,-7.215 -10.584,-12.002 -5.957,-8.159 -7.849,-13.968 -7.849,-13.968 -7.819,-17.161 -12.921,-40.541 -12.921,-70.334 0,0 0.976,-0.349 2.593,-1.117 l 210.996,0 c 1.555,0.768 2.537,1.117 2.537,1.117 C 21.836,-44.386 12.44,-18.958 0,0" /></g><g
             transform="translate(395.1819,244.8649)"
             id="g36"><path
               inkscape:connector-curvature="0"
               id="path38"
               style="fill:#b23a54;fill-opacity:1;fill-rule:nonzero;stroke:none"
               d="m 0,0 c -5.162,0 -11.457,-0.968 -18.792,8.222 -6.93,8.706 -6.811,30.994 -22.098,34.919 12.528,3.845 25.745,8.531 27.672,21.86 0.73,5.003 0.658,9.546 0.357,13.186 l 0,0.071 c -0.603,5.598 -1.72,10.062 -1.72,10.062 0,0 -3.553,4.622 -8.548,7.746 -2.648,1.65 -11.68,4.353 -11.68,4.353 0,-9.76 7.898,-31.866 -1.791,-39.192 -9.602,-7.358 -30.447,-13.376 -35.981,-16.302 -5.559,-2.965 -7.493,-6.811 -8.461,-12.298 -0.095,-0.349 -0.15,-0.816 -0.15,-1.498 -0.587,-7.137 -0.436,-31.446 -0.357,-43.784 l 11.821,0 c -0.395,7.279 -0.903,18.998 -0.903,25.579 0,4.265 -0.492,9.189 2.982,14.692 9.03,1.197 22.684,4.433 27.758,-1.768 6.09,-7.279 11.045,-23.113 13.472,-27.323 2.449,-4.218 5.621,-5.701 10.156,-6.422 0.286,-0.08 0.674,-0.127 1.238,-0.127 5.882,-0.445 25.959,-0.333 36.147,-0.27 l 0,8.999 C 15.12,0.396 5.439,0 0,0" /></g><g
             transform="translate(222.1887,244.8649)"
             id="g40"><path
               inkscape:connector-curvature="0"
               id="path42"
               style="fill:#b23a54;fill-opacity:1;fill-rule:nonzero;stroke:none"
               d="m 0,0 c 5.161,0 11.457,-0.968 18.791,8.222 6.931,8.706 6.812,30.994 22.099,34.919 -12.529,3.845 -25.745,8.531 -27.672,21.86 -0.73,5.003 -0.658,9.546 -0.358,13.186 l 0,0.071 c 0.603,5.598 1.729,10.062 1.729,10.062 0,0 3.544,4.622 8.54,7.746 2.656,1.65 11.679,4.353 11.679,4.353 0,-9.76 -7.898,-31.866 1.792,-39.192 9.601,-7.358 30.447,-13.376 35.981,-16.302 5.566,-2.965 7.493,-6.811 8.46,-12.298 0.096,-0.349 0.151,-0.816 0.151,-1.498 0.586,-7.137 0.436,-31.446 0.357,-43.784 l -11.822,0 c 0.396,7.279 0.904,18.998 0.904,25.579 0,4.265 0.491,9.189 -2.982,14.692 C 58.618,28.813 44.965,32.049 39.891,25.848 33.801,18.569 28.846,2.735 26.419,-1.475 23.969,-5.693 20.798,-7.176 16.262,-7.897 15.977,-7.977 15.588,-8.024 15.033,-8.024 9.149,-8.469 -10.935,-8.357 -21.123,-8.294 l 0,8.999 C -15.112,0.396 -5.439,0 0,0" /></g><g
             transform="translate(334.9534,387.4108)"
             id="g44"><path
               inkscape:connector-curvature="0"
               id="path46"
               style="fill:#50331e;fill-opacity:1;fill-rule:nonzero;stroke:none"
               d="M 0,0 C -0.214,2.395 -0.443,4.773 -0.674,7.2 -8.639,4.991 -17.121,3.688 -26.269,3.396 -26.873,3.377 -27.473,3.348 -28.084,3.338 l -0.285,0 c -1.097,0.019 -2.185,0.054 -3.264,0.101 -0.288,0.013 -0.572,0.034 -0.859,0.049 -0.794,0.04 -1.586,0.082 -2.37,0.138 -0.29,0.02 -0.576,0.049 -0.865,0.071 -0.778,0.061 -1.554,0.124 -2.324,0.199 -0.263,0.026 -0.523,0.059 -0.786,0.086 -0.79,0.084 -1.579,0.169 -2.36,0.268 -0.228,0.029 -0.451,0.062 -0.678,0.092 -0.813,0.107 -1.623,0.219 -2.425,0.342 -0.189,0.029 -0.377,0.062 -0.566,0.092 -0.836,0.133 -1.668,0.271 -2.491,0.421 -0.154,0.028 -0.305,0.058 -0.458,0.086 -0.854,0.159 -1.703,0.324 -2.543,0.501 -0.13,0.027 -0.258,0.056 -0.388,0.084 -0.899,0.192 -1.792,0.39 -2.677,0.602 -0.198,-2.345 -0.337,-4.625 -0.604,-6.898 -0.302,-4.012 -0.912,-7.858 -1.515,-11.537 -0.093,-0.677 -0.2,-1.316 -0.303,-1.967 0.861,-1.076 1.998,-2.37 3.381,-3.728 l 0,-0.008 c 0.08,-0.079 0.168,-0.159 0.249,-0.238 0.177,-0.17 0.353,-0.338 0.536,-0.51 0.215,-0.2 0.44,-0.4 0.665,-0.602 0.171,-0.152 0.335,-0.304 0.513,-0.457 0.383,-0.331 0.782,-0.661 1.195,-0.991 0.169,-0.135 0.348,-0.268 0.523,-0.402 0.286,-0.221 0.575,-0.44 0.875,-0.658 0.198,-0.144 0.4,-0.286 0.604,-0.429 0.308,-0.215 0.624,-0.427 0.947,-0.637 0.196,-0.129 0.389,-0.258 0.59,-0.385 0.485,-0.303 0.981,-0.6 1.494,-0.888 0.11,-0.062 0.222,-0.122 0.335,-0.183 0.485,-0.266 0.983,-0.524 1.494,-0.773 0.204,-0.1 0.414,-0.194 0.622,-0.29 0.413,-0.191 0.832,-0.376 1.26,-0.554 0.223,-0.092 0.446,-0.184 0.673,-0.272 0.484,-0.188 0.979,-0.365 1.481,-0.533 0.171,-0.057 0.336,-0.12 0.509,-0.175 0.671,-0.213 1.36,-0.407 2.065,-0.581 0.176,-0.044 0.358,-0.078 0.536,-0.118 0.547,-0.125 1.101,-0.239 1.666,-0.337 0.25,-0.044 0.502,-0.082 0.755,-0.12 0.538,-0.081 1.084,-0.147 1.639,-0.202 0.243,-0.024 0.483,-0.052 0.729,-0.071 0.793,-0.06 1.598,-0.102 2.425,-0.105 l 0.15,0 c 0.565,0 1.119,0.012 1.665,0.036 16.701,0.72 25.234,12.158 27.76,16.266 l 0,0.071 C 0.889,-8.111 0.437,-4.17 0,0" /></g></g></g><g
         id="g62"><g
           clip-path="url(#clipPath66)"
           id="g64"><g
             transform="translate(198.3459,422.2824)"
             id="g70"><path
               inkscape:connector-curvature="0"
               id="path72"
               style="fill:#231f20;fill-opacity:1;fill-rule:nonzero;stroke:none"
               d="m 0,0 c 0.452,-0.959 21.575,-26.776 19.941,-53.774 -0.57,-10.054 -8.134,-21.527 -8.134,-21.527 0,0 16.055,9.895 17.015,27.703 C 31.011,-7.755 9.928,15.263 9.928,15.263 L 0,0 Z" /></g><g
             transform="translate(223.4973,413.0685)"
             id="g74"><path
               inkscape:connector-curvature="0"
               id="path76"
               style="fill:#231f20;fill-opacity:1;fill-rule:nonzero;stroke:none"
               d="m 0,0 c 0.459,-0.936 21.605,-26.736 19.98,-53.718 -0.61,-10.07 -8.143,-21.543 -8.143,-21.543 0,0 16.057,9.895 17,27.656 C 31.025,-7.715 9.95,15.311 9.95,15.311 L 0,0 Z" /></g><g
             transform="translate(306.7981,644.4899)"
             id="g78"><path
               inkscape:connector-curvature="0"
               id="path80"
               style="fill:#ae724a;fill-opacity:1;fill-rule:nonzero;stroke:none"
               d="m 0,0 c -110.783,0.19 -111.449,-90.405 -106.509,-149.476 -7.596,13.86 -30.066,8.698 -28.227,-13.495 1.776,-21.273 33.507,-30.915 33.071,-28.56 9.063,-48.144 61.291,-74.881 101.665,-78.655 0.27,-0.047 0.579,-0.047 0.832,-0.047 l 0,270.193 C 0.562,-0.04 0.27,0 0,0" /></g><g
             transform="translate(177.6282,490.923)"
             id="g82"><path
               inkscape:connector-curvature="0"
               id="path84"
               style="fill:#2d1e16;fill-opacity:1;fill-rule:nonzero;stroke:none"
               d="m 0,0 c 5.558,8.555 14.121,4.853 16.246,2.965 2.236,-2.046 4.004,-4.773 2.625,-9.856 -0.777,-2.854 -3.878,-3.06 -3.156,-7.405 0.848,-4.892 3.172,-5.217 4.535,-6.335 1.293,-1.078 2.958,-1.919 3.79,-3.996 0.777,-2.046 0.936,-4.234 0.492,-6.138 -0.864,-3.504 -6.145,-0.681 -9.689,0.857 -2.347,0.999 -9.777,7.096 -11.624,9.126 C -1.522,-15.644 -3.719,-5.757 0,0" /></g><g
             transform="translate(307.3606,644.4899)"
             id="g86"><path
               inkscape:connector-curvature="0"
               id="path88"
               style="fill:#b47952;fill-opacity:1;fill-rule:nonzero;stroke:none"
               d="m 0,0 c 110.799,0.19 111.441,-90.405 106.502,-149.476 7.596,13.86 30.082,8.698 28.227,-13.495 -1.777,-21.273 -33.508,-30.915 -33.087,-28.56 C 92.586,-239.675 40.366,-266.412 0,-270.186 c -0.293,-0.047 -0.586,-0.047 -0.88,-0.047 l 0,270.193 C -0.562,-0.04 -0.293,0 0,0" /></g><g
             transform="translate(437.3235,490.923)"
             id="g90"><path
               inkscape:connector-curvature="0"
               id="path92"
               style="fill:#2d1e16;fill-opacity:1;fill-rule:nonzero;stroke:none"
               d="m 0,0 c -5.558,8.555 -14.121,4.853 -16.238,2.965 -2.236,-2.046 -4.02,-4.773 -2.657,-9.856 0.793,-2.854 3.902,-3.06 3.141,-7.405 -0.833,-4.892 -3.18,-5.217 -4.504,-6.335 -1.308,-1.078 -2.958,-1.919 -3.79,-3.996 -0.793,-2.046 -0.943,-4.234 -0.483,-6.138 0.84,-3.504 6.144,-0.681 9.68,0.857 2.316,0.999 9.753,7.096 11.632,9.126 C 1.515,-15.644 3.711,-5.757 0,0" /></g><g
             transform="translate(306.2268,618.8322)"
             id="g94"><path
               inkscape:connector-curvature="0"
               id="path96"
               style="fill:#ae724a;fill-opacity:1;fill-rule:nonzero;stroke:none"
               d="m 0,0 c -37.02,0 -64.081,-10.371 -80.494,-30.867 -22.891,-28.64 -22.011,-72.376 -13.574,-103.75 2.577,-9.61 3.917,-35.467 5.701,-44.942 7.976,-42.459 56.445,-65.056 88.367,-65.056 0.254,0 0.571,0.039 0.841,0.039 L 0.841,0 0,0" /></g><g
             transform="translate(386.5237,587.8937)"
             id="g98"><path
               inkscape:connector-curvature="0"
               id="path100"
               style="fill:#b47952;fill-opacity:1;fill-rule:nonzero;stroke:none"
               d="m 0,0 c -16.271,20.377 -43.038,30.74 -79.456,30.938 l 0,-244.575 c 36.457,0.381 80.018,25.127 87.504,65.017 1.752,9.475 3.099,35.331 5.677,44.941 C 22.161,-72.391 22.962,-28.687 0,0" /></g><g
             transform="translate(339.9797,416.1759)"
             id="g102"><path
               inkscape:connector-curvature="0"
               id="path104"
               style="fill:#4f2c1b;fill-opacity:1;fill-rule:nonzero;stroke:none"
               d="m 0,0 c 0,0 -14.771,-12.316 -32.969,-12.316 -18.17,0 -32.059,12.059 -32.059,12.059 0,0 13.889,1.866 32.059,1.866 C -14.771,1.609 0,0 0,0" /></g><g
             transform="translate(316.3684,421.841)"
             id="g106"><path
               inkscape:connector-curvature="0"
               id="path108"
               style="fill:#7a3619;fill-opacity:1;fill-rule:nonzero;stroke:none"
               d="M 0,0 C -5.133,0 -9.218,-2.446 -9.357,-5.568 -9.413,-2.446 -13.525,0 -18.646,0 c -5.175,0 -23.639,-5.665 -23.639,-5.665 0,0 18.03,-1.47 23.164,-1.47 5.147,0 9.708,-1.62 9.764,1.417 0.084,-3.037 3.818,-1.824 8.952,-1.824 5.119,0 24.016,1.877 24.016,1.877 C 23.611,-5.665 5.176,0 0,0" /></g><g
             transform="translate(284.8528,448.4015)"
             id="g110"><path
               inkscape:connector-curvature="0"
               id="path112"
               style="fill:#6a4126;fill-opacity:1;fill-rule:nonzero;stroke:none"
               d="M 0,0 C -0.448,9.17 16.793,3.351 22.477,3.063 26.968,2.833 40.633,5.954 41.806,5.15 49.845,-0.287 33.29,-11.238 22.19,-11.238 19.233,-11.238 0.268,-5.532 0,0" /></g><g
             transform="translate(237.8499,508.5592)"
             id="g114"><path
               inkscape:connector-curvature="0"
               id="path116"
               style="fill:#ffffff;fill-opacity:1;fill-rule:nonzero;stroke:none"
               d="m 0,0 c 0,0 9.692,-17.323 24.302,-19.204 14.609,-1.897 30.114,0.337 30.114,0.337 0,0 -0.866,16.819 -8.483,19.681 C 38.313,3.692 21.933,7.35 0,0" /></g><g
             transform="translate(279.6428,501.3224)"
             id="g118"><path
               inkscape:connector-curvature="0"
               id="path120"
               style="fill:#2d1e16;fill-opacity:1;fill-rule:nonzero;stroke:none"
               d="m 0,0 c -0.635,-6.762 -6.976,-11.806 -14.158,-11.264 -7.193,0.525 -12.494,6.442 -11.859,13.187 0.634,6.762 6.974,11.824 14.167,11.281 C -4.677,12.662 0.643,6.762 0,0" /></g><g
             transform="translate(266.2932,495.3542)"
             id="g122"><path
               inkscape:connector-curvature="0"
               id="path124"
               style="fill:#191e22;fill-opacity:1;fill-rule:nonzero;stroke:none"
               d="m 0,0 c -2.665,0.194 -5.41,2.97 -5.093,6.404 0.325,3.416 3.556,5.745 6.221,5.552 C 3.793,11.761 6.548,8.984 6.222,5.551 5.896,2.135 2.676,-0.194 0,0" /></g><g
             transform="translate(292.2834,489.7394)"
             id="g126"><path
               inkscape:connector-curvature="0"
               id="path128"
               style="fill:#110f0e;fill-opacity:1;fill-rule:nonzero;stroke:none"
               d="m 0,0 c 0,0 -0.328,-0.029 -1.066,-0.149 -0.628,6.131 -2.404,14.605 -7.154,16.38 -8.622,3.311 -24.213,6.165 -43.033,-2.088 -2.08,2.694 -3.173,4.725 -3.173,4.725 21.879,11.256 39.29,6.879 46.841,4.002 C 0.049,19.976 0,0 0,0" /></g><g
             transform="translate(380.4407,506.132)"
             id="g130"><path
               inkscape:connector-curvature="0"
               id="path132"
               style="fill:#ffffff;fill-opacity:1;fill-rule:nonzero;stroke:none"
               d="m 0,0 c 0,0 -9.09,-16.837 -23.646,-18.279 -14.556,-1.457 -30.145,1.183 -30.145,1.183 0,0 0.361,18.091 7.883,20.714 C -38.389,6.256 -22.158,10.035 0,0" /></g><g
             transform="translate(335.9202,500.2878)"
             id="g134"><path
               inkscape:connector-curvature="0"
               id="path136"
               style="fill:#2d1e16;fill-opacity:1;fill-rule:nonzero;stroke:none"
               d="m 0,0 c 0.778,-6.982 7.489,-12.279 14.973,-11.844 7.506,0.436 12.94,6.461 12.162,13.426 C 26.356,8.583 19.646,13.88 12.151,13.444 4.657,13.009 -0.8,6.984 0,0" /></g><g
             transform="translate(349.967,493.9342)"
             id="g138"><path
               inkscape:connector-curvature="0"
               id="path140"
               style="fill:#191e22;fill-opacity:1;fill-rule:nonzero;stroke:none"
               d="m 0,0 c 2.782,0.162 5.601,2.963 5.212,6.519 -0.4,3.537 -3.814,5.985 -6.596,5.824 -2.781,-0.16 -5.6,-2.982 -5.211,-6.519 C -6.194,2.288 -2.781,-0.161 0,0" /></g><g
             transform="translate(326.6321,489.0993)"
             id="g142"><path
               inkscape:connector-curvature="0"
               id="path144"
               style="fill:#110f0e;fill-opacity:1;fill-rule:nonzero;stroke:none"
               d="m 0,0 c 0,0 0.328,-0.05 1.069,-0.196 0.414,6.06 1.896,14.369 6.601,15.979 6.988,2.486 22.681,6.017 43.112,-3.287 2.001,2.617 3.027,4.583 3.027,4.583 C 31.531,28.827 14.258,24.993 6.807,22.37 -0.732,19.731 0,0 0,0" /></g><g
             transform="translate(215.1975,562.7375)"
             id="g146"><path
               inkscape:connector-curvature="0"
               id="path148"
               style="fill:#110f0e;fill-opacity:1;fill-rule:nonzero;stroke:none"
               d="M 0,0 1.835,6.995 C 84.644,-4.528 112.37,68.91 112.37,68.91 l 12.2,-3.462 C 88.981,-32.788 0,0 0,0 m 204.063,33.781 -48.389,35.145 c 12.281,-2.285 20.62,-5.056 20.62,-5.056 C 149.418,85.922 113.499,87.504 90.969,85.749 78.136,84.749 69.646,82.666 69.646,82.666 -11.041,80.91 -26.119,-4.201 -26.119,-4.201 l 8.713,5.251 -18.232,-42.469 c 5.661,-2.625 7.794,-12.35 8.591,-18.686 3.306,0.014 6.971,-1.226 10.325,-5.166 0.288,10.043 2.255,34.188 13.929,54.236 105.827,-43.532 137.873,64.509 139.274,69.723 0.145,0.163 0.334,0.163 0.379,0.326 7.465,-1.79 19.801,-6.019 35.047,-17.253 15.581,-11.55 34.622,-27.256 34.622,-61.399 0,-11.387 -5.115,-44.69 -5.115,-44.69 l 5.115,3.742 c 0,0 0,12.833 14.731,20.776 0.578,0.316 1.129,0.68 1.666,1.07 l -18.863,72.521 z" /></g><g
             transform="translate(379.6194,521.2131)"
             id="g150"><path
               inkscape:connector-curvature="0"
               id="path152"
               style="fill:#231f20;fill-opacity:1;fill-rule:nonzero;stroke:none"
               d="m 0,0 c -0.351,0.242 -0.732,0.542 -1.154,0.874 -1.1,0.863 -2.468,1.937 -4.213,2.783 -2.541,1.5 -5.527,2.827 -8.673,3.846 -4.065,1.087 -7.631,1.655 -10.918,1.738 -3.612,0.004 -7.428,-0.485 -11.037,-1.416 -2.926,-0.774 -5.929,-2.005 -8.924,-3.659 -4.765,-2.627 -7.336,-5.451 -7.53,-5.668 l -0.048,-0.052 c -0.876,-0.989 -0.913,-2.464 -0.088,-3.506 0.47,-0.596 0.958,-3.245 1.72,-3.346 l 0.002,-10e-4 c 0.762,-0.1 1.515,0.093 2.123,0.545 l 0.026,0.019 c 0.237,0.174 2.672,1.924 6.888,3.907 2.136,1.122 4.84,1.997 7.644,2.865 2.984,0.882 6.169,1.4 9.251,1.502 2.765,0.239 5.871,0.09 9.45,-0.423 l 1.431,-0.292 c 1.04,-0.212 2.051,-0.418 3.042,-0.615 0.874,-0.158 1.705,-0.435 2.509,-0.703 0.469,-0.156 0.927,-0.309 1.381,-0.436 1.942,-0.543 3.573,-1.199 4.884,-1.726 0.341,-0.138 0.661,-0.266 0.966,-0.384 L 5.276,-4.238 0,0 Z" /></g><g
             transform="translate(239.9846,522.6325)"
             id="g154"><path
               inkscape:connector-curvature="0"
               id="path156"
               style="fill:#231f20;fill-opacity:1;fill-rule:nonzero;stroke:none"
               d="m 0,0 c 0.352,0.242 0.733,0.543 1.154,0.874 1.1,0.864 2.468,1.938 4.213,2.784 2.541,1.5 5.527,2.826 8.673,3.846 4.065,1.086 7.631,1.655 10.918,1.737 3.613,0.005 7.428,-0.484 11.037,-1.415 2.926,-0.775 5.929,-2.006 8.924,-3.659 4.765,-2.628 7.336,-5.452 7.53,-5.669 l 0.048,-0.052 c 0.877,-0.988 0.913,-2.464 0.088,-3.506 -0.469,-0.596 -0.958,-3.245 -1.72,-3.346 l -0.002,0 c -0.761,-0.101 -1.515,0.093 -2.122,0.544 l -0.026,0.02 c -0.238,0.173 -2.673,1.924 -6.889,3.906 -2.136,1.122 -4.839,1.997 -7.643,2.866 -2.985,0.881 -6.169,1.399 -9.252,1.501 -2.765,0.239 -5.871,0.09 -9.45,-0.423 L 14.05,-0.284 C 13.01,-0.496 11.999,-0.702 11.009,-0.899 10.134,-1.056 9.303,-1.333 8.499,-1.602 8.031,-1.758 7.572,-1.911 7.118,-2.038 5.176,-2.581 3.545,-3.237 2.234,-3.764 1.893,-3.902 1.573,-4.03 1.269,-4.148 L -5.276,-4.237 0,0 Z" /></g><g
             transform="translate(321.3655,631.6667)"
             id="g158"><path
               inkscape:connector-curvature="0"
               id="path160"
               style="fill:#110f0e;fill-opacity:1;fill-rule:nonzero;stroke:none"
               d="m 0,0 c 0,0 75.877,-18.667 94.938,-82.667 l 21.82,24.239 L 58.379,3.028 14.477,16.496 0,0 Z" /></g></g></g></g></g></svg>