<?xml version="1.0" encoding="UTF-8" standalone="no"?>
<!-- Created with Inkscape (http://www.inkscape.org/) -->

<svg
   xmlns:dc="http://purl.org/dc/elements/1.1/"
   xmlns:cc="http://creativecommons.org/ns#"
   xmlns:rdf="http://www.w3.org/1999/02/22-rdf-syntax-ns#"
   xmlns:svg="http://www.w3.org/2000/svg"
   xmlns="http://www.w3.org/2000/svg"
   xmlns:sodipodi="http://sodipodi.sourceforge.net/DTD/sodipodi-0.dtd"
   xmlns:inkscape="http://www.inkscape.org/namespaces/inkscape"
   id="svg2"
   version="1.1"
   inkscape:version="0.91 r13725"
   xml:space="preserve"
   width="400"
   height="600"
   viewBox="0 0 400 600"
   sodipodi:docname="doug.svg"
   inkscape:export-filename="/home/alec/Projects/Brookings/out-of-work/data/avatars/doug.png"
   inkscape:export-xdpi="90"
   inkscape:export-ydpi="90"><metadata
     id="metadata8"><rdf:RDF><cc:Work
         rdf:about=""><dc:format>image/svg+xml</dc:format><dc:type
           rdf:resource="http://purl.org/dc/dcmitype/StillImage" /><dc:title></dc:title></cc:Work></rdf:RDF></metadata><defs
     id="defs6"><clipPath
       clipPathUnits="userSpaceOnUse"
       id="clipPath24"><path
         d="M 0,792 612,792 612,0 0,0 0,792 Z"
         id="path26"
         inkscape:connector-curvature="0" /></clipPath><clipPath
       clipPathUnits="userSpaceOnUse"
       id="clipPath40"><path
         d="m 273.834,347.978 61.384,0 0,36.333 -61.384,0 0,-36.333 z"
         id="path42"
         inkscape:connector-curvature="0" /></clipPath><clipPath
       clipPathUnits="userSpaceOnUse"
       id="clipPath52"><path
         d="M 0,792 612,792 612,0 0,0 0,792 Z"
         id="path54"
         inkscape:connector-curvature="0" /></clipPath></defs><sodipodi:namedview
     pagecolor="#ffffff"
     bordercolor="#666666"
     borderopacity="1"
     objecttolerance="10"
     gridtolerance="10"
     guidetolerance="10"
     inkscape:pageopacity="0"
     inkscape:pageshadow="2"
     inkscape:window-width="1821"
     inkscape:window-height="886"
     id="namedview4"
     showgrid="false"
     inkscape:zoom="0.33712566"
     inkscape:cx="556.4178"
     inkscape:cy="276.47201"
     inkscape:window-x="59"
     inkscape:window-y="30"
     inkscape:window-maximized="0"
     inkscape:current-layer="g10" /><g
     id="g10"
     inkscape:groupmode="layer"
     inkscape:label="AvatarsR2"
     transform="matrix(1.25,0,0,-1.25,0,600)"><text
       transform="scale(1,-1)"
       style="font-variant:normal;font-weight:300;font-stretch:normal;font-size:13px;font-family:Interstate-Light;-inkscape-font-specification:Interstate-Light;writing-mode:lr-tb;fill:#231f20;fill-opacity:1;fill-rule:nonzero;stroke:none"
       id="text12"
       x="-8.2462482"
       y="61.208248"><tspan
         x="-8.2462482 0.6977523 3.9607527 11.227751 18.598753 21.861753 28.764753 32.144745 39.164749 46.431747 53.80275 60.016754 67.023743 71.599747 78.619751 85.886749 89.266754 96.273743 103.64474 110.91174 114.29175 121.31174 128.68274 135.94974 142.95676 150.22375 157.24374 164.51074 167.89075 174.46875 181.82675 189.19775 196.56876 203.83575 210.85574 216.14676 219.52673 226.79373 232.08475 235.34775 246.37173 253.39175 257.38144 264.38846 271.65546 278.67545 282.05545 289.32245 296.34247 303.70044 310.96747 314.23047 321.25046"
         y="61.208248"
         sodipodi:role="line"
         id="tspan14">Highly educated and engaged younger prime-age people </tspan></text>
<text
       transform="scale(1,-1)"
       style="font-variant:normal;font-weight:normal;font-stretch:normal;font-size:34px;font-family:'Myriad Pro';-inkscape-font-specification:MyriadPro-Regular;writing-mode:lr-tb;fill:#231f20;fill-opacity:1;fill-rule:nonzero;stroke:none"
       id="text16"
       x="116.90704"
       y="98.208244"><tspan
         x="116.90704 139.68704 158.35306 177.08704 196.09305"
         y="98.208244"
         sodipodi:role="line"
         id="tspan18">Doug </tspan></text>
<g
       id="g4346"
       transform="matrix(0.92003282,0,0,0.92003282,-118.42817,-172.0754)"><g
         id="g20"><g
           clip-path="url(#clipPath24)"
           id="g22"><g
             transform="translate(304.4194,421.5655)"
             id="g28"><path
               inkscape:connector-curvature="0"
               id="path30"
               style="fill:#e8c6a0;fill-opacity:1;fill-rule:nonzero;stroke:none"
               d="m 0,0 0,-204.1 -110.809,0 c -1.802,0.829 -2.827,1.153 -2.827,1.153 0,84.187 40.116,108.494 58.693,115.224 5.568,2.068 9.232,2.503 9.232,2.503 6.782,0 11.053,8.66 14.008,21.89 0.435,2.016 0.828,4.117 1.152,6.363 0.632,3.724 1.085,7.73 1.564,11.838 0.144,2.502 0.452,4.996 0.682,7.566 1.034,12.59 1.333,26.204 1.333,39.058 C -26.972,1.495 -12.06,0 0,0" /></g><g
             transform="translate(418.3373,218.6182)"
             id="g32"><path
               inkscape:connector-curvature="0"
               id="path34"
               style="fill:#f1cd9f;fill-opacity:1;fill-rule:nonzero;stroke:none"
               d="m 0,0 c 0,0 -1.017,-0.324 -2.647,-1.152 l -111.271,0 0,204.099 0.214,0 c 12.059,0 27.065,1.495 27.065,1.495 0,-12.854 0.214,-26.314 1.299,-38.784 0.153,-2.485 0.486,-4.945 0.717,-7.276 0.47,-4.364 0.82,-8.439 1.461,-12.239 l 0,-0.078 c 0.315,-1.699 0.546,-3.253 0.948,-4.825 2.869,-14.015 7.37,-23.512 14.391,-23.512 0,0 5.722,-0.675 13.938,-4.357 C -33.967,104.267 0,77.5 0,0" /></g></g></g><g
         id="g36"><g
           clip-path="url(#clipPath40)"
           id="g38"><g
             transform="translate(335.2172,364.8038)"
             id="g44"><path
               inkscape:connector-curvature="0"
               id="path46"
               style="fill:#bd9275;fill-opacity:1;fill-rule:nonzero;stroke:none"
               d="m 0,0 0,-0.086 c -2.724,-4.355 -12.119,-16.74 -30.679,-16.74 l -0.153,0 c -17.637,0.086 -27.903,12.948 -30.542,16.664 0.623,3.724 1.153,7.721 1.546,11.837 0.222,2.494 0.453,4.988 0.7,7.524 8.609,-2.143 17.953,-3.484 27.972,-3.637 l 0.324,0 c 10.258,0.153 19.712,1.537 28.595,3.945 0.214,-2.451 0.461,-4.945 0.683,-7.354 C -1.076,7.832 -0.614,3.792 0,0" /></g></g></g><g
         id="g48"><g
           clip-path="url(#clipPath52)"
           id="g50"><g
             transform="translate(302.3442,655.713)"
             id="g56"><path
               inkscape:connector-curvature="0"
               id="path58"
               style="fill:#e8c6a0;fill-opacity:1;fill-rule:nonzero;stroke:none"
               d="m 0,0 c -117.377,0 -118.043,-98.365 -112.824,-162.78 -8.046,15.237 -31.858,10.531 -29.919,-13.494 1.888,-23.155 35.53,-35.146 35.052,-32.455 9.651,-52.997 64.876,-83.607 107.691,-83.607 0.29,0 0.615,0.043 0.888,0.043 L 0.888,0 0,0" /></g><g
             transform="translate(167.1,489.6104)"
             id="g60"><path
               inkscape:connector-curvature="0"
               id="path62"
               style="fill:#bd9275;fill-opacity:1;fill-rule:nonzero;stroke:none"
               d="M 0,0 C 5.816,9.259 14.741,5.262 16.953,3.203 19.302,1 21.155,-1.938 19.687,-7.438 c -0.787,-3.084 -4.049,-3.332 -3.246,-8.038 0.871,-5.261 3.305,-5.62 4.689,-6.815 1.375,-1.188 3.108,-2.093 3.972,-4.348 0.828,-2.22 0.973,-4.594 0.529,-6.61 -0.923,-3.801 -6.457,-0.794 -10.138,0.905 -2.443,1.111 -10.189,7.678 -12.145,9.865 C -1.58,-16.91 -3.869,-6.218 0,0" /></g><g
             transform="translate(302.9252,655.713)"
             id="g64"><path
               inkscape:connector-curvature="0"
               id="path66"
               style="fill:#f1cd9f;fill-opacity:1;fill-rule:nonzero;stroke:none"
               d="m 0,0 c 117.368,0 118.042,-98.365 112.824,-162.78 8.045,15.237 31.883,10.531 29.902,-13.494 -1.863,-23.155 -35.513,-35.146 -35.052,-32.455 C 98.065,-261.726 42.841,-292.336 0,-292.336 c -0.291,0 -0.59,0.043 -0.889,0.043 L -0.889,0 0,0" /></g><g
             transform="translate(438.186,489.6104)"
             id="g68"><path
               inkscape:connector-curvature="0"
               id="path70"
               style="fill:#bd9275;fill-opacity:1;fill-rule:nonzero;stroke:none"
               d="m 0,0 c -5.816,9.259 -14.768,5.262 -16.987,3.203 -2.307,-2.203 -4.16,-5.141 -2.742,-10.641 0.829,-3.084 4.074,-3.332 3.288,-8.038 -0.88,-5.261 -3.297,-5.62 -4.706,-6.815 -1.367,-1.188 -3.083,-2.093 -3.955,-4.348 -0.828,-2.22 -0.99,-4.594 -0.503,-6.61 0.871,-3.801 6.388,-0.794 10.112,0.905 2.442,1.111 10.172,7.678 12.128,9.865 C 1.571,-16.91 3.852,-6.218 0,0" /></g><g
             transform="translate(303.6674,627.9893)"
             id="g72"><path
               inkscape:connector-curvature="0"
               id="path74"
               style="fill:#e8c6a0;fill-opacity:1;fill-rule:nonzero;stroke:none"
               d="m 0,0 c -38.612,0 -66.883,-11.239 -83.99,-33.403 -23.923,-30.96 -23.009,-78.251 -14.178,-112.218 2.699,-10.377 4.083,-38.358 5.944,-48.607 8.32,-45.958 58.907,-70.384 92.224,-70.384 0.273,0 0.599,0.043 0.897,0.043 l 0,264.535 C 0.599,-0.034 0.3,0 0,0" /></g><g
             transform="translate(387.4965,594.543)"
             id="g76"><path
               inkscape:connector-curvature="0"
               id="path78"
               style="fill:#f1cd9f;fill-opacity:1;fill-rule:nonzero;stroke:none"
               d="m 0,0 c -16.988,22.019 -44.934,33.216 -82.932,33.412 l 0,-264.535 c 38.049,0.384 83.504,27.194 91.328,70.342 1.853,10.249 3.236,38.229 5.926,48.606 C 23.111,-78.327 23.965,-31.071 0,0" /></g><g
             transform="translate(269.018,619.3546)"
             id="g80"><path
               inkscape:connector-curvature="0"
               id="path82"
               style="fill:#342318;fill-opacity:1;fill-rule:nonzero;stroke:none"
               d="m 0,0 -0.47,-0.495 0.034,-0.12 C -0.282,-0.41 -0.146,-0.18 0,0" /></g><g
             transform="translate(196.0024,528.463)"
             id="g84"><path
               inkscape:connector-curvature="0"
               id="path86"
               style="fill:#342318;fill-opacity:1;fill-rule:nonzero;stroke:none"
               d="M 0,0 Z" /></g><g
             transform="translate(337.0971,612.8887)"
             id="g88"><path
               inkscape:connector-curvature="0"
               id="path90"
               style="fill:#303132;fill-opacity:1;fill-rule:nonzero;stroke:none"
               d="M 0,0 C -0.146,0.18 -0.291,0.385 -0.436,0.556 L 0.042,0.103 0,0 Z m 96.768,-41.004 c -0.667,1.622 -1.58,3.211 -2.503,4.629 -2.255,16.193 -14.178,48.632 -25.879,64.901 -12.162,16.92 -41.978,31.901 -80.283,36.385 -38.324,4.484 -71.684,-21.566 -71.684,-21.566 0,0 -5.928,8.472 -11.009,10.958 -5.065,2.494 -19.627,-0.47 -19.627,-0.47 0,0 9.864,-2.673 11.812,-5.167 3.681,-4.688 1.965,-9.147 1.965,-9.147 0,0 -11.548,4.808 -16.613,4.919 -9.292,0.256 -19.712,-11.051 -19.712,-11.051 0,0 8.703,5.901 17.013,5.671 2.725,-0.078 10.258,-3.519 10.258,-3.519 0,0 -13.717,-1.401 -39.442,-28.45 -19.421,-20.412 -19.421,-47.384 -19.421,-47.384 l 16.27,8.959 c 0,0 -4.211,-4.731 -6.286,-9.668 -11.975,-28.646 4.424,-57.394 4.424,-57.394 0,0 5.355,-0.504 10.249,-11.531 6.61,-14.946 10.753,-33.446 10.753,-33.446 l 5.722,0 c 0,0 -12.324,46.121 -4.022,71.231 2.297,6.91 8.489,21.096 17.115,21.574 0,0 5.68,4.783 8.217,14.289 2.527,9.489 15.724,25.358 22.838,28.339 7.106,2.998 11.163,-1.487 11.163,-1.487 0,0 11.163,8.455 31.464,11.941 20.285,3.484 31.439,-17.424 35.881,-28.382 4.44,-10.949 2.143,-16.424 2.143,-16.424 0,0 8.652,13.443 7.627,26.896 -0.307,4.312 -1.238,7.634 -2.332,10.24 2.648,-1.29 14.187,-4.382 16.553,-33.155 1.127,-13.632 -11.676,-22.908 -11.676,-22.908 0,0 28.492,11.343 22.608,46.326 6.081,-6.269 12.316,-15.16 13.964,-21.386 2.536,-9.506 23.889,-31.532 25.324,-35.863 8.31,-25.11 -3.997,-71.231 -3.997,-71.231 l 5.713,0 c 0,0 4.134,18.5 10.753,33.446 4.894,11.027 10.249,11.531 10.249,11.531 0,0 16.408,28.748 4.408,57.394" /></g><g
             transform="translate(304.0776,380.9288)"
             id="g92"><path
               inkscape:connector-curvature="0"
               id="path94"
               style="fill:#303132;fill-opacity:1;fill-rule:nonzero;stroke:none"
               d="m 0,0 c -0.196,-0.009 -0.393,-0.018 -0.58,-0.018 l -0.154,0 -8.191,0.411 c -7.191,0.777 -13.452,2.63 -17.935,5.159 -4.536,2.561 -7.26,5.807 -7.26,9.351 0,3.144 2.143,6.065 5.799,8.464 l 27.741,0 26.331,0 c 3.646,-2.399 5.799,-5.32 5.799,-8.464 0,-3.45 -2.605,-6.627 -6.952,-9.155 C 19.849,2.972 13.017,0.974 5.133,0.256 3.459,0.119 1.742,0.034 0,0 M 74.732,15.236 C 68.088,10.796 55.755,6.713 45.659,5.295 45.754,16.919 43.098,58.889 -0.58,57.881 -44.259,58.889 -46.923,16.928 -46.829,5.295 c -10.087,1.427 -22.42,5.501 -29.073,9.941 -12.837,8.618 -28.988,34.172 -28.988,34.172 0,0 7.208,-31.285 40.569,-51.85 15.255,-9.439 34.437,-16.485 51.655,-18.783 3.186,-0.435 7.2,-0.742 11.692,-0.939 l 0,-0.068 c 0.162,0 0.231,0.034 0.394,0.034 0.128,0 0.272,-0.034 0.393,-0.034 l 0,0.068 c 4.492,0.197 8.506,0.504 11.701,0.939 17.217,2.298 36.4,9.344 51.646,18.783 33.352,20.565 38.286,51.85 38.286,51.85 0,0 -13.859,-25.554 -26.714,-34.172" /></g><g
             transform="translate(180.2953,217.4659)"
             id="g96"><path
               inkscape:connector-curvature="0"
               id="path98"
               style="fill:#4f4c4d;fill-opacity:1;fill-rule:nonzero;stroke:none"
               d="M 0,0 C 0,83.033 43.046,107.503 63.519,114.473 76.851,101.089 103.25,82.632 123.638,81.727 l 0.401,0 0.094,0 0.077,0 c 0.085,0 0.265,-0.085 0.436,0 20.471,0.905 46.872,19.43 60.212,32.831 20.37,-6.893 63.68,-31.293 63.68,-114.558" /></g><g
             transform="translate(366.2465,248.6651)"
             id="g100"><path
               inkscape:connector-curvature="0"
               id="path102"
               style="fill:#48bce2;fill-opacity:1;fill-rule:nonzero;stroke:none"
               d="m 0,0 c -13.597,13.683 -40.535,32.48 -61.289,33.429 l -0.436,0 -0.077,0 -0.094,0 c -0.093,0 -0.273,0.059 -0.435,0 C -83.153,32.48 -110.023,13.683 -123.646,0 c 3.605,-1.861 6.987,-3.271 9.805,-4.236 11.453,11.521 34.138,27.433 51.715,28.218 0.137,0.069 0.308,0 0.358,0 l 0.078,0 0.077,0 0.367,0 C -43.764,23.197 -21.079,7.346 -9.608,-4.159 -6.815,-3.211 -3.527,-1.836 0,0" /></g><g
             transform="translate(328.6049,399.8721)"
             id="g104"><path
               inkscape:connector-curvature="0"
               id="path106"
               style="fill:#d1ae8b;fill-opacity:1;fill-rule:nonzero;stroke:none"
               d="m 0,0 c -3.429,0.143 -6.95,-2.275 -11.074,-1.905 -0.168,0.07 -0.252,0.07 -0.428,0.07 -0.947,0.142 -1.887,0 -2.918,-0.212 -1.282,-0.228 -2.574,-0.668 -3.78,-1.023 -2.063,-0.568 -4.385,-1.022 -6.775,-0.866 l 0,-0.013 c -0.049,0 -0.083,0.013 -0.133,0.013 -0.05,0 -0.083,-0.013 -0.133,-0.013 l 0,0.013 c -2.39,-0.156 -4.712,0.298 -6.775,0.866 -1.207,0.355 -2.498,0.795 -3.78,1.023 -1.031,0.212 -1.971,0.354 -2.918,0.212 -0.176,0 -0.26,0 -0.428,-0.07 -4.124,-0.37 -7.644,2.048 -11.074,1.905 -0.947,-0.07 -2.323,0.143 -3.094,0.143 0.168,-0.072 0.345,-0.143 0.521,-0.213 9.774,-4.032 18.209,-11.583 27.548,-11.342 l 0.133,0 0.133,0 c 9.339,-0.241 17.774,7.31 27.548,11.342 C 2.749,0 2.926,0.071 3.094,0.143 2.322,0.143 0.947,-0.07 0,0" /></g><g
             transform="translate(331.477,400.1026)"
             id="g108"><path
               inkscape:connector-curvature="0"
               id="path110"
               style="fill:#c39778;fill-opacity:1;fill-rule:nonzero;stroke:none"
               d="m 0,0 0,0 c 0,0 -9.939,3.238 -17.008,1.339 0,0 -2.632,-0.868 -5.358,-1.398 -1.658,-0.546 -3.668,-0.705 -5.613,-0.639 l -0.001,0 c -1.489,0.051 -2.901,0.21 -4.062,0.382 -0.386,0.049 -0.771,0.116 -1.165,0.187 -0.17,0.029 -0.298,0.053 -0.443,0.08 -0.24,0.047 -0.471,0.085 -0.706,0.137 -0.257,0.054 -0.41,0.089 -0.41,0.089 l 0.015,0.005 c -2.261,0.517 -4.201,1.157 -4.201,1.157 C -46.021,3.238 -55.96,0 -55.96,0 c -0.137,-0.053 -0.222,-0.088 -0.222,-0.088 0.771,0 2.147,-0.213 3.094,-0.142 2.818,0.117 5.701,-1.494 8.928,-1.866 1.494,-0.349 6.098,-1.35 11.934,-1.809 1.322,-0.23 2.705,-0.353 4.113,-0.261 l 0,-0.014 c 0.05,0 0.083,0.014 0.133,0.014 0.05,0 0.084,-0.014 0.133,-0.014 l 0,0.014 c 0.795,-0.052 1.58,-0.031 2.353,0.033 4.568,0.063 9.411,0.609 13.87,2.057 l -10e-4,0 c 3.156,0.409 5.985,1.961 8.753,1.846 0.947,-0.071 2.322,0.142 3.094,0.142 0,0 -0.085,0.035 -0.222,0.088" /></g><g
             transform="translate(213.4633,517.4014)"
             id="g112"><path
               inkscape:connector-curvature="0"
               id="path114"
               style="fill:#ffffff;fill-opacity:1;fill-rule:nonzero;stroke:none"
               d="m 0,0 c 0,0 10.94,-21.737 27.662,-23.969 16.721,-2.251 34.508,0.711 34.508,0.711 0,0 -1.033,22.308 -9.733,25.842 C 43.734,6.138 24.771,11.25 0,0" /></g><g
             transform="translate(261.2797,508.6788)"
             id="g116"><path
               inkscape:connector-curvature="0"
               id="path118"
               style="fill:#5787a3;fill-opacity:1;fill-rule:nonzero;stroke:none"
               d="m 0,0 c -0.791,-8.526 -8.105,-14.942 -16.329,-14.328 -8.235,0.594 -14.254,7.999 -13.462,16.504 0.79,8.527 8.103,14.966 16.34,14.35 C -5.237,15.911 0.802,8.526 0,0" /></g><g
             transform="translate(245.9272,501.0313)"
             id="g120"><path
               inkscape:connector-curvature="0"
               id="path122"
               style="fill:#191e22;fill-opacity:1;fill-rule:nonzero;stroke:none"
               d="m 0,0 c -3.052,0.22 -6.171,3.692 -5.774,8.021 0.405,4.308 4.128,7.274 7.18,7.055 C 4.459,14.855 7.588,11.383 7.182,7.055 6.776,2.747 3.064,-0.22 0,0" /></g><g
             transform="translate(275.6537,494.2032)"
             id="g124"><path
               inkscape:connector-curvature="0"
               id="path126"
               style="fill:#d4b08e;fill-opacity:1;fill-rule:nonzero;stroke:none"
               d="m 0,0 c 0,0 -0.376,-0.039 -1.224,-0.198 -0.661,7.72 -2.614,18.382 -8.041,20.573 -8.079,3.355 -26.181,8.272 -49.326,-3.041 -2.357,3.376 -3.59,5.924 -3.59,5.924 25.175,14.392 45.083,9.042 53.707,5.488 C 0.245,25.172 0,0 0,0" /></g><g
             transform="translate(399.7387,516.0587)"
             id="g128"><path
               inkscape:connector-curvature="0"
               id="path130"
               style="fill:#ffffff;fill-opacity:1;fill-rule:nonzero;stroke:none"
               d="m 0,0 c 0,0 -10.574,-21.303 -27.267,-23.257 -16.692,-1.974 -34.529,1.203 -34.529,1.203 0,0 2.01,20.271 10.652,23.647 C -42.502,4.988 -25.837,10.876 0,0" /></g><g
             transform="translate(348.6713,508.2715)"
             id="g132"><path
               inkscape:connector-curvature="0"
               id="path134"
               style="fill:#5787a3;fill-opacity:1;fill-rule:nonzero;stroke:none"
               d="m 0,0 c 0.826,-8.791 8.465,-15.401 17.044,-14.782 8.603,0.621 14.888,8.264 14.062,17.033 C 30.281,11.065 22.642,17.677 14.051,17.056 5.46,16.437 -0.849,8.793 0,0" /></g><g
             transform="translate(364.7065,500.3995)"
             id="g136"><path
               inkscape:connector-curvature="0"
               id="path138"
               style="fill:#191e22;fill-opacity:1;fill-rule:nonzero;stroke:none"
               d="M 0,0 C 3.189,0.229 6.445,3.787 6.033,8.263 5.608,12.717 1.721,15.769 -1.469,15.54 -4.657,15.311 -7.914,11.729 -7.502,7.276 -7.076,2.824 -3.188,-0.229 0,0" /></g><g
             transform="translate(337.9233,494.085)"
             id="g140"><path
               inkscape:connector-curvature="0"
               id="path142"
               style="fill:#e0b98f;fill-opacity:1;fill-rule:nonzero;stroke:none"
               d="m 0,0 c 0,0 0.375,-0.06 1.224,-0.237 0.532,7.64 2.308,18.124 7.714,20.197 8.031,3.199 26.044,7.798 49.366,-3.731 2.318,3.316 3.511,5.803 3.511,5.803 C 36.402,36.623 16.573,31.629 8.012,28.252 -0.651,24.856 0,0 0,0" /></g><g
             transform="translate(292.5893,464.5977)"
             id="g144"><path
               inkscape:connector-curvature="0"
               id="path146"
               style="fill:#bd9275;fill-opacity:1;fill-rule:nonzero;stroke:none"
               d="m 0,0 c -0.244,5 9.157,1.827 12.256,1.67 2.449,-0.125 9.9,1.576 10.54,1.138 C 27.18,-0.156 18.152,-6.128 12.101,-6.128 10.487,-6.128 0.146,-3.017 0,0" /></g><g
             transform="translate(276.6059,526.9005)"
             id="g148"><path
               inkscape:connector-curvature="0"
               id="path150"
               style="fill:#231f20;fill-opacity:1;fill-rule:nonzero;stroke:none"
               d="m 0,0 c -0.087,0.135 -2.182,3.33 -6.465,6.625 -2.684,2.065 -5.314,3.637 -8.043,4.808 -3.316,1.398 -6.888,2.386 -10.347,2.861 -3.13,0.349 -6.598,0.256 -10.644,-0.291 -3.09,-0.59 -6.103,-1.511 -8.66,-2.643 -1.823,-0.629 -3.264,-1.514 -4.421,-2.226 -0.443,-0.273 -0.845,-0.519 -1.252,-0.738 l -5.516,-3.479 6.357,1.497 c 0.296,0.075 0.616,0.16 0.961,0.252 1.314,0.35 2.951,0.785 4.87,1.067 0.449,0.066 0.906,0.157 1.372,0.25 0.8,0.161 1.627,0.326 2.493,0.367 0.963,0.064 1.961,0.136 2.987,0.21 l 1.335,0.096 c 3.521,0.044 6.493,-0.223 9.135,-0.834 2.888,-0.499 5.856,-1.433 8.576,-2.698 2.57,-1.233 5.033,-2.456 6.955,-3.872 3.883,-2.6 6.043,-4.768 6.065,-4.788 l 0,-10e-4 c 0.533,-0.538 1.246,-0.817 1.963,-0.817 0.521,0 1.046,0.148 1.504,0.451 1.278,0.84 1.637,2.57 0.824,3.819 L 0,0 Z" /></g><g
             transform="translate(381.8637,535.3223)"
             id="g152"><path
               inkscape:connector-curvature="0"
               id="path154"
               style="fill:#231f20;fill-opacity:1;fill-rule:nonzero;stroke:none"
               d="m 0,0 c -0.365,0.193 -0.767,0.441 -1.211,0.714 -1.157,0.712 -2.597,1.596 -4.366,2.205 -2.611,1.152 -5.624,2.073 -8.75,2.669 -4.012,0.542 -7.481,0.635 -10.623,0.282 -3.443,-0.473 -7.016,-1.461 -10.336,-2.86 -2.69,-1.155 -5.394,-2.771 -8.038,-4.806 -4.206,-3.234 -6.298,-6.374 -6.456,-6.616 l -0.039,-0.057 c -0.709,-1.096 -0.557,-2.564 0.361,-3.489 0.522,-0.528 1.217,-0.818 1.956,-0.818 l 0.002,0 c 0.738,0 1.432,0.291 1.953,0.819 l 0.023,0.023 c 0.204,0.204 2.301,2.26 6.067,4.784 1.893,1.393 4.357,2.619 6.92,3.849 2.73,1.269 5.699,2.202 8.623,2.71 2.604,0.603 5.582,0.865 9.057,0.828 l 1.401,-0.1 c 1.018,-0.074 2.007,-0.144 2.976,-0.209 0.853,-0.041 1.679,-0.206 2.479,-0.365 0.466,-0.094 0.922,-0.185 1.371,-0.25 1.92,-0.283 3.557,-0.718 4.872,-1.069 0.343,-0.091 0.663,-0.177 0.969,-0.253 L 5.564,-3.506 0,0 Z" /></g></g></g></g></g></svg>