<?xml version="1.0" encoding="UTF-8" standalone="no"?>
<!-- Created with Inkscape (http://www.inkscape.org/) -->

<svg
   xmlns:dc="http://purl.org/dc/elements/1.1/"
   xmlns:cc="http://creativecommons.org/ns#"
   xmlns:rdf="http://www.w3.org/1999/02/22-rdf-syntax-ns#"
   xmlns:svg="http://www.w3.org/2000/svg"
   xmlns="http://www.w3.org/2000/svg"
   xmlns:sodipodi="http://sodipodi.sourceforge.net/DTD/sodipodi-0.dtd"
   xmlns:inkscape="http://www.inkscape.org/namespaces/inkscape"
   id="svg2"
   version="1.1"
   inkscape:version="0.91 r13725"
   xml:space="preserve"
   width="400"
   height="600"
   viewBox="0 0 400 600"
   sodipodi:docname="jacqueline.svg"
   inkscape:export-filename="/home/alec/Projects/Brookings/out-of-work/data/avatars/jacqueline.png"
   inkscape:export-xdpi="90"
   inkscape:export-ydpi="90"><metadata
     id="metadata8"><rdf:RDF><cc:Work
         rdf:about=""><dc:format>image/svg+xml</dc:format><dc:type
           rdf:resource="http://purl.org/dc/dcmitype/StillImage" /><dc:title /></cc:Work></rdf:RDF></metadata><defs
     id="defs6"><clipPath
       clipPathUnits="userSpaceOnUse"
       id="clipPath20"><path
         d="M 0,792 612,792 612,0 0,0 0,792 Z"
         id="path22"
         inkscape:connector-curvature="0" /></clipPath><clipPath
       clipPathUnits="userSpaceOnUse"
       id="clipPath44"><path
         d="m 279.45,357.167 56.796,0 0,33.752 -56.796,0 0,-33.752 z"
         id="path46"
         inkscape:connector-curvature="0" /></clipPath><clipPath
       clipPathUnits="userSpaceOnUse"
       id="clipPath56"><path
         d="M 0,792 612,792 612,0 0,0 0,792 Z"
         id="path58"
         inkscape:connector-curvature="0" /></clipPath></defs><sodipodi:namedview
     pagecolor="#ffffff"
     bordercolor="#666666"
     borderopacity="1"
     objecttolerance="10"
     gridtolerance="10"
     guidetolerance="10"
     inkscape:pageopacity="0"
     inkscape:pageshadow="2"
     inkscape:window-width="1627"
     inkscape:window-height="858"
     id="namedview4"
     showgrid="false"
     inkscape:zoom="0.47676768"
     inkscape:cx="-233.96028"
     inkscape:cy="467.27784"
     inkscape:window-x="69"
     inkscape:window-y="34"
     inkscape:window-maximized="0"
     inkscape:current-layer="g10" /><g
     id="g10"
     inkscape:groupmode="layer"
     inkscape:label="AvatarsR2"
     transform="matrix(1.25,0,0,-1.25,0,600)"><text
       transform="scale(1,-1)"
       style="font-variant:normal;font-weight:300;font-stretch:normal;font-size:13px;font-family:Interstate-Light;-inkscape-font-specification:Interstate-Light;writing-mode:lr-tb;fill:#231f20;fill-opacity:1;fill-rule:nonzero;stroke:none"
       id="text12"
       x="-12.173984"
       y="43.601322"><tspan
         x="-12.173984 -3.2299829 3.7770171 8.6130171 11.876016 18.429317 25.449316 29.635317 36.902317 44.260315 49.551315 56.922314 60.042316 63.422314 74.44632 81.804321 89.07132 96.091316 100.92732 107.93432 112.51032 119.53032 122.79332 129.69632 133.07632 140.09631 147.36331 154.73431 160.94702 167.95403 172.53001 179.55002 186.81702 190.19702 197.55502 200.81802 208.08502 215.10503 220.39603 223.77602 231.04301 236.33401 239.59702 250.62103 257.64102 261.63202 268.63901 275.90601 282.92603 286.30603 293.57303 300.59302 307.95102 315.21802 318.48102"
         y="43.601322"
         sodipodi:role="line"
         id="tspan14">Native-born, moderately educated older prime-age people</tspan></text>
<text
       transform="scale(1,-1)"
       style="font-variant:normal;font-weight:normal;font-stretch:normal;font-size:34px;font-family:'Myriad Pro';-inkscape-font-specification:MyriadPro-Regular;writing-mode:lr-tb;fill:#231f20;fill-opacity:1;fill-rule:nonzero;stroke:none"
       id="text24"
       x="81.267418"
       y="80.601326"><tspan
         x="81.267418 93.84742 110.23542 125.2634 144.40543 163.1394 180.1734 188.19742 196.15341 215.02341 232.0574"
         y="80.601326"
         sodipodi:role="line"
         id="tspan26">Jacqueline </tspan></text>
<g
       id="g4573"
       transform="matrix(0.96683476,0,0,0.96683476,-135.94105,-200.1062)"><path
         d="m 238.3301,340.9552 c 0,0 60.104,39.478 140.195,0 l -140.195,0 z"
         style="fill:#303132;fill-opacity:1;fill-rule:nonzero;stroke:none"
         id="path30"
         inkscape:connector-curvature="0" /><path
         d="m 307.752,425.5299 0,-189.599 -102.537,0 c -1.658,0.775 -2.617,1.075 -2.617,1.075 0,78.204 37.121,100.779 54.315,107.035 5.166,1.919 8.552,2.318 8.552,2.318 6.264,0 10.209,8.052 12.949,20.341 0.407,1.873 0.768,3.823 1.067,5.911 0.584,3.462 1.005,7.177 1.444,11 0.13,2.318 0.422,4.636 0.637,7.023 0.952,11.699 1.235,24.341 1.235,36.286 0,0 13.794,-1.39 24.955,-1.39"
         style="fill:#eac59e;fill-opacity:1;fill-rule:nonzero;stroke:none"
         id="path34"
         inkscape:connector-curvature="0" /><path
         d="m 413.1602,237.0055 c 0,0 -0.944,-0.3 -2.448,-1.074 l -102.96,0 0,189.598 0.2,0 c 11.153,0 25.039,1.39 25.039,1.39 0,-11.944 0.207,-24.448 1.197,-36.024 0.147,-2.318 0.453,-4.598 0.668,-6.763 0.438,-4.053 0.76,-7.837 1.351,-11.368 l 0,-0.076 c 0.292,-1.582 0.515,-3.017 0.876,-4.483 2.655,-13.019 6.823,-21.846 13.309,-21.846 0,0 5.305,-0.623 12.919,-4.046 18.415,-8.451 49.849,-33.314 49.849,-105.308"
         style="fill:#f1cd9f;fill-opacity:1;fill-rule:nonzero;stroke:none"
         id="path38"
         inkscape:connector-curvature="0" /><path
         d="m 336.2461,372.8029 0,-0.084 c -2.518,-4.038 -11.207,-15.552 -28.387,-15.552 l -0.137,0 c -16.32,0.084 -25.823,12.029 -28.256,15.483 0.568,3.454 1.059,7.177 1.427,10.992 0.2,2.318 0.415,4.636 0.645,6.993 7.968,-1.988 16.611,-3.232 25.884,-3.378 l 0.3,0 c 9.495,0.146 18.246,1.428 26.459,3.662 0.2,-2.272 0.43,-4.591 0.637,-6.832 0.438,-4.007 0.86,-7.761 1.428,-11.284"
         style="fill:#bd9275;fill-opacity:1;fill-rule:nonzero;stroke:none"
         id="path50"
         inkscape:connector-curvature="0" /><path
         d="m 305.833,643.0319 c -108.608,0 -109.223,-91.376 -104.402,-151.204 -7.438,14.155 -29.469,9.78 -27.68,-12.542 1.75,-21.508 32.869,-32.647 32.432,-30.152 8.926,-49.227 60.026,-77.659 99.65,-77.659 0.269,0 0.568,0.038 0.821,0.038 l 0,271.519 -0.821,0"
         style="fill:#eac59e;fill-opacity:1;fill-rule:nonzero;stroke:none"
         id="path62"
         inkscape:connector-curvature="0" /><path
         d="m 180.6973,488.735 c 5.374,8.605 13.641,4.89 15.683,2.978 2.172,-2.049 3.883,-4.774 2.525,-9.887 -0.729,-2.863 -3.746,-3.093 -3.001,-7.461 0.806,-4.889 3.055,-5.227 4.337,-6.333 1.274,-1.105 2.878,-1.942 3.677,-4.045 0.759,-2.057 0.898,-4.26 0.483,-6.133 -0.845,-3.531 -5.972,-0.744 -9.38,0.837 -2.257,1.036 -9.419,7.138 -11.238,9.165 -4.552,5.173 -6.678,15.107 -3.086,20.879"
         style="fill:#bd9275;fill-opacity:1;fill-rule:nonzero;stroke:none"
         id="path66"
         inkscape:connector-curvature="0" /><path
         d="m 306.3633,643.0319 c 108.601,0 109.23,-91.376 104.402,-151.204 7.438,14.155 29.499,9.78 27.664,-12.542 -1.719,-21.508 -32.861,-32.647 -32.431,-30.152 -8.897,-49.227 -59.989,-77.659 -99.635,-77.659 -0.262,0 -0.538,0.038 -0.821,0.038 l 0,271.519 0.821,0"
         style="fill:#f1cd9f;fill-opacity:1;fill-rule:nonzero;stroke:none"
         id="path70"
         inkscape:connector-curvature="0" /><path
         d="m 431.5293,488.735 c -5.381,8.605 -13.671,4.89 -15.721,2.978 -2.133,-2.049 -3.853,-4.774 -2.541,-9.887 0.768,-2.863 3.769,-3.093 3.04,-7.461 -0.806,-4.889 -3.048,-5.227 -4.352,-6.333 -1.267,-1.105 -2.848,-1.942 -3.655,-4.045 -0.774,-2.057 -0.92,-4.26 -0.475,-6.133 0.813,-3.531 5.918,-0.744 9.365,0.837 2.264,1.036 9.41,7.138 11.222,9.165 4.567,5.173 6.679,15.107 3.117,20.879"
         style="fill:#bd9275;fill-opacity:1;fill-rule:nonzero;stroke:none"
         id="path74"
         inkscape:connector-curvature="0" /><path
         d="m 307.0616,617.2863 c -35.74,0 -61.885,-10.439 -77.721,-31.035 -22.122,-28.754 -21.285,-72.684 -13.118,-104.24 2.495,-9.642 3.776,-35.633 5.496,-45.151 7.699,-42.695 54.508,-65.385 85.343,-65.385 0.253,0 0.545,0.038 0.829,0.038 l 0,245.734 c -0.284,0 -0.56,0.039 -0.829,0.039"
         style="fill:#eac59e;fill-opacity:1;fill-rule:nonzero;stroke:none"
         id="path78"
         inkscape:connector-curvature="0" /><path
         d="m 384.6201,586.2136 c -15.72,20.449 -41.573,30.85 -76.729,31.034 l 0,-245.734 c 35.202,0.361 77.251,25.262 84.498,65.346 1.711,9.519 2.994,35.51 5.488,45.151 8.129,31.441 8.92,75.341 -13.257,104.203"
         style="fill:#f1cd9f;fill-opacity:1;fill-rule:nonzero;stroke:none"
         id="path82"
         inkscape:connector-curvature="0" /><path
         d="m 274.9912,609.2648 -0.438,-0.46 0.046,-0.116 c 0.13,0.192 0.261,0.407 0.392,0.576"
         style="fill:#342318;fill-opacity:1;fill-rule:nonzero;stroke:none"
         id="path86"
         inkscape:connector-curvature="0" /><path
         d="M 207.4336,524.8278 Z"
         style="fill:#342318;fill-opacity:1;fill-rule:nonzero;stroke:none"
         id="path90"
         inkscape:connector-curvature="0" /><path
         d="m 329.583,408.236 c 0,0 -10.025,-10.762 -22.392,-10.762 -12.335,0 -21.768,10.539 -21.768,10.539 0,0 9.433,1.643 21.768,1.643 12.367,0 22.392,-1.42 22.392,-1.42"
         style="fill:#c75469;fill-opacity:1;fill-rule:nonzero;stroke:none"
         id="path94"
         inkscape:connector-curvature="0" /><path
         d="m 313.5323,413.2174 c -3.484,0 -6.248,-2.157 -6.341,-4.882 -0.046,2.725 -2.832,4.882 -6.309,4.882 -3.508,0 -16.058,-4.981 -16.058,-4.981 0,0 12.251,-1.275 15.743,-1.275 3.5,0 6.578,-1.412 6.624,1.236 0.062,-2.648 2.595,-1.604 6.088,-1.604 3.462,0 16.304,1.643 16.304,1.643 0,0 -12.52,4.981 -16.051,4.981"
         style="fill:#d85b6c;fill-opacity:1;fill-rule:nonzero;stroke:none"
         id="path98"
         inkscape:connector-curvature="0" /><path
         d="m 394.1387,266.4128 18.461,0 c 0.046,2.157 -0.008,4.26 -0.107,6.34 -0.898,19.106 -7.431,34.727 -11.292,42.403 -1.658,3.293 -2.833,5.174 -2.833,5.174 -5.058,7.553 -10.577,13.271 -16.05,17.631 -0.43,0.461 -0.967,0.845 -1.428,1.229 -0.79,0.621 -1.581,1.205 -2.364,1.765 -84.552,-152.692 -140.196,0 -140.196,0 -0.868,-0.622 -1.727,-1.22 -2.602,-1.919 -0.461,-0.307 -0.99,-0.683 -1.451,-1.189 -1.297,-1.044 -2.61,-2.181 -3.907,-3.393 -4.091,-3.808 -8.144,-8.452 -11.99,-14.124 0,0 -11.852,-27.542 -14.094,-47.577 -0.245,-2.218 -0.383,-4.352 -0.36,-6.34 l 18.652,0 c -0.007,-2.119 -0.03,-4.13 -0.053,-6.087 -0.13,-10.678 -0.468,-18.975 -0.806,-24.394 l 118.119,0 55.23,0 c -0.345,5.411 -0.722,13.716 -0.875,24.394 -0.023,1.957 -0.046,3.968 -0.054,6.087"
         style="fill:#6e2633;fill-opacity:1;fill-rule:nonzero;stroke:none"
         id="path102"
         inkscape:connector-curvature="0" /><path
         d="m 378.5254,340.9552 -40.046,0 c -6.601,-11.883 -17.509,-26.936 -30.098,-26.943 -12.612,0 -23.519,15.052 -30.113,26.943 l -39.938,0 c 0,0 55.643,-152.693 140.195,0"
         style="fill:#303132;fill-opacity:1;fill-rule:nonzero;stroke:none"
         id="path106"
         inkscape:connector-curvature="0" /><path
         d="m 310.3242,273.8815 c -4.046,0 -7.323,3.293 -7.323,7.361 0,4.069 3.277,7.362 7.323,7.362 4.045,0 7.322,-3.293 7.322,-7.362 0,-4.068 -3.277,-7.361 -7.322,-7.361 m 16.803,9.495 c -0.783,0.131 -1.559,0.139 -2.311,0.069 -0.046,0.299 -0.085,0.607 -0.153,0.906 0.675,0.268 1.335,0.598 1.933,1.044 4.56,3.378 6.572,8.259 4.56,11.03 -2.019,2.71 -7.246,2.181 -11.798,-1.197 -0.545,-0.399 -1.006,-0.883 -1.428,-1.389 -0.644,0.398 -1.312,0.752 -2.018,1.044 0.092,0.452 0.145,0.921 0.161,1.397 0.076,5.703 -2.533,10.286 -5.972,10.362 -3.354,0.07 -6.118,-4.436 -6.271,-10.132 -0.016,-0.668 0.076,-1.313 0.215,-1.949 -0.653,-0.308 -1.275,-0.646 -1.866,-1.044 -0.491,0.629 -1.036,1.227 -1.704,1.711 -4.475,3.378 -9.779,3.907 -11.791,1.197 -2.018,-2.771 0.07,-7.652 4.552,-11.03 0.822,-0.607 1.743,-1.036 2.688,-1.327 -0.085,-0.431 -0.155,-0.861 -0.201,-1.298 -0.744,0.069 -1.503,0.061 -2.264,-0.076 -5.527,-0.899 -9.633,-4.353 -9.034,-7.723 0.521,-3.309 5.45,-5.258 11.045,-4.353 1.251,0.215 2.395,0.73 3.416,1.382 0.369,-0.453 0.752,-0.883 1.167,-1.289 -0.783,-0.737 -1.482,-1.566 -1.965,-2.572 -2.464,-5.105 -1.942,-10.432 1.044,-11.936 3.062,-1.421 7.461,1.504 9.932,6.601 0.561,1.182 0.815,2.449 0.861,3.708 0.129,-0.008 0.26,-0.024 0.399,-0.024 0.269,0 0.529,0.024 0.79,0.039 0.038,-1.258 0.284,-2.533 0.853,-3.723 2.471,-5.097 6.946,-8.022 9.932,-6.601 3.063,1.504 3.577,6.831 1.12,11.936 -0.537,1.105 -1.327,2.012 -2.202,2.802 0.468,0.484 0.898,0.998 1.297,1.543 0.913,-0.545 1.896,-0.999 2.993,-1.19 5.604,-0.906 10.525,1.044 11.123,4.422 0.523,3.3 -3.508,6.755 -9.103,7.66"
         style="fill:#fbfcfc;fill-opacity:1;fill-rule:nonzero;stroke:none"
         id="path110"
         inkscape:connector-curvature="0" /><path
         d="m 291.4883,447.5089 c -0.327,6.703 12.275,2.449 16.43,2.239 3.282,-0.168 13.27,2.113 14.128,1.525 5.877,-3.973 -6.224,-11.978 -14.337,-11.978 -2.162,0 -16.025,4.171 -16.221,8.214"
         style="fill:#bd9275;fill-opacity:1;fill-rule:nonzero;stroke:none"
         id="path114"
         inkscape:connector-curvature="0" /><path
         d="m 224.7969,504.8341 c 0,0 10.518,-20.896 26.593,-23.041 16.074,-2.165 33.175,0.683 33.175,0.683 0,0 -0.428,19.543 -8.792,22.941 -8.367,3.416 -26.477,8.084 -50.976,-0.583"
         style="fill:#ffffff;fill-opacity:1;fill-rule:nonzero;stroke:none"
         id="path118"
         inkscape:connector-curvature="0" /><path
         d="m 270.7657,496.4499 c -0.761,-8.198 -7.791,-14.366 -15.698,-13.774 -7.917,0.57 -13.703,7.689 -12.942,15.865 0.76,8.198 7.79,14.387 15.708,13.795 7.897,-0.591 13.703,-7.69 12.932,-15.886"
         style="fill:#55301b;fill-opacity:1;fill-rule:nonzero;stroke:none"
         id="path122"
         inkscape:connector-curvature="0" /><path
         d="m 256.0069,489.0978 c -2.934,0.211 -5.933,3.549 -5.552,7.711 0.39,4.141 3.969,6.993 6.904,6.782 2.933,-0.212 5.942,-3.55 5.551,-7.711 -0.389,-4.141 -3.958,-6.993 -6.903,-6.782"
         style="fill:#191e22;fill-opacity:1;fill-rule:nonzero;stroke:none"
         id="path126"
         inkscape:connector-curvature="0" /><path
         d="m 284.583,482.5338 c 0,0 -0.361,-0.038 -1.176,-0.191 -0.636,7.421 -2.513,17.671 -7.729,19.777 -7.768,3.227 -25.17,7.953 -47.42,-2.923 -2.267,3.246 -3.451,5.695 -3.451,5.695 24.202,13.836 43.339,8.693 51.63,5.276 8.382,-3.436 8.146,-27.634 8.146,-27.634"
         style="fill:#b38f70;fill-opacity:1;fill-rule:nonzero;stroke:none"
         id="path130"
         inkscape:connector-curvature="0" /><path
         d="m 392.9014,503.5441 c 0,0 -10.166,-20.479 -26.213,-22.358 -16.047,-1.898 -33.194,1.157 -33.194,1.157 0,0 1.932,19.827 10.241,23.074 8.307,3.264 25.106,6.959 49.166,-1.873"
         style="fill:#ffffff;fill-opacity:1;fill-rule:nonzero;stroke:none"
         id="path134"
         inkscape:connector-curvature="0" /><path
         d="m 343.8086,496.0578 c 0.794,-8.451 8.138,-14.806 16.385,-14.21 8.27,0.596 14.312,7.944 13.518,16.374 -0.794,8.474 -8.136,14.829 -16.395,14.233 -8.26,-0.596 -14.324,-7.944 -13.508,-16.397"
         style="fill:#55301b;fill-opacity:1;fill-rule:nonzero;stroke:none"
         id="path138"
         inkscape:connector-curvature="0" /><path
         d="m 359.2237,488.4899 c 3.065,0.221 6.196,3.641 5.8,7.944 -0.408,4.282 -4.147,7.216 -7.212,6.995 -3.066,-0.22 -6.196,-3.663 -5.8,-7.944 0.409,-4.28 4.147,-7.216 7.212,-6.995"
         style="fill:#191e22;fill-opacity:1;fill-rule:nonzero;stroke:none"
         id="path142"
         inkscape:connector-curvature="0" /><path
         d="m 333.4756,482.4196 c 0,0 0.361,-0.058 1.176,-0.228 0.512,7.345 2.22,17.424 7.417,19.416 7.719,3.076 25.037,7.497 47.457,-3.587 2.228,3.189 3.376,5.58 3.376,5.58 -24.431,14.027 -43.493,9.225 -51.724,5.979 -8.328,-3.264 -7.702,-27.16 -7.702,-27.16"
         style="fill:#d9b690;fill-opacity:1;fill-rule:nonzero;stroke:none"
         id="path146"
         inkscape:connector-curvature="0" /><path
         d="m 335.2168,607.1076 c -0.122,0.192 -0.261,0.407 -0.398,0.591 l 0.445,-0.476 -0.047,-0.115 z m 64.901,29.369 c -11.537,17.417 -39.839,32.846 -76.184,37.467 -36.362,4.605 -68.018,-22.215 -68.018,-22.215 0,0 -5.627,8.728 -10.439,11.292 -4.814,2.564 -18.638,-0.492 -18.638,-0.492 0,0 9.364,-2.748 11.215,-5.311 3.492,-4.829 1.873,-9.426 1.873,-9.426 0,0 -10.962,4.958 -15.774,5.066 -8.813,0.268 -18.692,-11.376 -18.692,-11.376 0,0 8.252,6.071 16.135,5.834 2.587,-0.069 9.741,-3.616 9.741,-3.616 0,0 -13.026,-1.435 -37.436,-29.292 -18.423,-21.009 -18.423,-48.774 -18.423,-48.774 l 15.429,9.219 c 0,0 -3.992,-4.866 -5.957,-9.94 -11.36,-29.499 4.2,-59.076 4.2,-59.076 0,0 5.073,-0.537 9.717,-11.882 6.28,-15.375 10.209,-34.427 10.209,-34.427 l 5.435,0 c 0,0 -11.698,47.476 -3.822,73.33 1.911,6.225 6.655,18.207 13.309,21.408 -1.097,-41.228 12.743,-80.898 12.743,-80.898 0.798,144.64 81.812,126.617 83.677,126.179 5.059,-6.164 8.482,-13.74 10.47,-19.06 4.215,-11.268 2.034,-16.91 2.034,-16.91 0,0 8.206,13.84 7.239,27.696 -0.292,4.436 -1.182,7.852 -2.203,10.531 2.51,-1.32 8.175,-2.203 10.416,-31.833 1.068,-14.031 -7.385,-20.648 -7.385,-20.648 0,0 28.625,6.455 23.037,42.456 0,0 63.358,-34.535 33.491,-132.251 l 5.427,0 c 0,0 3.915,19.052 10.193,34.427 0,0 60.234,43.301 -13.019,142.522"
         style="fill:#b8b3ab;fill-opacity:1;fill-rule:nonzero;stroke:none"
         id="path150"
         inkscape:connector-curvature="0" /><path
         d="m 280.7617,524.6896 c -0.083,0.13 -2.098,3.202 -6.216,6.369 -2.58,1.985 -5.108,3.496 -7.731,4.622 -3.188,1.344 -6.622,2.294 -9.948,2.75 -3.008,0.335 -6.342,0.246 -10.232,-0.279 -2.97,-0.567 -5.866,-1.453 -8.325,-2.541 -1.753,-0.605 -3.137,-1.456 -4.25,-2.14 -0.426,-0.262 -0.812,-0.499 -1.203,-0.711 l -5.303,-3.343 6.11,1.44 c 0.285,0.072 0.593,0.153 0.924,0.241 1.264,0.336 2.838,0.755 4.682,1.027 0.432,0.063 0.872,0.15 1.32,0.24 0.769,0.153 1.564,0.312 2.397,0.352 0.924,0.062 1.884,0.131 2.871,0.202 l 1.283,0.093 c 3.385,0.042 6.242,-0.215 8.782,-0.802 2.776,-0.48 5.629,-1.378 8.244,-2.594 2.47,-1.186 4.838,-2.362 6.687,-3.722 3.732,-2.499 5.809,-4.583 5.83,-4.604 l 0,0 c 0.513,-0.518 1.197,-0.785 1.887,-0.785 0.502,0 1.005,0.142 1.445,0.433 1.229,0.807 1.575,2.471 0.793,3.671 l -0.047,0.081 z"
         style="fill:#6c5a46;fill-opacity:1;fill-rule:nonzero;stroke:none"
         id="path154"
         inkscape:connector-curvature="0" /><path
         d="m 379.5645,532.0856 c -0.351,0.187 -0.737,0.424 -1.164,0.687 -1.112,0.684 -2.496,1.534 -4.197,2.119 -2.51,1.108 -5.407,1.993 -8.412,2.567 -3.857,0.52 -7.192,0.609 -10.212,0.271 -3.31,-0.455 -6.744,-1.405 -9.937,-2.75 -2.585,-1.11 -5.185,-2.665 -7.727,-4.621 -4.043,-3.109 -6.054,-6.127 -6.206,-6.359 l -0.038,-0.055 c -0.682,-1.054 -0.536,-2.465 0.347,-3.354 0.503,-0.509 1.17,-0.788 1.881,-0.788 l 0.002,0 c 0.71,10e-4 1.376,0.281 1.877,0.788 l 0.022,0.022 c 0.197,0.196 2.213,2.174 5.832,4.599 1.82,1.34 4.19,2.518 6.653,3.701 2.626,1.219 5.479,2.117 8.29,2.605 2.503,0.579 5.366,0.832 8.707,0.796 l 1.345,-0.097 c 0.979,-0.07 1.93,-0.138 2.862,-0.2 0.82,-0.039 1.615,-0.198 2.384,-0.352 0.448,-0.09 0.886,-0.177 1.317,-0.24 1.846,-0.272 3.419,-0.69 4.684,-1.026 0.33,-0.088 0.638,-0.17 0.932,-0.244 l 6.108,-1.44 -5.35,3.371 z"
         style="fill:#6c5a46;fill-opacity:1;fill-rule:nonzero;stroke:none"
         id="path158"
         inkscape:connector-curvature="0" /><path
         d="m 286.7559,483.297 c -8.983,-41.255 -52.495,-36.453 -63.007,-33.199 -4.634,1.429 -18.162,6.783 -20.331,40.338 -1.499,23.348 9.406,24.758 24.877,26.711 12.571,1.617 23.733,0.936 31.286,-0.05 7.543,-0.966 25.193,-4.713 26.938,-11.112 1.755,-6.399 2.199,-13.676 0.237,-22.688 m 12.167,31.089 c -3.047,0.67 -10.354,3.273 -17.837,5.314 -6.606,1.785 -13.36,3.087 -17.028,3.609 -9.002,1.262 -31.888,2.169 -46.136,0.809 -16.86,-1.588 -29.768,-3.53 -30.447,-4.891 -0.445,-0.976 -1.49,-13.557 -0.099,-14.918 1.321,-1.361 6.093,-4.043 7.267,-8.519 1.173,-4.457 5.837,-36.522 16.279,-45.307 17.166,-14.436 74.946,-15.086 84.895,37.557 1.38,7.178 3.166,11.398 6.281,12.561 1.39,0.503 3.47,0.927 5.61,0.858 l 0,12.158 c -2.849,-0.168 -5.403,0.039 -8.785,0.769"
         style="fill:#292526;fill-opacity:1;fill-rule:nonzero;stroke:none"
         id="path162"
         inkscape:connector-curvature="0" /><path
         d="m 327.7832,505.985 c 1.745,6.399 19.346,10.146 26.918,11.112 7.523,0.986 18.715,1.667 31.286,0.05 15.451,-1.952 26.396,-3.363 24.877,-26.711 -2.188,-33.555 -15.697,-38.909 -20.302,-40.338 -10.56,-3.254 -54.072,-8.056 -63.035,33.199 -1.963,9.012 -1.509,16.289 0.256,22.688 m -21.189,7.632 0,-12.158 c 2.09,0.069 4.18,-0.355 5.581,-0.858 3.095,-1.163 4.939,-5.383 6.291,-12.561 9.948,-52.643 67.699,-51.993 84.915,-37.557 10.441,8.785 15.115,40.85 16.268,45.307 1.145,4.476 5.906,7.158 7.268,8.519 1.36,1.361 0.345,13.942 -0.129,14.918 -0.631,1.361 -13.577,3.303 -30.447,4.891 -14.248,1.36 -37.084,0.453 -46.117,-0.809 -3.677,-0.522 -10.431,-1.824 -17.047,-3.609 -7.435,-2.041 -14.751,-4.644 -17.808,-5.314 -3.411,-0.73 -5.965,-0.937 -8.775,-0.769"
         style="fill:#292526;fill-opacity:1;fill-rule:nonzero;stroke:none"
         id="path166"
         inkscape:connector-curvature="0" /><path
         d="m 300.0352,540.9538 0,-16.463"
         style="fill:none;stroke:#d4b192;stroke-width:1.03430295;stroke-linecap:butt;stroke-linejoin:miter;stroke-miterlimit:10;stroke-dasharray:none;stroke-opacity:1"
         id="path170"
         inkscape:connector-curvature="0" /><path
         d="m 307.5342,546.0314 0,-26.618"
         style="fill:none;stroke:#d4b192;stroke-width:1.03430295;stroke-linecap:butt;stroke-linejoin:miter;stroke-miterlimit:10;stroke-dasharray:none;stroke-opacity:1"
         id="path174"
         inkscape:connector-curvature="0" /><path
         d="m 315.0352,540.9538 0,-16.463"
         style="fill:none;stroke:#d4b192;stroke-width:1.03430295;stroke-linecap:butt;stroke-linejoin:miter;stroke-miterlimit:10;stroke-dasharray:none;stroke-opacity:1"
         id="path178"
         inkscape:connector-curvature="0" /><path
         d="m 352.1016,403.8302 c 6.729,16.295 -4.406,36.327 -24.895,44.786"
         style="fill:none;stroke:#d9ac84;stroke-width:2.0686059;stroke-linecap:butt;stroke-linejoin:miter;stroke-miterlimit:10;stroke-dasharray:none;stroke-opacity:1"
         id="path182"
         inkscape:connector-curvature="0" /><path
         d="m 262.9034,403.8302 c -6.728,16.295 4.406,36.327 24.895,44.786"
         style="fill:none;stroke:#d9ac84;stroke-width:2.0686059;stroke-linecap:butt;stroke-linejoin:miter;stroke-miterlimit:10;stroke-dasharray:none;stroke-opacity:1"
         id="path186"
         inkscape:connector-curvature="0" /></g></g></svg>