<?xml version="1.0" encoding="UTF-8" standalone="no"?>
<!-- Created with Inkscape (http://www.inkscape.org/) -->

<svg
   xmlns:dc="http://purl.org/dc/elements/1.1/"
   xmlns:cc="http://creativecommons.org/ns#"
   xmlns:rdf="http://www.w3.org/1999/02/22-rdf-syntax-ns#"
   xmlns:svg="http://www.w3.org/2000/svg"
   xmlns="http://www.w3.org/2000/svg"
   xmlns:sodipodi="http://sodipodi.sourceforge.net/DTD/sodipodi-0.dtd"
   xmlns:inkscape="http://www.inkscape.org/namespaces/inkscape"
   id="svg2"
   version="1.1"
   inkscape:version="0.91 r13725"
   xml:space="preserve"
   width="400"
   height="600"
   viewBox="0 0 400 600"
   sodipodi:docname="joseph.svg"
   inkscape:export-filename="/home/alec/Projects/Brookings/out-of-work/data/avatars/joseph.png"
   inkscape:export-xdpi="90"
   inkscape:export-ydpi="90"><metadata
     id="metadata8"><rdf:RDF><cc:Work
         rdf:about=""><dc:format>image/svg+xml</dc:format><dc:type
           rdf:resource="http://purl.org/dc/dcmitype/StillImage" /><dc:title /></cc:Work></rdf:RDF></metadata><defs
     id="defs6"><clipPath
       clipPathUnits="userSpaceOnUse"
       id="clipPath16"><path
         d="M 0,792 612,792 612,0 0,0 0,792 Z"
         id="path18"
         inkscape:connector-curvature="0" /></clipPath><clipPath
       clipPathUnits="userSpaceOnUse"
       id="clipPath82"><path
         d="M 0,792 612,792 612,0 0,0 0,792 Z"
         id="path84"
         inkscape:connector-curvature="0" /></clipPath></defs><sodipodi:namedview
     pagecolor="#ffffff"
     bordercolor="#666666"
     borderopacity="1"
     objecttolerance="10"
     gridtolerance="10"
     guidetolerance="10"
     inkscape:pageopacity="0"
     inkscape:pageshadow="2"
     inkscape:window-width="1707"
     inkscape:window-height="846"
     id="namedview4"
     showgrid="false"
     inkscape:zoom="0.67425131"
     inkscape:cx="-158.90471"
     inkscape:cy="271.75008"
     inkscape:window-x="69"
     inkscape:window-y="34"
     inkscape:window-maximized="0"
     inkscape:current-layer="g10" /><g
     id="g10"
     inkscape:groupmode="layer"
     inkscape:label="AvatarsR2"
     transform="matrix(1.25,0,0,-1.25,0,600)"><text
       transform="scale(1,-1)"
       style="font-variant:normal;font-weight:300;font-stretch:normal;font-size:13px;font-family:Interstate-Light;-inkscape-font-specification:Interstate-Light;writing-mode:lr-tb;fill:#231f20;fill-opacity:1;fill-rule:nonzero;stroke:none"
       id="text64"
       x="64.004654"
       y="49.342243"><tspan
         x="64.004654 71.32235 78.212349 84.153351 89.965652 94.151649 101.17165 108.43865 115.80965 122.02365 129.03065 133.60664 140.62665 147.89365 151.27365 158.54065 163.83165 167.09465 178.11865 185.13866 189.12836 196.13536 203.40236 210.42235 213.80235 221.06935 228.08936 235.44736 242.71436 245.97736 252.99736 256.11734"
         y="49.342243"
         sodipodi:role="line"
         id="tspan66">Less-educated prime-age people; </tspan><tspan
         x="68.892654 79.916649 86.923653 93.996948 100.89996 104.27995 111.91095 119.28195 126.54895 129.81195 133.07495 139.14595 146.51695"
         y="64.942245"
         sodipodi:role="line"
         id="tspan68">many English </tspan></text>
<text
       transform="scale(1,-1)"
       style="font-variant:normal;font-weight:normal;font-stretch:normal;font-size:13px;font-family:'Myriad Pro';-inkscape-font-specification:MyriadPro-Regular;writing-mode:lr-tb;fill:#231f20;fill-opacity:1;fill-rule:nonzero;stroke:none"
       id="text70"
       x="149.89696"
       y="64.942245"><tspan
         x="149.89696 152.96495 159.23096 166.44595 173.71295 180.87595 187.14195 194.40895 201.28595 205.27695 208.34496 214.85796 221.12395 225.42696 232.64195 239.15495 243.40596 248.55396 251.24495"
         y="64.942245"
         sodipodi:role="line"
         id="tspan72">language-learners: </tspan></text>
<text
       transform="scale(1,-1)"
       style="font-variant:normal;font-weight:normal;font-stretch:normal;font-size:34px;font-family:'Myriad Pro';-inkscape-font-specification:MyriadPro-Regular;writing-mode:lr-tb;fill:#231f20;fill-opacity:1;fill-rule:nonzero;stroke:none"
       id="text74"
       x="110.08085"
       y="101.94284"><tspan
         x="110.08085 122.66085 141.32686 154.79085 171.82484 191.17085"
         y="101.94284"
         sodipodi:role="line"
         id="tspan76">Joseph</tspan></text>
<g
       id="g4284"
       transform="matrix(0.94276672,0,0,0.94276672,-132.27544,-200.99191)"><g
         id="g12"><g
           clip-path="url(#clipPath16)"
           id="g14"><g
             transform="translate(311.3457,448.424)"
             id="g20"><path
               inkscape:connector-curvature="0"
               id="path22"
               style="fill:#e0b98f;fill-opacity:1;fill-rule:nonzero;stroke:none"
               d="m 0,0 0,-205.49 -111.428,0 c -1.803,0.804 -2.755,1.189 -2.755,1.189 0,110.223 68.235,118.43 68.235,118.43 6.797,0 11.176,8.773 14.078,22.073 0.459,2.074 0.836,4.19 1.156,6.461 0.631,3.738 1.172,7.732 1.558,11.921 0.221,2.46 0.468,4.969 0.697,7.568 1.033,12.627 1.345,26.336 1.345,39.324 C -27.114,1.476 -12.118,0 0,0" /></g><g
             transform="translate(425.8896,244.1227)"
             id="g24"><path
               inkscape:connector-curvature="0"
               id="path26"
               style="fill:#f1cd9f;fill-opacity:1;fill-rule:nonzero;stroke:none"
               d="m 0,0 c 0,0 -1.033,-0.385 -2.656,-1.188 l -111.888,0 0,205.489 0.222,0 c 12.118,0 27.197,1.476 27.197,1.476 0,-12.914 0.303,-26.459 1.312,-39.012 0.246,-2.509 0.475,-5.018 0.721,-7.453 0.476,-4.296 0.918,-8.363 1.55,-12.184 l 0,-0.082 c 0.237,-1.714 0.549,-3.313 0.877,-4.862 2.87,-14.185 7.412,-23.754 14.439,-23.754 C -68.226,118.43 0,110.223 0,0" /></g><g
             transform="translate(342.3477,391.2506)"
             id="g28"><path
               inkscape:connector-curvature="0"
               id="path30"
               style="fill:#bd9275;fill-opacity:1;fill-rule:nonzero;stroke:none"
               d="M 0,0 0,-0.082 C -2.747,-4.477 -12.192,-16.94 -30.862,-16.94 l -0.14,0 c -17.743,0.082 -28.058,12.996 -30.714,16.776 0.631,3.739 1.172,7.732 1.558,11.922 0.221,2.459 0.468,4.969 0.697,7.568 8.675,-2.198 18.046,-3.51 28.148,-3.665 l 0.311,0 c 10.29,0.155 19.834,1.549 28.731,3.976 0.246,-2.509 0.475,-5.018 0.721,-7.453 C -1.074,7.888 -0.632,3.821 0,0" /></g><g
             transform="translate(309.7227,684.0793)"
             id="g32"><path
               inkscape:connector-curvature="0"
               id="path34"
               style="fill:#e4bf96;fill-opacity:1;fill-rule:nonzero;stroke:none"
               d="m 0,0 c -118.004,0 -118.685,-99.063 -113.429,-163.887 -8.117,15.374 -32.034,10.635 -30.092,-13.594 1.912,-23.311 35.733,-35.339 35.257,-32.625 9.667,-53.361 65.218,-84.158 108.264,-84.158 l 0.91,0 L 0.91,0 0,0" /></g><g
             transform="translate(173.7539,516.8469)"
             id="g36"><path
               inkscape:connector-curvature="0"
               id="path38"
               style="fill:#bd9275;fill-opacity:1;fill-rule:nonzero;stroke:none"
               d="m 0,0 c 5.838,9.355 14.824,5.33 17.055,3.263 2.328,-2.23 4.206,-5.222 2.73,-10.757 -0.811,-3.108 -4.067,-3.313 -3.28,-8.052 0.878,-5.296 3.329,-5.657 4.739,-6.846 1.37,-1.197 3.092,-2.156 3.969,-4.395 0.836,-2.23 0.975,-4.616 0.516,-6.65 -0.885,-3.829 -6.453,-0.795 -10.191,0.878 -2.428,1.156 -10.217,7.732 -12.209,9.962 C -1.606,-16.98 -3.895,-6.223 0,0" /></g><g
             transform="translate(310.3213,684.0793)"
             id="g40"><path
               inkscape:connector-curvature="0"
               id="path42"
               style="fill:#f1cd9f;fill-opacity:1;fill-rule:nonzero;stroke:none"
               d="m 0,0 c 117.995,0 118.668,-99.063 113.437,-163.887 8.092,15.374 32.042,10.635 30.075,-13.594 -1.895,-23.311 -35.741,-35.339 -35.257,-32.625 C 98.588,-263.467 43.054,-294.264 0,-294.264 l -0.902,0 L -0.902,0 0,0" /></g><g
             transform="translate(446.3057,516.8469)"
             id="g44"><path
               inkscape:connector-curvature="0"
               id="path46"
               style="fill:#bd9275;fill-opacity:1;fill-rule:nonzero;stroke:none"
               d="m 0,0 c -5.829,9.355 -14.832,5.33 -17.079,3.263 -2.32,-2.23 -4.165,-5.222 -2.738,-10.757 0.811,-3.108 4.099,-3.313 3.296,-8.052 -0.877,-5.296 -3.337,-5.657 -4.723,-6.846 -1.402,-1.197 -3.124,-2.156 -3.993,-4.395 -0.82,-2.23 -0.984,-4.616 -0.508,-6.65 0.877,-3.829 6.436,-0.795 10.175,0.878 2.443,1.156 10.216,7.732 12.201,9.962 C 1.6,-16.98 3.87,-6.223 0,0" /></g><g
             transform="translate(310.6738,656.1442)"
             id="g48"><path
               inkscape:connector-curvature="0"
               id="path50"
               style="fill:#e4bf96;fill-opacity:1;fill-rule:nonzero;stroke:none"
               d="m 0,0 c -38.873,0 -67.251,-11.274 -84.502,-33.633 -23.999,-31.158 -23.089,-78.771 -14.226,-112.921 2.707,-10.47 4.1,-38.618 5.961,-48.974 8.388,-46.219 59.265,-70.801 92.767,-70.801 0.278,0 0.59,0.033 0.869,0.033 L 0.869,0 0,0" /></g><g
             transform="translate(394.9297,622.4699)"
             id="g52"><path
               inkscape:connector-curvature="0"
               id="path54"
               style="fill:#f1cd9f;fill-opacity:1;fill-rule:nonzero;stroke:none"
               d="m 0,0 c -17.071,22.204 -45.153,33.478 -83.387,33.674 l 0,-266.296 c 38.266,0.402 83.977,27.378 91.848,70.768 1.829,10.356 3.239,38.504 5.97,48.975 C 23.244,-78.819 24.122,-31.272 0,0" /></g><g
             transform="translate(426.0459,244.0905)"
             id="g56"><path
               inkscape:connector-curvature="0"
               id="path58"
               style="fill:#6cc0ed;fill-opacity:1;fill-rule:nonzero;stroke:none"
               d="m 0,0 c 0,0 -1.033,-0.402 -2.665,-1.197 l -223.553,0 c -1.812,0.795 -2.763,1.197 -2.763,1.197 0,83.96 39.66,108.697 58.509,115.757 12.291,-13.553 36.618,-32.207 55.403,-33.117 l 0.369,0 0.074,0 0.082,0 c 0.082,0 0.246,-0.082 0.401,0 18.859,0.91 43.178,19.646 55.485,33.191 C -39.906,108.853 0,84.198 0,0" /></g><g
             transform="translate(245.0713,354.9523)"
             id="g60"><path
               inkscape:connector-curvature="0"
               id="path62"
               style="fill:#ffffff;fill-opacity:1;fill-rule:nonzero;stroke:none"
               d="m 0,0 c 14.57,-16.103 43.465,-38.225 65.726,-39.34 l 0.466,0 0.082,0 0.107,0 c 0.091,0 0.296,-0.074 0.451,0 22.335,1.115 51.155,23.237 65.75,39.34 -3.87,2.189 -7.494,3.862 -10.512,4.969 -12.273,-13.545 -36.592,-32.281 -55.459,-33.191 -0.139,-0.082 -0.311,0 -0.378,0 l -0.073,0 -0.082,0 -0.393,0 C 46.916,-27.312 22.598,-8.658 10.314,4.895 7.313,3.78 3.78,2.148 0,0" /></g></g></g><g
         id="g78"><g
           clip-path="url(#clipPath82)"
           id="g80"><g
             transform="translate(286.3867,484.6374)"
             id="g86"><path
               inkscape:connector-curvature="0"
               id="path88"
               style="fill:#bd9275;fill-opacity:1;fill-rule:nonzero;stroke:none"
               d="M 0,0 C -0.463,9.481 17.363,3.465 23.24,3.168 27.883,2.93 42.012,6.156 43.225,5.325 51.536,-0.296 34.42,-11.619 22.944,-11.619 19.887,-11.619 0.277,-5.719 0,0" /></g><g
             transform="translate(337.1982,429.7292)"
             id="g90"><path
               inkscape:connector-curvature="0"
               id="path92"
               style="fill:#d1ae8b;fill-opacity:1;fill-rule:nonzero;stroke:none"
               d="m 0,0 c -3.462,0.183 -7.017,-2.907 -11.181,-2.435 -0.169,0.091 -0.253,0.091 -0.431,0.091 -0.956,0.181 -1.905,0 -2.946,-0.272 -1.294,-0.291 -2.598,-0.853 -3.816,-1.307 -2.082,-0.725 -4.426,-1.306 -6.839,-1.106 l 0,-0.017 c -0.05,0 -0.084,0.017 -0.135,0.017 -0.05,0 -0.084,-0.017 -0.134,-0.017 l 0,0.017 c -2.413,-0.2 -4.757,0.381 -6.838,1.106 -1.219,0.454 -2.523,1.016 -3.818,1.307 -1.041,0.272 -1.989,0.453 -2.945,0.272 -0.178,0 -0.262,0 -0.433,-0.091 -4.163,-0.472 -7.717,2.618 -11.178,2.435 -0.957,-0.09 -2.346,0.183 -3.124,0.183 0.17,-0.091 0.347,-0.183 0.525,-0.273 9.867,-5.151 18.383,-14.802 27.811,-14.493 l 0.134,0 0.135,0 C -15.784,-14.892 -7.27,-5.241 2.598,-0.09 2.775,0 2.953,0.092 3.123,0.183 2.345,0.183 0.957,-0.09 0,0" /></g><g
             transform="translate(340.0977,430.0241)"
             id="g94"><path
               inkscape:connector-curvature="0"
               id="path96"
               style="fill:#c39778;fill-opacity:1;fill-rule:nonzero;stroke:none"
               d="m 0,0 0.001,0 c 0,0 -10.035,4.139 -17.171,1.71 0,0 -2.657,-1.109 -5.41,-1.785 -1.674,-0.698 -3.702,-0.902 -5.667,-0.817 -1.503,0.064 -2.929,0.268 -4.101,0.487 -0.389,0.064 -0.777,0.149 -1.175,0.24 -0.172,0.038 -0.301,0.067 -0.449,0.103 -0.241,0.06 -0.474,0.109 -0.712,0.175 -0.259,0.068 -0.414,0.113 -0.414,0.113 l 0.015,0.006 c -2.282,0.662 -4.24,1.478 -4.24,1.478 C -46.46,4.139 -56.494,0 -56.494,0 c -0.138,-0.067 -0.224,-0.112 -0.224,-0.112 0.779,0 2.167,-0.273 3.124,-0.183 2.845,0.15 5.755,-1.907 9.013,-2.383 1.508,-0.447 6.157,-1.726 12.048,-2.313 1.334,-0.294 2.73,-0.45 4.151,-0.333 l 0,-0.017 c 0.051,0 0.084,0.017 0.135,0.017 0.051,0 0.085,-0.017 0.135,-0.017 l 0,0.017 c 0.801,-0.066 1.594,-0.04 2.375,0.042 4.612,0.081 9.501,0.778 14.002,2.629 3.186,0.523 6.042,2.506 8.836,2.358 0.957,-0.09 2.344,0.183 3.123,0.183 0,0 -0.086,0.045 -0.224,0.112" /></g><g
             transform="translate(228.5215,540.4499)"
             id="g98"><path
               inkscape:connector-curvature="0"
               id="path100"
               style="fill:#ffffff;fill-opacity:1;fill-rule:nonzero;stroke:none"
               d="m 0,0 c 0,0 9.588,-19.05 24.242,-21.005 14.654,-1.973 30.242,0.623 30.242,0.623 0,0 0.216,22.043 -7.409,25.14 C 39.449,7.873 22.021,12.579 0,0" /></g><g
             transform="translate(270.4268,532.8063)"
             id="g102"><path
               inkscape:connector-curvature="0"
               id="path104"
               style="fill:#5787a3;fill-opacity:1;fill-rule:nonzero;stroke:none"
               d="m 0,0 c -0.693,-7.473 -7.103,-13.096 -14.311,-12.557 -7.216,0.52 -12.491,7.01 -11.797,14.464 0.693,7.472 7.101,13.114 14.319,12.575 C -4.59,13.943 0.702,7.472 0,0" /></g><g
             transform="translate(256.9727,526.1042)"
             id="g106"><path
               inkscape:connector-curvature="0"
               id="path108"
               style="fill:#191e22;fill-opacity:1;fill-rule:nonzero;stroke:none"
               d="m 0,0 c -2.675,0.193 -5.408,3.235 -5.062,7.029 0.356,3.775 3.62,6.375 6.293,6.183 C 3.907,13.019 6.649,9.976 6.293,6.182 5.938,2.407 2.685,-0.192 0,0" /></g><g
             transform="translate(283.0225,520.1203)"
             id="g110"><path
               inkscape:connector-curvature="0"
               id="path112"
               style="fill:#d4b08e;fill-opacity:1;fill-rule:nonzero;stroke:none"
               d="m 0,0 c 0,0 -0.328,-0.035 -1.072,-0.173 -0.578,6.765 -2.29,16.108 -7.046,18.028 -7.081,2.941 -22.945,7.25 -43.228,-2.665 -2.066,2.959 -3.146,5.192 -3.146,5.192 22.062,12.613 39.51,7.924 47.066,4.809 C 0.216,22.06 0,0 0,0" /></g><g
             transform="translate(391.7666,539.2736)"
             id="g114"><path
               inkscape:connector-curvature="0"
               id="path116"
               style="fill:#ffffff;fill-opacity:1;fill-rule:nonzero;stroke:none"
               d="m 0,0 c 0,0 -9.268,-18.669 -23.896,-20.382 -14.628,-1.73 -30.26,1.055 -30.26,1.055 0,0 -0.571,21.766 7.004,24.725 C -39.579,8.374 -22.219,12.751 0,0" /></g><g
             transform="translate(347.0127,532.4489)"
             id="g118"><path
               inkscape:connector-curvature="0"
               id="path120"
               style="fill:#5787a3;fill-opacity:1;fill-rule:nonzero;stroke:none"
               d="m 0,0 c 0.724,-7.704 7.418,-13.497 14.937,-12.954 7.54,0.543 13.047,7.242 12.324,14.927 C 26.537,9.697 19.843,15.491 12.314,14.947 4.785,14.404 -0.744,7.706 0,0" /></g><g
             transform="translate(361.0654,525.55)"
             id="g122"><path
               inkscape:connector-curvature="0"
               id="path124"
               style="fill:#191e22;fill-opacity:1;fill-rule:nonzero;stroke:none"
               d="M 0,0 C 2.795,0.202 5.648,3.319 5.287,7.242 4.915,11.145 1.508,13.82 -1.287,13.619 -4.081,13.418 -6.936,10.28 -6.574,6.377 -6.201,2.475 -2.795,-0.201 0,0" /></g><g
             transform="translate(337.5937,520.0168)"
             id="g126"><path
               inkscape:connector-curvature="0"
               id="path128"
               style="fill:#e0b98f;fill-opacity:1;fill-rule:nonzero;stroke:none"
               d="m 0,0 c 0,0 0.329,-0.053 1.072,-0.208 0.467,6.696 2.023,15.883 6.761,17.7 7.038,2.803 22.824,6.834 43.263,-3.27 2.031,2.906 3.077,5.086 3.077,5.086 C 31.901,32.095 14.524,27.718 7.021,24.759 -0.57,21.783 0,0 0,0" /></g><g
             transform="translate(229.2715,541.1042)"
             id="g130"><path
               inkscape:connector-curvature="0"
               id="path132"
               style="fill:#c1a386;fill-opacity:1;fill-rule:nonzero;stroke:none"
               d="m 0,0 c -0.069,-0.105 -0.147,-0.206 -0.214,-0.312 0.142,0.08 0.28,0.151 0.422,0.229 L 0,0 Z" /></g><g
             transform="translate(282.1152,519.9323)"
             id="g134"><path
               inkscape:connector-curvature="0"
               id="path136"
               style="fill:#c1a386;fill-opacity:1;fill-rule:nonzero;stroke:none"
               d="m 0,0 c -3.489,-0.506 -16.761,-2.183 -29.352,-0.487 -13.605,1.815 -22.837,18.355 -24.09,20.715 -1.774,-3.029 -2.77,-6.399 -2.77,-9.956 0,-13.115 13.459,-23.747 30.061,-23.747 11.79,0 21.988,5.365 26.914,13.17 L 0,0 Z" /></g><g
             transform="translate(391.6436,539.0353)"
             id="g138"><path
               inkscape:connector-curvature="0"
               id="path140"
               style="fill:#e0b98f;fill-opacity:1;fill-rule:nonzero;stroke:none"
               d="m 0,0 c -1.127,-2.157 -10.11,-18.543 -23.772,-20.144 -14.629,-1.73 -30.261,1.056 -30.261,1.056 l 0,0.037 -0.157,-0.024 c 3.419,-10.141 15.111,-17.613 29.014,-17.613 16.587,0 30.032,10.632 30.032,23.747 C 4.856,-8.166 3.067,-3.724 0,0" /></g><g
             transform="translate(283.71,550.4641)"
             id="g142"><path
               inkscape:connector-curvature="0"
               id="path144"
               style="fill:#6c5a46;fill-opacity:1;fill-rule:nonzero;stroke:none"
               d="m 0,0 c -0.075,0.118 -1.912,2.918 -5.666,5.806 -2.352,1.81 -4.656,3.187 -7.048,4.213 -2.906,1.225 -6.036,2.091 -9.068,2.507 -2.742,0.306 -5.781,0.225 -9.328,-0.254 -2.707,-0.517 -5.348,-1.325 -7.589,-2.316 -1.598,-0.552 -2.86,-1.328 -3.874,-1.951 -0.389,-0.239 -0.74,-0.455 -1.098,-0.648 l -4.833,-3.048 5.57,1.312 c 0.26,0.066 0.54,0.14 0.842,0.22 1.153,0.307 2.587,0.689 4.269,0.936 0.393,0.057 0.794,0.137 1.202,0.219 0.701,0.14 1.426,0.285 2.184,0.321 0.844,0.057 1.719,0.12 2.619,0.184 l 1.17,0.085 c 3.085,0.039 5.69,-0.196 8.005,-0.731 2.531,-0.438 5.131,-1.256 7.516,-2.364 2.251,-1.081 4.41,-2.153 6.095,-3.394 3.403,-2.278 5.296,-4.178 5.314,-4.196 l 0,-10e-4 c 0.468,-0.472 1.093,-0.715 1.721,-0.715 0.457,0 0.916,0.129 1.317,0.394 1.121,0.736 1.436,2.253 0.723,3.347 L 0,0 Z" /></g><g
             transform="translate(380.8232,561.4182)"
             id="g146"><path
               inkscape:connector-curvature="0"
               id="path148"
               style="fill:#6c5a46;fill-opacity:1;fill-rule:nonzero;stroke:none"
               d="m 0,0 c -0.319,0.17 -0.672,0.387 -1.061,0.626 -1.013,0.624 -2.275,1.398 -3.826,1.932 -2.288,1.01 -4.928,1.817 -7.669,2.339 -3.514,0.475 -6.555,0.556 -9.308,0.248 -3.018,-0.415 -6.149,-1.28 -9.059,-2.507 -2.357,-1.011 -4.727,-2.429 -7.044,-4.212 -3.686,-2.834 -5.519,-5.586 -5.658,-5.798 l -0.034,-0.049 c -0.621,-0.961 -0.488,-2.247 0.316,-3.058 0.458,-0.463 1.068,-0.718 1.714,-0.718 l 0.002,0 c 0.648,10e-4 1.255,0.256 1.712,0.719 l 0.019,0.02 c 0.18,0.178 2.018,1.981 5.318,4.192 1.658,1.222 3.818,2.295 6.064,3.374 2.394,1.111 4.995,1.93 7.557,2.374 2.282,0.528 4.893,0.758 7.937,0.726 l 1.228,-0.088 c 0.892,-0.064 1.759,-0.126 2.607,-0.183 0.748,-0.036 1.473,-0.181 2.174,-0.32 0.408,-0.082 0.808,-0.162 1.201,-0.22 1.682,-0.247 3.117,-0.628 4.27,-0.935 0.301,-0.081 0.581,-0.155 0.85,-0.222 L 4.877,-3.072 0,0 Z" /></g><g
             transform="translate(426.0937,528.9396)"
             id="g150"><path
               inkscape:connector-curvature="0"
               id="path152"
               style="fill:#5b5c5d;fill-opacity:1;fill-rule:nonzero;stroke:none"
               d="m 0,0 c -2.356,-2.316 -5.026,-5.243 -6.819,-10.044 -3.708,-9.699 -5.108,-8.034 -5.108,-8.034 0,0 5.831,37.958 5.831,48.525 0,10.479 -33.157,63.893 -51.662,70.166 -18.545,6.2 -35.191,-14.813 -55.079,-14.813 l -1.576,0 c -19.502,0.402 -36.809,20.925 -55.088,14.813 -18.464,-6.273 -51.629,-59.687 -51.629,-70.166 0,-10.567 5.815,-48.525 5.815,-48.525 0,0 -1.432,-1.665 -5.099,8.034 -2.107,5.669 -5.509,8.838 -8.171,11.146 -4.922,65.751 -2.115,162.592 114.027,162.592 l 0.62,0 C 2.831,163.694 5.082,65.743 0,0" /></g><g
             transform="translate(346.1943,404.5592)"
             id="g154"><path
               inkscape:connector-curvature="0"
               id="path156"
               style="fill:#5b5c5d;fill-opacity:1;fill-rule:nonzero;stroke:none"
               d="m 0,0 c -3.324,-1.569 -7.26,-2.881 -11.595,-3.918 0.009,0.142 0.053,0.292 0.053,0.434 0,4.335 -10.221,7.837 -22.854,7.837 -12.64,0 -22.879,-3.502 -22.879,-7.837 0,-0.062 0.027,-0.124 0.036,-0.186 -4.478,1.134 -8.475,2.571 -11.809,4.255 -1.764,4.388 -2.836,9.547 -2.836,15.132 0,1.516 0.088,3.014 0.231,4.468 6.807,7.544 17.375,12.96 29.661,14.627 2.624,0.355 5.337,0.549 8.094,0.549 2.748,0 5.442,-0.194 8.066,-0.549 11.648,-1.587 21.684,-6.56 28.5,-13.501 0.24,-1.809 0.399,-3.67 0.399,-5.594 C 3.067,9.875 1.915,4.494 0,0 m 14.459,15.717 c 0,9.6 -3.032,18.057 -7.633,23.137 -7.589,11.294 -22.969,19.033 -40.724,19.033 -16.365,0 -30.682,-6.578 -38.784,-16.418 -6.232,-4.352 -10.593,-14.237 -10.593,-25.752 0,-6.826 1.542,-13.084 4.095,-17.969 0.638,-1.915 1.924,-3.749 3.794,-5.443 1.738,-1.826 3.688,-3.173 5.762,-3.953 8.395,-4.433 21.267,-7.287 35.717,-7.287 25.291,0 45.795,8.705 45.795,19.449 0,0.169 -0.044,0.337 -0.044,0.506 1.639,4.281 2.615,9.298 2.615,14.697" /></g></g></g></g></g></svg>