<?xml version="1.0" encoding="UTF-8" standalone="no"?>
<!-- Created with Inkscape (http://www.inkscape.org/) -->

<svg
   xmlns:dc="http://purl.org/dc/elements/1.1/"
   xmlns:cc="http://creativecommons.org/ns#"
   xmlns:rdf="http://www.w3.org/1999/02/22-rdf-syntax-ns#"
   xmlns:svg="http://www.w3.org/2000/svg"
   xmlns="http://www.w3.org/2000/svg"
   xmlns:sodipodi="http://sodipodi.sourceforge.net/DTD/sodipodi-0.dtd"
   xmlns:inkscape="http://www.inkscape.org/namespaces/inkscape"
   id="svg2"
   version="1.1"
   inkscape:version="0.91 r13725"
   xml:space="preserve"
   width="400"
   height="600"
   viewBox="0 0 400 600"
   sodipodi:docname="leonard.ai.svg"
   inkscape:export-filename="/home/alec/Projects/Brookings/out-of-work/data/avatars/leonard.png"
   inkscape:export-xdpi="90"
   inkscape:export-ydpi="90"><metadata
     id="metadata8"><rdf:RDF><cc:Work
         rdf:about=""><dc:format>image/svg+xml</dc:format><dc:type
           rdf:resource="http://purl.org/dc/dcmitype/StillImage" /><dc:title></dc:title></cc:Work></rdf:RDF></metadata><defs
     id="defs6"><clipPath
       clipPathUnits="userSpaceOnUse"
       id="clipPath16"><path
         d="M 0,792 612,792 612,0 0,0 0,792 Z"
         id="path18"
         inkscape:connector-curvature="0" /></clipPath><clipPath
       clipPathUnits="userSpaceOnUse"
       id="clipPath36"><path
         d="M 0,792 612,792 612,0 0,0 0,792 Z"
         id="path38"
         inkscape:connector-curvature="0" /></clipPath><clipPath
       clipPathUnits="userSpaceOnUse"
       id="clipPath56"><path
         d="m 276.188,352.736 59.635,0 0,35.57 -59.635,0 0,-35.57 z"
         id="path58"
         inkscape:connector-curvature="0" /></clipPath><clipPath
       clipPathUnits="userSpaceOnUse"
       id="clipPath68"><path
         d="M 0,792 612,792 612,0 0,0 0,792 Z"
         id="path70"
         inkscape:connector-curvature="0" /></clipPath></defs><sodipodi:namedview
     pagecolor="#ffffff"
     bordercolor="#666666"
     borderopacity="1"
     objecttolerance="10"
     gridtolerance="10"
     guidetolerance="10"
     inkscape:pageopacity="0"
     inkscape:pageshadow="2"
     inkscape:window-width="1748"
     inkscape:window-height="811"
     id="namedview4"
     showgrid="false"
     inkscape:zoom="0.47676768"
     inkscape:cx="394.64422"
     inkscape:cy="482.07476"
     inkscape:window-x="59"
     inkscape:window-y="30"
     inkscape:window-maximized="0"
     inkscape:current-layer="g10" /><g
     id="g10"
     inkscape:groupmode="layer"
     inkscape:label="AvatarsR2"
     transform="matrix(1.25,0,0,-1.25,0,600)"><g
       id="g12"><g
         id="g14"
         clip-path="url(#clipPath16)"><text
           transform="matrix(1,0,0,-1,-494.2324,187.958)"
           style="font-variant:normal;font-weight:300;font-stretch:normal;font-size:13px;font-family:Interstate-Light;-inkscape-font-specification:Interstate-Light;writing-mode:lr-tb;fill:#231f20;fill-opacity:1;fill-rule:nonzero;stroke:none"
           id="text20"><tspan
             x="0 7.1500001 14.508 21.879 29.25 36.516998 39.637001 43.016998 46.279999 53.168701 59.111 64.921997 69.108002 76.127998 83.394997 90.765999 96.980003 103.987 108.563 115.583 122.85 125.97 129.35001 136.35699 143.728 150.995 154.375 161.642 164.905 171.457 178.47701 183.508 189.44901 196.46899"
             y="0"
             sodipodi:role="line"
             id="tspan22">Young, less-educated, and diverse </tspan></text>
<text
           transform="matrix(1,0,0,-1,-419.1185,150.958)"
           style="font-variant:normal;font-weight:normal;font-stretch:normal;font-size:34px;font-family:'Myriad Pro';-inkscape-font-specification:MyriadPro-Regular;writing-mode:lr-tb;fill:#231f20;fill-opacity:1;fill-rule:nonzero;stroke:none"
           id="text24"><tspan
             x="0 28.219999 36.175999 44.200001 52.223999"
             y="0"
             sodipodi:role="line"
             id="tspan26">Will </tspan></text>
</g></g><text
       transform="scale(1,-1)"
       style="font-variant:normal;font-weight:300;font-stretch:normal;font-size:13px;font-family:Interstate-Light;-inkscape-font-specification:Interstate-Light;writing-mode:lr-tb;fill:#231f20;fill-opacity:1;fill-rule:nonzero;stroke:none"
       id="text28"
       x="152.16916"
       y="48.63522"><tspan
         x="152.16916 161.11316 164.37616 171.64317 179.01416 182.27716 189.18016 192.56017 199.58017 206.84717 214.21817 220.43216 227.43916 232.01517 239.03516 246.30217 249.42216 252.80217 260.17316 263.43616 270.70316 278.07416 282.26016 285.52316 292.89417 299.10815 306.46616 317.49017 324.51016 327.89017 335.24817 338.51117 345.77817 352.79816 358.08917 361.46918 368.73618 374.02716 377.29016 388.31418 395.33417 399.32516 406.33215 413.59915 420.61917 423.99915 431.26614 438.28616 445.64417 452.91116 456.17416"
         y="48.63522"
         sodipodi:role="line"
         id="tspan30">Highly educated, high-income older prime-age people</tspan></text>
<text
       transform="scale(1,-1)"
       style="font-variant:normal;font-weight:normal;font-stretch:normal;font-size:34px;font-family:'Myriad Pro';-inkscape-font-specification:MyriadPro-Regular;writing-mode:lr-tb;fill:#231f20;fill-opacity:1;fill-rule:nonzero;stroke:none"
       id="text40"
       x="249.43776"
       y="85.635231"><tspan
         x="249.43776 265.00977 282.04379 300.70978 319.57977 335.96777 346.74579 365.92178"
         y="85.635231"
         sodipodi:role="line"
         id="tspan42">Leonard </tspan></text>
<g
       id="g4577"
       transform="translate(-144.16887,-206.3864)"><g
         transform="translate(305.909,424.777)"
         id="g44"><path
           inkscape:connector-curvature="0"
           id="path46"
           style="fill:#e8c6a0;fill-opacity:1;fill-rule:nonzero;stroke:none"
           d="m 0,0 0,-199.822 -107.659,0 c -1.738,0.803 -2.744,1.118 -2.744,1.118 0,82.436 38.973,106.227 57.028,112.824 5.423,2.012 8.971,2.438 8.971,2.438 6.582,0 10.724,8.488 13.605,21.442 0.427,1.971 0.813,4.031 1.118,6.227 0.612,3.653 1.054,7.563 1.521,11.594 0.129,2.446 0.434,4.884 0.668,7.402 0.998,12.334 1.279,25.666 1.279,38.249 C -26.213,1.472 -11.715,0 0,0" /></g><g
         transform="translate(416.577,226.0729)"
         id="g48"><path
           inkscape:connector-curvature="0"
           id="path50"
           style="fill:#f1cd9f;fill-opacity:1;fill-rule:nonzero;stroke:none"
           d="m 0,0 c 0,0 -0.989,-0.314 -2.566,-1.118 l -108.102,0 0,199.822 0.217,0 c 11.707,0 26.286,1.472 26.286,1.472 0,-12.583 0.209,-25.77 1.263,-37.975 0.153,-2.438 0.466,-4.844 0.692,-7.129 0.466,-4.272 0.804,-8.255 1.416,-11.98 l 0,-0.08 c 0.314,-1.658 0.539,-3.179 0.917,-4.723 2.792,-13.726 7.169,-23.027 13.991,-23.027 0,0 5.56,-0.659 13.557,-4.256 C -33.003,102.091 0,75.887 0,0" /></g><g
         transform="translate(335.8231,369.2052)"
         id="g60"><path
           inkscape:connector-curvature="0"
           id="path62"
           style="fill:#bd9275;fill-opacity:1;fill-rule:nonzero;stroke:none"
           d="m 0,0 0,-0.081 c -2.64,-4.255 -11.763,-16.388 -29.793,-16.388 l -0.161,0 c -17.121,0.08 -27.107,12.672 -29.665,16.308 0.603,3.653 1.119,7.563 1.497,11.594 0.217,2.438 0.442,4.876 0.676,7.362 8.375,-2.092 17.451,-3.412 27.186,-3.565 l 0.306,0 c 9.976,0.153 19.165,1.513 27.79,3.871 0.209,-2.398 0.45,-4.836 0.667,-7.201 C -1.03,7.667 -0.604,3.717 0,0" /></g><g
         transform="translate(303.8973,654.0388)"
         id="g72"><path
           inkscape:connector-curvature="0"
           id="path74"
           style="fill:#e8c6a0;fill-opacity:1;fill-rule:nonzero;stroke:none"
           d="m 0,0 c -114.039,0 -114.683,-96.323 -109.614,-159.377 -7.821,14.917 -30.96,10.314 -29.07,-13.219 1.835,-22.673 34.517,-34.411 34.05,-31.78 9.381,-51.887 63.03,-81.849 104.634,-81.849 0.282,0 0.596,0.032 0.854,0.032 L 0.854,0 0,0" /></g><g
         transform="translate(172.5115,491.403)"
         id="g76"><path
           inkscape:connector-curvature="0"
           id="path78"
           style="fill:#bd9275;fill-opacity:1;fill-rule:nonzero;stroke:none"
           d="m 0,0 c 5.632,9.068 14.313,5.157 16.462,3.146 2.276,-2.172 4.079,-5.044 2.654,-10.427 -0.763,-3.025 -3.933,-3.259 -3.153,-7.869 0.845,-5.157 3.21,-5.503 4.546,-6.67 1.344,-1.166 3.033,-2.052 3.87,-4.264 0.812,-2.172 0.94,-4.489 0.507,-6.469 -0.886,-3.725 -6.277,-0.78 -9.84,0.886 -2.382,1.094 -9.904,7.522 -11.812,9.662 C -1.545,-16.542 -3.773,-6.083 0,0" /></g><g
         transform="translate(304.4529,654.0388)"
         id="g80"><path
           inkscape:connector-curvature="0"
           id="path82"
           style="fill:#f1cd9f;fill-opacity:1;fill-rule:nonzero;stroke:none"
           d="m 0,0 c 114.031,0 114.683,-96.323 109.614,-159.377 7.821,14.917 30.984,10.314 29.053,-13.219 -1.811,-22.673 -34.5,-34.411 -34.065,-31.78 C 95.269,-256.263 41.62,-286.225 0,-286.225 c -0.273,0 -0.571,0.032 -0.869,0.032 L -0.869,0 0,0" /></g><g
         transform="translate(435.8709,491.403)"
         id="g84"><path
           inkscape:connector-curvature="0"
           id="path86"
           style="fill:#bd9275;fill-opacity:1;fill-rule:nonzero;stroke:none"
           d="m 0,0 c -5.656,9.068 -14.361,5.157 -16.51,3.146 -2.245,-2.172 -4.039,-5.044 -2.663,-10.427 0.805,-3.025 3.958,-3.259 3.187,-7.869 -0.846,-5.157 -3.211,-5.503 -4.563,-6.67 -1.335,-1.166 -3.001,-2.052 -3.846,-4.264 -0.812,-2.172 -0.957,-4.489 -0.499,-6.469 0.862,-3.725 6.228,-0.78 9.832,0.886 2.382,1.094 9.888,7.522 11.795,9.662 C 1.528,-16.542 3.741,-6.083 0,0" /></g><g
         transform="translate(305.1766,626.9006)"
         id="g88"><path
           inkscape:connector-curvature="0"
           id="path90"
           style="fill:#e8c6a0;fill-opacity:1;fill-rule:nonzero;stroke:none"
           d="m 0,0 c -37.517,0 -64.977,-11.006 -81.599,-32.706 -23.228,-30.308 -22.343,-76.627 -13.766,-109.888 2.615,-10.154 3.959,-37.557 5.76,-47.59 8.086,-44.991 57.238,-68.903 89.605,-68.903 0.273,0 0.579,0.032 0.869,0.032 l 0,259.023 C 0.579,-0.032 0.29,0 0,0" /></g><g
         transform="translate(386.6072,594.1467)"
         id="g92"><path
           inkscape:connector-curvature="0"
           id="path94"
           style="fill:#f1cd9f;fill-opacity:1;fill-rule:nonzero;stroke:none"
           d="m 0,0 c -16.494,21.554 -43.64,32.521 -80.562,32.722 l 0,-259.023 c 36.97,0.386 81.117,26.623 88.728,68.871 1.803,10.033 3.147,37.436 5.761,47.59 C 22.464,-76.691 23.3,-30.421 0,0" /></g><g
         transform="translate(416.577,226.0729)"
         id="g96"><path
           inkscape:connector-curvature="0"
           id="path98"
           style="fill:#e3e2e0;fill-opacity:1;fill-rule:nonzero;stroke:none"
           d="m 0,0 c 0,0 -0.989,-0.314 -2.566,-1.118 l -215.761,0 c -1.738,0.804 -2.744,1.118 -2.744,1.118 0,82.436 38.973,106.195 57.028,112.824 10.403,-5.229 27.219,-13.758 33.293,-16.51 4.658,-2.051 11.417,-7.056 20.203,-6.983 8.142,0.153 17.989,5.165 29.753,8.882 10.869,3.444 20.621,8.456 28.465,12.793 C -33.003,102.091 0,75.887 0,0" /></g><g
         transform="translate(392.5125,224.9548)"
         id="g100"><path
           inkscape:connector-curvature="0"
           id="path102"
           style="fill:#3a1514;fill-opacity:1;fill-rule:nonzero;stroke:none"
           d="m 0,0 -172.894,0 c 0.532,8.52 1.039,23.992 0.805,44.838 l 0,3.919 c -0.064,1.424 -0.064,2.944 -0.209,4.569 -0.064,1.038 -0.161,2.213 -0.241,3.331 -0.66,8.376 -2.036,18.296 -3.686,28.643 5.061,7.555 10.484,13.34 15.851,17.708 0.458,0.507 0.997,0.893 1.439,1.199 7.008,5.624 13.807,8.923 18.876,10.822 0.965,0.386 1.882,0.692 2.728,0.925 3.918,1.207 6.323,1.512 6.323,1.512 2.044,0 3.846,0.853 5.431,2.285 0,0 0,0.073 0.073,0.073 0.539,0.547 1.078,1.207 1.617,1.907 0.2,-0.153 0.595,-0.781 0.949,-1.98 2.052,-5.43 22.431,-21.385 36.471,-35.344 14.031,13.959 34.42,29.914 36.463,35.344 0.387,1.199 0.765,1.827 0.998,1.98 0.499,-0.7 1.038,-1.36 1.568,-1.907 0.082,0 0.082,-0.073 0.082,-0.073 1.577,-1.432 3.403,-2.285 5.43,-2.285 0,0 2.285,-0.233 5.978,-1.351 0.821,-0.314 1.73,-0.62 2.719,-1.014 5.053,-1.81 11.908,-5.037 19.093,-10.733 0.458,-0.386 0.997,-0.772 1.416,-1.239 C -7.257,98.712 -1.762,92.927 3.299,85.3 1.569,74.639 0.177,64.526 -0.394,56.078 -0.539,54.919 -0.619,53.793 -0.7,52.707 -0.772,51.58 -0.772,50.422 -0.853,49.448 l 0,-3.918 C -1.166,24.378 -0.539,8.593 0,0" /></g><g
         transform="translate(261.9471,296.0378)"
         id="g104"><path
           inkscape:connector-curvature="0"
           id="path106"
           style="fill:#60c9b6;fill-opacity:1;fill-rule:nonzero;stroke:none"
           d="m 0,0 0.072,0.105 -0.136,0 -10.966,18.996 -10.91,19.221 -10.902,-19.221 -10.982,-18.996 -0.114,0 0.082,-0.105 -0.082,-0.088 0.114,0 10.982,-19.028 10.902,-19.181 10.91,19.181 10.966,19.028 0.136,0 L 0,0 Z" /></g><g
         transform="translate(305.949,296.0378)"
         id="g108"><path
           inkscape:connector-curvature="0"
           id="path110"
           style="fill:#d23d2a;fill-opacity:1;fill-rule:nonzero;stroke:none"
           d="m 0,0 0.064,0.105 -0.144,0 -10.942,18.996 -10.894,19.221 -10.91,-19.221 -10.99,-18.996 -0.114,0 0.065,-0.105 -0.065,-0.088 0.114,0 10.99,-19.028 10.878,-19.181 10.926,19.181 10.942,19.028 0.144,0 L 0,0 Z" /></g><g
         transform="translate(349.9588,296.0378)"
         id="g112"><path
           inkscape:connector-curvature="0"
           id="path114"
           style="fill:#816598;fill-opacity:1;fill-rule:nonzero;stroke:none"
           d="m 0,0 0.041,0.105 -0.113,0 -10.975,18.996 -10.877,19.221 -10.927,-19.221 -10.965,-18.996 -0.113,0 0.033,-0.105 -0.033,-0.088 0.113,0 10.965,-19.028 10.886,-19.181 10.918,19.181 10.975,19.028 0.113,0 L 0,0 Z" /></g><g
         transform="translate(393.9451,296.0378)"
         id="g116"><path
           inkscape:connector-curvature="0"
           id="path118"
           style="fill:#f1937e;fill-opacity:1;fill-rule:nonzero;stroke:none"
           d="m 0,0 0.056,0.105 -0.113,0 -10.99,18.996 -10.886,19.221 -10.925,-19.221 -10.959,-18.996 -0.113,0 0.057,-0.105 -0.057,-0.088 0.113,0 10.959,-19.028 10.918,-19.181 10.893,19.181 10.99,19.028 0.113,0 L 0,0 Z" /></g><g
         transform="translate(258.7938,224.9548)"
         id="g120"><path
           inkscape:connector-curvature="0"
           id="path122"
           style="fill:#991a1f;fill-opacity:1;fill-rule:nonzero;stroke:none"
           d="m 0,0 -37.598,0 7.91,13.604 10.885,19.222 L -7.837,13.604 0,0 Z" /></g><g
         transform="translate(302.8035,224.9548)"
         id="g124"><path
           inkscape:connector-curvature="0"
           id="path126"
           style="fill:#991a1f;fill-opacity:1;fill-rule:nonzero;stroke:none"
           d="m 0,0 -37.598,0 7.933,13.604 10.862,19.222 L -7.934,13.604 0,0 Z" /></g><g
         transform="translate(346.8133,224.9548)"
         id="g128"><path
           inkscape:connector-curvature="0"
           id="path130"
           style="fill:#991a1f;fill-opacity:1;fill-rule:nonzero;stroke:none"
           d="m 0,0 -37.598,0 7.934,13.604 10.886,19.222 L -7.925,13.604 0,0 Z" /></g><g
         transform="translate(390.7508,224.9548)"
         id="g132"><path
           inkscape:connector-curvature="0"
           id="path134"
           style="fill:#991a1f;fill-opacity:1;fill-rule:nonzero;stroke:none"
           d="m 0,0 -37.525,0 7.861,13.604 10.95,19.222 L -7.853,13.604 0,0 Z" /></g><g
         transform="translate(262.8651,276.1491)"
         id="g136"><path
           inkscape:connector-curvature="0"
           id="path138"
           style="fill:#1b1918;fill-opacity:1;fill-rule:nonzero;stroke:none"
           d="m 0,0 0.466,1.038 -0.982,0 -10.732,18.537 -11.698,20.654 -11.772,-20.654 -8.174,-14.112 c 0.08,-1.118 0.177,-2.293 0.242,-3.331 l 9.589,16.47 10.115,17.829 L -12.905,18.602 -2.124,0 -12.905,-18.683 -23.02,-36.431 l -10.041,17.748 -9.38,16.245 0,-3.918 7.723,-13.219 11.698,-20.654 11.772,20.654 10.732,18.489 1.055,0.072 L 0,0 Z" /></g><g
         transform="translate(263.0096,276.1491)"
         id="g140"><path
           inkscape:connector-curvature="0"
           id="path142"
           style="fill:#1b1918;fill-opacity:1;fill-rule:nonzero;stroke:none"
           d="M 0,0 10.797,-18.642 20.862,-36.398 30.96,-18.642 41.709,0 30.96,18.602 20.895,36.35 10.797,18.602 0,0 Z m 20.862,-40.229 -11.715,20.614 -10.7,18.529 -1.127,0 0.539,1.054 -0.587,0.957 1.167,0.073 10.708,18.577 11.748,20.613 11.69,-20.613 10.7,-18.537 1.03,0 L 43.856,0 44.38,-0.974 43.302,-1.046 32.585,-19.615 20.862,-40.229 Z" /></g><g
         transform="translate(307.0272,276.1491)"
         id="g144"><path
           inkscape:connector-curvature="0"
           id="path146"
           style="fill:#1b1918;fill-opacity:1;fill-rule:nonzero;stroke:none"
           d="M 0,0 10.789,-18.642 20.847,-36.398 30.952,-18.642 41.693,0 30.952,18.602 20.871,36.35 10.789,18.602 0,0 Z m 20.847,-40.229 -11.715,20.614 -10.709,18.529 -1.111,0 0.54,1.054 -0.58,0.957 1.151,0.073 L 9.132,19.575 20.871,40.188 32.562,19.575 43.27,1.038 l 1.038,0 L 43.85,0 44.356,-0.974 43.27,-1.046 32.562,-19.615 20.847,-40.229 Z" /></g><g
         transform="translate(371.8836,312.5797)"
         id="g148"><path
           inkscape:connector-curvature="0"
           id="path150"
           style="fill:#1b1918;fill-opacity:1;fill-rule:nonzero;stroke:none"
           d="m 0,0 10.121,-17.829 9.808,-17.089 c 0.081,1.086 0.161,2.212 0.306,3.371 L 11.69,-16.855 0,3.798 l -11.715,-20.653 -10.708,-18.538 -1.207,-0.145 0.587,-0.893 -0.507,-1.086 1.127,0 10.708,-18.489 L 0,-76.659 l 11.69,20.653 8.086,13.911 0,3.918 L 10.121,-55.113 0,-72.861 -10.041,-55.113 -20.847,-36.431 -10.041,-17.829 0,0 Z" /></g><g
         transform="translate(239.8455,239.7907)"
         id="g152"><path
           inkscape:connector-curvature="0"
           id="path154"
           style="fill:#1b1918;fill-opacity:1;fill-rule:nonzero;stroke:none"
           d="m 0,0 -8.375,-14.836 2.181,0 6.194,11.038 6.349,-11.038 2.172,0 L 0,0 Z" /></g><g
         transform="translate(283.8719,239.7907)"
         id="g156"><path
           inkscape:connector-curvature="0"
           id="path158"
           style="fill:#1b1918;fill-opacity:1;fill-rule:nonzero;stroke:none"
           d="m 0,0 -8.367,-14.836 2.156,0 6.211,11.038 6.252,-11.038 2.187,0 L 0,0 Z" /></g><g
         transform="translate(327.8738,239.7907)"
         id="g160"><path
           inkscape:connector-curvature="0"
           id="path162"
           style="fill:#1b1918;fill-opacity:1;fill-rule:nonzero;stroke:none"
           d="m 0,0 -8.384,-14.836 2.181,0 6.203,11.038 6.268,-11.038 2.18,0 L 0,0 Z" /></g><g
         transform="translate(371.8836,239.7907)"
         id="g164"><path
           inkscape:connector-curvature="0"
           id="path166"
           style="fill:#1b1918;fill-opacity:1;fill-rule:nonzero;stroke:none"
           d="m 0,0 -8.472,-14.836 2.132,0 6.34,11.038 6.187,-11.038 2.261,0 L 0,0 Z" /></g><g
         transform="translate(252.4539,339.9836)"
         id="g168"><path
           inkscape:connector-curvature="0"
           id="path170"
           style="fill:#1b1918;fill-opacity:1;fill-rule:nonzero;stroke:none"
           d="m 0,0 -12.535,-21.933 -6.341,11.111 c -0.458,-0.305 -0.981,-0.692 -1.439,-1.199 l 7.78,-13.717 L 2.711,0.925 C 1.882,0.692 0.965,0.386 0,0" /></g><g
         transform="translate(378.3768,329.3229)"
         id="g172"><path
           inkscape:connector-curvature="0"
           id="path174"
           style="fill:#1b1918;fill-opacity:1;fill-rule:nonzero;stroke:none"
           d="m 0,0 -6.413,-11.272 -12.68,22.005 c -0.989,0.394 -1.898,0.7 -2.719,1.014 L -6.413,-15.078 1.416,-1.239 C 0.997,-0.772 0.458,-0.386 0,0" /></g><g
         transform="translate(347.2723,348.4635)"
         id="g176"><path
           inkscape:connector-curvature="0"
           id="path178"
           style="fill:#e3e2e0;fill-opacity:1;fill-rule:nonzero;stroke:none"
           d="m 0,0 c -1.658,4.232 -5.568,8.183 -7.008,11.554 -2.389,5.583 -4.555,10.499 -4.555,10.499 -0.539,-5.31 -8.72,-29.029 -8.72,-29.029 0,0 -25.61,-27.636 -21.619,-28.513 4.031,-0.902 23.043,-9.816 28.458,-16.204 5.495,-6.397 4.569,-12.367 5.993,-3.726 C -6.035,-46.737 4.368,-11.353 0,0" /></g><g
         transform="translate(285.1268,341.4879)"
         id="g180"><path
           inkscape:connector-curvature="0"
           id="path182"
           style="fill:#e3e2e0;fill-opacity:1;fill-rule:nonzero;stroke:none"
           d="m 0,0 c 0,0 -8.174,23.719 -8.705,29.029 0,0 -2.196,-4.916 -4.578,-10.5 -1.416,-3.371 -5.374,-7.321 -7.016,-11.553 -4.345,-11.353 6.059,-46.738 7.475,-55.419 1.424,-8.641 0.507,-2.671 5.953,3.725 5.463,6.388 23.775,15.158 27.79,16.051 C 24.926,-27.814 0,0 0,0" /></g><g
         transform="translate(336.6414,395.0192)"
         id="g184"><path
           inkscape:connector-curvature="0"
           id="path186"
           style="fill:#d1ae8b;fill-opacity:1;fill-rule:nonzero;stroke:none"
           d="m 0,0 c -4.132,0.172 -8.376,-2.742 -13.347,-2.296 -0.202,0.085 -0.302,0.085 -0.514,0.085 -1.143,0.171 -2.275,0 -3.517,-0.256 -1.546,-0.275 -3.102,-0.804 -4.557,-1.233 -2.485,-0.684 -5.283,-1.231 -8.164,-1.043 l 0,-0.016 c -0.059,0 -0.1,0.016 -0.161,0.016 -0.059,0 -0.1,-0.016 -0.16,-0.016 l 0,0.016 c -2.881,-0.188 -5.68,0.359 -8.164,1.043 -1.454,0.429 -3.011,0.958 -4.557,1.233 -1.242,0.256 -2.374,0.427 -3.516,0.256 -0.212,0 -0.313,0 -0.516,-0.085 -4.97,-0.446 -9.213,2.468 -13.346,2.296 -1.142,-0.085 -2.799,0.172 -3.729,0.172 0.203,-0.086 0.416,-0.172 0.628,-0.257 11.779,-4.858 21.944,-13.959 33.2,-13.668 l 0.16,0 0.161,0 c 11.256,-0.291 21.421,8.81 33.201,13.668 C 3.313,0 3.526,0.086 3.729,0.172 2.8,0.172 1.143,-0.085 0,0" /></g><g
         transform="translate(340.1033,395.297)"
         id="g188"><path
           inkscape:connector-curvature="0"
           id="path190"
           style="fill:#c39778;fill-opacity:1;fill-rule:nonzero;stroke:none"
           d="m 0,0 0,0 c 0,0 -11.979,3.903 -20.498,1.613 0,0 -3.172,-1.046 -6.458,-1.684 -1.998,-0.658 -4.42,-0.85 -6.765,-0.77 l -0.001,0 c -1.793,0.06 -3.495,0.253 -4.895,0.46 -0.465,0.06 -0.928,0.14 -1.404,0.226 -0.205,0.036 -0.359,0.063 -0.534,0.096 -0.288,0.057 -0.567,0.103 -0.85,0.165 -0.31,0.064 -0.494,0.107 -0.494,0.107 l 0.017,0.006 c -2.724,0.624 -5.062,1.394 -5.062,1.394 C -55.464,3.903 -67.442,0 -67.442,0 c -0.165,-0.063 -0.268,-0.106 -0.268,-0.106 0.93,0 2.587,-0.257 3.73,-0.172 3.396,0.142 6.87,-1.799 10.759,-2.248 1.801,-0.421 7.35,-1.627 14.383,-2.18 1.593,-0.277 3.259,-0.425 4.956,-0.315 l 0,-0.016 c 0.06,0 0.101,0.016 0.16,0.016 0.061,0 0.102,-0.016 0.161,-0.016 l 0,0.016 c 0.958,-0.062 1.905,-0.038 2.835,0.04 5.507,0.076 11.342,0.733 16.716,2.479 l 0,10e-4 c 3.804,0.492 7.212,2.362 10.548,2.223 1.143,-0.085 2.8,0.172 3.729,0.172 0,0 -0.103,0.043 -0.267,0.106" /></g><g
         transform="translate(225.5477,496.4342)"
         id="g192"><path
           inkscape:connector-curvature="0"
           id="path194"
           style="fill:#ffffff;fill-opacity:1;fill-rule:nonzero;stroke:none"
           d="m 0,0 c 0,0 10.462,-20.786 26.451,-22.918 15.989,-2.153 32.998,0.679 32.998,0.679 0,0 -2.551,19.561 -10.87,22.94 C 40.258,4.1 23.079,10.482 0,0" /></g><g
         transform="translate(271.2713,488.0944)"
         id="g196"><path
           inkscape:connector-curvature="0"
           id="path198"
           style="fill:#3c6b35;fill-opacity:1;fill-rule:nonzero;stroke:none"
           d="m 0,0 c -0.757,-8.154 -7.749,-14.289 -15.614,-13.701 -7.875,0.567 -13.63,7.649 -12.873,15.781 0.756,8.154 7.749,14.31 15.624,13.722 C -5.009,15.214 0.767,8.153 0,0" /></g><g
         transform="translate(256.5906,480.7814)"
         id="g200"><path
           inkscape:connector-curvature="0"
           id="path202"
           style="fill:#191e22;fill-opacity:1;fill-rule:nonzero;stroke:none"
           d="m 0,0 c -2.918,0.21 -5.9,3.53 -5.521,7.67 0.387,4.119 3.948,6.955 6.866,6.746 C 4.264,14.205 7.256,10.885 6.867,6.746 6.479,2.627 2.931,-0.21 0,0" /></g><g
         transform="translate(285.0154,474.2526)"
         id="g204"><path
           inkscape:connector-curvature="0"
           id="path206"
           style="fill:#bd9275;fill-opacity:1;fill-rule:nonzero;stroke:none"
           d="m 0,0 c 0,0 -0.359,-0.038 -1.17,-0.19 -0.632,7.382 -2.5,17.577 -7.688,19.672 -7.726,3.209 -25.037,7.911 -47.167,-2.907 -2.254,3.228 -3.433,5.664 -3.433,5.664 24.073,13.762 43.109,8.646 51.355,5.248 C 0.235,24.069 0,0 0,0" /></g><g
         transform="translate(385.9217,493.631)"
         id="g208"><path
           inkscape:connector-curvature="0"
           id="path210"
           style="fill:#ffffff;fill-opacity:1;fill-rule:nonzero;stroke:none"
           d="m 0,0 c 0,0 -10.111,-20.371 -26.073,-22.24 -15.961,-1.887 -33.018,1.152 -33.018,1.152 0,0 1.922,21.364 10.187,24.592 C -40.642,6.751 -24.679,9.48 0,0" /></g><g
         transform="translate(337.0906,486.1842)"
         id="g212"><path
           inkscape:connector-curvature="0"
           id="path214"
           style="fill:#3c6b35;fill-opacity:1;fill-rule:nonzero;stroke:none"
           d="m 0,0 c 0.789,-8.406 8.094,-14.727 16.297,-14.135 8.227,0.593 14.236,7.903 13.447,16.288 C 28.954,10.581 21.65,16.903 13.436,16.31 5.22,15.717 -0.812,8.408 0,0" /></g><g
         transform="translate(352.4227,478.6564)"
         id="g216"><path
           inkscape:connector-curvature="0"
           id="path218"
           style="fill:#191e22;fill-opacity:1;fill-rule:nonzero;stroke:none"
           d="M 0,0 C 3.05,0.22 6.164,3.622 5.77,7.902 5.363,12.161 1.646,15.079 -1.404,14.86 -4.453,14.641 -7.567,11.216 -7.173,6.958 -6.767,2.701 -3.049,-0.219 0,0" /></g><g
         transform="translate(326.8123,472.6188)"
         id="g220"><path
           inkscape:connector-curvature="0"
           id="path222"
           style="fill:#bd9275;fill-opacity:1;fill-rule:nonzero;stroke:none"
           d="m 0,0 c 0,0 0.359,-0.057 1.17,-0.227 0.51,7.307 2.207,17.331 7.377,19.313 7.68,3.059 24.904,7.457 47.205,-3.568 2.217,3.171 3.357,5.55 3.357,5.55 C 34.81,35.02 15.849,30.244 7.661,27.016 -0.622,23.768 0,0 0,0" /></g><g
         transform="translate(282.0154,424.9547)"
         id="g224"><path
           inkscape:connector-curvature="0"
           id="path226"
           style="fill:#bd9275;fill-opacity:1;fill-rule:nonzero;stroke:none"
           d="M 0,0 C -0.48,6.704 18.014,2.45 24.11,2.24 28.928,2.072 43.586,4.353 44.845,3.765 53.468,-0.209 35.711,-8.214 23.804,-8.214 20.632,-8.214 0.287,-4.043 0,0" /></g><g
         transform="translate(420.4373,500.8361)"
         id="g228"><path
           inkscape:connector-curvature="0"
           id="path230"
           style="fill:#131110;fill-opacity:1;fill-rule:nonzero;stroke:none"
           d="m 0,0 c -2.401,-2.351 -5.108,-5.346 -6.925,-10.251 -3.767,-9.886 -5.192,-8.18 -5.192,-8.18 0,0 5.923,38.721 5.923,49.497 0,10.684 -33.698,90.356 -52.502,96.755 -18.847,6.322 -35.759,-15.105 -55.963,-15.105 l -1.604,0 c -19.823,0.399 -37.405,21.342 -55.972,15.105 -18.779,-6.399 -52.467,-86.071 -52.467,-96.755 0,-10.776 5.906,-49.497 5.906,-49.497 0,0 -1.46,-1.706 -5.185,8.18 -2.147,5.796 -5.583,9.029 -8.299,11.379 -5.007,67.072 -2.139,165.854 115.873,165.854 l 0.628,0 C 2.877,166.982 5.168,67.071 0,0" /></g><g
         transform="translate(275.9959,517.4494)"
         id="g232"><path
           inkscape:connector-curvature="0"
           id="path234"
           style="fill:#6c5a46;fill-opacity:1;fill-rule:nonzero;stroke:none"
           d="m 0,0 c -0.092,0.143 -2.312,3.528 -6.849,7.018 -2.842,2.188 -5.629,3.853 -8.519,5.092 -3.513,1.482 -7.297,2.529 -10.962,3.032 -3.315,0.369 -6.988,0.271 -11.275,-0.308 -3.272,-0.625 -6.463,-1.601 -9.173,-2.799 -1.932,-0.667 -3.457,-1.605 -4.683,-2.359 -0.47,-0.289 -0.894,-0.55 -1.326,-0.783 l -5.843,-3.685 6.734,1.587 c 0.313,0.08 0.653,0.169 1.017,0.266 1.393,0.371 3.127,0.832 5.159,1.131 0.477,0.07 0.96,0.166 1.454,0.265 0.847,0.169 1.723,0.344 2.641,0.388 1.02,0.068 2.077,0.144 3.164,0.222 l 1.414,0.102 c 3.73,0.047 6.879,-0.236 9.677,-0.882 3.058,-0.53 6.203,-1.519 9.085,-2.859 2.722,-1.307 5.331,-2.602 7.367,-4.102 4.113,-2.753 6.402,-5.05 6.424,-5.072 l 0,-10e-4 c 0.565,-0.57 1.32,-0.865 2.08,-0.865 0.553,0 1.107,0.156 1.593,0.477 1.354,0.89 1.735,2.723 0.873,4.046 L 0,0 Z" /></g><g
         transform="translate(384.868,525.5988)"
         id="g236"><path
           inkscape:connector-curvature="0"
           id="path238"
           style="fill:#6c5a46;fill-opacity:1;fill-rule:nonzero;stroke:none"
           d="m 0,0 c -0.386,0.206 -0.812,0.468 -1.282,0.757 -1.226,0.753 -2.751,1.69 -4.625,2.335 -2.766,1.22 -5.957,2.197 -9.27,2.828 -4.249,0.573 -7.924,0.672 -11.253,0.299 -3.646,-0.501 -7.43,-1.548 -10.948,-3.03 -2.85,-1.223 -5.715,-2.936 -8.516,-5.091 -4.456,-3.427 -6.67,-6.752 -6.837,-7.008 l -0.042,-0.061 c -0.752,-1.161 -0.59,-2.716 0.382,-3.696 0.553,-0.56 1.289,-0.867 2.072,-0.867 l 0.002,0 c 0.783,0.001 1.517,0.309 2.069,0.868 l 0.024,0.024 c 0.217,0.216 2.439,2.395 6.427,5.067 2.005,1.477 4.616,2.775 7.33,4.079 2.894,1.343 6.038,2.333 9.135,2.871 2.759,0.638 5.913,0.916 9.594,0.876 l 1.484,-0.106 c 1.078,-0.077 2.126,-0.152 3.152,-0.221 0.905,-0.043 1.78,-0.218 2.627,-0.387 0.494,-0.099 0.977,-0.196 1.453,-0.266 2.033,-0.298 3.766,-0.76 5.16,-1.13 0.364,-0.097 0.703,-0.187 1.027,-0.268 L 5.895,-3.714 0,0 Z" /></g><g
         transform="translate(297.8475,538.8932)"
         id="g240"><path
           inkscape:connector-curvature="0"
           id="path242"
           style="fill:none;stroke:#c6a78d;stroke-width:1;stroke-linecap:butt;stroke-linejoin:miter;stroke-miterlimit:10;stroke-dasharray:none;stroke-opacity:1"
           d="M 0,0 0,-16.463" /></g><g
         transform="translate(305.3475,543.9709)"
         id="g244"><path
           inkscape:connector-curvature="0"
           id="path246"
           style="fill:none;stroke:#c6a78d;stroke-width:1;stroke-linecap:butt;stroke-linejoin:miter;stroke-miterlimit:10;stroke-dasharray:none;stroke-opacity:1"
           d="M 0,0 0,-26.618" /></g><g
         transform="translate(312.8475,538.8932)"
         id="g248"><path
           inkscape:connector-curvature="0"
           id="path250"
           style="fill:none;stroke:#c6a78d;stroke-width:1;stroke-linecap:butt;stroke-linejoin:miter;stroke-miterlimit:10;stroke-dasharray:none;stroke-opacity:1"
           d="M 0,0 0,-16.463" /></g></g></g></svg>