<?xml version="1.0" encoding="UTF-8" standalone="no"?>
<!-- Created with Inkscape (http://www.inkscape.org/) -->

<svg
   xmlns:dc="http://purl.org/dc/elements/1.1/"
   xmlns:cc="http://creativecommons.org/ns#"
   xmlns:rdf="http://www.w3.org/1999/02/22-rdf-syntax-ns#"
   xmlns:svg="http://www.w3.org/2000/svg"
   xmlns="http://www.w3.org/2000/svg"
   xmlns:sodipodi="http://sodipodi.sourceforge.net/DTD/sodipodi-0.dtd"
   xmlns:inkscape="http://www.inkscape.org/namespaces/inkscape"
   id="svg2"
   version="1.1"
   inkscape:version="0.91 r13725"
   xml:space="preserve"
   width="400"
   height="600"
   viewBox="0 0 400 600"
   sodipodi:docname="lola.svg"
   inkscape:export-filename="/home/alec/Projects/Brookings/out-of-work/data/avatars/lola.png"
   inkscape:export-xdpi="90"
   inkscape:export-ydpi="90"><metadata
     id="metadata8"><rdf:RDF><cc:Work
         rdf:about=""><dc:format>image/svg+xml</dc:format><dc:type
           rdf:resource="http://purl.org/dc/dcmitype/StillImage" /><dc:title></dc:title></cc:Work></rdf:RDF></metadata><defs
     id="defs6"><clipPath
       clipPathUnits="userSpaceOnUse"
       id="clipPath16"><path
         d="M 0,792 612,792 612,0 0,0 0,792 Z"
         id="path18"
         inkscape:connector-curvature="0" /></clipPath><clipPath
       clipPathUnits="userSpaceOnUse"
       id="clipPath40"><path
         d="M 0,792 612,792 612,0 0,0 0,792 Z"
         id="path42"
         inkscape:connector-curvature="0" /></clipPath><clipPath
       clipPathUnits="userSpaceOnUse"
       id="clipPath56"><path
         d="m 272.932,353.159 62.031,0 0,36.716 -62.031,0 0,-36.716 z"
         id="path58"
         inkscape:connector-curvature="0" /></clipPath><clipPath
       clipPathUnits="userSpaceOnUse"
       id="clipPath68"><path
         d="M 0,792 612,792 612,0 0,0 0,792 Z"
         id="path70"
         inkscape:connector-curvature="0" /></clipPath></defs><sodipodi:namedview
     pagecolor="#ffffff"
     bordercolor="#666666"
     borderopacity="1"
     objecttolerance="10"
     gridtolerance="10"
     guidetolerance="10"
     inkscape:pageopacity="0"
     inkscape:pageshadow="2"
     inkscape:window-width="1683"
     inkscape:window-height="837"
     id="namedview4"
     showgrid="false"
     inkscape:zoom="0.47676768"
     inkscape:cx="166.15103"
     inkscape:cy="436.0286"
     inkscape:window-x="59"
     inkscape:window-y="30"
     inkscape:window-maximized="0"
     inkscape:current-layer="g10" /><g
     id="g10"
     inkscape:groupmode="layer"
     inkscape:label="AvatarsR2"
     transform="matrix(1.25,0,0,-1.25,0,600)"><text
       transform="scale(1,-1)"
       style="font-variant:normal;font-weight:300;font-stretch:normal;font-size:13px;font-family:Interstate-Light;-inkscape-font-specification:Interstate-Light;writing-mode:lr-tb;fill:#231f20;fill-opacity:1;fill-rule:nonzero;stroke:none"
       id="text28"
       x="173.6152"
       y="107.36504"><tspan
         x="173.6152 182.1692 185.43221 191.98419 199.0042 204.03391 209.9749 216.6712 219.7912 223.1712 226.4342 233.32289 239.2652 245.07491 249.26089 256.28091 263.54791 270.91891 277.1329 284.13989 288.71591 295.7359 303.0029 306.12289 309.5029 316.50989 323.88089 331.14789 334.52789 341.2879 347.93091 354.9509 358.2139 365.5849 372.8519 376.2319 381.19791 388.11389 392.94989 396.21289 401.17889 408.19888 419.2229 426.24289 433.54889"
         y="107.36504"
         sodipodi:role="line"
         id="tspan30">Diverse, less-educated, and eyeing retirement</tspan></text>
<text
       transform="scale(1,-1)"
       style="font-variant:normal;font-weight:normal;font-stretch:normal;font-size:34px;font-family:'Myriad Pro';-inkscape-font-specification:MyriadPro-Regular;writing-mode:lr-tb;fill:#231f20;fill-opacity:1;fill-rule:nonzero;stroke:none"
       id="text32"
       x="276.6748"
       y="144.36504"><tspan
         x="276.6748 292.2468 310.91281 318.9368 335.3248"
         y="144.36504"
         sodipodi:role="line"
         id="tspan34">Lola </tspan></text>
<g
       id="g4404"
       transform="matrix(0.88186207,0,0,0.88186207,-102.16595,-166.8625)"><g
         id="g14"
         clip-path="url(#clipPath16)"><g
           id="g20"
           transform="translate(402.3569,443.0001)"><path
             d="m 0,0 c 0,-44.674 -44.956,-80.886 -100.413,-80.886 -55.457,0 -100.414,36.212 -100.414,80.886 0,44.674 44.957,80.887 100.414,80.887 C -44.956,80.887 0,44.674 0,0"
             style="fill:#979797;fill-opacity:1;fill-rule:nonzero;stroke:none"
             id="path22"
             inkscape:connector-curvature="0" /></g><g
           id="g24"
           transform="translate(291.7397,464.5977)"><path
             d="m 0,0 c -0.244,5 9.156,1.827 12.256,1.67 2.449,-0.125 9.9,1.576 10.54,1.138 C 27.179,-0.156 18.152,-6.128 12.1,-6.128 10.487,-6.128 0.146,-3.017 0,0"
             style="fill:#bd9275;fill-opacity:1;fill-rule:nonzero;stroke:none"
             id="path26"
             inkscape:connector-curvature="0" /></g></g><g
         id="g38"
         clip-path="url(#clipPath40)"><g
           id="g44"
           transform="translate(303.8393,427.5235)"><path
             d="m 0,0 0,-206.255 -111.979,0 c -1.82,0.837 -2.865,1.165 -2.865,1.165 0,85.076 40.549,109.64 59.322,116.441 5.635,2.088 9.338,2.529 9.338,2.529 6.844,0 11.151,8.752 14.146,22.121 0.44,2.037 0.838,4.16 1.165,6.431 0.639,3.762 1.097,7.81 1.58,11.962 0.138,2.529 0.448,5.048 0.69,7.647 1.044,12.722 1.347,26.48 1.347,39.47 C -27.256,1.511 -12.187,0 0,0"
             style="fill:#ddb66c;fill-opacity:1;fill-rule:nonzero;stroke:none"
             id="path46"
             inkscape:connector-curvature="0" /></g><g
           id="g48"
           transform="translate(418.9594,222.4337)"><path
             d="m 0,0 c 0,0 -1.026,-0.328 -2.675,-1.165 l -112.445,0 0,206.255 0.224,0 c 12.179,0 27.343,1.511 27.343,1.511 0,-12.991 0.225,-26.593 1.313,-39.194 0.155,-2.511 0.492,-4.998 0.724,-7.354 0.475,-4.41 0.829,-8.528 1.477,-12.368 l 0,-0.078 c 0.319,-1.717 0.56,-3.288 0.958,-4.877 2.899,-14.163 7.448,-23.76 14.534,-23.76 0,0 5.791,-0.682 14.111,-4.402 C -34.325,105.367 0,78.317 0,0"
             style="fill:#e6c16f;fill-opacity:1;fill-rule:nonzero;stroke:none"
             id="path50"
             inkscape:connector-curvature="0" /></g></g><g
         id="g54"
         clip-path="url(#clipPath56)"><g
           id="g60"
           transform="translate(334.9633,370.1622)"><path
             d="m 0,0 0,-0.087 c -2.754,-4.401 -12.239,-16.916 -31.003,-16.916 l -0.155,0 c -17.815,0.086 -28.197,13.084 -30.856,16.839 0.613,3.763 1.157,7.802 1.554,11.962 0.224,2.52 0.457,5.041 0.707,7.604 8.709,-2.167 18.143,-3.521 28.275,-3.676 l 0.32,0 c 10.374,0.155 19.929,1.553 28.905,3.987 0.207,-2.478 0.466,-4.997 0.691,-7.432 C -1.088,7.914 -0.622,3.832 0,0"
             style="fill:#c29a5b;fill-opacity:1;fill-rule:nonzero;stroke:none"
             id="path62"
             inkscape:connector-curvature="0" /></g></g><g
         id="g66"
         clip-path="url(#clipPath68)"><g
           id="g72"
           transform="translate(301.7426,664.1417)"><path
             d="m 0,0 c -118.616,0 -119.289,-99.402 -114.016,-164.489 -8.13,15.389 -32.193,10.634 -30.234,-13.646 1.907,-23.398 35.896,-35.516 35.422,-32.798 9.753,-53.554 65.56,-84.488 108.828,-84.488 0.302,0 0.621,0.043 0.897,0.043 L 0.897,0 0,0"
             style="fill:#ddb66c;fill-opacity:1;fill-rule:nonzero;stroke:none"
             id="path74"
             inkscape:connector-curvature="0" /></g><g
           id="g76"
           transform="translate(165.0795,496.2862)"><path
             d="m 0,0 c 5.869,9.356 14.896,5.317 17.132,3.237 2.365,-2.227 4.238,-5.196 2.754,-10.755 -0.794,-3.115 -4.092,-3.366 -3.281,-8.121 0.881,-5.317 3.341,-5.679 4.739,-6.887 1.389,-1.201 3.15,-2.116 4.013,-4.394 0.837,-2.244 0.976,-4.643 0.536,-6.681 -0.932,-3.84 -6.526,-0.802 -10.246,0.915 -2.467,1.123 -10.296,7.76 -12.281,9.969 C -1.605,-17.089 -3.919,-6.283 0,0"
             style="fill:#bd9275;fill-opacity:1;fill-rule:nonzero;stroke:none"
             id="path78"
             inkscape:connector-curvature="0" /></g><g
           id="g80"
           transform="translate(302.3207,664.1417)"><path
             d="m 0,0 c 118.615,0 119.298,-99.402 114.023,-164.489 8.131,15.389 32.229,10.634 30.218,-13.646 -1.882,-23.398 -35.887,-35.516 -35.422,-32.798 C 99.101,-264.487 43.302,-295.421 0,-295.421 c -0.276,0 -0.587,0.043 -0.897,0.043 L -0.897,0 0,0"
             style="fill:#e6c16f;fill-opacity:1;fill-rule:nonzero;stroke:none"
             id="path82"
             inkscape:connector-curvature="0" /></g><g
           id="g84"
           transform="translate(439.018,496.2862)"><path
             d="m 0,0 c -5.878,9.356 -14.923,5.317 -17.167,3.237 -2.33,-2.227 -4.203,-5.196 -2.77,-10.755 0.836,-3.115 4.117,-3.366 3.323,-8.121 -0.89,-5.317 -3.332,-5.679 -4.756,-6.887 -1.381,-1.201 -3.116,-2.116 -3.987,-4.394 -0.846,-2.244 -1.01,-4.643 -0.527,-6.681 0.889,-3.84 6.464,-0.802 10.228,0.915 2.468,1.123 10.279,7.76 12.256,9.969 C 1.588,-17.089 3.901,-6.283 0,0"
             style="fill:#bd9275;fill-opacity:1;fill-rule:nonzero;stroke:none"
             id="path86"
             inkscape:connector-curvature="0" /></g><g
           id="g88"
           transform="translate(303.0805,636.126)"><path
             d="m 0,0 c -39.029,0 -67.581,-11.358 -84.878,-33.756 -24.158,-31.287 -23.243,-79.077 -14.327,-113.402 2.727,-10.488 4.126,-38.763 6.007,-49.119 8.407,-46.444 59.528,-71.128 93.198,-71.128 0.275,0 0.604,0.043 0.906,0.043 l 0,267.327 C 0.604,-0.035 0.302,0 0,0"
             style="fill:#ddb66c;fill-opacity:1;fill-rule:nonzero;stroke:none"
             id="path90"
             inkscape:connector-curvature="0" /></g><g
           id="g92"
           transform="translate(387.7934,602.3272)"><path
             d="m 0,0 c -17.167,22.25 -45.408,33.565 -83.807,33.764 l 0,-267.327 c 38.452,0.388 84.376,27.48 92.291,71.084 1.865,10.357 3.271,38.632 5.998,49.12 C 23.364,-79.155 24.219,-31.4 0,0"
             style="fill:#e6c16f;fill-opacity:1;fill-rule:nonzero;stroke:none"
             id="path94"
             inkscape:connector-curvature="0" /></g><g
           id="g96"
           transform="translate(268.0639,627.3995)"><path
             d="m 0,0 -0.475,-0.5 0.043,-0.121 C -0.293,-0.414 -0.146,-0.181 0,0"
             style="fill:#342318;fill-opacity:1;fill-rule:nonzero;stroke:none"
             id="path98"
             inkscape:connector-curvature="0" /></g><g
           id="g100"
           transform="translate(194.2778,535.5401)"><path
             d="M 0,0 Z"
             style="fill:#342318;fill-opacity:1;fill-rule:nonzero;stroke:none"
             id="path102"
             inkscape:connector-curvature="0" /></g><g
           id="g104"
           transform="translate(358.4565,277.4131)"><path
             d="m 0,0 c 0.492,-6.672 -20.36,-37.044 -35.62,-56.446 l -37.977,0 c -15.302,19.367 -36.103,49.774 -35.706,56.532 0.406,5.844 -0.086,60.884 3.703,65.535 2.598,3.211 0,0 0,0 0,0 32.151,-55.886 50.957,-55.454 18.6,0.44 47.773,57.103 47.773,57.103 0,0 3.53,-2.796 5.8,-5.023 C -0.285,61.418 -6.836,16.434 -6.085,15.604 -2.184,10.909 -0.414,6.007 0,0"
             style="fill:#e4e4e3;fill-opacity:1;fill-rule:nonzero;stroke:none"
             id="path106"
             inkscape:connector-curvature="0" /></g><g
           id="g108"
           transform="translate(284.4116,221.0528)"><path
             d="m 0,0 -96.132,0 c -1.769,0.699 -2.754,1.191 -2.754,1.191 0,6.223 0.242,12.162 0.639,17.849 0.51,7.612 1.373,14.621 2.606,21.215 1.347,7.742 3.203,14.914 5.222,21.293 0.492,1.354 0.993,2.676 1.477,3.953 2.347,6.421 5.023,12.161 7.862,17.27 4.117,7.285 8.64,13.257 13.326,18.203 0.95,1.07 1.934,2.097 2.927,3.082 13.731,13.187 27.644,17.563 33.565,19.031 -0.086,-0.398 -0.173,-0.726 -0.25,-1.062 -2.227,-10.055 -1.976,-22.743 -0.078,-35.922 0.078,-0.5 0.078,-0.993 0.155,-1.485 0.173,-1.07 0.294,-2.028 0.536,-3.133 0,-0.155 0,-0.449 0.087,-0.656 0.164,-0.992 0.405,-2.105 0.655,-3.167 1.605,-8.907 4.04,-17.798 7.034,-25.997 2.512,-6.793 6.707,-16.434 11.558,-27.066 0.828,-1.934 1.7,-3.703 2.511,-5.559 0.491,-0.992 0.907,-1.985 1.389,-2.935 1.209,-2.511 2.512,-5.118 3.634,-7.785 0.406,-0.82 0.82,-1.596 1.148,-2.433 0.121,-0.242 0.198,-0.415 0.284,-0.571 0.907,-1.768 1.727,-3.469 2.426,-5.1 C -0.087,0.173 0,0.086 0,0"
             style="fill:#61aaad;fill-opacity:1;fill-rule:nonzero;stroke:none"
             id="path110"
             inkscape:connector-curvature="0" /></g><g
           id="g112"
           transform="translate(323.2856,221.0528)"><path
             d="m 0,0 96.132,0 c 1.769,0.699 2.753,1.191 2.753,1.191 0,6.223 -0.241,12.162 -0.656,17.849 -0.449,7.612 -1.364,14.621 -2.589,21.215 -1.356,7.742 -3.202,14.914 -5.222,21.293 -0.501,1.354 -0.992,2.676 -1.476,3.953 -2.356,6.421 -5.023,12.161 -7.863,17.27 -4.108,7.285 -8.64,13.257 -13.326,18.203 -0.949,1.07 -1.942,2.097 -2.926,3.082 -13.749,13.187 -27.637,17.563 -33.566,19.031 0.078,-0.398 0.173,-0.726 0.251,-1.062 2.217,-10.055 1.967,-22.743 0.068,-35.922 -0.068,-0.5 -0.068,-0.993 -0.146,-1.485 -0.173,-1.07 -0.293,-2.028 -0.544,-3.133 0,-0.155 0,-0.449 -0.086,-0.656 C 30.64,79.837 30.398,78.724 30.147,77.662 28.551,68.755 26.117,59.864 23.122,51.665 20.61,44.872 16.407,35.231 11.557,24.599 10.736,22.665 9.865,20.896 9.045,19.04 8.553,18.048 8.147,17.055 7.689,16.105 6.447,13.594 5.187,10.987 4.021,8.32 3.659,7.5 3.245,6.724 2.917,5.887 2.753,5.645 2.676,5.472 2.589,5.316 1.691,3.548 0.897,1.847 0.164,0.216 0.077,0.173 0,0.086 0,0"
             style="fill:#6e8cb2;fill-opacity:1;fill-rule:nonzero;stroke:none"
             id="path114"
             inkscape:connector-curvature="0" /></g><g
           id="g116"
           transform="translate(331.2856,422.7852)"><path
             d="m 0,0 c 0,0 -12.422,-16.839 -27.739,-16.839 -15.311,0 -27.024,16.493 -27.024,16.493 0,0 11.713,2.538 27.024,2.538 C -12.422,2.192 0,0 0,0"
             style="fill:#c75469;fill-opacity:1;fill-rule:nonzero;stroke:none"
             id="path118"
             inkscape:connector-curvature="0" /></g><g
           id="g120"
           transform="translate(311.4096,430.5704)"><path
             d="M 0,0 C -4.32,0 -7.781,-3.436 -7.863,-7.647 -7.952,-3.436 -11.413,0 -15.706,0 c -4.341,0 -19.89,-7.785 -19.89,-7.785 0,0 15.161,-2.02 19.515,-2.02 4.293,0 8.129,-2.167 8.218,1.908 0.068,-4.109 3.188,-2.521 7.488,-2.521 4.367,0 20.251,2.633 20.251,2.633 C 19.876,-7.785 4.333,0 0,0"
             style="fill:#d85b6c;fill-opacity:1;fill-rule:nonzero;stroke:none"
             id="path122"
             inkscape:connector-curvature="0" /></g><g
           id="g124"
           transform="translate(229.9203,499.4561)"><path
             d="m 0,0 c 0,0 8.594,-10.48 22.332,-11.017 12.497,-0.487 28.803,-2.746 28.803,-2.746 0,0 -0.151,10.218 -7.314,12.292 C 36.656,0.613 19.127,4.546 0,0"
             style="fill:#ffffff;fill-opacity:1;fill-rule:nonzero;stroke:none"
             id="path126"
             inkscape:connector-curvature="0" /></g><g
           id="g128"
           transform="translate(266.2397,494.7559)"><path
             d="m 0,0 c -0.402,-4.271 -4.501,-7.447 -9.153,-7.095 -4.659,0.341 -8.099,4.085 -7.697,8.343 0.402,4.27 4.5,7.458 9.159,7.106 C -3.045,8.002 0.407,4.269 0,0"
             style="fill:#2d1e16;fill-opacity:1;fill-rule:nonzero;stroke:none"
             id="path130"
             inkscape:connector-curvature="0" /></g><g
           id="g132"
           transform="translate(257.603,491.004)"><path
             d="M 0,0 C -1.727,0.127 -3.508,1.883 -3.307,4.051 -3.101,6.208 -1.012,7.675 0.714,7.549 2.44,7.422 4.228,5.665 4.021,3.498 3.815,1.341 1.732,-0.126 0,0"
             style="fill:#191e22;fill-opacity:1;fill-rule:nonzero;stroke:none"
             id="path134"
             inkscape:connector-curvature="0" /></g><g
           id="g136"
           transform="translate(281.0698,485.7247)"><path
             d="m 0,0 c 0,0 -0.305,-0.012 -0.991,-0.075 -0.721,4.094 -2.563,9.773 -7.03,11.059 -8.109,2.395 -22.703,4.64 -40.06,-0.436 -1.999,1.84 -3.063,3.215 -3.063,3.215 20.143,7.007 36.467,3.708 43.568,1.626 C -0.397,13.293 0,0 0,0"
             style="fill:#623b23;fill-opacity:1;fill-rule:nonzero;stroke:none"
             id="path138"
             inkscape:connector-curvature="0" /></g><g
           id="g140"
           transform="translate(377.5551,498.2999)"><path
             d="m 0,0 c 0,0 -8.595,-10.48 -22.333,-11.017 -12.496,-0.487 -28.802,-2.745 -28.802,-2.745 0,0 0.151,10.218 7.313,12.291 C -36.657,0.613 -19.127,4.547 0,0"
             style="fill:#ffffff;fill-opacity:1;fill-rule:nonzero;stroke:none"
             id="path142"
             inkscape:connector-curvature="0" /></g><g
           id="g144"
           transform="translate(341.2358,493.5997)"><path
             d="m 0,0 c 0.401,-4.27 4.501,-7.446 9.153,-7.095 4.658,0.342 8.099,4.085 7.697,8.344 C 16.448,5.519 12.349,8.707 7.69,8.354 3.045,8.003 -0.408,4.27 0,0"
             style="fill:#2d1e16;fill-opacity:1;fill-rule:nonzero;stroke:none"
             id="path146"
             inkscape:connector-curvature="0" /></g><g
           id="g148"
           transform="translate(349.8725,489.8487)"><path
             d="M 0,0 C 1.726,0.126 3.507,1.883 3.307,4.051 3.1,6.207 1.011,7.675 -0.715,7.549 -2.441,7.422 -4.229,5.664 -4.021,3.497 -3.815,1.341 -1.733,-0.127 0,0"
             style="fill:#191e22;fill-opacity:1;fill-rule:nonzero;stroke:none"
             id="path150"
             inkscape:connector-curvature="0" /></g><g
           id="g152"
           transform="translate(326.4057,484.5694)"><path
             d="m 0,0 c 0,0 0.304,-0.012 0.99,-0.076 0.721,4.095 2.564,9.773 7.031,11.059 8.109,2.395 22.703,4.64 40.06,-0.435 1.998,1.839 3.062,3.215 3.062,3.215 C 31.001,20.769 14.677,17.47 7.576,15.388 0.396,13.293 0,0 0,0"
             style="fill:#623b23;fill-opacity:1;fill-rule:nonzero;stroke:none"
             id="path154"
             inkscape:connector-curvature="0" /></g><g
           id="g156"
           transform="translate(289.5649,508.3565)"><path
             d="m 0,0 c -0.087,0.135 -2.182,3.33 -6.465,6.624 -2.684,2.065 -5.314,3.638 -8.043,4.808 -3.316,1.398 -6.888,2.386 -10.347,2.861 -3.13,0.349 -6.597,0.257 -10.644,-0.29 -3.09,-0.59 -6.103,-1.512 -8.66,-2.643 -1.823,-0.63 -3.264,-1.514 -4.421,-2.226 -0.443,-0.273 -0.845,-0.52 -1.252,-0.739 l -5.516,-3.479 6.357,1.498 c 0.296,0.075 0.616,0.159 0.961,0.251 1.314,0.35 2.951,0.786 4.87,1.067 0.449,0.067 0.906,0.158 1.373,0.251 0.799,0.16 1.626,0.325 2.492,0.367 0.963,0.064 1.961,0.135 2.987,0.21 l 1.335,0.096 c 3.521,0.044 6.494,-0.223 9.136,-0.834 2.887,-0.5 5.855,-1.434 8.575,-2.698 2.57,-1.233 5.033,-2.457 6.955,-3.872 3.883,-2.6 6.044,-4.768 6.065,-4.789 l 0,-10e-4 c 0.533,-0.538 1.246,-0.816 1.963,-0.816 0.521,0 1.046,0.148 1.504,0.45 1.278,0.841 1.637,2.571 0.824,3.82 L 0,0 Z"
             style="fill:#231f20;fill-opacity:1;fill-rule:nonzero;stroke:none"
             id="path158"
             inkscape:connector-curvature="0" /></g><g
           id="g160"
           transform="translate(372.4653,516.4288)"><path
             d="M 0,0 C -0.364,0.193 -0.767,0.441 -1.211,0.714 -2.367,1.426 -3.808,2.31 -5.576,2.919 -8.188,4.071 -11.2,4.992 -14.327,5.588 -18.338,6.13 -21.808,6.223 -24.95,5.87 -28.393,5.397 -31.965,4.409 -35.286,3.01 -37.976,1.855 -40.68,0.239 -43.324,-1.796 -47.53,-5.03 -49.622,-8.17 -49.779,-8.412 l -0.039,-0.057 c -0.71,-1.096 -0.558,-2.564 0.36,-3.489 0.522,-0.528 1.218,-0.818 1.956,-0.818 l 0.002,0 c 0.739,0 1.432,0.291 1.953,0.819 l 0.023,0.023 c 0.205,0.204 2.302,2.26 6.067,4.784 1.893,1.393 4.357,2.619 6.92,3.849 2.731,1.269 5.7,2.202 8.623,2.71 2.604,0.603 5.583,0.865 9.057,0.828 l 1.401,-0.1 c 1.018,-0.074 2.007,-0.144 2.976,-0.209 0.853,-0.041 1.679,-0.206 2.48,-0.365 0.466,-0.094 0.922,-0.185 1.37,-0.25 1.92,-0.283 3.557,-0.718 4.872,-1.069 0.344,-0.091 0.664,-0.177 0.97,-0.253 L 5.564,-3.506 0,0 Z"
             style="fill:#231f20;fill-opacity:1;fill-rule:nonzero;stroke:none"
             id="path162"
             inkscape:connector-curvature="0" /></g><g
           id="g164"
           transform="translate(354.4604,464.7569)"><path
             d="m 0,0 c -13.913,-0.489 -30.128,7.412 -34.504,19.781 -4.705,13.222 0.439,18.931 38.223,27.599 21.856,4.991 37.826,3.044 40.592,-8.357 C 48.544,21.502 25.439,0.902 0,0 M -65.627,19.79 C -70.003,7.42 -86.243,-0.489 -100.156,0 c -25.389,0.919 -48.535,21.502 -44.293,39.04 2.748,11.4 18.727,13.331 40.566,8.34 37.81,-8.668 42.928,-14.377 38.256,-27.59 M 56.293,55.955 C 43.173,59.446 13.003,54.134 0.557,51.368 -12.15,48.543 -39.866,38.265 -45.002,36.232 c -2.15,-0.842 -3.769,-1.138 -5.042,-1.273 -1.29,0.118 -2.918,0.431 -5.11,1.315 -5.102,1.991 -32.86,12.287 -45.525,15.103 -12.446,2.757 -42.633,8.077 -55.736,4.595 -3.812,-1.012 -4.949,-4.174 -4.949,-4.174 0.455,-3.567 9.832,-56.385 62.102,-56.368 13.98,0 22.606,4.848 28.509,9.166 5.885,4.308 12.209,14.646 14.056,17.302 1.83,2.673 3.753,4.604 6.475,4.384 0.043,0 0.093,0.051 0.136,0.051 0.075,0 0.109,-0.051 0.177,-0.051 2.715,0.195 4.646,-1.72 6.468,-4.384 1.812,-2.656 8.17,-13.01 14.047,-17.32 5.885,-4.308 14.537,-9.148 28.517,-9.165 52.254,0 61.639,52.802 62.111,56.377 0,0 -1.164,3.17 -4.941,4.165"
             style="fill:#4f1c17;fill-opacity:1;fill-rule:nonzero;stroke:none"
             id="path166"
             inkscape:connector-curvature="0" /></g><g
           id="g168"
           transform="translate(292.2914,450.3497)"><path
             d="M 0,0 C -0.244,5 9.157,1.827 12.257,1.67 14.705,1.545 22.156,3.246 22.796,2.808 27.18,-0.156 18.152,-6.128 12.101,-6.128 10.488,-6.128 0.146,-3.017 0,0"
             style="fill:#bd9275;fill-opacity:1;fill-rule:nonzero;stroke:none"
             id="path170"
             inkscape:connector-curvature="0" /></g><g
           id="g172"
           transform="translate(296.767,539.3184)"><path
             d="M 0,0 0,-16.463"
             style="fill:none;stroke:#c29a5b;stroke-width:2.26792836;stroke-linecap:butt;stroke-linejoin:miter;stroke-miterlimit:10;stroke-dasharray:none;stroke-opacity:1"
             id="path174"
             inkscape:connector-curvature="0" /></g><g
           id="g176"
           transform="translate(304.267,544.3956)"><path
             d="M 0,0 0,-26.618"
             style="fill:none;stroke:#c29a5b;stroke-width:2.26792836;stroke-linecap:butt;stroke-linejoin:miter;stroke-miterlimit:10;stroke-dasharray:none;stroke-opacity:1"
             id="path178"
             inkscape:connector-curvature="0" /></g><g
           id="g180"
           transform="translate(311.767,539.3184)"><path
             d="M 0,0 0,-16.463"
             style="fill:none;stroke:#c29a5b;stroke-width:2.26792836;stroke-linecap:butt;stroke-linejoin:miter;stroke-miterlimit:10;stroke-dasharray:none;stroke-opacity:1"
             id="path182"
             inkscape:connector-curvature="0" /></g><g
           id="g184"
           transform="translate(345.8344,415.462)"><path
             d="M 0,0 C 6.729,16.295 -4.406,36.326 -24.895,44.785"
             style="fill:none;stroke:#c9a46a;stroke-width:2.26792836;stroke-linecap:butt;stroke-linejoin:miter;stroke-miterlimit:10;stroke-dasharray:none;stroke-opacity:1"
             id="path186"
             inkscape:connector-curvature="0" /></g><g
           id="g188"
           transform="translate(262.6362,415.462)"><path
             d="M 0,0 C -6.729,16.295 4.406,36.326 24.895,44.785"
             style="fill:none;stroke:#c9a46a;stroke-width:2.26792836;stroke-linecap:butt;stroke-linejoin:miter;stroke-miterlimit:10;stroke-dasharray:none;stroke-opacity:1"
             id="path190"
             inkscape:connector-curvature="0" /></g><g
           id="g192"
           transform="translate(433.6528,621.5118)"><path
             d="m 0,0 c -13.516,59.105 -104.071,67.79 -104.071,67.79 0,0 -17.635,12.728 -42.387,12.462 -23.065,-0.266 -60.682,-5.584 -92.26,-47.903 -125.509,-168.359 15.443,-263.154 15.443,-263.154 l 30.027,-18.679 c 0,0 -22.02,46.275 -22.439,73.04 -1.328,88.937 53.512,140.428 87.763,163.853 15.468,10.578 26.739,15.434 26.739,15.434 0,0 -2.664,-40.383 20.942,-57.393 23.57,-17.044 37.307,-33.659 42.507,-54.138 5.164,-20.418 8.513,-30.884 3.888,-60.39 -4.574,-29.488 -22.406,-77.546 -22.406,-77.546 l 25.866,19.279 c 0,0 33.891,30.449 46.824,120.559 C 22.328,-65.641 10.74,-46.765 0,0"
             style="fill:#979797;fill-opacity:1;fill-rule:nonzero;stroke:none"
             id="path194"
             inkscape:connector-curvature="0" /></g><g
           id="g196"
           transform="translate(240.4047,372.0274)"><path
             d="m 0,0 c 0,0 -86.444,150.235 92.063,252.327 0,0 -93.15,-5.01 -131.915,-91.42 C -39.852,160.907 -88.585,60.81 0,0"
             style="fill:#ffffff;fill-opacity:1;fill-rule:nonzero;stroke:none"
             id="path198"
             inkscape:connector-curvature="0" /></g></g></g></g></svg>