<?xml version="1.0" encoding="UTF-8" standalone="no"?>
<!-- Created with Inkscape (http://www.inkscape.org/) -->

<svg
   xmlns:dc="http://purl.org/dc/elements/1.1/"
   xmlns:cc="http://creativecommons.org/ns#"
   xmlns:rdf="http://www.w3.org/1999/02/22-rdf-syntax-ns#"
   xmlns:svg="http://www.w3.org/2000/svg"
   xmlns="http://www.w3.org/2000/svg"
   xmlns:sodipodi="http://sodipodi.sourceforge.net/DTD/sodipodi-0.dtd"
   xmlns:inkscape="http://www.inkscape.org/namespaces/inkscape"
   id="svg2"
   version="1.1"
   inkscape:version="0.91 r13725"
   xml:space="preserve"
   width="400"
   height="600"
   viewBox="0 0 400 600"
   sodipodi:docname="moira.svg"
   inkscape:export-filename="/home/alec/Projects/Brookings/out-of-work/data/avatars/moira.png"
   inkscape:export-xdpi="90"
   inkscape:export-ydpi="90"><metadata
     id="metadata8"><rdf:RDF><cc:Work
         rdf:about=""><dc:format>image/svg+xml</dc:format><dc:type
           rdf:resource="http://purl.org/dc/dcmitype/StillImage" /><dc:title /></cc:Work></rdf:RDF></metadata><defs
     id="defs6"><clipPath
       clipPathUnits="userSpaceOnUse"
       id="clipPath16"><path
         d="M 0,792 612,792 612,0 0,0 0,792 Z"
         id="path18"
         inkscape:connector-curvature="0" /></clipPath><clipPath
       clipPathUnits="userSpaceOnUse"
       id="clipPath36"><path
         d="M 0,792 612,792 612,0 0,0 0,792 Z"
         id="path38"
         inkscape:connector-curvature="0" /></clipPath><clipPath
       clipPathUnits="userSpaceOnUse"
       id="clipPath56"><path
         d="m 278.753,387.273 60.221,0 0,-35.592 -60.221,0 0,35.592 z"
         id="path58"
         inkscape:connector-curvature="0" /></clipPath></defs><sodipodi:namedview
     pagecolor="#ffffff"
     bordercolor="#666666"
     borderopacity="1"
     objecttolerance="10"
     gridtolerance="10"
     guidetolerance="10"
     inkscape:pageopacity="0"
     inkscape:pageshadow="2"
     inkscape:window-width="1842"
     inkscape:window-height="813"
     id="namedview4"
     showgrid="false"
     inkscape:zoom="0.47676768"
     inkscape:cx="121.05826"
     inkscape:cy="528.24001"
     inkscape:window-x="72"
     inkscape:window-y="37"
     inkscape:window-maximized="0"
     inkscape:current-layer="g10" /><g
     id="g10"
     inkscape:groupmode="layer"
     inkscape:label="AvatarsR2"
     transform="matrix(1.25,0,0,-1.25,0,600)"><g
       id="g12"><g
         id="g14"
         clip-path="url(#clipPath16)"><text
           transform="matrix(1,0,0,-1,-573.5088,187.958)"
           style="font-variant:normal;font-weight:300;font-stretch:normal;font-size:13px;font-family:Interstate-Light;-inkscape-font-specification:Interstate-Light;writing-mode:lr-tb;fill:#231f20;fill-opacity:1;fill-rule:nonzero;stroke:none"
           id="text20"><tspan
             x="0 8.9440002 12.207 19.474001 26.844999 30.108 37.011002 40.390999 47.410999 54.678001 62.049 68.263 75.269997 79.846001 86.865997 94.133003 97.252998 100.633 108.004 111.267 118.534 125.905 130.091 133.354 140.72501 146.939 154.297 165.321 172.341 175.72099 183.07899 186.342 193.60899 200.629 205.92 209.3 216.567 221.858 225.121 236.145 243.16499 247.15601 254.16299 261.42999 268.45001 271.82999 279.09698 286.117 293.47501 300.742 304.005"
             y="0"
             sodipodi:role="line"
             id="tspan22">Highly educated, high-income older prime-age people</tspan></text>
<text
           transform="matrix(1,0,0,-1,-476.2402,150.958)"
           style="font-variant:normal;font-weight:normal;font-stretch:normal;font-size:34px;font-family:'Myriad Pro';-inkscape-font-specification:MyriadPro-Regular;writing-mode:lr-tb;fill:#231f20;fill-opacity:1;fill-rule:nonzero;stroke:none"
           id="text24"><tspan
             x="0 15.572 32.605999 51.271999 70.141998 86.529999 97.307999 116.484"
             y="0"
             sodipodi:role="line"
             id="tspan26">Leonard </tspan></text>
</g></g><text
       transform="scale(1,-1)"
       style="font-variant:normal;font-weight:300;font-stretch:normal;font-size:13px;font-family:Interstate-Light;-inkscape-font-specification:Interstate-Light;writing-mode:lr-tb;fill:#231f20;fill-opacity:1;fill-rule:nonzero;stroke:none"
       id="text28"
       x="137.06747"
       y="30.177593"><tspan
         x="137.06747 146.01147 149.27448 156.54147 163.91248 167.17548 174.07848 177.45847 184.47847 191.74547 199.11647 205.33047 212.33746 216.91347 223.93347 231.20047 234.32047 237.70047 245.07147 248.33447 255.60147 262.97247 267.15848 270.42148 277.79248 284.00647 291.36447 302.38846 309.40848 312.78845 320.14645 323.40945 330.67645 337.69647 342.98746 346.36746 353.63446 358.92548 362.18848 373.21246 380.23245 384.22348 391.23047 398.49747 405.51749 408.89746 416.16446 423.18448 430.54248 437.80948 441.07248"
         y="30.177593"
         sodipodi:role="line"
         id="tspan30">Highly educated, high-income older prime-age people</tspan></text>
<text
       transform="scale(1,-1)"
       style="font-variant:normal;font-weight:normal;font-stretch:normal;font-size:34px;font-family:'Myriad Pro';-inkscape-font-specification:MyriadPro-Regular;writing-mode:lr-tb;fill:#231f20;fill-opacity:1;fill-rule:nonzero;stroke:none"
       id="text40"
       x="251.82829"
       y="67.177597"><tspan
         x="251.82829 279.36826 298.03427 305.99026 316.93826 333.32626"
         y="67.177597"
         sodipodi:role="line"
         id="tspan42">Moira </tspan></text>
<g
       id="g4387"
       transform="matrix(0.95332157,0,0,0.95332157,-131.90855,-184.64629)"><g
         transform="translate(312.0457,423.7873)"
         id="g44"><path
           inkscape:connector-curvature="0"
           id="path46"
           style="fill:#e4c19d;fill-opacity:1;fill-rule:nonzero;stroke:none"
           d="m 0,0 0,-199.97 -112.049,0 c -1.759,0.835 -2.673,1.153 -2.673,1.153 0,29.729 5.116,51.908 12.505,68.296 12.196,27.063 30.572,38.654 42.474,43.539 6.849,2.895 11.582,3.436 11.582,3.436 l 0.533,0 c 0.462,0.064 0.995,0.144 1.448,0.302 5.482,1.599 9.22,9.602 11.742,21.193 0.461,2.053 0.843,4.042 1.146,6.245 0.604,3.667 1.138,7.557 1.511,11.662 0.239,2.363 0.462,4.806 0.7,7.327 0.995,12.347 1.297,25.688 1.297,38.257 C -29.784,1.44 -11.806,0 0,0" /></g><g
         transform="translate(420.4754,224.9704)"
         id="g48"><path
           inkscape:connector-curvature="0"
           id="path50"
           style="fill:#f1cd9f;fill-opacity:1;fill-rule:nonzero;stroke:none"
           d="m 0,0 c 0,0 -0.994,-0.318 -2.585,-1.153 l -109.178,0 0,199.97 0.231,0 c 11.813,0 26.531,1.44 26.531,1.44 0,-12.57 0.294,-25.759 1.288,-37.955 0.232,-2.442 0.462,-4.876 0.685,-7.239 0.469,-4.2 0.93,-8.162 1.527,-11.821 l 0,-0.159 c 0.23,-1.663 0.541,-3.19 0.852,-4.718 2.283,-11.217 5.631,-19.442 10.516,-22.187 0.374,-0.151 0.748,-0.382 1.146,-0.461 0.756,-0.302 1.591,-0.446 2.434,-0.446 0,0 33.611,-4.049 53.053,-44.835 C -5.568,53.809 0,31.104 0,0" /></g><g
         id="g52"><g
           id="g54" /><g
           id="g60"><g
             style="opacity:0.69999701"
             id="g62"
             clip-path="url(#clipPath56)"><g
               id="g64"
               transform="translate(338.9744,368.1486)"><path
                 inkscape:connector-curvature="0"
                 id="path66"
                 style="fill:#bd9275;fill-opacity:1;fill-rule:nonzero;stroke:none"
                 d="m 0,0 0,-0.08 c -2.673,-4.264 -11.893,-16.387 -30.118,-16.387 l -0.144,0 c -17.302,0.063 -27.366,12.656 -29.959,16.316 0.605,3.659 1.138,7.549 1.511,11.583 0.231,2.442 0.462,4.892 0.7,7.398 8.441,-2.14 17.606,-3.429 27.438,-3.588 l 0.31,0 c 10.064,0.159 19.356,1.528 28.05,3.882 C -1.98,16.69 -1.75,14.248 -1.527,11.893 -1.058,7.692 -0.62,3.739 0,0" /></g></g></g></g><g
         transform="translate(308.617,638.7057)"
         id="g68"><path
           inkscape:connector-curvature="0"
           id="path70"
           style="fill:#e4c19d;fill-opacity:1;fill-rule:nonzero;stroke:none"
           d="m 0,0 c -113.457,0.207 -114.117,-90.968 -109.065,-150.425 -7.797,13.953 -30.788,8.774 -28.902,-13.564 1.806,-21.391 34.319,-31.089 33.873,-28.742 9.276,-48.432 62.767,-75.344 104.094,-79.171 0.287,-0.008 0.604,0 0.884,-0.024 l 0,271.902 C 0.581,-0.024 0.287,0 0,0" /></g><g
         transform="translate(176.3377,484.1598)"
         id="g72"><path
           inkscape:connector-curvature="0"
           id="path74"
           style="fill:#bd9275;fill-opacity:1;fill-rule:nonzero;stroke:none"
           d="m 0,0 c 5.696,8.631 14.471,4.908 16.643,3.007 2.283,-2.069 4.096,-4.813 2.688,-9.928 -0.811,-2.872 -3.977,-3.087 -3.206,-7.454 0.852,-4.917 3.254,-5.227 4.606,-6.341 1.336,-1.097 3.04,-1.965 3.882,-4.041 0.82,-2.068 0.971,-4.272 0.501,-6.157 -0.875,-3.54 -6.292,-0.732 -9.927,0.835 -2.379,1.042 -9.993,7.128 -11.91,9.204 C -1.56,-15.704 -3.795,-5.744 0,0" /></g><g
         transform="translate(309.1902,638.7057)"
         id="g76"><path
           inkscape:connector-curvature="0"
           id="path78"
           style="fill:#f1cd9f;fill-opacity:1;fill-rule:nonzero;stroke:none"
           d="m 0,0 c 113.457,0.207 114.117,-90.968 109.066,-150.425 7.788,13.953 30.803,8.774 28.917,-13.564 -1.813,-21.391 -34.327,-31.089 -33.881,-28.742 C 94.811,-241.163 41.343,-268.075 0,-271.902 c -0.286,-0.008 -0.597,0 -0.859,-0.024 l 0,271.902 C -0.581,-0.024 -0.286,0 0,0" /></g><g
         transform="translate(442.2654,484.1598)"
         id="g80"><path
           inkscape:connector-curvature="0"
           id="path82"
           style="fill:#bd9275;fill-opacity:1;fill-rule:nonzero;stroke:none"
           d="m 0,0 c -5.681,8.631 -14.463,4.908 -16.627,3.007 -2.283,-2.069 -4.081,-4.813 -2.688,-9.928 0.803,-2.872 3.993,-3.087 3.213,-7.454 -0.851,-4.917 -3.246,-5.227 -4.606,-6.341 -1.36,-1.097 -3.047,-1.965 -3.897,-4.041 -0.804,-2.068 -0.971,-4.272 -0.51,-6.157 0.884,-3.54 6.308,-0.732 9.936,0.835 2.403,1.042 10,7.128 11.917,9.204 C 1.575,-15.704 3.811,-5.744 0,0" /></g><g
         transform="translate(308.0291,612.8913)"
         id="g84"><path
           inkscape:connector-curvature="0"
           id="path86"
           style="fill:#e4c19d;fill-opacity:1;fill-rule:nonzero;stroke:none"
           d="m 0,0 c -37.899,0 -65.623,-10.445 -82.417,-31.073 -23.443,-28.79 -22.545,-72.799 -13.897,-104.381 2.641,-9.666 4.001,-35.671 5.823,-45.234 8.178,-42.703 57.803,-65.455 90.491,-65.455 0.278,0 0.588,0.032 0.875,0.032 l 0,246.087 C 0.58,-0.024 0.302,0 0,0" /></g><g
         transform="translate(390.2693,581.7702)"
         id="g88"><path
           inkscape:connector-curvature="0"
           id="path90"
           style="fill:#f1cd9f;fill-opacity:1;fill-rule:nonzero;stroke:none"
           d="m 0,0 c -16.658,20.493 -44.079,30.938 -81.365,31.097 l 0,-246.087 c 37.317,0.382 81.923,25.314 89.599,65.424 1.814,9.562 3.159,35.567 5.816,45.233 C 22.673,-72.838 23.524,-28.893 0,0" /></g><g
         transform="translate(334.3768,400.8048)"
         id="g92"><path
           inkscape:connector-curvature="0"
           id="path94"
           style="fill:#c75469;fill-opacity:1;fill-rule:nonzero;stroke:none"
           d="m 0,0 c 0,0 -11.663,-12.482 -26.054,-12.482 -14.375,0 -25.377,12.211 -25.377,12.211 0,0 11.002,1.894 25.377,1.894 C -11.663,1.623 0,0 0,0" /></g><g
         transform="translate(315.7215,406.5563)"
         id="g96"><path
           inkscape:connector-curvature="0"
           id="path98"
           style="fill:#d85b6c;fill-opacity:1;fill-rule:nonzero;stroke:none"
           d="M 0,0 C -4.065,0 -7.319,-2.53 -7.398,-5.656 -7.47,-2.53 -10.716,0 -14.749,0 c -4.081,0 -18.695,-5.751 -18.695,-5.751 0,0 14.24,-1.504 18.329,-1.504 4.057,0 7.645,-1.607 7.717,1.416 0.063,-3.039 3.006,-1.869 7.04,-1.869 4.097,0 19.013,1.957 19.013,1.957 C 18.655,-5.751 4.081,0 0,0" /></g><g
         transform="translate(395.6395,642.1506)"
         id="g100"><path
           inkscape:connector-curvature="0"
           id="path102"
           style="fill:#45484a;fill-opacity:1;fill-rule:nonzero;stroke:none"
           d="m 0,0 0.008,-0.008 c -15.68,12.005 -40.412,21.67 -70.181,25.147 -39.267,4.582 -73.467,-22.084 -73.467,-22.084 0,0 -6.069,8.671 -11.272,11.225 -5.203,2.545 -22.616,6.539 -22.616,6.539 0,0 12.608,-9.761 14.597,-12.315 3.771,-4.797 2.021,-9.363 2.021,-9.363 0,0 -11.83,4.924 -17.032,5.035 -9.523,0.263 -20.191,-11.312 -20.191,-11.312 0,0 8.918,6.038 17.43,5.8 2.792,-0.072 10.516,-3.596 10.516,-3.596 0,0 -18.997,2.545 -40.427,-29.124 -12.498,-18.448 -19.905,-48.487 -19.905,-48.487 l 34.176,40.078 c 0,0 -21.821,-35.759 -23.937,-40.803 -12.275,-29.322 4.526,-58.733 4.526,-58.733 0,0 5.482,-0.533 10.493,-11.813 6.786,-15.291 11.034,-34.232 11.034,-34.232 l 5.863,0 c 0,0 -6.284,23.532 -6.992,46.403 l 0.007,-0.032 c 6.516,42.545 26.793,66.204 42.736,78.606 4.637,-24.073 22.974,-47.811 22.974,-47.811 -27.174,57.755 36.332,72.202 37.207,72.401 16.396,-1.639 25.775,-19.419 29.777,-29.3 4.551,-11.208 2.195,-16.809 2.195,-16.809 0,0 8.862,13.755 7.82,27.533 -0.318,4.407 -1.272,7.812 -2.386,10.469 2.713,-1.312 14.542,-4.471 16.968,-33.929 1.146,-13.953 -11.972,-23.444 -11.972,-23.444 0,0 29.204,11.615 23.166,47.413 0,0 35.209,-18.989 42.035,-65.789 4.638,-26.412 -5.856,-65.711 -5.856,-65.711 l 5.856,0 c 0,0 4.24,18.941 11.017,34.232 5.012,11.28 10.501,11.813 10.501,11.813 0,0 7.128,12.562 8.68,29.418 l 0.008,-0.007 c 0.008,0.048 0.008,0.087 0.008,0.135 0.19,2.108 0.294,4.264 0.286,6.491 C 47.62,-32.529 0,0 0,0" /></g><g
         transform="translate(292.1522,445.7511)"
         id="g104"><path
           inkscape:connector-curvature="0"
           id="path106"
           style="fill:#bd9275;fill-opacity:1;fill-rule:nonzero;stroke:none"
           d="M 0,0 C -0.33,4.603 12.368,1.682 16.554,1.538 19.861,1.422 29.926,2.988 30.79,2.585 36.711,-0.144 24.519,-5.64 16.344,-5.64 14.165,-5.64 0.197,-2.776 0,0" /></g><g
         transform="translate(230.1687,501.3698)"
         id="g108"><path
           inkscape:connector-curvature="0"
           id="path110"
           style="fill:#ffffff;fill-opacity:1;fill-rule:nonzero;stroke:none"
           d="m 0,0 c 0,0 9.352,-18.58 23.645,-20.487 14.293,-1.924 29.497,0.608 29.497,0.608 0,0 -0.747,18.232 -8.184,21.253 C 37.52,4.411 22.784,6.706 0,0" /></g><g
         transform="translate(271.0408,493.9147)"
         id="g112"><path
           inkscape:connector-curvature="0"
           id="path114"
           style="fill:#544830;fill-opacity:1;fill-rule:nonzero;stroke:none"
           d="m 0,0 c -0.676,-7.289 -6.927,-12.773 -13.957,-12.247 -7.04,0.507 -12.185,6.837 -11.507,14.107 0.675,7.288 6.926,12.791 13.966,12.265 C -4.477,13.6 0.686,7.288 0,0" /></g><g
         transform="translate(257.9188,487.3781)"
         id="g116"><path
           inkscape:connector-curvature="0"
           id="path118"
           style="fill:#191e22;fill-opacity:1;fill-rule:nonzero;stroke:none"
           d="m 0,0 c -2.608,0.188 -5.275,3.155 -4.937,6.856 0.347,3.682 3.53,6.218 6.138,6.03 C 3.811,12.698 6.485,9.729 6.138,6.03 5.792,2.348 2.619,-0.187 0,0" /></g><g
         transform="translate(283.327,481.5417)"
         id="g120"><path
           inkscape:connector-curvature="0"
           id="path122"
           style="fill:#bd9275;fill-opacity:1;fill-rule:nonzero;stroke:none"
           d="m 0,0 c 0,0 -0.321,-0.034 -1.046,-0.169 -0.564,6.598 -2.234,15.711 -6.872,17.585 -6.907,2.868 -22.38,7.07 -42.163,-2.6 -2.015,2.886 -3.068,5.063 -3.068,5.063 21.518,12.303 38.535,7.729 45.906,4.692 C 0.21,21.516 0,0 0,0" /></g><g
         transform="translate(386.493,498.8639)"
         id="g124"><path
           inkscape:connector-curvature="0"
           id="path126"
           style="fill:#ffffff;fill-opacity:1;fill-rule:nonzero;stroke:none"
           d="m 0,0 c 0,0 -9.039,-18.209 -23.307,-19.879 -14.267,-1.688 -29.514,1.028 -29.514,1.028 0,0 1.717,17.375 9.105,20.261 C -36.33,4.312 -21.898,9.211 0,0" /></g><g
         transform="translate(342.8426,492.2077)"
         id="g128"><path
           inkscape:connector-curvature="0"
           id="path130"
           style="fill:#544830;fill-opacity:1;fill-rule:nonzero;stroke:none"
           d="m 0,0 c 0.706,-7.515 7.235,-13.165 14.568,-12.635 7.355,0.53 12.726,7.064 12.02,14.559 C 25.883,9.458 19.354,15.109 12.011,14.579 4.667,14.049 -0.726,7.516 0,0" /></g><g
         transform="translate(356.5486,485.4787)"
         id="g132"><path
           inkscape:connector-curvature="0"
           id="path134"
           style="fill:#191e22;fill-opacity:1;fill-rule:nonzero;stroke:none"
           d="M 0,0 C 2.726,0.197 5.509,3.237 5.157,7.063 4.794,10.87 1.471,13.479 -1.256,13.283 -3.98,13.087 -6.765,10.026 -6.412,6.22 -6.049,2.414 -2.726,-0.196 0,0" /></g><g
         transform="translate(333.6551,480.0817)"
         id="g136"><path
           inkscape:connector-curvature="0"
           id="path138"
           style="fill:#bd9275;fill-opacity:1;fill-rule:nonzero;stroke:none"
           d="m 0,0 c 0,0 0.321,-0.051 1.046,-0.203 0.455,6.531 1.974,15.492 6.595,17.264 6.864,2.734 22.261,6.666 42.196,-3.19 1.981,2.835 3.001,4.961 3.001,4.961 C 31.116,31.304 14.167,27.035 6.848,24.149 -0.557,21.246 0,0 0,0" /></g><g
         transform="translate(394.0809,245.3903)"
         id="g140"><path
           inkscape:connector-curvature="0"
           id="path142"
           style="fill:#b53969;fill-opacity:1;fill-rule:nonzero;stroke:none"
           d="m 0,0 c -3.317,26.22 -20.393,27.939 -20.972,87.413 -0.236,0.669 -0.553,1.369 -0.782,1.989 l -18.493,5.876 c 0,0 0,-0.31 -0.081,-0.864 -0.082,-4.246 -0.571,-24.052 -1.223,-41.958 l -43.89,-9.78 -44.004,10.253 c -0.652,17.629 -1.141,36.945 -1.272,41.445 l 0,0.904 -18.51,-5.876 c -0.317,-0.775 -0.936,-1.484 -0.92,-2.38 1.166,-56.05 -17.605,-60.965 -20.718,-87.022 -0.694,-5.444 -1.394,-15.486 -1.851,-22.332 l 174.541,0 C 1.353,-15.486 0.66,-5.444 0,0" /></g><g
         transform="translate(277.9022,517.9387)"
         id="g144"><path
           inkscape:connector-curvature="0"
           id="path146"
           style="fill:#6c5a46;fill-opacity:1;fill-rule:nonzero;stroke:none"
           d="m 0,0 c -0.1,0.128 -2.505,3.154 -7.424,6.273 -3.082,1.956 -6.101,3.444 -9.234,4.553 -3.809,1.324 -7.909,2.259 -11.882,2.709 -3.594,0.33 -7.575,0.243 -12.222,-0.275 -3.547,-0.558 -7.007,-1.431 -9.943,-2.502 C -52.8,10.162 -54.453,9.324 -55.782,8.649 -56.291,8.392 -56.751,8.158 -57.22,7.95 l -6.333,-3.294 7.299,1.418 c 0.34,0.072 0.708,0.151 1.104,0.238 1.509,0.331 3.388,0.744 5.591,1.011 0.517,0.062 1.041,0.148 1.577,0.237 0.918,0.151 1.867,0.307 2.862,0.347 1.105,0.061 2.252,0.129 3.431,0.198 l 1.532,0.092 c 4.042,0.042 7.456,-0.212 10.489,-0.789 3.315,-0.474 6.724,-1.358 9.848,-2.555 2.95,-1.169 5.778,-2.327 7.985,-3.667 4.459,-2.462 6.939,-4.515 6.964,-4.535 l 0,0 c 0.612,-0.51 1.431,-0.774 2.254,-0.774 0.599,0 1.201,0.141 1.726,0.427 1.469,0.796 1.881,2.434 0.947,3.617 L 0,0 Z" /></g><g
         transform="translate(395.9149,525.2238)"
         id="g148"><path
           inkscape:connector-curvature="0"
           id="path150"
           style="fill:#6c5a46;fill-opacity:1;fill-rule:nonzero;stroke:none"
           d="m 0,0 c -0.419,0.184 -0.88,0.418 -1.39,0.676 -1.329,0.674 -2.982,1.512 -5.013,2.088 -2.998,1.091 -6.458,1.964 -10.048,2.528 -4.606,0.512 -8.589,0.6 -12.197,0.267 -3.954,-0.448 -8.056,-1.383 -11.869,-2.708 -3.088,-1.094 -6.194,-2.625 -9.229,-4.552 -4.83,-3.062 -7.233,-6.035 -7.413,-6.264 l -0.045,-0.054 c -0.815,-1.038 -0.64,-2.428 0.414,-3.304 0.601,-0.501 1.398,-0.776 2.246,-0.776 l 0.002,0 c 0.849,10e-4 1.645,0.277 2.243,0.777 l 0.027,0.022 c 0.234,0.192 2.642,2.14 6.965,4.529 2.174,1.32 5.004,2.48 7.947,3.646 3.135,1.2 6.545,2.085 9.901,2.565 2.99,0.571 6.41,0.819 10.399,0.785 l 1.609,-0.096 c 1.169,-0.069 2.305,-0.136 3.417,-0.197 0.98,-0.039 1.929,-0.195 2.847,-0.347 0.536,-0.088 1.059,-0.174 1.575,-0.236 2.204,-0.267 4.083,-0.68 5.593,-1.011 0.395,-0.087 0.763,-0.168 1.114,-0.24 L 6.39,-3.32 0,0 Z" /></g></g></g></svg>