<?xml version="1.0" encoding="UTF-8" standalone="no"?>
<!-- Created with Inkscape (http://www.inkscape.org/) -->

<svg
   xmlns:dc="http://purl.org/dc/elements/1.1/"
   xmlns:cc="http://creativecommons.org/ns#"
   xmlns:rdf="http://www.w3.org/1999/02/22-rdf-syntax-ns#"
   xmlns:svg="http://www.w3.org/2000/svg"
   xmlns="http://www.w3.org/2000/svg"
   xmlns:sodipodi="http://sodipodi.sourceforge.net/DTD/sodipodi-0.dtd"
   xmlns:inkscape="http://www.inkscape.org/namespaces/inkscape"
   id="svg2"
   version="1.1"
   inkscape:version="0.91 r13725"
   xml:space="preserve"
   width="400"
   height="600"
   viewBox="0 0 400 600"
   sodipodi:docname="patricia.svg"
   inkscape:export-filename="/home/alec/Projects/Brookings/out-of-work/data/avatars/patricia.png"
   inkscape:export-xdpi="90"
   inkscape:export-ydpi="90"><metadata
     id="metadata8"><rdf:RDF><cc:Work
         rdf:about=""><dc:format>image/svg+xml</dc:format><dc:type
           rdf:resource="http://purl.org/dc/dcmitype/StillImage" /><dc:title /></cc:Work></rdf:RDF></metadata><defs
     id="defs6"><clipPath
       clipPathUnits="userSpaceOnUse"
       id="clipPath24"><path
         d="M 0,792 612,792 612,0 0,0 0,792 Z"
         id="path26"
         inkscape:connector-curvature="0" /></clipPath><clipPath
       clipPathUnits="userSpaceOnUse"
       id="clipPath44"><path
         d="m 277.479,351.178 56.448,0 0,33.44 -56.448,0 0,-33.44 z"
         id="path46"
         inkscape:connector-curvature="0" /></clipPath><clipPath
       clipPathUnits="userSpaceOnUse"
       id="clipPath56"><path
         d="M 0,792 612,792 612,0 0,0 0,792 Z"
         id="path58"
         inkscape:connector-curvature="0" /></clipPath></defs><sodipodi:namedview
     pagecolor="#ffffff"
     bordercolor="#666666"
     borderopacity="1"
     objecttolerance="10"
     gridtolerance="10"
     guidetolerance="10"
     inkscape:pageopacity="0"
     inkscape:pageshadow="2"
     inkscape:window-width="1640"
     inkscape:window-height="818"
     id="namedview4"
     showgrid="false"
     inkscape:zoom="0.33712566"
     inkscape:cx="-746.65415"
     inkscape:cy="467.99864"
     inkscape:window-x="69"
     inkscape:window-y="34"
     inkscape:window-maximized="0"
     inkscape:current-layer="g10" /><g
     id="g10"
     inkscape:groupmode="layer"
     inkscape:label="AvatarsR2"
     transform="matrix(1.25,0,0,-1.25,0,600)"><text
       transform="scale(1,-1)"
       style="font-variant:normal;font-weight:300;font-stretch:normal;font-size:13px;font-family:Interstate-Light;-inkscape-font-specification:Interstate-Light;writing-mode:lr-tb;fill:#231f20;fill-opacity:1;fill-rule:nonzero;stroke:none"
       id="text12"
       x="245.73564"
       y="84.937279"><tspan
         x="245.73564 252.88564 260.24365 267.61462 274.98563 282.25262 285.37265 288.75262 292.01562 298.90433 304.84665 310.65762 314.84363 321.86365 329.13065 336.50165 342.71564 349.72263 354.29865 361.31863 368.58563 371.70563 375.08563 382.09262 389.46362 396.73062 400.11063 407.37762 410.64062 417.19263 424.21265 429.24362 435.18463 442.20462"
         y="84.937279"
         sodipodi:role="line"
         id="tspan14">Young, less-educated, and diverse </tspan></text>
<text
       transform="scale(1,-1)"
       style="font-variant:normal;font-weight:normal;font-stretch:normal;font-size:34px;font-family:'Myriad Pro';-inkscape-font-specification:MyriadPro-Regular;writing-mode:lr-tb;fill:#231f20;fill-opacity:1;fill-rule:nonzero;stroke:none"
       id="text16"
       x="295.82544"
       y="121.93728"><tspan
         x="295.82544 313.02945 329.28143 340.53543 351.78943 359.74542 374.97745 382.93344 399.32144"
         y="121.93728"
         sodipodi:role="line"
         id="tspan18">Patricia </tspan></text>
<g
       id="g4416"
       transform="matrix(0.98400358,0,0,0.98400358,-140.66491,-199.39732)"><path
         d="m 311.8012,370.6691 c -0.997,14.816 -4.864,23.8 -19.399,25.887 -9.655,1.378 -30.41,-5.307 -30.417,-5.345 -1.499,-0.792 -3.601,-1.774 -6.244,-2.939 -2.649,-1.226 -5.755,-2.642 -9.219,-4.005 -3.335,-1.599 -7.043,-3.175 -10.796,-4.652 -1.904,-0.708 -3.662,-1.705 -5.627,-2.254 -1.919,-0.692 -3.716,-1.477 -5.604,-1.994 -1.797,-0.686 -3.708,-1.013 -5.398,-1.592 -1.835,-0.175 -3.434,-0.799 -5.101,-0.845 -1.675,-0.038 -3.137,-0.434 -4.584,-0.213 -1.438,0.198 -2.627,-0.069 -3.753,0.312 -2.215,0.404 -3.495,0.662 -3.495,0.662 0,0 1.402,-1.058 3.945,-2.771 1.294,-0.974 2.71,-1.461 4.446,-2.276 1.721,-0.906 3.517,-1.257 5.535,-1.767 2.032,-0.548 3.997,-0.51 6.197,-0.692 1.242,0.129 2.627,0.144 3.982,0.274 -3.388,-1.843 -6.761,-3.944 -9.982,-6.464 -2.756,-2.414 -5.367,-5.239 -7.788,-8.52 -2.498,-3.107 -4.211,-7.393 -6,-11.36 -1.416,-4.545 -2.809,-8.938 -3.365,-14.176 -0.845,-4.927 -0.967,-10.378 -0.929,-15.525 2.162,-29.983 19.925,-28.118 19.925,-28.118 0,0 -12.723,2.856 -11.839,21.015 0.145,3.38 2.155,15.273 2.032,10.445 0.656,-41.487 15.647,-62.698 15.647,-62.698 0,0 -3.403,10.271 -3.267,15.821 0.221,5.39 -2.139,7.644 6.327,23.686 1.79,3.419 -1.88,20.656 -2.085,16.689 -2.262,-45.446 16.118,-73.852 16.118,-73.852 0,0 -4.158,5.694 -1.858,19.971 3.167,19.513 7.994,12.707 11.542,37.657 1.896,13.301 -1.789,22.704 8.398,37.764 2.125,2.687 4.34,5.208 6.563,7.598 2.124,2.338 4.743,4.005 7.172,5.665 2.528,1.439 4.835,3.083 7.348,3.928 2.108,0.739 4.081,1.34 5.991,1.881 0.351,-0.084 0.724,-0.228 1.074,-0.274 5.223,-0.754 9.921,0.144 13.819,2.231 2.079,0.045 2.337,1.522 2.337,1.522 5.558,4.119 8.915,10.949 8.352,19.324"
         style="fill:#151312;fill-opacity:1;fill-rule:nonzero;stroke:none"
         id="path30"
         inkscape:connector-curvature="0" /><path
         d="m 305.5581,418.9401 0,-187.846 -101.886,0 c -1.652,0.732 -2.49,1.059 -2.49,1.059 0,63.688 24.859,90.1 43.216,100.919 10.72,6.381 19.14,7.393 19.14,7.393 6.221,0 10.21,8.017 12.868,20.184 0.419,1.858 0.776,3.83 1.058,5.901 0.578,3.426 1.081,7.065 1.447,10.857 0.205,2.3 0.426,4.591 0.624,6.967 0.944,11.542 1.233,24.074 1.233,35.951 0,0 13.705,-1.385 24.79,-1.385"
         style="fill:#99603d;fill-opacity:1;fill-rule:nonzero;stroke:none"
         id="path34"
         inkscape:connector-curvature="0" /><path
         d="m 410.2768,232.153 c 0,0 -0.921,-0.327 -2.429,-1.059 l -102.29,0 0,187.846 0.214,0 c 11.063,0 24.859,1.385 24.859,1.385 0,-11.808 0.289,-24.226 1.217,-35.67 0.199,-2.299 0.419,-4.591 0.633,-6.814 0.434,-3.936 0.845,-7.644 1.423,-11.185 l 0,-0.068 c 0.214,-1.568 0.503,-2.984 0.792,-4.446 2.665,-12.936 6.8,-21.677 13.226,-21.677 0,0 8.367,-1.012 19.01,-7.324 18.35,-10.712 43.345,-37.162 43.345,-100.988"
         style="fill:#a4653f;fill-opacity:1;fill-rule:nonzero;stroke:none"
         id="path38"
         inkscape:connector-curvature="0" /><path
         d="m 333.9272,366.6564 0,-0.068 c -2.521,-4.005 -11.146,-15.411 -28.231,-15.411 l -0.138,0 c -16.209,0.077 -25.658,11.878 -28.079,15.342 0.563,3.419 1.066,7.096 1.431,10.888 0.221,2.261 0.427,4.591 0.663,6.966 7.917,-2.04 16.499,-3.251 25.704,-3.403 l 0.281,0 c 9.441,0.152 18.129,1.431 26.298,3.647 0.22,-2.284 0.434,-4.584 0.625,-6.776 0.433,-3.975 0.867,-7.683 1.446,-11.185"
         style="fill:#754225;fill-opacity:1;fill-rule:nonzero;stroke:none"
         id="path50"
         inkscape:connector-curvature="0" /><path
         d="m 305.4819,620.8093 c -106.332,0.221 -106.934,-85.425 -102.229,-141.28 -7.286,13.111 -28.856,8.231 -27.074,-12.753 1.705,-20.115 32.168,-29.221 31.749,-26.998 8.695,-45.507 58.816,-70.784 97.554,-74.393 l 0.808,0 0,255.424 -0.808,0"
         style="fill:#99603d;fill-opacity:1;fill-rule:nonzero;stroke:none"
         id="path62"
         inkscape:connector-curvature="0" /><path
         d="m 181.5239,475.6315 c 5.337,8.116 13.552,4.622 15.593,2.84 2.147,-1.965 3.822,-4.523 2.505,-9.327 -0.746,-2.695 -3.731,-2.909 -3,-6.997 0.784,-4.621 3.03,-4.918 4.309,-5.976 1.272,-1.021 2.848,-1.82 3.662,-3.785 0.754,-1.926 0.876,-4.012 0.465,-5.794 -0.822,-3.312 -5.908,-0.662 -9.289,0.8 -2.254,0.944 -9.38,6.669 -11.184,8.634 -4.531,4.85 -6.624,14.214 -3.061,19.605"
         style="fill:#452618;fill-opacity:1;fill-rule:nonzero;stroke:none"
         id="path66"
         inkscape:connector-curvature="0" /><path
         d="m 306.0073,620.8093 c 106.325,0.221 106.942,-85.425 102.207,-141.28 7.301,13.111 28.871,8.231 27.097,-12.753 -1.699,-20.115 -32.168,-29.221 -31.749,-26.998 -8.688,-45.507 -58.801,-70.784 -97.555,-74.393 l -0.822,0 0,255.424 0.822,0"
         style="fill:#a4653f;fill-opacity:1;fill-rule:nonzero;stroke:none"
         id="path70"
         inkscape:connector-curvature="0" /><path
         d="m 430.728,475.6315 c -5.353,8.116 -13.561,4.622 -15.593,2.84 -2.132,-1.965 -3.83,-4.523 -2.52,-9.327 0.754,-2.695 3.738,-2.909 3.007,-6.997 -0.799,-4.621 -3.053,-4.918 -4.317,-5.976 -1.279,-1.021 -2.832,-1.82 -3.632,-3.785 -0.768,-1.926 -0.914,-4.012 -0.479,-5.794 0.799,-3.312 5.885,-0.662 9.304,0.8 2.238,0.944 9.341,6.669 11.162,8.634 4.537,4.85 6.624,14.214 3.068,19.605"
         style="fill:#452618;fill-opacity:1;fill-rule:nonzero;stroke:none"
         id="path74"
         inkscape:connector-curvature="0" /><path
         d="m 304.9184,596.5827 c -35.518,0 -61.465,-9.83 -77.248,-29.184 -21.942,-27.066 -21.106,-68.416 -13.012,-98.079 2.475,-9.068 3.746,-33.515 5.467,-42.469 7.667,-40.155 54.171,-61.504 84.793,-61.504 0.267,0 0.563,0.038 0.815,0.038 l 0,231.16 c -0.282,0 -0.548,0.038 -0.815,0.038"
         style="fill:#99603d;fill-opacity:1;fill-rule:nonzero;stroke:none"
         id="path78"
         inkscape:connector-curvature="0" /><path
         d="m 381.9692,567.361 c -15.601,19.248 -41.281,29.039 -76.235,29.184 l 0,-231.16 c 35,0.366 76.784,23.755 83.964,61.465 1.689,8.954 2.976,33.402 5.465,42.469 8.072,29.587 8.87,70.861 -13.194,98.042"
         style="fill:#a4653f;fill-opacity:1;fill-rule:nonzero;stroke:none"
         id="path82"
         inkscape:connector-curvature="0" /><path
         d="m 323.4663,399.9513 c 0,0 -8.025,-8.588 -17.908,-8.588 -9.89,0 -17.45,8.413 -17.45,8.413 0,0 7.56,1.309 17.45,1.309 9.883,0 17.908,-1.134 17.908,-1.134"
         style="fill:#c75469;fill-opacity:1;fill-rule:nonzero;stroke:none"
         id="path86"
         inkscape:connector-curvature="0" /><path
         d="m 310.644,403.9333 c -2.794,0 -5.032,-1.751 -5.086,-3.906 -0.06,2.155 -2.299,3.906 -5.07,3.906 -2.802,0 -12.852,-3.982 -12.852,-3.982 0,0 9.791,-1.013 12.608,-1.013 2.779,0 5.238,-1.134 5.314,0.983 0.031,-2.117 2.064,-1.31 4.82,-1.31 2.825,0 13.088,1.34 13.088,1.34 0,0 -10.027,3.982 -12.822,3.982"
         style="fill:#d85b6c;fill-opacity:1;fill-rule:nonzero;stroke:none"
         id="path90"
         inkscape:connector-curvature="0" /><path
         d="m 411.6245,232.1911 c 0,0 -0.937,-0.365 -2.467,-1.097 l -207.176,0 c -1.66,0.732 -2.504,1.097 -2.504,1.097 0,64.595 25.582,89.514 44.227,100.478 -3.929,-20.945 28.689,-29.031 61.671,-28.627 32.305,0.365 63.856,9.212 61.542,29.099 18.638,-10.888 44.707,-36.211 44.707,-100.95"
         style="fill:#ee2922;fill-opacity:1;fill-rule:nonzero;stroke:none"
         id="path94"
         inkscape:connector-curvature="0" /><path
         d="m 232.4262,462.9821 c 0,0 9.296,-18.469 23.503,-20.364 14.207,-1.913 29.32,0.604 29.32,0.604 0,0 -0.378,17.942 -7.77,20.945 -7.394,3.019 -24.109,6.916 -45.053,-1.185"
         style="fill:#ffffff;fill-opacity:1;fill-rule:nonzero;stroke:none"
         id="path98"
         inkscape:connector-curvature="0" /><path
         d="m 273.0532,455.5719 c -0.672,-7.245 -6.886,-12.697 -13.874,-12.174 -6.997,0.504 -12.11,6.796 -11.438,14.022 0.672,7.245 6.885,12.715 13.883,12.193 6.979,-0.523 12.111,-6.797 11.429,-14.041"
         style="fill:#55301b;fill-opacity:1;fill-rule:nonzero;stroke:none"
         id="path102"
         inkscape:connector-curvature="0" /><path
         d="m 260.0092,449.0744 c -2.593,0.187 -5.243,3.136 -4.906,6.814 0.344,3.661 3.508,6.181 6.1,5.995 2.594,-0.187 5.253,-3.138 4.908,-6.816 -0.344,-3.66 -3.498,-6.18 -6.102,-5.993"
         style="fill:#191e22;fill-opacity:1;fill-rule:nonzero;stroke:none"
         id="path106"
         inkscape:connector-curvature="0" /><path
         d="m 285.2661,443.2726 c 0,0 -0.319,-0.034 -1.04,-0.168 -0.562,6.559 -2.221,15.617 -6.831,17.479 -6.865,2.852 -22.246,7.029 -41.91,-2.583 -2.003,2.868 -3.05,5.033 -3.05,5.033 21.39,12.228 38.305,7.682 45.632,4.662 7.408,-3.036 7.199,-24.423 7.199,-24.423"
         style="fill:#151312;fill-opacity:1;fill-rule:nonzero;stroke:none"
         id="path110"
         inkscape:connector-curvature="0" /><path
         d="m 380.9995,460.7936 c 0,0 -8.985,-18.1 -23.168,-19.76 -14.182,-1.678 -29.337,1.023 -29.337,1.023 0,0 1.707,17.741 9.051,20.61 7.342,2.885 21.531,6.037 43.454,-1.873"
         style="fill:#ffffff;fill-opacity:1;fill-rule:nonzero;stroke:none"
         id="path114"
         inkscape:connector-curvature="0" /><path
         d="m 337.6098,454.1774 c 0.702,-7.47 7.192,-13.086 14.481,-12.56 7.31,0.528 12.65,7.022 11.949,14.473 -0.702,7.488 -7.193,13.106 -14.492,12.578 -7.299,-0.526 -12.66,-7.02 -11.938,-14.491"
         style="fill:#55301b;fill-opacity:1;fill-rule:nonzero;stroke:none"
         id="path118"
         inkscape:connector-curvature="0" /><path
         d="m 351.2339,447.4884 c 2.71,0.196 5.477,3.218 5.127,7.021 -0.361,3.784 -3.665,6.377 -6.375,6.183 -2.709,-0.195 -5.477,-3.238 -5.125,-7.021 0.36,-3.784 3.664,-6.378 6.373,-6.183"
         style="fill:#191e22;fill-opacity:1;fill-rule:nonzero;stroke:none"
         id="path122"
         inkscape:connector-curvature="0" /><path
         d="m 328.478,442.1237 c 0,0 0.318,-0.051 1.039,-0.202 0.453,6.493 1.962,15.4 6.556,17.161 6.822,2.718 22.128,6.625 41.942,-3.17 1.97,2.817 2.984,4.931 2.984,4.931 -21.592,12.397 -38.44,8.153 -45.714,5.284 -7.361,-2.885 -6.807,-24.004 -6.807,-24.004"
         style="fill:#151312;fill-opacity:1;fill-rule:nonzero;stroke:none"
         id="path126"
         inkscape:connector-curvature="0" /><path
         d="m 380.3735,488.8449 c -0.365,0.252 -0.762,0.564 -1.2,0.908 -1.142,0.898 -2.565,2.014 -4.377,2.893 -2.641,1.559 -5.743,2.937 -9.013,3.997 -4.224,1.129 -7.93,1.719 -11.346,1.806 -3.753,0.003 -7.718,-0.504 -11.468,-1.472 -3.041,-0.804 -6.161,-2.084 -9.274,-3.802 -4.951,-2.73 -7.623,-5.665 -7.825,-5.891 l -0.05,-0.053 c -0.911,-1.028 -0.949,-2.561 -0.092,-3.644 0.489,-0.619 0.997,-3.372 1.788,-3.477 l 0.002,0 c 0.792,-0.105 1.575,0.096 2.206,0.565 l 0.027,0.021 c 0.247,0.18 2.776,1.999 7.158,4.059 2.219,1.166 5.028,2.075 7.943,2.978 3.101,0.916 6.411,1.454 9.614,1.56 2.873,0.249 6.1,0.094 9.819,-0.44 l 1.487,-0.302 c 1.081,-0.221 2.132,-0.435 3.162,-0.64 0.909,-0.164 1.772,-0.452 2.607,-0.73 0.486,-0.163 0.963,-0.321 1.435,-0.453 2.019,-0.565 3.713,-1.246 5.075,-1.794 0.355,-0.144 0.687,-0.277 1.005,-0.399 l 6.799,-0.093 -5.482,4.403 z"
         style="fill:#231f20;fill-opacity:1;fill-rule:nonzero;stroke:none"
         id="path130"
         inkscape:connector-curvature="0" /><path
         d="m 380.3735,488.8449 c -0.365,0.252 -0.762,0.564 -1.2,0.908 -1.142,0.898 -2.565,2.014 -4.377,2.893 -2.641,1.559 -5.743,2.937 -9.013,3.997 -4.224,1.129 -7.93,1.719 -11.346,1.806 -3.753,0.003 -7.718,-0.504 -11.468,-1.472 -3.041,-0.804 -6.161,-2.084 -9.274,-3.802 -4.951,-2.73 -7.623,-5.665 -7.825,-5.891 l -0.05,-0.053 c -0.911,-1.028 -0.949,-2.561 -0.092,-3.644 0.489,-0.619 0.997,-3.372 1.788,-3.477 l 0.002,0 c 0.792,-0.105 1.575,0.096 2.206,0.565 l 0.027,0.021 c 0.247,0.18 2.776,1.999 7.158,4.059 2.219,1.166 5.028,2.075 7.943,2.978 3.101,0.916 6.411,1.454 9.614,1.56 2.873,0.249 6.1,0.094 9.819,-0.44 l 1.487,-0.302 c 1.081,-0.221 2.132,-0.435 3.162,-0.64 0.909,-0.164 1.772,-0.452 2.607,-0.73 0.486,-0.163 0.963,-0.321 1.435,-0.453 2.019,-0.565 3.713,-1.246 5.075,-1.794 0.355,-0.144 0.687,-0.277 1.005,-0.399 l 6.799,-0.093 -5.482,4.403 z"
         style="fill:none;stroke:#231f20;stroke-width:2.262187;stroke-linecap:round;stroke-linejoin:round;stroke-miterlimit:10;stroke-dasharray:none;stroke-opacity:1"
         id="path134"
         inkscape:connector-curvature="0" /><path
         d="m 232.2055,488.4533 c 0.364,0.251 0.762,0.564 1.199,0.908 1.143,0.898 2.565,2.013 4.378,2.892 2.641,1.559 5.743,2.938 9.012,3.997 4.225,1.13 7.931,1.72 11.347,1.806 3.753,0.004 7.717,-0.504 11.468,-1.471 3.041,-0.805 6.161,-2.084 9.274,-3.802 4.951,-2.731 7.623,-5.665 7.825,-5.892 l 0.05,-0.053 c 0.91,-1.027 0.948,-2.56 0.091,-3.643 -0.488,-0.619 -0.996,-3.372 -1.788,-3.477 l -0.002,-10e-4 c -0.791,-0.104 -1.574,0.096 -2.205,0.566 l -0.027,0.02 c -0.247,0.181 -2.777,1.999 -7.158,4.06 -2.219,1.165 -5.029,2.075 -7.943,2.978 -3.101,0.915 -6.411,1.454 -9.614,1.559 -2.873,0.249 -6.101,0.095 -9.82,-0.439 l -1.487,-0.303 c -1.081,-0.22 -2.131,-0.434 -3.161,-0.64 -0.909,-0.163 -1.772,-0.451 -2.608,-0.73 -0.486,-0.162 -0.962,-0.321 -1.435,-0.453 -2.018,-0.564 -3.712,-1.246 -5.075,-1.794 -0.355,-0.143 -0.686,-0.276 -1.004,-0.399 l -6.8,-0.093 5.483,4.404 z"
         style="fill:#231f20;fill-opacity:1;fill-rule:nonzero;stroke:none"
         id="path138"
         inkscape:connector-curvature="0" /><path
         d="m 232.2055,488.4533 c 0.364,0.251 0.762,0.564 1.199,0.908 1.143,0.898 2.565,2.013 4.378,2.892 2.641,1.559 5.743,2.938 9.012,3.997 4.225,1.13 7.931,1.72 11.347,1.806 3.753,0.004 7.717,-0.504 11.468,-1.471 3.041,-0.805 6.161,-2.084 9.274,-3.802 4.951,-2.731 7.623,-5.665 7.825,-5.892 l 0.05,-0.053 c 0.91,-1.027 0.948,-2.56 0.091,-3.643 -0.488,-0.619 -0.996,-3.372 -1.788,-3.477 l -0.002,-10e-4 c -0.791,-0.104 -1.574,0.096 -2.205,0.566 l -0.027,0.02 c -0.247,0.181 -2.777,1.999 -7.158,4.06 -2.219,1.165 -5.029,2.075 -7.943,2.978 -3.101,0.915 -6.411,1.454 -9.614,1.559 -2.873,0.249 -6.101,0.095 -9.82,-0.439 l -1.487,-0.303 c -1.081,-0.22 -2.131,-0.434 -3.161,-0.64 -0.909,-0.163 -1.772,-0.451 -2.608,-0.73 -0.486,-0.162 -0.962,-0.321 -1.435,-0.453 -2.018,-0.564 -3.712,-1.246 -5.075,-1.794 -0.355,-0.143 -0.686,-0.276 -1.004,-0.399 l -6.8,-0.093 5.483,4.404 z"
         style="fill:none;stroke:#231f20;stroke-width:2.262187;stroke-linecap:round;stroke-linejoin:round;stroke-miterlimit:10;stroke-dasharray:none;stroke-opacity:1"
         id="path142"
         inkscape:connector-curvature="0" /><path
         d="m 358.6635,549.1266 c 0.076,0.67 0.138,1.325 0.184,1.957 -0.046,-0.632 -0.108,-1.287 -0.184,-1.957 m 15.464,99.222 c -21.349,11.549 -63.887,15.851 -69.757,12.57 -19.985,1.819 -66.436,-11.619 -85.167,-27.973 -33.941,-29.655 -40.223,-63.765 -45.537,-110.246 -9.662,-84.741 30.295,-129.075 30.295,-129.075 0,0 -14.953,23.496 -12.205,50.745 1.393,14.123 4.888,29.747 8.519,43.246 -6.6,-68.348 21.768,-100.371 21.768,-100.371 0,0 -17.298,44.045 -4.979,67.982 4.18,8.116 8.047,17.321 11.466,26.564 -0.259,-20.511 -0.8,-42.819 -1.857,-56.722 3.494,27.859 10.453,51.652 18.409,71.615 8.946,22.331 37.171,48.682 37.171,48.682 0,0 -15.654,-22.88 -20.147,-33.455 -11.032,-25.97 -9.281,-49.184 -9.281,-49.184 0,0 1.135,19.78 20.527,44.09 6.707,8.421 12.936,15.989 19.003,23.367 -6.181,-14.778 -7.278,-28.879 -9.38,-36.196 -2.771,-9.76 -15.211,-31.261 -15.211,-31.261 0,0 25.353,22.666 43.748,52.755 4.789,7.842 8.26,14.748 10.797,20.702 -1.211,-4.454 -2.376,-8.581 -3.291,-11.474 -3.341,-10.606 -20.625,-39.097 -20.625,-39.097 0,0 23.405,25.43 30.089,38.8 6.686,13.407 7.813,19.125 7.813,19.125 0,0 -1.6,-15.372 -6.694,-27.835 -11.001,-26.846 -23.959,-36.797 -23.959,-36.797 0,0 23.716,16.544 36.545,33.302 9.038,11.824 15.19,26.496 16.461,36.805 -1.857,-15.692 -14.016,-42.196 -14.016,-42.196 0,0 10.956,7.47 19.856,24.775 7.02,13.576 10.72,26.55 9.129,43.604 31.353,-71.371 -1.127,-126.456 -1.127,-126.456 0,0 26.16,27.943 27.843,50.289 0.411,5.557 1.264,7.568 1.264,7.568 0,0 1.309,-22.331 -4.05,-37.163 -9.975,-27.691 -21.715,-43.565 -21.715,-43.565 l 29.435,37.01 -13.842,-63.834 c 0,0 7.5,12.906 14.291,25.484 -2.802,-16.21 -5.315,-29.343 -5.315,-29.343 0,0 102.222,183.688 -26.274,253.163"
         style="fill:#151312;fill-opacity:1;fill-rule:nonzero;stroke:none"
         id="path146"
         inkscape:connector-curvature="0" /><path
         d="m 288.9331,424.8571 c -0.329,4.603 12.37,1.682 16.557,1.538 3.308,-0.116 13.374,1.451 14.238,1.047 5.922,-2.729 -6.273,-8.226 -14.448,-8.226 -2.179,0 -16.15,2.865 -16.347,5.641"
         style="fill:#754225;fill-opacity:1;fill-rule:nonzero;stroke:none"
         id="path150"
         inkscape:connector-curvature="0" /></g></g></svg>