<?xml version="1.0" encoding="UTF-8" standalone="no"?>
<!-- Created with Inkscape (http://www.inkscape.org/) -->

<svg
   xmlns:dc="http://purl.org/dc/elements/1.1/"
   xmlns:cc="http://creativecommons.org/ns#"
   xmlns:rdf="http://www.w3.org/1999/02/22-rdf-syntax-ns#"
   xmlns:svg="http://www.w3.org/2000/svg"
   xmlns="http://www.w3.org/2000/svg"
   xmlns:sodipodi="http://sodipodi.sourceforge.net/DTD/sodipodi-0.dtd"
   xmlns:inkscape="http://www.inkscape.org/namespaces/inkscape"
   id="svg2"
   version="1.1"
   inkscape:version="0.91 r13725"
   xml:space="preserve"
   width="400"
   height="600"
   viewBox="0 0 400 600"
   sodipodi:docname="valentina.svg"
   inkscape:export-filename="/home/alec/Projects/Brookings/out-of-work/data/avatars/valentina.png"
   inkscape:export-xdpi="90"
   inkscape:export-ydpi="90"><metadata
     id="metadata8"><rdf:RDF><cc:Work
         rdf:about=""><dc:format>image/svg+xml</dc:format><dc:type
           rdf:resource="http://purl.org/dc/dcmitype/StillImage" /><dc:title></dc:title></cc:Work></rdf:RDF></metadata><defs
     id="defs6"><clipPath
       clipPathUnits="userSpaceOnUse"
       id="clipPath20"><path
         d="M 0,792 612,792 612,0 0,0 0,792 Z"
         id="path22"
         inkscape:connector-curvature="0" /></clipPath></defs><sodipodi:namedview
     pagecolor="#ffffff"
     bordercolor="#666666"
     borderopacity="1"
     objecttolerance="10"
     gridtolerance="10"
     guidetolerance="10"
     inkscape:pageopacity="0"
     inkscape:pageshadow="2"
     inkscape:window-width="1667"
     inkscape:window-height="817"
     id="namedview4"
     showgrid="false"
     inkscape:zoom="0.47676768"
     inkscape:cx="410.22775"
     inkscape:cy="418.03965"
     inkscape:window-x="59"
     inkscape:window-y="30"
     inkscape:window-maximized="0"
     inkscape:current-layer="g10" /><g
     id="g10"
     inkscape:groupmode="layer"
     inkscape:label="AvatarsR2"
     transform="matrix(1.25,0,0,-1.25,0,600)"><text
       transform="scale(1,-1)"
       style="font-variant:normal;font-weight:300;font-stretch:normal;font-size:13px;font-family:Interstate-Light;-inkscape-font-specification:Interstate-Light;writing-mode:lr-tb;fill:#231f20;fill-opacity:1;fill-rule:nonzero;stroke:none"
       id="text12"
       x="153.47961"
       y="67.093849"><tspan
         x="153.47961 162.0336 165.2966 171.8486 178.86861 183.8983 189.83931 196.53561 199.65561 203.03561 206.29861 213.1873 219.12961 224.93932 229.12531 236.14531 243.41231 250.78331 256.99731 264.0043 268.58032 275.60031 282.86731 285.9873 289.36731 296.3743 303.7453 311.0123 314.3923 321.15231 327.79532 334.81531 338.07831 345.44931 352.71631 356.09631 361.06232 367.9783 372.8143 376.0773 381.0433 388.06329 399.08731 406.1073 413.4133"
         y="67.093849"
         sodipodi:role="line"
         id="tspan14">Diverse, less-educated, and eyeing retirement</tspan></text>
<text
       transform="scale(1,-1)"
       style="font-variant:normal;font-weight:normal;font-stretch:normal;font-size:34px;font-family:'Myriad Pro';-inkscape-font-specification:MyriadPro-Regular;writing-mode:lr-tb;fill:#231f20;fill-opacity:1;fill-rule:nonzero;stroke:none"
       id="text24"
       x="226.21172"
       y="104.09385"><tspan
         x="226.21172 244.06171 260.44971 268.47372 285.50772 304.2417 315.4957 323.45172 342.32172 358.70972"
         y="104.09385"
         sodipodi:role="line"
         id="tspan26">Valentina </tspan></text>
<g
       id="g4429"
       transform="matrix(0.81330178,0,0,0.81330178,-87.870942,-157.40637)"><path
         d="m 304.5596,440.3565 0,-212.389 -115.173,0 c -1.845,0.805 -2.83,1.211 -2.83,1.211 0,47.532 12.287,76.755 26.664,94.657 19.945,24.847 43.852,27.768 43.852,27.768 l 0.56,0 c 0.48,0.081 1.049,0.162 1.537,0.334 5.815,1.609 9.766,10.199 12.433,22.505 0.488,2.098 0.895,4.286 1.212,6.637 0.65,3.896 1.221,8.019 1.618,12.305 0.244,2.595 0.48,5.2 0.724,7.858 1.049,13.038 1.382,27.197 1.382,40.651 0,0 15.507,-1.537 28.021,-1.537"
         style="fill:#965d2e;fill-opacity:1;fill-rule:nonzero;stroke:none"
         id="path30"
         inkscape:connector-curvature="0" /><path
         d="m 422.9424,229.1788 c 0,0 -1.049,-0.406 -2.749,-1.211 l -115.634,0 0,212.389 0.244,0 c 12.514,0 28.111,1.537 28.111,1.537 0,-13.373 0.299,-27.379 1.365,-40.326 0.226,-2.604 0.488,-5.19 0.724,-7.695 0.488,-4.458 0.966,-8.671 1.618,-12.631 l 0,-0.082 c 0.235,-1.781 0.551,-3.39 0.885,-5.027 2.415,-11.89 5.977,-20.633 11.131,-23.544 0.407,-0.172 0.814,-0.416 1.221,-0.479 0.805,-0.344 1.699,-0.506 2.586,-0.506 0,0 25.189,-2.985 45.452,-29.783 13.662,-18.066 25.046,-46.8 25.046,-92.642"
         style="fill:#a36a35;fill-opacity:1;fill-rule:nonzero;stroke:none"
         id="path34"
         inkscape:connector-curvature="0" /><path
         d="m 336.6211,381.1876 0,-0.072 c -2.83,-4.539 -12.595,-17.414 -31.899,-17.414 l -0.154,0 c -18.337,0.081 -29.006,13.444 -31.745,17.341 0.652,3.888 1.212,8.011 1.61,12.297 0.244,2.595 0.488,5.19 0.732,7.857 8.96,-2.27 18.662,-3.653 29.069,-3.797 l 0.334,0 c 10.652,0.144 20.507,1.6 29.72,4.123 0.227,-2.596 0.479,-5.19 0.724,-7.694 0.479,-4.458 0.958,-8.662 1.609,-12.641"
         style="fill:#7c4a27;fill-opacity:1;fill-rule:nonzero;stroke:none"
         id="path38"
         inkscape:connector-curvature="0" /><path
         d="m 304.4688,668.5313 c -120.182,0.218 -120.878,-96.609 -115.534,-159.748 -8.246,14.811 -32.622,9.313 -30.624,-14.421 1.917,-22.722 36.365,-33.012 35.887,-30.507 9.828,-51.456 66.492,-80.018 110.271,-84.078 0.299,-0.018 0.624,0 0.932,-0.036 l 0,288.772 c -0.317,0 -0.633,0.018 -0.932,0.018"
         style="fill:#965d2e;fill-opacity:1;fill-rule:nonzero;stroke:none"
         id="path42"
         inkscape:connector-curvature="0" /><path
         d="m 164.3506,504.3985 c 6.03,9.168 15.325,5.226 17.613,3.191 2.432,-2.197 4.34,-5.099 2.857,-10.524 -0.85,-3.056 -4.232,-3.291 -3.4,-7.93 0.905,-5.216 3.446,-5.551 4.883,-6.726 1.41,-1.176 3.21,-2.089 4.113,-4.286 0.86,-2.215 1.032,-4.539 0.535,-6.555 -0.923,-3.762 -6.664,-0.769 -10.516,0.894 -2.522,1.113 -10.588,7.569 -12.622,9.766 -5.136,5.488 -7.496,16.066 -3.463,22.17"
         style="fill:#7c4a27;fill-opacity:1;fill-rule:nonzero;stroke:none"
         id="path46"
         inkscape:connector-curvature="0" /><path
         d="m 305.0655,668.5313 c 120.191,0.218 120.888,-96.609 115.535,-159.748 8.255,14.811 32.613,9.313 30.633,-14.421 -1.926,-22.722 -36.375,-33.012 -35.887,-30.507 -9.837,-51.456 -66.483,-80.018 -110.281,-84.078 -0.298,-0.018 -0.633,0 -0.913,-0.036 l 0,288.772 c 0.308,0 0.615,0.018 0.913,0.018"
         style="fill:#a36a35;fill-opacity:1;fill-rule:nonzero;stroke:none"
         id="path50"
         inkscape:connector-curvature="0" /><path
         d="m 446.043,504.3985 c -6.03,9.168 -15.334,5.226 -17.612,3.191 -2.433,-2.197 -4.341,-5.099 -2.867,-10.524 0.868,-3.056 4.241,-3.291 3.409,-7.93 -0.896,-5.216 -3.445,-5.551 -4.883,-6.726 -1.428,-1.176 -3.219,-2.089 -4.123,-4.286 -0.841,-2.215 -1.03,-4.539 -0.533,-6.555 0.931,-3.762 6.672,-0.769 10.524,0.894 2.532,1.113 10.579,7.569 12.613,9.766 5.127,5.488 7.487,16.066 3.472,22.17"
         style="fill:#7c4a27;fill-opacity:1;fill-rule:nonzero;stroke:none"
         id="path54"
         inkscape:connector-curvature="0" /><path
         d="m 303.836,641.126 c -40.136,0 -69.503,-11.103 -87.307,-33.002 -24.819,-30.588 -23.869,-77.315 -14.71,-110.859 2.793,-10.254 4.222,-37.885 6.166,-48.039 8.663,-45.353 61.24,-69.512 95.851,-69.512 0.299,0 0.633,0.027 0.932,0.027 l 0,261.349 c -0.308,0 -0.616,0.036 -0.932,0.036"
         style="fill:#965d2e;fill-opacity:1;fill-rule:nonzero;stroke:none"
         id="path58"
         inkscape:connector-curvature="0" /><path
         d="m 390.9434,608.0792 c -17.641,21.754 -46.673,32.84 -86.176,33.011 l 0,-261.349 c 39.539,0.415 86.773,26.881 94.902,69.484 1.934,10.155 3.354,37.786 6.174,48.04 9.133,33.454 10.037,80.118 -14.9,110.814"
         style="fill:#a36a35;fill-opacity:1;fill-rule:nonzero;stroke:none"
         id="path62"
         inkscape:connector-curvature="0" /><path
         d="m 280.9112,420.8731 c 0,0 10.308,-11.485 23.811,-11.485 13.493,0 24.433,11.747 24.433,11.747 l -48.244,-0.262 z"
         style="fill:#d85b6c;fill-opacity:1;fill-rule:nonzero;stroke:none"
         id="path66"
         inkscape:connector-curvature="0" /><path
         d="m 314.3633,429.3331 c -5.284,0 -9.535,-3.325 -9.642,-7.409 -0.121,4.084 -4.357,7.409 -9.594,7.409 -5.345,0 -24.414,-7.53 -24.414,-7.53 0,0 18.598,-1.959 23.927,-1.959 5.285,0 9.96,-2.096 10.081,1.852 0.077,-3.993 3.918,-2.444 9.186,-2.444 5.36,0 24.824,2.551 24.824,2.551 0,0 -19.039,7.53 -24.368,7.53"
         style="fill:#692227;fill-opacity:1;fill-rule:nonzero;stroke:none"
         id="path70"
         inkscape:connector-curvature="0" /><path
         d="m 422.9424,229.1788 c 0,0 -1.049,-0.406 -2.749,-1.211 l -230.807,0 c -1.844,0.805 -2.83,1.211 -2.83,1.211 0,47.532 12.287,76.755 26.664,94.657 7.83,-13.932 21.085,-28.263 44.892,-32.713 13.571,-2.504 30.127,-4.855 46.447,-5.904 24.06,-1.79 46.754,2.171 59.195,8.97 11.059,6.057 24.622,16.365 34.142,27.632 13.662,-18.066 25.046,-46.8 25.046,-92.642"
         style="fill:#e2ea18;fill-opacity:1;fill-rule:nonzero;stroke:none"
         id="path74"
         inkscape:connector-curvature="0" /><path
         d="m 377.3633,277.9405 c 0,-16.429 -13.282,-29.756 -29.675,-29.756 -16.392,0 -29.675,13.327 -29.675,29.756 0,16.438 13.283,29.757 29.675,29.757 16.393,0 29.675,-13.319 29.675,-29.757"
         style="fill:#282a6d;fill-opacity:1;fill-rule:nonzero;stroke:none"
         id="path78"
         inkscape:connector-curvature="0" /><path
         d="m 366.1787,277.9405 c 0,-10.235 -8.273,-18.535 -18.49,-18.535 -10.218,0 -18.49,8.3 -18.49,18.535 0,10.235 8.272,18.536 18.49,18.536 10.217,0 18.49,-8.301 18.49,-18.536"
         style="fill:#9d1a24;fill-opacity:1;fill-rule:nonzero;stroke:none"
         id="path82"
         inkscape:connector-curvature="0" /><path
         d="m 381.3457,526.627 c -0.39,0.269 -0.814,0.603 -1.283,0.971 -1.222,0.96 -2.743,2.153 -4.682,3.093 -2.824,1.667 -6.142,3.142 -9.639,4.275 -4.518,1.208 -8.481,1.84 -12.134,1.932 -4.015,0.003 -8.255,-0.54 -12.267,-1.574 -3.252,-0.861 -6.589,-2.229 -9.918,-4.067 -5.295,-2.92 -8.153,-6.059 -8.369,-6.3 l -0.053,-0.057 c -0.974,-1.099 -1.014,-2.739 -0.097,-3.897 0.521,-0.662 1.064,-3.606 1.911,-3.719 l 0.002,0 c 0.847,-0.112 1.684,0.103 2.359,0.605 l 0.029,0.021 c 0.264,0.194 2.97,2.139 7.656,4.342 2.373,1.247 5.378,2.22 8.495,3.185 3.316,0.979 6.856,1.555 10.282,1.669 3.073,0.266 6.525,0.1 10.502,-0.47 l 1.591,-0.324 c 1.156,-0.237 2.279,-0.465 3.381,-0.685 0.971,-0.175 1.895,-0.482 2.789,-0.78 0.52,-0.174 1.029,-0.344 1.534,-0.485 2.159,-0.603 3.972,-1.333 5.428,-1.919 0.379,-0.153 0.735,-0.295 1.074,-0.426 l 7.273,-0.1 -5.864,4.71 z"
         style="fill:#231f20;fill-opacity:1;fill-rule:nonzero;stroke:none"
         id="path86"
         inkscape:connector-curvature="0" /><path
         d="m 226.1563,528.2051 c 0.39,0.269 0.814,0.603 1.283,0.971 1.222,0.96 2.742,2.153 4.682,3.093 2.824,1.667 6.142,3.142 9.639,4.275 4.518,1.208 8.481,1.839 12.134,1.932 4.015,0.003 8.255,-0.54 12.267,-1.574 3.252,-0.861 6.589,-2.229 9.918,-4.067 5.295,-2.92 8.152,-6.059 8.369,-6.3 l 0.053,-0.058 c 0.974,-1.098 1.014,-2.738 0.097,-3.896 -0.521,-0.662 -1.064,-3.606 -1.911,-3.719 l -0.002,-0.001 c -0.847,-0.111 -1.684,0.104 -2.359,0.606 l -0.029,0.021 c -0.264,0.194 -2.97,2.139 -7.656,4.342 -2.373,1.247 -5.379,2.22 -8.496,3.185 -3.316,0.979 -6.855,1.555 -10.281,1.669 -3.073,0.265 -6.525,0.1 -10.502,-0.47 l -1.591,-0.324 c -1.156,-0.237 -2.28,-0.465 -3.381,-0.685 -0.972,-0.175 -1.895,-0.482 -2.789,-0.78 -0.52,-0.175 -1.029,-0.344 -1.534,-0.485 -2.159,-0.603 -3.972,-1.333 -5.428,-1.919 -0.379,-0.153 -0.735,-0.295 -1.074,-0.426 l -7.273,-0.1 5.864,4.71 z"
         style="fill:#231f20;fill-opacity:1;fill-rule:nonzero;stroke:none"
         id="path90"
         inkscape:connector-curvature="0" /><path
         d="m 291.7237,456.5704 c -0.271,5.558 10.177,2.031 13.621,1.856 2.722,-0.138 11.003,1.752 11.714,1.265 4.872,-3.295 -5.16,-9.932 -11.887,-9.932 -1.792,0 -13.286,3.458 -13.448,6.811"
         style="fill:#7c4a27;fill-opacity:1;fill-rule:nonzero;stroke:none"
         id="path94"
         inkscape:connector-curvature="0" /><path
         d="m 211.5996,509.3155 c 0,0 10.655,-21.171 26.942,-23.344 16.287,-2.193 33.611,0.692 33.611,0.692 0,0 -0.49,20.314 -8.963,23.756 -8.477,3.462 -27.667,8.182 -51.59,-1.104"
         style="fill:#ffffff;fill-opacity:1;fill-rule:nonzero;stroke:none"
         id="path98"
         inkscape:connector-curvature="0" /><path
         d="m 258.1719,500.8204 c -0.771,-8.305 -7.894,-14.554 -15.904,-13.955 -8.021,0.578 -13.883,7.791 -13.112,16.074 0.77,8.306 7.893,14.576 15.914,13.977 8,-0.599 13.883,-7.791 13.102,-16.096"
         style="fill:#40211b;fill-opacity:1;fill-rule:nonzero;stroke:none"
         id="path102"
         inkscape:connector-curvature="0" /><path
         d="m 243.2188,493.3721 c -2.972,0.214 -6.01,3.596 -5.624,7.812 0.395,4.196 4.021,7.085 6.994,6.872 2.973,-0.215 6.021,-3.597 5.625,-7.813 -0.394,-4.195 -4.011,-7.085 -6.995,-6.871"
         style="fill:#191e22;fill-opacity:1;fill-rule:nonzero;stroke:none"
         id="path106"
         inkscape:connector-curvature="0" /><path
         d="m 272.1524,486.6631 c 0,0 -0.336,-0.062 -1.168,-0.176 -0.644,7.519 -2.551,17.945 -7.836,20.079 -7.869,3.269 -25.501,8.057 -48.043,-2.962 -2.296,3.288 -3.506,5.711 -3.506,5.711 24.521,14.018 43.92,8.866 52.32,5.405 8.492,-3.482 8.233,-28.057 8.233,-28.057"
         style="fill:#5a331c;fill-opacity:1;fill-rule:nonzero;stroke:none"
         id="path110"
         inkscape:connector-curvature="0" /><path
         d="m 393.0284,508.0089 c 0,0 -10.299,-20.749 -26.558,-22.652 -16.257,-1.923 -33.63,1.172 -33.63,1.172 0,0 1.958,20.603 10.375,23.891 8.417,3.308 22.262,8.152 49.813,-2.411"
         style="fill:#ffffff;fill-opacity:1;fill-rule:nonzero;stroke:none"
         id="path114"
         inkscape:connector-curvature="0" /><path
         d="m 343.2901,500.4239 c 0.805,-8.563 8.244,-15.001 16.601,-14.397 8.379,0.604 14.5,8.048 13.696,16.589 -0.804,8.585 -8.244,15.025 -16.611,14.42 -8.369,-0.603 -14.513,-8.049 -13.686,-16.612"
         style="fill:#40211b;fill-opacity:1;fill-rule:nonzero;stroke:none"
         id="path118"
         inkscape:connector-curvature="0" /><path
         d="m 358.9073,492.7559 c 3.106,0.225 6.278,3.688 5.877,8.049 -0.414,4.338 -4.2,7.31 -7.307,7.087 -3.105,-0.223 -6.278,-3.711 -5.876,-8.048 0.414,-4.337 4.201,-7.312 7.306,-7.088"
         style="fill:#191e22;fill-opacity:1;fill-rule:nonzero;stroke:none"
         id="path122"
         inkscape:connector-curvature="0" /><path
         d="m 332.8213,486.6065 c 0,0 0.365,-0.059 1.191,-0.231 0.519,7.442 2.249,17.653 7.515,19.671 7.821,3.117 25.366,7.596 48.081,-3.634 2.258,3.23 3.42,5.596 3.42,5.596 -24.751,14.211 -44.064,9.404 -52.404,6.116 -8.437,-3.309 -7.803,-27.518 -7.803,-27.518"
         style="fill:#5a331c;fill-opacity:1;fill-rule:nonzero;stroke:none"
         id="path126"
         inkscape:connector-curvature="0" /><path
         d="m 271.1631,486.5128 c -3.879,-0.562 -18.628,-2.426 -32.621,-0.541 -15.121,2.017 -25.55,20.721 -26.942,23.344 -1.972,-3.366 -2.911,-7.434 -2.911,-11.386 0,-14.576 14.958,-26.393 33.41,-26.393 13.103,0 24.58,6.453 30.053,15.126 l -0.989,-0.15 z"
         style="fill:#844d27;fill-opacity:1;fill-rule:nonzero;stroke:none"
         id="path130"
         inkscape:connector-curvature="0" /><path
         d="m 393.0284,508.0089 c -1.252,-2.397 -11.372,-20.874 -26.558,-22.652 -16.257,-1.923 -33.63,1.172 -33.63,1.172 0,0 0,0.026 0,0.042 l -0.175,-0.027 c 3.801,-11.27 16.795,-19.575 32.247,-19.575 18.433,0 33.378,11.816 33.378,26.393 0,5.306 -1.853,10.508 -5.262,14.647"
         style="fill:#965d2e;fill-opacity:1;fill-rule:nonzero;stroke:none"
         id="path134"
         inkscape:connector-curvature="0" /><path
         d="m 347.5996,415.462 c 6.728,16.295 -4.407,36.326 -24.896,44.785"
         style="fill:none;stroke:#7c4a27;stroke-width:2.45911169;stroke-linecap:butt;stroke-linejoin:miter;stroke-miterlimit:10;stroke-dasharray:none;stroke-opacity:1"
         id="path138"
         inkscape:connector-curvature="0" /><path
         d="m 264.4004,415.462 c -6.728,16.295 4.407,36.326 24.896,44.785"
         style="fill:none;stroke:#7c4a27;stroke-width:2.45911169;stroke-linecap:butt;stroke-linejoin:miter;stroke-miterlimit:10;stroke-dasharray:none;stroke-opacity:1"
         id="path142"
         inkscape:connector-curvature="0" /><path
         d="m 362.6045,677.1192 c 1.175,3.106 1.862,6.352 1.862,9.728 0,12.589 -8.753,23.726 -22.221,30.721 1.14,2.402 1.793,4.95 1.793,7.613 0,13.32 -15.505,24.118 -34.628,24.118 -19.133,0 -34.637,-10.798 -34.637,-24.118 0,-2.654 0.643,-5.211 1.792,-7.613 -13.459,-6.995 -22.221,-18.132 -22.221,-30.721 0,-2.611 0.383,-5.16 1.096,-7.631 -71.265,-24.77 -72.666,-104.945 -68.377,-162.438 2.784,-2.41 6.317,-5.733 8.519,-11.667 3.819,-10.137 5.306,-8.388 5.306,-8.388 0,0 -6.055,39.701 -6.055,50.742 0,10.963 34.549,92.651 53.787,99.212 19.053,6.394 37.081,-15.079 57.405,-15.496 l 1.636,0 c 20.724,0 38.064,21.968 57.388,15.496 19.272,-6.561 53.829,-88.249 53.829,-99.212 0,-11.041 -6.072,-50.742 -6.072,-50.742 0,0 1.453,-1.749 5.316,8.388 1.871,5.029 4.655,8.109 7.099,10.51 4.316,56.005 3.541,134.352 -62.617,161.498"
         style="fill:#979797;fill-opacity:1;fill-rule:nonzero;stroke:none"
         id="path146"
         inkscape:connector-curvature="0" /></g></g></svg>