<?xml version="1.0" encoding="UTF-8" standalone="no"?>
<!-- Created with Inkscape (http://www.inkscape.org/) -->

<svg
   xmlns:dc="http://purl.org/dc/elements/1.1/"
   xmlns:cc="http://creativecommons.org/ns#"
   xmlns:rdf="http://www.w3.org/1999/02/22-rdf-syntax-ns#"
   xmlns:svg="http://www.w3.org/2000/svg"
   xmlns="http://www.w3.org/2000/svg"
   xmlns:sodipodi="http://sodipodi.sourceforge.net/DTD/sodipodi-0.dtd"
   xmlns:inkscape="http://www.inkscape.org/namespaces/inkscape"
   id="svg2"
   version="1.1"
   inkscape:version="0.91 r13725"
   xml:space="preserve"
   width="400"
   height="600"
   viewBox="0 0 400 600"
   sodipodi:docname="will.svg"
   inkscape:export-filename="/home/alec/Projects/Brookings/out-of-work/data/avatars/will.png"
   inkscape:export-xdpi="90"
   inkscape:export-ydpi="90"><metadata
     id="metadata8"><rdf:RDF><cc:Work
         rdf:about=""><dc:format>image/svg+xml</dc:format><dc:type
           rdf:resource="http://purl.org/dc/dcmitype/StillImage" /><dc:title /></cc:Work></rdf:RDF></metadata><defs
     id="defs6"><clipPath
       clipPathUnits="userSpaceOnUse"
       id="clipPath20"><path
         d="M 0,792 612,792 612,0 0,0 0,792 Z"
         id="path22"
         inkscape:connector-curvature="0" /></clipPath></defs><sodipodi:namedview
     pagecolor="#ffffff"
     bordercolor="#666666"
     borderopacity="1"
     objecttolerance="10"
     gridtolerance="10"
     guidetolerance="10"
     inkscape:pageopacity="0"
     inkscape:pageshadow="2"
     inkscape:window-width="1836"
     inkscape:window-height="828"
     id="namedview4"
     showgrid="false"
     inkscape:zoom="0.47676768"
     inkscape:cx="-332.30879"
     inkscape:cy="476.0712"
     inkscape:window-x="69"
     inkscape:window-y="34"
     inkscape:window-maximized="0"
     inkscape:current-layer="g10" /><g
     id="g10"
     inkscape:groupmode="layer"
     inkscape:label="AvatarsR2"
     transform="matrix(1.25,0,0,-1.25,0,600)"><text
       transform="scale(1,-1)"
       style="font-variant:normal;font-weight:300;font-stretch:normal;font-size:13px;font-family:Interstate-Light;-inkscape-font-specification:Interstate-Light;writing-mode:lr-tb;fill:#231f20;fill-opacity:1;fill-rule:nonzero;stroke:none"
       id="text12"
       x="66.818451"
       y="48.63522"><tspan
         x="66.818451 73.968445 81.326447 88.697449 96.068451 103.33545 106.45545 109.83545 113.09845 119.98715 125.92945 131.74045 135.92645 142.94644 150.21344 157.58444 163.79845 170.80545 175.38145 182.40144 189.66844 192.78845 196.16846 203.17545 210.54645 217.81345 221.19345 228.46045 231.72345 238.27545 245.29546 250.32645 256.26746 263.28745"
         y="48.63522"
         sodipodi:role="line"
         id="tspan14">Young, less-educated, and diverse </tspan></text>
<text
       transform="scale(1,-1)"
       style="font-variant:normal;font-weight:normal;font-stretch:normal;font-size:34px;font-family:'Myriad Pro';-inkscape-font-specification:MyriadPro-Regular;writing-mode:lr-tb;fill:#231f20;fill-opacity:1;fill-rule:nonzero;stroke:none"
       id="text24"
       x="141.93234"
       y="85.635231"><tspan
         x="141.93234 170.15234 178.10834 186.13235 194.15634"
         y="85.635231"
         sodipodi:role="line"
         id="tspan26">Will </tspan></text>
<g
       id="g4391"
       transform="matrix(1.0105377,0,0,1.0105377,-149.95369,-222.85577)"><g
         transform="translate(306.1199,443.6779)"
         id="g28"><path
           inkscape:connector-curvature="0"
           id="path30"
           style="fill:#5a2d1e;fill-opacity:1;fill-rule:nonzero;stroke:none"
           d="m 0,0 0,-195.438 -106.093,0 c -1.716,0.757 -2.602,1.122 -2.602,1.122 0,104.84 64.945,112.673 64.945,112.673 6.475,0 10.639,8.329 13.396,20.992 0.447,1.952 0.822,3.961 1.123,6.116 0.593,3.579 1.105,7.377 1.48,11.33 0.228,2.383 0.439,4.767 0.666,7.223 0.822,9.76 1.123,20.26 1.196,30.467 0.074,2.319 0.074,4.62 0.074,6.922 C -25.815,1.407 -11.533,0 0,0" /></g><g
         transform="translate(415.1893,249.362)"
         id="g32"><path
           inkscape:connector-curvature="0"
           id="path34"
           style="fill:#66321f;fill-opacity:1;fill-rule:nonzero;stroke:none"
           d="m 0,0 c 0,0 -0.969,-0.365 -2.521,-1.122 l -106.548,0 0,195.438 0.227,0 c 11.526,0 25.889,1.407 25.889,1.407 0,-2.676 0,-5.352 0.073,-8.044 0.073,-9.744 0.447,-19.723 1.195,-29.044 0.212,-2.384 0.44,-4.767 0.667,-7.085 0.44,-4.083 0.895,-7.97 1.489,-11.614 l 0,-0.09 c 0.219,-1.626 0.512,-3.123 0.813,-4.611 2.758,-13.486 7.076,-22.562 13.771,-22.562 C -64.945,112.673 0,104.84 0,0" /></g><g
         transform="translate(335.6688,389.2897)"
         id="g36"><path
           inkscape:connector-curvature="0"
           id="path38"
           style="fill:#331c16;fill-opacity:1;fill-rule:nonzero;stroke:none"
           d="m 0,0 0,-0.089 c -2.604,-4.165 -11.599,-16.007 -29.387,-16.007 l -0.137,0 c -16.894,0.065 -26.719,12.363 -29.241,15.933 0.594,3.579 1.099,7.369 1.481,11.338 0.22,2.367 0.456,4.758 0.667,7.215 8.263,-2.082 17.194,-3.343 26.783,-3.498 l 0.31,0 c 9.816,0.155 18.885,1.489 27.369,3.798 0.218,-2.382 0.455,-4.766 0.666,-7.084 C -1.033,7.515 -0.603,3.636 0,0" /></g><g
         transform="translate(306.4451,667.8185)"
         id="g40"><path
           inkscape:connector-curvature="0"
           id="path42"
           style="fill:#5a2d1e;fill-opacity:1;fill-rule:nonzero;stroke:none"
           d="m 0,0 c -112.388,0 -113.022,-94.217 -108.028,-155.877 -7.702,14.616 -30.508,10.094 -28.646,-12.924 1.806,-22.18 34.022,-33.64 33.574,-31.07 9.207,-50.736 62.091,-80.048 103.1,-80.048 0.276,0 0.577,0.048 0.854,0.048 l 0,279.847 C 0.569,-0.024 0.276,0 0,0" /></g><g
         transform="translate(176.9529,508.7531)"
         id="g44"><path
           inkscape:connector-curvature="0"
           id="path46"
           style="fill:#331c16;fill-opacity:1;fill-rule:nonzero;stroke:none"
           d="m 0,0 c 5.571,8.89 14.119,5.051 16.234,3.099 2.237,-2.139 4.01,-4.961 2.627,-10.207 -0.781,-2.961 -3.895,-3.197 -3.123,-7.686 0.829,-5.06 3.164,-5.369 4.49,-6.523 1.309,-1.147 2.968,-2.026 3.79,-4.165 0.797,-2.122 0.943,-4.392 0.496,-6.344 -0.862,-3.635 -6.141,-0.74 -9.695,0.87 -2.326,1.066 -9.744,7.345 -11.615,9.468 C -1.529,-16.169 -3.709,-5.921 0,0" /></g><g
         transform="translate(306.9979,667.8185)"
         id="g48"><path
           inkscape:connector-curvature="0"
           id="path50"
           style="fill:#66321f;fill-opacity:1;fill-rule:nonzero;stroke:none"
           d="m 0,0 c 112.388,0 113.03,-94.217 108.021,-155.877 7.709,14.616 30.516,10.094 28.653,-12.924 -1.814,-22.18 -34.03,-33.64 -33.574,-31.07 -9.207,-50.736 -62.099,-80.048 -103.1,-80.048 -0.276,0 -0.585,0.048 -0.854,0.048 l 0,279.847 C -0.569,-0.024 -0.276,0 0,0" /></g><g
         transform="translate(436.4901,508.7531)"
         id="g52"><path
           inkscape:connector-curvature="0"
           id="path54"
           style="fill:#331c16;fill-opacity:1;fill-rule:nonzero;stroke:none"
           d="m 0,0 c -5.547,8.89 -14.128,5.051 -16.234,3.099 -2.237,-2.139 -3.994,-4.961 -2.627,-10.207 0.781,-2.961 3.887,-3.197 3.132,-7.686 -0.823,-5.06 -3.165,-5.369 -4.499,-6.523 -1.309,-1.147 -2.968,-2.026 -3.798,-4.165 -0.781,-2.122 -0.944,-4.392 -0.496,-6.344 0.862,-3.635 6.157,-0.74 9.695,0.87 2.343,1.066 9.752,7.345 11.631,9.468 C 1.521,-16.169 3.701,-5.921 0,0" /></g><g
         transform="translate(305.4686,641.2546)"
         id="g56"><path
           inkscape:connector-curvature="0"
           id="path58"
           style="fill:#5a2d1e;fill-opacity:1;fill-rule:nonzero;stroke:none"
           d="m 0,0 c -36.982,0 -64.034,-10.752 -80.431,-31.988 -22.88,-29.647 -22.001,-74.934 -13.558,-107.443 2.57,-9.939 3.904,-36.714 5.676,-46.548 7.988,-43.96 56.422,-67.376 88.313,-67.376 0.277,0 0.578,0.048 0.854,0.048 l 0,253.275 C 0.569,-0.032 0.293,0 0,0" /></g><g
         transform="translate(385.7293,609.2253)"
         id="g60"><path
           inkscape:connector-curvature="0"
           id="path62"
           style="fill:#66321f;fill-opacity:1;fill-rule:nonzero;stroke:none"
           d="m 0,0 c -16.259,21.09 -43.018,31.826 -79.406,31.997 l 0,-253.274 c 36.422,0.39 79.96,26.043 87.442,67.328 1.774,9.833 3.099,36.608 5.686,46.547 C 22.131,-74.974 22.961,-29.744 0,0" /></g><g
         transform="translate(209.4861,426.9474)"
         id="g64"><path
           inkscape:connector-curvature="0"
           id="path66"
           style="fill:#ffffff;fill-opacity:1;fill-rule:nonzero;stroke:none"
           d="M 0,0 C 0.464,-0.561 0.351,-0.391 -0.146,0.285 -0.089,0.203 -0.049,0.065 0,0" /></g><g
         transform="translate(404.8592,311.6154)"
         id="g68"><path
           inkscape:connector-curvature="0"
           id="path70"
           style="fill:#5da532;fill-opacity:1;fill-rule:nonzero;stroke:none"
           d="m 0,0 c -18.324,46.027 -54.615,50.419 -54.615,50.419 l -0.594,0 c -2.619,4.01 -4.246,8.483 -3.498,13.03 0.813,4.685 -8.719,5.262 -8.719,5.262 0,0 0.252,-0.992 0.48,-1.374 0.073,-1.481 0.911,-4.962 -2.244,-6.727 -2.913,-1.626 -8.704,-4.261 -19.382,-5.327 -0.977,-0.097 -1.993,-0.187 -3.059,-0.26 -0.317,-0.017 -0.626,-0.041 -0.96,-0.057 -1.894,-0.106 -3.855,-0.155 -5.921,-0.155 -17.275,0 -24.481,2.009 -28.271,4.091 -1.79,0.968 -4.62,4.026 -2.758,10.737 0,0 -3.944,0.667 -8.849,-2.628 -4.994,-3.269 3.123,-5.725 0.22,-9.979 -2.074,-3.123 -2.31,-4.319 -4.319,-6.613 l -0.073,0 c -1.782,-0.276 -24.547,-3.904 -42.603,-28.548 -12.208,-16.641 -22.27,-42.855 -22.27,-84.124 0,0 0.887,-0.366 2.603,-1.122 l 212.641,0 c 1.552,0.756 2.521,1.122 2.521,1.122 C 10.33,-35.795 6.189,-15.526 0,0" /></g><g
         transform="translate(335.6356,404.6159)"
         id="g72"><path
           inkscape:connector-curvature="0"
           id="path74"
           style="fill:#151312;fill-opacity:1;fill-rule:nonzero;stroke:none"
           d="m 0,0 c -6.604,-4.668 -16.877,-7.67 -28.435,-7.67 -11.419,0 -21.569,2.937 -28.181,7.491 -1.513,4.596 -2.416,10.102 -2.416,16.055 0,2.498 0.163,16.877 0.447,19.187 7.922,1.692 22.66,-7.238 29.565,0.936 6.694,-8.134 21,-0.269 30.989,-1.383 C 2.229,32.444 2.367,18.219 2.367,15.876 2.367,9.988 1.473,4.555 0,0 m 8.89,44.132 c -0.666,3.709 -2.554,7.003 -5.343,9.516 -1.099,1.114 -2.27,1.96 -3.498,2.448 -2.383,1.285 -5.149,2.123 -8.231,2.351 -3.335,0.244 -7.125,0.171 -11.24,0.032 -11.435,-0.398 -23.962,-0.504 -33.835,-0.593 -1.773,-0.496 -3.425,-1.383 -4.921,-2.53 -0.041,-0.024 -0.082,-0.057 -0.122,-0.081 -0.057,-0.049 -0.114,-0.09 -0.171,-0.138 -5.539,-3.807 -9.549,-26.548 -9.549,-39.261 0,-8.393 1.757,-15.925 4.547,-21.195 3.856,-8.711 18.056,-15.169 35.038,-15.169 12.828,0 24.076,3.693 30.477,9.256 5.408,3.953 9.305,14.583 9.305,27.108 0,6.052 -0.911,23.62 -2.457,28.256" /></g><g
         transform="translate(329.1297,422.6628)"
         id="g76"><path
           inkscape:connector-curvature="0"
           id="path78"
           style="fill:#bf5e63;fill-opacity:1;fill-rule:nonzero;stroke:none"
           d="m 0,0 c 0,0 -10.267,-14.19 -22.93,-14.19 -12.633,0 -22.294,13.897 -22.294,13.897 0,0 9.661,2.166 22.294,2.166 C -10.267,1.873 0,0 0,0" /></g><g
         transform="translate(312.6922,429.2321)"
         id="g80"><path
           inkscape:connector-curvature="0"
           id="path82"
           style="fill:#963f41;fill-opacity:1;fill-rule:nonzero;stroke:none"
           d="M 0,0 C -3.568,0 -6.398,-2.844 -6.492,-6.437 -6.54,-2.844 -9.394,0 -12.954,0 c -3.593,0 -16.445,-6.569 -16.445,-6.569 0,0 12.545,-1.681 16.123,-1.681 3.584,0 6.736,-1.862 6.784,1.63 0.062,-3.492 2.656,-2.115 6.233,-2.115 3.545,0 16.696,2.166 16.696,2.166 C 16.437,-6.569 3.616,0 0,0" /></g><g
         transform="translate(285.0994,480.4586)"
         id="g84"><path
           inkscape:connector-curvature="0"
           id="path86"
           style="fill:#331c16;fill-opacity:1;fill-rule:nonzero;stroke:none"
           d="M 0,0 C -0.433,6.032 16.209,2.204 21.695,2.015 26.03,1.864 39.22,3.916 40.353,3.387 48.111,-0.188 32.133,-7.392 21.419,-7.392 18.565,-7.392 0.259,-3.638 0,0" /></g><g
         transform="translate(227.7996,543.4865)"
         id="g88"><path
           inkscape:connector-curvature="0"
           id="path90"
           style="fill:#ffffff;fill-opacity:1;fill-rule:nonzero;stroke:none"
           d="m 0,0 c 0,0 10.511,-20.885 26.577,-23.028 16.065,-2.163 33.154,0.683 33.154,0.683 0,0 -1.128,21.13 -9.487,24.525 C 41.883,5.595 24.077,10.18 0,0" /></g><g
         transform="translate(273.741,535.1066)"
         id="g92"><path
           inkscape:connector-curvature="0"
           id="path94"
           style="fill:#55301b;fill-opacity:1;fill-rule:nonzero;stroke:none"
           d="m 0,0 c -0.761,-8.192 -7.786,-14.357 -15.689,-13.766 -7.913,0.57 -13.695,7.685 -12.934,15.856 0.76,8.193 7.786,14.378 15.698,13.787 C -5.032,15.286 0.77,8.191 0,0" /></g><g
         transform="translate(258.991,527.759)"
         id="g96"><path
           inkscape:connector-curvature="0"
           id="path98"
           style="fill:#191e22;fill-opacity:1;fill-rule:nonzero;stroke:none"
           d="m 0,0 c -2.933,0.211 -5.929,3.547 -5.549,7.707 0.39,4.138 3.967,6.988 6.9,6.778 C 4.283,14.273 7.289,10.937 6.899,6.778 6.51,2.639 2.943,-0.211 0,0" /></g><g
         transform="translate(287.5506,521.1989)"
         id="g100"><path
           inkscape:connector-curvature="0"
           id="path102"
           style="fill:#281814;fill-opacity:1;fill-rule:nonzero;stroke:none"
           d="m 0,0 c 0,0 -0.361,-0.038 -1.176,-0.19 -0.635,7.417 -2.512,17.66 -7.724,19.765 -7.763,3.224 -25.156,7.948 -47.392,-2.922 -2.266,3.244 -3.449,5.692 -3.449,5.692 24.187,13.827 43.314,8.688 51.599,5.273 C 0.236,24.184 0,0 0,0" /></g><g
         transform="translate(388.9373,540.6696)"
         id="g104"><path
           inkscape:connector-curvature="0"
           id="path106"
           style="fill:#ffffff;fill-opacity:1;fill-rule:nonzero;stroke:none"
           d="m 0,0 c 0,0 -10.16,-20.467 -26.198,-22.345 -16.037,-1.897 -33.174,1.157 -33.174,1.157 0,0 1.931,21.941 10.234,25.185 C -40.836,7.259 -24.394,9.525 0,0" /></g><g
         transform="translate(339.8729,533.1872)"
         id="g108"><path
           inkscape:connector-curvature="0"
           id="path110"
           style="fill:#55301b;fill-opacity:1;fill-rule:nonzero;stroke:none"
           d="m 0,0 c 0.793,-8.446 8.133,-14.797 16.375,-14.202 8.267,0.597 14.304,7.94 13.511,16.365 C 29.093,10.632 21.754,16.983 13.5,16.387 5.245,15.792 -0.816,8.448 0,0" /></g><g
         transform="translate(355.2781,525.6237)"
         id="g112"><path
           inkscape:connector-curvature="0"
           id="path114"
           style="fill:#191e22;fill-opacity:1;fill-rule:nonzero;stroke:none"
           d="M 0,0 C 3.064,0.222 6.193,3.639 5.798,7.939 5.389,12.219 1.653,15.151 -1.41,14.931 -4.474,14.711 -7.604,11.27 -7.207,6.991 -6.798,2.713 -3.063,-0.22 0,0" /></g><g
         transform="translate(337.243,546.7014)"
         id="g116"><path
           inkscape:connector-curvature="0"
           id="path118"
           style="fill:#281814;fill-opacity:1;fill-rule:nonzero;stroke:none"
           d="m 0,0 c -6.733,-2.64 -7.609,-18.775 -7.698,-24.839 l 0,10e-4 -0.071,-2.393 1.241,-0.219 0.006,0.078 0.001,0 c 0.511,7.341 2.217,17.414 7.413,19.405 7.714,3.073 25.021,7.492 47.428,-3.585 2.228,3.186 3.374,5.576 3.374,5.576 C 27.278,8.043 8.227,3.244 0,0" /></g><g
         transform="translate(384.2752,563.5129)"
         id="g120"><path
           inkscape:connector-curvature="0"
           id="path122"
           style="fill:#231f20;fill-opacity:1;fill-rule:nonzero;stroke:none"
           d="m 0,0 c -0.356,0.246 -0.744,0.551 -1.173,0.888 -1.116,0.877 -2.507,1.968 -4.278,2.827 -2.581,1.524 -5.613,2.871 -8.81,3.907 -4.129,1.104 -7.751,1.68 -11.089,1.764 -3.67,0.005 -7.545,-0.492 -11.211,-1.437 -2.971,-0.787 -6.021,-2.037 -9.063,-3.717 -4.84,-2.669 -7.451,-5.537 -7.649,-5.758 l -0.049,-0.052 c -0.89,-1.005 -0.927,-2.503 -0.089,-3.562 0.476,-0.605 0.973,-3.295 1.747,-3.398 l 0.002,-10e-4 c 0.774,-0.102 1.539,0.095 2.155,0.554 l 0.028,0.019 c 0.241,0.176 2.713,1.954 6.996,3.968 2.169,1.14 4.916,2.029 7.764,2.911 3.031,0.895 6.266,1.421 9.397,1.524 2.807,0.244 5.963,0.093 9.597,-0.429 l 1.454,-0.296 c 1.057,-0.215 2.083,-0.424 3.089,-0.625 0.889,-0.16 1.733,-0.441 2.549,-0.713 0.476,-0.16 0.942,-0.315 1.403,-0.443 1.973,-0.552 3.629,-1.219 4.96,-1.754 0.348,-0.14 0.672,-0.27 0.982,-0.39 L 5.359,-4.304 0,0 Z" /></g><g
         transform="translate(384.2752,563.5129)"
         id="g124"><path
           inkscape:connector-curvature="0"
           id="path126"
           style="fill:none;stroke:#231f20;stroke-width:8.90614891;stroke-linecap:round;stroke-linejoin:round;stroke-miterlimit:10;stroke-dasharray:none;stroke-opacity:1"
           d="m 0,0 c -0.356,0.246 -0.744,0.551 -1.173,0.888 -1.116,0.877 -2.507,1.968 -4.278,2.827 -2.581,1.524 -5.613,2.871 -8.81,3.907 -4.129,1.104 -7.751,1.68 -11.089,1.764 -3.67,0.005 -7.545,-0.492 -11.211,-1.437 -2.971,-0.787 -6.021,-2.037 -9.063,-3.717 -4.84,-2.669 -7.451,-5.537 -7.649,-5.758 l -0.049,-0.052 c -0.89,-1.005 -0.927,-2.503 -0.089,-3.562 0.476,-0.605 0.973,-3.295 1.747,-3.398 l 0.002,-10e-4 c 0.774,-0.102 1.539,0.095 2.155,0.554 l 0.028,0.019 c 0.241,0.176 2.713,1.954 6.996,3.968 2.169,1.14 4.916,2.029 7.764,2.911 3.031,0.895 6.266,1.421 9.397,1.524 2.807,0.244 5.963,0.093 9.597,-0.429 l 1.454,-0.296 c 1.057,-0.215 2.083,-0.424 3.089,-0.625 0.889,-0.16 1.733,-0.441 2.549,-0.713 0.476,-0.16 0.942,-0.315 1.403,-0.443 1.973,-0.552 3.629,-1.219 4.96,-1.754 0.348,-0.14 0.672,-0.27 0.982,-0.39 L 5.359,-4.304 0,0 Z" /></g><g
         transform="translate(235.3387,563.5129)"
         id="g128"><path
           inkscape:connector-curvature="0"
           id="path130"
           style="fill:#231f20;fill-opacity:1;fill-rule:nonzero;stroke:none"
           d="m 0,0 c 0.356,0.246 0.745,0.551 1.173,0.888 1.117,0.877 2.507,1.968 4.278,2.827 2.581,1.524 5.614,2.871 8.81,3.907 4.129,1.104 7.751,1.68 11.09,1.764 3.669,0.005 7.544,-0.492 11.21,-1.437 2.972,-0.787 6.021,-2.037 9.064,-3.717 4.84,-2.669 7.451,-5.537 7.648,-5.758 l 0.049,-0.052 c 0.89,-1.005 0.927,-2.503 0.089,-3.562 -0.476,-0.605 -0.973,-3.295 -1.747,-3.398 l -0.002,-10e-4 c -0.773,-0.102 -1.539,0.095 -2.155,0.554 l -0.027,0.019 c -0.242,0.176 -2.714,1.954 -6.997,3.968 -2.169,1.14 -4.915,2.029 -7.763,2.911 -3.032,0.895 -6.266,1.421 -9.397,1.524 C 22.515,0.681 19.359,0.53 15.725,0.008 L 14.271,-0.288 C 13.215,-0.503 12.188,-0.712 11.182,-0.913 10.293,-1.073 9.449,-1.354 8.633,-1.626 8.157,-1.786 7.691,-1.941 7.23,-2.069 5.257,-2.621 3.602,-3.288 2.27,-3.823 1.923,-3.963 1.599,-4.093 1.288,-4.213 L -5.358,-4.304 0,0 Z" /></g><g
         transform="translate(235.3387,563.5129)"
         id="g132"><path
           inkscape:connector-curvature="0"
           id="path134"
           style="fill:none;stroke:#231f20;stroke-width:8.90614891;stroke-linecap:round;stroke-linejoin:round;stroke-miterlimit:10;stroke-dasharray:none;stroke-opacity:1"
           d="m 0,0 c 0.356,0.246 0.745,0.551 1.173,0.888 1.117,0.877 2.507,1.968 4.278,2.827 2.581,1.524 5.614,2.871 8.81,3.907 4.129,1.104 7.751,1.68 11.09,1.764 3.669,0.005 7.544,-0.492 11.21,-1.437 2.972,-0.787 6.021,-2.037 9.064,-3.717 4.84,-2.669 7.451,-5.537 7.648,-5.758 l 0.049,-0.052 c 0.89,-1.005 0.927,-2.503 0.089,-3.562 -0.476,-0.605 -0.973,-3.295 -1.747,-3.398 l -0.002,-10e-4 c -0.773,-0.102 -1.539,0.095 -2.155,0.554 l -0.027,0.019 c -0.242,0.176 -2.714,1.954 -6.997,3.968 -2.169,1.14 -4.915,2.029 -7.763,2.911 -3.032,0.895 -6.266,1.421 -9.397,1.524 C 22.515,0.681 19.359,0.53 15.725,0.008 L 14.271,-0.288 C 13.215,-0.503 12.188,-0.712 11.182,-0.913 10.293,-1.073 9.449,-1.354 8.633,-1.626 8.157,-1.786 7.691,-1.941 7.23,-2.069 5.257,-2.621 3.602,-3.288 2.27,-3.823 1.923,-3.963 1.599,-4.093 1.288,-4.213 L -5.358,-4.304 0,0 Z" /></g><g
         transform="translate(230.827,545.1857)"
         id="g136"><path
           inkscape:connector-curvature="0"
           id="path138"
           style="fill:#281814;fill-opacity:1;fill-rule:nonzero;stroke:none"
           d="M 0,0 -3.45,-1.769 0.391,-7.405 5.508,-3.228 0,0 Z" /></g><g
         transform="translate(286.3172,521.6486)"
         id="g140"><path
           inkscape:connector-curvature="0"
           id="path142"
           style="fill:#281814;fill-opacity:1;fill-rule:nonzero;stroke:none"
           d="M 0,0 0.055,-0.683 1.234,-0.538 1.214,0.274 0,0 Z" /></g></g></g></svg>