<?xml version="1.0" encoding="UTF-8" standalone="no"?>
<!-- Created with Inkscape (http://www.inkscape.org/) -->

<svg
   xmlns:dc="http://purl.org/dc/elements/1.1/"
   xmlns:cc="http://creativecommons.org/ns#"
   xmlns:rdf="http://www.w3.org/1999/02/22-rdf-syntax-ns#"
   xmlns:svg="http://www.w3.org/2000/svg"
   xmlns="http://www.w3.org/2000/svg"
   xmlns:sodipodi="http://sodipodi.sourceforge.net/DTD/sodipodi-0.dtd"
   xmlns:inkscape="http://www.inkscape.org/namespaces/inkscape"
   width="100"
   height="100"
   viewBox="0 0 99.999999 99.999993"
   id="svg4588"
   version="1.1"
   inkscape:version="0.91 r13725"
   sodipodi:docname="hand.svg"
   inkscape:export-filename="/home/alec/Projects/Brookings/out-of-work/data/avatars/hand_icon.png"
   inkscape:export-xdpi="300.02701"
   inkscape:export-ydpi="300.02701">
  <defs
     id="defs4590" />
  <sodipodi:namedview
     id="base"
     pagecolor="#ffffff"
     bordercolor="#666666"
     borderopacity="1.0"
     inkscape:pageopacity="0.0"
     inkscape:pageshadow="2"
     inkscape:zoom="0.98994949"
     inkscape:cx="-220.14935"
     inkscape:cy="-10.099872"
     inkscape:document-units="px"
     inkscape:current-layer="layer1"
     showgrid="false"
     fit-margin-top="0"
     fit-margin-left="0"
     fit-margin-right="0"
     fit-margin-bottom="0"
     units="px"
     inkscape:window-width="1476"
     inkscape:window-height="739"
     inkscape:window-x="2132"
     inkscape:window-y="190"
     inkscape:window-maximized="0" />
  <metadata
     id="metadata4593">
    <rdf:RDF>
      <cc:Work
         rdf:about="">
        <dc:format>image/svg+xml</dc:format>
        <dc:type
           rdf:resource="http://purl.org/dc/dcmitype/StillImage" />
        <dc:title />
      </cc:Work>
    </rdf:RDF>
  </metadata>
  <g
     inkscape:label="Layer 1"
     inkscape:groupmode="layer"
     id="layer1"
     transform="translate(-261.26349,-444.37968)">
    <g
       transform="matrix(-0.50164442,-0.61576953,0.6160099,-0.50144867,76.174553,-29.768948)"
       style="font-style:normal;font-variant:normal;font-weight:normal;font-stretch:normal;font-size:18.75px;line-height:125%;font-family:Inconsolata;-inkscape-font-specification:'Inconsolata, Normal';text-align:start;letter-spacing:0px;word-spacing:0px;writing-mode:lr-tb;text-anchor:start;fill:#808080;fill-opacity:1;stroke:#ffffff;stroke-width:1.25901353px;stroke-linecap:butt;stroke-linejoin:miter;stroke-opacity:1"
       id="text7453">
      <path
         d="m -764.67514,-178.27285 c -2.25845,-20.6749 8.34008,-29.33163 20.2903,-36.43164 10.23144,-6.07883 8.92263,-5.07785 22.71149,-14.41398 8.29738,-5.61797 17.31935,-4.71876 25.53994,-5.08748 4.35971,-0.19555 9.86154,-0.43839 14.84194,-0.64344 5.27341,-0.21712 9.01685,-0.83516 11.14638,-0.86657 13.45728,11.43094 -28.92988,20.55047 -28.92988,20.55047 l 62.22402,1.2609 c 1.22045,0.0247 2.41088,0.36621 3.57055,1.09864 1.15967,0.73242 2.0752,1.83105 2.74659,3.29589 0.67139,1.46485 1.00708,2.99073 1.00708,4.57764 0,2.50244 -0.73242,4.63867 -2.19727,6.40869 -1.40381,1.70899 -3.11279,2.56348 -5.12695,2.56348 l -53.37525,0 0.18311,0.82397 23.52905,0 c 1.0376,0.12207 2.01416,0.5188 2.92969,1.19019 1.15967,0.79345 2.07519,1.9226 2.74658,3.38745 0.73242,1.40381 1.09863,2.83813 1.09863,4.30298 0,2.50244 -0.73242,4.63867 -2.19726,6.40869 -1.46485,1.70899 -3.75367,2.56348 -6.86646,2.56348 l -17.94433,0 0.0916,0.91552 12.54272,0 c 1.15967,0 2.31934,0.39673 3.47901,1.19019 1.2207,0.79346 2.16674,1.92261 2.83813,3.38745 0.67139,1.40381 1.00708,2.86865 1.00708,4.39453 0,2.50244 -0.73242,4.63867 -2.19726,6.40869 -1.15967,1.46485 -2.83813,2.2583 -5.0354,2.38037 l -9.42993,0 0.27465,1.00708 3.75367,0 c 0.85449,0.18311 1.70898,0.54932 2.56347,1.09864 1.15967,0.73242 2.04468,1.83105 2.65503,3.2959 0.67139,1.40381 1.00708,2.89917 1.00708,4.48608 0,2.44141 -0.7019,4.54712 -2.10571,6.31714 -1.40381,1.77002 -3.11279,2.65503 -5.12695,2.65503 0,0 -39.11602,-3.81336 -57.37053,-10.50184 -17.8539,-6.5417 -23.7335,0.73113 -26.87461,-28.02414 z"
         style="font-size:187.5px;fill:#808080;fill-opacity:1;stroke:#ffffff;stroke-width:1.25901353px"
         id="path7458"
         inkscape:connector-curvature="0"
         sodipodi:nodetypes="sssssccsssscscccccscsccsccscccccccsssss" />
    </g>
  </g>
</svg>
