<?xml version="1.0" encoding="UTF-8" standalone="no"?>
<!-- Created with Inkscape (http://www.inkscape.org/) -->

<svg
   xmlns:dc="http://purl.org/dc/elements/1.1/"
   xmlns:cc="http://creativecommons.org/ns#"
   xmlns:rdf="http://www.w3.org/1999/02/22-rdf-syntax-ns#"
   xmlns:svg="http://www.w3.org/2000/svg"
   xmlns="http://www.w3.org/2000/svg"
   xmlns:sodipodi="http://sodipodi.sourceforge.net/DTD/sodipodi-0.dtd"
   xmlns:inkscape="http://www.inkscape.org/namespaces/inkscape"
   id="svg2"
   version="1.1"
   inkscape:version="0.91 r13725"
   xml:space="preserve"
   width="400"
   height="600"
   viewBox="0 0 400 600"
   sodipodi:docname="Avatar1.svg"
   inkscape:export-filename="/home/alec/Projects/Brookings/out-of-work/build/wireframes/avatar1.png"
   inkscape:export-xdpi="90"
   inkscape:export-ydpi="90"><metadata
     id="metadata8"><rdf:RDF><cc:Work
         rdf:about=""><dc:format>image/svg+xml</dc:format><dc:type
           rdf:resource="http://purl.org/dc/dcmitype/StillImage" /><dc:title></dc:title></cc:Work></rdf:RDF></metadata><defs
     id="defs6"><clipPath
       clipPathUnits="userSpaceOnUse"
       id="clipPath16"><path
         d="M 0,792 612,792 612,0 0,0 0,792 Z"
         id="path18"
         inkscape:connector-curvature="0" /></clipPath><clipPath
       clipPathUnits="userSpaceOnUse"
       id="clipPath86"><path
         d="M 0,792 612,792 612,0 0,0 0,792 Z"
         id="path88"
         inkscape:connector-curvature="0" /></clipPath></defs><sodipodi:namedview
     pagecolor="#ffffff"
     bordercolor="#666666"
     borderopacity="1"
     objecttolerance="10"
     gridtolerance="10"
     guidetolerance="10"
     inkscape:pageopacity="0"
     inkscape:pageshadow="2"
     inkscape:window-width="1561"
     inkscape:window-height="793"
     id="namedview4"
     showgrid="false"
     fit-margin-top="0"
     fit-margin-left="0"
     fit-margin-right="0"
     fit-margin-bottom="0"
     inkscape:zoom="0.23838384"
     inkscape:cx="-433.37522"
     inkscape:cy="191.38313"
     inkscape:window-x="115"
     inkscape:window-y="200"
     inkscape:window-maximized="0"
     inkscape:current-layer="g10" /><g
     id="g10"
     inkscape:groupmode="layer"
     inkscape:label="OoW AvatarsR2"
     transform="matrix(1.25,0,0,-1.25,-207.61251,903.61688)"><g
       id="g4284"
       transform="translate(16.071175,4.056004)"><g
         id="g12"><g
           clip-path="url(#clipPath16)"
           id="g14"><g
             transform="translate(451.9473,582.4235)"
             id="g20"><path
               inkscape:connector-curvature="0"
               id="path22"
               style="fill:#5e6061;fill-opacity:1;fill-rule:nonzero;stroke:none"
               d="m 0,0 c 0,0 -12.656,3.202 -20.443,21.128 -7.748,17.894 -4.963,24.911 -7.882,35.766 -2.823,10.477 -8.857,17.863 -13.741,22.26 0.275,-0.157 0.535,-0.299 0.834,-0.456 20.922,-11.052 21.882,-20.837 21.921,-22.048 -0.007,1.345 -0.424,21.891 -19.357,34.334 -4.516,2.974 -10.415,5.836 -16.598,8.393 27.091,-0.865 45.378,13.191 45.378,13.191 0,0 -30.401,-12.192 -61.179,0 -18.013,7.134 -38.999,19.79 -50.193,19.79 -11.177,0 -25.666,-3.13 -37.141,-9.313 -9.361,-4.995 -18.533,-12.766 -22.395,-12.766 -3.838,0 -2.933,-1.392 -20.42,-4.594 -17.493,-3.225 -25.476,-2.336 -47.815,-24.816 -22.34,-22.544 -22.182,-81.333 -22.182,-81.333 0,0 0.117,11.673 8.078,22.174 3.76,4.979 5.357,7.401 6.041,8.558 -2.226,-4.389 -11.005,-23.047 -10.588,-43.128 0.873,-40.486 -8.833,-46.039 -8.833,-46.039 0,0 5.915,0.944 14.198,9.848 -0.897,-4.995 -1.345,-9.675 -0.818,-12.955 6.914,-42.955 -7.528,-57.499 -7.528,-57.499 0,0 14.309,8.684 22.646,25.304 3.304,6.576 5.136,12.987 6.166,18.697 0.182,-3.343 0.457,-7.063 0.873,-11.311 2.046,-20.97 -13.347,-36.718 -13.347,-36.718 0,0 18.579,6.985 26.31,21.584 0.496,-5.875 0.748,-11.728 0.559,-17.1 -0.464,-13.765 -6.183,-17.368 -6.183,-17.368 8.15,4.625 12.979,13.962 16.118,27.153 1.588,6.741 2.76,14.473 3.681,23.134 0.236,2.233 0.456,4.546 0.668,6.906 l 0.362,0.393 c -0.094,0.189 -0.188,0.385 -0.275,0.574 0.071,0.81 0.149,1.597 0.213,2.423 0.928,10.894 1.195,27.082 1.195,43.639 -0.008,6.073 -0.063,12.193 -0.134,18.123 1.66,-4.129 3.438,-8.18 5.121,-12.16 3.186,-7.544 4.342,-17.439 4.342,-17.439 0,0 9.997,16.251 4.735,41.288 -1.015,4.845 -1.817,9.352 -2.447,13.466 7.709,-16.872 24.55,-19.295 24.55,-19.295 0,0 -7.724,6.45 -8.219,22.52 -0.252,8.204 1.753,14.882 4.986,21.34 0.936,-4.916 2.329,-10.163 4.335,-15.787 5.938,-16.715 19.845,-28.01 29.142,-34.004 0.047,-0.031 0.102,-0.063 0.102,-0.063 0.323,-0.212 0.591,-0.385 0.85,-0.542 4.758,-2.989 8.094,-4.476 8.094,-4.476 0,0 -3.862,3.068 -8.094,8.826 -0.267,0.361 -0.527,0.763 -0.802,1.14 -0.048,0.079 -0.103,0.157 -0.15,0.22 -5.073,7.339 -10.289,18.422 -9.754,32.706 0.024,0.59 0.032,1.149 0.047,1.715 1.22,-3.776 2.62,-7.118 4.225,-9.596 2.147,-3.296 3.894,-5.891 5.482,-8.016 0.047,-0.07 0.102,-0.133 0.15,-0.196 0.275,-0.362 0.543,-0.724 0.802,-1.046 4.09,-5.184 7.449,-7.425 14.749,-11.327 16.635,-8.881 33.532,-9.148 33.532,-9.148 0,0 -14.922,4.491 -23.173,23.597 -1.589,3.674 -3.265,7.402 -4.948,11.044 4.35,-5.144 9.99,-10.162 17.321,-14.308 16.974,-9.565 27.27,-26.012 34.412,-45.079 0.291,-0.794 0.574,-1.604 0.858,-2.407 2.824,-7.913 5.16,-16.211 7.22,-24.659 0.04,-0.165 0.079,-0.338 0.111,-0.512 6.056,-25.775 -6.458,-49.357 -9.84,-55.091 0.008,-0.103 0.031,-0.197 0.039,-0.291 1.637,-11.422 4.759,-19.87 10.43,-24.746 -0.889,1.054 -4.248,5.828 -3.437,18.272 0.361,5.608 1.164,11.696 2.147,17.776 5.231,-15.794 20.553,-24.596 20.553,-24.596 0,0 -11.72,17.572 -7.936,39.14 0.763,4.406 1.353,8.212 1.848,11.689 0.33,-6.009 1.282,-12.813 3.508,-19.916 5.569,-17.919 17.038,-28.065 17.038,-28.065 0,0 -11.013,16.25 -0.929,60.236 0.772,3.351 0.834,8.243 0.52,13.49 1.384,-2.179 2.698,-3.917 3.909,-5.357 -0.629,-6.615 -3.492,-12.239 -3.139,-11.704 0.347,0.48 3.005,3.547 5.971,8.739 2.769,-2.533 4.554,-3.068 4.554,-3.068 0,0 -1.525,1.29 -2.816,6.317 4.932,9.863 9.691,25.327 5.522,44.835 -1.455,6.851 -3.705,13.985 -6.183,20.687 -0.047,0.424 -0.102,0.834 -0.157,1.251 C -12.734,-0.314 0,0 0,0" /></g><g
             transform="translate(311.3457,448.424)"
             id="g24"><path
               inkscape:connector-curvature="0"
               id="path26"
               style="fill:#e0b98f;fill-opacity:1;fill-rule:nonzero;stroke:none"
               d="m 0,0 0,-205.49 -111.428,0 c -1.803,0.804 -2.755,1.189 -2.755,1.189 0,110.223 68.235,118.43 68.235,118.43 6.797,0 11.176,8.773 14.078,22.073 0.459,2.074 0.836,4.19 1.156,6.461 0.631,3.738 1.172,7.732 1.558,11.921 0.221,2.46 0.468,4.969 0.697,7.568 1.033,12.627 1.345,26.336 1.345,39.324 C -27.114,1.476 -12.118,0 0,0" /></g><g
             transform="translate(425.8896,244.1227)"
             id="g28"><path
               inkscape:connector-curvature="0"
               id="path30"
               style="fill:#f1cd9f;fill-opacity:1;fill-rule:nonzero;stroke:none"
               d="m 0,0 c 0,0 -1.033,-0.385 -2.656,-1.188 l -111.888,0 0,205.489 0.222,0 c 12.118,0 27.197,1.476 27.197,1.476 0,-12.914 0.303,-26.459 1.312,-39.012 0.246,-2.509 0.475,-5.018 0.721,-7.453 0.476,-4.296 0.918,-8.363 1.55,-12.184 l 0,-0.082 c 0.237,-1.714 0.549,-3.313 0.877,-4.862 2.87,-14.185 7.412,-23.754 14.439,-23.754 C -68.226,118.43 0,110.223 0,0" /></g><g
             transform="translate(342.3477,391.2506)"
             id="g32"><path
               inkscape:connector-curvature="0"
               id="path34"
               style="fill:#bd9275;fill-opacity:1;fill-rule:nonzero;stroke:none"
               d="M 0,0 0,-0.082 C -2.747,-4.477 -12.192,-16.94 -30.862,-16.94 l -0.14,0 c -17.743,0.082 -28.058,12.996 -30.714,16.776 0.631,3.739 1.172,7.732 1.558,11.922 0.221,2.459 0.468,4.969 0.697,7.568 8.675,-2.198 18.046,-3.51 28.148,-3.665 l 0.311,0 c 10.29,0.155 19.834,1.549 28.731,3.976 0.246,-2.509 0.475,-5.018 0.721,-7.453 C -1.074,7.888 -0.632,3.821 0,0" /></g><g
             transform="translate(309.7227,684.0793)"
             id="g36"><path
               inkscape:connector-curvature="0"
               id="path38"
               style="fill:#e4bf96;fill-opacity:1;fill-rule:nonzero;stroke:none"
               d="m 0,0 c -118.004,0 -118.685,-99.063 -113.429,-163.887 -8.117,15.374 -32.034,10.635 -30.092,-13.594 1.912,-23.311 35.733,-35.339 35.257,-32.625 9.667,-53.361 65.218,-84.158 108.264,-84.158 l 0.91,0 L 0.91,0 0,0" /></g><g
             transform="translate(173.7539,516.8469)"
             id="g40"><path
               inkscape:connector-curvature="0"
               id="path42"
               style="fill:#bd9275;fill-opacity:1;fill-rule:nonzero;stroke:none"
               d="m 0,0 c 5.838,9.355 14.824,5.33 17.055,3.263 2.328,-2.23 4.206,-5.222 2.73,-10.757 -0.811,-3.108 -4.067,-3.313 -3.28,-8.052 0.878,-5.296 3.329,-5.657 4.739,-6.846 1.37,-1.197 3.092,-2.156 3.969,-4.395 0.836,-2.23 0.975,-4.616 0.516,-6.65 -0.885,-3.829 -6.453,-0.795 -10.191,0.878 -2.428,1.156 -10.217,7.732 -12.209,9.962 C -1.606,-16.98 -3.895,-6.223 0,0" /></g><g
             transform="translate(310.3213,684.0793)"
             id="g44"><path
               inkscape:connector-curvature="0"
               id="path46"
               style="fill:#f1cd9f;fill-opacity:1;fill-rule:nonzero;stroke:none"
               d="m 0,0 c 117.995,0 118.668,-99.063 113.437,-163.887 8.092,15.374 32.042,10.635 30.075,-13.594 -1.895,-23.311 -35.741,-35.339 -35.257,-32.625 C 98.588,-263.467 43.054,-294.264 0,-294.264 l -0.902,0 L -0.902,0 0,0" /></g><g
             transform="translate(446.3057,516.8469)"
             id="g48"><path
               inkscape:connector-curvature="0"
               id="path50"
               style="fill:#bd9275;fill-opacity:1;fill-rule:nonzero;stroke:none"
               d="m 0,0 c -5.829,9.355 -14.832,5.33 -17.079,3.263 -2.32,-2.23 -4.165,-5.222 -2.738,-10.757 0.811,-3.108 4.099,-3.313 3.296,-8.052 -0.877,-5.296 -3.337,-5.657 -4.723,-6.846 -1.402,-1.197 -3.124,-2.156 -3.993,-4.395 -0.82,-2.23 -0.984,-4.616 -0.508,-6.65 0.877,-3.829 6.436,-0.795 10.175,0.878 2.443,1.156 10.216,7.732 12.201,9.962 C 1.6,-16.98 3.87,-6.223 0,0" /></g><g
             transform="translate(310.6738,656.1442)"
             id="g52"><path
               inkscape:connector-curvature="0"
               id="path54"
               style="fill:#e4bf96;fill-opacity:1;fill-rule:nonzero;stroke:none"
               d="m 0,0 c -38.873,0 -67.251,-11.274 -84.502,-33.633 -23.999,-31.158 -23.089,-78.771 -14.226,-112.921 2.707,-10.47 4.1,-38.618 5.961,-48.974 8.388,-46.219 59.265,-70.801 92.767,-70.801 0.278,0 0.59,0.033 0.869,0.033 L 0.869,0 0,0" /></g><g
             transform="translate(394.9297,622.4699)"
             id="g56"><path
               inkscape:connector-curvature="0"
               id="path58"
               style="fill:#f1cd9f;fill-opacity:1;fill-rule:nonzero;stroke:none"
               d="m 0,0 c -17.071,22.204 -45.153,33.478 -83.387,33.674 l 0,-266.296 c 38.266,0.402 83.977,27.378 91.848,70.768 1.829,10.356 3.239,38.504 5.97,48.975 C 23.244,-78.819 24.122,-31.272 0,0" /></g><g
             transform="translate(426.0459,244.0905)"
             id="g60"><path
               inkscape:connector-curvature="0"
               id="path62"
               style="fill:#6cc0ed;fill-opacity:1;fill-rule:nonzero;stroke:none"
               d="m 0,0 c 0,0 -1.033,-0.402 -2.665,-1.197 l -223.553,0 c -1.812,0.795 -2.763,1.197 -2.763,1.197 0,83.96 39.66,108.697 58.509,115.757 12.291,-13.553 36.618,-32.207 55.403,-33.117 l 0.369,0 0.074,0 0.082,0 c 0.082,0 0.246,-0.082 0.401,0 18.859,0.91 43.178,19.646 55.485,33.191 C -39.906,108.853 0,84.198 0,0" /></g><g
             transform="translate(245.0713,354.9523)"
             id="g64"><path
               inkscape:connector-curvature="0"
               id="path66"
               style="fill:#ffffff;fill-opacity:1;fill-rule:nonzero;stroke:none"
               d="m 0,0 c 14.57,-16.103 43.465,-38.225 65.726,-39.34 l 0.466,0 0.082,0 0.107,0 c 0.091,0 0.296,-0.074 0.451,0 22.335,1.115 51.155,23.237 65.75,39.34 -3.87,2.189 -7.494,3.862 -10.512,4.969 -12.273,-13.545 -36.592,-32.281 -55.459,-33.191 -0.139,-0.082 -0.311,0 -0.378,0 l -0.073,0 -0.082,0 -0.393,0 C 46.916,-27.312 22.598,-8.658 10.314,4.895 7.313,3.78 3.78,2.148 0,0" /></g></g></g><g
         id="g82"><g
           clip-path="url(#clipPath86)"
           id="g84"><g
             transform="translate(286.3867,484.6374)"
             id="g90"><path
               inkscape:connector-curvature="0"
               id="path92"
               style="fill:#bd9275;fill-opacity:1;fill-rule:nonzero;stroke:none"
               d="M 0,0 C -0.463,9.481 17.363,3.465 23.24,3.168 27.883,2.93 42.012,6.156 43.225,5.325 51.536,-0.296 34.42,-11.619 22.944,-11.619 19.887,-11.619 0.277,-5.719 0,0" /></g><g
             transform="translate(343.5059,429.7292)"
             id="g94"><path
               inkscape:connector-curvature="0"
               id="path96"
               style="fill:#d1ae8b;fill-opacity:1;fill-rule:nonzero;stroke:none"
               d="m 0,0 c -4.382,0.183 -8.882,-2.907 -14.152,-2.435 -0.214,0.091 -0.322,0.091 -0.546,0.091 -1.211,0.181 -2.411,0 -3.729,-0.272 -1.638,-0.291 -3.29,-0.853 -4.832,-1.307 -2.635,-0.725 -5.602,-1.306 -8.656,-1.106 l 0,-0.017 c -0.064,0 -0.106,0.017 -0.171,0.017 -0.064,0 -0.106,-0.017 -0.171,-0.017 l 0,0.017 c -3.054,-0.2 -6.021,0.381 -8.656,1.106 -1.542,0.454 -3.192,1.016 -4.832,1.307 -1.318,0.272 -2.518,0.453 -3.729,0.272 -0.224,0 -0.331,0 -0.547,-0.091 -5.269,-0.472 -9.769,2.618 -14.151,2.435 -1.212,-0.09 -2.969,0.183 -3.954,0.183 0.215,-0.091 0.44,-0.183 0.665,-0.273 12.491,-5.151 23.27,-14.802 35.204,-14.493 l 0.171,0 0.171,0 C -19.98,-14.892 -9.202,-5.241 3.289,-0.09 3.514,0 3.739,0.092 3.954,0.183 2.969,0.183 1.212,-0.09 0,0" /></g><g
             transform="translate(347.1768,430.0241)"
             id="g98"><path
               inkscape:connector-curvature="0"
               id="path100"
               style="fill:#c39778;fill-opacity:1;fill-rule:nonzero;stroke:none"
               d="m 0,0 0.001,0 c 0,0 -12.702,4.139 -21.736,1.71 0,0 -3.364,-1.109 -6.848,-1.785 -2.119,-0.698 -4.688,-0.902 -7.174,-0.817 -1.902,0.064 -3.707,0.268 -5.191,0.487 -0.493,0.064 -0.984,0.149 -1.489,0.24 -0.216,0.038 -0.38,0.067 -0.566,0.103 -0.306,0.06 -0.601,0.109 -0.902,0.175 -0.328,0.068 -0.524,0.113 -0.524,0.113 l 0.019,0.006 C -47.299,0.894 -49.778,1.71 -49.778,1.71 -58.812,4.139 -71.514,0 -71.514,0 c -0.174,-0.067 -0.283,-0.112 -0.283,-0.112 0.985,0 2.742,-0.273 3.954,-0.183 3.602,0.15 7.285,-1.907 11.409,-2.383 1.91,-0.447 7.794,-1.726 15.251,-2.313 1.69,-0.294 3.456,-0.45 5.255,-0.333 l 0,-0.017 c 0.065,0 0.107,0.017 0.171,0.017 0.065,0 0.108,-0.017 0.171,-0.017 l 0,0.017 c 1.015,-0.066 2.019,-0.04 3.006,0.042 5.839,0.081 12.026,0.778 17.725,2.629 4.033,0.523 7.647,2.506 11.184,2.358 1.212,-0.09 2.969,0.183 3.954,0.183 0,0 -0.108,0.045 -0.283,0.112" /></g><g
             transform="translate(228.5215,540.4499)"
             id="g102"><path
               inkscape:connector-curvature="0"
               id="path104"
               style="fill:#ffffff;fill-opacity:1;fill-rule:nonzero;stroke:none"
               d="m 0,0 c 0,0 9.588,-19.05 24.242,-21.005 14.654,-1.973 30.242,0.623 30.242,0.623 0,0 0.216,22.043 -7.409,25.14 C 39.449,7.873 22.021,12.579 0,0" /></g><g
             transform="translate(270.4268,532.8063)"
             id="g106"><path
               inkscape:connector-curvature="0"
               id="path108"
               style="fill:#5787a3;fill-opacity:1;fill-rule:nonzero;stroke:none"
               d="m 0,0 c -0.693,-7.473 -7.103,-13.096 -14.311,-12.557 -7.216,0.52 -12.491,7.01 -11.797,14.464 0.693,7.472 7.101,13.114 14.319,12.575 C -4.59,13.943 0.702,7.472 0,0" /></g><g
             transform="translate(256.9727,526.1042)"
             id="g110"><path
               inkscape:connector-curvature="0"
               id="path112"
               style="fill:#191e22;fill-opacity:1;fill-rule:nonzero;stroke:none"
               d="m 0,0 c -2.675,0.193 -5.408,3.235 -5.062,7.029 0.356,3.775 3.62,6.375 6.293,6.183 C 3.907,13.019 6.649,9.976 6.293,6.182 5.938,2.407 2.685,-0.192 0,0" /></g><g
             transform="translate(283.0225,520.1203)"
             id="g114"><path
               inkscape:connector-curvature="0"
               id="path116"
               style="fill:#d4b08e;fill-opacity:1;fill-rule:nonzero;stroke:none"
               d="m 0,0 c 0,0 -0.328,-0.035 -1.072,-0.173 -0.578,6.765 -2.29,16.108 -7.046,18.028 -7.081,2.941 -22.945,7.25 -43.228,-2.665 -2.066,2.959 -3.146,5.192 -3.146,5.192 22.062,12.613 39.51,7.924 47.066,4.809 C 0.216,22.06 0,0 0,0" /></g><g
             transform="translate(391.7666,539.2736)"
             id="g118"><path
               inkscape:connector-curvature="0"
               id="path120"
               style="fill:#ffffff;fill-opacity:1;fill-rule:nonzero;stroke:none"
               d="m 0,0 c 0,0 -9.268,-18.669 -23.896,-20.382 -14.628,-1.73 -30.26,1.055 -30.26,1.055 0,0 -0.571,21.766 7.004,24.725 C -39.579,8.374 -22.219,12.751 0,0" /></g><g
             transform="translate(347.0127,532.4489)"
             id="g122"><path
               inkscape:connector-curvature="0"
               id="path124"
               style="fill:#5787a3;fill-opacity:1;fill-rule:nonzero;stroke:none"
               d="m 0,0 c 0.724,-7.704 7.418,-13.497 14.937,-12.954 7.54,0.543 13.047,7.242 12.324,14.927 C 26.537,9.697 19.843,15.491 12.314,14.947 4.785,14.404 -0.744,7.706 0,0" /></g><g
             transform="translate(361.0654,525.55)"
             id="g126"><path
               inkscape:connector-curvature="0"
               id="path128"
               style="fill:#191e22;fill-opacity:1;fill-rule:nonzero;stroke:none"
               d="M 0,0 C 2.795,0.202 5.648,3.319 5.287,7.242 4.915,11.145 1.508,13.82 -1.287,13.619 -4.081,13.418 -6.936,10.28 -6.574,6.377 -6.201,2.475 -2.795,-0.201 0,0" /></g><g
             transform="translate(337.5937,520.0168)"
             id="g130"><path
               inkscape:connector-curvature="0"
               id="path132"
               style="fill:#e0b98f;fill-opacity:1;fill-rule:nonzero;stroke:none"
               d="m 0,0 c 0,0 0.329,-0.053 1.072,-0.208 0.467,6.696 2.023,15.883 6.761,17.7 7.038,2.803 22.824,6.834 43.263,-3.27 2.031,2.906 3.077,5.086 3.077,5.086 C 31.901,32.095 14.524,27.718 7.021,24.759 -0.57,21.783 0,0 0,0" /></g><g
             transform="translate(229.2715,541.1042)"
             id="g134"><path
               inkscape:connector-curvature="0"
               id="path136"
               style="fill:#c1a386;fill-opacity:1;fill-rule:nonzero;stroke:none"
               d="m 0,0 c -0.069,-0.105 -0.147,-0.206 -0.214,-0.312 0.142,0.08 0.28,0.151 0.422,0.229 L 0,0 Z" /></g><g
             transform="translate(282.1152,519.9323)"
             id="g138"><path
               inkscape:connector-curvature="0"
               id="path140"
               style="fill:#c1a386;fill-opacity:1;fill-rule:nonzero;stroke:none"
               d="m 0,0 c -3.489,-0.506 -16.761,-2.183 -29.352,-0.487 -13.605,1.815 -22.837,18.355 -24.09,20.715 -1.774,-3.029 -2.77,-6.399 -2.77,-9.956 0,-13.115 13.459,-23.747 30.061,-23.747 11.79,0 21.988,5.365 26.914,13.17 L 0,0 Z" /></g><g
             transform="translate(391.6436,539.0353)"
             id="g142"><path
               inkscape:connector-curvature="0"
               id="path144"
               style="fill:#e0b98f;fill-opacity:1;fill-rule:nonzero;stroke:none"
               d="m 0,0 c -1.127,-2.157 -10.11,-18.543 -23.772,-20.144 -14.629,-1.73 -30.261,1.056 -30.261,1.056 l 0,0.037 -0.157,-0.024 c 3.419,-10.141 15.111,-17.613 29.014,-17.613 16.587,0 30.032,10.632 30.032,23.747 C 4.856,-8.166 3.067,-3.724 0,0" /></g><g
             transform="translate(283.71,550.4641)"
             id="g146"><path
               inkscape:connector-curvature="0"
               id="path148"
               style="fill:#6c5a46;fill-opacity:1;fill-rule:nonzero;stroke:none"
               d="m 0,0 c -0.075,0.118 -1.912,2.918 -5.666,5.806 -2.352,1.81 -4.656,3.187 -7.048,4.213 -2.906,1.225 -6.036,2.091 -9.068,2.507 -2.742,0.306 -5.781,0.225 -9.328,-0.254 -2.707,-0.517 -5.348,-1.325 -7.589,-2.316 -1.598,-0.552 -2.86,-1.328 -3.874,-1.951 -0.389,-0.239 -0.74,-0.455 -1.098,-0.648 l -4.833,-3.048 5.57,1.312 c 0.26,0.066 0.54,0.14 0.842,0.22 1.153,0.307 2.587,0.689 4.269,0.936 0.393,0.057 0.794,0.137 1.202,0.219 0.701,0.14 1.426,0.285 2.184,0.321 0.844,0.057 1.719,0.12 2.619,0.184 l 1.17,0.085 c 3.085,0.039 5.69,-0.196 8.005,-0.731 2.531,-0.438 5.131,-1.256 7.516,-2.364 2.251,-1.081 4.41,-2.153 6.095,-3.394 3.403,-2.278 5.296,-4.178 5.314,-4.196 l 0,-10e-4 c 0.468,-0.472 1.093,-0.715 1.721,-0.715 0.457,0 0.916,0.129 1.317,0.394 1.121,0.736 1.436,2.253 0.723,3.347 L 0,0 Z" /></g><g
             transform="translate(380.8232,561.4182)"
             id="g150"><path
               inkscape:connector-curvature="0"
               id="path152"
               style="fill:#6c5a46;fill-opacity:1;fill-rule:nonzero;stroke:none"
               d="m 0,0 c -0.319,0.17 -0.672,0.387 -1.061,0.626 -1.013,0.624 -2.275,1.398 -3.826,1.932 -2.288,1.01 -4.928,1.817 -7.669,2.339 -3.514,0.475 -6.555,0.556 -9.308,0.248 -3.018,-0.415 -6.149,-1.28 -9.059,-2.507 -2.357,-1.011 -4.727,-2.429 -7.044,-4.212 -3.686,-2.834 -5.519,-5.586 -5.658,-5.798 l -0.034,-0.049 c -0.621,-0.961 -0.488,-2.247 0.316,-3.058 0.458,-0.463 1.068,-0.718 1.714,-0.718 l 0.002,0 c 0.648,10e-4 1.255,0.256 1.712,0.719 l 0.019,0.02 c 0.18,0.178 2.018,1.981 5.318,4.192 1.658,1.222 3.818,2.295 6.064,3.374 2.394,1.111 4.995,1.93 7.557,2.374 2.282,0.528 4.893,0.758 7.937,0.726 l 1.228,-0.088 c 0.892,-0.064 1.759,-0.126 2.607,-0.183 0.748,-0.036 1.473,-0.181 2.174,-0.32 0.408,-0.082 0.808,-0.162 1.201,-0.22 1.682,-0.247 3.117,-0.628 4.27,-0.935 0.301,-0.081 0.581,-0.155 0.85,-0.222 L 4.877,-3.072 0,0 Z" /></g><g
             transform="translate(312.4199,461.7765)"
             id="g154"><path
               inkscape:connector-curvature="0"
               id="path156"
               style="fill:#5e6061;fill-opacity:1;fill-rule:nonzero;stroke:none"
               d="m 0,0 c -16.583,0.088 -33.332,3.867 -41.941,-5.466 -7.027,-9.214 -8.109,-32.624 0.095,-42.124 3.811,11.633 2.793,24.594 13.63,29.003 9.525,3.875 22.781,-0.438 28.422,9.636 6.453,-14.418 25.789,-3.843 35.314,-17.1 4.511,-6.302 4.456,-11.561 7.702,-23.131 9.079,8.077 8.546,30.778 2.649,39.515 C 37.183,3.191 19.017,-0.095 0,0" /></g></g></g></g></g></svg>